<svg xmlns="http://www.w3.org/2000/svg" version="1.1" width="1024" height="680">
<rect x="0" y="0" width="1024" height="680" fill="#a9825d" />
<g transform="scale(4.000000) translate(0.5 0.5)">
<polygon fill="#ffffc3" fill-opacity="0.501961" points="254.159443,185.000000,265.120940,29.207388,184.848729,31.351568,158.024571,155.018464" />
<polygon fill="#53060b" fill-opacity="0.501961" points="-15.959343,20.311607,271.000000,-16.000000,82.927373,104.783816,61.499825,49.550248" />
<polygon fill="#ffffc7" fill-opacity="0.501961" points="-6.954470,55.054040,56.849500,46.409191,84.668765,116.794556,-16.000000,101.792425" />
<polygon fill="#470704" fill-opacity="0.501961" points="242.472745,185.000000,108.252417,145.616684,90.727286,126.181478,-16.000000,166.507301" />
<polygon fill="#98573b" fill-opacity="0.501961" points="178.980567,127.085724,118.863655,146.536467,61.589143,134.513279,161.453828,28.544761" />
<polygon fill="#6e2c23" fill-opacity="0.501961" points="262.878047,28.173342,108.570875,34.586517,82.997682,-13.702431,271.000000,-4.310288" />
<polygon fill="#efe79c" fill-opacity="0.501961" points="135.469037,140.832054,246.315514,185.000000,271.000000,3.578994,170.050417,132.033654" />
<polygon fill="#5e1d0f" fill-opacity="0.501961" points="58.571688,47.477970,-16.000000,20.605266,-16.000000,53.082912,44.485162,48.999136" />
<polygon fill="#ecce89" fill-opacity="0.501961" points="114.884285,154.655580,132.581606,166.182249,136.573453,153.089149,110.339673,145.576630" />
<polygon fill="#e7d884" fill-opacity="0.501961" points="182.996053,136.271672,174.082994,67.172073,152.310584,50.623448,271.000000,22.000940" />
<polygon fill="#672b23" fill-opacity="0.501961" points="121.069355,2.981095,71.216561,32.001598,109.011502,113.967254,119.387558,115.337324" />
<polygon fill="#5f2611" fill-opacity="0.501961" points="179.876360,185.000000,-16.000000,169.212596,137.403545,159.986690,139.089361,138.078635" />
<polygon fill="#e7da9f" fill-opacity="0.501961" points="135.789699,143.192313,181.128423,162.343440,182.445678,185.000000,271.000000,124.221061" />
<polygon fill="#815b47" fill-opacity="0.501961" points="43.859452,155.700670,-16.000000,161.651626,56.698525,108.457715,29.988508,105.619185" />
<polygon fill="#eadf9a" fill-opacity="0.501961" points="61.923313,56.584702,79.389254,120.724212,-16.000000,54.627673,66.566401,47.276891" />
<polygon fill="#905335" fill-opacity="0.501961" points="111.964860,-1.259103,187.065897,135.183508,146.509094,101.207149,181.923966,90.257181" />
<polygon fill="#e9dc9e" fill-opacity="0.501961" points="271.000000,34.729775,191.102726,31.319230,181.045128,33.749969,259.976644,164.678902" />
<polygon fill="#915d50" fill-opacity="0.501961" points="132.431613,2.913538,35.185046,7.591354,-16.000000,9.080757,31.148958,33.189777" />
<polygon fill="#a36e56" fill-opacity="0.501961" points="101.368795,130.248159,102.509569,78.847181,81.033148,66.078007,73.346513,94.707484" />
<polygon fill="#66341b" fill-opacity="0.501961" points="99.645826,185.000000,166.307284,152.927533,181.444573,167.412265,88.188742,158.293420" />
<polygon fill="#c19262" fill-opacity="0.501961" points="137.655040,127.465000,158.150453,83.018088,130.436009,85.969559,122.473314,115.465405" />
<polygon fill="#864c35" fill-opacity="0.501961" points="178.058786,33.894637,257.498392,27.666341,271.000000,-9.778710,166.564909,-5.079836" />
<polygon fill="#a8a782" fill-opacity="0.501961" points="49.564741,146.280783,80.396164,118.595861,49.401022,105.436027,50.083195,127.414445" />
<polygon fill="#713e2f" fill-opacity="0.501961" points="-12.460760,185.000000,-14.855466,129.712277,92.476968,185.000000,92.323990,116.787964" />
<polygon fill="#d0c67c" fill-opacity="0.501961" points="162.552444,103.221608,233.838722,89.256309,181.216961,134.594984,192.620247,135.748559" />
<polygon fill="#a16346" fill-opacity="0.501961" points="126.819566,41.601511,187.027535,43.460412,91.001856,89.400242,152.450690,76.549894" />
<polygon fill="#e1d58f" fill-opacity="0.501961" points="179.315370,127.834553,164.861306,112.295720,201.857220,179.069217,142.363708,139.262015" />
<polygon fill="#6e3028" fill-opacity="0.501961" points="139.763021,-1.332374,66.213845,30.921074,63.816874,73.394459,199.643720,25.159743" />
<polygon fill="#be8c62" fill-opacity="0.501961" points="109.947017,118.696968,137.268975,165.153229,118.332835,160.963620,100.022485,129.626437" />
<polygon fill="#917138" fill-opacity="0.501961" points="190.400171,138.328539,191.624870,132.757681,152.721268,95.743639,167.081103,113.324188" />
<polygon fill="#957c62" fill-opacity="0.501961" points="-16.000000,111.840960,30.583250,106.225710,57.993145,110.554010,47.374710,156.068341" />
<polygon fill="#662d26" fill-opacity="0.501961" points="80.971216,183.509775,80.296681,112.170039,101.007592,139.195495,117.714570,162.635123" />
<polygon fill="#ddd497" fill-opacity="0.501961" points="-16.000000,107.795563,4.308233,97.869519,-16.000000,44.500506,84.198805,106.048351" />
<polygon fill="#e4d38e" fill-opacity="0.501961" points="203.038528,35.318725,271.000000,23.482052,212.744733,130.516836,182.697306,28.190647" />
<polygon fill="#7f4229" fill-opacity="0.501961" points="167.488810,97.994580,146.761729,110.903749,144.524228,105.337864,178.989465,81.173888" />
<polygon fill="#ceb471" fill-opacity="0.501961" points="271.000000,185.000000,195.647384,185.000000,247.942038,152.396103,256.833561,160.454695" />
<polygon fill="#8a5738" fill-opacity="0.501961" points="134.094612,140.737633,115.534873,120.441772,164.486108,133.919767,171.934948,128.536869" />
<polygon fill="#744b2e" fill-opacity="0.501961" points="88.607926,112.944255,73.476153,92.144156,82.032944,87.367979,87.092419,97.107246" />
<polygon fill="#814632" fill-opacity="0.501961" points="240.718553,26.032594,267.605331,28.613338,240.173758,-16.000000,162.731681,34.328502" />
<polygon fill="#ae755c" fill-opacity="0.501961" points="99.391606,90.848744,116.990569,159.771390,90.010074,121.107159,85.362667,87.567001" />
<polygon fill="#7b5642" fill-opacity="0.501961" points="65.771440,164.578305,73.534216,121.809788,50.114561,153.914255,33.166838,104.809477" />
<polygon fill="#e1d094" fill-opacity="0.501961" points="65.622868,46.165151,59.899730,62.507722,75.385238,89.919038,0.024623,53.794247" />
<polygon fill="#9e6e5e" fill-opacity="0.501961" points="97.621686,-0.654757,-1.651498,8.499801,51.664364,19.637070,105.276744,5.655787" />
<polygon fill="#64301d" fill-opacity="0.501961" points="146.937522,161.415384,142.933247,140.747457,134.400640,157.478197,136.781394,174.716344" />
<polygon fill="#e1d299" fill-opacity="0.501961" points="-16.000000,63.774829,32.673126,51.856498,78.559979,125.883091,72.615847,76.808278" />
<polygon fill="#7e4634" fill-opacity="0.501961" points="19.393453,17.508403,-16.000000,4.807147,-10.804721,55.706255,89.310547,32.342660" />
<polygon fill="#70332a" fill-opacity="0.501961" points="104.072268,3.093934,166.398131,13.883666,182.829907,50.233887,96.514799,13.567453" />
<polygon fill="#8f4d38" fill-opacity="0.501961" points="162.659907,35.405165,121.536286,47.731782,157.755331,67.688114,106.297906,80.486453" />
<polygon fill="#e4d58a" fill-opacity="0.501961" points="170.362403,72.940352,178.742038,80.051344,172.724276,120.241628,233.397687,27.541542" />
<polygon fill="#e6deae" fill-opacity="0.501961" points="243.168759,82.648078,254.778036,61.077554,271.000000,153.712259,232.905041,136.435123" />
<polygon fill="#b18056" fill-opacity="0.501961" points="150.476892,42.219568,146.295403,56.255436,173.086796,55.831200,171.162687,43.861389" />
<polygon fill="#d3b883" fill-opacity="0.501961" points="124.699013,159.879017,126.008785,154.930080,135.679168,149.235925,134.619961,162.809981" />
<polygon fill="#e1d396" fill-opacity="0.501961" points="188.296032,168.960111,215.758086,172.233097,186.498384,134.974475,163.784536,111.792025" />
<polygon fill="#aa9074" fill-opacity="0.501961" points="44.750433,142.123662,25.838095,133.835468,33.319675,109.718220,45.564801,136.165749" />
<polygon fill="#b6895e" fill-opacity="0.501961" points="145.868053,112.728800,173.233612,118.108441,130.367456,124.678017,147.130996,71.908251" />
<polygon fill="#764031" fill-opacity="0.501961" points="120.087805,92.774070,51.030231,24.249271,95.130006,75.794626,103.907243,112.085955" />
<polygon fill="#875f3d" fill-opacity="0.501961" points="68.274565,34.559555,61.953569,64.289022,81.628260,81.767294,66.913691,75.406490" />
<polygon fill="#995a3d" fill-opacity="0.501961" points="166.383491,119.089897,178.874762,82.378296,121.882429,40.358456,153.648408,75.608643" />
<polygon fill="#7e5444" fill-opacity="0.501961" points="92.036076,113.556727,82.132425,118.057864,98.078174,130.724265,30.919896,159.608700" />
<polygon fill="#b48677" fill-opacity="0.501961" points="76.443494,6.268665,21.148334,4.581819,-12.175085,4.907902,56.994263,-16.000000" />
<polygon fill="#ab6d4c" fill-opacity="0.501961" points="166.308335,83.048198,125.233263,69.188289,113.939019,75.325547,119.208382,96.096054" />
<polygon fill="#c8bd71" fill-opacity="0.501961" points="214.847103,127.656440,203.010545,102.783463,185.299133,104.526712,227.164201,125.277024" />
<polygon fill="#ac9e76" fill-opacity="0.501961" points="45.930133,115.644558,47.538640,130.104909,76.939751,125.277662,60.147901,108.075606" />
<polygon fill="#6c3025" fill-opacity="0.501961" points="122.145607,34.864400,132.900921,71.744865,66.767817,50.235433,172.606927,-16.000000" />
<polygon fill="#6b311c" fill-opacity="0.501961" points="-7.762832,168.923039,22.096198,164.847561,110.119444,151.461987,149.779403,185.000000" />
<polygon fill="#794e34" fill-opacity="0.501961" points="80.756730,93.899117,75.346354,99.444612,74.515844,92.024360,66.588629,28.586194" />
<polygon fill="#e1d491" fill-opacity="0.501961" points="149.421236,149.265930,147.029688,137.327002,165.171840,132.331876,198.758518,167.286518" />
<polygon fill="#8a583e" fill-opacity="0.501961" points="25.288970,152.844115,-16.000000,145.093124,49.368647,145.856506,-0.957012,185.000000" />
<polygon fill="#78381f" fill-opacity="0.501961" points="146.993343,58.292834,159.761779,58.075249,159.722011,60.579116,129.179894,61.660249" />
<polygon fill="#d9ce95" fill-opacity="0.501961" points="72.252791,92.653003,86.568413,113.249887,73.904425,115.597791,3.999186,88.062825" />
<polygon fill="#e1d198" fill-opacity="0.501961" points="170.632249,110.506237,161.931126,104.481504,271.000000,152.538292,214.226352,159.653785" />
<polygon fill="#b48d5c" fill-opacity="0.501961" points="138.226713,138.520673,151.159674,136.037734,117.485595,156.392336,121.858515,163.789368" />
<polygon fill="#8b6a32" fill-opacity="0.501961" points="179.393465,127.139245,163.784283,108.219709,183.905169,125.358203,183.094019,132.210320" />
<polygon fill="#b88f56" fill-opacity="0.501961" points="159.718347,56.806450,145.545355,53.364927,177.384062,58.274283,172.528304,75.851197" />
<polygon fill="#986f40" fill-opacity="0.501961" points="171.208052,44.902387,191.347291,23.607174,186.248160,27.762027,181.321280,51.729795" />
<polygon fill="#7c442a" fill-opacity="0.501961" points="171.247194,96.135821,173.968200,99.178715,161.414563,92.967393,150.877623,109.466325" />
<polygon fill="#967855" fill-opacity="0.501961" points="53.087466,109.785620,-11.695602,109.617061,-15.557895,119.735672,70.990615,113.661770" />
<polygon fill="#e3d28b" fill-opacity="0.501961" points="171.583429,54.238154,245.432784,26.511190,210.634939,34.235508,218.299829,83.981928" />
<polygon fill="#753a2a" fill-opacity="0.501961" points="236.570083,26.023345,190.967814,29.062265,196.060660,19.840193,241.729775,17.248208" />
<polygon fill="#e3d489" fill-opacity="0.501961" points="207.806821,84.092479,169.946409,93.752578,176.219523,98.488648,187.103951,28.598602" />
<polygon fill="#e4d59a" fill-opacity="0.501961" points="178.265429,161.788392,182.020588,169.022359,218.056267,168.759329,201.798369,109.404380" />
<polygon fill="#c8bc91" fill-opacity="0.501961" points="38.400232,119.304373,29.865145,108.234814,-16.000000,105.399584,22.780188,103.836474" />
<polygon fill="#754436" fill-opacity="0.501961" points="75.837605,125.772008,67.213093,127.594861,55.146542,160.932229,75.671549,162.539827" />
<polygon fill="#784232" fill-opacity="0.501961" points="115.398612,109.997248,66.381043,42.551731,66.457097,75.164340,109.885512,54.562772" />
<polygon fill="#884c37" fill-opacity="0.501961" points="264.567292,23.351281,180.424729,14.750967,178.152635,12.685788,250.672587,-16.000000" />
<polygon fill="#744a33" fill-opacity="0.501961" points="147.813540,156.646837,179.647629,162.219577,165.514170,155.529420,147.727438,185.000000" />
<polygon fill="#8d5b48" fill-opacity="0.501961" points="0.500857,15.244791,62.004600,10.117267,77.554377,26.250616,30.042948,23.243327" />
<polygon fill="#bb895e" fill-opacity="0.501961" points="139.347430,109.330667,157.567541,91.815728,136.285988,81.925384,149.697412,70.498892" />
<polygon fill="#885237" fill-opacity="0.501961" points="151.656938,134.487440,159.710967,131.146287,117.110283,127.431848,133.466570,136.423806" />
<polygon fill="#794034" fill-opacity="0.501961" points="88.462828,13.506101,153.601855,-16.000000,141.260885,0.270858,42.439807,50.742324" />
<polygon fill="#a17d63" fill-opacity="0.501961" points="9.435016,146.428659,31.716724,136.409939,28.227326,112.566087,-16.000000,130.551223" />
<polygon fill="#a76f54" fill-opacity="0.501961" points="138.941692,122.866888,98.674263,106.473439,83.874560,112.395588,94.751773,132.752207" />
<polygon fill="#85482f" fill-opacity="0.501961" points="166.971453,64.455690,111.602943,67.962174,132.458287,71.701481,126.403162,74.468819" />
<polygon fill="#7f5e44" fill-opacity="0.501961" points="42.716480,129.439927,35.357911,110.228123,46.182995,117.300824,51.550477,165.455228" />
<polygon fill="#a06241" fill-opacity="0.501961" points="153.135246,91.427168,174.708035,89.210437,170.203399,63.442329,176.525286,65.916794" />
<polygon fill="#e3d48b" fill-opacity="0.501961" points="190.973430,104.232165,213.126397,80.697944,205.851908,31.844066,183.053872,34.659494" />
<polygon fill="#ac9a7a" fill-opacity="0.501961" points="66.690962,128.459673,79.855263,122.419521,46.733101,123.074658,51.877987,144.661900" />
<polygon fill="#7d4026" fill-opacity="0.501961" points="-9.322209,145.637135,36.124770,168.338419,-16.000000,174.255493,2.673012,146.628949" />
<polygon fill="#683222" fill-opacity="0.501961" points="167.012558,165.901727,130.255321,180.896234,140.513545,143.941412,170.157061,185.000000" />
<polygon fill="#dacb8f" fill-opacity="0.501961" points="62.676466,64.899104,63.155004,48.546639,50.419107,52.244017,80.916934,116.919205" />
<polygon fill="#cfb474" fill-opacity="0.501961" points="174.977312,56.580814,201.453779,76.951228,165.023712,49.155773,169.148157,69.765294" />
<polygon fill="#7f5a40" fill-opacity="0.501961" points="78.608598,117.266069,88.397650,123.444140,84.005279,104.500992,79.874219,134.919644" />
<polygon fill="#a76f58" fill-opacity="0.501961" points="109.209211,145.327318,76.731762,61.290105,78.550791,69.454156,78.314741,79.877437" />
<polygon fill="#e4d298" fill-opacity="0.501961" points="32.085708,48.777997,-5.684973,60.279183,72.930903,79.270139,40.049161,50.795821" />
<polygon fill="#ddd490" fill-opacity="0.501961" points="224.982855,119.405409,185.369757,129.430172,185.939458,125.123193,233.919176,84.022142" />
<polygon fill="#62291d" fill-opacity="0.501961" points="93.883875,150.704098,76.325777,149.143479,101.283686,185.000000,142.708724,182.497986" />
<polygon fill="#c5a56e" fill-opacity="0.501961" points="177.294447,97.823623,154.933921,105.564605,172.088311,103.508932,190.483021,84.940461" />
<polygon fill="#ad795e" fill-opacity="0.501961" points="87.707315,115.922762,100.686154,136.359854,102.907266,125.555191,91.485319,86.623088" />
<polygon fill="#7a522d" fill-opacity="0.501961" points="182.785801,168.444368,169.411977,157.785491,157.906766,185.000000,208.599561,172.494284" />
<polygon fill="#7b4839" fill-opacity="0.501961" points="37.571327,18.328644,31.984030,46.593857,51.579170,47.483529,72.009491,26.108691" />
<polygon fill="#dfd299" fill-opacity="0.501961" points="51.459585,64.682426,82.483879,108.276800,77.768052,121.360644,14.595840,60.678512" />
<polygon fill="#c8bd6f" fill-opacity="0.501961" points="204.838486,111.719813,202.671046,96.236283,189.298361,115.530500,185.165445,100.438574" />
<polygon fill="#907549" fill-opacity="0.501961" points="155.494211,153.972934,161.085322,153.749234,163.093700,157.018568,171.141812,167.967327" />
<polygon fill="#c7a877" fill-opacity="0.501961" points="134.838629,163.928137,127.569232,151.219931,127.450053,157.092588,128.390861,162.733943" />
<polygon fill="#dbc88d" fill-opacity="0.501961" points="246.419251,147.506349,217.521011,165.570998,196.887901,178.556836,264.908115,154.121383" />
<polygon fill="#97553f" fill-opacity="0.501961" points="131.767603,34.796073,159.372346,45.433400,156.114386,51.905279,149.367726,50.553646" />
<polygon fill="#e1d393" fill-opacity="0.501961" points="147.841234,138.101132,147.461040,149.663559,211.549084,167.566226,163.838658,134.456854" />
<polygon fill="#915e3c" fill-opacity="0.501961" points="159.598762,102.030494,182.731791,124.931148,147.765438,104.926753,150.775994,106.263361" />
<polygon fill="#7d4635" fill-opacity="0.501961" points="119.187237,112.760692,105.725414,109.732494,121.430755,91.293107,121.949696,111.229051" />
<polygon fill="#e8d79b" fill-opacity="0.501961" points="240.696172,78.807052,230.595321,30.955032,271.000000,26.671418,262.680172,84.532013" />
<polygon fill="#794034" fill-opacity="0.501961" points="176.846353,-3.975517,158.997261,3.356774,188.427763,32.120791,213.689355,27.366272" />
<polygon fill="#b1855d" fill-opacity="0.501961" points="163.279736,132.286309,166.116740,117.998357,128.147294,116.260543,159.494712,109.772928" />
<polygon fill="#e2d79c" fill-opacity="0.501961" points="223.319886,73.983134,255.516465,109.763010,180.066190,173.234872,227.543169,117.905348" />
<polygon fill="#e3d28a" fill-opacity="0.501961" points="176.325649,80.841619,182.800798,91.047927,197.440863,34.700906,172.362840,74.676133" />
<polygon fill="#e3d499" fill-opacity="0.501961" points="212.253583,172.319044,183.298710,166.955410,172.239326,157.737484,193.013363,131.846343" />
<polygon fill="#ba905e" fill-opacity="0.501961" points="161.959873,58.247397,167.235387,65.319329,176.870157,47.478501,146.849292,55.238215" />
<polygon fill="#84573c" fill-opacity="0.501961" points="63.918073,40.078807,68.456790,58.647824,76.820389,82.118692,66.631404,73.831900" />
<polygon fill="#d9cf9b" fill-opacity="0.501961" points="40.391324,98.535104,37.253526,73.501800,7.823594,107.429226,-16.000000,104.856254" />
<polygon fill="#a97951" fill-opacity="0.501961" points="151.995708,134.636442,117.863434,144.575885,98.397291,144.535599,132.848901,148.307528" />
<polygon fill="#9a6144" fill-opacity="0.501961" points="118.438022,111.033738,134.575309,144.761825,121.850162,135.368052,115.444441,117.470423" />
<polygon fill="#ceb573" fill-opacity="0.501961" points="250.166888,161.357163,271.000000,169.402054,234.026392,185.000000,204.722163,181.491019" />
<polygon fill="#ac7a4b" fill-opacity="0.501961" points="162.480396,89.211170,178.630578,84.485722,178.926247,83.146570,178.300692,91.832874" />
<polygon fill="#978750" fill-opacity="0.501961" points="151.642369,157.107013,167.123794,158.816516,143.008400,145.126837,153.686722,155.901652" />
<polygon fill="#e1d591" fill-opacity="0.501961" points="165.524647,135.643327,140.498204,143.143676,195.257188,153.137569,173.439045,122.169315" />
<polygon fill="#6e3728" fill-opacity="0.501961" points="114.157872,70.742347,70.913962,31.937838,66.411577,59.521088,134.892160,62.584484" />
<polygon fill="#bd9765" fill-opacity="0.501961" points="134.002204,153.289369,120.296528,152.401502,129.780856,150.369061,144.122255,138.839437" />
<polygon fill="#ae9f79" fill-opacity="0.501961" points="52.293003,119.262843,60.283568,140.886403,66.541994,126.100452,69.573546,119.195830" />
<polygon fill="#672e10" fill-opacity="0.501961" points="155.689166,178.750869,127.923746,162.099668,50.779179,178.816573,76.273089,181.963167" />
<polygon fill="#966a43" fill-opacity="0.501961" points="-16.000000,131.471284,-16.000000,98.237902,6.941479,110.207714,1.383560,118.171798" />
<polygon fill="#ece4b6" fill-opacity="0.501961" points="255.265388,126.812139,253.344541,140.471135,271.000000,112.512845,246.596043,113.722908" />
<polygon fill="#80452d" fill-opacity="0.501961" points="167.684574,101.746666,160.013757,89.346499,146.565779,111.775068,168.755163,95.470986" />
<polygon fill="#93694f" fill-opacity="0.501961" points="-0.564659,134.954488,10.079892,150.258232,53.840550,143.288441,15.594935,141.542159" />
<polygon fill="#d9cd92" fill-opacity="0.501961" points="73.326963,109.469973,42.012406,108.331510,72.974345,82.965057,58.432430,64.846199" />
<polygon fill="#a57551" fill-opacity="0.501961" points="129.480076,126.583407,163.195702,127.583418,162.391659,103.740651,174.278278,106.973337" />
<polygon fill="#885345" fill-opacity="0.501961" points="49.333285,18.980918,62.969327,33.062728,117.751337,-10.632168,118.630268,4.334518" />
<polygon fill="#804931" fill-opacity="0.501961" points="-15.554206,1.754476,-0.013514,68.331435,-3.914558,52.372819,51.199573,46.322293" />
<polygon fill="#7f5639" fill-opacity="0.501961" points="90.128935,102.444437,85.313005,100.660334,74.553145,89.466618,82.968667,107.017678" />
<polygon fill="#b98d62" fill-opacity="0.501961" points="136.237848,116.746521,150.432781,119.458650,136.523084,96.239732,156.817908,87.967172" />
<polygon fill="#794739" fill-opacity="0.501961" points="101.491062,138.404648,39.034514,153.050047,70.505827,160.390121,81.901351,113.957050" />
<polygon fill="#8e503f" fill-opacity="0.501961" points="83.530565,62.975596,86.556083,72.290198,85.746792,85.452307,103.868102,92.638373" />
<polygon fill="#9a5d3b" fill-opacity="0.501961" points="153.339907,71.058763,159.747204,57.853079,171.256922,74.027582,179.297557,86.311895" />
<polygon fill="#ac9276" fill-opacity="0.501961" points="44.768349,146.218411,43.945932,130.599766,44.036866,133.690121,38.326237,119.721560" />
<polygon fill="#a67965" fill-opacity="0.501961" points="67.990591,7.296153,77.838067,10.605864,90.177348,-0.881592,-9.934439,7.634547" />
<polygon fill="#673522" fill-opacity="0.501961" points="176.183232,162.226759,183.673132,185.000000,157.414013,156.998412,162.219943,185.000000" />
<polygon fill="#ae7650" fill-opacity="0.501961" points="119.344130,115.058201,119.821517,117.218095,126.845037,87.436160,158.608823,69.963910" />
<polygon fill="#9b7f41" fill-opacity="0.501961" points="169.405295,132.009259,141.502597,133.958588,159.123334,133.222628,170.989203,123.733602" />
<polygon fill="#6c342e" fill-opacity="0.501961" points="85.801670,161.581288,70.488326,145.325914,94.972573,137.672209,116.324699,157.297947" />
<polygon fill="#985d47" fill-opacity="0.501961" points="117.554942,98.957620,125.265828,100.318071,110.826322,76.973925,135.536385,66.922213" />
<polygon fill="#a08d6a" fill-opacity="0.501961" points="53.576530,137.783642,42.833309,116.599035,70.633658,115.869656,45.339035,110.406555" />
<polygon fill="#d8c489" fill-opacity="0.501961" points="64.196914,47.117866,46.572926,76.041302,65.784979,51.813707,34.915744,50.258299" />
<polygon fill="#d3c78d" fill-opacity="0.501961" points="32.661428,112.196092,9.270108,98.922679,-16.000000,104.225490,0.520303,79.838026" />
<polygon fill="#986852" fill-opacity="0.501961" points="14.488871,17.609843,62.757202,13.320719,82.824342,7.884360,4.355764,11.610063" />
<polygon fill="#ba9a58" fill-opacity="0.501961" points="216.419428,31.004942,211.860506,32.029847,251.468210,26.871559,181.476463,33.754756" />
<polygon fill="#dcd089" fill-opacity="0.501961" points="237.729818,103.234511,182.858925,92.336066,166.765803,62.896448,178.357973,79.474660" />
<polygon fill="#866a49" fill-opacity="0.501961" points="24.130171,104.271418,41.833339,111.575854,48.388981,149.470176,38.683189,114.161504" />
<polygon fill="#bb9161" fill-opacity="0.501961" points="112.241859,148.656321,110.838422,137.855636,135.423847,151.264111,120.672756,159.863421" />
<polygon fill="#a6694c" fill-opacity="0.501961" points="165.965541,48.972352,141.164193,57.871398,141.216721,55.693545,135.809388,48.682038" />
<polygon fill="#9f7e50" fill-opacity="0.501961" points="67.053961,73.794627,64.921379,49.316826,63.972490,57.497728,62.300848,66.969212" />
<polygon fill="#6e2e28" fill-opacity="0.501961" points="73.221360,25.103695,97.356675,33.437754,161.843222,27.222674,155.204881,5.910273" />
<polygon fill="#7e4733" fill-opacity="0.501961" points="187.898402,25.506315,177.488924,43.793566,169.359753,46.217439,181.594222,24.217330" />
<polygon fill="#d7cd85" fill-opacity="0.501961" points="175.867350,116.505123,227.216610,123.645246,170.190573,100.758451,184.199736,122.274566" />
<polygon fill="#753f28" fill-opacity="0.501961" points="16.647290,164.250353,70.143715,159.920789,87.077296,180.484069,81.488115,153.897240" />
<polygon fill="#8d4d2f" fill-opacity="0.501961" points="261.629728,-12.937835,232.114689,27.516071,255.202151,27.157251,271.000000,-8.914009" />
<polygon fill="#e1d48a" fill-opacity="0.501961" points="176.968429,106.585440,202.697097,85.978747,173.589604,64.306386,185.004859,58.220106" />
<polygon fill="#65311b" fill-opacity="0.501961" points="137.066392,174.291869,135.021059,170.818775,136.716485,151.301069,144.536425,146.350254" />
<polygon fill="#b6975a" fill-opacity="0.501961" points="184.356015,39.570941,178.269630,46.500662,168.453813,49.302666,185.357217,47.232663" />
<polygon fill="#7a4734" fill-opacity="0.501961" points="67.723072,60.061738,82.548861,59.174265,75.756046,78.733286,65.872442,72.400606" />
<polygon fill="#e6d7a0" fill-opacity="0.501961" points="208.459599,126.018017,190.880596,140.833310,255.077769,147.853484,233.368554,126.418040" />
<polygon fill="#814a3a" fill-opacity="0.501961" points="221.016933,17.054795,229.890334,1.988920,188.705949,4.166920,188.568527,20.136174" />
<polygon fill="#894f3d" fill-opacity="0.501961" points="23.555147,35.325024,-16.000000,8.881766,42.768001,25.224193,23.292264,20.962022" />
<polygon fill="#b79176" fill-opacity="0.501961" points="107.479005,-7.858235,51.256560,-0.826291,-10.007780,0.676872,46.821542,2.025907" />
<polygon fill="#865b46" fill-opacity="0.501961" points="39.667946,156.990159,19.120898,146.747671,25.272426,149.450801,59.273355,141.559554" />
<polygon fill="#e0d38c" fill-opacity="0.501961" points="190.242865,105.729296,170.525202,112.121321,220.714725,62.577953,174.187287,94.626112" />
<polygon fill="#daca8e" fill-opacity="0.501961" points="58.566363,45.144451,70.265342,100.289761,73.782251,79.620834,46.451416,62.195064" />
<polygon fill="#e5d292" fill-opacity="0.501961" points="190.403675,32.442788,182.970533,34.825732,237.803045,68.700025,253.852621,30.710064" />
<polygon fill="#bea36e" fill-opacity="0.501961" points="25.706250,49.912715,17.005357,50.429854,59.750458,47.115421,-11.415714,56.232561" />
<polygon fill="#dbce96" fill-opacity="0.501961" points="31.158419,71.277554,-0.274969,66.655905,25.830560,107.018376,51.612512,97.676920" />
<polygon fill="#c5b76e" fill-opacity="0.501961" points="206.629549,124.628999,214.043509,122.850114,213.430340,120.755509,220.724801,126.058423" />
<polygon fill="#8f5135" fill-opacity="0.501961" points="165.419295,73.649736,163.832883,75.063587,158.414919,77.736463,157.673769,54.793820" />
<polygon fill="#c2b667" fill-opacity="0.501961" points="205.529041,109.613005,187.742180,107.733047,197.920930,103.941346,195.763317,101.604438" />
<polygon fill="#d9ca91" fill-opacity="0.501961" points="55.720981,69.348049,84.552394,115.006746,81.873720,104.703083,51.241000,74.612742" />
<polygon fill="#875032" fill-opacity="0.501961" points="28.153885,155.132290,-8.606513,157.613132,-16.000000,122.149714,6.166522,148.787713" />
<polygon fill="#945b43" fill-opacity="0.501961" points="115.004056,149.951207,99.859583,134.403358,87.921127,123.810224,103.463235,143.855614" />
<polygon fill="#b6845d" fill-opacity="0.501961" points="164.707895,79.644786,145.041122,87.819631,160.940544,94.691114,141.173062,100.238314" />
<polygon fill="#e1d392" fill-opacity="0.501961" points="172.366506,128.966725,193.561348,164.301096,140.360449,141.940661,162.710118,134.371488" />
<polygon fill="#7c543f" fill-opacity="0.501961" points="103.827225,159.154564,72.850921,118.490860,65.814171,113.509793,76.318670,123.587213" />
<polygon fill="#a38467" fill-opacity="0.501961" points="30.232948,130.739986,47.369856,145.880340,31.505382,116.905365,-11.521050,131.281969" />
<polygon fill="#98553e" fill-opacity="0.501961" points="164.411257,67.759284,156.459257,94.888754,160.517152,89.074993,174.618149,88.733460" />
<polygon fill="#e2d49a" fill-opacity="0.501961" points="53.695385,63.602208,76.564798,122.819306,81.401896,104.636597,7.195549,57.798874" />
<polygon fill="#783b25" fill-opacity="0.501961" points="181.746724,2.449552,229.601722,-4.452034,73.400499,-6.540507,146.609469,2.645722" />
<polygon fill="#8f5a45" fill-opacity="0.501961" points="101.355269,74.444232,97.026353,98.662811,76.340709,99.741542,101.160662,97.502685" />
<polygon fill="#7e5b41" fill-opacity="0.501961" points="50.065202,138.998904,48.813015,153.507185,44.687499,132.836759,40.958258,116.771400" />
<polygon fill="#b9a380" fill-opacity="0.501961" points="32.509490,113.290118,46.335267,144.979763,43.352017,132.033786,13.632242,79.900769" />
<polygon fill="#a6704e" fill-opacity="0.501961" points="151.668464,59.859161,136.082041,65.555610,159.236580,63.049901,179.211071,81.726690" />
<polygon fill="#9a6a3d" fill-opacity="0.501961" points="172.313476,71.953764,175.798978,67.612157,174.560739,63.142713,163.471633,103.071196" />
<polygon fill="#764b30" fill-opacity="0.501961" points="158.165429,158.686626,193.425968,185.000000,168.611136,155.955994,167.147021,161.175333" />
<polygon fill="#83452b" fill-opacity="0.501961" points="119.421286,60.335103,163.316056,62.029678,159.200107,58.282157,153.247401,57.173541" />
<polygon fill="#885438" fill-opacity="0.501961" points="124.705660,137.114624,149.559899,136.230741,150.280673,130.473699,151.249874,127.472006" />
<polygon fill="#914e3b" fill-opacity="0.501961" points="132.466840,40.311199,137.471569,47.275442,139.607417,74.208222,133.296304,77.629901" />
<polygon fill="#e4d69c" fill-opacity="0.501961" points="185.993956,130.809641,188.766276,118.107744,199.315169,185.000000,223.457171,126.067644" />
<polygon fill="#aa7452" fill-opacity="0.501961" points="133.405349,144.041860,148.801082,143.064431,125.581842,146.264734,98.454742,115.964189" />
<polygon fill="#805a47" fill-opacity="0.501961" points="82.492542,126.215018,79.345551,113.601661,77.196588,138.910413,71.674863,137.418783" />
<polygon fill="#7a4d2e" fill-opacity="0.501961" points="-10.183879,48.772014,32.170971,45.143817,52.277498,41.609052,51.671897,48.319466" />
<polygon fill="#e2d18a" fill-opacity="0.501961" points="185.307427,35.860140,176.633730,77.248784,211.080276,32.696777,204.633289,31.950546" />
<polygon fill="#b89063" fill-opacity="0.501961" points="119.427413,153.329065,113.102998,141.413488,135.429232,167.349260,135.890020,165.484548" />
<polygon fill="#976c38" fill-opacity="0.501961" points="229.234289,28.253451,184.855923,31.882822,237.866315,28.433919,261.668957,23.948532" />
<polygon fill="#703c1d" fill-opacity="0.501961" points="174.245500,185.000000,141.788391,165.927228,102.561915,162.963139,125.226057,161.161030" />
<polygon fill="#80472d" fill-opacity="0.501961" points="147.875023,100.245089,171.085884,93.826654,158.458500,100.345437,148.520372,106.318453" />
<polygon fill="#ad795f" fill-opacity="0.501961" points="89.233757,86.062232,87.996712,103.737273,92.265790,112.089762,98.977423,127.734231" />
<polygon fill="#86472d" fill-opacity="0.501961" points="134.866349,70.027523,146.104926,64.562641,166.053251,70.998028,152.186000,67.975231" />
<polygon fill="#d0c37a" fill-opacity="0.501961" points="168.434900,108.920880,190.981008,118.483170,200.149475,100.641403,194.595827,112.534702" />
<polygon fill="#a56949" fill-opacity="0.501961" points="156.686077,68.492195,168.029761,56.940485,132.689222,87.332174,115.205103,76.406685" />
<polygon fill="#e0cf89" fill-opacity="0.501961" points="190.566310,38.305727,174.729717,57.973760,176.106732,46.840132,187.095719,76.973631" />
<polygon fill="#74402f" fill-opacity="0.501961" points="81.330169,155.351516,18.856731,167.466394,58.974796,145.264303,63.937385,161.024816" />
<polygon fill="#a17447" fill-opacity="0.501961" points="172.334211,64.759113,179.087261,58.955760,116.588056,54.691244,174.568847,58.507709" />
<polygon fill="#cfb081" fill-opacity="0.501961" points="129.439040,157.005644,128.579031,161.608735,133.789908,162.597165,134.728104,154.818699" />
<polygon fill="#866049" fill-opacity="0.501961" points="39.341416,135.399002,40.836728,147.999882,63.197237,137.161904,44.934147,152.198142" />
<polygon fill="#e0cd8f" fill-opacity="0.501961" points="8.484947,53.832167,9.192043,92.195974,-16.000000,57.097684,27.514604,50.193595" />
<polygon fill="#c0a774" fill-opacity="0.501961" points="168.740290,119.396779,167.308257,128.299739,163.316561,120.690648,169.786680,117.159118" />
<polygon fill="#753d2e" fill-opacity="0.501961" points="119.301237,113.242694,86.758358,50.674719,113.615862,72.223489,105.369482,108.910015" />
<polygon fill="#8d6334" fill-opacity="0.501961" points="153.751300,102.356625,167.879156,117.556499,168.354820,110.282041,187.076162,131.305037" />
<polygon fill="#e2d396" fill-opacity="0.501961" points="209.545969,170.413620,169.697215,116.605578,188.378948,185.000000,172.378570,129.385550" />
<polygon fill="#b7a982" fill-opacity="0.501961" points="60.472126,129.089061,74.357477,124.387532,69.758425,120.716128,64.031383,125.813362" />
<polygon fill="#d7cc99" fill-opacity="0.501961" points="9.172998,102.068520,33.624743,70.653135,32.535290,102.480415,44.241161,108.357096" />
<polygon fill="#824b3a" fill-opacity="0.501961" points="52.109407,33.775083,74.291852,54.441300,57.663629,43.876600,-16.000000,9.516380" />
<polygon fill="#c3a069" fill-opacity="0.501961" points="164.300389,57.319010,164.766271,42.259741,168.685336,54.397489,176.492036,65.803070" />
<polygon fill="#dcd08e" fill-opacity="0.501961" points="233.810995,126.944468,213.014332,110.107112,192.406134,111.922053,194.030971,116.133769" />
<polygon fill="#84563b" fill-opacity="0.501961" points="87.537737,96.092043,87.429054,112.291893,77.332150,98.361928,71.304009,70.105570" />
<polygon fill="#dbcf95" fill-opacity="0.501961" points="59.076102,97.120751,59.720706,86.417954,70.589354,77.383738,78.952255,124.497517" />
<polygon fill="#c8a972" fill-opacity="0.501961" points="170.096214,66.533481,174.523427,53.646442,169.401298,59.308463,165.637089,67.921132" />
<polygon fill="#aa7e50" fill-opacity="0.501961" points="161.256031,40.243077,164.811622,52.138903,172.817779,45.753309,173.597042,54.185958" />
<polygon fill="#74392f" fill-opacity="0.501961" points="197.305650,21.681297,189.100787,17.378319,161.619036,27.149261,148.387552,43.079404" />
<polygon fill="#6b3218" fill-opacity="0.501961" points="-10.252208,158.434819,-16.000000,174.717174,87.035076,165.470612,36.494240,185.000000" />
<polygon fill="#94733d" fill-opacity="0.501961" points="168.630094,128.908396,147.146802,134.896364,143.894139,137.183503,167.388825,131.659604" />
<polygon fill="#866448" fill-opacity="0.501961" points="156.809944,153.760660,148.780668,158.703513,149.885114,159.273599,154.662227,160.675404" />
<polygon fill="#6d2f25" fill-opacity="0.501961" points="116.129384,56.198251,84.694460,51.526636,111.714295,9.988799,128.042220,66.627717" />
<polygon fill="#90604e" fill-opacity="0.501961" points="86.138041,7.272331,91.852377,-16.000000,104.981852,3.428996,60.844822,20.170502" />
<polygon fill="#803e2f" fill-opacity="0.501961" points="136.713040,70.273101,116.204637,43.586903,165.852315,36.754042,124.348645,36.236445" />
<polygon fill="#c3a16f" fill-opacity="0.501961" points="124.344553,159.883625,118.892655,158.211557,137.967962,147.715832,135.547185,152.681773" />
<polygon fill="#8b5342" fill-opacity="0.501961" points="81.433261,83.080665,86.156444,66.396786,61.300331,62.953165,80.999334,67.156457" />
<polygon fill="#946150" fill-opacity="0.501961" points="66.468246,22.035879,48.901045,19.548244,51.501109,16.779964,66.421410,20.714491" />
<polygon fill="#99845f" fill-opacity="0.501961" points="47.863479,118.583138,37.514971,109.061831,64.653518,112.388122,52.252688,108.549452" />
<polygon fill="#bb8f62" fill-opacity="0.501961" points="153.372186,93.545463,146.795223,81.842730,146.151089,94.516420,139.137144,112.403925" />
<polygon fill="#ab7657" fill-opacity="0.501961" points="170.975500,111.343133,162.060645,106.967556,172.141186,99.325411,159.791560,102.293254" />
<polygon fill="#eadead" fill-opacity="0.501961" points="259.087907,139.770668,232.460462,131.348389,271.000000,124.459027,248.439093,82.289092" />
<polygon fill="#6b3726" fill-opacity="0.501961" points="161.098210,158.059467,139.073363,162.461635,154.288622,185.000000,176.642699,185.000000" />
</g>
</svg>