<svg xmlns="http://www.w3.org/2000/svg" version="1.1" width="1024" height="680">
<rect x="0" y="0" width="1024" height="680" fill="#a9825d" />
<g transform="scale(4.000000) translate(0.5 0.5)">
<polygon fill="#ffffc4" fill-opacity="0.501961" points="158.573038,156.360698,254.449217,185.000000,260.985145,27.929180,184.753069,33.316835" />
<polygon fill="#53050b" fill-opacity="0.501961" points="-16.000000,21.766955,269.499490,-16.000000,81.993125,106.931526,63.742547,49.233164" />
<polygon fill="#ffffca" fill-opacity="0.501961" points="-16.000000,102.725505,82.857740,114.974389,57.394689,48.785245,-16.000000,54.711702" />
<polygon fill="#430201" fill-opacity="0.501961" points="-16.000000,168.833798,215.724296,174.440234,112.977187,154.250466,88.083042,123.490927" />
<polygon fill="#94533a" fill-opacity="0.501961" points="45.937533,156.612978,150.297094,35.808662,177.224829,85.469103,171.150831,130.742395" />
<polygon fill="#6e3026" fill-opacity="0.501961" points="-16.000000,53.972825,131.674707,-16.000000,271.000000,-2.729308,271.000000,24.202907" />
<polygon fill="#eee59a" fill-opacity="0.501961" points="252.335933,23.291962,181.410970,120.728650,138.038023,147.414699,271.000000,185.000000" />
<polygon fill="#5b2512" fill-opacity="0.501961" points="214.104666,185.000000,65.093023,147.928077,134.117358,185.000000,137.084523,142.144113" />
<polygon fill="#855140" fill-opacity="0.501961" points="-0.050078,52.585724,64.852279,46.135869,98.970866,6.349993,-8.722872,8.602406" />
<polygon fill="#eee089" fill-opacity="0.501961" points="183.524428,29.205574,172.882065,74.634947,186.895264,109.005300,266.129475,38.128051" />
<polygon fill="#723e30" fill-opacity="0.501961" points="117.908164,157.893770,-2.937016,179.736871,-0.046954,141.141202,102.816173,137.616093" />
<polygon fill="#b88360" fill-opacity="0.501961" points="70.280183,57.355673,136.105168,153.886115,132.457905,166.969497,108.518145,152.232293" />
<polygon fill="#ad7c50" fill-opacity="0.501961" points="187.418661,38.911227,113.664633,114.680241,188.744835,132.900709,127.719220,47.581635" />
<polygon fill="#682d24" fill-opacity="0.501961" points="121.099323,115.922624,117.539975,13.299982,77.326713,31.392022,104.343681,108.905670" />
<polygon fill="#eadf98" fill-opacity="0.501961" points="57.041492,47.586444,-16.000000,56.186027,75.768669,118.055473,60.201402,43.317746" />
<polygon fill="#f1e9a1" fill-opacity="0.501961" points="158.938139,134.996327,183.542871,169.541825,217.953433,171.631902,136.956591,142.435737" />
<polygon fill="#978266" fill-opacity="0.501961" points="63.994279,108.637195,-16.000000,104.104130,30.693345,158.550472,63.949549,139.915949" />
<polygon fill="#743a23" fill-opacity="0.501961" points="13.456386,30.707722,-16.000000,-16.000000,-1.467467,52.388656,59.851463,45.395135" />
<polygon fill="#cac491" fill-opacity="0.501961" points="84.314137,108.323893,79.828339,117.667061,50.814023,143.880080,64.605355,85.062997" />
<polygon fill="#693218" fill-opacity="0.501961" points="156.311321,149.533688,178.783013,163.097870,33.537363,165.239288,195.697529,185.000000" />
<polygon fill="#814a2b" fill-opacity="0.501961" points="162.558920,104.032095,178.401255,82.392357,145.345983,103.081970,188.188939,131.061281" />
<polygon fill="#d5c779" fill-opacity="0.501961" points="178.929758,46.508917,153.843470,53.330106,216.260117,95.869526,189.689967,134.319621" />
<polygon fill="#854831" fill-opacity="0.501961" points="253.592032,26.680287,271.000000,1.987567,140.499487,-16.000000,196.993349,32.705398" />
<polygon fill="#753b2a" fill-opacity="0.501961" points="63.784620,38.529749,165.438018,60.077257,161.221576,70.522802,64.997836,74.542386" />
<polygon fill="#b7805a" fill-opacity="0.501961" points="146.447672,73.882436,156.182097,91.600602,131.164911,130.478985,112.564403,72.168104" />
<polygon fill="#ceb678" fill-opacity="0.501961" points="135.714973,166.029569,119.585797,156.935065,181.031707,125.607478,133.082817,143.628587" />
<polygon fill="#9e6e5f" fill-opacity="0.501961" points="60.654586,22.323601,65.735459,26.902224,112.044025,-3.971183,-9.933469,9.252476" />
<polygon fill="#99634d" fill-opacity="0.501961" points="132.619961,98.243233,75.443860,63.250019,84.580695,118.225066,114.655774,76.432767" />
<polygon fill="#e9dea9" fill-opacity="0.501961" points="271.000000,140.495558,258.340627,18.595921,207.446493,185.000000,180.376037,160.700301" />
<polygon fill="#caaf6e" fill-opacity="0.501961" points="196.319374,185.000000,179.093711,167.937985,261.614760,176.539366,252.332099,151.209204" />
<polygon fill="#dfd295" fill-opacity="0.501961" points="68.483024,101.838442,61.901762,46.726100,-12.911416,54.496165,-11.306129,108.970236" />
<polygon fill="#5c2819" fill-opacity="0.501961" points="152.611039,163.034217,140.511443,140.143919,134.508410,161.822388,158.097480,158.889734" />
<polygon fill="#683228" fill-opacity="0.501961" points="79.776227,111.300095,124.675800,166.955790,123.971314,163.118644,75.075868,182.990780" />
<polygon fill="#74533a" fill-opacity="0.501961" points="36.940478,112.834796,54.247390,163.180076,42.839560,109.195669,29.310367,107.535972" />
<polygon fill="#6d2d26" fill-opacity="0.501961" points="140.256093,-16.000000,108.414429,22.105223,181.752855,48.171715,184.692910,49.270606" />
<polygon fill="#dfd190" fill-opacity="0.501961" points="164.340689,110.626202,170.179879,129.581003,138.552637,143.253871,226.237273,182.707098" />
<polygon fill="#e1d396" fill-opacity="0.501961" points="29.277508,48.781641,87.014203,110.943587,69.671846,116.237901,73.761802,79.569376" />
<polygon fill="#8d5939" fill-opacity="0.501961" points="169.488052,131.291303,135.197185,140.439231,128.079131,146.298962,118.929073,123.940850" />
<polygon fill="#955137" fill-opacity="0.501961" points="122.236975,36.768979,158.284199,78.476399,156.321993,112.809748,179.687987,83.977932" />
<polygon fill="#e6d58e" fill-opacity="0.501961" points="184.882651,33.084597,172.172597,116.141144,266.013569,27.097591,198.263139,31.849692" />
<polygon fill="#7b5235" fill-opacity="0.501961" points="70.926714,47.730215,60.310001,62.675191,86.280730,96.964909,75.693758,97.417107" />
<polygon fill="#804a31" fill-opacity="0.501961" points="-14.444064,185.000000,67.914145,144.530893,9.181581,149.228506,-16.000000,113.101939" />
<polygon fill="#814833" fill-opacity="0.501961" points="217.268204,-16.000000,271.000000,26.720326,208.786300,28.986169,167.436796,34.870179" />
<polygon fill="#906e36" fill-opacity="0.501961" points="191.508778,127.199308,191.052222,132.062761,144.417454,94.535588,190.582632,136.973232" />
<polygon fill="#744c40" fill-opacity="0.501961" points="69.333161,125.796643,94.037110,126.305658,65.952122,159.144228,54.780974,148.155358" />
<polygon fill="#6b2e25" fill-opacity="0.501961" points="74.146255,58.531852,128.335840,68.372518,122.054577,17.215205,66.791256,29.692591" />
<polygon fill="#decf95" fill-opacity="0.501961" points="48.774615,89.611885,76.512049,115.986648,58.582594,47.945775,67.060075,45.125056" />
<polygon fill="#d5cb7e" fill-opacity="0.501961" points="168.267687,109.892264,181.335286,80.471742,224.118100,127.195128,181.861066,122.239904" />
<polygon fill="#a39772" fill-opacity="0.501961" points="46.874560,131.808166,76.673218,126.061495,78.938515,119.773880,43.664576,104.111681" />
<polygon fill="#b98e61" fill-opacity="0.501961" points="127.441979,112.122072,140.140725,128.339534,154.497828,81.597791,142.036671,88.358143" />
<polygon fill="#b58257" fill-opacity="0.501961" points="162.380315,44.802364,135.176363,57.741031,159.896447,56.354380,186.970632,48.866860" />
<polygon fill="#692f17" fill-opacity="0.501961" points="8.357474,178.655797,35.784197,159.250453,122.137445,160.983072,203.227417,185.000000" />
<polygon fill="#754b31" fill-opacity="0.501961" points="167.230085,153.998128,149.171866,162.295543,141.622827,172.046937,191.571784,177.546901" />
<polygon fill="#ded38e" fill-opacity="0.501961" points="149.353190,135.415967,184.148887,134.274978,158.430914,158.075842,146.457756,148.035757" />
<polygon fill="#7b422a" fill-opacity="0.501961" points="167.593162,93.465209,145.153199,103.054462,147.041449,110.384938,172.275077,97.110443" />
<polygon fill="#97583e" fill-opacity="0.501961" points="109.048580,73.604170,101.965777,76.372514,164.300990,55.379896,120.181161,95.354845" />
<polygon fill="#e3d39b" fill-opacity="0.501961" points="79.819830,101.259561,78.450375,127.759471,54.649595,70.307210,-16.000000,48.853026" />
<polygon fill="#ac765a" fill-opacity="0.501961" points="83.995583,115.648134,89.175849,90.362588,95.525259,86.577403,126.124946,166.081231" />
<polygon fill="#c6a46a" fill-opacity="0.501961" points="115.534293,154.563812,119.511867,160.485512,133.018683,158.852015,115.455470,143.927045" />
<polygon fill="#b58877" fill-opacity="0.501961" points="-16.000000,4.697201,-11.764582,-16.000000,81.637942,-16.000000,81.315195,4.083242" />
<polygon fill="#804936" fill-opacity="0.501961" points="1.096843,11.319902,-16.000000,43.215385,39.031460,49.272788,69.167874,44.978366" />
<polygon fill="#e5d69d" fill-opacity="0.501961" points="181.024090,174.276568,195.655084,115.130507,245.844935,146.016735,184.209504,169.307823" />
<polygon fill="#7e5640" fill-opacity="0.501961" points="88.988455,137.327831,63.108713,129.307817,81.098327,123.495623,86.699399,84.105822" />
<polygon fill="#b1854e" fill-opacity="0.501961" points="178.457825,55.721140,163.098666,119.662912,179.279020,87.975018,166.887794,67.594981" />
<polygon fill="#a79672" fill-opacity="0.501961" points="50.916689,143.019447,61.299541,137.262072,71.244658,115.737131,50.646135,106.769944" />
<polygon fill="#977755" fill-opacity="0.501961" points="-16.000000,111.403189,0.077320,120.321929,69.064557,112.284337,33.172289,107.415544" />
<polygon fill="#e5d591" fill-opacity="0.501961" points="271.000000,23.119468,222.695126,115.826552,170.547584,72.786805,238.932123,31.533088" />
<polygon fill="#a0694b" fill-opacity="0.501961" points="151.691946,150.366723,140.306300,146.081744,127.739919,149.169959,95.636294,99.667353" />
<polygon fill="#ded289" fill-opacity="0.501961" points="239.669112,119.259078,172.103150,94.448068,182.375345,87.589417,173.329888,45.140560" />
<polygon fill="#dad096" fill-opacity="0.501961" points="63.867185,83.883123,-16.000000,87.816198,77.167307,116.290724,85.103462,112.971462" />
<polygon fill="#cdab7c" fill-opacity="0.501961" points="125.058740,156.646931,131.588425,152.901766,140.543908,142.271064,132.355659,162.268497" />
<polygon fill="#bfb363" fill-opacity="0.501961" points="203.665831,109.488611,186.085111,108.737276,201.707250,100.707897,205.558368,104.724701" />
<polygon fill="#824b3e" fill-opacity="0.501961" points="116.256824,7.170357,19.362183,41.313681,139.965372,-12.535317,131.224861,8.242332" />
<polygon fill="#763e2f" fill-opacity="0.501961" points="113.366923,75.507685,130.437641,65.176692,83.977428,59.523296,118.042592,119.036314" />
<polygon fill="#936a52" fill-opacity="0.501961" points="42.019009,154.745958,53.437563,147.677576,29.291102,135.497357,-16.000000,137.669135" />
<polygon fill="#804a39" fill-opacity="0.501961" points="182.257856,6.236290,253.015896,-9.426617,172.431253,39.044430,183.759684,43.204745" />
<polygon fill="#b98b60" fill-opacity="0.501961" points="152.680457,118.237926,133.523069,97.649423,161.937294,79.576780,138.107897,119.452136" />
<polygon fill="#73372a" fill-opacity="0.501961" points="243.698239,19.121598,197.098520,19.334728,141.959614,25.906855,228.696244,28.159419" />
<polygon fill="#e3d599" fill-opacity="0.501961" points="214.310088,169.085634,169.275448,117.186244,182.682202,171.206259,250.804536,96.658289" />
<polygon fill="#d3c98f" fill-opacity="0.501961" points="17.246631,100.711979,30.239053,108.525103,-3.938104,106.458085,3.852475,68.945749" />
<polygon fill="#75361e" fill-opacity="0.501961" points="16.140774,160.886625,7.865370,176.306755,-16.000000,157.387527,5.133874,155.223163" />
<polygon fill="#653021" fill-opacity="0.501961" points="165.474900,161.188734,156.773503,185.000000,140.845948,142.805201,136.017996,157.864075" />
<polygon fill="#a98156" fill-opacity="0.501961" points="157.191550,134.434373,170.180875,130.336006,163.105099,116.081097,151.055415,108.517992" />
<polygon fill="#e9dfaf" fill-opacity="0.501961" points="260.446181,145.095615,249.587838,60.913907,249.267746,120.531163,234.300782,132.963329" />
<polygon fill="#8f5c4a" fill-opacity="0.501961" points="12.271940,14.619780,4.868994,23.026125,11.811720,26.386497,115.680628,5.687436" />
<polygon fill="#dbd189" fill-opacity="0.501961" points="172.782344,91.591382,202.507714,117.654467,178.852629,139.538433,186.237770,134.537683" />
<polygon fill="#844f34" fill-opacity="0.501961" points="146.695793,137.788535,127.016329,134.714574,129.302385,128.425021,156.029362,132.228808" />
<polygon fill="#a4896f" fill-opacity="0.501961" points="27.219167,132.330391,37.079588,134.830617,51.102386,151.233980,30.033548,104.938867" />
<polygon fill="#934d3a" fill-opacity="0.501961" points="137.839682,80.559927,127.165314,45.008349,166.605323,38.405033,141.616502,52.114940" />
<polygon fill="#805938" fill-opacity="0.501961" points="72.239799,69.272450,75.385877,97.986706,89.076001,109.570012,85.840429,98.363744" />
<polygon fill="#dcd096" fill-opacity="0.501961" points="17.627171,106.546353,61.166998,69.644911,71.833026,78.223724,76.063421,100.772719" />
<polygon fill="#8e7045" fill-opacity="0.501961" points="155.311443,153.648360,164.623177,155.344366,171.991279,173.009163,151.911581,147.920576" />
<polygon fill="#985738" fill-opacity="0.501961" points="161.884585,93.056049,156.408012,56.913674,179.095212,85.239716,155.462224,90.969741" />
<polygon fill="#733b2f" fill-opacity="0.501961" points="79.513987,47.244693,78.442716,77.562116,59.913527,37.219999,105.726518,7.748417" />
<polygon fill="#e7d497" fill-opacity="0.501961" points="271.000000,74.943327,246.867544,29.203772,183.913186,39.729746,186.703835,30.677698" />
<polygon fill="#95793a" fill-opacity="0.501961" points="192.453343,138.317287,169.495996,110.151983,165.660774,108.182717,176.021137,124.164641" />
<polygon fill="#bf915f" fill-opacity="0.501961" points="160.965560,60.911242,164.824532,41.313000,170.755054,64.278548,170.851051,73.460878" />
<polygon fill="#80513d" fill-opacity="0.501961" points="23.442936,164.538246,66.709104,140.617011,59.435973,140.484028,17.744976,153.779826" />
<polygon fill="#92663b" fill-opacity="0.501961" points="188.453576,136.572441,171.301447,113.113677,148.561756,105.793216,170.561869,117.487245" />
<polygon fill="#aa8050" fill-opacity="0.501961" points="181.762456,48.655986,151.699600,55.049413,184.658725,41.876711,153.497505,121.851894" />
<polygon fill="#a66e58" fill-opacity="0.501961" points="92.021637,91.935324,99.327318,88.742361,106.831194,131.386169,75.934106,76.300507" />
<polygon fill="#642921" fill-opacity="0.501961" points="110.560014,157.315937,100.728471,185.000000,72.269565,141.587843,89.004878,147.701469" />
<polygon fill="#7e6044" fill-opacity="0.501961" points="43.165144,119.053476,51.839633,141.780997,51.227073,143.248284,32.432525,107.976770" />
<polygon fill="#8a4b34" fill-opacity="0.501961" points="250.685548,-16.000000,263.723504,20.076749,253.182516,26.280191,198.814927,10.684931" />
<polygon fill="#c4ab7b" fill-opacity="0.501961" points="163.482787,120.484970,163.809229,129.704037,164.676301,128.660842,173.063529,119.114653" />
<polygon fill="#ddc990" fill-opacity="0.501961" points="233.486245,146.164345,271.000000,156.149097,253.948517,153.856599,203.243824,185.000000" />
<polygon fill="#d1c57f" fill-opacity="0.501961" points="191.282965,103.201522,218.113133,117.700441,209.096342,125.342443,235.090418,126.360636" />
<polygon fill="#e2d492" fill-opacity="0.501961" points="144.437064,139.040525,170.136440,157.536186,196.585684,155.195090,168.149800,131.805097" />
<polygon fill="#d1c48f" fill-opacity="0.501961" points="-16.000000,70.178284,34.554272,112.710095,34.764209,113.320198,-16.000000,87.719565" />
<polygon fill="#ddca8c" fill-opacity="0.501961" points="62.254843,54.955136,63.289827,72.232981,40.131359,54.798635,63.841892,46.154389" />
<polygon fill="#764230" fill-opacity="0.501961" points="3.880048,172.550857,82.815756,136.928065,81.693353,185.000000,70.465171,156.809064" />
<polygon fill="#7e4838" fill-opacity="0.501961" points="-11.682189,40.308302,67.307680,47.960807,68.075065,31.127085,57.699128,20.672333" />
<polygon fill="#a77352" fill-opacity="0.501961" points="144.383280,116.081212,162.562302,100.481689,166.564228,119.820926,172.912137,98.137097" />
<polygon fill="#bca882" fill-opacity="0.501961" points="13.805193,72.151917,44.863026,135.725802,44.274836,145.573792,37.026814,118.855009" />
<polygon fill="#ccb16f" fill-opacity="0.501961" points="250.202862,163.750274,264.489793,158.553718,248.492435,185.000000,195.073594,185.000000" />
<polygon fill="#ad9d7a" fill-opacity="0.501961" points="49.047156,125.491324,46.168594,117.986651,72.111441,119.269717,60.170883,139.536740" />
<polygon fill="#a26549" fill-opacity="0.501961" points="140.133707,39.213636,143.694617,44.033723,167.022710,41.181837,156.732655,52.236966" />
<polygon fill="#6d2e27" fill-opacity="0.501961" points="64.485817,65.357103,89.071175,50.953851,176.205731,11.991835,109.068438,11.548299" />
<polygon fill="#976b45" fill-opacity="0.501961" points="-16.000000,137.407813,10.261937,109.005027,0.817834,107.717801,-16.000000,101.584343" />
<polygon fill="#844a31" fill-opacity="0.501961" points="145.543978,113.197919,170.824164,96.021017,164.694071,94.128178,148.519812,99.655550" />
<polygon fill="#aa6e4c" fill-opacity="0.501961" points="167.976227,60.727709,120.078579,104.667642,126.676437,70.623870,132.040643,78.040209" />
<polygon fill="#e2d297" fill-opacity="0.501961" points="160.469120,100.347407,209.903501,151.690007,256.617268,153.186345,164.644493,105.741308" />
<polygon fill="#e2d388" fill-opacity="0.501961" points="168.613938,58.047804,192.502018,42.950440,182.266573,101.906147,211.347660,55.685908" />
<polygon fill="#925444" fill-opacity="0.501961" points="83.254468,64.357033,81.376285,85.699318,101.846663,92.031486,87.664047,68.297519" />
<polygon fill="#9e6243" fill-opacity="0.501961" points="178.352112,90.248475,140.545535,65.250566,175.541748,100.837002,166.621521,97.641573" />
<polygon fill="#caaa7b" fill-opacity="0.501961" points="126.249908,160.368985,131.624837,162.774464,137.243278,147.840758,142.826525,140.991518" />
<polygon fill="#794132" fill-opacity="0.501961" points="115.614937,116.465999,102.307138,55.742577,107.398214,56.381794,101.293875,105.754297" />
<polygon fill="#662e1a" fill-opacity="0.501961" points="159.672349,166.469669,136.512418,151.477927,129.932530,185.000000,87.574565,162.220622" />
</g>
</svg>