<?xml version="1.0" encoding="UTF-8" standalone="no"?>
<svg
   xmlns:dc="http://purl.org/dc/elements/1.1/"
   xmlns:cc="http://creativecommons.org/ns#"
   xmlns:rdf="http://www.w3.org/1999/02/22-rdf-syntax-ns#"
   xmlns:svg="http://www.w3.org/2000/svg"
   xmlns="http://www.w3.org/2000/svg"
   style="enable-background:new"
   id="svg8"
   version="1.1"
   viewBox="0 0 223.2 189.33334"
   height="189.33334mm"
   width="223.2mm">
  <defs
     id="defs2" />
  <metadata
     id="metadata5">
    <rdf:RDF>
      <cc:Work
         rdf:about="">
        <dc:format>image/svg+xml</dc:format>
        <dc:type
           rdf:resource="http://purl.org/dc/dcmitype/StillImage" />
        <dc:title></dc:title>
      </cc:Work>
    </rdf:RDF>
  </metadata>
  <g
     transform="translate(6.5999994,-53.833332)"
     id="layer5">
    <g
       transform="matrix(1.1871372,0,0,1.1857673,-18.530278,-27.513506)"
       id="g5850"
       style="display:inline;fill:#b32227;fill-opacity:1">
      <path
         id="path5860"
         d="m 77.256792,218.48899 c -21.099559,-3.51611 -41.441498,-18.79661 -50.962196,-38.28192 -4.062824,-8.31508 -7.698301,-19.60046 -6.598028,-20.48185 2.389374,-1.91403 39.633241,-26.80315 40.748296,-27.23104 0.788569,-0.3026 3.790836,2.40369 6.671704,6.01397 5.208524,6.52728 5.266262,6.55877 10.280196,5.6076 3.541243,-0.6718 5.405284,-0.50702 6.261765,0.55355 0.670732,0.83055 3.778978,4.81023 6.907213,8.84373 l 5.687702,7.33363 6.708346,-0.73839 6.70835,-0.73839 11.22392,10.35484 11.22392,10.35483 7.4776,-1.9863 7.47758,-1.9863 21.03659,20.93929 c 11.57012,11.51661 21.03658,21.35675 21.03658,21.86698 0,1.28575 -103.994351,0.89144 -111.889538,-0.42423 z M 156.65232,192.4021 c -5.21782,-5.70117 -10.05647,-10.35769 -10.75256,-10.34781 -0.6961,0.01 -4.5583,1.07792 -8.58269,2.37342 -4.60985,1.48397 -6.18907,2.38402 -4.2683,2.43263 1.67683,0.0424 6.61586,2.31973 10.97561,5.06065 l 7.92683,4.98348 -5.43684,-5.60482 c -8.20052,-8.45389 -3.33112,-6.81802 8.50215,2.85629 5.69213,4.65361 10.52334,8.49505 10.73603,8.53652 0.21269,0.0415 -3.88241,-4.58918 -9.10023,-10.29036 z m -54.84321,-16.76816 c -1.42043,-2.41714 -21.310766,-27.7437 -21.788649,-27.7437 -0.236909,0 -1.294765,0.33156 -2.350791,0.73679 -1.450242,0.5565 1.28551,4.12469 11.180747,14.58281 13.012733,13.75295 14.677573,15.34911 12.958693,12.4241 z m 12.94698,-6.4024 c -4.41337,-4.49686 -6.16578,-5.47914 -9.70513,-5.44002 l -4.31926,0.0477 3.79488,1.65179 c 2.08719,0.90848 6.14819,3.3565 9.02444,5.44003 7.20155,5.21674 7.53348,4.74861 1.20507,-1.69953 z m -30.723532,0.82774 c -0.876447,-1.22156 -6.764084,-8.60754 -13.083635,-16.41329 l -11.490094,-14.19227 -6.192833,4.45422 c -8.388937,6.03378 -15.691213,11.49798 -17.168443,12.84691 -0.670731,0.61248 3.510035,-1.21795 9.290591,-4.06762 9.479969,-4.67338 14.519656,-5.61379 14.475428,-2.70113 -0.0079,0.52409 -3.345656,2.78287 -7.417105,5.0195 -4.071449,2.23664 -7.153108,4.31614 -6.848129,4.62111 0.304976,0.30498 4.256791,-0.83903 8.781809,-2.54223 4.52502,-1.7032 8.696582,-3.09672 9.270141,-3.09672 0.573559,0 5.584441,4.09711 11.135293,9.1047 5.550853,5.00758 10.260774,9.12341 10.466489,9.14627 0.205716,0.0229 -0.343064,-0.95789 -1.219512,-2.17945 z m 47.938832,5.44104 c -1.04186,-1.25536 -0.80008,-2.95997 0.99565,-7.01948 16.9845,-38.39598 -19.61119,-78.634531 -59.012545,-64.88685 -12.866433,4.48927 -21.977594,13.4255 -27.441875,26.91497 -1.820613,4.49449 -4.524706,8.88481 -6.128019,9.94937 l -2.869551,1.90529 0.75929,-4.67892 c 0.41761,-2.5734 2.354356,-8.05243 4.303882,-12.1756 16.93977,-35.826982 66.274048,-40.420249 89.863758,-8.36676 7.24949,9.85053 9.60323,17.47295 9.68304,31.35765 0.0648,11.26335 -0.22781,12.82392 -3.82925,20.42668 -2.14463,4.5274 -4.13536,8.23164 -4.42385,8.23164 -0.28848,0 -1.14371,-0.74609 -1.90053,-1.65799 z m 18.86911,-0.66079 c -1.95809,-2.16366 -2.61795,-2.23795 -7.31668,-0.82386 l -5.16449,1.55428 2.93706,-7.27139 c 7.72208,-19.11779 3.49009,-41.89926 -10.64346,-57.29543 -23.70824,-25.826218 -65.229833,-23.446319 -85.098064,4.87758 -5.017275,7.15256 -10.067069,19.70849 -10.067069,25.03101 0,2.11857 -1.909368,4.172 -7.406408,7.96524 -4.073525,2.81094 -7.914988,5.1108 -8.536586,5.1108 -1.688689,0 -1.326168,-10.44616 0.698302,-20.1218 0.98237,-4.69509 3.976041,-12.97982 6.652601,-18.41053 8.437511,-17.119582 26.163905,-31.422565 45.232753,-36.497175 8.704305,-2.316393 26.840486,-2.28367 35.856531,0.06469 24.45297,6.36914 44.84753,26.956925 51.30815,51.794255 2.68779,10.33297 1.97095,30.77152 -1.38651,39.53239 -2.64787,6.90928 -4.06292,7.80843 -7.06613,4.48994 z"
         style="fill:#b32227;fill-opacity:1;stroke-width:1.21950758" />
      <path
         id="path5858"
         d="m 79.999992,218.56921 c -27.179934,-3.57507 -51.408878,-24.58323 -58.662756,-50.86464 -1.15743,-4.19346 -1.876927,-7.82064 -1.59888,-8.06039 0.278046,-0.23975 9.796936,-6.62393 21.153089,-14.18706 19.951894,-13.28784 20.712017,-13.67138 22.560975,-11.38379 9.603704,11.88197 8.84408,11.33285 14.240305,10.29409 l 5.009805,-0.96438 6.755676,8.73283 6.755675,8.73284 7.136959,-0.45128 7.13696,-0.45128 10.96534,10.25501 10.96534,10.25501 7.47211,-2.13682 7.47211,-2.13681 20.89182,20.91727 c 11.4905,11.5045 20.89181,21.32314 20.89181,21.81919 0,1.19986 -99.783071,0.86179 -109.146338,-0.36979 z M 156.72337,192.4021 c -5.18988,-5.70117 -10.03308,-10.35832 -10.76268,-10.34921 -3.11005,0.0388 -15.76242,4.64653 -13.0437,4.75021 1.60434,0.0612 6.54337,2.37361 10.97561,5.13873 l 8.05861,5.02749 -4.7988,-5.0051 c -10.00369,-10.43373 -1.18811,-5.98828 13.94514,7.03216 2.34756,2.0198 4.44687,3.69468 4.66513,3.72194 0.21825,0.0273 -3.84944,-4.61504 -9.03931,-10.31622 z M 99.957407,172.58518 c -3.559659,-4.52741 -9.392479,-11.93589 -12.961826,-16.46329 -6.01744,-7.6326 -8.472691,-9.39681 -10.398047,-7.47147 -0.63589,0.63588 28.187556,32.1418 29.422096,32.16027 0.22544,0.003 -2.50256,-3.69811 -6.062223,-8.22551 z m 15.408443,-2.74388 c -5.29918,-5.38004 -6.58526,-6.08741 -10.92977,-6.01159 l -4.923892,0.0859 4.554052,1.67287 c 2.50474,0.92008 7.11109,3.62529 10.23635,6.01159 7.82279,5.97309 8.14841,5.43446 1.06326,-1.7588 z m -30.11378,1.46057 c -8.656322,-11.93947 -25.982222,-31.7152 -27.155358,-30.99504 -3.010887,1.84832 -22.608915,16.42493 -22.608915,16.81605 0,0.22645 4.764021,-1.77883 10.586714,-4.45618 9.565859,-4.3985 15.102072,-5.42512 13.269974,-2.46075 -0.37848,0.61239 -4.240493,3.19146 -8.58225,5.73126 -4.341756,2.53981 -7.740937,4.77099 -7.553733,4.95819 0.187204,0.18721 4.70041,-1.28844 10.029345,-3.27921 5.328936,-1.99077 10.09483,-3.62158 10.590876,-3.62401 0.496045,-0.002 5.70946,4.3624 11.585366,9.69963 5.875905,5.33723 10.851778,9.72744 11.057494,9.75602 0.205715,0.0286 -0.343065,-0.9371 -1.219513,-2.14596 z m 46.86437,4.37322 c -1.0957,-1.32023 -0.74618,-3.35621 1.55364,-9.04993 5.81492,-14.3962 4.93919,-28.11188 -2.68989,-42.12892 -9.06634,-16.65773 -30.56585,-26.700769 -49.278337,-23.01934 -18.662702,3.67163 -31.428145,15.62762 -38.077414,35.66292 -0.374988,1.12989 -1.882273,2.69683 -3.349522,3.48207 -2.581736,1.38169 -2.64055,1.27616 -1.824611,-3.27386 2.548239,-14.21008 14.348389,-29.53849 27.782501,-36.08949 42.890033,-20.914886 89.483513,20.96713 72.833293,65.4685 -3.29007,8.79346 -5.12123,11.15116 -6.94966,8.94805 z m 19.0131,-0.86072 c -2.71682,-2.13703 -3.73924,-2.30518 -7.03356,-1.15679 -2.12005,0.73905 -4.05302,1.14308 -4.2955,0.89785 -0.24249,-0.24523 0.86893,-4.28731 2.46979,-8.98239 7.08821,-20.78864 1.34254,-42.83329 -15.19597,-58.30301 -10.17136,-9.51404 -22.67341,-14.257422 -37.578023,-14.257422 -25.16391,0 -47.231707,17.555072 -52.888141,42.072852 -0.773707,3.35363 -1.804063,6.92068 -2.289678,7.92677 -1.292699,2.67819 -13.592283,11.04069 -14.978558,10.18393 -1.693828,-1.04684 0.08827,-17.8053 2.833059,-26.64152 5.220749,-16.80699 20.165587,-34.478023 35.449324,-41.915903 28.337167,-13.790375 60.941227,-8.524746 82.941437,13.395232 13.23047,13.182201 20.53383,30.959001 20.53383,49.980441 0,9.20634 -2.85618,23.92195 -5.28874,27.24865 -1.39166,1.90319 -1.73063,1.87069 -4.67927,-0.44869 z"
         style="fill:#b32227;fill-opacity:1;stroke-width:1.21950758" />
      <path
         id="path5856"
         d="m 80.0576,218.48567 c -23.609981,-3.44036 -43.12157,-17.50841 -53.781822,-38.77722 -3.468939,-6.92106 -6.907142,-18.20699 -5.99586,-19.68146 0.293763,-0.47532 9.664211,-7.04037 20.823215,-14.58901 l 20.289098,-13.72479 3.20632,4.10207 c 7.219133,9.23595 7.695273,9.55206 12.962417,8.60595 l 4.878049,-0.87623 6.971303,8.79601 6.971304,8.796 6.833106,-0.70523 6.83311,-0.70524 6.31754,5.98395 c 3.47465,3.29117 8.52347,8.02445 11.2196,10.51839 l 4.90206,4.53445 7.46205,-2.25931 7.46205,-2.25931 16.31596,16.61523 c 8.97378,9.13838 18.47558,18.94752 21.1151,21.79811 l 4.79913,5.18289 -51.16213,-0.14871 c -28.13918,-0.0818 -54.428894,-0.62472 -58.4216,-1.20654 z m 77.76715,-25.68136 -11.18316,-11.18308 -8.93056,2.53877 c -5.74856,1.6342 -7.71476,2.57718 -5.51831,2.64656 1.87674,0.0593 6.26698,1.92251 9.7561,4.14051 9.9307,6.31285 10.29959,6.39363 5.3187,1.16473 -7.8607,-8.25211 -3.23494,-6.72316 8.35856,2.76275 6.0276,4.93184 11.50435,8.99979 12.17055,9.0399 0.6662,0.0401 -3.82115,-4.95946 -9.97188,-11.11014 z m -53.63768,-14.94263 c -18.67619,-24.68437 -23.138843,-29.8898 -25.40659,-29.63535 -1.341463,0.15051 -2.439024,0.64303 -2.439024,1.09448 0,0.96619 28.562004,31.49601 29.465924,31.49601 0.33855,0 -0.39058,-1.32981 -1.62031,-2.95514 z m 11.78853,-7.41063 c -5.92527,-5.99976 -7.14295,-6.69711 -11.54371,-6.61099 l -4.919702,0.0963 3.658532,1.30271 c 2.0122,0.71649 6.95122,3.67526 10.97561,6.57505 4.02439,2.89978 7.57272,5.28851 7.88517,5.30828 0.31246,0.0198 -2.4127,-2.98234 -6.0559,-6.67133 z m -29.504017,2.06661 c -2.268204,-3.13377 -26.859898,-33.16394 -27.157936,-33.16394 -0.136172,0 -6.227281,4.39021 -13.5358,9.75603 -7.308518,5.36581 -12.895275,9.75602 -12.415016,9.75602 0.48026,0 6.084454,-2.58867 12.453765,-5.75259 8.514223,-4.2294 11.940481,-5.39268 12.939845,-4.39332 0.999366,0.99935 -0.943208,2.72714 -7.336462,6.52527 -4.782659,2.84131 -8.48012,5.38163 -8.216579,5.64517 0.263539,0.26354 5.013573,-1.19272 10.55563,-3.23613 l 10.076468,-3.71528 5.033468,4.22413 c 2.768406,2.32328 8.051758,6.97511 11.740782,10.33741 7.352304,6.70115 8.24945,7.31598 5.861835,4.01723 z m 45.526207,3.01445 c -1.24994,-1.50607 -1.08083,-2.73165 0.9174,-6.64846 3.89375,-7.63233 5.67314,-19.75123 4.1235,-28.08393 -5.5549,-29.86975 -35.35894,-47.372748 -63.746015,-37.4361 -12.167305,4.25907 -23.687678,16.08095 -27.65165,28.37535 -1.207766,3.74593 -3.240058,7.17843 -4.890385,8.25976 -3.430215,2.24755 -3.464721,1.6315 -0.450981,-8.05159 5.924243,-19.03449 21.459814,-32.115884 42.228098,-35.557275 21.376403,-3.542157 45.007743,8.957485 54.242283,28.691075 4.52233,9.66392 6.49345,20.16842 5.41068,28.83457 -0.88551,7.0873 -4.38054,17.62357 -7.06281,21.29174 -1.40647,1.92345 -1.76264,1.96053 -3.12012,0.32486 z m 19.19213,-0.88464 c -2.70173,-1.98152 -3.80389,-2.1368 -7.07445,-0.99668 -2.13077,0.74278 -4.12716,1.09749 -4.43643,0.78823 -0.30925,-0.30927 0.61722,-3.22876 2.05884,-6.48776 5.71834,-12.92714 4.23672,-32.89374 -3.50197,-47.19337 C 133.70872,112.39252 122.40104,102.1455 112.6678,97.58807 101.44709,92.334153 86.212262,91.44376 73.516675,95.299897 54.62385,101.03837 38.377098,119.21021 35.938588,137.33064 c -0.738944,5.49105 -1.306864,6.27653 -8.12513,11.23778 -4.031858,2.93375 -7.795994,5.04649 -8.364742,4.69499 -1.462552,-0.9039 -1.217313,-6.91723 0.726713,-17.81918 4.875096,-27.33917 26.301182,-50.060216 53.181744,-56.39596 36.164667,-8.524005 73.402297,12.403991 84.428847,47.45003 3.58097,11.38154 3.77534,32.09864 0.3952,42.12349 -1.24384,3.689 -2.60565,7.08203 -3.02625,7.54008 -0.4206,0.45804 -2.20488,-0.22343 -3.96505,-1.5144 z"
         style="fill:#b32227;fill-opacity:1;stroke-width:1.21950758" />
      <path
         id="path5854"
         d="M 71.79592,216.72511 C 53.09349,212.1915 35.533502,197.9969 26.619861,180.20707 c -2.409205,-4.80828 -6.985722,-17.72922 -6.985722,-19.72287 0,-0.20784 9.410545,-6.65787 20.912322,-14.3334 l 20.912322,-13.95551 5.42415,6.58861 c 5.323315,6.46613 5.520785,6.57537 10.622501,5.87611 l 5.198351,-0.71251 6.574933,8.67181 6.574933,8.67181 7.142199,-0.73775 7.1422,-0.73775 6.27244,5.9394 c 3.44983,3.26667 8.46908,7.97084 11.15388,10.45372 l 4.88145,4.51432 7.63587,-2.04592 7.63586,-2.04591 11.65608,11.54394 c 6.41084,6.34917 15.51606,15.79697 20.23384,20.9951 l 8.57775,9.45115 -54.70236,-0.10159 c -42.218298,-0.0784 -56.296383,-0.48799 -61.68694,-1.7947 z m 86.5831,-23.36738 -11.84923,-11.84915 -8.26491,2.18547 c -10.09886,2.67043 -12.38473,4.43546 -5.76489,4.45138 3.51772,0.008 6.95526,1.35582 12.7439,4.99506 l 7.92683,4.98348 -5.43684,-5.60482 c -8.16335,-8.41557 -3.7689,-6.75518 9.37298,3.54146 6.4205,5.03045 11.99938,9.14627 12.39752,9.14627 0.39814,0 -4.60828,-5.33212 -11.12536,-11.84915 z m -57.72863,-20.1628 c -3.810373,-4.86277 -9.741107,-12.52733 -13.179416,-17.03235 -4.514899,-5.91563 -7.041917,-8.20226 -9.096997,-8.23165 -1.565042,-0.0224 -2.662603,0.49637 -2.439025,1.15277 0.483827,1.42046 30.198098,32.95263 31.052848,32.95263 0.32479,0 -2.52705,-3.97863 -6.33741,-8.8414 z m 14.70326,-3.28919 c -6.95709,-6.90727 -7.50809,-7.20605 -11.57317,-6.27561 l -4.268292,0.97696 3.658532,0.95515 c 2.0122,0.52533 6.91706,3.34936 10.89969,6.27561 3.98263,2.92626 7.54422,5.32046 7.91463,5.32046 0.37042,0 -2.61371,-3.26365 -6.63139,-7.25257 z m -28.288466,3.28919 C 76.045828,158.71772 59.296648,139.55835 58.211859,140.18965 c -4.145623,2.41258 -25.043153,17.98305 -24.655621,18.37058 0.251757,0.25175 5.474478,-2.0618 11.606046,-5.14124 7.800974,-3.91785 11.720691,-5.27865 13.054643,-4.53214 1.476624,0.82636 -0.320449,2.3723 -7.972372,6.85828 -5.433289,3.1853 -9.878709,6.00568 -9.878709,6.26752 0,0.26184 5.309184,-1.42149 11.798187,-3.74073 l 11.798185,-4.2168 6.18962,5.37522 c 3.40429,2.95637 8.65913,7.58242 11.677423,10.2801 5.678979,5.07574 7.235611,6.11168 5.235923,3.48449 z m 64.411176,1.43358 c -1.84966,-1.52644 -3.85392,-2.13633 -5.48781,-1.66993 -7.10678,2.02869 -6.8597,2.51383 -3.55668,-6.98397 2.66257,-7.65615 3.01165,-10.42109 2.60231,-20.61226 -0.42686,-10.62747 -0.9127,-12.66016 -5.00494,-20.94019 C 129.1782,102.46673 105.41097,89.460155 82.607496,92.998208 59.180991,96.632927 40.24625,114.6033 35.437751,137.76554 c -1.255205,6.04624 -1.850342,6.83768 -8.576207,11.4051 l -7.227405,4.908 v -8.32575 c 0,-17.73229 6.896572,-33.96586 20.121951,-47.364271 37.031369,-37.515871 100.75957,-22.8794 117.50134,26.986561 4.90739,14.61685 4.55456,35.48665 -0.7971,47.14743 l -2.07009,4.51057 z m -20.13697,0.28478 c -0.39236,-0.63485 0.77933,-4.36806 2.60377,-8.29602 4.553,-9.8025 4.72178,-25.46043 0.39249,-36.40982 -4.01241,-10.14793 -16.15106,-22.28247 -26.28688,-26.27797 -10.187878,-4.016029 -26.270632,-4.072774 -36.2215,-0.1278 -12.242728,4.85357 -22.995293,16.60084 -26.66569,29.13251 -0.834722,2.84995 -2.782694,5.99768 -4.345261,7.02151 -2.796661,1.83243 -2.822591,1.80581 -2.062578,-2.11699 6.518765,-33.64654 43.441521,-51.509557 74.681299,-36.13038 10.06025,4.95261 18.29727,13.33069 23.50355,23.90606 3.89101,7.90371 4.03701,8.73046 4.03701,22.85996 0,13.21436 -0.30058,15.25479 -3.04878,20.6958 -3.03979,6.01832 -5.23468,7.93191 -6.58743,5.74314 z"
         style="fill:#b32227;fill-opacity:1;stroke-width:1.21950758" />
      <path
         id="path5852"
         d="M 72.073163,216.69136 C 59.558991,213.38982 50.095388,207.82894 40.255161,197.99484 30.547372,188.29311 23.316773,176.00831 21.017083,165.30932 l -1.105188,-5.14173 19.891293,-13.45569 c 10.940209,-7.40063 20.430271,-13.45569 21.089025,-13.45569 0.658754,0 3.514372,2.76694 6.345817,6.14877 5.017908,5.99329 5.277764,6.12933 10.276633,5.3797 l 5.128551,-0.76906 6.605219,8.71049 6.605218,8.7105 7.007329,-0.79484 7.00732,-0.79485 8.23658,7.7467 c 15.61791,14.68901 13.74786,13.67288 21.12908,11.4809 3.54893,-1.05391 7.09345,-1.91621 7.87667,-1.91621 0.78323,0 10.338,9.3292 21.23281,20.73156 l 19.80876,20.73155 -54.68587,-0.0803 c -43.695536,-0.0641 -56.033832,-0.4359 -61.393167,-1.84981 z m 86.171417,-23.48296 -11.95355,-11.99849 -9.06016,2.53842 c -9.93205,2.78271 -11.56832,4.38338 -4.48698,4.38939 3.29547,0.003 6.6175,1.36459 11.89025,4.87413 9.63785,6.41497 11.14686,6.1839 3.62515,-0.5551 -9.94783,-8.91263 -3.28492,-6.10094 8.56997,3.61646 6.03659,4.94816 11.5141,9.02748 12.17224,9.06516 0.65815,0.0377 -4.18246,-5.3308 -10.75692,-11.92997 z m -52.2608,-13.37859 c -0.87645,-1.21358 -6.795542,-8.89645 -13.15354,-17.07304 -8.74839,-11.25071 -12.233534,-14.86653 -14.329268,-14.86653 -1.5231,0 -2.769272,0.566 -2.769272,1.25777 0,1.16806 30.2298,32.88832 31.34297,32.88832 0.27646,0 -0.21444,-0.99294 -1.09089,-2.20652 z m 9.98053,-9.28082 c -7.75113,-7.66622 -8.01685,-7.81019 -12.79359,-6.93192 l -4.878045,0.8969 3.834895,0.90308 c 2.10919,0.49669 7.59699,3.59491 12.19512,6.88494 4.59813,3.29003 8.62954,6.00301 8.95869,6.02885 0.32916,0.0258 -2.96352,-3.47599 -7.31707,-7.78185 z m -28.811725,2.64594 c -1.58226,-2.62689 -26.11298,-32.51358 -27.277665,-33.23339 -1.046414,-0.64671 -26.092395,16.7304 -27.577686,19.13364 -0.383105,0.61987 4.912432,-1.68766 11.76786,-5.12785 8.752003,-4.39193 12.848057,-5.87125 13.752501,-4.96681 1.562567,1.56255 2.159763,1.05116 -8.650603,7.40765 -4.884979,2.87236 -8.693009,5.41124 -8.46229,5.64196 0.23072,0.23072 5.599472,-1.42852 11.930561,-3.68719 l 11.511071,-4.10667 11.533983,10.23152 c 11.666957,10.34948 13.130612,11.46035 11.472268,8.70714 z m 64.762575,1.48455 c -2.29372,-2.53452 -5.05397,-2.68448 -10.51385,-0.57122 -1.72265,0.66676 -1.5906,-0.38531 0.91463,-7.28709 3.72189,-10.25361 3.99988,-25.02557 0.67216,-35.71749 -8.04716,-25.85536 -34.97747,-42.507099 -61.508161,-38.032152 -22.736132,3.834916 -41.328915,21.632012 -45.902682,43.938252 -1.30778,6.37804 -1.848498,7.1223 -8.668949,11.93217 l -7.274169,5.12985 v -8.32233 c 0,-17.26714 7.552834,-34.71325 20.719228,-47.85885 16.978977,-16.95216 41.063808,-24.007728 64.787213,-18.979189 19.76642,4.189797 39.55669,19.627257 48.02731,37.463859 4.5676,9.61799 7.8738,22.68708 7.90849,31.26149 0.0255,6.30426 -3.27005,22.87163 -5.33262,26.80818 l -1.48166,2.82783 z m -19.99579,-0.46135 c -0.96206,-1.15919 -1.0161,-1.97529 -0.16563,-2.50091 0.69434,-0.42912 2.4414,-4.66169 3.88236,-9.40572 7.01878,-23.10761 -4.20771,-47.55821 -26.66947,-58.08448 -6.16469,-2.88896 -8.49427,-3.28568 -19.21054,-3.27146 -10.635232,0.0141 -13.087078,0.43217 -19.168372,3.26833 -3.835288,1.78869 -9.724716,5.82581 -13.087617,8.97139 -5.966945,5.58134 -13.475718,18.2031 -13.475718,22.65181 0,1.83456 -3.229216,4.72613 -5.278002,4.72613 -0.308163,0 -0.05752,-2.23768 0.556987,-4.97262 3.029057,-13.48125 14.71708,-28.05484 27.326217,-34.07258 13.920634,-6.643654 31.660384,-6.888123 45.341305,-0.62484 9.30308,4.25906 20.32322,15.22352 25.08958,24.96281 3.71644,7.59396 3.91513,8.71171 3.91513,22.02425 0,12.68161 -0.31462,14.69563 -3.28619,21.03643 -1.80741,3.85668 -3.52375,7.01214 -3.81409,7.01214 -0.29035,0 -1.17052,-0.77431 -1.95595,-1.72068 z"
         style="fill:#b32227;fill-opacity:1;stroke-width:1.21950758" />
    </g>
  </g>
</svg>
