<svg xmlns="http://www.w3.org/2000/svg" version="1.1" width="1024" height="1024">
<rect x="0" y="0" width="1024" height="1024" fill="#979797" />
<g transform="scale(4.000000) translate(0.5 0.5)">
<polygon fill="#000000" fill-opacity="0.501961" points="92.616000,21.972294,161.475503,21.097487,233.997529,76.945301,10.811095,101.164886" />
<polygon fill="#000000" fill-opacity="0.501961" points="14.351948,157.182605,237.771671,154.474873,192.471651,220.264170,91.803880,235.487414" />
<polygon fill="#ffffff" fill-opacity="0.501961" points="252.074344,271.000000,271.000000,-16.000000,-16.000000,6.990733,218.073643,35.619366" />
<polygon fill="#ffffff" fill-opacity="0.501961" points="36.700844,217.344872,5.167641,-16.000000,-16.000000,271.000000,271.000000,251.178164" />
<polygon fill="#000000" fill-opacity="0.501961" points="20.352582,90.018747,24.587552,183.953562,69.826824,95.252546,157.305609,-6.488779" />
<polygon fill="#ffffff" fill-opacity="0.501961" points="-16.000000,135.127233,0.643649,-16.000000,271.000000,5.774715,76.109452,19.549271" />
<polygon fill="#000000" fill-opacity="0.501961" points="235.094590,88.408394,213.945781,213.039081,196.399738,34.860018,5.923887,67.178628" />
<polygon fill="#ffffff" fill-opacity="0.501961" points="182.795937,231.781903,-11.107495,256.265443,271.000000,256.145070,259.353585,145.358762" />
<polygon fill="#000000" fill-opacity="0.501961" points="212.142528,181.680539,130.871338,243.125073,54.859452,218.050272,68.842654,179.651216" />
<polygon fill="#ffffff" fill-opacity="0.501961" points="38.575577,158.426805,202.574776,87.455414,86.359705,85.118478,73.447350,87.413716" />
<polygon fill="#000000" fill-opacity="0.501961" points="127.722052,107.599983,157.909372,115.923551,240.022424,102.838221,133.266055,102.468933" />
<polygon fill="#000000" fill-opacity="0.501961" points="240.459765,97.766970,111.250623,4.529451,248.753563,134.293935,178.186673,139.653855" />
<polygon fill="#ffffff" fill-opacity="0.501961" points="-13.629157,1.878287,255.434862,-16.000000,271.000000,112.745902,176.904853,18.575651" />
<polygon fill="#ffffff" fill-opacity="0.501961" points="-16.000000,85.933372,37.803216,195.212549,111.930961,271.000000,-16.000000,271.000000" />
<polygon fill="#000000" fill-opacity="0.501961" points="12.973710,151.869348,87.805625,164.024021,88.826136,99.811285,41.581959,203.972633" />
<polygon fill="#000000" fill-opacity="0.501961" points="123.552306,11.038206,211.749557,85.014894,121.244274,83.928224,104.191385,111.139871" />
<polygon fill="#ffffff" fill-opacity="0.501961" points="47.889021,118.880155,202.073067,157.233496,207.613249,135.933571,118.904803,159.438045" />
<polygon fill="#000000" fill-opacity="0.501961" points="108.933907,115.685670,105.378000,220.933360,111.773651,141.588648,142.909288,135.896753" />
<polygon fill="#000000" fill-opacity="0.501961" points="8.350076,123.164062,42.181087,152.183263,102.149674,14.586115,30.802534,114.703023" />
<polygon fill="#ffffff" fill-opacity="0.501961" points="44.118267,49.103963,-8.744073,142.999632,-16.000000,-6.723958,147.153598,-16.000000" />
<polygon fill="#ffffff" fill-opacity="0.501961" points="7.530751,271.000000,-15.291642,163.215693,45.187038,169.578093,35.536220,183.781096" />
<polygon fill="#000000" fill-opacity="0.501961" points="30.803011,91.094867,41.883675,154.302229,59.915112,34.677611,230.636498,68.121165" />
<polygon fill="#ffffff" fill-opacity="0.501961" points="160.524157,214.421896,192.891321,222.131832,271.000000,143.705441,240.524125,270.498010" />
<polygon fill="#ffffff" fill-opacity="0.501961" points="82.576998,267.477570,87.789883,221.267177,84.979834,211.908976,-10.254457,271.000000" />
<polygon fill="#ffffff" fill-opacity="0.501961" points="150.715536,140.658049,177.540116,107.881190,193.703520,132.551655,66.275025,81.621291" />
<polygon fill="#000000" fill-opacity="0.501961" points="97.696543,182.063389,160.624064,240.472472,171.338656,229.946189,161.319877,182.202155" />
<polygon fill="#ffffff" fill-opacity="0.501961" points="239.217645,169.334123,252.169111,-16.000000,262.975542,271.000000,212.329643,167.735897" />
<polygon fill="#ffffff" fill-opacity="0.501961" points="262.561128,-16.000000,271.000000,38.725637,192.259538,63.988907,218.390853,-10.701543" />
<polygon fill="#ffffff" fill-opacity="0.501961" points="-16.000000,18.640148,114.669869,-0.046724,-11.879048,78.631283,52.527439,91.471275" />
<polygon fill="#000000" fill-opacity="0.501961" points="110.300838,76.568291,158.738342,17.331708,174.795834,27.254139,108.722021,103.687479" />
<polygon fill="#ffffff" fill-opacity="0.501961" points="-16.000000,66.659705,37.351144,115.623136,13.918068,119.664904,30.755010,271.000000" />
<polygon fill="#ffffff" fill-opacity="0.501961" points="271.000000,159.996632,180.459326,-16.000000,165.574918,49.901744,252.139671,-16.000000" />
<polygon fill="#ffffff" fill-opacity="0.501961" points="158.486306,237.421937,271.000000,202.053321,130.364090,271.000000,141.705057,217.257563" />
<polygon fill="#b1b1b1" fill-opacity="0.501961" points="222.034939,165.223407,103.196030,164.616132,43.936155,164.104301,121.898025,183.234487" />
<polygon fill="#000000" fill-opacity="0.501961" points="171.081957,102.865111,144.245780,188.147752,175.605666,134.991381,135.465229,102.193478" />
<polygon fill="#ffffff" fill-opacity="0.501961" points="76.291874,271.000000,114.627237,218.645966,128.918849,262.080504,-16.000000,172.810591" />
<polygon fill="#000000" fill-opacity="0.501961" points="234.781991,186.926235,43.994600,179.942866,106.976136,236.096937,83.205646,233.702033" />
<polygon fill="#ffffff" fill-opacity="0.501961" points="196.045468,205.421681,235.923542,271.000000,271.000000,228.150155,195.848091,191.535090" />
<polygon fill="#ffffff" fill-opacity="0.501961" points="135.733953,102.326850,206.224044,102.427565,206.442259,85.482773,119.450600,87.572357" />
<polygon fill="#000000" fill-opacity="0.501961" points="238.232996,159.179175,236.126985,166.447003,198.356449,172.290341,208.651861,128.803935" />
<polygon fill="#ffffff" fill-opacity="0.501961" points="90.117691,47.992605,77.746402,-16.000000,122.956585,31.432724,1.545233,-16.000000" />
<polygon fill="#ffffff" fill-opacity="0.501961" points="167.867659,128.392548,200.540485,130.109702,205.898396,110.827015,167.549307,116.119611" />
<polygon fill="#ffffff" fill-opacity="0.501961" points="166.078575,146.476215,110.231989,157.941337,126.393921,139.191367,211.783162,137.439399" />
<polygon fill="#000000" fill-opacity="0.501961" points="76.830561,66.430760,35.393734,54.226577,45.507178,111.211387,141.609096,25.794147" />
<polygon fill="#ffffff" fill-opacity="0.501961" points="246.464668,83.245073,209.848173,89.269281,250.137815,27.144022,190.569474,30.514342" />
<polygon fill="#ffffff" fill-opacity="0.501961" points="37.433800,31.099582,-16.000000,119.918297,36.028797,141.008961,-10.721403,179.639812" />
<polygon fill="#000000" fill-opacity="0.501961" points="169.600787,137.907609,213.812673,137.550236,228.400817,129.669490,162.156999,129.725868" />
<polygon fill="#ffffff" fill-opacity="0.501961" points="30.476492,-16.000000,61.448889,53.598967,62.525127,63.950255,-16.000000,27.456344" />
<polygon fill="#000000" fill-opacity="0.501961" points="135.778973,162.061813,96.223715,156.635401,72.002715,134.489551,55.725442,165.364145" />
<polygon fill="#ffffff" fill-opacity="0.501961" points="62.642078,194.784561,42.162295,266.312189,1.169778,271.000000,-5.335634,210.861344" />
<polygon fill="#000000" fill-opacity="0.501961" points="109.113299,141.321157,107.394952,99.441593,120.482626,133.361641,157.793225,129.340517" />
<polygon fill="#000000" fill-opacity="0.501961" points="188.978985,223.680994,132.250091,181.762807,185.248387,180.692532,201.429301,215.056107" />
<polygon fill="#ffffff" fill-opacity="0.501961" points="143.732229,37.583773,124.926272,-16.000000,271.000000,17.749236,156.404065,19.418273" />
<polygon fill="#ffffff" fill-opacity="0.501961" points="271.000000,256.680044,221.487584,243.930642,170.633904,211.232559,168.745862,259.123618" />
<polygon fill="#000000" fill-opacity="0.501961" points="235.632411,134.889432,212.271089,144.175908,203.950593,104.539538,244.285314,122.988346" />
<polygon fill="#ffffff" fill-opacity="0.501961" points="98.219252,79.906334,86.491164,154.862677,102.381198,158.689292,108.865615,129.107446" />
<polygon fill="#ffffff" fill-opacity="0.501961" points="271.000000,81.432311,216.259297,114.410006,245.970372,122.545157,209.612194,271.000000" />
<polygon fill="#000000" fill-opacity="0.501961" points="91.225598,13.717266,103.220487,21.446832,125.102159,84.784860,79.907077,82.695464" />
<polygon fill="#ffffff" fill-opacity="0.501961" points="115.785640,33.562904,126.757163,-8.096173,87.706662,-16.000000,109.167982,33.279487" />
<polygon fill="#000000" fill-opacity="0.501961" points="85.677314,230.521115,101.134096,242.139154,116.579360,170.868134,111.796473,166.471624" />
<polygon fill="#000000" fill-opacity="0.501961" points="116.604016,86.280557,214.735553,56.544534,224.836902,62.890608,212.128214,83.019367" />
<polygon fill="#000000" fill-opacity="0.501961" points="121.276958,220.005707,169.062009,127.402709,135.559245,240.153455,121.169463,244.939470" />
<polygon fill="#ffffff" fill-opacity="0.501961" points="104.880911,134.748787,47.715474,141.048880,77.873676,80.808650,76.287965,126.946362" />
<polygon fill="#ffffff" fill-opacity="0.501961" points="177.522374,157.430530,164.677377,138.011506,203.748098,138.203937,204.914740,156.865136" />
<polygon fill="#d5d5d5" fill-opacity="0.501961" points="207.016538,180.925646,127.314457,164.286283,177.150066,166.269584,151.267877,180.921737" />
<polygon fill="#000000" fill-opacity="0.501961" points="73.047942,85.309313,52.022510,131.880416,40.244256,140.333454,7.867340,132.236407" />
<polygon fill="#000000" fill-opacity="0.501961" points="226.512704,165.706377,2.544885,164.285551,137.090311,156.208308,241.227895,157.019577" />
<polygon fill="#ffffff" fill-opacity="0.501961" points="156.900628,115.315011,163.351677,139.698235,117.571482,123.789612,110.323642,107.501270" />
<polygon fill="#000000" fill-opacity="0.501961" points="31.006736,189.302929,44.593739,200.415841,65.268172,190.518730,48.347695,166.672679" />
<polygon fill="#f7f7f7" fill-opacity="0.501961" points="55.307389,180.841068,52.985088,161.815782,62.138036,178.196913,136.333508,179.197589" />
<polygon fill="#000000" fill-opacity="0.501961" points="206.998812,148.185996,197.683531,183.526817,210.334489,199.865949,223.503290,196.290711" />
<polygon fill="#ffffff" fill-opacity="0.501961" points="2.572340,41.940425,-2.925251,261.984748,43.430538,166.828129,19.611971,169.918399" />
<polygon fill="#000000" fill-opacity="0.501961" points="65.813045,31.022471,54.858908,41.615008,82.010260,76.802785,81.203422,42.260647" />
<polygon fill="#ffffff" fill-opacity="0.501961" points="243.172606,161.028073,214.413305,271.000000,271.000000,126.296275,219.144314,141.314287" />
<polygon fill="#000000" fill-opacity="0.501961" points="184.458994,83.907557,201.025717,39.766506,188.561326,34.412083,100.120124,85.275603" />
<polygon fill="#ffffff" fill-opacity="0.501961" points="101.777698,238.099070,114.554871,218.464019,131.664719,271.000000,-16.000000,226.663431" />
<polygon fill="#ffffff" fill-opacity="0.501961" points="-10.957832,86.014558,42.527015,87.158603,44.366217,85.683125,-12.115098,1.746252" />
<polygon fill="#000000" fill-opacity="0.501961" points="136.376940,15.057288,125.682168,12.922681,82.014885,85.920266,157.198272,78.957525" />
<polygon fill="#ffffff" fill-opacity="0.501961" points="0.042693,271.000000,87.611130,245.105131,86.062043,210.290100,40.794297,244.708911" />
<polygon fill="#000000" fill-opacity="0.501961" points="172.727357,102.975353,232.517503,104.398463,194.199379,113.066020,128.089358,108.688070" />
<polygon fill="#000000" fill-opacity="0.501961" points="129.254527,154.185779,128.006167,232.536707,99.593074,210.571758,103.472689,234.635718" />
<polygon fill="#000000" fill-opacity="0.501961" points="237.986652,93.173303,231.997106,86.967269,205.643264,92.511015,205.814991,133.020483" />
<polygon fill="#ffffff" fill-opacity="0.501961" points="165.290917,124.591412,166.771447,110.614523,202.979959,110.454445,204.632281,131.384182" />
<polygon fill="#ffffff" fill-opacity="0.501961" points="227.690799,192.057518,208.468254,167.869127,249.265184,170.149505,248.427385,271.000000" />
<polygon fill="#ffffff" fill-opacity="0.501961" points="61.681966,155.777471,77.924190,86.149444,105.200892,84.948298,40.442862,151.014830" />
<polygon fill="#000000" fill-opacity="0.501961" points="109.738647,161.669765,112.611302,128.886630,109.017713,71.272549,107.289355,121.964765" />
<polygon fill="#000000" fill-opacity="0.501961" points="165.546096,18.547115,150.885469,26.058702,171.592378,81.322249,168.733326,19.753968" />
<polygon fill="#000000" fill-opacity="0.501961" points="81.039692,213.060240,67.218418,224.422321,56.736189,216.390531,70.548708,172.958455" />
<polygon fill="#000000" fill-opacity="0.501961" points="168.893644,134.219240,158.994229,199.506720,161.892917,145.885971,162.545242,108.113332" />
<polygon fill="#ffffff" fill-opacity="0.501961" points="72.079294,185.873894,74.638152,164.507681,149.164574,167.752997,82.070270,167.521341" />
<polygon fill="#000000" fill-opacity="0.501961" points="88.322567,137.384732,85.708693,214.479500,94.154776,156.222826,60.186917,155.276614" />
<polygon fill="#000000" fill-opacity="0.501961" points="22.205377,168.271803,18.753870,158.179544,32.077193,146.045723,54.225015,169.722900" />
<polygon fill="#ffffff" fill-opacity="0.501961" points="165.656170,131.368828,109.951462,99.068134,122.817725,83.666261,150.525487,153.661534" />
<polygon fill="#000000" fill-opacity="0.501961" points="92.134055,126.771927,86.078199,125.935676,87.442137,106.746853,73.591448,127.332080" />
<polygon fill="#000000" fill-opacity="0.501961" points="33.098332,66.190525,59.451684,112.007867,47.197073,56.173152,36.233478,57.826704" />
<polygon fill="#000000" fill-opacity="0.501961" points="137.978486,140.254926,145.174226,130.443683,139.934481,129.143740,113.834274,127.147423" />
<polygon fill="#ffffff" fill-opacity="0.501961" points="162.986580,140.989859,139.659696,158.169683,109.909280,151.196265,111.961328,138.654997" />
<polygon fill="#000000" fill-opacity="0.501961" points="170.473126,232.882054,133.995579,174.275283,131.056568,199.896154,158.771968,239.110593" />
<polygon fill="#ffffff" fill-opacity="0.501961" points="85.285272,17.123686,167.459880,10.471509,-4.425632,-16.000000,86.690296,45.186521" />
<polygon fill="#ffffff" fill-opacity="0.501961" points="171.413512,46.797534,167.370046,-4.196046,271.000000,-12.651756,184.705774,34.882481" />
<polygon fill="#ffffff" fill-opacity="0.501961" points="271.000000,216.915709,195.264427,194.160033,204.283141,226.910856,20.379869,271.000000" />
<polygon fill="#ffffff" fill-opacity="0.501961" points="166.369070,137.356099,207.323631,155.133021,166.665302,155.746374,165.201807,197.130089" />
<polygon fill="#ffffff" fill-opacity="0.501961" points="203.558789,84.535424,207.072103,101.373976,139.086471,102.885424,163.771322,86.525290" />
<polygon fill="#ffffff" fill-opacity="0.501961" points="256.861728,140.312929,219.526405,54.110113,191.705418,63.158751,230.657091,-16.000000" />
<polygon fill="#ffffff" fill-opacity="0.501961" points="88.789809,91.665349,89.100530,159.184613,100.776965,153.526200,108.681127,82.983173" />
<polygon fill="#000000" fill-opacity="0.501961" points="160.973417,104.197874,243.005503,121.946011,204.624158,160.339191,224.728226,101.959778" />
<polygon fill="#000000" fill-opacity="0.501961" points="51.237425,87.305111,52.512087,120.335653,16.876578,99.392391,22.198924,87.355341" />
<polygon fill="#ffffff" fill-opacity="0.501961" points="-6.771806,80.549270,37.907652,113.803033,-16.000000,128.574114,19.361275,145.752656" />
<polygon fill="#000000" fill-opacity="0.501961" points="204.797096,139.490237,161.755276,133.498971,223.146563,126.123762,206.458158,197.859529" />
<polygon fill="#000000" fill-opacity="0.501961" points="182.700076,214.154268,181.765093,151.001912,163.360439,237.276493,108.380752,177.239298" />
<polygon fill="#ffffff" fill-opacity="0.501961" points="179.348913,271.000000,127.537271,271.000000,141.021152,222.997880,144.494218,220.496288" />
<polygon fill="#ffffff" fill-opacity="0.501961" points="199.566861,177.101645,191.953515,182.516749,193.535280,178.107433,196.737216,161.866068" />
<polygon fill="#ffffff" fill-opacity="0.501961" points="43.711680,271.000000,144.922598,241.625958,-5.855868,248.442288,62.673252,188.739596" />
<polygon fill="#ffffff" fill-opacity="0.501961" points="149.271759,172.562194,140.675646,164.041200,137.637535,166.358602,137.564493,180.429131" />
<polygon fill="#ffffff" fill-opacity="0.501961" points="6.703523,163.120848,35.459570,142.809221,34.872603,140.327463,4.026405,131.073450" />
<polygon fill="#ffffff" fill-opacity="0.501961" points="271.000000,-2.385917,214.616284,81.546142,214.506226,87.915597,270.541625,83.865206" />
<polygon fill="#ffffff" fill-opacity="0.501961" points="181.169202,163.305903,184.617641,182.531292,187.950367,168.206160,202.913443,169.649610" />
<polygon fill="#000000" fill-opacity="0.501961" points="144.961723,112.005146,135.657285,108.724237,135.120361,101.513154,205.511779,111.612467" />
<polygon fill="#ffffff" fill-opacity="0.501961" points="27.140654,83.259150,49.351204,13.926858,63.297345,64.164818,-13.605827,27.172103" />
<polygon fill="#000000" fill-opacity="0.501961" points="220.730057,144.929654,198.043365,165.076541,232.987185,169.424096,238.920236,155.474161" />
<polygon fill="#ffffff" fill-opacity="0.501961" points="172.068047,211.536227,255.900290,271.000000,271.000000,123.881752,166.180166,271.000000" />
<polygon fill="#ffffff" fill-opacity="0.501961" points="180.949136,86.323403,204.868212,93.007162,112.173314,106.216939,127.061569,84.387532" />
<polygon fill="#ffffff" fill-opacity="0.501961" points="172.914959,-2.088005,127.845845,-16.000000,141.251948,32.722530,143.680950,35.262738" />
<polygon fill="#000000" fill-opacity="0.501961" points="87.174963,84.616161,177.339966,84.874492,93.949384,19.435820,87.130082,20.677363" />
<polygon fill="#000000" fill-opacity="0.501961" points="191.124393,85.845946,158.530666,16.376547,108.601544,98.029222,131.148790,79.935490" />
<polygon fill="#ffffff" fill-opacity="0.501961" points="219.415392,115.660963,271.000000,125.641675,238.728087,-16.000000,242.198806,96.016916" />
<polygon fill="#fafafa" fill-opacity="0.501961" points="52.998580,173.223877,56.413705,180.063536,63.197737,163.481718,55.513134,165.599439" />
<polygon fill="#000000" fill-opacity="0.501961" points="14.060401,121.564287,17.715981,135.911390,46.954737,138.483139,62.246967,104.961692" />
<polygon fill="#000000" fill-opacity="0.501961" points="136.221502,240.733077,137.149079,233.478224,106.762855,156.006615,120.714143,238.205954" />
<polygon fill="#000000" fill-opacity="0.501961" points="146.196931,156.534749,95.182144,159.355982,168.129096,166.336491,164.944344,144.501229" />
<polygon fill="#ffffff" fill-opacity="0.501961" points="112.738562,36.845338,89.656331,-4.468388,15.735869,30.007061,119.873360,15.145254" />
<polygon fill="#000000" fill-opacity="0.501961" points="198.604850,221.301052,193.920027,180.696358,24.555976,188.915473,165.260978,208.875142" />
<polygon fill="#ffffff" fill-opacity="0.501961" points="115.648791,164.407235,116.580788,182.427564,123.054028,169.284145,126.241760,165.750613" />
<polygon fill="#000000" fill-opacity="0.501961" points="205.847265,85.770675,206.478983,113.579013,219.031569,53.889350,170.444495,84.693251" />
<polygon fill="#000000" fill-opacity="0.501961" points="188.910812,31.884433,152.306619,61.124064,189.115913,83.408131,199.319736,37.641650" />
<polygon fill="#ffffff" fill-opacity="0.501961" points="58.711007,158.116897,51.247789,133.657391,108.972109,85.025355,72.792921,85.536118" />
<polygon fill="#000000" fill-opacity="0.501961" points="217.863780,199.371693,182.238308,190.163791,92.919459,180.894409,222.605691,183.457456" />
<polygon fill="#000000" fill-opacity="0.501961" points="233.547462,87.601912,206.805019,87.775426,205.062429,118.855590,237.699888,100.425540" />
<polygon fill="#ffffff" fill-opacity="0.501961" points="92.191677,167.012925,96.626125,164.330414,95.856188,178.338057,91.145102,186.117593" />
<polygon fill="#000000" fill-opacity="0.501961" points="109.380104,99.945490,148.199410,56.610419,134.790026,14.113020,120.021324,14.038992" />
<polygon fill="#000000" fill-opacity="0.501961" points="71.217476,142.967697,73.862010,185.954961,62.064303,172.553101,81.505620,158.292854" />
<polygon fill="#000000" fill-opacity="0.501961" points="120.895737,168.247186,123.571261,244.311953,131.401882,209.391590,127.730613,168.049557" />
<polygon fill="#ffffff" fill-opacity="0.501961" points="224.161101,201.761545,192.728982,193.941365,227.489593,271.000000,116.621137,271.000000" />
<polygon fill="#ffffff" fill-opacity="0.501961" points="26.871080,169.117633,44.790172,169.639653,1.398352,232.165339,-14.339101,177.100047" />
<polygon fill="#ffffff" fill-opacity="0.501961" points="60.418678,156.176017,88.682377,98.736931,58.121043,117.861432,42.594009,156.277145" />
<polygon fill="#ffffff" fill-opacity="0.501961" points="88.194405,126.060755,106.688243,85.194059,108.593075,135.103973,63.998241,139.159493" />
<polygon fill="#ffffff" fill-opacity="0.501961" points="128.596525,176.702980,131.506287,164.618904,134.050523,167.569212,131.806157,180.599618" />
<polygon fill="#000000" fill-opacity="0.501961" points="63.056258,156.665860,15.211224,157.056409,43.938740,138.945944,42.869934,189.375601" />
<polygon fill="#ffffff" fill-opacity="0.501961" points="269.854651,178.725926,219.229392,141.599076,258.200066,128.610816,204.277762,224.139753" />
<polygon fill="#ffffff" fill-opacity="0.501961" points="116.115394,91.430486,115.199175,121.047936,127.165250,128.792596,153.174689,128.336455" />
<polygon fill="#000000" fill-opacity="0.501961" points="136.514044,159.751360,132.308242,173.948725,170.742946,230.557137,139.244421,219.080593" />
<polygon fill="#ffffff" fill-opacity="0.501961" points="153.163246,169.804908,157.393253,181.576286,160.293890,177.848272,158.516313,165.289521" />
<polygon fill="#ffffff" fill-opacity="0.501961" points="204.870547,113.146136,201.082079,112.061562,166.300500,113.433697,207.023225,130.905450" />
<polygon fill="#000000" fill-opacity="0.501961" points="59.305209,104.844889,30.842198,66.063069,61.762503,61.124945,106.144753,27.016817" />
<polygon fill="#ffffff" fill-opacity="0.501961" points="167.969338,144.638619,166.718494,157.402710,204.092914,156.085081,205.524675,138.768146" />
<polygon fill="#000000" fill-opacity="0.501961" points="78.270418,180.548270,31.152186,186.494483,39.623452,200.889892,73.808778,188.244864" />
<polygon fill="#ffffff" fill-opacity="0.501961" points="109.875284,144.837121,163.505351,132.244556,152.131801,154.013249,121.377995,157.091463" />
<polygon fill="#000000" fill-opacity="0.501961" points="241.624937,133.280340,207.250493,146.506196,204.967449,116.690728,240.464836,120.838693" />
<polygon fill="#000000" fill-opacity="0.501961" points="71.818210,137.936615,60.120877,162.281985,89.244796,163.607807,87.405354,138.111030" />
<polygon fill="#ffffff" fill-opacity="0.501961" points="103.836219,180.989299,100.217352,172.655234,77.612993,182.090792,109.838905,168.178627" />
<polygon fill="#fdfdfd" fill-opacity="0.501961" points="55.596169,181.053559,86.220991,171.799256,75.955937,171.162419,82.026100,180.965820" />
<polygon fill="#000000" fill-opacity="0.501961" points="90.825735,175.518362,102.112432,238.736685,87.568369,234.899271,86.899998,212.156831" />
<polygon fill="#000000" fill-opacity="0.501961" points="141.292585,83.282349,66.371669,32.079927,55.223311,38.287857,75.349097,85.275631" />
<polygon fill="#000000" fill-opacity="0.501961" points="119.822911,203.883287,73.927013,181.565933,71.824152,172.711456,56.335812,217.921306" />
<polygon fill="#ffffff" fill-opacity="0.501961" points="57.610535,38.065197,155.988848,-16.000000,-12.918226,0.186829,-0.106546,96.312224" />
<polygon fill="#ffffff" fill-opacity="0.501961" points="87.338891,211.548062,-2.341985,267.917494,-10.601016,127.626945,83.940504,263.595575" />
<polygon fill="#000000" fill-opacity="0.501961" points="166.065231,119.829721,164.909922,128.262006,146.140908,106.043443,164.299988,106.983315" />
<polygon fill="#ffffff" fill-opacity="0.501961" points="162.687207,180.483945,165.899370,163.811474,170.589543,179.161452,204.486142,177.420588" />
<polygon fill="#000000" fill-opacity="0.501961" points="159.918794,163.337996,159.157871,228.865420,162.326981,177.280866,166.550118,105.247538" />
<polygon fill="#000000" fill-opacity="0.501961" points="111.918560,209.087792,97.697118,166.931428,93.755116,233.175789,107.061252,229.499808" />
<polygon fill="#000000" fill-opacity="0.501961" points="125.303212,137.233709,106.877687,137.631885,108.734924,119.385568,127.099937,129.365431" />
<polygon fill="#ffffff" fill-opacity="0.501961" points="128.022945,249.399192,111.919566,222.636387,77.146138,271.000000,271.000000,239.840514" />
<polygon fill="#ffffff" fill-opacity="0.501961" points="89.138664,96.872482,89.698766,155.672284,108.189557,155.759510,105.557191,87.415345" />
<polygon fill="#000000" fill-opacity="0.501961" points="225.411465,165.670146,204.592803,157.819025,121.999873,156.927949,101.097067,163.139109" />
<polygon fill="#000000" fill-opacity="0.501961" points="88.336931,126.472970,87.560318,100.866870,76.589218,127.609494,69.547215,127.472719" />
<polygon fill="#ffffff" fill-opacity="0.501961" points="39.582651,157.495559,65.360726,144.047052,91.396334,87.332898,75.748013,84.131119" />
<polygon fill="#000000" fill-opacity="0.501961" points="92.991330,18.835869,102.606739,20.222616,109.289265,114.583111,115.631310,79.776055" />
<polygon fill="#ffffff" fill-opacity="0.501961" points="239.647594,79.669788,184.199762,24.499541,104.856325,4.901462,271.000000,-16.000000" />
<polygon fill="#000000" fill-opacity="0.501961" points="239.466287,136.224667,179.842263,136.825681,158.929926,130.910222,214.605021,128.939808" />
<polygon fill="#ffffff" fill-opacity="0.501961" points="87.626021,-7.394994,-2.231747,109.431078,-16.000000,-13.474937,86.569758,41.963628" />
<polygon fill="#000000" fill-opacity="0.501961" points="19.510003,156.222899,20.986927,169.714147,44.607739,167.949883,91.141622,158.751566" />
<polygon fill="#ffffff" fill-opacity="0.501961" points="20.598129,87.094216,12.056072,125.531187,10.422293,38.381513,44.228620,85.118863" />
<polygon fill="#000000" fill-opacity="0.501961" points="117.501412,138.187261,134.216259,128.491273,145.169183,131.942021,141.316893,138.957015" />
<polygon fill="#000000" fill-opacity="0.501961" points="196.746625,212.923556,141.229133,170.169178,147.942714,166.809700,126.394325,208.340780" />
<polygon fill="#ffffff" fill-opacity="0.501961" points="61.158474,193.665947,32.736975,203.809077,-16.000000,271.000000,51.304580,242.986324" />
<polygon fill="#ffffff" fill-opacity="0.501961" points="164.408943,129.330060,154.503042,115.480283,141.160668,126.277350,148.649483,151.002203" />
<polygon fill="#ffffff" fill-opacity="0.501961" points="234.172190,57.462933,248.277491,176.842743,271.000000,87.551128,211.895786,86.565098" />
<polygon fill="#ffffff" fill-opacity="0.501961" points="172.886231,-16.000000,198.579125,25.446469,170.225997,45.412018,169.849552,29.205380" />
<polygon fill="#000000" fill-opacity="0.501961" points="185.128723,222.593664,178.562544,150.186186,177.172088,181.810706,200.681813,216.624192" />
<polygon fill="#ffffff" fill-opacity="0.501961" points="197.255252,62.665438,208.613981,-16.000000,160.270174,17.966216,230.718568,50.890551" />
<polygon fill="#ffffff" fill-opacity="0.501961" points="206.420827,114.291411,201.746157,126.917367,165.445278,129.201161,168.752595,112.264001" />
<polygon fill="#000000" fill-opacity="0.501961" points="58.691774,113.440914,50.534917,96.048094,15.072497,134.380396,14.557340,119.909955" />
<polygon fill="#fbfbfb" fill-opacity="0.501961" points="199.308924,171.266814,184.679980,164.523788,197.482593,164.306694,195.501279,184.671847" />
<polygon fill="#000000" fill-opacity="0.501961" points="223.542251,193.458658,224.049289,187.462030,208.086786,168.873919,183.134083,194.458641" />
<polygon fill="#000000" fill-opacity="0.501961" points="195.899052,103.029151,130.053082,103.715448,136.520495,111.573514,184.950630,111.092676" />
<polygon fill="#000000" fill-opacity="0.501961" points="109.041008,207.655490,142.395691,219.269169,135.445953,242.647078,123.023919,241.385091" />
<polygon fill="#ffffff" fill-opacity="0.501961" points="205.436885,101.310171,114.364953,101.903759,123.966962,86.966719,204.011833,85.848329" />
<polygon fill="#e3e3e3" fill-opacity="0.501961" points="81.278870,182.422009,66.527350,163.664004,51.530564,169.231327,76.496099,168.377727" />
<polygon fill="#ffffff" fill-opacity="0.501961" points="186.264950,166.795527,181.833593,167.277133,181.837168,181.443876,184.070142,180.400206" />
<polygon fill="#000000" fill-opacity="0.501961" points="61.972361,108.915458,81.249143,72.123463,44.733520,73.686409,32.144554,170.100942" />
<polygon fill="#000000" fill-opacity="0.501961" points="97.186163,164.269836,212.376586,158.257298,77.302174,156.601626,55.480039,165.101640" />
<polygon fill="#ffffff" fill-opacity="0.501961" points="132.759234,169.148562,129.040978,163.730862,129.216470,179.263694,133.806931,179.713213" />
<polygon fill="#000000" fill-opacity="0.501961" points="170.494995,22.432228,164.195842,84.980682,118.081353,71.518846,158.434308,17.193123" />
<polygon fill="#000000" fill-opacity="0.501961" points="205.729663,131.748277,236.454450,136.783637,221.305506,113.599472,205.836431,62.535320" />
<polygon fill="#000000" fill-opacity="0.501961" points="82.832395,143.201483,87.807523,138.654083,68.511838,138.511375,69.828576,174.417756" />
<polygon fill="#000000" fill-opacity="0.501961" points="86.781132,149.788865,88.527719,211.153147,58.354917,219.638429,93.956421,187.986813" />
<polygon fill="#000000" fill-opacity="0.501961" points="197.452711,64.809640,184.650081,45.938446,159.221039,42.412686,109.756099,91.926130" />
<polygon fill="#ffffff" fill-opacity="0.501961" points="23.196394,185.676954,10.836693,121.371112,33.435698,113.809671,-16.000000,66.333082" />
<polygon fill="#e3e3e3" fill-opacity="0.501961" points="107.699451,174.871471,107.317596,174.593860,106.055230,182.537274,97.436427,172.264860" />
<polygon fill="#ffffff" fill-opacity="0.501961" points="228.058675,268.557486,252.998278,146.788741,170.397774,267.803493,170.017793,207.554797" />
<polygon fill="#ffffff" fill-opacity="0.501961" points="131.435901,-13.210525,239.849573,46.024282,75.915803,-10.435424,114.066324,34.329149" />
<polygon fill="#eaeaea" fill-opacity="0.501961" points="147.551908,171.101371,169.143631,173.944070,184.646329,171.110824,131.305682,174.683071" />
<polygon fill="#f8f8f8" fill-opacity="0.501961" points="96.375641,167.980265,108.703904,164.837081,91.270003,165.637640,97.529833,184.279406" />
<polygon fill="#000000" fill-opacity="0.501961" points="154.431284,221.420704,155.079380,152.043826,146.865458,193.249671,189.945646,202.552001" />
<polygon fill="#000000" fill-opacity="0.501961" points="31.767810,67.429018,67.448999,65.879408,39.506105,54.482773,39.671310,56.523580" />
<polygon fill="#ffffff" fill-opacity="0.501961" points="142.561025,221.428645,136.412060,242.195041,230.796968,223.079882,187.149118,271.000000" />
<polygon fill="#000000" fill-opacity="0.501961" points="32.111442,109.252204,102.039022,70.339038,21.500247,93.069581,20.114092,100.186058" />
<polygon fill="#ffffff" fill-opacity="0.501961" points="34.851192,143.851584,-15.239354,174.773676,-9.654754,126.297942,30.251837,138.947256" />
<polygon fill="#000000" fill-opacity="0.501961" points="189.090823,178.031875,195.232758,175.470829,194.049828,169.981255,185.174015,167.669036" />
<polygon fill="#000000" fill-opacity="0.501961" points="86.033152,23.975744,99.093930,16.958932,101.126683,17.913858,139.526059,82.867042" />
<polygon fill="#000000" fill-opacity="0.501961" points="147.841636,154.960394,200.061585,166.144154,197.276917,193.212119,220.076314,158.530045" />
<polygon fill="#000000" fill-opacity="0.501961" points="219.530260,59.327394,170.517721,66.286208,214.089335,81.649103,224.633997,67.111751" />
<polygon fill="#f7f7f7" fill-opacity="0.501961" points="176.737267,168.862727,177.658510,168.504546,172.928077,163.985730,161.108192,166.022942" />
<polygon fill="#ffffff" fill-opacity="0.501961" points="213.434144,171.564536,271.000000,164.114485,221.058923,175.562439,246.091070,223.472026" />
<polygon fill="#ffffff" fill-opacity="0.501961" points="171.586237,157.042147,164.580088,148.656152,202.609888,137.404197,206.024296,153.516078" />
<polygon fill="#000000" fill-opacity="0.501961" points="236.139660,162.015416,237.462280,155.580848,201.949766,130.621307,230.057689,168.860964" />
<polygon fill="#ffffff" fill-opacity="0.501961" points="134.061584,10.259568,144.430903,35.409790,148.765140,30.157763,176.948285,-16.000000" />
<polygon fill="#000000" fill-opacity="0.501961" points="171.619481,194.035189,139.742204,201.911846,156.838840,239.428255,168.297107,226.365852" />
<polygon fill="#000000" fill-opacity="0.501961" points="193.092990,129.302374,166.936485,129.061403,165.954935,138.540725,220.621776,136.380136" />
<polygon fill="#000000" fill-opacity="0.501961" points="61.793531,168.697976,71.619429,168.549062,59.791205,179.054648,59.935540,178.973390" />
<polygon fill="#000000" fill-opacity="0.501961" points="112.603348,166.695444,116.138317,176.555085,108.697040,202.224105,109.469493,131.839083" />
<polygon fill="#000000" fill-opacity="0.501961" points="65.919708,190.396157,104.625705,178.105944,68.778185,224.397281,58.453548,219.819283" />
<polygon fill="#000000" fill-opacity="0.501961" points="38.119557,180.865006,34.483082,194.951875,40.311708,198.865113,107.711115,182.193575" />
<polygon fill="#ffffff" fill-opacity="0.501961" points="196.668474,177.935564,163.892902,178.171257,197.287667,181.059770,197.055576,164.251631" />
<polygon fill="#0a0a0a" fill-opacity="0.501961" points="181.037469,167.812956,180.355580,176.386952,168.933195,178.308242,176.801026,172.186949" />
<polygon fill="#ffffff" fill-opacity="0.501961" points="153.414265,139.490612,140.544875,157.099916,110.040569,156.918332,112.887863,138.959632" />
<polygon fill="#000000" fill-opacity="0.501961" points="59.400525,39.909877,64.507609,86.464418,119.770938,78.874397,66.743813,30.679958" />
<polygon fill="#ffffff" fill-opacity="0.501961" points="161.711289,142.480976,159.076169,119.117556,144.111562,111.422377,118.515157,112.464231" />
<polygon fill="#ffffff" fill-opacity="0.501961" points="1.448896,46.994738,61.975140,59.374842,52.109068,24.599000,31.776861,65.408035" />
<polygon fill="#ffffff" fill-opacity="0.501961" points="271.000000,76.255740,219.198168,114.389345,256.599563,124.304452,205.641462,35.038912" />
<polygon fill="#000000" fill-opacity="0.501961" points="234.962030,85.564385,204.880491,94.708775,218.408736,116.360725,234.342676,98.526084" />
<polygon fill="#000000" fill-opacity="0.501961" points="107.194310,65.855084,96.459801,86.238328,192.601674,73.287403,120.789458,15.298181" />
<polygon fill="#ffffff" fill-opacity="0.501961" points="107.684696,137.765028,105.837939,100.619795,91.321786,125.609813,52.610938,137.575569" />
<polygon fill="#141414" fill-opacity="0.501961" points="177.094445,173.272439,167.909506,169.861826,181.763888,166.576623,182.560151,195.395099" />
<polygon fill="#ffffff" fill-opacity="0.501961" points="56.546932,180.314164,68.292164,177.302367,61.575247,180.474222,54.001942,164.261565" />
<polygon fill="#ffffff" fill-opacity="0.501961" points="117.790874,165.599101,91.766086,168.247657,122.257651,167.239007,116.455181,181.567834" />
<polygon fill="#ffffff" fill-opacity="0.501961" points="66.207578,225.283713,83.707462,212.235267,89.724983,264.506702,-16.000000,148.672086" />
<polygon fill="#ffffff" fill-opacity="0.501961" points="61.415572,154.624769,38.349042,156.690443,38.563386,158.271364,75.364618,88.176301" />
<polygon fill="#ffffff" fill-opacity="0.501961" points="112.462581,220.499242,120.734080,239.648504,170.066870,271.000000,80.638649,271.000000" />
<polygon fill="#000000" fill-opacity="0.501961" points="169.444492,235.596173,167.404581,187.568132,137.817451,227.548116,119.767118,167.701610" />
<polygon fill="#ffffff" fill-opacity="0.501961" points="128.850304,13.991095,92.743095,-16.000000,83.301360,44.692699,54.494299,18.087356" />
<polygon fill="#ffffff" fill-opacity="0.501961" points="243.924820,209.076472,269.059798,182.154806,202.439565,223.153309,195.378982,193.187792" />
<polygon fill="#000000" fill-opacity="0.501961" points="205.596606,189.665167,137.958314,181.355290,133.493787,159.643523,138.148864,223.579725" />
<polygon fill="#000000" fill-opacity="0.501961" points="160.732024,146.208606,136.959452,165.525498,166.191073,149.360720,162.183201,137.024859" />
<polygon fill="#000000" fill-opacity="0.501961" points="189.228861,32.388850,129.578412,81.204267,178.464212,85.489632,200.655232,40.964283" />
<polygon fill="#000000" fill-opacity="0.501961" points="38.176537,153.453110,22.629116,170.524242,17.687610,155.049395,49.190526,135.740631" />
</g>
</svg>