<svg xmlns="http://www.w3.org/2000/svg" version="1.1" width="1024" height="576">
<rect x="0" y="0" width="1024" height="576" fill="#c8d9e0" />
<g transform="scale(4.000000) translate(0.5 0.5)">
<polygon fill="#377fa2" fill-opacity="0.501961" points="205,112 232,42 32,65" />
<polygon fill="#ffffff" fill-opacity="0.501961" points="131,87 -16,143 271,142" />
<polygon fill="#1e89cb" fill-opacity="0.501961" points="16,94 41,20 74,54" />
<polygon fill="#1d76b5" fill-opacity="0.501961" points="88,43 110,20 137,75" />
<polygon fill="#ffffff" fill-opacity="0.501961" points="254,113 -15,102 52,159" />
<polygon fill="#468b9f" fill-opacity="0.501961" points="31,104 64,108 117,57" />
<polygon fill="#fdebe4" fill-opacity="0.501961" points="-16,38 12,-16 202,15" />
<polygon fill="#ffffff" fill-opacity="0.501961" points="271,86 271,148 57,159" />
<polygon fill="#75acc1" fill-opacity="0.501961" points="202,30 134,44 239,111" />
<polygon fill="#fff5ee" fill-opacity="0.501961" points="198,-11 271,149 267,2" />
<polygon fill="#001043" fill-opacity="0.501961" points="127,84 128,93 99,87" />
<polygon fill="#ffffff" fill-opacity="0.501961" points="-1,42 -1,159 43,137" />
<polygon fill="#fff6ee" fill-opacity="0.501961" points="147,70 120,51 129,-15" />
<polygon fill="#51617f" fill-opacity="0.501961" points="188,113 164,88 220,85" />
<polygon fill="#ffffff" fill-opacity="0.501961" points="212,77 195,52 186,69" />
<polygon fill="#fffffd" fill-opacity="0.501961" points="64,85 177,104 132,159" />
<polygon fill="#03153e" fill-opacity="0.501961" points="182,71 170,91 193,75" />
<polygon fill="#189ac8" fill-opacity="0.501961" points="59,94 18,77 22,91" />
<polygon fill="#0d8fbb" fill-opacity="0.501961" points="81,92 59,34 63,76" />
<polygon fill="#ffffff" fill-opacity="0.501961" points="194,103 199,95 183,99" />
<polygon fill="#ede6e2" fill-opacity="0.501961" points="179,44 63,11 237,-16" />
<polygon fill="#2c9dcc" fill-opacity="0.501961" points="222,72 241,84 233,104" />
<polygon fill="#fff8f1" fill-opacity="0.501961" points="34,67 -12,77 -16,-1" />
<polygon fill="#fff7f0" fill-opacity="0.501961" points="68,54 106,61 77,17" />
<polygon fill="#00093d" fill-opacity="0.501961" points="109,92 98,72 104,64" />
<polygon fill="#ffeddf" fill-opacity="0.501961" points="126,63 125,85 104,77" />
<polygon fill="#0d1f47" fill-opacity="0.501961" points="204,92 208,84 191,69" />
<polygon fill="#00093b" fill-opacity="0.501961" points="126,84 133,85 135,65" />
<polygon fill="#ffffff" fill-opacity="0.501961" points="160,56 183,74 169,79" />
<polygon fill="#005ab5" fill-opacity="0.501961" points="37,40 38,69 28,48" />
<polygon fill="#566e8e" fill-opacity="0.501961" points="199,30 212,50 174,49" />
<polygon fill="#fffdfb" fill-opacity="0.501961" points="136,115 173,89 163,128" />
<polygon fill="#005fb6" fill-opacity="0.501961" points="29,41 42,33 59,40" />
<polygon fill="#ffffff" fill-opacity="0.501961" points="204,75 229,71 211,82" />
<polygon fill="#0f3056" fill-opacity="0.501961" points="205,98 173,107 198,108" />
<polygon fill="#46aec4" fill-opacity="0.501961" points="155,34 139,50 186,68" />
<polygon fill="#fffffa" fill-opacity="0.501961" points="55,95 43,79 69,64" />
<polygon fill="#1f2546" fill-opacity="0.501961" points="128,55 107,57 135,66" />
<polygon fill="#ffffff" fill-opacity="0.501961" points="264,98 201,107 249,159" />
<polygon fill="#fbece8" fill-opacity="0.501961" points="206,91 194,79 180,83" />
<polygon fill="#fffffe" fill-opacity="0.501961" points="1,76 96,148 -14,147" />
<polygon fill="#6ec8ec" fill-opacity="0.501961" points="169,92 151,36 142,95" />
<polygon fill="#f5efec" fill-opacity="0.501961" points="54,27 101,70 89,28" />
<polygon fill="#fffffc" fill-opacity="0.501961" points="94,159 103,84 73,92" />
<polygon fill="#fffff4" fill-opacity="0.501961" points="60,48 47,63 55,64" />
<polygon fill="#194069" fill-opacity="0.501961" points="118,96 98,79 118,86" />
<polygon fill="#dafcf3" fill-opacity="0.501961" points="81,83 89,74 68,72" />
<polygon fill="#0088df" fill-opacity="0.501961" points="117,27 124,39 101,28" />
<polygon fill="#ffffff" fill-opacity="0.501961" points="178,95 200,98 191,102" />
<polygon fill="#1986b9" fill-opacity="0.501961" points="202,88 221,103 235,101" />
<polygon fill="#1c8ebf" fill-opacity="0.501961" points="63,52 90,61 50,69" />
<polygon fill="#0690ba" fill-opacity="0.501961" points="37,71 42,88 37,103" />
<polygon fill="#001347" fill-opacity="0.501961" points="104,66 100,61 121,58" />
<polygon fill="#079dae" fill-opacity="0.501961" points="219,74 223,49 230,59" />
<polygon fill="#0077de" fill-opacity="0.501961" points="94,45 101,51 98,31" />
<polygon fill="#f2ede9" fill-opacity="0.501961" points="57,16 36,38 -7,35" />
<polygon fill="#e8dbd7" fill-opacity="0.501961" points="105,70 126,53 113,83" />
<polygon fill="#012a54" fill-opacity="0.501961" points="190,109 170,84 179,105" />
<polygon fill="#ffffff" fill-opacity="0.501961" points="180,95 179,87 184,83" />
<polygon fill="#5d6a88" fill-opacity="0.501961" points="73,89 50,94 67,107" />
<polygon fill="#1d395c" fill-opacity="0.501961" points="210,92 196,113 203,87" />
<polygon fill="#fff9f2" fill-opacity="0.501961" points="198,76 190,49 200,52" />
<polygon fill="#e2e2e2" fill-opacity="0.501961" points="178,-14 186,47 52,4" />
<polygon fill="#fffaee" fill-opacity="0.501961" points="73,61 62,63 75,50" />
<polygon fill="#082852" fill-opacity="0.501961" points="199,80 205,74 181,75" />
<polygon fill="#0068bc" fill-opacity="0.501961" points="61,36 41,35 69,48" />
<polygon fill="#0088d2" fill-opacity="0.501961" points="141,83 157,97 143,95" />
<polygon fill="#0081c0" fill-opacity="0.501961" points="218,76 232,77 218,83" />
<polygon fill="#193962" fill-opacity="0.501961" points="135,69 117,51 117,60" />
<polygon fill="#d4f4eb" fill-opacity="0.501961" points="207,57 224,55 217,69" />
<polygon fill="#008ca6" fill-opacity="0.501961" points="86,89 76,85 87,81" />
<polygon fill="#fffffe" fill-opacity="0.501961" points="150,63 138,57 136,72" />
<polygon fill="#ffffff" fill-opacity="0.501961" points="126,150 -16,145 56,103" />
<polygon fill="#0b92da" fill-opacity="0.501961" points="170,74 162,73 167,93" />
<polygon fill="#fffdfb" fill-opacity="0.501961" points="249,115 207,95 217,159" />
<polygon fill="#e4e8d9" fill-opacity="0.501961" points="163,49 155,60 147,50" />
<polygon fill="#ffffff" fill-opacity="0.501961" points="232,92 218,93 227,97" />
<polygon fill="#fffffa" fill-opacity="0.501961" points="164,79 160,90 149,91" />
<polygon fill="#007ad8" fill-opacity="0.501961" points="120,43 108,56 118,34" />
<polygon fill="#2d8aca" fill-opacity="0.501961" points="170,67 188,65 193,42" />
<polygon fill="#e6e1e0" fill-opacity="0.501961" points="229,51 168,8 271,-16" />
<polygon fill="#fffff2" fill-opacity="0.501961" points="56,44 40,45 46,41" />
<polygon fill="#0063be" fill-opacity="0.501961" points="38,60 57,70 34,67" />
<polygon fill="#283961" fill-opacity="0.501961" points="203,31 207,38 191,32" />
<polygon fill="#008399" fill-opacity="0.501961" points="148,39 141,49 159,37" />
<polygon fill="#0093a7" fill-opacity="0.501961" points="217,68 197,62 213,72" />
<polygon fill="#c4e8ee" fill-opacity="0.501961" points="104,48 117,41 97,35" />
<polygon fill="#eeebe9" fill-opacity="0.501961" points="143,45 112,54 142,15" />
<polygon fill="#fbf9f8" fill-opacity="0.501961" points="176,159 176,102 70,91" />
<polygon fill="#00909d" fill-opacity="0.501961" points="161,60 147,62 141,56" />
<polygon fill="#2e547b" fill-opacity="0.501961" points="186,95 201,93 190,84" />
<polygon fill="#f1f4f4" fill-opacity="0.501961" points="147,73 160,74 144,82" />
<polygon fill="#007ece" fill-opacity="0.501961" points="157,65 159,70 139,74" />
<polygon fill="#163157" fill-opacity="0.501961" points="71,103 58,102 60,106" />
<polygon fill="#fbffff" fill-opacity="0.501961" points="212,83 213,94 207,88" />
<polygon fill="#fffff7" fill-opacity="0.501961" points="100,72 93,96 93,80" />
<polygon fill="#009aac" fill-opacity="0.501961" points="81,57 94,68 93,78" />
<polygon fill="#ebeee9" fill-opacity="0.501961" points="41,44 46,63 36,55" />
<polygon fill="#fdfbfa" fill-opacity="0.501961" points="256,103 200,105 201,159" />
<polygon fill="#ffffff" fill-opacity="0.501961" points="199,85 201,93 198,97" />
<polygon fill="#0080c3" fill-opacity="0.501961" points="21,73 19,83 26,70" />
<polygon fill="#ffffff" fill-opacity="0.501961" points="116,159 184,106 201,159" />
<polygon fill="#fffcf7" fill-opacity="0.501961" points="54,90 38,70 68,83" />
<polygon fill="#fffbf3" fill-opacity="0.501961" points="181,70 188,73 202,61" />
<polygon fill="#e5deda" fill-opacity="0.501961" points="125,62 130,77 113,63" />
<polygon fill="#fcf8f4" fill-opacity="0.501961" points="222,84 235,90 228,79" />
<polygon fill="#006cdc" fill-opacity="0.501961" points="103,48 105,53 114,47" />
<polygon fill="#0083d8" fill-opacity="0.501961" points="98,38 106,26 95,30" />
<polygon fill="#fffffb" fill-opacity="0.501961" points="128,78 128,69 116,86" />
<polygon fill="#005fb9" fill-opacity="0.501961" points="63,57 59,43 68,45" />
<polygon fill="#ffffff" fill-opacity="0.501961" points="197,36 191,37 191,44" />
<polygon fill="#0095a8" fill-opacity="0.501961" points="209,50 202,50 203,65" />
<polygon fill="#007bb8" fill-opacity="0.501961" points="237,80 239,97 233,96" />
<polygon fill="#0895df" fill-opacity="0.501961" points="142,70 148,72 139,90" />
<polygon fill="#fffdfa" fill-opacity="0.501961" points="127,95 140,81 132,110" />
<polygon fill="#0071c2" fill-opacity="0.501961" points="41,68 58,72 56,62" />
<polygon fill="#fffdf5" fill-opacity="0.501961" points="220,81 208,70 203,79" />
<polygon fill="#324267" fill-opacity="0.501961" points="188,32 186,46 194,33" />
<polygon fill="#0067c5" fill-opacity="0.501961" points="182,46 169,56 175,46" />
<polygon fill="#efebe9" fill-opacity="0.501961" points="205,20 166,23 167,50" />
<polygon fill="#f8f7f6" fill-opacity="0.501961" points="267,123 226,64 257,48" />
<polygon fill="#f4f4f2" fill-opacity="0.501961" points="51,70 70,87 38,88" />
<polygon fill="#0086a4" fill-opacity="0.501961" points="69,70 61,63 71,82" />
<polygon fill="#0b8fd4" fill-opacity="0.501961" points="169,82 148,100 161,95" />
<polygon fill="#ffffff" fill-opacity="0.501961" points="24,80 23,83 29,88" />
<polygon fill="#1e3e62" fill-opacity="0.501961" points="182,81 173,101 174,77" />
<polygon fill="#0083a0" fill-opacity="0.501961" points="163,52 170,57 161,40" />
<polygon fill="#0f3a67" fill-opacity="0.501961" points="105,65 108,84 100,70" />
<polygon fill="#ffffff" fill-opacity="0.501961" points="179,50 187,55 174,54" />
<polygon fill="#f4efed" fill-opacity="0.501961" points="11,34 -16,127 31,53" />
<polygon fill="#fffcf6" fill-opacity="0.501961" points="180,77 167,59 159,64" />
<polygon fill="#0594d1" fill-opacity="0.501961" points="217,79 221,104 214,90" />
<polygon fill="#0065b8" fill-opacity="0.501961" points="37,44 28,61 36,59" />
<polygon fill="#0099ac" fill-opacity="0.501961" points="230,56 208,47 222,47" />
<polygon fill="#ffffff" fill-opacity="0.501961" points="177,61 184,61 177,64" />
<polygon fill="#ffffff" fill-opacity="0.501961" points="86,66 87,76 89,72" />
<polygon fill="#0079b7" fill-opacity="0.501961" points="231,77 238,85 227,79" />
<polygon fill="#eaecea" fill-opacity="0.501961" points="213,26 242,25 204,50" />
<polygon fill="#001642" fill-opacity="0.501961" points="190,72 193,70 193,75" />
<polygon fill="#daeee7" fill-opacity="0.501961" points="70,74 76,81 74,66" />
<polygon fill="#f9f6f1" fill-opacity="0.501961" points="80,60 100,51 106,57" />
<polygon fill="#ffffff" fill-opacity="0.501961" points="42,102 40,95 48,102" />
<polygon fill="#264166" fill-opacity="0.501961" points="139,75 129,60 130,79" />
<polygon fill="#ffffff" fill-opacity="0.501961" points="172,94 160,111 163,92" />
<polygon fill="#fdf6f1" fill-opacity="0.501961" points="145,58 118,44 144,69" />
<polygon fill="#0067ba" fill-opacity="0.501961" points="42,35 29,50 46,39" />
<polygon fill="#f8f6f6" fill-opacity="0.501961" points="111,123 113,89 17,125" />
<polygon fill="#fffdf1" fill-opacity="0.501961" points="39,75 47,77 40,68" />
<polygon fill="#e7e6e5" fill-opacity="0.501961" points="-7,-16 -16,57 33,45" />
<polygon fill="#e1e2e2" fill-opacity="0.501961" points="205,-12 116,-15 123,58" />
<polygon fill="#f0eeea" fill-opacity="0.501961" points="100,46 78,58 66,50" />
<polygon fill="#ffffff" fill-opacity="0.501961" points="174,85 169,79 172,76" />
<polygon fill="#0c3a67" fill-opacity="0.501961" points="127,89 133,75 118,90" />
<polygon fill="#f0faf6" fill-opacity="0.501961" points="27,74 36,77 35,84" />
<polygon fill="#fffffe" fill-opacity="0.501961" points="265,159 193,109 129,159" />
<polygon fill="#fcf9f5" fill-opacity="0.501961" points="115,84 106,78 109,65" />
<polygon fill="#0097ae" fill-opacity="0.501961" points="91,78 94,85 83,83" />
<polygon fill="#fffcee" fill-opacity="0.501961" points="52,65 60,54 57,46" />
<polygon fill="#fff3e8" fill-opacity="0.501961" points="48,35 51,27 33,23" />
<polygon fill="#fffcf2" fill-opacity="0.501961" points="20,64 36,61 29,70" />
<polygon fill="#00889f" fill-opacity="0.501961" points="146,47 148,57 141,56" />
<polygon fill="#294f76" fill-opacity="0.501961" points="104,92 118,86 105,81" />
<polygon fill="#f9f0e3" fill-opacity="0.501961" points="153,42 159,45 145,46" />
<polygon fill="#dedfe0" fill-opacity="0.501961" points="56,36 244,-2 47,-16" />
<polygon fill="#f8f6f5" fill-opacity="0.501961" points="90,112 89,84 106,84" />
<polygon fill="#0081c8" fill-opacity="0.501961" points="42,83 32,91 38,80" />
<polygon fill="#1d4064" fill-opacity="0.501961" points="51,95 60,89 69,90" />
<polygon fill="#ffffff" fill-opacity="0.501961" points="59,95 59,99 64,103" />
<polygon fill="#204771" fill-opacity="0.501961" points="130,56 122,58 135,75" />
<polygon fill="#08254e" fill-opacity="0.501961" points="207,101 196,104 207,104" />
<polygon fill="#f0eff3" fill-opacity="0.501961" points="69,97 65,93 66,101" />
<polygon fill="#f5f6f5" fill-opacity="0.501961" points="66,89 176,101 175,135" />
<polygon fill="#fbf9ef" fill-opacity="0.501961" points="199,55 201,56 203,48" />
<polygon fill="#fffcf8" fill-opacity="0.501961" points="129,87 142,90 143,112" />
<polygon fill="#1b3f64" fill-opacity="0.501961" points="205,98 209,81 201,83" />
<polygon fill="#008da6" fill-opacity="0.501961" points="225,60 216,70 226,67" />
<polygon fill="#2e8ba1" fill-opacity="0.501961" points="57,95 38,109 59,101" />
<polygon fill="#f6f6f6" fill-opacity="0.501961" points="153,111 120,90 111,119" />
<polygon fill="#d4f3f0" fill-opacity="0.501961" points="59,104 45,92 42,96" />
<polygon fill="#173f6a" fill-opacity="0.501961" points="103,74 118,92 100,81" />
<polygon fill="#0068b9" fill-opacity="0.501961" points="55,64 47,64 43,73" />
<polygon fill="#ebeae9" fill-opacity="0.501961" points="231,31 187,23 258,67" />
<polygon fill="#1e406b" fill-opacity="0.501961" points="136,67 123,61 136,63" />
<polygon fill="#fffbf5" fill-opacity="0.501961" points="197,75 202,71 196,52" />
<polygon fill="#fffaf5" fill-opacity="0.501961" points="56,68 67,76 62,67" />
<polygon fill="#fbfaf8" fill-opacity="0.501961" points="43,109 30,93 -16,142" />
<polygon fill="#0076d4" fill-opacity="0.501961" points="98,49 108,51 99,44" />
<polygon fill="#0069bb" fill-opacity="0.501961" points="168,62 168,55 179,67" />
<polygon fill="#098ed3" fill-opacity="0.501961" points="165,69 165,75 150,68" />
<polygon fill="#323b5c" fill-opacity="0.501961" points="196,52 193,46 186,42" />
<polygon fill="#0062b8" fill-opacity="0.501961" points="54,33 50,32 56,42" />
<polygon fill="#a6afb6" fill-opacity="0.501961" points="111,69 117,85 123,67" />
<polygon fill="#fffffe" fill-opacity="0.501961" points="201,87 194,80 184,81" />
<polygon fill="#08335b" fill-opacity="0.501961" points="193,102 189,112 186,111" />
<polygon fill="#ffffff" fill-opacity="0.501961" points="228,81 220,83 217,90" />
<polygon fill="#006dbf" fill-opacity="0.501961" points="62,58 54,74 50,66" />
<polygon fill="#bddfe5" fill-opacity="0.501961" points="100,37 116,39 108,30" />
<polygon fill="#fbf6f1" fill-opacity="0.501961" points="130,61 138,62 140,41" />
<polygon fill="#e3e4e3" fill-opacity="0.501961" points="36,-6 40,38 17,32" />
<polygon fill="#007bd6" fill-opacity="0.501961" points="115,36 120,41 117,49" />
<polygon fill="#fffffe" fill-opacity="0.501961" points="182,98 192,102 202,95" />
<polygon fill="#f2f5f3" fill-opacity="0.501961" points="143,60 134,71 146,70" />
<polygon fill="#006dd2" fill-opacity="0.501961" points="105,28 109,25 109,31" />
<polygon fill="#329dd2" fill-opacity="0.501961" points="158,88 150,86 151,76" />
<polygon fill="#fffff8" fill-opacity="0.501961" points="94,55 102,68 93,64" />
<polygon fill="#1f4269" fill-opacity="0.501961" points="107,61 107,54 126,60" />
<polygon fill="#0094aa" fill-opacity="0.501961" points="202,56 214,49 209,45" />
<polygon fill="#1599a7" fill-opacity="0.501961" points="72,85 70,70 64,78" />
<polygon fill="#0e9cb0" fill-opacity="0.501961" points="35,96 46,107 39,105" />
<polygon fill="#0b91a6" fill-opacity="0.501961" points="169,50 151,62 161,60" />
<polygon fill="#e6e6e6" fill-opacity="0.501961" points="94,41 63,43 63,10" />
<polygon fill="#0096a1" fill-opacity="0.501961" points="66,70 74,58 83,60" />
<polygon fill="#224669" fill-opacity="0.501961" points="197,103 211,92 204,90" />
<polygon fill="#189eb0" fill-opacity="0.501961" points="83,80 82,68 80,76" />
<polygon fill="#e5e4e4" fill-opacity="0.501961" points="130,-16 117,31 188,43" />
<polygon fill="#1b315b" fill-opacity="0.501961" points="205,35 202,38 203,47" />
<polygon fill="#f9f4ee" fill-opacity="0.501961" points="44,64 53,62 38,56" />
<polygon fill="#0070bb" fill-opacity="0.501961" points="177,68 193,56 184,68" />
<polygon fill="#d7f5ec" fill-opacity="0.501961" points="84,63 73,65 86,67" />
<polygon fill="#f3e8e3" fill-opacity="0.501961" points="199,44 197,47 191,45" />
<polygon fill="#ffffff" fill-opacity="0.501961" points="134,81 136,78 140,86" />
<polygon fill="#0991a6" fill-opacity="0.501961" points="157,36 161,42 148,43" />
<polygon fill="#3390c7" fill-opacity="0.501961" points="45,45 41,49 43,60" />
<polygon fill="#006bbe" fill-opacity="0.501961" points="65,36 58,41 55,38" />
<polygon fill="#f2f2f0" fill-opacity="0.501961" points="48,72 54,95 64,75" />
<polygon fill="#ffffff" fill-opacity="0.501961" points="31,88 28,87 33,85" />
<polygon fill="#143e69" fill-opacity="0.501961" points="113,85 122,85 116,95" />
<polygon fill="#0086c3" fill-opacity="0.501961" points="36,71 32,71 40,81" />
<polygon fill="#eff1ef" fill-opacity="0.501961" points="42,89 50,70 69,82" />
<polygon fill="#fffff6" fill-opacity="0.501961" points="186,59 184,58 185,53" />
<polygon fill="#0079d1" fill-opacity="0.501961" points="98,33 101,25 103,27" />
<polygon fill="#0074bf" fill-opacity="0.501961" points="180,45 191,54 185,54" />
<polygon fill="#d6e0f2" fill-opacity="0.501961" points="172,58 173,54 178,64" />
<polygon fill="#f0ece7" fill-opacity="0.501961" points="111,28 116,26 111,12" />
<polygon fill="#fffbf5" fill-opacity="0.501961" points="203,81 207,74 217,79" />
<polygon fill="#008da5" fill-opacity="0.501961" points="209,69 205,72 205,61" />
<polygon fill="#0e2b52" fill-opacity="0.501961" points="175,97 172,101 171,98" />
<polygon fill="#f5f4f0" fill-opacity="0.501961" points="229,76 250,64 223,69" />
<polygon fill="#1690cc" fill-opacity="0.501961" points="21,86 27,94 32,90" />
<polygon fill="#f8f7f7" fill-opacity="0.501961" points="143,117 156,96 199,125" />
<polygon fill="#1aa9ba" fill-opacity="0.501961" points="50,88 54,97 52,101" />
<polygon fill="#fffefd" fill-opacity="0.501961" points="53,103 126,147 66,159" />
<polygon fill="#1692c7" fill-opacity="0.501961" points="224,97 232,98 224,105" />
<polygon fill="#ffffff" fill-opacity="0.501961" points="119,77 119,69 115,72" />
<polygon fill="#fffff2" fill-opacity="0.501961" points="115,49 115,56 112,56" />
<polygon fill="#7f97ae" fill-opacity="0.501961" points="197,84 192,89 200,92" />
<polygon fill="#0a91c6" fill-opacity="0.501961" points="20,74 37,74 30,70" />
<polygon fill="#f8f6f5" fill-opacity="0.501961" points="24,91 62,127 -16,92" />
<polygon fill="#0d2551" fill-opacity="0.501961" points="97,81 100,80 101,84" />
<polygon fill="#068da3" fill-opacity="0.501961" points="88,67 80,61 83,56" />
<polygon fill="#284a6e" fill-opacity="0.501961" points="182,77 202,81 183,71" />
<polygon fill="#2e9bcb" fill-opacity="0.501961" points="16,78 23,76 18,86" />
<polygon fill="#fffff6" fill-opacity="0.501961" points="164,80 161,88 161,75" />
<polygon fill="#cae9e6" fill-opacity="0.501961" points="211,51 206,56 209,64" />
<polygon fill="#fff7f3" fill-opacity="0.501961" points="228,59 234,55 227,55" />
<polygon fill="#fdfdfd" fill-opacity="0.501961" points="166,159 233,143 193,108" />
</g>
</svg>