<?xml version="1.0" encoding="UTF-8" standalone="no"?>
<svg
   xmlns:dc="http://purl.org/dc/elements/1.1/"
   xmlns:cc="http://creativecommons.org/ns#"
   xmlns:rdf="http://www.w3.org/1999/02/22-rdf-syntax-ns#"
   xmlns:svg="http://www.w3.org/2000/svg"
   xmlns="http://www.w3.org/2000/svg"
   id="svg8"
   version="1.1"
   viewBox="0 0 210 297"
   height="297mm"
   width="210mm">
  <defs
     id="defs2" />
  <metadata
     id="metadata5">
    <rdf:RDF>
      <cc:Work
         rdf:about="">
        <dc:format>image/svg+xml</dc:format>
        <dc:type
           rdf:resource="http://purl.org/dc/dcmitype/StillImage" />
        <dc:title></dc:title>
      </cc:Work>
    </rdf:RDF>
  </metadata>
  <g
     id="layer1">
    <path
       d="m -1749.9048,1126.9037 c 208.7625,422.2669 752.77291,355.7423 1139.70081,379.8426 256.0058,-124.6349 47.6496,-468.8467 -193.5262,-325.024 -315.00641,-24.9296 -633.52911,-0.9344 -946.17461,-54.8186 z m 2890.324,1554.2794 0.2232,2.1332 z M -2252.1503,-88.176127 c -58.8795,0.6496 -117.5291,18.55424 -164.0665,59.38224 -47.912,-4.768 -95.9122,-18.57552 -135.8552,-46.30208 -355.3226,240.801757 -764.4046,474.441917 -935.0706,891.323647 92.574,400.76082 562.2412,482.46042 911.1919,496.19282 328.7177,176.4932 980.8613,-392.75852 487.9,-569.17682 -355.2037,19.6948 -390.4226,-588.57549 6.1928,-483.50125 216.8532,-168.089117 22.0473,-350.043677 -170.2924,-347.918557 z M 4810.6394,1718.7604 c -50.1536,0.1792 -105.2124,14.2433 -163.9092,46.3848 -90.8864,9.2342 -180.7132,26.2622 -271.1568,38.7697 13.1288,436.1871 -536.5192,339.1349 -809.1701,237.6042 -271.2784,-263.4811 -835.2283,352.9658 -287.9494,316.9955 359.0203,-16.852 721.0511,-84.5168 1081.0627,-83.3107 v 2.5382 h 109.3224 c 115.196,5.2575 230.134,18.8109 344.6448,44.6652 443.0008,-14.133 324.628,-604.8175 -2.8444,-603.6469 z M 6403.5774,432.98755 c -155.6968,-0.7168 -326.1216,36.53008 -449.5272,60.35808 232.7756,378.71765 -755.6432,317.40885 -404.3496,633.04047 393.7168,-109.9872 1028.6392,19.242 1252.0416,-344.33872 0.896,-275.79727 -184.8028,-348.07663 -398.1648,-349.05983 z M -167.57319,561.63058 v 12.6091 c -3.579,-9.3992 -2.883,-12.8632 0,-12.6091 z m 1013.00681,-402.96863 -5.12632,0.9344 z M 1130.8777,97.402593 c -98.8266,-0.8032 -196.51216,17.890717 -285.66732,62.168797 -367.37244,247.6584 -826.786873,121.1144 -1237.57197,183.84416 -443.2875,-149.1104 -272.08,531.43133 47.2364,496.04413 273.702297,440.23142 -21.5874,964.57202 114.0933,1431.04002 157.416497,411.529 693.64367,334.8378 800.22399,-32.6012 390.5818,-157.0114 791.2796,70.6171 1188.8887,66.1868 256.2163,48.509 916.0835,148.4968 761.6197,-297.5568 -238.8472,-181.5668 -846.0104,183.0948 -803.8621,-328.8192 130.9464,-345.8406 569.8937,-214.539 853.6864,-203.1256 472.7145,112.3384 652.4787,-393.3104 877.7635,-690.33932 38.2302,-253.9525 748.8979,-210.2859 476.5227,-472.38867 -529.4185,-121.87856 -868.5958,414.32757 -1342.4461,530.43997 -319.8916,88.1196 -653.464,151.5058 -983.6381,163.95892 -453.6409,-205.91612 449.909,-531.49857 2.5714,-770.54097 C 1463.4711,154.23555 1295.5887,98.741633 1130.8777,97.402593 Z m 1241.5821,-187.04384 c -147.8038,313.075677 508.3333,44.8224 96.5565,14.2544 l -48.1459,-7.98704 z m 698.7696,73.94176 c -15.2206,-0.352 -38.6809,9.4147196 -72.8845,35.33024 28.3461,202.973757 146.2208,-33.63264 72.8845,-35.33024 z m -4790.7289,38.17664 c -147.5264,349.702877 236.6103,619.898727 543.3962,661.665127 389.06861,160.259 476.51421,-359.24065 123.4034,-454.52945 -239.7269,-28.5752 -419.4776,-198.699837 -666.7996,-207.135677 z m 2571.42368,-953.592643 67.0884,2.37296 z m 997.08632,811.2208 c -104.9494,2.07968 -86.7516,140.594563 101.228,30.129443 -38.3702,-21.184803 -70.6174,-29.570563 -96.1347,-30.121123 -1.7277,-0.032 -3.4273,-0.048 -5.0933,-0.008 z m 147.158,-51.63504 c -8.2208,0.5872 -20.3066,9.37008 -37.2732,31.08848 26.7261,153.429603 76.8828,-33.91936 37.2732,-31.08848 z M 5116.1334,1158.7533 c -231.6812,1.3632 -3.0568,628.7956 135.0452,285.4855 -25.8388,-85.0602 -70.9564,-172.4602 -47.7572,-264.0376 -34.4288,-15.0266 -63.3208,-21.5888 -87.288,-21.4479 z M 5174.955,73.513153 c -223.9464,-0.4112 -468.9652,81.387197 -685.0064,35.247517 -89.968,-0.6752 -179.994,-4.88848 -269.3872,-15.378877 C 3871.5358,416.95587 4550.8638,1086.194 4765.3634,562.90968 4933.0846,292.32499 5556.4618,540.35138 5544.495,208.43411 5436.1102,103.59843 5309.3226,73.759873 5174.955,73.513153 Z M 3873.9622,-3358.5435 l 34.9496,31.0555 z"
       style="fill:#000000;stroke-width:2.99341846"
       id="path54" />
  </g>
</svg>
