<svg xmlns="http://www.w3.org/2000/svg" version="1.1" width="1024" height="640">
<rect x="0" y="0" width="1024" height="640" fill="#3e505d" />
<g transform="scale(4.000000) translate(0.5 0.5)">
<polygon fill="#82a8cd" fill-opacity="0.450980" points="271.000000,-16.000000,183.816314,102.025176,110.084662,112.951361,50.153980,3.018614" />
<polygon fill="#10120c" fill-opacity="0.643137" points="-3.972162,169.149198,271.000000,175.000000,271.000000,115.559252,-8.459259,115.550408" />
<polygon fill="#00111c" fill-opacity="0.513725" points="136.890046,44.089213,-16.000000,144.917906,22.709450,-16.000000,42.722735,73.085246" />
<polygon fill="#7090ab" fill-opacity="0.717647" points="208.252120,-16.000000,76.115241,9.127090,266.572205,87.247515,195.585690,82.235159" />
<polygon fill="#ffd7b4" fill-opacity="0.462745" points="249.806760,79.058360,238.333761,127.400561,246.639149,122.402553,256.387878,86.861427" />
<polygon fill="#dcd7cc" fill-opacity="0.572549" points="142.648123,71.807521,154.794367,66.080158,154.858748,101.640444,142.599044,109.782954" />
<polygon fill="#f4f5f0" fill-opacity="0.611765" points="62.282874,8.445313,62.214429,58.587920,64.784171,67.470534,67.831679,49.319534" />
<polygon fill="#ebd198" fill-opacity="0.623529" points="17.039807,-16.000000,18.912233,-16.000000,17.221184,11.695375,-14.503764,7.658977" />
<polygon fill="#2e4a65" fill-opacity="0.662745" points="62.101559,81.249855,88.178444,52.863472,176.888377,58.706504,74.999487,96.028984" />
<polygon fill="#182a34" fill-opacity="0.996078" points="40.358261,16.455855,35.643387,92.196066,-16.000000,78.496822,-16.000000,7.420277" />
<polygon fill="#f0e3c3" fill-opacity="0.658824" points="-16.000000,85.337173,-10.807622,52.894836,3.297889,102.574701,8.399288,88.486048" />
<polygon fill="#bbbdb3" fill-opacity="0.611765" points="39.468050,33.837934,41.284432,83.366967,45.028425,38.364316,40.028466,12.675261" />
<polygon fill="#092643" fill-opacity="0.447059" points="94.794441,113.784628,249.207291,105.022344,172.524153,66.543052,175.205052,153.145947" />
<polygon fill="#d3ceb8" fill-opacity="0.545098" points="54.523402,68.807786,53.342456,-16.000000,51.477073,28.273833,50.965499,73.838762" />
<polygon fill="#7b603f" fill-opacity="0.513725" points="91.347347,145.852836,36.337113,160.679218,176.564176,156.894242,166.380969,152.321492" />
<polygon fill="#e1d3bd" fill-opacity="0.337255" points="181.797098,100.094454,99.531557,114.532254,12.714842,124.421094,126.845163,105.329656" />
<polygon fill="#000200" fill-opacity="0.764706" points="243.633182,175.000000,225.082689,143.866167,169.274345,142.989965,169.594616,175.000000" />
<polygon fill="#485864" fill-opacity="0.992157" points="150.012302,61.454706,103.352746,173.504367,145.570638,71.267692,149.112758,108.696367" />
<polygon fill="#2a3a45" fill-opacity="0.674510" points="142.491876,112.074505,142.537337,65.025958,128.938288,119.445772,127.659895,74.796270" />
<polygon fill="#d2d9d9" fill-opacity="0.662745" points="152.249461,52.539383,145.380337,52.783302,148.193318,56.524348,145.806923,-16.000000" />
<polygon fill="#fbf2e2" fill-opacity="0.552941" points="132.693823,62.691214,132.638780,60.260219,134.665834,114.658381,137.423259,82.913762" />
<polygon fill="#2f5a84" fill-opacity="0.752941" points="271.000000,74.170274,223.739944,57.793631,225.480894,5.585199,271.000000,-3.903282" />
<polygon fill="#f1f1e9" fill-opacity="0.780392" points="221.025448,22.623798,221.267002,56.690986,223.932618,31.731130,223.567099,15.125625" />
<polygon fill="#f8eddf" fill-opacity="0.490196" points="176.100452,105.841668,169.362691,101.351198,173.173321,63.710694,165.964141,68.485079" />
<polygon fill="#98a0a0" fill-opacity="0.874510" points="76.728335,61.059645,72.361934,61.411434,71.589806,70.691837,73.171036,11.823194" />
<polygon fill="#ebe5d4" fill-opacity="0.560784" points="72.206590,117.847177,72.931063,87.107640,75.114608,95.689344,75.240898,114.905785" />
<polygon fill="#feefdb" fill-opacity="0.568627" points="160.614243,110.719787,162.724303,83.612454,162.439319,69.093279,159.783121,60.372665" />
<polygon fill="#323941" fill-opacity="0.752941" points="152.861022,98.172915,158.749041,57.885707,161.039094,109.486494,243.355299,136.263593" />
<polygon fill="#fff6e4" fill-opacity="0.494118" points="119.501501,46.779412,113.705176,53.658079,116.349501,22.377418,116.621311,2.800347" />
<polygon fill="#fbedd3" fill-opacity="0.462745" points="91.616905,82.015609,92.943855,90.985255,92.141890,118.661971,89.285936,100.051398" />
<polygon fill="#101d23" fill-opacity="0.921569" points="-12.187857,130.085085,-16.000000,158.830037,183.258851,108.288492,165.600022,106.879421" />
<polygon fill="#636a64" fill-opacity="0.992157" points="185.020421,68.537533,236.739228,65.029516,241.320425,62.981726,191.127606,51.348561" />
<polygon fill="#14232b" fill-opacity="0.788235" points="61.641307,140.848549,66.780091,152.141339,59.342046,1.958307,54.610756,45.925112" />
<polygon fill="#32495c" fill-opacity="0.800000" points="101.154871,71.337652,103.569910,119.850215,117.995076,50.198114,114.153905,112.718840" />
<polygon fill="#c3c4bd" fill-opacity="0.788235" points="95.110972,10.666555,96.999089,28.699993,95.889833,53.324991,93.219196,54.348377" />
<polygon fill="#fff4e3" fill-opacity="0.447059" points="103.049006,85.535224,99.635834,84.282267,99.113686,117.212001,100.564580,117.554720" />
<polygon fill="#fef4e2" fill-opacity="0.431373" points="110.931617,89.085814,112.956445,97.494095,107.328059,78.355504,107.319813,121.046391" />
<polygon fill="#fcf9ef" fill-opacity="0.815686" points="127.139489,106.496296,124.422365,109.614220,124.011954,79.898744,125.784386,75.985795" />
<polygon fill="#f8f0dd" fill-opacity="0.572549" points="167.830951,37.010635,169.768064,47.767303,172.191523,22.126953,169.577341,11.151120" />
<polygon fill="#001a30" fill-opacity="0.360784" points="104.647899,-1.367210,104.731793,17.887287,103.479796,58.681530,95.872589,31.796296" />
<polygon fill="#031c35" fill-opacity="0.450980" points="166.520654,16.511096,164.082712,89.283825,169.853258,102.050685,166.773020,50.195588" />
<polygon fill="#0d212c" fill-opacity="0.454902" points="93.710724,6.741660,93.832656,40.744844,82.919590,175.000000,87.147294,31.636786" />
<polygon fill="#e8e2da" fill-opacity="0.647059" points="159.854238,101.354437,168.849500,105.793006,164.201427,96.467615,162.385921,83.324757" />
<polygon fill="#d4ab71" fill-opacity="0.200000" points="228.198194,134.131554,215.110452,141.998736,176.171695,143.774465,171.865361,133.255017" />
<polygon fill="#565d5b" fill-opacity="1.000000" points="41.421996,120.974751,44.154027,119.825444,28.282408,126.278629,29.216617,107.083262" />
<polygon fill="#cbc6ba" fill-opacity="0.533333" points="80.742768,118.070739,82.671300,110.412063,83.081230,80.329537,81.073907,88.357696" />
<polygon fill="#fffff8" fill-opacity="0.443137" points="154.330540,72.634178,153.518827,104.177819,140.633143,56.663377,145.091561,104.605141" />
<polygon fill="#f5d273" fill-opacity="0.282353" points="43.334851,175.000000,34.623685,132.691435,30.748190,139.446062,57.204152,164.529587" />
<polygon fill="#324652" fill-opacity="0.572549" points="62.849993,-16.000000,-0.018777,26.306960,75.369625,14.564377,67.991483,58.784171" />
<polygon fill="#fffaeb" fill-opacity="0.462745" points="66.536992,123.905923,67.638380,117.621817,64.504625,119.230711,66.981073,85.982989" />
<polygon fill="#fef7e2" fill-opacity="0.392157" points="39.579884,74.679453,42.740540,74.044318,41.519486,4.915870,40.208216,39.391206" />
<polygon fill="#10171c" fill-opacity="0.392157" points="240.626889,65.768395,259.207227,73.890144,219.842502,110.310555,238.013702,175.000000" />
<polygon fill="#466584" fill-opacity="0.858824" points="153.849151,45.615939,218.599542,43.233231,94.356498,83.869484,166.612760,43.974026" />
<polygon fill="#000b0f" fill-opacity="0.454902" points="-16.000000,132.153380,28.445700,65.909957,28.019940,173.092939,-14.923346,175.000000" />
<polygon fill="#14222b" fill-opacity="0.933333" points="47.248920,72.658058,46.660879,157.880266,37.683831,104.550659,-3.451883,75.780255" />
<polygon fill="#ffeecb" fill-opacity="0.450980" points="82.897417,22.127840,85.775990,13.696918,86.027240,19.436887,85.959978,71.630409" />
<polygon fill="#f1e2c4" fill-opacity="0.407843" points="57.284857,94.207690,58.941360,107.945297,57.591437,115.697230,54.579040,122.552015" />
<polygon fill="#fcf4e8" fill-opacity="0.615686" points="195.104005,79.592012,197.032780,76.065770,199.067795,62.150587,201.961014,81.891273" />
<polygon fill="#25394a" fill-opacity="0.780392" points="117.858033,117.959826,122.970173,105.773266,123.008491,91.406109,120.860203,58.275806" />
<polygon fill="#fff7cd" fill-opacity="0.235294" points="148.996845,157.814385,177.906318,148.132048,149.254312,164.182227,125.760650,140.630295" />
<polygon fill="#03141b" fill-opacity="0.407843" points="49.733315,7.131197,49.928454,65.866032,54.884540,115.118159,41.552773,41.265700" />
<polygon fill="#2f4054" fill-opacity="0.756863" points="223.135853,117.258023,243.043675,89.542323,209.100606,80.615279,161.001938,124.072271" />
<polygon fill="#f8edd6" fill-opacity="0.309804" points="46.401982,109.302599,47.111185,115.079451,48.275749,126.184736,50.164924,93.156739" />
<polygon fill="#2e5071" fill-opacity="0.709804" points="82.438912,60.205631,82.946362,-16.000000,72.685775,85.264457,145.053509,59.288822" />
<polygon fill="#9c7557" fill-opacity="0.788235" points="95.850637,142.180660,91.160025,161.897674,87.304381,166.105977,90.381332,142.726053" />
<polygon fill="#ffecc9" fill-opacity="0.360784" points="116.913506,78.972085,112.125983,132.023216,118.510028,93.450444,118.944651,77.544850" />
<polygon fill="#1c3343" fill-opacity="0.780392" points="91.328290,132.320144,172.278728,136.659030,98.621545,112.669875,100.597485,45.839207" />
<polygon fill="#0e0d02" fill-opacity="0.568627" points="259.093448,137.854330,219.239043,121.233100,247.144262,125.173536,262.670041,63.837516" />
<polygon fill="#fef9ef" fill-opacity="0.505882" points="173.996207,92.797735,173.470531,90.529043,169.658598,104.690115,168.730156,61.794526" />
<polygon fill="#e7e4d3" fill-opacity="0.411765" points="136.464419,7.830783,136.377672,48.635056,140.961407,61.076963,138.145133,24.100725" />
<polygon fill="#f8eedd" fill-opacity="0.482353" points="214.468374,68.604687,206.431490,81.627340,207.521925,63.894035,217.641979,84.272249" />
<polygon fill="#c9d1d1" fill-opacity="0.643137" points="157.649678,-3.176766,158.496332,45.435654,161.940874,47.934587,160.613306,25.666411" />
<polygon fill="#e6e3d7" fill-opacity="0.592157" points="106.795876,41.197220,104.087509,54.777688,107.184814,-7.959436,107.033153,-4.920304" />
<polygon fill="#608ab1" fill-opacity="0.721569" points="152.265555,18.503896,250.381016,0.107537,103.515812,-16.000000,76.872760,11.633637" />
<polygon fill="#14232c" fill-opacity="0.992157" points="47.605363,132.251837,48.776399,125.993118,55.943393,117.374127,55.704104,67.547344" />
<polygon fill="#325d88" fill-opacity="0.564706" points="210.268643,84.825275,220.951746,37.294962,220.791141,12.413133,207.984387,-11.172833" />
<polygon fill="#32516e" fill-opacity="0.811765" points="114.740407,7.160433,103.596833,73.437463,101.545067,108.290105,115.006314,45.480502" />
<polygon fill="#111816" fill-opacity="0.737255" points="20.715236,18.563892,-12.091230,13.960084,33.214135,8.596593,14.452790,-16.000000" />
<polygon fill="#91e6e5" fill-opacity="0.717647" points="249.688249,90.188217,271.000000,82.163238,271.000000,82.594656,249.387718,80.225779" />
<polygon fill="#fef4db" fill-opacity="0.305882" points="73.462471,77.549017,76.016692,18.355221,72.657211,12.707237,72.602400,40.560490" />
<polygon fill="#2e404e" fill-opacity="0.745098" points="239.574541,71.296984,201.192858,59.423745,203.154645,112.501470,206.953891,61.746165" />
<polygon fill="#fff8e5" fill-opacity="0.301961" points="220.829791,69.451114,223.042728,98.597905,221.831310,8.438570,224.873635,48.901419" />
<polygon fill="#16222a" fill-opacity="0.678431" points="74.845230,151.862012,79.019772,70.745495,80.854009,115.270965,42.604496,173.711340" />
<polygon fill="#31495d" fill-opacity="0.992157" points="64.470343,89.393428,66.337443,61.867336,66.038311,34.956126,72.721010,33.605019" />
<polygon fill="#152124" fill-opacity="0.780392" points="148.255546,140.992121,148.644402,106.673885,145.357477,104.552309,134.419323,159.814725" />
<polygon fill="#fffef6" fill-opacity="0.533333" points="148.668701,107.026156,153.646413,103.891014,153.779427,65.466732,151.372765,67.219645" />
<polygon fill="#fbf3e5" fill-opacity="0.419608" points="176.937434,32.630250,181.856283,51.157951,180.996470,38.858379,180.746112,23.832360" />
<polygon fill="#f95f13" fill-opacity="0.215686" points="180.503323,130.350294,193.306230,108.767587,206.228719,120.925830,172.715111,114.975980" />
<polygon fill="#fdebd3" fill-opacity="0.364706" points="130.497946,114.144720,144.169829,101.737401,137.753439,114.438362,136.656643,95.781826" />
<polygon fill="#151d18" fill-opacity="0.827451" points="79.579336,152.816921,89.297244,81.293691,86.293826,175.000000,114.229177,175.000000" />
<polygon fill="#315378" fill-opacity="0.682353" points="191.938697,110.064846,198.041666,65.051948,171.419512,59.746678,174.173284,84.157415" />
<polygon fill="#172c3c" fill-opacity="0.474510" points="146.192840,89.164438,150.142534,104.678988,149.482459,52.271330,151.523605,55.495860" />
<polygon fill="#fffaeb" fill-opacity="0.219608" points="100.802118,110.038235,64.590609,118.979430,103.281749,114.554976,98.062266,71.182549" />
<polygon fill="#fdfcf3" fill-opacity="0.525490" points="67.349996,72.472023,64.575468,49.420144,62.980461,20.841493,62.488960,52.658362" />
<polygon fill="#8ca6bc" fill-opacity="0.235294" points="172.573719,55.501844,238.923970,63.020034,185.250424,44.706783,102.119097,80.767888" />
<polygon fill="#192e3c" fill-opacity="0.976471" points="157.469128,116.581076,94.228501,149.319380,168.837250,132.807594,154.478082,93.860826" />
<polygon fill="#fff1d0" fill-opacity="0.278431" points="55.013388,22.946768,53.344164,76.998366,51.350709,50.685640,50.256053,13.130465" />
<polygon fill="#1a3146" fill-opacity="0.603922" points="143.366552,99.655442,138.361870,107.284998,136.757721,73.151271,139.880038,58.732199" />
<polygon fill="#a6ada6" fill-opacity="0.517647" points="243.339087,100.705626,238.582906,121.399290,242.192565,124.547341,249.721747,96.233574" />
<polygon fill="#1d303b" fill-opacity="0.725490" points="191.103929,88.141050,228.093114,91.459422,254.897000,89.606713,198.624731,80.984984" />
<polygon fill="#233540" fill-opacity="0.866667" points="-16.000000,17.827891,79.278120,14.041593,21.439112,10.591391,38.057314,52.845177" />
<polygon fill="#0c1b28" fill-opacity="0.513725" points="217.401275,66.312430,221.651721,64.589995,218.543987,83.178029,216.364101,72.474722" />
<polygon fill="#4b7096" fill-opacity="0.819608" points="134.031678,4.596471,120.897774,71.829336,119.553213,-9.850466,133.160702,73.690185" />
<polygon fill="#f1ece0" fill-opacity="0.439216" points="190.669613,15.265074,188.906211,25.458839,189.338923,35.276681,191.770882,48.403332" />
<polygon fill="#3a2803" fill-opacity="0.356863" points="168.968510,64.727159,173.174323,56.378829,128.694176,72.512085,160.130649,64.982998" />
<polygon fill="#192d3c" fill-opacity="0.466667" points="129.980411,47.661304,46.572656,79.731437,71.685789,99.589647,79.618483,57.848417" />
<polygon fill="#314657" fill-opacity="0.639216" points="233.863843,62.321361,219.811965,103.486548,228.090966,62.452360,237.821683,102.552012" />
<polygon fill="#fffff8" fill-opacity="0.549020" points="143.822280,102.672674,146.805737,97.508962,146.600160,66.162621,142.699469,71.028228" />
<polygon fill="#fff8e7" fill-opacity="0.505882" points="181.963188,16.966769,179.509939,37.360411,179.377286,21.426941,177.200929,15.930018" />
<polygon fill="#ffefd7" fill-opacity="0.403922" points="227.953039,87.385481,233.234560,84.621086,232.243450,81.938281,230.894562,70.321641" />
<polygon fill="#263d55" fill-opacity="0.686275" points="126.661525,101.796358,131.565228,117.968886,133.186330,77.379083,129.106133,61.708278" />
<polygon fill="#eff1ec" fill-opacity="1.000000" points="64.938175,26.633109,65.013227,63.742870,62.741000,28.418167,64.272532,16.114382" />
<polygon fill="#fff6e6" fill-opacity="0.196078" points="137.023975,154.817865,167.754775,152.510091,158.069563,159.540005,152.637909,149.515618" />
<polygon fill="#cbc4b2" fill-opacity="0.403922" points="36.116497,113.865921,35.984439,125.756225,39.656681,104.989855,39.341434,100.759259" />
<polygon fill="#fefaf0" fill-opacity="0.584314" points="133.286413,83.746661,136.335107,71.820224,134.720683,108.242839,137.992339,110.478665" />
<polygon fill="#c8834d" fill-opacity="0.223529" points="98.367959,165.509272,58.151208,150.617144,108.993160,160.485681,103.169096,142.610187" />
<polygon fill="#100f07" fill-opacity="0.415686" points="99.879940,175.000000,106.696991,150.312846,145.982619,159.304566,256.318408,144.653495" />
<polygon fill="#023673" fill-opacity="0.274510" points="147.211158,33.900558,145.729970,71.418941,139.649124,33.358829,144.705853,9.742388" />
<polygon fill="#fff2d5" fill-opacity="0.270588" points="224.117130,66.514102,221.773197,83.487323,196.290459,67.656365,216.330516,85.227152" />
<polygon fill="#fef5e5" fill-opacity="0.345098" points="120.538928,111.983231,116.861584,106.780483,119.834632,60.502843,114.422951,110.163096" />
<polygon fill="#080904" fill-opacity="0.368627" points="169.162315,111.265625,70.999418,123.777674,31.486614,128.429097,99.958844,113.432467" />
<polygon fill="#121308" fill-opacity="0.639216" points="144.007382,175.000000,132.216614,155.652635,150.162164,156.654805,144.831521,139.202561" />
<polygon fill="#f18801" fill-opacity="0.196078" points="33.221445,134.398147,32.185193,135.571108,31.389689,172.767558,24.919139,148.646427" />
<polygon fill="#d03c0f" fill-opacity="0.239216" points="252.801337,109.264787,264.866759,101.468827,241.999120,129.066695,254.223125,85.472692" />
<polygon fill="#3d6898" fill-opacity="0.650980" points="209.195743,36.069403,192.441385,49.899178,177.864727,83.512173,173.351377,51.458780" />
<polygon fill="#e5dbbb" fill-opacity="0.564706" points="6.482473,96.589992,-16.000000,64.809139,-14.412064,94.102636,5.944478,85.867656" />
<polygon fill="#481800" fill-opacity="0.356863" points="231.452352,99.813112,226.569125,112.971488,237.287149,123.085707,245.330095,97.243507" />
<polygon fill="#fcfcf1" fill-opacity="0.423529" points="40.049164,22.391077,39.999835,52.178077,41.536615,38.420080,43.065975,19.770178" />
<polygon fill="#fef7ea" fill-opacity="0.400000" points="107.082967,82.168242,107.482560,88.117569,108.843350,116.427154,110.393456,96.373058" />
<polygon fill="#2d3e49" fill-opacity="0.729412" points="31.237443,106.706419,169.767317,59.952964,80.976303,87.247733,94.163993,74.924216" />
<polygon fill="#d9d8d1" fill-opacity="0.701961" points="68.004579,117.814470,64.501650,115.985441,65.214557,111.801814,65.423797,94.969864" />
<polygon fill="#0b1517" fill-opacity="0.690196" points="8.520372,169.929815,-12.713993,169.825346,3.650084,44.234256,1.518221,97.301588" />
<polygon fill="#466a8f" fill-opacity="0.662745" points="155.389948,15.826020,158.766159,20.265051,155.787800,76.772159,150.655178,22.780716" />
<polygon fill="#fef7e5" fill-opacity="0.407843" points="150.944558,53.387095,146.308586,19.418692,153.225517,10.936499,150.214391,22.575727" />
<polygon fill="#fefbf0" fill-opacity="0.415686" points="49.994990,122.214152,49.437961,123.271482,48.174775,102.413694,46.915604,120.471733" />
<polygon fill="#adc0ce" fill-opacity="0.270588" points="165.025464,15.791191,129.858842,-8.777258,126.218534,90.628382,126.259663,13.356426" />
<polygon fill="#fffff6" fill-opacity="0.313725" points="78.087536,121.102092,74.743391,105.915104,74.934505,85.483253,72.390035,112.787295" />
<polygon fill="#5a89b5" fill-opacity="0.223529" points="271.000000,13.875920,271.000000,4.887466,65.183822,-16.000000,37.818613,13.083583" />
<polygon fill="#436586" fill-opacity="0.854902" points="126.843329,3.995188,123.410654,11.932037,118.540227,82.898189,126.399957,37.948057" />
<polygon fill="#ffeedc" fill-opacity="0.333333" points="235.758396,89.834003,242.057735,86.446683,238.822154,83.322148,238.950995,74.322944" />
<polygon fill="#174578" fill-opacity="0.301961" points="160.587984,33.372002,165.831769,-16.000000,168.169962,40.738090,161.737690,41.343189" />
<polygon fill="#396087" fill-opacity="0.380392" points="171.098329,37.842642,178.668442,42.391565,176.459866,4.751455,170.963985,19.263367" />
<polygon fill="#271e00" fill-opacity="0.301961" points="206.928329,63.247440,228.579400,73.665570,227.383381,61.142953,255.593795,71.573511" />
<polygon fill="#132025" fill-opacity="0.839216" points="27.132228,88.131968,34.293748,121.892765,35.885603,113.170737,40.329717,50.252664" />
<polygon fill="#f1cb81" fill-opacity="0.239216" points="185.805291,54.580054,232.193046,67.628290,207.571488,55.703948,215.230063,58.995323" />
<polygon fill="#011423" fill-opacity="0.298039" points="154.954719,49.335535,185.208898,44.042971,178.625109,46.825963,156.854747,54.446837" />
<polygon fill="#2b4866" fill-opacity="0.819608" points="193.797711,89.195405,249.994687,93.670190,183.008619,112.536002,172.609008,90.291287" />
<polygon fill="#121e1c" fill-opacity="0.650980" points="94.253931,137.229066,104.612422,175.000000,97.517766,128.469391,9.879461,173.259886" />
<polygon fill="#ff8a76" fill-opacity="0.341176" points="230.014586,112.448218,239.048385,107.108573,243.779573,106.088101,231.088402,106.064745" />
<polygon fill="#fcf9f3" fill-opacity="0.200000" points="146.932399,48.609300,198.912793,41.369322,177.765953,41.163658,162.221599,42.470766" />
<polygon fill="#fffcf2" fill-opacity="0.392157" points="160.346448,109.003207,149.870749,105.077363,143.129341,102.440724,151.437976,101.298611" />
<polygon fill="#132939" fill-opacity="0.690196" points="102.120341,85.596767,102.083239,107.450624,107.253352,108.688515,106.407373,81.375168" />
<polygon fill="#192931" fill-opacity="0.552941" points="72.876688,97.302807,69.075658,124.341930,66.166329,71.437157,49.042056,70.763102" />
<polygon fill="#191f20" fill-opacity="0.858824" points="170.667029,114.314521,171.289279,114.957129,161.026876,104.541619,163.995700,101.265368" />
<polygon fill="#fef1dc" fill-opacity="0.266667" points="136.163597,66.400135,137.352180,106.382614,132.980184,114.141563,132.726635,108.229135" />
<polygon fill="#ffd9cc" fill-opacity="0.282353" points="179.087088,118.139413,159.899779,97.678036,168.640276,101.936862,176.337051,118.442707" />
<polygon fill="#fef7e4" fill-opacity="0.580392" points="91.733599,112.018944,91.169777,86.234012,89.023670,116.654921,91.329751,110.480313" />
<polygon fill="#818b8e" fill-opacity="0.992157" points="247.730715,95.478493,231.420944,97.728179,241.812144,98.094463,255.944278,86.516683" />
<polygon fill="#345a83" fill-opacity="0.580392" points="133.964376,27.470063,138.981280,50.552614,61.282664,77.646565,129.461839,66.765364" />
<polygon fill="#fefbed" fill-opacity="0.329412" points="202.053566,3.452577,200.412950,10.621072,200.104388,19.306037,201.576441,48.227633" />
<polygon fill="#ffe963" fill-opacity="0.211765" points="77.258698,144.833873,69.416631,169.357781,98.930193,159.334927,77.792247,160.370479" />
<polygon fill="#fff7e5" fill-opacity="0.462745" points="118.013770,91.094735,116.964001,103.717524,115.769838,87.627522,117.431668,73.562641" />
<polygon fill="#162935" fill-opacity="0.843137" points="146.020701,135.715625,132.995836,107.755532,164.670785,151.045344,137.165175,99.044055" />
<polygon fill="#fffbe9" fill-opacity="0.274510" points="84.845161,13.676551,84.806470,53.736623,66.104839,61.213979,86.285586,56.804462" />
<polygon fill="#fefecb" fill-opacity="0.231373" points="49.420268,166.500406,34.943469,140.438485,45.329060,155.729145,29.848080,168.425229" />
<polygon fill="#212018" fill-opacity="0.549020" points="176.788471,173.730575,167.770866,136.603600,232.995806,129.556118,180.443657,116.297946" />
<polygon fill="#fff8e6" fill-opacity="0.337255" points="116.757346,11.150163,115.387729,16.930064,116.012466,45.955979,119.753113,31.207932" />
<polygon fill="#f5f0e2" fill-opacity="0.509804" points="222.068106,45.130539,225.012887,50.384585,220.468447,51.780233,221.657025,23.695987" />
<polygon fill="#fdbd74" fill-opacity="0.400000" points="105.719357,161.044762,110.160593,165.813924,100.774001,153.600653,102.755402,147.083401" />
<polygon fill="#2b4051" fill-opacity="0.980392" points="154.153500,101.944574,178.852314,146.133981,157.796642,103.720533,154.708657,63.137948" />
<polygon fill="#162528" fill-opacity="0.768627" points="83.359619,94.022392,83.936652,111.267517,85.382390,175.000000,87.507652,81.860961" />
<polygon fill="#607483" fill-opacity="0.741176" points="196.915148,15.660336,132.805602,13.679003,136.769286,30.866943,129.601194,16.092339" />
<polygon fill="#fef9e8" fill-opacity="0.317647" points="32.748495,123.642611,29.767916,100.156493,29.074237,112.614069,30.379572,115.783164" />
<polygon fill="#d2d6d6" fill-opacity="0.960784" points="170.907298,101.464883,171.386067,63.650080,168.282238,60.806359,169.622335,80.435307" />
<polygon fill="#f8fdff" fill-opacity="0.266667" points="149.046945,48.229104,126.710834,61.767722,142.307023,49.297449,155.762452,54.839645" />
<polygon fill="#fd624e" fill-opacity="0.486275" points="66.141283,152.168069,66.683674,152.600092,66.841658,162.579858,64.272858,152.742606" />
<polygon fill="#343a36" fill-opacity="0.709804" points="197.978370,62.535799,185.008612,73.674077,199.482713,58.874291,230.982728,68.595770" />
<polygon fill="#25150a" fill-opacity="0.505882" points="92.273115,158.465858,67.272625,175.000000,74.078052,152.363738,36.449054,157.352623" />
<polygon fill="#291f00" fill-opacity="0.247059" points="82.338167,64.162575,80.538067,17.042842,82.222023,10.393800,83.724814,33.335252" />
<polygon fill="#2c4358" fill-opacity="0.933333" points="166.739816,55.561070,164.041119,96.830757,166.351686,98.874855,169.026618,85.770885" />
<polygon fill="#fffff8" fill-opacity="0.580392" points="168.480453,19.020469,168.714312,44.065779,171.266251,36.096088,170.446720,20.018283" />
<polygon fill="#0f1817" fill-opacity="0.866667" points="82.982105,154.581948,103.486112,175.000000,76.629685,150.082717,89.154671,101.059149" />
<polygon fill="#1c2214" fill-opacity="0.635294" points="97.680273,141.243305,86.406842,175.000000,94.787418,156.389824,103.503885,164.468703" />
<polygon fill="#19344b" fill-opacity="0.615686" points="226.586638,136.396541,231.558114,87.002578,243.390897,90.148330,211.498889,110.263313" />
<polygon fill="#fdf4df" fill-opacity="0.266667" points="41.474909,64.609135,41.197477,48.219065,39.479668,67.795105,47.173036,78.339547" />
<polygon fill="#aea587" fill-opacity="0.713725" points="33.745229,6.277733,44.731089,-16.000000,-16.000000,21.159727,29.727311,-16.000000" />
<polygon fill="#fff8e8" fill-opacity="0.435294" points="215.528738,66.468917,213.508473,81.925650,213.660632,76.711786,216.960795,84.928142" />
<polygon fill="#48729c" fill-opacity="0.776471" points="191.240626,27.646440,218.896729,57.223311,196.930057,47.776504,194.292145,53.545291" />
<polygon fill="#f6f3e8" fill-opacity="0.647059" points="81.302432,115.251789,82.502958,110.923061,82.902172,92.535875,81.346716,89.386795" />
<polygon fill="#0f1d25" fill-opacity="0.972549" points="59.486036,108.722775,65.367822,81.355654,63.497780,137.298207,57.980800,150.477429" />
<polygon fill="#fff4e1" fill-opacity="0.329412" points="106.226302,108.803638,105.607120,112.399080,145.391372,107.163490,119.096307,108.464123" />
<polygon fill="#d7dad7" fill-opacity="0.713725" points="73.468551,54.760727,73.378753,21.888083,74.483035,18.759359,74.996164,67.072112" />
<polygon fill="#163047" fill-opacity="0.549020" points="97.433218,122.022647,92.791110,110.266068,91.925591,52.961460,92.569447,38.212575" />
<polygon fill="#31495f" fill-opacity="1.000000" points="242.416523,103.541597,242.132519,106.623307,252.561228,69.510647,240.273851,71.470317" />
<polygon fill="#202626" fill-opacity="0.396078" points="118.584594,116.919859,124.128709,63.362508,121.782432,117.629934,114.129433,109.202489" />
<polygon fill="#fef6e1" fill-opacity="0.239216" points="138.448068,44.445257,134.307463,18.010859,155.095768,11.450091,139.885495,12.157071" />
<polygon fill="#334e66" fill-opacity="0.509804" points="129.394211,25.124984,147.095356,23.668861,146.666820,51.723305,145.728586,27.402769" />
<polygon fill="#fdfdf1" fill-opacity="0.290196" points="56.138999,104.533205,59.438227,86.606354,57.243820,117.188067,56.187482,121.416831" />
<polygon fill="#f2c8b8" fill-opacity="0.105882" points="123.728011,147.872097,107.320061,158.849574,114.170235,143.177848,79.516155,156.652886" />
<polygon fill="#1c1501" fill-opacity="0.290196" points="209.226585,73.583275,210.777406,57.648608,214.122466,64.022926,213.566858,76.085415" />
<polygon fill="#121914" fill-opacity="0.372549" points="37.741336,101.422445,39.760681,1.025766,17.388512,16.704132,33.307900,7.576917" />
<polygon fill="#fcedd4" fill-opacity="0.372549" points="129.448034,43.105459,128.438494,42.673105,127.346315,15.184660,126.167387,47.869309" />
<polygon fill="#fbfcf8" fill-opacity="0.333333" points="101.599901,101.123932,97.293531,115.459975,101.852221,111.660458,102.750151,114.625285" />
<polygon fill="#e5eef6" fill-opacity="0.337255" points="171.811168,97.106224,168.541657,108.958912,165.920552,99.617836,179.673811,105.729542" />
<polygon fill="#818177" fill-opacity="0.439216" points="39.959615,159.539175,175.816150,166.246331,177.649185,132.304872,178.032133,174.308922" />
<polygon fill="#fdcf9a" fill-opacity="0.321569" points="141.227691,149.072387,139.052575,158.362991,142.110106,155.314625,147.682952,159.219196" />
<polygon fill="#fbf9f0" fill-opacity="0.458824" points="148.057781,108.572329,154.189873,104.059300,142.250693,103.947429,146.301398,94.967628" />
<polygon fill="#44709e" fill-opacity="0.509804" points="185.359408,89.593086,180.692805,58.568690,184.571540,-11.110045,189.511094,25.803876" />
<polygon fill="#0c0d02" fill-opacity="0.247059" points="101.628786,30.235741,103.340477,57.239757,104.978712,27.138300,104.732452,1.177784" />
<polygon fill="#f8f3e2" fill-opacity="0.333333" points="2.071206,101.951270,2.521177,106.730757,7.173170,83.720699,4.399242,85.637579" />
<polygon fill="#283942" fill-opacity="0.976471" points="54.338049,84.656265,62.129062,9.452638,55.263376,20.009870,54.185761,54.156769" />
<polygon fill="#627278" fill-opacity="0.537255" points="88.793379,12.347874,19.311468,8.409944,88.093188,16.940862,134.735424,14.472672" />
<polygon fill="#30577b" fill-opacity="0.870588" points="224.223612,46.351840,261.654663,11.476107,220.349054,16.651928,225.455270,18.651785" />
<polygon fill="#fab283" fill-opacity="0.164706" points="123.235289,156.873168,129.235651,157.843868,126.752095,138.846699,137.252883,148.423874" />
<polygon fill="#e2e4de" fill-opacity="0.984314" points="64.316235,57.683478,66.318603,67.018472,62.826857,62.884347,64.607795,17.401023" />
<polygon fill="#0f1a1c" fill-opacity="0.431373" points="191.672585,85.161130,219.181087,81.211682,216.678707,88.618066,245.030387,88.257158" />
<polygon fill="#eb704e" fill-opacity="0.200000" points="191.840940,104.029426,207.909041,127.541094,196.004111,116.380095,190.205622,119.262515" />
<polygon fill="#535950" fill-opacity="0.741176" points="215.274115,131.852936,220.847743,138.157690,224.882591,138.036635,228.416191,132.224785" />
<polygon fill="#dee0d9" fill-opacity="0.411765" points="42.735576,48.527623,43.077438,36.482699,39.265872,16.420748,41.537627,53.627423" />
<polygon fill="#071825" fill-opacity="0.349020" points="147.825800,133.058268,147.787422,70.653238,149.446757,100.423346,135.798374,116.617101" />
<polygon fill="#fff6e2" fill-opacity="0.298039" points="158.868016,20.731419,154.288415,11.146815,162.008656,22.460289,157.419642,57.459024" />
<polygon fill="#fff2dc" fill-opacity="0.298039" points="105.262640,45.870560,101.946313,44.777741,107.221380,51.804977,104.437595,8.639570" />
<polygon fill="#46637e" fill-opacity="0.709804" points="76.066632,23.288663,74.605409,63.927570,81.990139,59.616546,77.594775,16.200260" />
<polygon fill="#bbf0ed" fill-opacity="0.137255" points="175.051465,139.648161,174.505558,140.166178,185.713693,143.819361,202.165255,141.966794" />
<polygon fill="#010100" fill-opacity="0.533333" points="100.831726,175.000000,132.445628,174.180868,117.491497,146.502298,118.370299,159.226950" />
<polygon fill="#101e26" fill-opacity="0.654902" points="17.972909,103.975202,79.953197,62.727618,19.067491,92.189270,4.094024,85.371394" />
<polygon fill="#0f181a" fill-opacity="1.000000" points="163.245649,109.147633,118.844730,116.158497,108.327044,111.587865,107.499294,118.979687" />
<polygon fill="#fefdf7" fill-opacity="0.662745" points="220.241618,78.487813,221.067161,77.209618,222.461362,70.493919,222.851431,83.960233" />
<polygon fill="#fb9064" fill-opacity="0.270588" points="61.933913,153.759502,65.183102,150.886799,83.941619,175.000000,69.937075,158.301395" />
<polygon fill="#0b2130" fill-opacity="0.529412" points="79.695363,111.921444,81.131906,80.161008,75.596342,90.227751,79.543880,164.675065" />
<polygon fill="#264058" fill-opacity="0.690196" points="111.586513,105.146075,114.332989,107.990711,115.935313,82.339598,109.004769,70.954420" />
<polygon fill="#fffff8" fill-opacity="0.321569" points="219.212632,79.484496,197.357165,78.056411,201.007525,63.073739,199.411838,80.729286" />
<polygon fill="#285e9d" fill-opacity="0.121569" points="12.204000,110.623725,96.497440,82.665740,150.602295,60.980011,77.541029,66.039803" />
<polygon fill="#fef599" fill-opacity="0.658824" points="117.743758,175.000000,96.471070,158.850354,48.674154,175.000000,140.161581,161.916058" />
<polygon fill="#122027" fill-opacity="0.984314" points="32.535485,132.733775,48.280104,158.694884,72.525720,113.309091,68.892515,132.908820" />
<polygon fill="#16242d" fill-opacity="0.796078" points="172.010427,103.388496,162.158318,122.522786,156.314288,105.156652,180.344104,112.768086" />
<polygon fill="#00080b" fill-opacity="0.505882" points="237.126111,125.515863,271.000000,127.682914,226.097339,135.700278,241.966571,103.490724" />
<polygon fill="#345779" fill-opacity="0.392157" points="87.352016,5.194299,29.497231,10.574418,76.745417,-16.000000,114.619046,-13.040575" />
<polygon fill="#000a00" fill-opacity="0.486275" points="253.051401,128.235378,271.000000,93.072606,249.239161,76.610162,264.073876,64.729237" />
<polygon fill="#b56450" fill-opacity="0.537255" points="252.292998,89.510906,243.687540,125.544757,246.529004,126.734031,254.128042,88.889408" />
<polygon fill="#1b292d" fill-opacity="0.549020" points="71.934815,61.234246,69.772968,28.711015,71.813423,11.529043,71.954237,28.229347" />
<polygon fill="#fafbf8" fill-opacity="0.101961" points="184.343224,50.207912,138.431386,69.197037,129.764290,67.516924,172.326017,53.959991" />
<polygon fill="#18221a" fill-opacity="0.482353" points="110.433355,160.936719,136.569468,140.796022,106.320828,175.000000,103.692796,120.467307" />
<polygon fill="#cfcfc8" fill-opacity="0.596078" points="198.581203,79.353549,197.531236,74.773366,194.068305,82.571811,196.239876,82.983013" />
<polygon fill="#727057" fill-opacity="0.670588" points="219.735181,63.413144,248.219953,68.011200,204.827142,54.409769,186.305694,50.523215" />
<polygon fill="#263d50" fill-opacity="0.360784" points="16.599802,6.611683,35.411489,11.358923,31.064408,77.911345,25.648095,77.608956" />
<polygon fill="#fff5e0" fill-opacity="0.239216" points="96.487497,62.004546,96.165519,36.096246,97.551330,-0.138857,93.137097,33.305593" />
<polygon fill="#fff7e6" fill-opacity="0.301961" points="205.977789,74.830324,213.956913,85.398075,208.091101,68.158747,207.154968,65.292510" />
<polygon fill="#fff9eb" fill-opacity="0.415686" points="122.420586,112.047821,128.371956,107.196733,125.056175,103.565915,125.718201,86.047241" />
<polygon fill="#fffef8" fill-opacity="0.431373" points="162.795902,70.801439,161.270818,64.046651,159.656185,72.891988,161.640886,96.175639" />
<polygon fill="#3f5970" fill-opacity="0.662745" points="109.024818,20.454104,94.061594,13.118057,87.497624,64.339529,85.888950,12.160160" />
<polygon fill="#d37767" fill-opacity="0.427451" points="173.812263,114.310378,178.978092,113.434192,181.147149,121.837872,174.068136,114.621025" />
<polygon fill="#0e232a" fill-opacity="0.537255" points="224.265781,130.351350,258.121603,133.104115,259.855243,167.249976,231.178574,175.000000" />
<polygon fill="#0b0e06" fill-opacity="0.749020" points="33.067752,174.527959,14.676017,146.259978,46.772006,175.000000,31.313400,141.717302" />
<polygon fill="#334856" fill-opacity="0.937255" points="43.653228,16.512493,42.745327,68.988279,51.446017,76.108590,48.509567,61.581973" />
<polygon fill="#fffffa" fill-opacity="0.270588" points="109.282329,81.970406,110.413972,56.492856,109.202105,114.621085,107.646709,80.053998" />
</g>
</svg>