<svg xmlns="http://www.w3.org/2000/svg" version="1.1" width="1024" height="640">
<rect x="0" y="0" width="1024" height="640" fill="#576069" />
<g transform="scale(1.000000) translate(0.5 0.5)">
<polygon fill="#b7e6f3" fill-opacity="0.501961" points="-7.472257,537.034096,583.385862,235.833058,228.354765,-3.980925,-16.000000,-0.597946" />
<polygon fill="#0f0000" fill-opacity="0.501961" points="783.044406,0.785530,1039.000000,-1.407678,1039.000000,537.655538,462.660366,604.675636" />
<polygon fill="#ffffff" fill-opacity="0.501961" points="626.183820,60.250956,248.825376,509.136270,371.310764,655.000000,410.424840,405.585313" />
<polygon fill="#ff4b1c" fill-opacity="0.501961" points="672.994101,113.820449,889.161308,321.140512,963.032118,540.338667,956.237067,563.184485" />
<polygon fill="#000000" fill-opacity="0.501961" points="263.840128,493.787708,396.453345,295.578551,448.983986,228.405429,159.073433,476.629091" />
<polygon fill="#6ddeff" fill-opacity="0.501961" points="781.892591,220.399055,823.009225,96.308270,854.884410,84.579559,880.056700,285.757111" />
<polygon fill="#000000" fill-opacity="0.501961" points="874.602357,393.412602,611.503523,336.280725,535.965949,655.000000,697.873916,653.671008" />
<polygon fill="#e0fffc" fill-opacity="0.501961" points="24.831474,539.078312,158.551486,325.782093,144.283100,572.533197,104.591287,592.789883" />
<polygon fill="#00000b" fill-opacity="0.501961" points="220.952942,212.911284,108.980645,402.019090,-16.000000,608.403089,94.703046,334.801493" />
<polygon fill="#ffffff" fill-opacity="0.501961" points="219.317133,78.812461,284.432126,-16.000000,-16.000000,3.319611,129.845305,145.006752" />
<polygon fill="#ffe1ff" fill-opacity="0.501961" points="522.553518,216.779736,418.523177,256.318851,640.772242,67.320964,779.373442,-16.000000" />
<polygon fill="#ffffff" fill-opacity="0.501961" points="387.066633,638.931545,338.100765,655.000000,304.046836,629.070079,382.238346,297.154392" />
<polygon fill="#ffffff" fill-opacity="0.501961" points="172.276409,555.026289,185.250244,487.896872,281.947213,496.875947,197.038406,565.543878" />
<polygon fill="#000012" fill-opacity="0.501961" points="319.890969,513.114169,121.030350,594.546269,174.280256,655.000000,318.016219,597.018142" />
<polygon fill="#490000" fill-opacity="0.501961" points="845.702689,-16.000000,608.487894,167.453935,615.657546,270.971458,956.042151,-5.847698" />
<polygon fill="#e1ffff" fill-opacity="0.501961" points="866.481704,546.460915,927.320945,535.003431,943.570179,603.904058,876.113033,588.423013" />
<polygon fill="#000000" fill-opacity="0.501961" points="994.126944,389.409404,919.142866,654.578659,1024.544980,655.000000,1028.470839,416.134703" />
<polygon fill="#0a3d5c" fill-opacity="0.501961" points="351.206653,183.831739,439.906315,224.143010,636.786366,-16.000000,367.760168,59.701741" />
<polygon fill="#000000" fill-opacity="0.501961" points="830.001131,655.000000,780.929957,655.000000,864.094749,361.996241,911.341746,475.503117" />
<polygon fill="#000000" fill-opacity="0.501961" points="316.009094,87.894019,412.484652,-16.000000,296.394548,66.943667,223.958057,213.645900" />
<polygon fill="#0daeff" fill-opacity="0.501961" points="606.922557,389.347922,462.449966,403.673976,501.798620,338.729446,617.341439,337.057173" />
<polygon fill="#ffe2aa" fill-opacity="0.501961" points="234.695505,212.304488,205.539720,320.253792,309.881785,280.703904,354.274564,44.975834" />
<polygon fill="#000000" fill-opacity="0.501961" points="504.050695,343.584690,642.460474,319.480046,526.545047,244.372103,460.752419,312.236781" />
<polygon fill="#000013" fill-opacity="0.501961" points="490.177136,558.683099,376.867124,530.368672,397.275698,645.077898,473.948987,648.782423" />
<polygon fill="#ca3c00" fill-opacity="0.501961" points="627.599994,-3.143762,658.006866,-8.091785,677.100850,40.159806,492.871445,187.569826" />
<polygon fill="#75c9ff" fill-opacity="0.501961" points="738.813986,254.048510,582.348924,275.515604,642.272589,293.754761,764.188817,284.997785" />
<polygon fill="#22445e" fill-opacity="0.501961" points="274.609846,74.429121,182.565467,172.502295,141.685948,634.941329,204.398606,254.205107" />
<polygon fill="#ffe7f6" fill-opacity="0.501961" points="773.987053,29.961588,814.834625,-5.713438,725.162606,12.887548,665.963370,64.235129" />
<polygon fill="#120000" fill-opacity="0.501961" points="850.159026,290.588932,1035.157643,204.585407,968.395932,523.253710,885.131828,337.018064" />
<polygon fill="#000018" fill-opacity="0.501961" points="536.125771,409.153660,441.924903,377.849281,404.273270,421.863659,509.373670,494.090356" />
<polygon fill="#ff4d27" fill-opacity="0.501961" points="901.574777,50.614794,893.027431,31.154200,739.599295,125.200039,682.747334,164.660774" />
<polygon fill="#68bbfb" fill-opacity="0.501961" points="482.891198,586.254526,485.373785,623.969110,583.894428,625.081234,570.256733,582.677689" />
<polygon fill="#e5ffff" fill-opacity="0.501961" points="190.115778,437.584075,297.030857,357.668207,334.330345,305.796730,197.544577,360.073939" />
<polygon fill="#000000" fill-opacity="0.501961" points="316.836852,442.052534,343.369334,404.083784,348.739271,320.993546,169.486607,477.667816" />
<polygon fill="#f9e5ff" fill-opacity="0.501961" points="318.389926,477.266888,360.331658,339.286730,493.591357,182.893881,315.996286,540.654726" />
<polygon fill="#ff6a2f" fill-opacity="0.501961" points="859.635317,297.491505,906.415396,413.875222,681.961193,160.230685,722.833061,164.422967" />
<polygon fill="#a1fdf7" fill-opacity="0.501961" points="758.981826,45.647311,689.135959,87.810785,471.506509,252.690826,619.297345,159.929267" />
<polygon fill="#f17500" fill-opacity="0.501961" points="906.757121,-16.000000,1020.737620,107.216718,1039.000000,167.285731,954.093423,70.514327" />
<polygon fill="#5eb0e0" fill-opacity="0.501961" points="439.949217,132.351971,431.235045,-16.000000,401.054261,-0.754926,313.322286,92.127574" />
<polygon fill="#000000" fill-opacity="0.501961" points="652.238367,-8.041552,677.637017,51.156007,691.887357,27.545676,788.835973,-16.000000" />
<polygon fill="#8bbecc" fill-opacity="0.501961" points="792.898949,538.903347,803.608483,498.283920,703.797831,651.970202,807.994721,606.046489" />
<polygon fill="#ff462c" fill-opacity="0.501961" points="968.052257,562.737855,895.163546,349.514167,911.937804,510.899309,918.858590,548.423080" />
<polygon fill="#004162" fill-opacity="0.501961" points="309.810595,289.590300,319.730796,285.002645,320.699164,201.528008,397.497569,237.624269" />
<polygon fill="#ff283f" fill-opacity="0.501961" points="724.478628,115.397513,690.016889,123.344248,802.516917,56.209091,847.040398,43.360591" />
<polygon fill="#d10709" fill-opacity="0.501961" points="979.861025,441.440425,892.694392,296.278409,891.270878,296.636271,1004.263631,399.425177" />
<polygon fill="#fbffff" fill-opacity="0.501961" points="431.077308,378.232364,319.231482,609.806247,337.615370,497.726635,433.369233,345.155539" />
<polygon fill="#ffbe00" fill-opacity="0.501961" points="463.037307,122.793219,487.831445,143.006737,561.918011,148.083116,532.311054,126.165887" />
<polygon fill="#b3dbec" fill-opacity="0.501961" points="163.315645,271.285851,89.136116,118.039048,61.531658,215.949036,118.026675,342.802462" />
<polygon fill="#ffffff" fill-opacity="0.501961" points="201.410214,562.571519,168.517716,558.974725,200.702740,510.416730,269.253726,504.716528" />
<polygon fill="#0e111f" fill-opacity="0.501961" points="544.123922,129.986564,440.231482,120.775417,442.334015,-0.769112,570.795308,78.942967" />
<polygon fill="#9f770e" fill-opacity="0.501961" points="515.982889,335.343891,525.574804,230.780020,566.561176,196.441858,584.137743,251.717652" />
<polygon fill="#234155" fill-opacity="0.501961" points="875.429236,403.187220,833.871518,470.428693,765.038139,248.563204,836.865512,333.288485" />
<polygon fill="#000008" fill-opacity="0.501961" points="28.657413,534.589587,-16.000000,617.645873,6.856476,518.525136,121.605098,375.120595" />
<polygon fill="#003e6f" fill-opacity="0.501961" points="256.332963,494.862415,295.081625,478.905197,315.100398,463.592208,315.186311,508.259005" />
<polygon fill="#9dffcd" fill-opacity="0.501961" points="534.887146,418.004271,543.409201,479.339602,446.072405,541.146236,501.671539,526.611754" />
<polygon fill="#8ba7b6" fill-opacity="0.501961" points="362.296403,-16.000000,186.080106,18.539709,289.349364,85.548265,331.940220,21.794123" />
<polygon fill="#c5e6fd" fill-opacity="0.501961" points="473.238486,33.973253,511.275376,28.149292,594.022194,82.165940,483.979877,-4.655721" />
<polygon fill="#000000" fill-opacity="0.501961" points="686.465221,99.299355,630.852616,150.172052,602.036746,182.359036,711.374069,164.083807" />
<polygon fill="#00001b" fill-opacity="0.501961" points="822.045893,608.159478,777.972739,644.545641,1036.552198,655.000000,1039.000000,606.323980" />
<polygon fill="#000000" fill-opacity="0.501961" points="719.735348,65.241362,766.435014,27.193943,684.424302,64.797621,648.659141,116.252825" />
<polygon fill="#000009" fill-opacity="0.501961" points="465.262890,529.707760,378.835917,484.822992,605.719178,515.585243,594.601395,433.262307" />
<polygon fill="#ed0013" fill-opacity="0.501961" points="922.704373,23.578583,904.659267,7.685524,1039.000000,34.555408,917.892140,43.228274" />
<polygon fill="#000000" fill-opacity="0.501961" points="882.868509,406.680061,781.492221,546.751236,913.589566,528.347083,901.494367,435.551871" />
<polygon fill="#2b6882" fill-opacity="0.501961" points="27.628123,360.434218,72.957974,281.043055,160.540531,374.215566,147.838329,381.014469" />
<polygon fill="#000000" fill-opacity="0.501961" points="344.630470,310.597949,415.268190,261.804761,384.519486,317.939105,320.290126,357.723346" />
<polygon fill="#a2ddff" fill-opacity="0.501961" points="-8.027699,55.320266,-16.000000,225.276776,16.139480,243.321892,59.054724,74.920605" />
<polygon fill="#46728a" fill-opacity="0.501961" points="144.626290,244.053078,112.138265,206.722258,241.893874,85.059762,215.454553,229.731101" />
<polygon fill="#004434" fill-opacity="0.501961" points="397.310369,385.755963,421.611139,337.403034,491.014489,413.252312,458.364499,318.515420" />
<polygon fill="#a6e8ff" fill-opacity="0.501961" points="881.542437,537.910096,938.075064,558.844685,951.755948,603.140580,854.834590,570.999757" />
<polygon fill="#55c2c8" fill-opacity="0.501961" points="381.185539,494.708907,388.219756,525.752671,470.861386,563.210019,505.035212,556.671090" />
<polygon fill="#b4dad2" fill-opacity="0.501961" points="863.221523,421.629291,768.649738,563.514695,825.886591,464.631289,831.433497,444.477190" />
<polygon fill="#000000" fill-opacity="0.501961" points="400.053973,594.058073,376.248336,655.000000,621.421576,651.700577,476.235866,626.914231" />
<polygon fill="#503da4" fill-opacity="0.501961" points="412.905789,324.938944,403.040052,333.207866,408.566808,303.889477,504.042646,211.721328" />
<polygon fill="#000000" fill-opacity="0.501961" points="659.925683,654.038533,697.720186,655.000000,748.365492,580.653857,654.134703,518.874018" />
<polygon fill="#ffffff" fill-opacity="0.501961" points="596.196416,133.917562,555.925820,134.951316,650.936094,69.451347,663.981697,83.522840" />
<polygon fill="#000000" fill-opacity="0.501961" points="805.435267,165.891925,779.095399,210.319000,727.023984,168.863948,809.732835,92.541833" />
<polygon fill="#000000" fill-opacity="0.501961" points="85.996244,647.985371,37.621521,565.955994,53.156045,559.859974,107.686428,655.000000" />
<polygon fill="#a5ddfd" fill-opacity="0.501961" points="733.486733,270.987730,659.924226,288.218023,571.756531,244.689705,581.493390,274.471554" />
<polygon fill="#000003" fill-opacity="0.501961" points="255.905908,138.846909,399.316621,-16.000000,286.641313,126.242469,279.163636,181.500985" />
<polygon fill="#001e32" fill-opacity="0.501961" points="596.572451,255.663505,582.889347,191.656570,667.585961,186.641227,680.635538,276.814182" />
<polygon fill="#000000" fill-opacity="0.501961" points="502.004279,129.710813,486.423201,173.485138,500.512604,189.395076,529.396296,148.869256" />
<polygon fill="#fa0e34" fill-opacity="0.501961" points="761.891229,261.143856,644.778319,151.809792,735.902513,248.426947,820.750475,333.961041" />
<polygon fill="#010000" fill-opacity="0.501961" points="577.845048,24.318074,487.785831,5.705662,598.171240,-16.000000,608.437639,24.323756" />
<polygon fill="#003217" fill-opacity="0.501961" points="677.308985,132.988504,628.030363,146.494273,575.689398,172.490820,608.534767,129.667283" />
<polygon fill="#fff5ff" fill-opacity="0.501961" points="388.968852,572.681970,321.893433,596.379682,313.274360,655.000000,385.681895,649.051923" />
<polygon fill="#ff9e2d" fill-opacity="0.501961" points="676.491823,-16.000000,552.916104,98.140319,552.605844,144.908614,578.845628,100.335006" />
<polygon fill="#ff2426" fill-opacity="0.501961" points="910.475737,14.277913,855.410309,-10.223198,752.302309,20.467303,730.076591,-8.986838" />
<polygon fill="#186674" fill-opacity="0.501961" points="380.081563,497.178584,404.430989,422.112988,482.711070,456.973258,450.022661,500.040497" />
<polygon fill="#000002" fill-opacity="0.501961" points="730.333606,423.805456,488.183482,586.502388,588.939961,389.407610,610.951617,367.292017" />
<polygon fill="#ecfffc" fill-opacity="0.501961" points="140.089820,564.093612,125.058869,583.717162,76.199393,578.280178,146.877812,518.422148" />
<polygon fill="#000000" fill-opacity="0.501961" points="174.367599,292.507503,197.094405,243.345238,118.992096,358.394316,87.651803,432.890188" />
<polygon fill="#329dff" fill-opacity="0.501961" points="546.613623,404.384777,468.744183,396.428876,555.124151,329.254206,617.843338,355.419132" />
<polygon fill="#154871" fill-opacity="0.501961" points="760.678461,264.417486,576.558205,317.268301,748.717861,339.562146,808.363054,367.802598" />
<polygon fill="#54919b" fill-opacity="0.501961" points="69.824810,386.939718,21.090883,505.485850,150.894948,281.000452,127.033787,282.358759" />
<polygon fill="#000000" fill-opacity="0.501961" points="813.831564,6.816621,661.029512,132.058601,835.829053,41.039214,977.524752,28.111058" />
<polygon fill="#00000b" fill-opacity="0.501961" points="575.574575,119.390136,609.081262,93.509488,603.474689,77.319194,572.760648,106.708957" />
<polygon fill="#000000" fill-opacity="0.501961" points="524.278372,327.460173,574.887215,268.684477,618.894551,364.686056,626.123908,339.372575" />
<polygon fill="#ff100f" fill-opacity="0.501961" points="1006.327249,314.211777,1039.000000,285.451532,964.605409,317.579776,915.140534,298.317265" />
<polygon fill="#000d1f" fill-opacity="0.501961" points="478.656544,403.405898,464.240736,486.376248,594.539328,385.046750,550.328785,402.359016" />
<polygon fill="#284651" fill-opacity="0.501961" points="139.304577,481.558119,232.192351,410.186800,181.555351,430.941983,74.166707,529.191023" />
<polygon fill="#759499" fill-opacity="0.501961" points="193.375605,556.290069,232.376672,648.349016,276.302613,615.322191,216.967522,590.039559" />
<polygon fill="#ffffff" fill-opacity="0.501961" points="266.676098,542.723398,254.953141,513.143503,282.709463,498.283758,299.709465,516.500230" />
<polygon fill="#000000" fill-opacity="0.501961" points="460.383760,-16.000000,429.803525,65.715165,475.817886,167.918263,450.856831,69.984045" />
<polygon fill="#ffffff" fill-opacity="0.501961" points="11.701783,-16.000000,81.997018,33.996038,36.313667,55.144168,-16.000000,24.611528" />
<polygon fill="#000309" fill-opacity="0.501961" points="288.730376,626.596092,278.713320,547.315697,247.966169,529.069522,210.333832,556.655404" />
<polygon fill="#ff2138" fill-opacity="0.501961" points="883.873912,34.599535,904.062810,38.063259,758.147190,78.468235,826.112805,49.286973" />
<polygon fill="#5a91d6" fill-opacity="0.501961" points="327.227050,574.412112,310.945127,448.031894,318.462247,650.737692,283.030856,576.413119" />
<polygon fill="#bcff9c" fill-opacity="0.501961" points="530.165707,437.919480,500.634807,536.305300,562.214789,407.461140,547.769723,420.368408" />
<polygon fill="#518fc9" fill-opacity="0.501961" points="807.178528,107.199829,799.982964,233.976606,878.573436,243.740213,857.675268,86.232546" />
<polygon fill="#397380" fill-opacity="0.501961" points="536.061412,212.378793,489.538972,263.679272,444.380051,309.519470,453.613378,286.280535" />
<polygon fill="#1f3856" fill-opacity="0.501961" points="689.468784,519.834448,750.235715,467.032426,755.082754,407.110797,553.111017,579.283334" />
<polygon fill="#6db0d4" fill-opacity="0.501961" points="445.333915,214.839268,414.719473,36.042973,454.550919,139.827667,499.247212,188.034472" />
<polygon fill="#499ed6" fill-opacity="0.501961" points="92.207417,130.459251,65.198175,189.579851,15.819634,127.832713,63.759231,64.181284" />
<polygon fill="#000000" fill-opacity="0.501961" points="1039.000000,130.472932,1020.370326,172.515364,1039.000000,27.874537,969.174599,50.697938" />
<polygon fill="#49637d" fill-opacity="0.501961" points="173.477337,507.487483,125.409159,530.162529,180.284136,412.773335,230.345778,201.183098" />
<polygon fill="#83a6b7" fill-opacity="0.501961" points="749.191643,573.694360,737.916318,560.994269,794.074156,537.460475,799.674660,566.326086" />
<polygon fill="#c6bddd" fill-opacity="0.501961" points="617.415365,162.367246,567.455006,188.382707,471.606291,260.916469,525.816627,160.830780" />
<polygon fill="#000006" fill-opacity="0.501961" points="548.662079,264.074730,545.076160,284.405398,452.826225,332.535420,480.327730,291.566117" />
<polygon fill="#001126" fill-opacity="0.501961" points="872.853926,241.250505,905.043187,22.007506,1033.188391,160.390062,1027.864907,232.245633" />
<polygon fill="#000000" fill-opacity="0.501961" points="792.243512,531.885691,806.117985,605.914435,846.754034,623.352022,834.019307,467.367174" />
<polygon fill="#dfe9fa" fill-opacity="0.501961" points="285.560457,126.736011,315.480264,87.924439,340.726984,76.097356,366.306171,106.496063" />
<polygon fill="#e2f8fc" fill-opacity="0.501961" points="245.734178,96.267958,196.316482,78.547730,90.229983,139.799623,181.512220,-16.000000" />
<polygon fill="#d8ffff" fill-opacity="0.501961" points="415.610187,327.595011,493.206437,323.193751,470.862571,347.511083,443.203053,293.640860" />
<polygon fill="#ffecc0" fill-opacity="0.501961" points="155.638359,284.795866,170.028509,255.071382,189.347645,241.996988,83.276003,277.608510" />
<polygon fill="#fe632f" fill-opacity="0.501961" points="885.614629,378.628172,686.496981,165.474180,758.351082,192.779511,826.549819,260.154970" />
<polygon fill="#0238b3" fill-opacity="0.501961" points="388.190327,324.232072,354.290240,378.609745,333.813795,414.791432,362.355068,345.610805" />
<polygon fill="#000000" fill-opacity="0.501961" points="193.121350,567.308597,232.635613,642.022637,162.497635,640.411487,168.593521,553.635757" />
<polygon fill="#ff3423" fill-opacity="0.501961" points="663.034747,187.507071,759.574676,143.142519,644.322460,180.825385,664.908623,189.313624" />
<polygon fill="#000000" fill-opacity="0.501961" points="980.096099,456.486848,948.764764,580.808824,1039.000000,552.932711,1039.000000,393.746383" />
<polygon fill="#439cbe" fill-opacity="0.501961" points="-16.000000,633.667874,72.880872,655.000000,32.558722,585.941893,19.102194,553.403293" />
<polygon fill="#ff1434" fill-opacity="0.501961" points="756.809443,129.646009,777.178004,112.119369,708.567908,122.935980,699.035910,132.117004" />
<polygon fill="#285d77" fill-opacity="0.501961" points="967.182552,339.092124,968.516967,317.959971,1035.009370,325.727912,1024.546751,414.568677" />
<polygon fill="#000000" fill-opacity="0.501961" points="787.662335,521.871212,824.350410,376.037315,819.089410,363.006648,716.314644,353.071159" />
<polygon fill="#1e77a9" fill-opacity="0.501961" points="299.611685,453.173341,255.388089,494.800036,278.742301,437.001314,322.320802,434.143016" />
<polygon fill="#f0f3ff" fill-opacity="0.501961" points="675.724569,47.351529,707.363228,23.587689,758.243767,4.017259,749.053002,35.752979" />
<polygon fill="#120001" fill-opacity="0.501961" points="751.429863,-16.000000,661.228056,-2.007728,643.116584,69.231864,664.271018,59.634688" />
<polygon fill="#9a3390" fill-opacity="0.501961" points="554.626066,169.360260,642.841803,110.443856,572.120458,143.823746,522.862094,183.468835" />
<polygon fill="#fffed3" fill-opacity="0.501961" points="325.526653,188.578149,333.001217,176.565251,370.794864,199.499919,365.660599,214.333601" />
<polygon fill="#000000" fill-opacity="0.501961" points="531.353123,55.102694,605.442130,47.275676,606.883734,57.153378,603.929925,29.454002" />
<polygon fill="#fdd89f" fill-opacity="0.501961" points="316.464946,279.001948,216.678415,307.141438,236.015084,207.921347,320.109005,194.483378" />
<polygon fill="#000000" fill-opacity="0.501961" points="818.149037,249.321842,902.688793,303.802848,1039.000000,587.610746,869.033146,313.457458" />
<polygon fill="#0d3f61" fill-opacity="0.501961" points="334.173705,174.898316,407.111416,177.846896,335.765340,155.921920,310.584919,193.928925" />
<polygon fill="#000219" fill-opacity="0.501961" points="739.170720,220.752628,829.350209,351.142730,910.208408,461.335916,852.397992,358.296445" />
<polygon fill="#000010" fill-opacity="0.501961" points="326.804462,28.118240,368.269608,-8.806719,333.772953,33.254583,272.729392,118.287892" />
<polygon fill="#000000" fill-opacity="0.501961" points="933.136397,14.233576,871.221035,0.771325,1039.000000,-6.364537,1008.821405,27.304099" />
<polygon fill="#000005" fill-opacity="0.501961" points="187.630519,452.772910,339.846623,338.371800,275.051461,454.836870,172.514925,499.531621" />
<polygon fill="#162916" fill-opacity="0.501961" points="168.770935,457.596659,86.303763,522.147659,46.112283,551.439332,56.404015,537.796862" />
<polygon fill="#181c40" fill-opacity="0.501961" points="230.981169,206.997900,210.643686,283.934298,222.291774,255.310628,261.897178,130.237092" />
<polygon fill="#aacffc" fill-opacity="0.501961" points="536.532235,44.042258,617.024565,24.616702,563.545358,27.782559,544.482574,56.877182" />
<polygon fill="#78bae4" fill-opacity="0.501961" points="65.127124,369.306469,46.892806,339.297043,-16.000000,318.005314,48.476362,211.067163" />
<polygon fill="#b3c9c4" fill-opacity="0.501961" points="308.281918,356.908063,196.824182,446.619569,220.637256,299.534956,200.967494,433.522117" />
<polygon fill="#000000" fill-opacity="0.501961" points="920.979287,546.393601,905.120571,479.355979,879.331101,399.458369,806.764333,519.304194" />
<polygon fill="#132e36" fill-opacity="0.501961" points="313.917293,500.064230,259.806382,554.205979,254.859914,528.084618,306.529468,573.299745" />
<polygon fill="#17f9c9" fill-opacity="0.501961" points="394.314013,395.977983,417.149869,353.298428,472.448096,299.104635,469.779045,313.736827" />
<polygon fill="#cb368e" fill-opacity="0.501961" points="346.171186,584.996255,356.547094,528.447011,359.789885,540.892783,362.916319,591.044774" />
<polygon fill="#89ffdf" fill-opacity="0.501961" points="474.320235,522.423621,522.579601,499.233094,490.752875,533.058614,410.823409,533.341348" />
<polygon fill="#c9f3f3" fill-opacity="0.501961" points="91.480639,511.158020,149.144622,447.735519,53.939190,504.846787,19.382349,547.370656" />
<polygon fill="#f9f2f9" fill-opacity="0.501961" points="390.778636,521.621091,364.653947,601.047128,352.226161,410.183028,306.104082,446.816835" />
<polygon fill="#f94326" fill-opacity="0.501961" points="807.980264,297.997907,875.837931,322.314113,913.442853,392.201110,946.336255,486.227120" />
<polygon fill="#f43257" fill-opacity="0.501961" points="666.255090,21.970763,670.535689,82.826821,711.359022,51.744621,648.192237,61.634171" />
<polygon fill="#286a8f" fill-opacity="0.501961" points="360.087457,35.379214,474.830583,155.098190,394.869818,185.986037,370.829737,238.215413" />
<polygon fill="#39688f" fill-opacity="0.501961" points="434.390469,614.473993,387.024876,538.530039,451.770976,599.811750,575.750853,631.536149" />
<polygon fill="#00081c" fill-opacity="0.501961" points="717.251227,462.393156,494.971338,526.547614,504.114090,583.012078,543.986026,579.449218" />
<polygon fill="#000000" fill-opacity="0.501961" points="381.337398,543.925212,391.799553,523.154733,412.577283,604.507439,395.174702,612.198273" />
<polygon fill="#fdffff" fill-opacity="0.501961" points="434.222531,277.411323,516.746267,185.249949,412.021283,273.445358,383.443059,326.192224" />
<polygon fill="#23667e" fill-opacity="0.501961" points="3.661859,391.696596,45.940161,448.193784,21.246787,395.916718,140.674455,320.926045" />
<polygon fill="#f5efcc" fill-opacity="0.501961" points="59.598703,572.138281,123.821001,500.438338,147.399426,506.691058,72.450477,568.223092" />
<polygon fill="#4d80be" fill-opacity="0.501961" points="676.878391,195.440242,636.743352,214.133966,695.523530,217.215642,666.903819,233.521542" />
<polygon fill="#000000" fill-opacity="0.501961" points="237.875926,655.000000,263.697615,645.663050,286.358431,622.963753,309.511997,590.037914" />
<polygon fill="#bb3574" fill-opacity="0.501961" points="519.349448,217.389766,467.372185,250.298660,518.906084,204.234917,545.733574,194.309426" />
<polygon fill="#ff8129" fill-opacity="0.501961" points="768.027221,114.642962,857.643053,70.092485,880.934839,46.536977,818.885221,74.239823" />
<polygon fill="#98cae8" fill-opacity="0.501961" points="89.215744,196.696973,47.618149,19.834397,123.120483,120.362116,272.283026,48.694325" />
<polygon fill="#00011c" fill-opacity="0.501961" points="58.364092,171.789671,79.151688,146.699844,68.985795,137.411809,65.283123,188.866407" />
<polygon fill="#85db57" fill-opacity="0.501961" points="620.885469,330.648364,655.637636,335.572695,663.374799,327.896306,608.542387,317.474072" />
<polygon fill="#ff5e43" fill-opacity="0.501961" points="582.757492,177.185196,582.260327,185.065508,629.070922,191.442811,633.546986,181.590155" />
<polygon fill="#5992aa" fill-opacity="0.501961" points="134.828112,602.932534,131.352125,655.000000,89.040013,621.694987,63.767553,566.055715" />
<polygon fill="#bc7052" fill-opacity="0.501961" points="475.456877,204.210407,427.109758,251.311092,432.364849,253.546974,490.731851,204.307448" />
<polygon fill="#d1ffff" fill-opacity="0.501961" points="152.329603,454.603529,165.998545,394.275758,167.268835,369.210722,149.924958,384.801973" />
<polygon fill="#000000" fill-opacity="0.501961" points="625.032091,84.984749,614.853843,80.157734,621.487877,60.144212,634.296233,35.690300" />
<polygon fill="#214564" fill-opacity="0.501961" points="120.265317,588.008609,154.798290,655.000000,180.726434,521.467622,143.747671,568.468655" />
<polygon fill="#102e31" fill-opacity="0.501961" points="446.264797,337.829858,426.851099,383.787257,590.403822,311.153302,467.680463,343.870718" />
<polygon fill="#ffce0a" fill-opacity="0.501961" points="623.176512,48.962047,638.933700,-16.000000,605.508147,76.132800,612.081282,97.934635" />
<polygon fill="#436e90" fill-opacity="0.501961" points="944.561500,227.721854,914.672333,290.849569,909.735164,277.799170,922.955116,228.907415" />
<polygon fill="#3386e7" fill-opacity="0.501961" points="632.461031,628.381962,661.570200,615.472750,651.066720,655.000000,636.621485,655.000000" />
<polygon fill="#bdd9dd" fill-opacity="0.501961" points="560.509554,56.737342,589.476158,84.835966,558.434076,67.312569,532.282401,42.755717" />
<polygon fill="#335687" fill-opacity="0.501961" points="980.408789,538.057521,944.934721,615.247936,915.277569,609.740067,991.720377,510.952814" />
<polygon fill="#f4ffff" fill-opacity="0.501961" points="427.614171,322.226852,389.966067,326.103536,360.814949,370.028989,317.546871,482.072447" />
<polygon fill="#41bf9b" fill-opacity="0.501961" points="570.829182,203.313059,630.702603,211.370099,563.590918,190.385464,485.080086,256.555032" />
<polygon fill="#9a737e" fill-opacity="0.501961" points="310.438166,165.990811,272.272203,185.527639,276.927240,138.859431,293.185204,116.672206" />
<polygon fill="#79c761" fill-opacity="0.501961" points="761.759401,355.641171,812.883064,349.092105,840.027052,359.710084,764.228063,359.707172" />
<polygon fill="#d1ca9c" fill-opacity="0.501961" points="80.551376,375.013734,-16.000000,432.124169,60.965425,368.200492,17.679112,274.683010" />
<polygon fill="#ffff9c" fill-opacity="0.501961" points="442.217579,531.679181,439.213986,525.342831,376.068749,490.578880,388.787362,502.134428" />
<polygon fill="#c2e3ff" fill-opacity="0.501961" points="643.346383,120.478535,727.140785,77.217545,752.295875,55.332704,721.879186,68.268316" />
<polygon fill="#244157" fill-opacity="0.501961" points="140.346769,231.218532,175.500107,213.169355,171.386259,191.134302,138.512887,195.376239" />
<polygon fill="#000000" fill-opacity="0.501961" points="920.179470,266.045918,1039.000000,208.507846,1019.671236,292.643866,942.575520,304.853324" />
<polygon fill="#000000" fill-opacity="0.501961" points="649.216996,602.900519,535.685568,637.545390,559.823964,642.847542,746.866271,592.805289" />
<polygon fill="#000000" fill-opacity="0.501961" points="310.062109,362.237279,349.688526,378.929284,326.224492,432.453085,249.417352,407.054639" />
<polygon fill="#224258" fill-opacity="0.501961" points="-16.000000,574.494631,67.305781,464.976303,95.598960,482.717244,31.703665,477.467602" />
<polygon fill="#8197a2" fill-opacity="0.501961" points="234.810894,10.002921,240.308629,121.280579,330.555255,28.775302,361.726473,-16.000000" />
<polygon fill="#acd9ec" fill-opacity="0.501961" points="566.790703,360.194473,606.899340,344.950400,536.605219,345.455511,535.556574,356.456339" />
<polygon fill="#ddb180" fill-opacity="0.501961" points="345.726839,369.372677,341.770882,348.974137,409.229167,294.711479,402.299327,299.640293" />
<polygon fill="#000000" fill-opacity="0.501961" points="819.751497,76.046173,826.409809,54.559639,696.344691,129.352253,775.285043,105.206253" />
<polygon fill="#d9f8f5" fill-opacity="0.501961" points="242.334956,398.190405,196.984386,427.851321,203.540023,345.419658,287.080939,359.773125" />
<polygon fill="#d4ffff" fill-opacity="0.501961" points="450.122807,324.093135,526.012578,234.634018,450.810402,304.071427,374.366606,449.459779" />
<polygon fill="#60a2b9" fill-opacity="0.501961" points="498.153933,183.688577,295.222158,289.578993,259.482062,289.227385,305.813658,345.418175" />
<polygon fill="#03a45e" fill-opacity="0.501961" points="774.531872,36.952031,687.139408,89.404005,729.008865,55.109659,814.323068,2.408746" />
<polygon fill="#596c70" fill-opacity="0.501961" points="832.867436,409.141919,806.913919,433.133990,836.900001,353.581783,862.517235,404.443489" />
<polygon fill="#d51223" fill-opacity="0.501961" points="1039.000000,35.841283,1024.781204,22.835476,931.140920,22.267975,984.318441,40.136480" />
<polygon fill="#1e6f9f" fill-opacity="0.501961" points="35.012646,70.012550,56.193526,62.698037,-7.304535,32.634127,-16.000000,46.975525" />
<polygon fill="#000000" fill-opacity="0.501961" points="761.696148,545.582339,741.959245,326.785069,825.471047,442.751737,831.687391,463.041509" />
<polygon fill="#2e719a" fill-opacity="0.501961" points="-16.000000,391.466120,97.792262,322.429935,80.994773,262.690628,54.072376,333.578278" />
<polygon fill="#ff669a" fill-opacity="0.501961" points="474.915803,263.205718,431.361628,289.323028,403.067896,329.529180,486.905664,263.564770" />
<polygon fill="#7bbdff" fill-opacity="0.501961" points="535.481643,224.936500,536.575801,264.674520,540.116064,272.315437,551.079190,231.061216" />
<polygon fill="#4d6d82" fill-opacity="0.501961" points="661.143011,370.723628,652.834285,387.355620,704.384663,382.421141,703.637534,373.727975" />
<polygon fill="#086359" fill-opacity="0.501961" points="387.264035,396.244950,390.559511,407.296579,398.810148,403.370327,413.485689,370.192380" />
<polygon fill="#236b8c" fill-opacity="0.501961" points="-16.000000,393.665190,42.960616,413.686752,-6.900515,297.383334,57.985458,415.595313" />
<polygon fill="#cbe2c0" fill-opacity="0.501961" points="31.969195,477.613044,69.442427,421.010947,50.748694,407.251020,74.774696,393.345710" />
<polygon fill="#093855" fill-opacity="0.501961" points="52.824519,575.317957,77.650364,549.699466,25.367957,569.139503,73.271582,655.000000" />
<polygon fill="#070000" fill-opacity="0.501961" points="608.182556,-16.000000,522.060840,41.150250,542.645247,36.345849,604.206478,15.419139" />
<polygon fill="#35669c" fill-opacity="0.501961" points="632.544593,348.948853,613.764555,339.231527,747.955151,348.650418,716.755045,351.395802" />
<polygon fill="#3249ed" fill-opacity="0.501961" points="616.174283,86.987244,693.365336,33.886708,678.273196,52.391409,654.704720,69.951554" />
<polygon fill="#000000" fill-opacity="0.501961" points="726.249097,47.838887,758.920170,34.585025,678.937624,93.847064,643.504848,101.165066" />
<polygon fill="#8ab7dd" fill-opacity="0.501961" points="621.462213,249.638154,616.486332,242.498189,573.615626,229.619146,586.798925,243.391069" />
<polygon fill="#7fa9ce" fill-opacity="0.501961" points="608.559803,232.308901,574.705065,219.717293,589.491087,218.315861,624.244208,226.363063" />
<polygon fill="#000000" fill-opacity="0.501961" points="657.850198,254.081568,568.509663,246.866070,677.697637,268.778354,741.109194,235.941144" />
<polygon fill="#1eedb6" fill-opacity="0.501961" points="384.667667,504.073243,405.740500,456.387854,407.314536,421.314204,379.064196,479.205949" />
<polygon fill="#29421a" fill-opacity="0.501961" points="521.093661,261.591389,539.383026,212.792050,604.017893,257.637985,522.625549,217.604686" />
<polygon fill="#406a7f" fill-opacity="0.501961" points="97.691584,292.175795,141.089019,280.138539,118.705779,346.605097,110.115645,252.974405" />
<polygon fill="#1b445c" fill-opacity="0.501961" points="327.900590,260.611049,316.534911,170.335310,339.658730,225.501700,377.257808,209.601646" />
<polygon fill="#c68c14" fill-opacity="0.501961" points="580.196049,225.191027,567.206902,285.053240,554.289089,198.130139,546.633042,287.813727" />
<polygon fill="#6aa4c0" fill-opacity="0.501961" points="190.814582,226.317479,167.226056,99.169122,209.640668,74.414209,219.128989,182.075827" />
<polygon fill="#000000" fill-opacity="0.501961" points="662.519605,202.880106,626.879234,158.237207,735.079500,68.177450,617.480485,208.497771" />
<polygon fill="#367390" fill-opacity="0.501961" points="77.198112,397.650200,-16.000000,237.046007,60.190665,388.200237,8.815473,421.073791" />
<polygon fill="#ffca03" fill-opacity="0.501961" points="500.146358,144.208828,472.429461,123.572021,471.638726,124.682238,497.991105,119.358987" />
<polygon fill="#264e7c" fill-opacity="0.501961" points="797.409617,320.067888,773.210735,279.908115,593.316887,308.089371,577.807232,274.314622" />
<polygon fill="#6e8d9d" fill-opacity="0.501961" points="635.956204,542.308781,602.134742,502.598918,621.292085,542.582530,621.581105,546.251510" />
<polygon fill="#cee4fe" fill-opacity="0.501961" points="522.004587,204.994315,619.301323,163.221540,638.545094,145.613088,627.861733,147.406554" />
<polygon fill="#e2002f" fill-opacity="0.501961" points="632.178373,-13.246176,618.012902,-16.000000,599.223597,80.797228,605.596167,75.759257" />
<polygon fill="#00112b" fill-opacity="0.501961" points="607.311719,51.426730,581.752494,70.817852,563.735998,66.952460,584.850790,57.367879" />
<polygon fill="#fff1a6" fill-opacity="0.501961" points="93.107536,316.168113,96.778472,293.589695,115.624802,291.519038,120.501641,307.431094" />
<polygon fill="#ffa8c4" fill-opacity="0.501961" points="340.647853,467.401288,325.755682,516.702400,321.633300,560.475929,419.780888,326.765512" />
<polygon fill="#9fcbff" fill-opacity="0.501961" points="548.456949,21.125506,569.929504,8.952345,535.716766,21.124631,542.518986,25.782024" />
<polygon fill="#eef6f6" fill-opacity="0.501961" points="163.462887,146.633440,165.853646,110.598718,206.059015,41.320071,93.582777,79.432974" />
<polygon fill="#000000" fill-opacity="0.501961" points="575.112564,191.693119,619.443873,208.906375,656.484489,206.850953,572.025001,183.635470" />
<polygon fill="#f2472f" fill-opacity="0.501961" points="912.974492,527.019686,960.062108,561.673781,946.864252,484.682819,904.155541,395.199166" />
<polygon fill="#000000" fill-opacity="0.501961" points="961.079298,528.907510,1039.000000,504.345743,956.388976,395.636578,945.299661,483.334193" />
<polygon fill="#00000b" fill-opacity="0.501961" points="362.383172,38.549408,405.116503,-5.518816,387.249919,-16.000000,263.969400,146.278537" />
<polygon fill="#619cec" fill-opacity="0.501961" points="499.770034,198.796198,600.890551,113.067890,605.087912,115.341506,545.490098,171.559727" />
<polygon fill="#34485b" fill-opacity="0.501961" points="754.017810,413.746987,757.408035,437.082780,712.085888,510.134052,731.014897,391.427200" />
<polygon fill="#7eb7c6" fill-opacity="0.501961" points="296.630201,655.000000,307.934784,634.027572,310.084361,602.495037,254.421478,653.832277" />
<polygon fill="#add7ec" fill-opacity="0.501961" points="632.212877,286.365946,674.498194,282.958615,568.738493,260.856632,573.278413,267.176605" />
<polygon fill="#77b8fc" fill-opacity="0.501961" points="579.544682,49.938969,558.014943,63.515332,612.002143,52.766609,595.275834,47.876187" />
<polygon fill="#fff5dc" fill-opacity="0.501961" points="387.038972,231.520136,380.070811,203.129038,403.490565,215.120071,400.346380,226.663324" />
<polygon fill="#e5fe61" fill-opacity="0.501961" points="571.733126,404.695005,580.178977,398.785483,565.583504,424.379505,568.234399,402.502285" />
<polygon fill="#27537c" fill-opacity="0.501961" points="928.365090,607.828443,830.845210,556.044603,878.820021,602.183403,788.314183,655.000000" />
<polygon fill="#69a6af" fill-opacity="0.501961" points="32.416206,536.249373,142.262907,462.176497,18.537804,553.154525,52.272280,568.048376" />
<polygon fill="#96ccf4" fill-opacity="0.501961" points="201.362800,294.837165,237.228998,188.336611,272.596819,98.307395,221.743413,196.160800" />
<polygon fill="#5b7fa4" fill-opacity="0.501961" points="456.892569,103.079408,452.366682,34.219350,471.322699,114.365209,527.012094,233.417670" />
<polygon fill="#fff3d2" fill-opacity="0.501961" points="289.161592,244.027789,317.917384,281.797864,216.235934,295.686871,255.727578,313.089312" />
<polygon fill="#edffff" fill-opacity="0.501961" points="257.559603,499.057905,180.737585,533.094247,180.831023,567.292307,233.038730,539.420509" />
<polygon fill="#ed2a15" fill-opacity="0.501961" points="658.413773,-6.655390,627.848226,58.866532,633.610746,77.308406,671.696381,-13.873692" />
<polygon fill="#253a4e" fill-opacity="0.501961" points="202.751236,242.089053,171.372774,321.077860,160.574506,474.423410,183.342980,341.506919" />
<polygon fill="#2f809d" fill-opacity="0.501961" points="-3.904806,415.955673,16.456368,419.123424,9.728310,525.631512,-16.000000,490.964461" />
<polygon fill="#2e5a68" fill-opacity="0.501961" points="469.444737,384.715684,571.024584,422.478414,419.099914,397.468082,528.060112,319.516218" />
<polygon fill="#426e68" fill-opacity="0.501961" points="243.088209,319.544693,196.795575,345.787063,256.904829,283.257847,241.951322,283.799476" />
<polygon fill="#3c5366" fill-opacity="0.501961" points="245.835010,122.453352,242.785674,136.725989,341.245944,-14.397494,274.280993,74.410995" />
<polygon fill="#325a7a" fill-opacity="0.501961" points="807.362983,603.231538,793.070079,576.044091,744.083339,653.548204,784.996242,655.000000" />
<polygon fill="#000000" fill-opacity="0.501961" points="479.073116,28.507471,466.144325,20.988304,461.800000,56.868917,465.349555,99.179464" />
<polygon fill="#6f9fc5" fill-opacity="0.501961" points="443.573903,603.540483,567.456282,629.446317,594.302931,609.566864,561.842379,610.388361" />
<polygon fill="#5a7d9d" fill-opacity="0.501961" points="471.573874,83.098861,486.745395,127.824608,481.960288,80.981980,478.229288,9.058684" />
<polygon fill="#00030c" fill-opacity="0.501961" points="939.196053,617.988029,1039.000000,628.327255,930.722658,652.625503,879.939678,592.907922" />
<polygon fill="#000000" fill-opacity="0.501961" points="140.885406,573.244600,120.864560,588.018698,127.641425,603.627190,139.061186,597.194423" />
<polygon fill="#dcffff" fill-opacity="0.501961" points="921.986625,555.831829,883.711136,547.555702,878.274951,573.324822,927.655491,587.436150" />
<polygon fill="#000000" fill-opacity="0.501961" points="639.701133,233.842105,566.909254,227.804534,651.233152,247.833609,718.864990,227.016051" />
<polygon fill="#4871b1" fill-opacity="0.501961" points="703.467085,241.785280,665.792626,252.625901,634.206497,249.640579,704.648008,234.571923" />
<polygon fill="#000000" fill-opacity="0.501961" points="799.790445,435.108868,635.088408,558.838815,759.650663,514.235786,867.128970,404.604008" />
<polygon fill="#ecffff" fill-opacity="0.501961" points="390.357509,411.534437,436.899178,367.063789,361.021226,507.447476,376.761873,399.877274" />
<polygon fill="#0a1c26" fill-opacity="0.501961" points="553.223428,397.718634,532.956328,438.382819,484.811185,520.631242,534.766210,402.909130" />
<polygon fill="#bee2ff" fill-opacity="0.501961" points="242.573397,196.182147,249.466436,173.663944,267.725160,163.968616,280.601593,202.060344" />
<polygon fill="#09bd6a" fill-opacity="0.501961" points="584.275651,166.243633,664.433573,118.903094,700.613355,90.086640,673.502071,123.099908" />
<polygon fill="#4684a5" fill-opacity="0.501961" points="397.034706,198.377617,444.936331,122.367854,448.776772,240.425159,422.375545,262.158187" />
<polygon fill="#82bde1" fill-opacity="0.501961" points="-16.000000,352.614168,153.197298,208.241468,145.792052,209.104705,96.202805,200.743767" />
<polygon fill="#000511" fill-opacity="0.501961" points="422.743911,23.026509,450.833655,125.704121,503.069873,193.098960,476.509805,149.910597" />
<polygon fill="#f5e399" fill-opacity="0.501961" points="73.047868,404.665160,19.037816,440.520705,10.536900,436.130165,62.247235,398.389019" />
<polygon fill="#0b4eec" fill-opacity="0.501961" points="588.542815,331.141108,604.438919,378.077481,601.513962,338.237341,501.770427,338.621212" />
<polygon fill="#98ced7" fill-opacity="0.501961" points="388.170191,271.859361,203.208405,345.536690,197.338172,367.775085,271.927796,365.399722" />
<polygon fill="#f4eb1e" fill-opacity="0.501961" points="572.513318,138.790512,576.432299,73.104291,608.241979,53.786904,563.904159,104.453145" />
<polygon fill="#196ed0" fill-opacity="0.501961" points="454.092265,254.512183,492.850237,228.108761,442.004156,280.082218,408.205637,313.199936" />
<polygon fill="#e6d4ac" fill-opacity="0.501961" points="158.635506,330.111529,213.793577,233.388494,134.330898,358.164137,163.281243,344.373507" />
<polygon fill="#75593c" fill-opacity="0.501961" points="74.220846,226.740840,58.765587,245.273047,34.526487,203.208283,21.262015,224.818245" />
<polygon fill="#ffffff" fill-opacity="0.501961" points="342.896102,624.231606,352.629389,655.000000,315.914953,655.000000,342.539439,477.694419" />
<polygon fill="#000000" fill-opacity="0.501961" points="669.010302,223.897725,600.544678,222.583618,683.170413,207.972725,682.559634,214.434497" />
<polygon fill="#66b0c9" fill-opacity="0.501961" points="120.936215,381.064235,56.224333,487.248989,119.727726,457.422616,96.908672,439.705180" />
<polygon fill="#6993b4" fill-opacity="0.501961" points="532.786645,4.832093,586.882600,0.499098,522.537357,-1.617848,510.833556,17.977842" />
<polygon fill="#5681b8" fill-opacity="0.501961" points="687.185145,225.215925,663.850056,233.201311,619.027380,231.860487,686.563442,218.544480" />
<polygon fill="#060000" fill-opacity="0.501961" points="512.223512,26.778033,499.531668,101.327891,527.046505,9.206306,595.152399,-0.417943" />
<polygon fill="#005d91" fill-opacity="0.501961" points="320.092482,458.133324,311.471009,500.813961,291.919036,504.203976,283.914459,494.650711" />
<polygon fill="#ffffff" fill-opacity="0.501961" points="212.333099,304.157430,222.087234,305.251052,227.063912,322.948729,207.366645,323.284561" />
<polygon fill="#cb141e" fill-opacity="0.501961" points="948.840295,346.716493,897.842375,309.694641,923.913477,349.094588,983.535773,398.402944" />
<polygon fill="#7b4f1e" fill-opacity="0.501961" points="125.742132,523.588656,158.100842,498.616300,147.614144,514.616397,101.061770,553.594694" />
<polygon fill="#cfad5c" fill-opacity="0.501961" points="210.759796,281.040902,266.488810,257.228325,285.174620,261.475332,213.104865,301.706617" />
<polygon fill="#42576d" fill-opacity="0.501961" points="541.459722,495.265170,387.023897,499.436442,455.214715,431.065943,500.452795,484.400143" />
<polygon fill="#000000" fill-opacity="0.501961" points="1039.000000,479.511560,1011.267849,394.771057,918.462809,295.333443,999.390985,400.711907" />
<polygon fill="#000000" fill-opacity="0.501961" points="563.167013,198.676885,579.303064,213.924086,638.917948,227.300483,574.096723,202.157795" />
<polygon fill="#e52c23" fill-opacity="0.501961" points="708.862301,159.644632,761.243527,136.104104,714.824250,168.738516,645.595120,187.386915" />
<polygon fill="#7cbfe4" fill-opacity="0.501961" points="392.564528,-16.000000,442.772232,12.638286,367.424874,-10.150234,335.618314,35.744779" />
<polygon fill="#07275f" fill-opacity="0.501961" points="41.626167,165.250702,38.138567,145.706810,55.623974,151.316541,51.882400,162.809278" />
<polygon fill="#000000" fill-opacity="0.501961" points="745.883978,564.969773,704.893687,647.762113,656.885584,655.000000,682.902391,581.358608" />
<polygon fill="#ff3042" fill-opacity="0.501961" points="718.051239,118.541418,768.771091,86.055959,797.706701,61.919916,694.631073,119.130326" />
<polygon fill="#14354e" fill-opacity="0.501961" points="849.008689,75.866140,927.454541,48.353662,937.562039,111.811239,870.588273,192.102372" />
<polygon fill="#000000" fill-opacity="0.501961" points="450.693635,349.907939,493.377993,283.174006,439.051260,350.467794,436.204164,364.374882" />
<polygon fill="#000917" fill-opacity="0.501961" points="437.540532,655.000000,379.703781,558.735163,432.231909,548.398199,385.622556,521.827481" />
<polygon fill="#bbe7f6" fill-opacity="0.501961" points="52.481364,105.887478,40.660122,121.326950,17.599946,182.063480,135.952211,-16.000000" />
<polygon fill="#ffd507" fill-opacity="0.501961" points="541.790987,132.019202,509.466416,125.990963,518.749439,146.508360,559.279873,138.299137" />
<polygon fill="#d79d8b" fill-opacity="0.501961" points="297.907276,111.177805,273.138983,145.223834,366.836856,146.745199,356.386219,164.530849" />
<polygon fill="#121f33" fill-opacity="0.501961" points="549.899233,54.328890,553.608098,136.082634,499.235264,120.293780,501.249535,141.876810" />
<polygon fill="#690505" fill-opacity="0.501961" points="1007.284021,411.338295,984.192820,380.079444,978.260892,425.964869,1000.230628,463.070213" />
<polygon fill="#30507d" fill-opacity="0.501961" points="490.881394,532.923238,428.952360,536.835535,486.658620,586.712523,516.544133,586.381107" />
<polygon fill="#497094" fill-opacity="0.501961" points="495.599966,41.441281,494.008429,113.885987,503.408719,117.035668,502.004114,46.298598" />
<polygon fill="#000006" fill-opacity="0.501961" points="-16.000000,181.776032,1.133978,251.478197,10.601541,238.399673,-14.705839,237.656805" />
<polygon fill="#1d3672" fill-opacity="0.501961" points="928.467541,539.953272,956.488177,622.303033,1039.000000,558.986834,961.557748,582.797009" />
<polygon fill="#80a6b7" fill-opacity="0.501961" points="187.566483,617.400451,195.370020,616.609404,186.427525,601.207691,180.639005,613.645329" />
<polygon fill="#3a2300" fill-opacity="0.501961" points="518.061050,168.562184,545.921366,152.470793,508.410707,139.241780,478.161370,142.053660" />
<polygon fill="#ffffff" fill-opacity="0.501961" points="99.391822,260.584832,78.326537,272.358163,95.293379,286.423743,107.641118,274.353448" />
<polygon fill="#3a5465" fill-opacity="0.501961" points="518.939325,502.096144,537.951739,453.470156,565.170297,406.088630,546.287076,484.892196" />
<polygon fill="#a6c1d7" fill-opacity="0.501961" points="521.488746,26.624705,470.877556,26.596978,486.024913,-11.388482,529.840501,43.955586" />
<polygon fill="#000000" fill-opacity="0.501961" points="1039.000000,127.477843,964.575862,42.143859,995.790513,36.979343,1033.306133,73.463445" />
<polygon fill="#000206" fill-opacity="0.501961" points="65.122531,560.159515,46.624062,579.288184,106.167071,655.000000,42.963864,549.567467" />
<polygon fill="#84cef3" fill-opacity="0.501961" points="768.315575,19.879724,754.631274,41.867115,772.301212,34.920853,790.990485,9.482418" />
<polygon fill="#a7122a" fill-opacity="0.501961" points="594.644790,171.743834,704.176235,154.131119,728.205441,131.330388,665.594446,166.495458" />
<polygon fill="#b9dff8" fill-opacity="0.501961" points="708.138818,81.956753,681.362779,91.685021,657.651025,111.020235,637.454090,138.713808" />
<polygon fill="#eb1415" fill-opacity="0.501961" points="993.598215,315.793982,1039.000000,266.679562,1039.000000,296.427483,960.881613,314.563494" />
<polygon fill="#000000" fill-opacity="0.501961" points="707.396110,161.657599,650.494816,177.457396,632.364652,176.360602,779.562335,124.371704" />
<polygon fill="#32404f" fill-opacity="0.501961" points="209.128151,228.765373,236.883671,147.769812,171.307787,262.577010,196.000684,279.703181" />
<polygon fill="#e0f8ff" fill-opacity="0.501961" points="593.138364,140.754591,584.827782,160.062999,524.276488,198.770053,581.445426,146.895091" />
<polygon fill="#2b5dc7" fill-opacity="0.501961" points="309.181727,514.904787,320.378068,532.027674,321.683185,587.252468,311.175247,607.181167" />
<polygon fill="#007775" fill-opacity="0.501961" points="445.892709,348.698986,439.840002,341.477880,425.431850,330.620564,413.648774,347.891078" />
<polygon fill="#000000" fill-opacity="0.501961" points="797.072209,104.255285,798.963212,183.480919,763.199123,200.052429,735.945026,170.535970" />
<polygon fill="#256582" fill-opacity="0.501961" points="786.653280,369.012584,773.932850,369.653882,764.141750,377.183587,759.155284,342.270232" />
<polygon fill="#000000" fill-opacity="0.501961" points="440.545100,77.536438,463.864339,1.294243,485.645396,3.820222,450.484982,-16.000000" />
<polygon fill="#d48d08" fill-opacity="0.501961" points="518.458210,333.159278,520.733122,294.129816,528.391557,284.975233,529.590617,317.135620" />
<polygon fill="#000000" fill-opacity="0.501961" points="604.251088,78.352596,586.029032,89.556805,578.811484,110.853967,606.564468,95.620618" />
<polygon fill="#070000" fill-opacity="0.501961" points="681.910375,181.932941,661.101479,186.577994,691.412195,174.751925,797.921322,297.609772" />
<polygon fill="#122954" fill-opacity="0.501961" points="560.817443,605.492553,552.441281,622.112120,536.535566,571.565933,529.348613,493.104329" />
<polygon fill="#ffe492" fill-opacity="0.501961" points="31.402405,349.564892,-16.000000,355.096196,9.640936,362.311060,32.487429,332.856418" />
<polygon fill="#1b77e1" fill-opacity="0.501961" points="508.125088,408.059935,605.441750,338.609233,614.883549,364.052142,573.668418,394.856962" />
<polygon fill="#008ae0" fill-opacity="0.501961" points="50.969136,94.296075,52.472178,140.929226,68.772669,126.018437,30.123790,105.486441" />
<polygon fill="#e6f1ff" fill-opacity="0.501961" points="662.912400,86.104401,625.928458,106.959232,568.418747,120.919215,659.576308,64.793647" />
<polygon fill="#6d9ec0" fill-opacity="0.501961" points="190.490411,384.559068,218.180398,190.387855,164.226380,479.805498,176.071355,479.453117" />
<polygon fill="#4c424f" fill-opacity="0.501961" points="640.902743,101.620602,670.091274,96.025980,645.427777,123.890261,564.274508,181.270115" />
<polygon fill="#365876" fill-opacity="0.501961" points="154.479773,655.000000,190.201305,407.416120,147.522022,583.314699,123.956332,650.194933" />
<polygon fill="#7eadc5" fill-opacity="0.501961" points="421.186713,88.225792,397.900604,12.384380,406.076593,-16.000000,466.350645,216.291868" />
<polygon fill="#000817" fill-opacity="0.501961" points="917.989268,235.305796,883.649880,237.504593,878.998508,327.384131,894.277054,348.673804" />
<polygon fill="#f05089" fill-opacity="0.501961" points="573.679262,74.106363,559.572511,141.387418,551.954685,122.045204,556.728613,96.861211" />
<polygon fill="#000003" fill-opacity="0.501961" points="554.847178,316.741192,655.920671,364.865415,596.100126,318.548302,554.808317,270.342160" />
<polygon fill="#89e9fd" fill-opacity="0.501961" points="389.944589,527.118044,460.269175,536.384157,383.159207,520.803176,371.873433,585.670661" />
<polygon fill="#427498" fill-opacity="0.501961" points="433.238847,570.853831,435.214600,595.742916,406.787278,579.462638,395.508678,552.039305" />
<polygon fill="#c4e3f3" fill-opacity="0.501961" points="533.325248,158.040166,481.495826,205.633372,466.742725,161.967940,516.086292,209.261536" />
<polygon fill="#ccffb5" fill-opacity="0.501961" points="549.867701,429.097647,521.901433,458.542994,507.197116,494.352082,524.690283,479.542627" />
<polygon fill="#bad5c4" fill-opacity="0.501961" points="282.137691,583.629516,289.623948,586.618695,294.936174,575.917361,284.372133,570.525952" />
<polygon fill="#01056c" fill-opacity="0.501961" points="953.193758,486.838817,946.246690,480.511644,911.274068,367.287500,949.209238,451.069742" />
<polygon fill="#24475c" fill-opacity="0.501961" points="222.271028,512.039278,249.564825,489.285642,277.832560,500.719297,275.411666,442.119756" />
<polygon fill="#010104" fill-opacity="0.501961" points="718.537443,477.711058,696.058826,459.263279,654.888392,473.119012,637.643064,522.172447" />
<polygon fill="#caeaf4" fill-opacity="0.501961" points="37.103618,114.655256,-15.364590,130.896084,64.196752,71.530602,-16.000000,62.925939" />
<polygon fill="#3a597e" fill-opacity="0.501961" points="513.898199,45.069976,540.688927,125.486641,542.387297,44.830979,513.923252,119.539962" />
<polygon fill="#c68b0e" fill-opacity="0.501961" points="676.060815,202.035893,655.978145,177.591169,674.645174,192.598509,697.758766,220.474695" />
<polygon fill="#0a030a" fill-opacity="0.501961" points="339.484275,341.620511,384.015985,317.117880,408.048565,269.670159,355.206847,312.386907" />
<polygon fill="#73abdd" fill-opacity="0.501961" points="872.243141,588.040122,858.301162,544.737661,915.067780,607.697664,952.187552,581.807933" />
<polygon fill="#ffde7d" fill-opacity="0.501961" points="10.632820,375.557813,20.270648,385.101117,42.112475,355.370973,49.523397,367.563407" />
<polygon fill="#50697d" fill-opacity="0.501961" points="150.138523,171.616162,227.851100,193.839335,121.768285,184.457300,136.403542,148.507343" />
<polygon fill="#385679" fill-opacity="0.501961" points="717.562990,477.078236,690.541586,515.166596,742.447377,469.716730,678.802474,447.241111" />
<polygon fill="#000000" fill-opacity="0.501961" points="728.168485,354.430366,753.294469,402.687515,698.143356,374.114242,615.014703,352.120422" />
<polygon fill="#f6f1dc" fill-opacity="0.501961" points="153.271560,268.679383,120.887708,241.333097,149.897697,295.005658,132.882390,313.301313" />
<polygon fill="#233454" fill-opacity="0.501961" points="873.906510,536.880584,816.922383,582.480011,878.505549,600.058820,864.149020,579.384402" />
<polygon fill="#030b12" fill-opacity="0.501961" points="229.955328,545.774896,184.548780,592.947821,255.267333,517.366030,295.156261,613.146511" />
<polygon fill="#9acdfc" fill-opacity="0.501961" points="733.770322,269.238553,693.692033,274.276075,741.155186,256.114284,739.359301,265.875282" />
<polygon fill="#ce940c" fill-opacity="0.501961" points="577.465163,220.008461,561.823573,192.487474,566.025567,215.814947,570.977231,278.856972" />
<polygon fill="#8ecded" fill-opacity="0.501961" points="53.693348,203.694498,69.655635,115.815377,42.599147,195.395161,48.602908,269.712704" />
<polygon fill="#000707" fill-opacity="0.501961" points="837.294061,9.019006,699.505870,93.439060,683.941642,103.706939,717.236421,108.246161" />
<polygon fill="#1d97e7" fill-opacity="0.501961" points="479.299259,385.554786,512.593010,406.197377,541.205588,333.580287,483.926233,362.514483" />
<polygon fill="#000002" fill-opacity="0.501961" points="494.258034,603.868460,497.359441,655.000000,390.873679,604.995259,491.485511,628.118954" />
<polygon fill="#0d1726" fill-opacity="0.501961" points="412.110423,444.858601,503.584306,432.502699,449.362893,416.247330,406.927189,422.059300" />
<polygon fill="#5d6e5f" fill-opacity="0.501961" points="275.551930,285.200280,292.302061,299.284097,268.335980,306.129625,259.165494,290.605993" />
<polygon fill="#29627f" fill-opacity="0.501961" points="360.329969,111.010826,372.063446,212.027578,433.598773,178.983586,347.578876,141.632632" />
<polygon fill="#38e7be" fill-opacity="0.501961" points="515.219246,224.902513,559.784388,197.940345,541.181373,216.408144,477.901668,271.292689" />
<polygon fill="#000000" fill-opacity="0.501961" points="476.998242,50.990759,488.760516,109.889468,489.835357,90.794034,495.163869,33.500814" />
<polygon fill="#00001a" fill-opacity="0.501961" points="67.160670,158.754067,63.059745,152.399119,69.107196,141.016725,76.418407,158.420031" />
<polygon fill="#ffc716" fill-opacity="0.501961" points="12.582004,417.717549,18.640087,413.753590,13.773684,402.160064,0.376123,412.489241" />
<polygon fill="#508bb9" fill-opacity="0.501961" points="858.572381,145.915806,885.902766,285.628965,842.474454,256.940405,775.499792,212.386006" />
<polygon fill="#6f85ad" fill-opacity="0.501961" points="557.336396,182.168409,595.723506,212.228563,649.227098,213.905645,590.169276,201.213936" />
<polygon fill="#c6152b" fill-opacity="0.501961" points="709.652655,226.949130,674.993262,181.745999,720.609595,218.925376,745.412368,255.250322" />
<polygon fill="#eda1d0" fill-opacity="0.501961" points="338.422034,655.000000,358.259942,638.838648,366.040966,603.690557,362.949302,527.286364" />
<polygon fill="#ffffd8" fill-opacity="0.501961" points="41.648723,383.276884,52.154395,397.158671,70.961528,364.548632,79.967402,379.217256" />
<polygon fill="#bee2f0" fill-opacity="0.501961" points="68.939876,38.987926,130.766526,49.296525,268.073133,1.028392,141.078640,-16.000000" />
<polygon fill="#000104" fill-opacity="0.501961" points="793.019225,53.955111,892.882761,34.159156,934.221168,-16.000000,901.132193,7.376410" />
<polygon fill="#ccedef" fill-opacity="0.501961" points="72.436888,569.512879,123.251421,521.065962,56.120866,570.003888,126.077120,589.331691" />
<polygon fill="#071523" fill-opacity="0.501961" points="684.618230,321.499966,815.019019,351.351204,681.604755,341.124814,634.525277,342.145562" />
<polygon fill="#3c6c8f" fill-opacity="0.501961" points="420.269568,44.972195,437.800157,71.741113,447.683192,-7.169782,435.115708,4.760747" />
<polygon fill="#00192c" fill-opacity="0.501961" points="463.896589,522.679435,481.822456,520.258671,519.069146,492.444660,419.213409,514.463851" />
<polygon fill="#000003" fill-opacity="0.501961" points="554.275702,45.376986,562.030721,56.715329,607.973365,40.578609,568.280884,35.869439" />
<polygon fill="#0d1631" fill-opacity="0.501961" points="268.382814,118.725356,232.814959,205.692914,260.916859,159.692715,327.726509,32.895631" />
<polygon fill="#000000" fill-opacity="0.501961" points="667.493547,126.053448,631.907546,168.648554,691.905648,152.411720,717.628960,136.710488" />
<polygon fill="#283d4e" fill-opacity="0.501961" points="150.259874,475.893564,136.899192,489.301282,162.830445,485.623449,163.616550,417.806039" />
<polygon fill="#c5e1f0" fill-opacity="0.501961" points="95.188816,150.101607,74.113237,161.825545,117.589492,288.209073,127.087829,285.245301" />
<polygon fill="#d5e194" fill-opacity="0.501961" points="518.844648,496.507471,445.905191,569.601941,486.058934,532.501229,512.016027,516.361971" />
<polygon fill="#dbf6ff" fill-opacity="0.501961" points="515.576349,214.889712,486.728324,287.014064,521.991459,238.365008,482.771673,249.192871" />
<polygon fill="#cedbd0" fill-opacity="0.501961" points="258.975641,531.142406,285.857156,476.434301,272.869027,474.203047,328.594300,436.598450" />
<polygon fill="#b2e2ff" fill-opacity="0.501961" points="347.771485,52.060417,357.942239,63.526273,338.093824,68.299981,336.078260,66.323328" />
<polygon fill="#000009" fill-opacity="0.501961" points="83.929732,442.524405,19.798294,531.942684,162.164347,293.192890,134.814544,356.785886" />
<polygon fill="#091d3a" fill-opacity="0.501961" points="433.597878,552.938847,438.413526,595.290970,468.343889,603.351403,508.191765,562.725871" />
<polygon fill="#b37808" fill-opacity="0.501961" points="969.999543,85.424273,918.924260,28.054761,1027.692652,116.439959,1039.000000,167.691309" />
<polygon fill="#132c59" fill-opacity="0.501961" points="724.258224,242.725978,716.357391,231.850514,740.172721,255.725121,677.394132,274.692912" />
<polygon fill="#b1ccd1" fill-opacity="0.501961" points="624.070084,648.726005,543.862789,649.418120,581.017300,636.038440,589.417704,636.460040" />
<polygon fill="#ffe9c3" fill-opacity="0.501961" points="128.555107,411.992590,116.768374,382.713135,128.561833,379.525119,149.799621,399.999884" />
<polygon fill="#ef153e" fill-opacity="0.501961" points="781.290229,103.200529,703.478784,150.309968,750.189986,130.189444,901.338017,44.432702" />
<polygon fill="#ef76b4" fill-opacity="0.501961" points="416.482830,354.219204,390.656264,399.061432,367.204356,412.382972,372.805193,394.824468" />
<polygon fill="#011634" fill-opacity="0.501961" points="533.426345,273.178744,552.001218,244.016976,550.602116,255.377397,526.792343,330.960379" />
<polygon fill="#3b779c" fill-opacity="0.501961" points="342.511985,101.742211,328.374632,93.857256,413.774491,93.142493,386.502831,11.390469" />
<polygon fill="#34475c" fill-opacity="0.501961" points="246.426683,324.781670,207.293582,288.427375,201.878325,331.460390,215.673701,293.540974" />
<polygon fill="#fffffd" fill-opacity="0.501961" points="-16.000000,305.175370,7.142070,306.210412,15.124739,301.696274,6.017884,292.276891" />
<polygon fill="#6ca1c6" fill-opacity="0.501961" points="473.739166,626.220000,491.122761,627.759476,486.761367,581.766959,532.340370,592.223210" />
<polygon fill="#c7970f" fill-opacity="0.501961" points="672.638253,42.705635,642.932855,1.814710,610.736924,46.214847,643.866481,-16.000000" />
<polygon fill="#a2c9d7" fill-opacity="0.501961" points="469.539262,561.335646,497.269429,540.574920,480.677323,561.105377,495.035660,533.791388" />
<polygon fill="#a6070e" fill-opacity="0.501961" points="925.107909,542.772914,921.535207,464.205600,940.710912,559.778844,967.037928,565.050220" />
<polygon fill="#76ccf6" fill-opacity="0.501961" points="313.875898,466.075041,323.161942,448.215750,323.889883,526.648093,310.894290,521.439319" />
<polygon fill="#b5cdb6" fill-opacity="0.501961" points="789.078286,523.165781,846.742300,441.046899,762.957008,570.656327,782.629622,533.229371" />
<polygon fill="#ffff9e" fill-opacity="0.501961" points="427.642528,522.012044,428.759519,523.141871,395.265738,507.747548,378.963213,487.881663" />
<polygon fill="#3b556e" fill-opacity="0.501961" points="622.462319,501.287379,602.749875,488.727633,620.410176,509.694363,662.186142,554.109672" />
<polygon fill="#6199ad" fill-opacity="0.501961" points="3.873845,583.406363,13.039623,563.048894,26.981883,538.408313,56.996048,534.937669" />
<polygon fill="#defcf6" fill-opacity="0.501961" points="92.265806,565.606744,143.509391,568.584315,131.626732,577.893170,115.488095,590.268279" />
<polygon fill="#040d1c" fill-opacity="0.501961" points="404.194316,590.135423,525.978667,645.946442,521.892699,616.737801,494.385394,655.000000" />
<polygon fill="#920f0f" fill-opacity="0.501961" points="918.498993,47.561035,909.320766,32.766606,948.673203,22.922854,984.034165,38.953137" />
<polygon fill="#5e9cda" fill-opacity="0.501961" points="529.890001,655.000000,536.990488,636.522038,568.470737,625.164310,527.212119,632.781812" />
<polygon fill="#000213" fill-opacity="0.501961" points="607.187989,655.000000,577.518803,559.555615,639.251572,644.911801,644.314988,655.000000" />
<polygon fill="#000000" fill-opacity="0.501961" points="590.002275,406.408377,539.139984,473.937850,709.652664,423.029909,596.288936,380.659782" />
<polygon fill="#f6d6b7" fill-opacity="0.501961" points="259.619985,192.419394,311.441112,167.900201,323.554801,229.915472,296.808086,231.026222" />
<polygon fill="#000100" fill-opacity="0.501961" points="711.501348,97.915403,854.647769,9.690974,812.307422,1.881233,720.929956,84.086762" />
<polygon fill="#effcf9" fill-opacity="0.501961" points="7.683994,-16.000000,-16.000000,30.505051,32.681903,46.622084,80.095769,11.234145" />
<polygon fill="#f33b9c" fill-opacity="0.501961" points="735.858228,17.758748,728.295139,20.127195,809.817177,-13.963441,735.351757,8.130310" />
<polygon fill="#d29200" fill-opacity="0.501961" points="535.930951,218.409054,528.112711,234.352139,527.730084,279.170193,534.829078,260.799884" />
<polygon fill="#546254" fill-opacity="0.501961" points="282.577544,367.005081,360.038697,316.170158,303.731836,365.937762,223.194878,413.949817" />
<polygon fill="#f877ba" fill-opacity="0.501961" points="657.958849,69.483820,742.230271,25.298291,654.896941,81.697514,649.926074,79.314841" />
<polygon fill="#f7f8db" fill-opacity="0.501961" points="306.364214,503.798737,233.264226,507.498777,253.277458,486.489623,265.838941,540.921749" />
<polygon fill="#6fb4dd" fill-opacity="0.501961" points="55.917795,255.072267,22.114146,219.126803,-3.512002,225.305264,67.412969,329.965369" />
<polygon fill="#000006" fill-opacity="0.501961" points="503.169240,405.292759,562.361307,407.624708,591.504431,385.750051,561.409711,398.923832" />
<polygon fill="#73a4bf" fill-opacity="0.501961" points="627.775143,265.586512,582.959205,247.954124,573.963239,258.778075,571.802282,275.107859" />
<polygon fill="#096e7e" fill-opacity="0.501961" points="406.588471,523.773613,406.259567,515.828633,388.075030,498.550251,388.624848,521.477999" />
<polygon fill="#39778f" fill-opacity="0.501961" points="21.898005,450.324732,3.379639,410.635540,136.403421,319.495940,-16.000000,407.086903" />
<polygon fill="#000006" fill-opacity="0.501961" points="521.281844,149.776370,500.002617,186.719739,502.358769,144.730088,500.622978,123.504334" />
<polygon fill="#dd477e" fill-opacity="0.501961" points="642.011740,103.060879,621.301869,115.102226,538.335095,174.920818,619.515174,126.531044" />
<polygon fill="#4486b2" fill-opacity="0.501961" points="80.585682,306.903147,105.960625,288.583314,78.735396,279.892689,-13.532239,359.560690" />
<polygon fill="#040913" fill-opacity="0.501961" points="799.103386,636.686661,813.563104,563.369035,858.857931,605.565606,855.723114,617.339402" />
<polygon fill="#4e89a3" fill-opacity="0.501961" points="299.839445,257.470855,339.907580,283.390920,367.685939,215.224696,437.100526,252.735248" />
<polygon fill="#d6fcfc" fill-opacity="0.501961" points="566.029836,147.547389,622.978904,87.013002,551.559125,145.201133,504.330349,190.242654" />
<polygon fill="#ffdb9d" fill-opacity="0.501961" points="191.692243,268.738869,181.234962,294.219760,173.625388,296.682318,188.978705,267.916189" />
<polygon fill="#397d96" fill-opacity="0.501961" points="7.766079,391.342956,-16.000000,327.943415,43.316683,434.528870,34.437883,438.775911" />
<polygon fill="#478b94" fill-opacity="0.501961" points="140.914395,390.122559,126.830221,370.908115,164.815611,350.801487,173.236589,353.506232" />
<polygon fill="#020111" fill-opacity="0.501961" points="524.808537,95.141369,519.897353,76.732511,529.237078,40.693801,538.301126,54.073334" />
<polygon fill="#17315a" fill-opacity="0.501961" points="646.708715,630.211351,556.904752,569.035056,569.040017,629.232233,574.521973,602.091471" />
<polygon fill="#f1fffa" fill-opacity="0.501961" points="404.790101,292.780854,532.754242,189.375830,532.809905,179.780209,445.337403,240.678864" />
<polygon fill="#ad8e7f" fill-opacity="0.501961" points="-14.801963,88.197571,15.408809,85.492534,17.809887,110.421353,-5.760837,104.452513" />
<polygon fill="#a6b8f2" fill-opacity="0.501961" points="486.795032,321.274525,466.768503,344.672061,460.257856,341.335645,468.345317,322.584728" />
<polygon fill="#e7dbdd" fill-opacity="0.501961" points="360.279635,182.496109,339.996892,206.542876,303.602554,122.711203,312.707884,170.990611" />
<polygon fill="#bfa087" fill-opacity="0.501961" points="-5.387023,155.220932,15.033539,175.876887,24.407140,161.530465,20.541576,146.084461" />
<polygon fill="#357894" fill-opacity="0.501961" points="59.928110,423.416353,16.409500,451.776633,51.736758,418.814467,-4.367646,296.111391" />
<polygon fill="#3ebd60" fill-opacity="0.501961" points="481.856501,349.950212,466.413159,358.250812,466.005600,371.786686,511.414479,335.328433" />
<polygon fill="#375782" fill-opacity="0.501961" points="74.965826,122.879785,88.735075,120.203504,88.172439,137.769338,76.176336,135.199807" />
<polygon fill="#000000" fill-opacity="0.501961" points="934.061675,336.607495,879.306697,291.895672,953.367656,318.989045,981.826393,374.098257" />
<polygon fill="#000000" fill-opacity="0.501961" points="651.720954,546.654623,828.824158,446.313064,628.939296,584.337560,583.084868,563.878970" />
<polygon fill="#818d8c" fill-opacity="0.501961" points="846.300441,429.097368,827.304850,433.368205,828.129597,454.392731,846.446490,446.525733" />
<polygon fill="#949a94" fill-opacity="0.501961" points="176.859658,248.466195,213.326685,192.668874,207.375560,191.073516,127.873892,265.628025" />
<polygon fill="#00040d" fill-opacity="0.501961" points="492.540710,533.614743,496.075297,539.327578,564.274960,524.287137,551.203731,477.911779" />
<polygon fill="#ffe4bb" fill-opacity="0.501961" points="116.693425,280.153145,173.218813,242.637805,181.009433,241.052424,163.851120,271.928716" />
<polygon fill="#8b85a5" fill-opacity="0.501961" points="322.741682,155.445210,331.642999,163.539470,344.006080,112.444333,298.663058,169.809939" />
<polygon fill="#739ddc" fill-opacity="0.501961" points="542.887165,14.718438,548.353401,14.891282,571.268067,10.413846,529.372582,31.249020" />
<polygon fill="#45e5e2" fill-opacity="0.501961" points="432.613286,537.723559,380.523048,523.798972,477.763112,531.511423,508.399005,509.072940" />
<polygon fill="#494044" fill-opacity="0.501961" points="342.530174,370.438294,328.904301,328.834771,340.150343,314.549236,359.547668,362.330358" />
<polygon fill="#020005" fill-opacity="0.501961" points="867.164550,68.610817,802.163931,114.568320,727.722585,147.509591,819.820359,90.483069" />
<polygon fill="#80b3e7" fill-opacity="0.501961" points="555.915368,30.064901,552.631396,42.224107,555.081701,43.513118,596.205084,23.625873" />
<polygon fill="#90bed4" fill-opacity="0.501961" points="216.832216,44.496761,232.898484,-7.857928,255.122942,112.353930,235.215515,104.669376" />
<polygon fill="#5b8bab" fill-opacity="0.501961" points="329.339227,39.882866,308.407636,67.506619,333.843706,47.077335,371.243047,-7.456904" />
<polygon fill="#696f67" fill-opacity="0.501961" points="59.739030,212.076582,74.977695,209.944491,61.228232,190.089657,48.597524,206.899024" />
<polygon fill="#87b0c7" fill-opacity="0.501961" points="170.351390,128.274158,205.037712,187.122448,98.386716,128.579400,80.811549,118.854306" />
<polygon fill="#d8e6f4" fill-opacity="0.501961" points="576.624999,171.132821,533.922471,203.279608,529.737341,220.221799,570.183514,183.448264" />
<polygon fill="#f2293b" fill-opacity="0.501961" points="795.496682,62.220584,764.780172,79.009846,903.563449,33.871753,850.457972,43.270385" />
<polygon fill="#03051e" fill-opacity="0.501961" points="477.780523,359.012995,502.439800,347.427811,472.241361,376.168608,467.732434,383.187432" />
<polygon fill="#2c465e" fill-opacity="0.501961" points="150.435071,296.249939,75.461371,436.648510,-16.000000,587.041651,31.705907,480.157297" />
<polygon fill="#39dfd9" fill-opacity="0.501961" points="548.197384,418.291334,515.770615,470.706379,553.873366,418.749001,545.114462,405.454825" />
<polygon fill="#ebdfd0" fill-opacity="0.501961" points="66.840967,282.562722,54.684152,266.574303,71.059593,256.106665,76.128517,265.235869" />
<polygon fill="#e2f6ff" fill-opacity="0.501961" points="343.484785,100.500498,348.305557,116.480218,364.135737,110.997377,355.158002,91.687225" />
<polygon fill="#f56f35" fill-opacity="0.501961" points="791.409155,7.151374,882.757706,-16.000000,787.026053,-7.437929,740.662247,28.805909" />
<polygon fill="#000000" fill-opacity="0.501961" points="986.412945,619.824951,1005.472487,612.144341,1039.000000,546.436791,1020.587615,630.328573" />
<polygon fill="#537b86" fill-opacity="0.501961" points="552.977372,409.127228,494.342313,485.961436,495.033388,476.516616,503.494417,466.745560" />
<polygon fill="#c0e4f1" fill-opacity="0.501961" points="83.655409,91.017710,23.008449,-16.000000,101.274293,44.692261,147.559465,138.629930" />
<polygon fill="#2e6396" fill-opacity="0.501961" points="525.972762,231.258942,493.221554,285.396467,498.016283,284.425136,519.043414,273.355602" />
<polygon fill="#af7514" fill-opacity="0.501961" points="488.278099,122.004834,526.438852,146.825921,511.581585,175.352142,538.916504,157.245424" />
<polygon fill="#04070b" fill-opacity="0.501961" points="983.826175,231.886255,1003.750878,301.974423,989.348958,112.254525,957.892577,72.012755" />
<polygon fill="#000004" fill-opacity="0.501961" points="718.357736,14.646664,747.546959,1.322872,661.348411,-5.598987,671.528710,47.058675" />
<polygon fill="#e4e7f9" fill-opacity="0.501961" points="454.836984,264.985159,440.814973,285.776050,462.486056,275.274924,514.341725,223.369233" />
<polygon fill="#91d3db" fill-opacity="0.501961" points="20.943368,460.750092,7.364576,459.483257,72.420883,414.038474,64.758745,428.280116" />
<polygon fill="#5d7e97" fill-opacity="0.501961" points="237.240302,186.025984,261.768251,190.424825,283.207660,162.186321,299.441394,173.239485" />
<polygon fill="#000000" fill-opacity="0.501961" points="608.786272,26.002475,613.276221,15.431095,590.420222,-1.937323,579.774516,21.134526" />
<polygon fill="#90b8ac" fill-opacity="0.501961" points="209.571764,482.660425,189.962970,487.839878,177.311946,533.867698,242.220428,493.550732" />
<polygon fill="#9ba287" fill-opacity="0.501961" points="984.981637,530.572243,983.055534,532.935115,973.529795,535.196421,965.351709,554.978010" />
<polygon fill="#0f1f37" fill-opacity="0.501961" points="746.415566,560.633004,772.987085,512.527421,720.198738,520.933475,655.105254,579.901131" />
<polygon fill="#ffd28f" fill-opacity="0.501961" points="54.944691,324.146771,35.836153,333.041945,47.900146,340.235269,55.992716,335.254636" />
<polygon fill="#baeaf4" fill-opacity="0.501961" points="103.979650,92.167273,56.904338,145.998412,78.572816,137.044735,65.629007,121.887404" />
<polygon fill="#d4f1fd" fill-opacity="0.501961" points="679.908399,44.360275,726.256212,12.146497,712.921587,51.722914,761.741170,24.895479" />
<polygon fill="#1b2d37" fill-opacity="0.501961" points="292.813848,494.425974,286.865166,501.349932,308.898890,505.580973,312.762042,485.060363" />
<polygon fill="#040b1b" fill-opacity="0.501961" points="483.702471,327.348565,576.653596,326.944656,516.063974,341.864559,489.317878,282.576666" />
<polygon fill="#fff4a6" fill-opacity="0.501961" points="22.337499,402.882147,34.038932,403.997533,41.255340,397.740115,27.899956,387.536597" />
<polygon fill="#cbd5bf" fill-opacity="0.501961" points="147.694576,490.901858,111.496996,509.674511,54.038314,557.295320,149.953083,500.759482" />
</g>
</svg>