<svg xmlns="http://www.w3.org/2000/svg" version="1.1" width="1024" height="640">
<rect x="0" y="0" width="1024" height="640" fill="#3c3c3c" />
<g transform="scale(4.000000) translate(0.5 0.5)">
<polygon fill="#9e9e9e" fill-opacity="0.501961" points="137,175 46,139 158,29" />
<polygon fill="#000000" fill-opacity="0.501961" points="252,175 271,-5 181,-16" />
<polygon fill="#000000" fill-opacity="0.501961" points="-3,-4 -16,117 71,-9" />
<polygon fill="#ececec" fill-opacity="0.501961" points="87,140 84,88 114,101" />
<polygon fill="#eaeaea" fill-opacity="0.501961" points="154,105 130,114 123,56" />
<polygon fill="#606060" fill-opacity="0.501961" points="223,45 21,67 83,-16" />
<polygon fill="#212121" fill-opacity="0.501961" points="258,166 20,129 250,96" />
<polygon fill="#000000" fill-opacity="0.501961" points="271,-14 187,-16 260,141" />
<polygon fill="#bbbbbb" fill-opacity="0.501961" points="79,157 93,83 107,150" />
<polygon fill="#181818" fill-opacity="0.501961" points="101,78 120,65 127,135" />
<polygon fill="#909090" fill-opacity="0.501961" points="171,133 131,133 124,156" />
<polygon fill="#777777" fill-opacity="0.501961" points="-7,120 59,142 6,144" />
<polygon fill="#b1b1b1" fill-opacity="0.501961" points="129,121 133,58 152,66" />
<polygon fill="#4c4c4c" fill-opacity="0.501961" points="150,-16 72,65 223,54" />
<polygon fill="#2c2c2c" fill-opacity="0.501961" points="43,165 72,85 84,137" />
<polygon fill="#f1f1f1" fill-opacity="0.501961" points="89,94 78,112 93,123" />
<polygon fill="#292929" fill-opacity="0.501961" points="129,84 225,85 245,134" />
<polygon fill="#050505" fill-opacity="0.501961" points="-16,-1 3,82 68,-7" />
<polygon fill="#424242" fill-opacity="0.501961" points="-16,95 137,89 54,53" />
<polygon fill="#0e0e0e" fill-opacity="0.501961" points="121,124 118,92 103,122" />
<polygon fill="#111111" fill-opacity="0.501961" points="258,121 173,172 148,152" />
<polygon fill="#000000" fill-opacity="0.501961" points="265,-2 175,-2 257,79" />
<polygon fill="#eeeeee" fill-opacity="0.501961" points="87,98 102,121 107,106" />
<polygon fill="#dddddd" fill-opacity="0.501961" points="121,93 153,108 131,110" />
<polygon fill="#3d3d3d" fill-opacity="0.501961" points="74,119 108,51 39,54" />
<polygon fill="#030303" fill-opacity="0.501961" points="91,111 92,114 98,110" />
<polygon fill="#818181" fill-opacity="0.501961" points="92,157 64,155 67,147" />
<polygon fill="#707070" fill-opacity="0.501961" points="73,123 83,145 125,123" />
<polygon fill="#585858" fill-opacity="0.501961" points="27,51 188,17 84,-16" />
<polygon fill="#1d1d1d" fill-opacity="0.501961" points="64,145 54,175 -16,146" />
<polygon fill="#373737" fill-opacity="0.501961" points="160,89 230,83 142,47" />
<polygon fill="#131313" fill-opacity="0.501961" points="80,162 156,175 120,155" />
<polygon fill="#c3c3c3" fill-opacity="0.501961" points="152,80 148,64 129,85" />
<polygon fill="#414141" fill-opacity="0.501961" points="265,148 177,139 213,157" />
<polygon fill="#1a1a1a" fill-opacity="0.501961" points="37,110 89,123 74,109" />
<polygon fill="#bababa" fill-opacity="0.501961" points="102,92 113,100 85,139" />
<polygon fill="#686868" fill-opacity="0.501961" points="25,116 78,117 46,125" />
<polygon fill="#0c0c0c" fill-opacity="0.501961" points="100,96 103,103 108,103" />
<polygon fill="#333333" fill-opacity="0.501961" points="197,143 153,142 151,59" />
<polygon fill="#313131" fill-opacity="0.501961" points="173,-3 227,103 214,34" />
<polygon fill="#cecece" fill-opacity="0.501961" points="126,62 142,59 143,65" />
<polygon fill="#737373" fill-opacity="0.501961" points="74,133 10,134 43,144" />
<polygon fill="#1b1b1b" fill-opacity="0.501961" points="52,124 -2,140 23,124" />
<polygon fill="#121212" fill-opacity="0.501961" points="107,133 113,147 128,133" />
<polygon fill="#1f1f1f" fill-opacity="0.501961" points="132,72 137,76 134,78" />
<polygon fill="#6b6b6b" fill-opacity="0.501961" points="151,143 121,124 144,166" />
<polygon fill="#3f3f3f" fill-opacity="0.501961" points="165,56 86,65 150,39" />
<polygon fill="#555555" fill-opacity="0.501961" points="63,97 111,82 14,82" />
<polygon fill="#161616" fill-opacity="0.501961" points="209,116 173,133 132,127" />
<polygon fill="#070707" fill-opacity="0.501961" points="146,76 141,77 142,72" />
<polygon fill="#262626" fill-opacity="0.501961" points="101,86 128,90 113,99" />
<polygon fill="#0e0e0e" fill-opacity="0.501961" points="78,131 66,143 80,142" />
<polygon fill="#090909" fill-opacity="0.501961" points="271,130 190,134 236,144" />
<polygon fill="#0a0a0a" fill-opacity="0.501961" points="136,97 139,96 138,101" />
<polygon fill="#272727" fill-opacity="0.501961" points="96,124 71,116 82,125" />
<polygon fill="#4a4a4a" fill-opacity="0.501961" points="147,62 137,73 141,64" />
<polygon fill="#676767" fill-opacity="0.501961" points="82,142 119,145 76,129" />
<polygon fill="#121212" fill-opacity="0.501961" points="68,132 37,130 76,122" />
<polygon fill="#d8d8d8" fill-opacity="0.501961" points="102,101 90,90 98,120" />
<polygon fill="#525252" fill-opacity="0.501961" points="0,102 36,102 23,72" />
<polygon fill="#d7d7d7" fill-opacity="0.501961" points="141,89 149,95 118,97" />
<polygon fill="#979797" fill-opacity="0.501961" points="123,144 137,138 129,157" />
<polygon fill="#b4b4b4" fill-opacity="0.501961" points="103,133 82,131 97,126" />
<polygon fill="#080808" fill-opacity="0.501961" points="184,156 204,175 261,156" />
<polygon fill="#101010" fill-opacity="0.501961" points="23,117 -1,116 -8,126" />
<polygon fill="#000000" fill-opacity="0.501961" points="116,118 98,124 110,113" />
<polygon fill="#5f5f5f" fill-opacity="0.501961" points="38,124 24,109 1,111" />
<polygon fill="#141414" fill-opacity="0.501961" points="14,82 46,20 -16,79" />
<polygon fill="#777777" fill-opacity="0.501961" points="6,142 41,143 13,132" />
<polygon fill="#121212" fill-opacity="0.501961" points="235,121 193,122 269,96" />
<polygon fill="#e0e0e0" fill-opacity="0.501961" points="126,71 136,68 128,79" />
<polygon fill="#545454" fill-opacity="0.501961" points="186,45 38,44 155,-16" />
<polygon fill="#4e4e4e" fill-opacity="0.501961" points="132,132 170,144 191,133" />
<polygon fill="#363636" fill-opacity="0.501961" points="127,59 111,82 36,76" />
<polygon fill="#4c4c4c" fill-opacity="0.501961" points="188,122 150,121 167,114" />
<polygon fill="#606060" fill-opacity="0.501961" points="115,97 131,122 123,95" />
<polygon fill="#161616" fill-opacity="0.501961" points="-1,133 -16,159 9,134" />
<polygon fill="#d8d8d8" fill-opacity="0.501961" points="99,121 82,117 80,105" />
<polygon fill="#373737" fill-opacity="0.501961" points="-4,91 71,111 90,88" />
<polygon fill="#cccccc" fill-opacity="0.501961" points="96,89 95,108 89,89" />
<polygon fill="#6f6f6f" fill-opacity="0.501961" points="19,124 -16,123 9,133" />
<polygon fill="#c4c4c4" fill-opacity="0.501961" points="149,97 124,116 151,105" />
<polygon fill="#4a4a4a" fill-opacity="0.501961" points="151,144 136,175 135,146" />
<polygon fill="#cfcfcf" fill-opacity="0.501961" points="146,73 139,62 135,65" />
<polygon fill="#191919" fill-opacity="0.501961" points="94,114 90,110 90,115" />
<polygon fill="#404040" fill-opacity="0.501961" points="162,91 133,88 183,74" />
<polygon fill="#e0e0e0" fill-opacity="0.501961" points="145,80 136,73 141,82" />
<polygon fill="#171717" fill-opacity="0.501961" points="153,175 152,145 202,142" />
<polygon fill="#1a1a1a" fill-opacity="0.501961" points="189,8 228,71 218,34" />
<polygon fill="#515151" fill-opacity="0.501961" points="74,105 39,109 23,97" />
<polygon fill="#cfcfcf" fill-opacity="0.501961" points="149,67 144,63 145,61" />
<polygon fill="#4d4d4d" fill-opacity="0.501961" points="126,105 108,110 127,118" />
<polygon fill="#545454" fill-opacity="0.501961" points="79,115 73,125 38,117" />
<polygon fill="#464646" fill-opacity="0.501961" points="197,67 206,41 111,55" />
<polygon fill="#aeaeae" fill-opacity="0.501961" points="95,156 99,144 82,145" />
<polygon fill="#020202" fill-opacity="0.501961" points="271,8 194,-16 252,104" />
<polygon fill="#484848" fill-opacity="0.501961" points="153,108 138,110 135,135" />
<polygon fill="#202020" fill-opacity="0.501961" points="-16,118 8,124 32,115" />
<polygon fill="#bbbbbb" fill-opacity="0.501961" points="113,98 104,101 102,93" />
<polygon fill="#1a1a1a" fill-opacity="0.501961" points="54,114 32,108 33,115" />
<polygon fill="#232323" fill-opacity="0.501961" points="131,123 130,130 148,132" />
<polygon fill="#373737" fill-opacity="0.501961" points="98,85 123,107 109,85" />
<polygon fill="#6e6e6e" fill-opacity="0.501961" points="131,132 126,124 116,131" />
<polygon fill="#646464" fill-opacity="0.501961" points="127,87 124,69 120,83" />
<polygon fill="#5e5e5e" fill-opacity="0.501961" points="-6,88 36,87 17,81" />
<polygon fill="#d0d0d0" fill-opacity="0.501961" points="129,60 139,60 127,65" />
<polygon fill="#717171" fill-opacity="0.501961" points="102,125 75,124 72,132" />
<polygon fill="#6b6b6b" fill-opacity="0.501961" points="64,150 74,143 97,162" />
<polygon fill="#1c1c1c" fill-opacity="0.501961" points="153,106 152,116 180,110" />
<polygon fill="#d8d8d8" fill-opacity="0.501961" points="103,115 82,114 95,122" />
<polygon fill="#d0d0d0" fill-opacity="0.501961" points="142,103 124,92 131,112" />
<polygon fill="#2a2a2a" fill-opacity="0.501961" points="134,78 131,76 136,73" />
<polygon fill="#3d3d3d" fill-opacity="0.501961" points="178,104 219,111 180,115" />
<polygon fill="#303030" fill-opacity="0.501961" points="57,63 24,79 81,80" />
<polygon fill="#222222" fill-opacity="0.501961" points="11,109 29,104 -6,102" />
<polygon fill="#3a3a3a" fill-opacity="0.501961" points="132,64 135,66 129,69" />
<polygon fill="#696969" fill-opacity="0.501961" points="35,135 63,143 69,134" />
<polygon fill="#2d2d2d" fill-opacity="0.501961" points="116,96 132,88 98,88" />
<polygon fill="#d2d2d2" fill-opacity="0.501961" points="126,85 128,62 132,82" />
<polygon fill="#434343" fill-opacity="0.501961" points="136,51 79,59 80,98" />
<polygon fill="#656565" fill-opacity="0.501961" points="47,123 21,122 28,116" />
<polygon fill="#373737" fill-opacity="0.501961" points="246,158 195,144 270,143" />
<polygon fill="#292929" fill-opacity="0.501961" points="229,134 268,113 234,113" />
<polygon fill="#181818" fill-opacity="0.501961" points="214,115 179,113 185,123" />
<polygon fill="#898989" fill-opacity="0.501961" points="100,142 98,158 115,146" />
<polygon fill="#191919" fill-opacity="0.501961" points="84,122 77,110 69,109" />
<polygon fill="#232323" fill-opacity="0.501961" points="45,97 47,104 73,98" />
<polygon fill="#020202" fill-opacity="0.501961" points="250,131 241,122 271,120" />
<polygon fill="#9f9f9f" fill-opacity="0.501961" points="126,120 133,111 127,112" />
<polygon fill="#d8d8d8" fill-opacity="0.501961" points="90,94 79,110 90,110" />
<polygon fill="#151515" fill-opacity="0.501961" points="96,123 111,116 130,121" />
<polygon fill="#3e3e3e" fill-opacity="0.501961" points="194,132 183,122 221,126" />
<polygon fill="#373737" fill-opacity="0.501961" points="51,175 108,158 -16,153" />
<polygon fill="#5c5c5c" fill-opacity="0.501961" points="16,103 1,97 36,98" />
<polygon fill="#2b2b2b" fill-opacity="0.501961" points="-16,97 31,95 5,89" />
<polygon fill="#5c5c5c" fill-opacity="0.501961" points="109,157 133,140 111,147" />
<polygon fill="#414141" fill-opacity="0.501961" points="205,34 218,77 167,5" />
<polygon fill="#060606" fill-opacity="0.501961" points="67,0 45,23 44,-16" />
<polygon fill="#5e5e5e" fill-opacity="0.501961" points="43,52 48,29 24,71" />
<polygon fill="#1e1e1e" fill-opacity="0.501961" points="70,127 79,144 69,140" />
<polygon fill="#cecece" fill-opacity="0.501961" points="136,89 128,91 148,98" />
<polygon fill="#141414" fill-opacity="0.501961" points="210,143 176,130 245,135" />
<polygon fill="#494949" fill-opacity="0.501961" points="207,155 212,143 199,145" />
<polygon fill="#1a1a1a" fill-opacity="0.501961" points="32,-16 39,32 11,84" />
<polygon fill="#444444" fill-opacity="0.501961" points="178,143 195,142 188,133" />
<polygon fill="#8d8d8d" fill-opacity="0.501961" points="138,83 128,89 124,84" />
<polygon fill="#c9c9c9" fill-opacity="0.501961" points="148,65 149,71 140,73" />
<polygon fill="#323232" fill-opacity="0.501961" points="236,121 221,130 250,132" />
<polygon fill="#4c4c4c" fill-opacity="0.501961" points="44,95 96,81 83,96" />
<polygon fill="#1f1f1f" fill-opacity="0.501961" points="143,68 142,64 140,64" />
<polygon fill="#262626" fill-opacity="0.501961" points="107,132 124,143 129,132" />
<polygon fill="#d2d2d2" fill-opacity="0.501961" points="98,123 95,99 106,110" />
<polygon fill="#262626" fill-opacity="0.501961" points="14,133 45,133 19,123" />
<polygon fill="#202020" fill-opacity="0.501961" points="35,123 49,132 73,125" />
<polygon fill="#404040" fill-opacity="0.501961" points="197,82 149,95 152,79" />
<polygon fill="#5d5d5d" fill-opacity="0.501961" points="26,111 -8,109 8,115" />
<polygon fill="#818181" fill-opacity="0.501961" points="136,145 152,137 131,137" />
<polygon fill="#3a3a3a" fill-opacity="0.501961" points="78,109 73,88 90,88" />
<polygon fill="#282828" fill-opacity="0.501961" points="227,95 235,114 172,104" />
<polygon fill="#424242" fill-opacity="0.501961" points="140,100 142,99 139,96" />
<polygon fill="#646464" fill-opacity="0.501961" points="110,155 76,170 87,158" />
<polygon fill="#c8c8c8" fill-opacity="0.501961" points="141,101 148,106 144,91" />
<polygon fill="#b8b8b8" fill-opacity="0.501961" points="151,99 149,105 146,91" />
<polygon fill="#2c2c2c" fill-opacity="0.501961" points="142,128 152,131 145,112" />
<polygon fill="#323232" fill-opacity="0.501961" points="91,77 119,67 121,83" />
<polygon fill="#4b4b4b" fill-opacity="0.501961" points="98,86 101,99 95,88" />
<polygon fill="#525252" fill-opacity="0.501961" points="145,-9 95,41 190,53" />
<polygon fill="#242424" fill-opacity="0.501961" points="38,144 63,144 59,175" />
<polygon fill="#4d4d4d" fill-opacity="0.501961" points="123,134 125,124 95,123" />
<polygon fill="#cecece" fill-opacity="0.501961" points="83,114 104,99 82,105" />
<polygon fill="#e7e7e7" fill-opacity="0.501961" points="89,104 102,106 89,96" />
<polygon fill="#404040" fill-opacity="0.501961" points="83,56 57,45 5,86" />
<polygon fill="#cccccc" fill-opacity="0.501961" points="142,77 150,82 127,81" />
<polygon fill="#bcbcbc" fill-opacity="0.501961" points="128,70 141,76 126,63" />
<polygon fill="#494949" fill-opacity="0.501961" points="107,112 127,106 128,116" />
<polygon fill="#464646" fill-opacity="0.501961" points="198,48 124,51 165,68" />
<polygon fill="#323232" fill-opacity="0.501961" points="144,73 149,76 142,76" />
<polygon fill="#171717" fill-opacity="0.501961" points="195,142 167,175 212,175" />
<polygon fill="#a3a3a3" fill-opacity="0.501961" points="98,131 79,133 96,125" />
<polygon fill="#cccccc" fill-opacity="0.501961" points="126,91 139,91 135,98" />
<polygon fill="#5c5c5c" fill-opacity="0.501961" points="84,-16 70,23 37,50" />
<polygon fill="#343434" fill-opacity="0.501961" points="33,36 51,24 24,64" />
<polygon fill="#161616" fill-opacity="0.501961" points="150,132 187,129 175,122" />
<polygon fill="#cdcdcd" fill-opacity="0.501961" points="104,116 89,122 101,106" />
<polygon fill="#4c4c4c" fill-opacity="0.501961" points="117,80 115,90 80,84" />
<polygon fill="#4e4e4e" fill-opacity="0.501961" points="82,101 63,108 78,107" />
<polygon fill="#626262" fill-opacity="0.501961" points="121,144 122,156 108,156" />
<polygon fill="#101010" fill-opacity="0.501961" points="40,31 -16,71 10,81" />
<polygon fill="#aeaeae" fill-opacity="0.501961" points="98,95 98,101 89,92" />
<polygon fill="#474747" fill-opacity="0.501961" points="154,101 171,103 151,108" />
<polygon fill="#b6b6b6" fill-opacity="0.501961" points="146,82 148,68 151,81" />
<polygon fill="#191919" fill-opacity="0.501961" points="117,157 144,170 83,165" />
<polygon fill="#5b5b5b" fill-opacity="0.501961" points="152,79 141,88 154,84" />
<polygon fill="#9a9a9a" fill-opacity="0.501961" points="103,153 103,143 87,156" />
<polygon fill="#353535" fill-opacity="0.501961" points="135,112 149,111 132,121" />
<polygon fill="#3e3e3e" fill-opacity="0.501961" points="174,124 150,114 180,114" />
<polygon fill="#636363" fill-opacity="0.501961" points="140,113 145,113 134,125" />
<polygon fill="#6e6e6e" fill-opacity="0.501961" points="48,140 17,133 3,142" />
<polygon fill="#3a3a3a" fill-opacity="0.501961" points="186,113 230,113 206,106" />
<polygon fill="#515151" fill-opacity="0.501961" points="95,141 90,140 94,133" />
<polygon fill="#737373" fill-opacity="0.501961" points="122,112 129,114 123,109" />
<polygon fill="#272727" fill-opacity="0.501961" points="39,102 16,106 29,108" />
<polygon fill="#363636" fill-opacity="0.501961" points="158,68 145,91 211,73" />
<polygon fill="#9f9f9f" fill-opacity="0.501961" points="136,110 150,106 151,110" />
<polygon fill="#393939" fill-opacity="0.501961" points="122,93 112,106 113,95" />
<polygon fill="#202020" fill-opacity="0.501961" points="196,12 174,-1 193,21" />
<polygon fill="#464646" fill-opacity="0.501961" points="108,105 103,98 104,103" />
<polygon fill="#bbbbbb" fill-opacity="0.501961" points="143,62 134,68 138,60" />
<polygon fill="#4a4a4a" fill-opacity="0.501961" points="155,-8 193,62 197,34" />
<polygon fill="#b7b7b7" fill-opacity="0.501961" points="104,101 111,101 100,92" />
<polygon fill="#535353" fill-opacity="0.501961" points="31,73 19,75 40,40" />
<polygon fill="#151515" fill-opacity="0.501961" points="237,103 260,106 223,70" />
<polygon fill="#585858" fill-opacity="0.501961" points="64,116 75,123 46,123" />
<polygon fill="#101010" fill-opacity="0.501961" points="239,131 265,142 200,142" />
<polygon fill="#575757" fill-opacity="0.501961" points="85,58 83,-16 109,34" />
<polygon fill="#919191" fill-opacity="0.501961" points="103,92 98,90 95,92" />
<polygon fill="#494949" fill-opacity="0.501961" points="90,67 117,50 50,40" />
<polygon fill="#6b6b6b" fill-opacity="0.501961" points="106,143 88,143 104,132" />
<polygon fill="#202020" fill-opacity="0.501961" points="5,122 25,116 19,123" />
<polygon fill="#6c6c6c" fill-opacity="0.501961" points="64,157 83,155 68,144" />
<polygon fill="#565656" fill-opacity="0.501961" points="149,148 138,143 126,175" />
<polygon fill="#3d3d3d" fill-opacity="0.501961" points="139,89 132,89 144,85" />
<polygon fill="#cdcdcd" fill-opacity="0.501961" points="90,104 83,111 107,105" />
<polygon fill="#aaaaaa" fill-opacity="0.501961" points="120,100 124,93 129,91" />
<polygon fill="#282828" fill-opacity="0.501961" points="177,92 165,101 152,99" />
<polygon fill="#212121" fill-opacity="0.501961" points="62,115 76,108 38,108" />
<polygon fill="#111111" fill-opacity="0.501961" points="128,122 122,123 120,115" />
<polygon fill="#141414" fill-opacity="0.501961" points="83,123 78,116 75,122" />
<polygon fill="#474747" fill-opacity="0.501961" points="33,155 30,175 20,155" />
<polygon fill="#2d2d2d" fill-opacity="0.501961" points="218,83 199,25 216,44" />
<polygon fill="#959595" fill-opacity="0.501961" points="129,145 131,156 133,138" />
<polygon fill="#565656" fill-opacity="0.501961" points="49,89 29,84 65,82" />
<polygon fill="#0b0b0b" fill-opacity="0.501961" points="-3,67 -16,0 24,-11" />
<polygon fill="#d9d9d9" fill-opacity="0.501961" points="145,107 131,111 130,105" />
<polygon fill="#303030" fill-opacity="0.501961" points="52,88 20,93 42,96" />
<polygon fill="#525252" fill-opacity="0.501961" points="79,114 48,121 72,123" />
<polygon fill="#303030" fill-opacity="0.501961" points="120,109 127,108 113,100" />
<polygon fill="#696969" fill-opacity="0.501961" points="136,83 153,83 143,88" />
<polygon fill="#c1c1c1" fill-opacity="0.501961" points="98,91 109,101 104,93" />
<polygon fill="#434343" fill-opacity="0.501961" points="151,145 189,134 158,134" />
<polygon fill="#b5b5b5" fill-opacity="0.501961" points="97,89 98,91 91,90" />
<polygon fill="#242424" fill-opacity="0.501961" points="83,102 64,100 80,97" />
<polygon fill="#161616" fill-opacity="0.501961" points="229,48 225,71 210,30" />
<polygon fill="#333333" fill-opacity="0.501961" points="240,101 217,100 224,107" />
<polygon fill="#636363" fill-opacity="0.501961" points="52,144 43,133 68,138" />
<polygon fill="#020202" fill-opacity="0.501961" points="227,45 267,77 234,78" />
<polygon fill="#0f0f0f" fill-opacity="0.501961" points="143,121 155,115 153,119" />
<polygon fill="#cdcdcd" fill-opacity="0.501961" points="127,66 131,70 124,71" />
<polygon fill="#161616" fill-opacity="0.501961" points="120,137 113,133 113,143" />
<polygon fill="#cbcbcb" fill-opacity="0.501961" points="91,117 88,111 83,119" />
<polygon fill="#5a5a5a" fill-opacity="0.501961" points="32,109 27,113 19,110" />
<polygon fill="#3d3d3d" fill-opacity="0.501961" points="147,59 154,72 193,67" />
<polygon fill="#080808" fill-opacity="0.501961" points="204,-16 179,-4 227,45" />
<polygon fill="#383838" fill-opacity="0.501961" points="151,86 211,98 174,101" />
<polygon fill="#4f4f4f" fill-opacity="0.501961" points="77,81 95,89 112,84" />
<polygon fill="#2f2f2f" fill-opacity="0.501961" points="131,68 135,65 130,66" />
<polygon fill="#050505" fill-opacity="0.501961" points="243,93 264,99 232,99" />
<polygon fill="#d5d5d5" fill-opacity="0.501961" points="135,80 129,75 132,83" />
<polygon fill="#4b4b4b" fill-opacity="0.501961" points="41,106 77,108 60,101" />
<polygon fill="#3e3e3e" fill-opacity="0.501961" points="-13,78 11,84 -15,97" />
<polygon fill="#252525" fill-opacity="0.501961" points="41,97 42,102 50,99" />
<polygon fill="#2c2c2c" fill-opacity="0.501961" points="-7,175 -16,148 29,143" />
<polygon fill="#c3c3c3" fill-opacity="0.501961" points="144,90 131,90 148,100" />
<polygon fill="#2c2c2c" fill-opacity="0.501961" points="162,87 179,97 210,90" />
<polygon fill="#404040" fill-opacity="0.501961" points="151,83 184,80 149,95" />
<polygon fill="#686868" fill-opacity="0.501961" points="130,135 129,125 121,130" />
<polygon fill="#303030" fill-opacity="0.501961" points="266,131 252,131 267,152" />
<polygon fill="#171717" fill-opacity="0.501961" points="136,69 139,70 139,73" />
<polygon fill="#606060" fill-opacity="0.501961" points="118,143 109,143 122,157" />
<polygon fill="#333333" fill-opacity="0.501961" points="132,132 148,132 148,121" />
<polygon fill="#1d1d1d" fill-opacity="0.501961" points="53,175 62,158 100,160" />
<polygon fill="#343434" fill-opacity="0.501961" points="22,61 20,75 31,50" />
<polygon fill="#bdbdbd" fill-opacity="0.501961" points="150,68 150,76 141,68" />
<polygon fill="#1b1b1b" fill-opacity="0.501961" points="192,175 253,156 191,155" />
<polygon fill="#bebebe" fill-opacity="0.501961" points="138,66 135,60 134,72" />
<polygon fill="#707070" fill-opacity="0.501961" points="15,125 -2,129 -16,124" />
<polygon fill="#050505" fill-opacity="0.501961" points="269,106 239,107 244,114" />
<polygon fill="#363636" fill-opacity="0.501961" points="153,156 137,172 152,145" />
<polygon fill="#5b5b5b" fill-opacity="0.501961" points="90,123 76,133 76,123" />
<polygon fill="#383838" fill-opacity="0.501961" points="203,58 210,92 227,93" />
<polygon fill="#4f4f4f" fill-opacity="0.501961" points="109,45 111,-16 164,54" />
<polygon fill="#595959" fill-opacity="0.501961" points="120,155 148,175 200,172" />
<polygon fill="#1f1f1f" fill-opacity="0.501961" points="183,101 154,114 171,113" />
<polygon fill="#2c2c2c" fill-opacity="0.501961" points="61,6 52,19 64,9" />
<polygon fill="#404040" fill-opacity="0.501961" points="207,157 198,144 219,151" />
<polygon fill="#616161" fill-opacity="0.501961" points="128,118 139,116 132,115" />
<polygon fill="#7b7b7b" fill-opacity="0.501961" points="124,155 127,144 120,144" />
<polygon fill="#535353" fill-opacity="0.501961" points="109,39 184,43 144,-16" />
<polygon fill="#5b5b5b" fill-opacity="0.501961" points="134,122 142,120 149,123" />
<polygon fill="#414141" fill-opacity="0.501961" points="115,48 146,57 87,66" />
<polygon fill="#626262" fill-opacity="0.501961" points="119,101 124,99 123,106" />
<polygon fill="#5f5f5f" fill-opacity="0.501961" points="152,110 147,114 148,117" />
<polygon fill="#c0c0c0" fill-opacity="0.501961" points="147,108 130,101 149,100" />
<polygon fill="#5f5f5f" fill-opacity="0.501961" points="36,85 15,83 13,89" />
<polygon fill="#292929" fill-opacity="0.501961" points="24,130 8,134 21,124" />
<polygon fill="#9c9c9c" fill-opacity="0.501961" points="77,132 92,127 104,131" />
<polygon fill="#b7b7b7" fill-opacity="0.501961" points="126,105 131,111 136,112" />
<polygon fill="#262626" fill-opacity="0.501961" points="150,157 182,154 155,175" />
<polygon fill="#525252" fill-opacity="0.501961" points="78,144 82,142 80,128" />
<polygon fill="#636363" fill-opacity="0.501961" points="4,123 11,123 14,138" />
<polygon fill="#585858" fill-opacity="0.501961" points="6,103 -5,98 21,98" />
<polygon fill="#545454" fill-opacity="0.501961" points="50,88 83,86 65,81" />
<polygon fill="#575757" fill-opacity="0.501961" points="40,98 35,102 22,97" />
<polygon fill="#c5c5c5" fill-opacity="0.501961" points="105,111 94,106 101,121" />
<polygon fill="#636363" fill-opacity="0.501961" points="59,140 73,131 65,143" />
<polygon fill="#3d3d3d" fill-opacity="0.501961" points="177,114 198,113 177,107" />
<polygon fill="#747474" fill-opacity="0.501961" points="132,145 132,159 136,146" />
<polygon fill="#232323" fill-opacity="0.501961" points="60,155 54,144 66,145" />
<polygon fill="#414141" fill-opacity="0.501961" points="158,120 151,114 165,116" />
<polygon fill="#4f4f4f" fill-opacity="0.501961" points="62,108 33,107 50,102" />
<polygon fill="#292929" fill-opacity="0.501961" points="32,110 24,117 47,110" />
<polygon fill="#2a2a2a" fill-opacity="0.501961" points="143,116 142,129 147,116" />
<polygon fill="#b9b9b9" fill-opacity="0.501961" points="108,98 105,113 110,107" />
<polygon fill="#575757" fill-opacity="0.501961" points="21,124 51,118 25,115" />
<polygon fill="#191919" fill-opacity="0.501961" points="218,131 197,133 193,144" />
<polygon fill="#7b7b7b" fill-opacity="0.501961" points="79,152 83,134 90,134" />
<polygon fill="#313131" fill-opacity="0.501961" points="135,133 129,123 141,125" />
<polygon fill="#363636" fill-opacity="0.501961" points="124,133 118,142 129,143" />
<polygon fill="#5c5c5c" fill-opacity="0.501961" points="57,29 41,37 30,65" />
<polygon fill="#1e1e1e" fill-opacity="0.501961" points="242,106 255,102 231,100" />
<polygon fill="#060606" fill-opacity="0.501961" points="133,120 136,119 133,118" />
<polygon fill="#373737" fill-opacity="0.501961" points="115,63 125,92 102,69" />
<polygon fill="#2f2f2f" fill-opacity="0.501961" points="238,142 226,157 271,153" />
<polygon fill="#4f4f4f" fill-opacity="0.501961" points="80,115 48,115 65,121" />
<polygon fill="#696969" fill-opacity="0.501961" points="130,133 152,136 149,144" />
<polygon fill="#3f3f3f" fill-opacity="0.501961" points="189,132 194,142 156,142" />
<polygon fill="#3a3a3a" fill-opacity="0.501961" points="167,97 166,88 140,88" />
<polygon fill="#2a2a2a" fill-opacity="0.501961" points="4,108 -15,102 20,102" />
<polygon fill="#cbcbcb" fill-opacity="0.501961" points="82,103 86,120 91,106" />
<polygon fill="#c8c8c8" fill-opacity="0.501961" points="142,80 140,75 133,71" />
<polygon fill="#151515" fill-opacity="0.501961" points="235,121 229,114 204,121" />
<polygon fill="#060606" fill-opacity="0.501961" points="135,113 138,114 139,113" />
<polygon fill="#464646" fill-opacity="0.501961" points="100,83 98,93 96,83" />
<polygon fill="#a0a0a0" fill-opacity="0.501961" points="146,81 151,83 141,82" />
<polygon fill="#585858" fill-opacity="0.501961" points="7,114 -16,103 -9,115" />
<polygon fill="#393939" fill-opacity="0.501961" points="53,59 26,74 78,69" />
<polygon fill="#505050" fill-opacity="0.501961" points="75,95 74,91 84,94" />
<polygon fill="#212121" fill-opacity="0.501961" points="74,140 70,137 81,133" />
<polygon fill="#8a8a8a" fill-opacity="0.501961" points="137,67 138,69 132,69" />
<polygon fill="#1b1b1b" fill-opacity="0.501961" points="27,29 34,40 19,66" />
<polygon fill="#323232" fill-opacity="0.501961" points="-16,133 -15,166 10,133" />
<polygon fill="#0f0f0f" fill-opacity="0.501961" points="92,112 92,114 90,111" />
<polygon fill="#c6c6c6" fill-opacity="0.501961" points="97,104 91,104 88,112" />
<polygon fill="#959595" fill-opacity="0.501961" points="102,93 95,89 99,90" />
<polygon fill="#e1e1e1" fill-opacity="0.501961" points="103,105 95,103 103,111" />
<polygon fill="#292929" fill-opacity="0.501961" points="19,122 7,115 24,117" />
<polygon fill="#7d7d7d" fill-opacity="0.501961" points="90,157 112,153 108,148" />
<polygon fill="#111111" fill-opacity="0.501961" points="238,82 257,80 234,100" />
<polygon fill="#222222" fill-opacity="0.501961" points="153,106 179,113 158,115" />
<polygon fill="#3e3e3e" fill-opacity="0.501961" points="162,103 177,95 188,97" />
<polygon fill="#323232" fill-opacity="0.501961" points="230,122 189,122 218,131" />
<polygon fill="#515151" fill-opacity="0.501961" points="133,123 112,133 102,128" />
<polygon fill="#1a1a1a" fill-opacity="0.501961" points="171,143 161,156 154,144" />
<polygon fill="#494949" fill-opacity="0.501961" points="69,43 48,44 34,62" />
<polygon fill="#a6a6a6" fill-opacity="0.501961" points="99,143 89,154 83,148" />
<polygon fill="#474747" fill-opacity="0.501961" points="68,108 83,101 52,104" />
<polygon fill="#1c1c1c" fill-opacity="0.501961" points="157,133 179,124 147,123" />
<polygon fill="#848484" fill-opacity="0.501961" points="130,146 140,142 133,134" />
<polygon fill="#5a5a5a" fill-opacity="0.501961" points="150,121 143,121 145,123" />
<polygon fill="#171717" fill-opacity="0.501961" points="82,123 77,115 88,123" />
<polygon fill="#212121" fill-opacity="0.501961" points="201,105 216,106 221,96" />
<polygon fill="#b9b9b9" fill-opacity="0.501961" points="102,95 104,93 112,98" />
<polygon fill="#262626" fill-opacity="0.501961" points="39,133 64,124 31,125" />
<polygon fill="#494949" fill-opacity="0.501961" points="177,53 122,41 79,58" />
<polygon fill="#505050" fill-opacity="0.501961" points="58,94 47,92 43,96" />
<polygon fill="#545454" fill-opacity="0.501961" points="119,78 124,77 124,74" />
<polygon fill="#808080" fill-opacity="0.501961" points="129,109 125,104 126,101" />
<polygon fill="#242424" fill-opacity="0.501961" points="171,100 177,106 194,102" />
<polygon fill="#4d4d4d" fill-opacity="0.501961" points="113,144 104,130 104,139" />
<polygon fill="#1f1f1f" fill-opacity="0.501961" points="70,132 75,135 72,141" />
<polygon fill="#565656" fill-opacity="0.501961" points="44,144 27,143 35,141" />
<polygon fill="#202020" fill-opacity="0.501961" points="215,62 226,76 217,42" />
<polygon fill="#c2c2c2" fill-opacity="0.501961" points="135,64 145,71 139,63" />
<polygon fill="#cdcdcd" fill-opacity="0.501961" points="95,123 107,107 97,110" />
<polygon fill="#474747" fill-opacity="0.501961" points="114,95 123,99 113,101" />
<polygon fill="#565656" fill-opacity="0.501961" points="2,143 -8,155 -16,143" />
<polygon fill="#3a3a3a" fill-opacity="0.501961" points="200,132 199,122 185,124" />
<polygon fill="#606060" fill-opacity="0.501961" points="116,110 122,108 129,112" />
<polygon fill="#0c0c0c" fill-opacity="0.501961" points="137,99 137,97 141,98" />
<polygon fill="#c2c2c2" fill-opacity="0.501961" points="143,102 141,98 144,93" />
<polygon fill="#525252" fill-opacity="0.501961" points="13,114 13,108 -9,115" />
<polygon fill="#666666" fill-opacity="0.501961" points="38,139 8,137 21,133" />
<polygon fill="#272727" fill-opacity="0.501961" points="172,95 151,97 159,100" />
<polygon fill="#3c3c3c" fill-opacity="0.501961" points="122,115 120,106 109,114" />
<polygon fill="#b4b4b4" fill-opacity="0.501961" points="129,80 126,84 136,84" />
<polygon fill="#0d0d0d" fill-opacity="0.501961" points="146,111 150,111 144,113" />
<polygon fill="#1b1b1b" fill-opacity="0.501961" points="119,141 114,142 110,134" />
<polygon fill="#e1e1e1" fill-opacity="0.501961" points="131,103 136,109 130,109" />
<polygon fill="#2b2b2b" fill-opacity="0.501961" points="234,91 209,99 226,87" />
<polygon fill="#1b1b1b" fill-opacity="0.501961" points="72,128 67,123 72,123" />
<polygon fill="#6e6e6e" fill-opacity="0.501961" points="82,135 84,130 77,130" />
<polygon fill="#101010" fill-opacity="0.501961" points="108,114 116,116 104,121" />
<polygon fill="#0d0d0d" fill-opacity="0.501961" points="13,65 -16,82 13,79" />
<polygon fill="#313131" fill-opacity="0.501961" points="207,80 196,72 175,78" />
<polygon fill="#878787" fill-opacity="0.501961" points="89,128 98,125 86,124" />
<polygon fill="#4c4c4c" fill-opacity="0.501961" points="106,85 123,86 121,81" />
<polygon fill="#878787" fill-opacity="0.501961" points="141,110 137,112 136,111" />
<polygon fill="#d4d4d4" fill-opacity="0.501961" points="132,103 126,100 127,97" />
<polygon fill="#575757" fill-opacity="0.501961" points="140,112 137,119 143,122" />
<polygon fill="#c6c6c6" fill-opacity="0.501961" points="148,79 137,77 135,83" />
</g>
</svg>