<svg xmlns="http://www.w3.org/2000/svg" version="1.1" width="1024" height="640">
<rect x="0" y="0" width="1024" height="640" fill="#63665a" />
<g transform="scale(4.000000) translate(0.5 0.5)">
<polygon fill="#ffffff" fill-opacity="0.501961" points="164,-16 163,74 23,64" />
<polygon fill="#000712" fill-opacity="0.501961" points="260,31 -1,117 268,103" />
<polygon fill="#ffffff" fill-opacity="0.501961" points="107,44 162,-16 154,82" />
<polygon fill="#000912" fill-opacity="0.501961" points="-16,121 26,26 50,117" />
<polygon fill="#dff1f4" fill-opacity="0.501961" points="48,93 63,7 30,7" />
<polygon fill="#09232c" fill-opacity="0.501961" points="250,175 271,17 185,-15" />
<polygon fill="#b47e31" fill-opacity="0.501961" points="207,163 237,103 -9,124" />
<polygon fill="#001018" fill-opacity="0.501961" points="107,38 90,115 111,116" />
<polygon fill="#eabe67" fill-opacity="0.501961" points="46,140 -16,124 116,115" />
<polygon fill="#594328" fill-opacity="0.501961" points="-16,136 109,175 271,110" />
<polygon fill="#000001" fill-opacity="0.501961" points="103,56 102,6 112,25" />
<polygon fill="#ffffff" fill-opacity="0.501961" points="126,-8 142,87 170,13" />
<polygon fill="#ffdf74" fill-opacity="0.501961" points="158,124 110,116 201,106" />
<polygon fill="#0e292c" fill-opacity="0.501961" points="-16,120 66,74 144,111" />
<polygon fill="#091c1e" fill-opacity="0.501961" points="91,44 60,45 62,60" />
<polygon fill="#ddeced" fill-opacity="0.501961" points="194,17 153,39 194,31" />
<polygon fill="#ffffff" fill-opacity="0.501961" points="100,70 65,57 102,44" />
<polygon fill="#3b311c" fill-opacity="0.501961" points="124,82 126,35 135,72" />
<polygon fill="#d4e5e8" fill-opacity="0.501961" points="248,20 254,30 230,43" />
<polygon fill="#e4e9e1" fill-opacity="0.501961" points="32,59 61,33 59,82" />
<polygon fill="#7a8167" fill-opacity="0.501961" points="129,73 142,94 200,51" />
<polygon fill="#ebffff" fill-opacity="0.501961" points="3,20 -16,6 16,6" />
<polygon fill="#ffffff" fill-opacity="0.501961" points="109,63 108,11 126,71" />
<polygon fill="#001521" fill-opacity="0.501961" points="-16,175 43,171 85,130" />
<polygon fill="#122026" fill-opacity="0.501961" points="49,108 66,128 65,53" />
<polygon fill="#ffffff" fill-opacity="0.501961" points="132,11 128,64 172,62" />
<polygon fill="#17313c" fill-opacity="0.501961" points="231,50 247,-4 155,57" />
<polygon fill="#314240" fill-opacity="0.501961" points="86,29 3,30 36,44" />
<polygon fill="#f9ffff" fill-opacity="0.501961" points="271,58 248,-3 271,3" />
<polygon fill="#ffffff" fill-opacity="0.501961" points="100,40 101,28 61,43" />
<polygon fill="#263838" fill-opacity="0.501961" points="-1,42 50,16 -11,19" />
<polygon fill="#d3dcd2" fill-opacity="0.501961" points="19,54 -16,76 -12,47" />
<polygon fill="#edf7f4" fill-opacity="0.501961" points="35,35 65,21 27,24" />
<polygon fill="#001d2f" fill-opacity="0.501961" points="54,2 64,16 103,-9" />
<polygon fill="#533a23" fill-opacity="0.501961" points="235,100 271,155 196,175" />
<polygon fill="#605a4e" fill-opacity="0.501961" points="127,-16 120,12 128,39" />
<polygon fill="#2c4041" fill-opacity="0.501961" points="110,-2 90,31 67,37" />
<polygon fill="#969c94" fill-opacity="0.501961" points="162,3 181,31 165,52" />
<polygon fill="#879791" fill-opacity="0.501961" points="200,33 183,55 199,61" />
<polygon fill="#273323" fill-opacity="0.501961" points="57,54 69,47 45,52" />
<polygon fill="#0e262c" fill-opacity="0.501961" points="232,106 236,-16 185,107" />
<polygon fill="#f2f8eb" fill-opacity="0.501961" points="67,49 99,72 68,65" />
<polygon fill="#00060d" fill-opacity="0.501961" points="62,66 61,29 67,47" />
<polygon fill="#ad803a" fill-opacity="0.501961" points="45,151 -16,154 89,120" />
<polygon fill="#102432" fill-opacity="0.501961" points="126,112 87,175 111,168" />
<polygon fill="#d0dad6" fill-opacity="0.501961" points="124,-16 112,12 123,21" />
<polygon fill="#b58e4b" fill-opacity="0.501961" points="73,144 117,115 96,154" />
<polygon fill="#293935" fill-opacity="0.501961" points="45,101 111,64 132,103" />
<polygon fill="#ffffff" fill-opacity="0.501961" points="32,46 56,51 60,37" />
<polygon fill="#0a2a37" fill-opacity="0.501961" points="5,-4 26,18 35,2" />
<polygon fill="#001f27" fill-opacity="0.501961" points="2,65 -10,127 35,87" />
<polygon fill="#f9c565" fill-opacity="0.501961" points="19,136 -16,124 25,119" />
<polygon fill="#d0e5ec" fill-opacity="0.501961" points="45,-15 57,22 43,11" />
<polygon fill="#2e464e" fill-opacity="0.501961" points="225,33 260,4 154,2" />
<polygon fill="#7f8f82" fill-opacity="0.501961" points="37,48 47,82 34,87" />
<polygon fill="#83a1ab" fill-opacity="0.501961" points="101,8 103,-15 67,25" />
<polygon fill="#d0e2e8" fill-opacity="0.501961" points="-7,48 7,41 17,44" />
<polygon fill="#fff8b8" fill-opacity="0.501961" points="31,121 45,127 64,119" />
<polygon fill="#1d2d31" fill-opacity="0.501961" points="178,80 193,44 177,24" />
<polygon fill="#293831" fill-opacity="0.501961" points="85,57 61,46 84,45" />
<polygon fill="#ffffff" fill-opacity="0.501961" points="180,38 136,19 141,37" />
<polygon fill="#f0ca72" fill-opacity="0.501961" points="210,108 156,109 183,118" />
<polygon fill="#242327" fill-opacity="0.501961" points="186,152 132,174 153,151" />
<polygon fill="#f1ffff" fill-opacity="0.501961" points="23,15 5,14 14,17" />
<polygon fill="#a97c3f" fill-opacity="0.501961" points="173,138 247,141 191,156" />
<polygon fill="#ffe283" fill-opacity="0.501961" points="97,119 67,115 69,124" />
<polygon fill="#fffffe" fill-opacity="0.501961" points="128,20 130,60 168,51" />
<polygon fill="#f8fdf4" fill-opacity="0.501961" points="98,41 89,30 63,46" />
<polygon fill="#a8b6b1" fill-opacity="0.501961" points="215,21 209,36 208,24" />
<polygon fill="#fffffb" fill-opacity="0.501961" points="121,80 122,39 110,50" />
<polygon fill="#1c2a2b" fill-opacity="0.501961" points="123,100 141,109 126,54" />
<polygon fill="#3a3b30" fill-opacity="0.501961" points="158,38 174,52 165,37" />
<polygon fill="#46564f" fill-opacity="0.501961" points="150,3 109,-7 150,-16" />
<polygon fill="#031e2a" fill-opacity="0.501961" points="63,32 76,-16 62,-16" />
<polygon fill="#1b2123" fill-opacity="0.501961" points="81,171 -16,160 46,149" />
<polygon fill="#ffffff" fill-opacity="0.501961" points="101,47 88,47 101,75" />
<polygon fill="#353635" fill-opacity="0.501961" points="143,134 193,114 188,131" />
<polygon fill="#f9fefb" fill-opacity="0.501961" points="41,67 59,54 61,74" />
<polygon fill="#7b9395" fill-opacity="0.501961" points="67,6 69,36 77,4" />
<polygon fill="#d0a757" fill-opacity="0.501961" points="142,125 152,108 91,123" />
<polygon fill="#0f151a" fill-opacity="0.501961" points="101,80 104,43 109,69" />
<polygon fill="#ffffff" fill-opacity="0.501961" points="194,28 194,21 178,33" />
<polygon fill="#b7cdc8" fill-opacity="0.501961" points="240,42 244,47 249,43" />
<polygon fill="#3e3f37" fill-opacity="0.501961" points="99,27 125,19 110,29" />
<polygon fill="#1c3e4a" fill-opacity="0.501961" points="44,9 58,6 36,2" />
<polygon fill="#263733" fill-opacity="0.501961" points="30,22 31,14 53,19" />
<polygon fill="#293732" fill-opacity="0.501961" points="26,100 35,31 12,18" />
<polygon fill="#97b1b4" fill-opacity="0.501961" points="193,7 200,11 199,-4" />
<polygon fill="#253132" fill-opacity="0.501961" points="101,126 67,138 88,122" />
<polygon fill="#182b2c" fill-opacity="0.501961" points="244,50 162,66 187,108" />
<polygon fill="#e3e8da" fill-opacity="0.501961" points="187,57 194,58 181,49" />
<polygon fill="#a47c4b" fill-opacity="0.501961" points="126,135 171,142 115,150" />
<polygon fill="#031720" fill-opacity="0.501961" points="241,38 190,45 224,51" />
<polygon fill="#122931" fill-opacity="0.501961" points="243,-5 214,18 169,17" />
<polygon fill="#534b2d" fill-opacity="0.501961" points="111,35 119,33 119,37" />
<polygon fill="#d6e0dc" fill-opacity="0.501961" points="39,36 59,33 52,38" />
<polygon fill="#ffffff" fill-opacity="0.501961" points="67,57 66,50 74,53" />
<polygon fill="#061a20" fill-opacity="0.501961" points="96,10 106,19 81,12" />
<polygon fill="#213233" fill-opacity="0.501961" points="84,102 64,121 -6,70" />
<polygon fill="#303f3d" fill-opacity="0.501961" points="-5,60 25,41 25,51" />
<polygon fill="#858261" fill-opacity="0.501961" points="112,63 117,86 124,79" />
<polygon fill="#edf0e7" fill-opacity="0.501961" points="-16,48 -16,58 16,52" />
<polygon fill="#11131c" fill-opacity="0.501961" points="128,16 124,16 127,1" />
<polygon fill="#918f80" fill-opacity="0.501961" points="147,86 162,67 135,68" />
<polygon fill="#0c161f" fill-opacity="0.501961" points="108,29 102,10 102,46" />
<polygon fill="#ffffff" fill-opacity="0.501961" points="32,-2 26,-16 27,2" />
<polygon fill="#ced8cf" fill-opacity="0.501961" points="193,48 201,54 200,47" />
<polygon fill="#feffff" fill-opacity="0.501961" points="254,0 254,20 267,-15" />
<polygon fill="#b9924c" fill-opacity="0.501961" points="229,112 202,105 167,121" />
<polygon fill="#fdffff" fill-opacity="0.501961" points="56,9 60,19 41,11" />
<polygon fill="#d5d8c0" fill-opacity="0.501961" points="177,60 149,67 169,55" />
<polygon fill="#34484a" fill-opacity="0.501961" points="92,-2 81,11 50,12" />
<polygon fill="#000411" fill-opacity="0.501961" points="175,3 195,-4 159,-6" />
<polygon fill="#7a8672" fill-opacity="0.501961" points="87,63 67,59 74,64" />
<polygon fill="#b4beb7" fill-opacity="0.501961" points="93,19 85,26 102,19" />
<polygon fill="#000513" fill-opacity="0.501961" points="109,-16 98,-16 106,14" />
<polygon fill="#a5bec1" fill-opacity="0.501961" points="207,-16 206,7 228,-16" />
<polygon fill="#7a5e3a" fill-opacity="0.501961" points="142,165 128,128 171,115" />
<polygon fill="#102125" fill-opacity="0.501961" points="186,31 177,52 194,35" />
<polygon fill="#ffffff" fill-opacity="0.501961" points="169,25 143,11 131,26" />
<polygon fill="#e0e9e7" fill-opacity="0.501961" points="252,31 241,30 234,38" />
<polygon fill="#394841" fill-opacity="0.501961" points="66,79 36,82 26,124" />
<polygon fill="#e3e5db" fill-opacity="0.501961" points="44,51 47,41 30,50" />
<polygon fill="#c7cfc8" fill-opacity="0.501961" points="125,22 107,5 110,14" />
<polygon fill="#b2bbb8" fill-opacity="0.501961" points="183,7 187,12 172,11" />
<polygon fill="#0b2029" fill-opacity="0.501961" points="214,51 201,0 200,78" />
<polygon fill="#cee6f1" fill-opacity="0.501961" points="32,9 35,4 46,4" />
<polygon fill="#4c5a55" fill-opacity="0.501961" points="45,39 77,26 81,36" />
<polygon fill="#6a7d7e" fill-opacity="0.501961" points="218,17 220,23 242,17" />
<polygon fill="#ebf9f2" fill-opacity="0.501961" points="86,19 84,15 77,17" />
<polygon fill="#131f1b" fill-opacity="0.501961" points="44,39 28,35 39,43" />
<polygon fill="#28362f" fill-opacity="0.501961" points="11,81 42,63 13,60" />
<polygon fill="#748683" fill-opacity="0.501961" points="240,57 244,56 239,42" />
<polygon fill="#f7ffff" fill-opacity="0.501961" points="115,3 85,-16 107,-12" />
<polygon fill="#303431" fill-opacity="0.501961" points="271,97 264,165 225,129" />
<polygon fill="#0e282e" fill-opacity="0.501961" points="248,70 261,56 251,10" />
<polygon fill="#4f554d" fill-opacity="0.501961" points="178,26 159,28 166,32" />
<polygon fill="#ffffff" fill-opacity="0.501961" points="4,60 -11,54 -16,83" />
<polygon fill="#9ea9a6" fill-opacity="0.501961" points="44,72 60,68 57,83" />
<polygon fill="#9ea8a2" fill-opacity="0.501961" points="8,34 8,28 -4,33" />
<polygon fill="#1e1f1d" fill-opacity="0.501961" points="0,145 8,131 9,146" />
<polygon fill="#cfe3de" fill-opacity="0.501961" points="24,22 18,15 23,16" />
<polygon fill="#15232b" fill-opacity="0.501961" points="62,57 60,126 77,102" />
<polygon fill="#66533b" fill-opacity="0.501961" points="249,107 195,118 218,150" />
<polygon fill="#b7c5c2" fill-opacity="0.501961" points="193,15 183,33 183,21" />
<polygon fill="#263b40" fill-opacity="0.501961" points="85,13 102,-2 97,-12" />
<polygon fill="#c4d9e6" fill-opacity="0.501961" points="-13,2 21,8 -10,11" />
<polygon fill="#a6a996" fill-opacity="0.501961" points="95,75 77,72 77,77" />
<polygon fill="#112931" fill-opacity="0.501961" points="25,14 34,4 7,12" />
<polygon fill="#3d433c" fill-opacity="0.501961" points="186,56 181,49 158,55" />
<polygon fill="#0f1d1b" fill-opacity="0.501961" points="20,-16 -16,3 22,2" />
<polygon fill="#ffffff" fill-opacity="0.501961" points="91,29 101,37 85,41" />
<polygon fill="#ffffff" fill-opacity="0.501961" points="132,-1 166,10 146,22" />
<polygon fill="#eaf3f1" fill-opacity="0.501961" points="50,20 57,27 27,29" />
<polygon fill="#4f5f5d" fill-opacity="0.501961" points="43,36 36,28 47,31" />
<polygon fill="#3c4438" fill-opacity="0.501961" points="96,27 81,32 71,25" />
<polygon fill="#263b40" fill-opacity="0.501961" points="226,19 250,29 210,29" />
<polygon fill="#545b46" fill-opacity="0.501961" points="79,43 86,51 93,44" />
<polygon fill="#343a37" fill-opacity="0.501961" points="97,144 121,141 126,116" />
<polygon fill="#f9fffb" fill-opacity="0.501961" points="98,6 93,8 91,12" />
<polygon fill="#2f4144" fill-opacity="0.501961" points="187,22 173,26 178,17" />
<polygon fill="#efcb75" fill-opacity="0.501961" points="168,107 131,115 171,117" />
<polygon fill="#1a2e34" fill-opacity="0.501961" points="24,46 1,47 19,53" />
<polygon fill="#daecef" fill-opacity="0.501961" points="71,26 68,23 65,30" />
<polygon fill="#1b3333" fill-opacity="0.501961" points="157,110 105,108 192,87" />
<polygon fill="#19242b" fill-opacity="0.501961" points="117,151 139,160 111,157" />
<polygon fill="#4e3e30" fill-opacity="0.501961" points="266,155 204,146 220,175" />
<polygon fill="#d39738" fill-opacity="0.501961" points="26,130 -1,134 -6,126" />
<polygon fill="#a1aeac" fill-opacity="0.501961" points="3,44 6,38 25,45" />
<polygon fill="#616c6a" fill-opacity="0.501961" points="115,2 106,12 133,4" />
<polygon fill="#959b8b" fill-opacity="0.501961" points="29,62 44,48 39,63" />
<polygon fill="#1d2e2f" fill-opacity="0.501961" points="35,73 -15,121 45,118" />
<polygon fill="#eccc83" fill-opacity="0.501961" points="21,120 34,130 -2,123" />
<polygon fill="#00131e" fill-opacity="0.501961" points="62,35 67,26 62,9" />
<polygon fill="#000c11" fill-opacity="0.501961" points="188,52 193,55 196,51" />
<polygon fill="#fdfff8" fill-opacity="0.501961" points="124,54 108,30 111,62" />
<polygon fill="#ffffff" fill-opacity="0.501961" points="101,67 98,50 84,69" />
<polygon fill="#a58245" fill-opacity="0.501961" points="43,129 92,121 38,149" />
<polygon fill="#474e3b" fill-opacity="0.501961" points="72,65 82,99 67,77" />
<polygon fill="#d9ded2" fill-opacity="0.501961" points="174,43 162,45 168,42" />
<polygon fill="#16282c" fill-opacity="0.501961" points="268,105 218,22 189,104" />
<polygon fill="#ced2c9" fill-opacity="0.501961" points="121,21 125,12 117,2" />
<polygon fill="#122225" fill-opacity="0.501961" points="15,28 13,18 -15,22" />
<polygon fill="#8b6d40" fill-opacity="0.501961" points="60,152 100,121 106,149" />
<polygon fill="#c3974b" fill-opacity="0.501961" points="207,141 192,153 184,138" />
<polygon fill="#f3ffff" fill-opacity="0.501961" points="250,-16 251,6 265,-16" />
<polygon fill="#575a43" fill-opacity="0.501961" points="150,94 127,55 136,101" />
<polygon fill="#7a8b87" fill-opacity="0.501961" points="28,21 39,18 25,15" />
<polygon fill="#827d69" fill-opacity="0.501961" points="127,9 133,13 138,12" />
<polygon fill="#263333" fill-opacity="0.501961" points="125,100 101,50 107,107" />
<polygon fill="#0c1f22" fill-opacity="0.501961" points="171,-9 180,-16 178,13" />
<polygon fill="#7f5e2f" fill-opacity="0.501961" points="24,153 16,135 2,155" />
<polygon fill="#1d2e32" fill-opacity="0.501961" points="144,107 94,83 99,117" />
<polygon fill="#86663e" fill-opacity="0.501961" points="133,142 189,160 184,130" />
<polygon fill="#efffff" fill-opacity="0.501961" points="44,-5 51,3 44,3" />
<polygon fill="#2b3328" fill-opacity="0.501961" points="36,135 34,131 44,130" />
<polygon fill="#dcd6b8" fill-opacity="0.501961" points="135,41 109,23 121,39" />
<polygon fill="#b6c5c2" fill-opacity="0.501961" points="95,10 100,-2 101,7" />
<polygon fill="#6e6c56" fill-opacity="0.501961" points="160,2 166,11 172,0" />
<polygon fill="#ffffff" fill-opacity="0.501961" points="198,30 185,23 191,29" />
<polygon fill="#979885" fill-opacity="0.501961" points="66,32 80,31 66,39" />
<polygon fill="#424c3c" fill-opacity="0.501961" points="208,89 145,88 162,74" />
<polygon fill="#877960" fill-opacity="0.501961" points="128,26 127,18 109,30" />
<polygon fill="#333a37" fill-opacity="0.501961" points="73,133 45,148 68,149" />
<polygon fill="#e5feff" fill-opacity="0.501961" points="258,-7 245,3 253,-9" />
<polygon fill="#f7faf0" fill-opacity="0.501961" points="93,68 73,62 72,69" />
<polygon fill="#15252a" fill-opacity="0.501961" points="66,34 64,46 59,31" />
<polygon fill="#6b6651" fill-opacity="0.501961" points="167,15 163,25 172,17" />
<polygon fill="#d7e0d3" fill-opacity="0.501961" points="190,59 197,55 187,56" />
<polygon fill="#0a2027" fill-opacity="0.501961" points="227,20 242,4 225,7" />
<polygon fill="#293633" fill-opacity="0.501961" points="193,109 159,64 203,79" />
<polygon fill="#041922" fill-opacity="0.501961" points="79,51 81,46 64,49" />
<polygon fill="#575d53" fill-opacity="0.501961" points="154,38 177,38 162,43" />
<polygon fill="#7d9293" fill-opacity="0.501961" points="200,18 201,9 196,4" />
<polygon fill="#f0c678" fill-opacity="0.501961" points="32,121 61,124 28,130" />
<polygon fill="#745f3b" fill-opacity="0.501961" points="116,57 126,59 122,60" />
<polygon fill="#fbfdfa" fill-opacity="0.501961" points="176,35 141,24 127,40" />
<polygon fill="#001320" fill-opacity="0.501961" points="19,36 3,34 5,38" />
<polygon fill="#192c34" fill-opacity="0.501961" points="90,18 97,9 107,20" />
<polygon fill="#5b5a45" fill-opacity="0.501961" points="163,54 153,54 158,57" />
<polygon fill="#c7d0cc" fill-opacity="0.501961" points="41,32 34,36 44,35" />
<polygon fill="#687c7f" fill-opacity="0.501961" points="241,20 240,9 233,30" />
<polygon fill="#f2fbfa" fill-opacity="0.501961" points="42,45 59,47 60,38" />
<polygon fill="#08212b" fill-opacity="0.501961" points="241,16 254,6 241,28" />
<polygon fill="#0e2228" fill-opacity="0.501961" points="202,23 218,20 184,7" />
<polygon fill="#bc8f4c" fill-opacity="0.501961" points="142,146 123,152 119,147" />
<polygon fill="#f6f8eb" fill-opacity="0.501961" points="126,29 112,34 114,26" />
<polygon fill="#000a0d" fill-opacity="0.501961" points="6,57 -8,58 -9,53" />
<polygon fill="#b1bcb5" fill-opacity="0.501961" points="200,42 191,40 198,37" />
<polygon fill="#495d59" fill-opacity="0.501961" points="40,2 36,10 44,9" />
<polygon fill="#fefffd" fill-opacity="0.501961" points="129,18 129,55 158,0" />
<polygon fill="#182829" fill-opacity="0.501961" points="4,44 4,35 -16,38" />
<polygon fill="#6c7a77" fill-opacity="0.501961" points="68,5 65,16 79,11" />
<polygon fill="#788d8f" fill-opacity="0.501961" points="222,22 223,14 218,21" />
<polygon fill="#d3aa59" fill-opacity="0.501961" points="112,125 85,122 118,115" />
<polygon fill="#909d99" fill-opacity="0.501961" points="55,77 38,87 41,72" />
<polygon fill="#5f7980" fill-opacity="0.501961" points="11,12 22,7 24,-1" />
<polygon fill="#f3f4f0" fill-opacity="0.501961" points="57,62 34,70 54,55" />
<polygon fill="#fdfffa" fill-opacity="0.501961" points="78,15 88,14 83,16" />
<polygon fill="#d8d6b8" fill-opacity="0.501961" points="86,47 91,47 81,57" />
<polygon fill="#ffffff" fill-opacity="0.501961" points="111,47 116,49 108,66" />
<polygon fill="#d9dac7" fill-opacity="0.501961" points="162,54 155,40 161,40" />
<polygon fill="#cededf" fill-opacity="0.501961" points="45,8 37,5 32,7" />
<polygon fill="#0d2732" fill-opacity="0.501961" points="194,3 205,7 206,-1" />
<polygon fill="#2d3a31" fill-opacity="0.501961" points="225,103 226,81 266,62" />
<polygon fill="#b6c3c2" fill-opacity="0.501961" points="244,26 246,22 256,32" />
<polygon fill="#0f242c" fill-opacity="0.501961" points="214,16 252,56 215,38" />
<polygon fill="#3f463a" fill-opacity="0.501961" points="126,95 90,71 112,72" />
<polygon fill="#ffffff" fill-opacity="0.501961" points="124,11 116,12 121,13" />
<polygon fill="#38443b" fill-opacity="0.501961" points="44,99 9,49 36,66" />
<polygon fill="#021c26" fill-opacity="0.501961" points="77,24 77,21 73,18" />
<polygon fill="#ffffff" fill-opacity="0.501961" points="132,33 146,60 164,64" />
<polygon fill="#6a5939" fill-opacity="0.501961" points="114,127 96,127 106,140" />
<polygon fill="#f8f8f3" fill-opacity="0.501961" points="45,50 56,68 41,70" />
<polygon fill="#444639" fill-opacity="0.501961" points="5,31 37,36 18,17" />
<polygon fill="#ffffff" fill-opacity="0.501961" points="124,3 122,5 121,4" />
<polygon fill="#b2beb4" fill-opacity="0.501961" points="165,4 159,3 158,7" />
<polygon fill="#ffffff" fill-opacity="0.501961" points="108,23 116,20 111,19" />
<polygon fill="#86643a" fill-opacity="0.501961" points="184,161 220,154 227,130" />
<polygon fill="#878c81" fill-opacity="0.501961" points="137,84 159,80 158,63" />
<polygon fill="#56655d" fill-opacity="0.501961" points="45,91 65,77 36,83" />
<polygon fill="#21282c" fill-opacity="0.501961" points="89,154 38,166 68,175" />
<polygon fill="#cddedb" fill-opacity="0.501961" points="61,14 60,6 57,19" />
<polygon fill="#ccd4cc" fill-opacity="0.501961" points="247,54 240,56 244,56" />
<polygon fill="#061a20" fill-opacity="0.501961" points="22,12 26,4 26,20" />
<polygon fill="#f5faf5" fill-opacity="0.501961" points="121,11 118,15 107,13" />
<polygon fill="#76776b" fill-opacity="0.501961" points="113,17 126,17 125,12" />
<polygon fill="#809392" fill-opacity="0.501961" points="209,31 214,39 213,32" />
<polygon fill="#ffffff" fill-opacity="0.501961" points="249,34 242,33 244,30" />
<polygon fill="#253433" fill-opacity="0.501961" points="20,13 35,10 25,8" />
<polygon fill="#12272f" fill-opacity="0.501961" points="191,33 243,39 231,52" />
<polygon fill="#1a292e" fill-opacity="0.501961" points="176,163 162,152 131,165" />
<polygon fill="#e9efeb" fill-opacity="0.501961" points="30,23 57,23 32,30" />
<polygon fill="#adc2cb" fill-opacity="0.501961" points="-9,13 -16,23 20,13" />
<polygon fill="#001116" fill-opacity="0.501961" points="1,14 -6,7 -16,24" />
<polygon fill="#263431" fill-opacity="0.501961" points="42,20 46,16 52,20" />
<polygon fill="#8c9389" fill-opacity="0.501961" points="175,25 170,27 171,35" />
<polygon fill="#a4b4b1" fill-opacity="0.501961" points="55,28 44,25 40,30" />
<polygon fill="#212d2e" fill-opacity="0.501961" points="112,11 115,7 111,4" />
<polygon fill="#cedddb" fill-opacity="0.501961" points="92,23 93,20 101,27" />
<polygon fill="#3d4947" fill-opacity="0.501961" points="193,40 177,32 176,41" />
<polygon fill="#192b2e" fill-opacity="0.501961" points="89,24 82,24 98,8" />
<polygon fill="#24383b" fill-opacity="0.501961" points="79,13 88,0 68,12" />
<polygon fill="#252c36" fill-opacity="0.501961" points="172,138 183,135 173,141" />
<polygon fill="#fdfefd" fill-opacity="0.501961" points="69,57 71,51 90,61" />
<polygon fill="#0d2329" fill-opacity="0.501961" points="230,6 239,5 237,24" />
<polygon fill="#041d25" fill-opacity="0.501961" points="58,6 47,5 68,-1" />
<polygon fill="#9b7138" fill-opacity="0.501961" points="236,155 245,151 251,155" />
<polygon fill="#2e3831" fill-opacity="0.501961" points="43,19 29,19 41,23" />
<polygon fill="#1d2828" fill-opacity="0.501961" points="65,52 61,67 66,68" />
<polygon fill="#5e6049" fill-opacity="0.501961" points="67,67 82,94 80,69" />
<polygon fill="#284145" fill-opacity="0.501961" points="230,43 247,41 260,28" />
<polygon fill="#cee3e1" fill-opacity="0.501961" points="198,8 194,4 195,8" />
<polygon fill="#c7a35a" fill-opacity="0.501961" points="193,116 186,106 212,111" />
<polygon fill="#c5d3d7" fill-opacity="0.501961" points="3,46 15,40 13,46" />
<polygon fill="#445244" fill-opacity="0.501961" points="31,55 35,49 34,63" />
<polygon fill="#223036" fill-opacity="0.501961" points="71,136 75,141 90,123" />
<polygon fill="#162c31" fill-opacity="0.501961" points="20,43 30,34 12,43" />
<polygon fill="#ffffff" fill-opacity="0.501961" points="135,2 129,-2 129,1" />
<polygon fill="#778989" fill-opacity="0.501961" points="209,-1 208,7 213,8" />
<polygon fill="#fcfcfb" fill-opacity="0.501961" points="152,68 145,-6 128,55" />
<polygon fill="#373534" fill-opacity="0.501961" points="199,128 211,119 199,118" />
<polygon fill="#d0c8a2" fill-opacity="0.501961" points="132,57 129,60 130,66" />
<polygon fill="#1a3037" fill-opacity="0.501961" points="52,30 61,29 71,36" />
<polygon fill="#837045" fill-opacity="0.501961" points="228,105 213,122 239,109" />
<polygon fill="#4b5e5b" fill-opacity="0.501961" points="62,45 53,53 70,46" />
<polygon fill="#ffffff" fill-opacity="0.501961" points="210,26 208,24 211,24" />
<polygon fill="#162c32" fill-opacity="0.501961" points="245,23 253,13 239,14" />
<polygon fill="#2c3437" fill-opacity="0.501961" points="135,129 112,130 127,135" />
<polygon fill="#faffff" fill-opacity="0.501961" points="64,41 75,37 86,40" />
<polygon fill="#aeaa96" fill-opacity="0.501961" points="143,66 164,74 157,67" />
<polygon fill="#c8d7d3" fill-opacity="0.501961" points="234,36 239,33 239,37" />
<polygon fill="#202e2e" fill-opacity="0.501961" points="14,64 26,31 36,120" />
<polygon fill="#5d7a83" fill-opacity="0.501961" points="232,7 243,-3 236,-16" />
<polygon fill="#fefffe" fill-opacity="0.501961" points="129,12 128,21 159,14" />
<polygon fill="#2b3332" fill-opacity="0.501961" points="225,121 232,141 266,131" />
<polygon fill="#fffffe" fill-opacity="0.501961" points="98,46 96,70 86,60" />
<polygon fill="#d0e0e3" fill-opacity="0.501961" points="5,15 9,7 15,5" />
<polygon fill="#bec3b6" fill-opacity="0.501961" points="29,60 37,57 42,61" />
<polygon fill="#474136" fill-opacity="0.501961" points="137,128 156,129 146,138" />
<polygon fill="#4f6468" fill-opacity="0.501961" points="227,30 228,9 231,19" />
<polygon fill="#343632" fill-opacity="0.501961" points="162,128 189,131 185,118" />
<polygon fill="#9ba396" fill-opacity="0.501961" points="137,8 130,3 142,7" />
<polygon fill="#fbfcf9" fill-opacity="0.501961" points="109,49 117,70 125,41" />
<polygon fill="#2a3939" fill-opacity="0.501961" points="107,4 100,14 107,26" />
<polygon fill="#314344" fill-opacity="0.501961" points="39,15 55,20 42,20" />
<polygon fill="#ffffff" fill-opacity="0.501961" points="101,30 86,34 99,39" />
<polygon fill="#34302f" fill-opacity="0.501961" points="187,159 250,175 256,156" />
<polygon fill="#101e21" fill-opacity="0.501961" points="76,34 69,30 75,27" />
<polygon fill="#9b743e" fill-opacity="0.501961" points="74,160 72,151 61,149" />
<polygon fill="#c9d7d2" fill-opacity="0.501961" points="55,47 60,51 60,42" />
<polygon fill="#08202b" fill-opacity="0.501961" points="-16,133 10,110 5,65" />
<polygon fill="#be8938" fill-opacity="0.501961" points="167,115 136,120 154,123" />
<polygon fill="#24373b" fill-opacity="0.501961" points="194,27 217,32 204,24" />
<polygon fill="#1c2b2d" fill-opacity="0.501961" points="175,23 180,12 191,10" />
<polygon fill="#e7efed" fill-opacity="0.501961" points="48,26 33,23 60,21" />
<polygon fill="#12282f" fill-opacity="0.501961" points="44,30 44,34 50,34" />
<polygon fill="#142a30" fill-opacity="0.501961" points="213,86 184,108 171,95" />
<polygon fill="#3f4c49" fill-opacity="0.501961" points="191,53 182,62 173,58" />
<polygon fill="#202e30" fill-opacity="0.501961" points="177,43 175,52 201,44" />
<polygon fill="#435458" fill-opacity="0.501961" points="16,0 2,6 15,6" />
<polygon fill="#2a3533" fill-opacity="0.501961" points="145,110 127,63 117,111" />
<polygon fill="#fdffff" fill-opacity="0.501961" points="192,26 185,24 178,26" />
<polygon fill="#7a8d8e" fill-opacity="0.501961" points="78,17 68,20 77,9" />
<polygon fill="#4b4f40" fill-opacity="0.501961" points="25,63 17,46 20,72" />
<polygon fill="#3c4743" fill-opacity="0.501961" points="174,13 184,30 177,26" />
<polygon fill="#b5ccca" fill-opacity="0.501961" points="95,3 96,-9 90,-16" />
<polygon fill="#a9b2af" fill-opacity="0.501961" points="60,81 59,70 42,72" />
<polygon fill="#4d4d39" fill-opacity="0.501961" points="91,46 98,45 90,44" />
<polygon fill="#a88a47" fill-opacity="0.501961" points="89,137 69,143 85,145" />
<polygon fill="#b7baa8" fill-opacity="0.501961" points="168,63 165,56 174,55" />
<polygon fill="#c8d4d5" fill-opacity="0.501961" points="236,17 241,19 241,17" />
<polygon fill="#f3d787" fill-opacity="0.501961" points="166,111 183,108 191,114" />
<polygon fill="#39403c" fill-opacity="0.501961" points="143,1 142,-16 81,-16" />
<polygon fill="#40352b" fill-opacity="0.501961" points="28,158 -16,151 -16,170" />
<polygon fill="#6d6d58" fill-opacity="0.501961" points="137,67 128,67 149,88" />
<polygon fill="#64653d" fill-opacity="0.501961" points="177,109 168,109 171,101" />
<polygon fill="#353d35" fill-opacity="0.501961" points="43,44 24,24 8,31" />
<polygon fill="#e2f0ee" fill-opacity="0.501961" points="49,13 41,15 35,11" />
<polygon fill="#c1e2ec" fill-opacity="0.501961" points="40,0 36,0 41,-9" />
<polygon fill="#fffffc" fill-opacity="0.501961" points="41,45 34,51 53,44" />
<polygon fill="#14323a" fill-opacity="0.501961" points="38,3 67,-15 42,-9" />
<polygon fill="#898467" fill-opacity="0.501961" points="-5,30 -16,23 12,29" />
<polygon fill="#b5b59f" fill-opacity="0.501961" points="10,56 16,56 4,64" />
<polygon fill="#f9dc9f" fill-opacity="0.501961" points="60,119 46,121 57,126" />
<polygon fill="#12282f" fill-opacity="0.501961" points="100,5 112,5 105,-2" />
<polygon fill="#2e3033" fill-opacity="0.501961" points="120,159 143,149 111,175" />
<polygon fill="#0c252f" fill-opacity="0.501961" points="62,24 62,20 72,18" />
<polygon fill="#96a5a0" fill-opacity="0.501961" points="186,18 182,22 178,21" />
<polygon fill="#a48857" fill-opacity="0.501961" points="128,42 124,43 125,28" />
<polygon fill="#5f695e" fill-opacity="0.501961" points="6,58 3,65 9,60" />
<polygon fill="#cde3e2" fill-opacity="0.501961" points="246,-6 231,-13 203,0" />
<polygon fill="#65797a" fill-opacity="0.501961" points="224,13 225,28 219,19" />
<polygon fill="#474943" fill-opacity="0.501961" points="166,44 166,37 160,45" />
<polygon fill="#64664e" fill-opacity="0.501961" points="152,77 146,85 172,79" />
<polygon fill="#e6eeea" fill-opacity="0.501961" points="65,45 79,43 70,37" />
<polygon fill="#554837" fill-opacity="0.501961" points="266,117 222,117 214,134" />
<polygon fill="#10262e" fill-opacity="0.501961" points="210,20 224,14 216,-8" />
<polygon fill="#0e242c" fill-opacity="0.501961" points="172,67 223,51 260,66" />
<polygon fill="#1e2c2f" fill-opacity="0.501961" points="62,127 75,83 57,84" />
<polygon fill="#0e242b" fill-opacity="0.501961" points="224,12 244,0 242,8" />
<polygon fill="#e6efea" fill-opacity="0.501961" points="181,31 193,30 193,20" />
<polygon fill="#98a396" fill-opacity="0.501961" points="190,47 187,50 194,49" />
<polygon fill="#2a3b3a" fill-opacity="0.501961" points="66,7 54,11 62,12" />
<polygon fill="#5c7981" fill-opacity="0.501961" points="217,-7 223,8 222,-5" />
<polygon fill="#b5b6a0" fill-opacity="0.501961" points="82,61 87,64 85,75" />
<polygon fill="#f9faf8" fill-opacity="0.501961" points="167,38 139,13 133,32" />
<polygon fill="#fefefe" fill-opacity="0.501961" points="137,65 156,66 150,24" />
<polygon fill="#c4cec9" fill-opacity="0.501961" points="50,18 45,21 44,29" />
<polygon fill="#ffffff" fill-opacity="0.501961" points="125,68 123,62 116,66" />
<polygon fill="#a27c46" fill-opacity="0.501961" points="164,142 149,136 141,147" />
<polygon fill="#9db0b0" fill-opacity="0.501961" points="66,22 80,25 69,27" />
<polygon fill="#423c30" fill-opacity="0.501961" points="9,135 -6,147 30,134" />
<polygon fill="#162732" fill-opacity="0.501961" points="127,2 133,-16 102,-16" />
<polygon fill="#525e58" fill-opacity="0.501961" points="209,56 213,53 208,49" />
<polygon fill="#f4d684" fill-opacity="0.501961" points="161,111 140,112 155,116" />
<polygon fill="#eeffff" fill-opacity="0.501961" points="271,-14 253,12 271,17" />
<polygon fill="#5f8390" fill-opacity="0.501961" points="53,4 38,-12 65,-16" />
<polygon fill="#c8984c" fill-opacity="0.501961" points="23,135 7,130 24,123" />
<polygon fill="#d2d3bc" fill-opacity="0.501961" points="108,40 109,44 120,36" />
</g>
</svg>