<svg xmlns="http://www.w3.org/2000/svg" version="1.1" width="1024" height="683">
<rect x="0" y="0" width="1024" height="683" fill="#545454" />
<g transform="scale(1.000000) translate(0.5 0.5)">
<polygon fill="#ffffff" fill-opacity="0.501961" points="546.869566,166.981524,746.751793,221.471021,739.951581,83.313165,627.429802,-16.000000" />
<polygon fill="#f1f1f1" fill-opacity="0.501961" points="904.358493,226.860834,990.937374,411.250758,815.409593,451.469898,780.261026,234.521754" />
<polygon fill="#f9f9f9" fill-opacity="0.501961" points="756.976475,217.947167,670.756673,355.268518,555.272481,362.876525,475.679671,239.095919" />
<polygon fill="#ffffff" fill-opacity="0.501961" points="58.473055,607.181532,26.368772,698.000000,-16.000000,458.340114,100.065418,576.743351" />
<polygon fill="#dddddd" fill-opacity="0.501961" points="1005.344602,-1.219234,1028.075922,166.848099,856.278489,105.863180,872.452940,-0.847641" />
<polygon fill="#000000" fill-opacity="0.501961" points="327.341040,685.019950,159.809603,698.000000,458.761706,292.895024,704.163333,429.796174" />
<polygon fill="#000000" fill-opacity="0.501961" points="458.974577,587.018880,684.152162,518.470779,968.689162,698.000000,402.658910,649.476196" />
<polygon fill="#bbbbbb" fill-opacity="0.501961" points="758.305806,581.411702,890.013603,636.920876,998.164478,551.295107,690.671825,401.144648" />
<polygon fill="#000000" fill-opacity="0.501961" points="446.817748,-8.453655,218.799675,116.920169,-16.000000,144.208013,33.380867,-16.000000" />
<polygon fill="#ffffff" fill-opacity="0.501961" points="429.931564,451.529213,672.507133,518.873142,387.331722,610.716347,659.250134,497.392597" />
<polygon fill="#000000" fill-opacity="0.501961" points="1.749374,219.911615,87.294369,331.040578,180.583794,548.365128,173.533601,233.298841" />
<polygon fill="#ffffff" fill-opacity="0.501961" points="27.051475,366.573553,57.887953,340.297047,-14.120593,245.520490,-16.000000,521.378597" />
<polygon fill="#ffffff" fill-opacity="0.501961" points="375.379606,122.471486,381.378292,67.431562,481.148501,62.670421,449.897935,107.346601" />
<polygon fill="#c4c4c4" fill-opacity="0.501961" points="209.765094,336.655661,262.862282,327.013362,311.622103,477.011988,219.422816,496.453999" />
<polygon fill="#000000" fill-opacity="0.501961" points="387.480214,585.662363,545.359615,526.957338,324.966118,317.678394,269.788189,385.991395" />
<polygon fill="#000000" fill-opacity="0.501961" points="916.102798,634.910865,1039.000000,548.592078,1023.910389,698.000000,510.779920,677.186314" />
<polygon fill="#dfdfdf" fill-opacity="0.501961" points="294.362126,204.878951,243.402743,166.728867,251.629211,274.043560,338.909789,281.921030" />
<polygon fill="#000000" fill-opacity="0.501961" points="473.644540,221.421996,485.299347,286.893896,299.718139,336.942079,392.443506,228.531333" />
<polygon fill="#cbcbcb" fill-opacity="0.501961" points="229.876297,530.127339,312.248636,553.203725,270.699997,591.923921,147.783589,550.087431" />
<polygon fill="#000000" fill-opacity="0.501961" points="952.670778,145.387711,800.003301,149.160309,761.501292,-16.000000,753.199493,256.827288" />
<polygon fill="#000000" fill-opacity="0.501961" points="463.729636,177.783643,444.090174,110.255800,232.104244,138.302355,377.876739,201.566406" />
<polygon fill="#c5c5c5" fill-opacity="0.501961" points="533.395642,648.398086,433.253876,605.707463,473.087756,698.000000,532.042993,678.232647" />
<polygon fill="#000000" fill-opacity="0.501961" points="1032.429573,227.950489,1032.511477,332.305042,986.799170,293.077282,913.250423,219.808688" />
<polygon fill="#999999" fill-opacity="0.501961" points="461.261558,212.384889,457.636849,191.396475,613.004142,15.436745,531.235032,353.094314" />
<polygon fill="#cecece" fill-opacity="0.501961" points="1016.763992,-16.000000,997.098995,129.965359,1006.904389,176.241613,903.011083,226.060983" />
<polygon fill="#ffffff" fill-opacity="0.501961" points="710.715287,55.534187,687.593718,156.937348,589.497082,118.551872,639.453370,-16.000000" />
<polygon fill="#0d0d0d" fill-opacity="0.501961" points="873.375030,38.760759,831.874296,4.591875,837.618403,81.567881,1039.000000,27.567618" />
<polygon fill="#000000" fill-opacity="0.501961" points="167.094295,641.450456,32.063315,634.911564,393.379659,557.181943,409.111734,698.000000" />
<polygon fill="#f5f5f5" fill-opacity="0.501961" points="299.874277,73.412885,302.098787,117.683992,275.096177,134.866105,247.053939,81.984349" />
<polygon fill="#000000" fill-opacity="0.501961" points="161.432156,169.409000,95.337767,141.651625,143.460416,253.851253,217.119608,159.358720" />
<polygon fill="#000000" fill-opacity="0.501961" points="735.369481,99.240514,676.833897,0.538389,792.472625,-16.000000,761.011015,95.689446" />
<polygon fill="#d1d1d1" fill-opacity="0.501961" points="195.573927,349.598211,165.821294,268.307271,257.434426,254.005786,196.076507,214.593644" />
<polygon fill="#ffffff" fill-opacity="0.501961" points="854.172465,75.385875,851.251729,86.133481,869.169139,119.744153,1016.856612,48.476972" />
<polygon fill="#000000" fill-opacity="0.501961" points="916.558184,192.231760,852.999000,206.003764,945.450953,122.366027,892.867027,49.381237" />
<polygon fill="#b7b7b7" fill-opacity="0.501961" points="811.403072,169.543793,839.947504,10.268933,973.572012,-1.775282,779.016668,0.901765" />
<polygon fill="#000000" fill-opacity="0.501961" points="162.697661,530.033768,201.528831,335.620241,130.152947,448.114865,3.970794,470.103771" />
<polygon fill="#000000" fill-opacity="0.501961" points="511.556428,9.410692,474.840152,54.801633,476.859599,128.058537,593.997732,10.193324" />
<polygon fill="#000000" fill-opacity="0.501961" points="704.316189,515.802937,461.966851,585.831068,576.853313,698.000000,819.053111,621.163924" />
<polygon fill="#c3c3c3" fill-opacity="0.501961" points="420.209046,-2.503062,529.978761,-16.000000,533.027599,-14.968624,420.903970,105.020081" />
<polygon fill="#f8f8f8" fill-opacity="0.501961" points="61.745112,211.954613,59.272802,183.662387,98.218407,174.642645,117.509013,208.636854" />
<polygon fill="#fcfcfc" fill-opacity="0.501961" points="78.168402,368.714621,104.354434,379.029704,133.183793,438.435388,87.771804,405.806185" />
<polygon fill="#010101" fill-opacity="0.501961" points="703.127226,422.897464,694.856887,382.361409,709.042752,328.276462,596.484626,376.194336" />
<polygon fill="#000000" fill-opacity="0.501961" points="34.177466,66.399538,-16.000000,178.940955,411.316331,-4.160841,50.077848,-4.771946" />
<polygon fill="#171717" fill-opacity="0.501961" points="611.883997,238.002064,556.507659,203.821626,649.539510,174.418027,690.933251,185.916177" />
<polygon fill="#ededed" fill-opacity="0.501961" points="34.571427,698.000000,72.596896,496.058599,104.256676,528.312440,6.840163,502.136000" />
<polygon fill="#0a0a0a" fill-opacity="0.501961" points="952.454880,52.878624,971.948295,110.560468,973.061219,58.631844,927.602747,-16.000000" />
<polygon fill="#bebebe" fill-opacity="0.501961" points="813.444409,263.885806,962.966685,257.440311,729.745169,404.077839,749.140634,326.520732" />
<polygon fill="#c3c3c3" fill-opacity="0.501961" points="899.986381,192.344089,1039.000000,207.427041,892.015063,219.990120,688.182585,315.497941" />
<polygon fill="#000000" fill-opacity="0.501961" points="802.257806,257.309148,763.605859,287.004627,752.223635,301.707399,857.314801,249.101946" />
<polygon fill="#b4b4b4" fill-opacity="0.501961" points="368.944325,348.789131,377.895555,307.197422,455.409101,316.564972,465.735146,333.056989" />
<polygon fill="#bcbcbc" fill-opacity="0.501961" points="313.690480,323.215101,226.320481,334.638843,188.926560,334.111282,246.454010,405.459751" />
<polygon fill="#000000" fill-opacity="0.501961" points="122.127831,286.210479,235.707208,377.072243,202.100173,397.700066,126.712801,439.161738" />
<polygon fill="#6f6f6f" fill-opacity="0.501961" points="790.242369,274.727081,690.087387,406.790640,806.662075,513.936422,826.103344,345.597426" />
<polygon fill="#949494" fill-opacity="0.501961" points="253.046032,115.896578,200.913657,120.273753,54.311872,123.045193,258.121382,159.735225" />
<polygon fill="#ffffff" fill-opacity="0.501961" points="909.474851,59.127264,912.690534,86.918128,944.485955,105.861509,965.619569,67.693181" />
<polygon fill="#e5e5e5" fill-opacity="0.501961" points="79.580398,445.207007,51.475458,411.221777,19.011739,459.914110,-4.330248,436.540817" />
<polygon fill="#8b8b8b" fill-opacity="0.501961" points="715.548857,389.276804,654.086257,226.132365,665.541415,172.721318,767.472707,110.776423" />
<polygon fill="#010101" fill-opacity="0.501961" points="133.978920,670.506113,91.360058,698.000000,108.312739,568.456336,36.733882,655.366065" />
<polygon fill="#9e9e9e" fill-opacity="0.501961" points="347.541762,73.759859,302.834677,47.058667,303.508335,23.860090,342.539029,20.809994" />
<polygon fill="#f5f5f5" fill-opacity="0.501961" points="422.440987,598.135700,679.157752,515.501494,510.279069,554.212083,421.348624,585.686649" />
<polygon fill="#000000" fill-opacity="0.501961" points="252.907961,414.747179,224.595950,438.473238,251.677737,457.730618,267.282878,437.573045" />
<polygon fill="#efefef" fill-opacity="0.501961" points="1023.681481,204.341019,995.683457,235.383326,987.920942,208.110130,1039.000000,183.061560" />
<polygon fill="#c7c7c7" fill-opacity="0.501961" points="869.523097,614.186424,937.138865,589.879173,869.078812,536.537952,817.072537,583.572069" />
<polygon fill="#838383" fill-opacity="0.501961" points="978.123928,287.069624,1039.000000,385.660083,961.318851,444.555644,871.088416,211.271304" />
<polygon fill="#000000" fill-opacity="0.501961" points="683.177257,443.314741,688.676389,431.430205,709.161095,505.801332,619.090444,489.133395" />
<polygon fill="#eaeaea" fill-opacity="0.501961" points="901.078257,55.652005,855.400574,21.738581,936.735681,16.441591,941.416397,24.502544" />
<polygon fill="#e9e9e9" fill-opacity="0.501961" points="27.967632,257.843958,-16.000000,186.720183,7.953188,475.035302,7.596604,264.117550" />
<polygon fill="#959595" fill-opacity="0.501961" points="349.237654,164.429284,269.787088,230.880957,370.013863,237.127259,364.868922,165.532780" />
<polygon fill="#ffffff" fill-opacity="0.501961" points="973.140515,84.187858,1005.909127,82.249645,1006.979003,52.118315,974.666969,33.235196" />
<polygon fill="#ffffff" fill-opacity="0.501961" points="895.643146,79.399556,850.676753,82.777721,869.827983,115.009729,918.176370,112.246850" />
<polygon fill="#191919" fill-opacity="0.501961" points="905.018082,7.893187,827.128788,17.085360,896.936409,21.174781,1026.779893,5.395318" />
<polygon fill="#000000" fill-opacity="0.501961" points="256.330217,113.626625,257.211940,92.362284,327.485071,-16.000000,-16.000000,123.212803" />
<polygon fill="#f2f2f2" fill-opacity="0.501961" points="82.045528,299.993702,-16.000000,341.321782,-0.232469,425.599007,52.667756,290.698555" />
<polygon fill="#474747" fill-opacity="0.501961" points="637.306458,161.757117,551.929837,59.897631,463.400898,120.223379,581.555776,135.710027" />
<polygon fill="#000000" fill-opacity="0.501961" points="505.611730,463.395515,432.088973,244.495205,430.892576,224.702163,555.571102,375.705890" />
<polygon fill="#000000" fill-opacity="0.501961" points="621.015580,501.663703,397.097409,462.054305,399.563793,567.071671,641.022840,511.029942" />
<polygon fill="#232323" fill-opacity="0.501961" points="824.513891,485.893208,847.097072,418.577193,863.498639,441.997513,971.936819,486.764168" />
<polygon fill="#000000" fill-opacity="0.501961" points="313.233838,514.173745,200.887398,523.266397,207.619551,504.725805,247.773789,491.586332" />
<polygon fill="#070707" fill-opacity="0.501961" points="12.102146,434.266829,44.709925,410.771973,119.629487,462.310867,49.196302,364.201632" />
<polygon fill="#e8e8e8" fill-opacity="0.501961" points="899.233557,264.460594,817.336880,264.385540,847.254721,371.980807,886.494812,378.795255" />
<polygon fill="#999999" fill-opacity="0.501961" points="160.610240,534.382962,263.197157,459.527018,174.865601,427.106206,181.082769,561.943892" />
<polygon fill="#000000" fill-opacity="0.501961" points="-16.000000,108.676607,-16.000000,194.733127,52.804886,219.350673,44.339601,180.910152" />
<polygon fill="#ffffff" fill-opacity="0.501961" points="993.169016,28.810688,1039.000000,40.860570,1025.826709,9.442720,941.401101,19.106565" />
<polygon fill="#d6d6d6" fill-opacity="0.501961" points="385.269224,378.093861,357.949043,343.383943,439.168116,395.399573,434.906894,377.630826" />
<polygon fill="#000000" fill-opacity="0.501961" points="345.155309,40.392503,405.622981,66.406518,397.477355,18.444559,344.084427,-16.000000" />
<polygon fill="#d0d0d0" fill-opacity="0.501961" points="546.032765,225.646965,561.116501,329.181280,648.963928,340.171123,670.514687,238.979430" />
<polygon fill="#a9a9a9" fill-opacity="0.501961" points="822.245932,219.459928,725.249965,330.522116,717.680836,324.857114,771.017569,241.270362" />
<polygon fill="#8d8d8d" fill-opacity="0.501961" points="445.934208,449.467629,500.234195,438.806909,491.519392,418.694088,455.784487,409.335034" />
<polygon fill="#d5d5d5" fill-opacity="0.501961" points="658.625800,496.989069,592.798441,537.322702,720.924458,514.105603,764.212837,522.192592" />
<polygon fill="#f9f9f9" fill-opacity="0.501961" points="375.707305,74.769350,403.172988,65.173352,472.958879,79.269872,382.166447,116.627315" />
<polygon fill="#000000" fill-opacity="0.501961" points="184.403001,521.406280,147.544642,432.896372,130.513433,558.250103,47.441533,547.651329" />
<polygon fill="#000000" fill-opacity="0.501961" points="476.934522,229.595957,308.955621,301.764482,363.481367,354.180138,367.696389,320.853197" />
<polygon fill="#161616" fill-opacity="0.501961" points="255.156579,278.367059,180.579203,293.656178,216.311891,345.246804,270.344367,309.744619" />
<polygon fill="#000000" fill-opacity="0.501961" points="580.749455,11.394872,657.868317,31.349769,630.455651,17.030659,608.454281,10.365196" />
<polygon fill="#959595" fill-opacity="0.501961" points="224.147695,646.424327,132.151267,638.154816,122.361458,597.402065,103.120634,665.501650" />
<polygon fill="#a0a0a0" fill-opacity="0.501961" points="372.302305,353.349861,423.962778,368.785378,317.900476,388.175886,386.943635,401.373488" />
<polygon fill="#868686" fill-opacity="0.501961" points="117.156225,230.852544,204.069182,217.552679,136.213278,235.106097,120.678472,325.357040" />
<polygon fill="#000000" fill-opacity="0.501961" points="134.613542,698.000000,332.912279,698.000000,381.173012,611.756128,363.715183,532.312711" />
<polygon fill="#000000" fill-opacity="0.501961" points="835.825384,73.142995,874.403518,31.760900,900.408761,89.388966,898.228210,67.766905" />
<polygon fill="#000000" fill-opacity="0.501961" points="91.723389,359.676665,114.857503,381.129508,171.205480,488.141599,166.226181,256.746490" />
<polygon fill="#000000" fill-opacity="0.501961" points="826.398164,257.597911,813.443531,255.406860,871.190658,252.544651,904.043300,261.048928" />
<polygon fill="#000000" fill-opacity="0.501961" points="1039.000000,585.585749,992.062467,698.000000,1009.753970,698.000000,862.757858,662.256019" />
<polygon fill="#0c0c0c" fill-opacity="0.501961" points="1015.712479,62.276452,990.278206,102.738065,1039.000000,49.201435,986.885303,26.057868" />
<polygon fill="#040404" fill-opacity="0.501961" points="259.485346,390.885412,264.971757,374.386032,372.293715,337.594755,316.274387,423.940711" />
<polygon fill="#000000" fill-opacity="0.501961" points="112.205333,249.284464,77.409618,336.880725,72.582659,286.371737,-16.000000,279.318969" />
<polygon fill="#000000" fill-opacity="0.501961" points="1016.113294,244.938434,1009.583881,215.170051,951.453603,244.840640,1010.648039,310.806126" />
<polygon fill="#000000" fill-opacity="0.501961" points="742.718258,210.943565,740.069186,257.306997,819.076586,212.451605,786.722821,139.012561" />
<polygon fill="#b5b5b5" fill-opacity="0.501961" points="408.651021,197.246587,536.693987,207.528587,480.617594,189.825965,417.303068,228.157428" />
<polygon fill="#c0c0c0" fill-opacity="0.501961" points="243.892844,173.585910,265.278016,184.013282,201.574890,193.966317,190.962553,178.056133" />
<polygon fill="#b1b1b1" fill-opacity="0.501961" points="126.693343,565.206915,133.146711,586.768492,177.633731,603.418012,154.972500,561.357106" />
<polygon fill="#cfcfcf" fill-opacity="0.501961" points="532.023224,414.822102,541.896564,441.050771,551.046433,421.438821,541.958189,408.508743" />
<polygon fill="#0d0d0d" fill-opacity="0.501961" points="270.190720,261.770585,212.064848,216.251548,211.335991,231.418043,234.505597,197.545389" />
<polygon fill="#060606" fill-opacity="0.501961" points="368.611845,289.101577,549.589643,409.799574,447.096924,399.036504,427.502370,232.438485" />
<polygon fill="#e5e5e5" fill-opacity="0.501961" points="89.787064,590.115686,4.720973,630.029901,20.311706,526.620615,90.847205,561.176636" />
<polygon fill="#5f5f5f" fill-opacity="0.501961" points="265.628204,528.212030,326.332795,476.018196,305.760651,586.816647,268.172853,595.232674" />
<polygon fill="#0e0e0e" fill-opacity="0.501961" points="797.082903,167.463135,969.593536,101.322767,918.755667,101.953327,905.513899,195.676603" />
<polygon fill="#4a4a4a" fill-opacity="0.501961" points="567.300647,342.379686,499.966770,291.376230,604.216552,346.784907,662.996522,333.106592" />
<polygon fill="#000000" fill-opacity="0.501961" points="14.621560,666.680500,22.013012,698.000000,-16.000000,690.544682,-16.000000,563.847272" />
<polygon fill="#ffffff" fill-opacity="0.501961" points="355.428938,341.582542,340.786238,334.553603,331.348338,335.681506,339.789348,347.032463" />
<polygon fill="#9c9c9c" fill-opacity="0.501961" points="593.857076,494.209318,490.475280,457.605493,496.492712,460.399015,480.333893,475.820091" />
<polygon fill="#141414" fill-opacity="0.501961" points="923.621209,60.678603,956.164786,4.545591,945.921298,43.928719,972.461120,59.863067" />
<polygon fill="#2f2f2f" fill-opacity="0.501961" points="21.802392,500.507254,41.839011,424.058005,67.785863,452.927445,64.439248,552.974687" />
<polygon fill="#adadad" fill-opacity="0.501961" points="191.335815,10.028654,227.891639,4.735034,230.193017,5.544732,214.159666,21.030590" />
<polygon fill="#d0d0d0" fill-opacity="0.501961" points="407.590390,521.329402,401.725887,520.418279,344.482691,536.963686,372.007910,533.449898" />
<polygon fill="#cacaca" fill-opacity="0.501961" points="566.609346,191.826562,764.161711,142.679797,655.850734,81.602598,749.317338,80.028179" />
<polygon fill="#cbcbcb" fill-opacity="0.501961" points="285.588092,225.531536,267.757661,304.662234,285.229216,293.015682,236.438344,186.737768" />
<polygon fill="#4f4f4f" fill-opacity="0.501961" points="11.563577,607.048853,13.193536,533.145170,-16.000000,434.179921,-13.162271,512.635734" />
<polygon fill="#949494" fill-opacity="0.501961" points="110.151969,343.789152,122.743677,288.664702,95.100216,332.251250,9.192322,345.457837" />
<polygon fill="#020202" fill-opacity="0.501961" points="304.778014,209.446451,285.401056,127.815632,263.586759,130.365776,254.392998,159.318963" />
<polygon fill="#686868" fill-opacity="0.501961" points="391.646083,616.736439,338.277558,698.000000,406.787971,640.474471,509.746446,621.375963" />
<polygon fill="#999999" fill-opacity="0.501961" points="929.475341,126.370975,809.163003,148.323106,803.027123,166.631740,789.438743,135.069426" />
<polygon fill="#595959" fill-opacity="0.501961" points="465.454187,558.835131,396.537500,601.981412,521.458850,558.388338,635.035067,511.325236" />
<polygon fill="#bdbdbd" fill-opacity="0.501961" points="307.427234,430.409308,260.294757,500.130478,268.301689,400.919385,290.505944,423.507917" />
<polygon fill="#000000" fill-opacity="0.501961" points="116.381172,207.988893,140.552352,171.218617,206.193318,160.925399,158.901860,228.086001" />
<polygon fill="#6a6a6a" fill-opacity="0.501961" points="693.084195,622.567604,832.036823,655.036523,833.088996,663.793494,803.111632,659.532553" />
<polygon fill="#e0e0e0" fill-opacity="0.501961" points="884.111738,465.712341,885.445947,446.336351,948.678297,397.222032,875.602985,412.500360" />
<polygon fill="#747474" fill-opacity="0.501961" points="845.368315,445.366415,824.635682,624.782369,744.928309,568.338382,780.859666,443.296834" />
<polygon fill="#f7f7f7" fill-opacity="0.501961" points="605.508557,9.745375,637.109641,15.674605,630.670304,-9.505896,588.524430,5.047632" />
<polygon fill="#8a8a8a" fill-opacity="0.501961" points="428.650963,286.634093,424.323809,289.918789,452.854959,355.282928,462.332001,309.930937" />
<polygon fill="#dbdbdb" fill-opacity="0.501961" points="412.219695,314.156873,421.582324,340.096588,389.572740,327.742643,379.471017,304.298439" />
<polygon fill="#bdbdbd" fill-opacity="0.501961" points="839.249604,252.438498,937.410435,254.108191,847.453766,225.871705,807.617066,171.238855" />
<polygon fill="#050505" fill-opacity="0.501961" points="191.709128,443.233129,232.622038,400.088340,207.400440,414.557702,189.187382,487.007743" />
<polygon fill="#bfbfbf" fill-opacity="0.501961" points="768.158950,549.485469,851.952839,604.505189,709.097711,478.639250,726.126623,428.879649" />
<polygon fill="#e3e3e3" fill-opacity="0.501961" points="804.163616,430.253863,817.198136,432.559292,861.421980,377.953519,814.572139,397.639777" />
<polygon fill="#6f6f6f" fill-opacity="0.501961" points="1039.000000,68.294131,927.852624,105.454330,998.734035,95.874967,946.788693,231.090981" />
<polygon fill="#000000" fill-opacity="0.501961" points="445.785352,117.120116,458.797784,135.935198,350.797538,167.095477,297.499425,155.827742" />
<polygon fill="#000000" fill-opacity="0.501961" points="789.693763,179.346301,780.732490,40.681564,776.911537,-14.965356,747.366183,63.978310" />
<polygon fill="#dedede" fill-opacity="0.501961" points="204.250421,337.769043,250.429293,367.222507,249.645627,375.813806,196.003573,357.136609" />
<polygon fill="#c1c1c1" fill-opacity="0.501961" points="233.374075,520.495703,262.647570,571.970651,246.109545,591.161977,212.665967,527.782893" />
<polygon fill="#eaeaea" fill-opacity="0.501961" points="766.710416,101.996376,757.353506,98.711037,581.897947,66.614941,609.171911,120.042927" />
<polygon fill="#404040" fill-opacity="0.501961" points="828.783932,213.537156,972.422217,266.233269,905.159678,219.614389,783.491785,144.819697" />
<polygon fill="#898989" fill-opacity="0.501961" points="22.315739,197.793686,-16.000000,348.726227,-16.000000,240.889335,32.755200,164.052659" />
<polygon fill="#060606" fill-opacity="0.501961" points="645.611255,8.823759,653.848088,-16.000000,725.202283,57.267747,782.317581,-16.000000" />
<polygon fill="#2f2f2f" fill-opacity="0.501961" points="951.414600,100.387138,983.031831,24.025975,945.490788,38.890348,970.098079,82.549840" />
<polygon fill="#b5b5b5" fill-opacity="0.501961" points="777.079184,122.105944,685.491388,129.428428,709.767695,44.646214,735.851046,107.932144" />
<polygon fill="#000000" fill-opacity="0.501961" points="181.295346,335.711800,148.641337,234.890112,126.848679,321.814006,219.625664,395.901020" />
<polygon fill="#a1a1a1" fill-opacity="0.501961" points="188.873585,452.187442,176.748814,418.937756,188.856318,420.021000,246.606409,332.732696" />
<polygon fill="#b6b6b6" fill-opacity="0.501961" points="208.476586,233.907236,367.498171,287.662725,358.547869,268.758584,243.146637,268.211611" />
<polygon fill="#000000" fill-opacity="0.501961" points="420.739496,636.466134,501.975879,653.907468,524.666539,664.714420,459.945601,635.353416" />
<polygon fill="#000000" fill-opacity="0.501961" points="393.775102,389.633405,456.081320,398.948609,332.235311,459.897109,306.811272,432.886302" />
<polygon fill="#616161" fill-opacity="0.501961" points="928.800782,569.283252,909.371006,591.602703,1016.035796,543.365968,898.692321,483.243054" />
<polygon fill="#ffffff" fill-opacity="0.501961" points="936.073066,189.595876,941.384170,191.901400,944.438572,196.720086,862.802993,205.817765" />
<polygon fill="#aeaeae" fill-opacity="0.501961" points="835.393300,62.291629,801.279508,96.435895,842.886855,112.261252,834.756503,75.167852" />
<polygon fill="#939393" fill-opacity="0.501961" points="574.719156,154.293775,481.534616,272.058897,518.613287,339.573968,527.452866,316.415548" />
<polygon fill="#c6c6c6" fill-opacity="0.501961" points="607.382923,339.007606,632.024378,376.343732,634.508854,340.262548,612.618562,374.980632" />
<polygon fill="#7c7c7c" fill-opacity="0.501961" points="138.404163,439.274258,138.255969,483.976867,107.802256,434.489392,112.841562,375.527759" />
<polygon fill="#282828" fill-opacity="0.501961" points="828.497791,18.089844,848.603750,91.050282,900.062578,7.911803,907.833976,44.373950" />
<polygon fill="#b5b5b5" fill-opacity="0.501961" points="165.931916,257.649942,199.498420,180.908131,181.296596,250.816029,203.988516,290.192091" />
<polygon fill="#eeeeee" fill-opacity="0.501961" points="219.423719,464.570971,230.421981,446.324182,249.401317,458.889767,265.158922,479.693977" />
<polygon fill="#151515" fill-opacity="0.501961" points="334.853594,227.895075,330.420361,202.232012,363.300810,258.608823,323.646241,265.078041" />
<polygon fill="#b2b2b2" fill-opacity="0.501961" points="212.105345,595.029166,185.872679,534.842308,165.669748,535.109419,212.226095,613.416131" />
<polygon fill="#1d1d1d" fill-opacity="0.501961" points="536.145628,-16.000000,466.979868,99.661771,466.059886,67.035116,560.245447,100.870566" />
<polygon fill="#b1b1b1" fill-opacity="0.501961" points="303.625720,126.183217,261.721020,66.906354,257.269887,72.808245,264.150148,131.333352" />
<polygon fill="#959595" fill-opacity="0.501961" points="662.700886,216.621562,603.619557,239.888398,748.697436,243.704643,738.988228,93.018043" />
<polygon fill="#b1b1b1" fill-opacity="0.501961" points="843.352281,510.970317,871.466338,548.770047,914.391984,502.678550,876.871060,484.149408" />
<polygon fill="#040404" fill-opacity="0.501961" points="47.955784,667.509054,82.395236,596.401708,61.667125,602.142474,75.339261,698.000000" />
<polygon fill="#d0d0d0" fill-opacity="0.501961" points="131.501053,246.084162,84.595038,174.142079,85.788788,225.876281,107.581243,181.798943" />
<polygon fill="#111111" fill-opacity="0.501961" points="840.448990,121.704051,760.308530,135.741799,734.527388,127.995904,813.554871,112.314405" />
<polygon fill="#646464" fill-opacity="0.501961" points="64.491567,136.832342,26.425488,131.934888,51.416557,226.605397,136.231517,113.263821" />
<polygon fill="#ffffff" fill-opacity="0.501961" points="937.793402,16.715130,871.036306,30.833868,929.407974,35.366757,938.824333,28.850299" />
<polygon fill="#121212" fill-opacity="0.501961" points="922.896506,93.793727,884.030920,56.189313,904.680574,95.573646,953.223588,125.543668" />
<polygon fill="#000000" fill-opacity="0.501961" points="876.745872,200.312919,924.364264,193.218110,936.362304,175.461704,861.244524,190.451338" />
<polygon fill="#c1c1c1" fill-opacity="0.501961" points="116.896915,651.602827,137.553958,682.757645,135.395006,645.410413,81.756275,647.790323" />
<polygon fill="#000000" fill-opacity="0.501961" points="304.498203,15.441560,220.564169,114.877520,146.985384,126.793623,24.006999,43.684412" />
<polygon fill="#000000" fill-opacity="0.501961" points="176.305055,428.640847,116.628289,536.743682,170.065449,546.561496,136.377841,561.869694" />
<polygon fill="#222222" fill-opacity="0.501961" points="240.561516,469.744233,197.884097,482.458124,297.321471,492.714654,251.890534,541.873571" />
<polygon fill="#e3e3e3" fill-opacity="0.501961" points="85.922016,522.535058,66.394735,514.521831,58.485715,504.364141,83.199196,497.211204" />
<polygon fill="#000000" fill-opacity="0.501961" points="394.923486,604.043587,354.830431,595.962721,444.236962,618.043094,721.968606,523.595213" />
<polygon fill="#aaaaaa" fill-opacity="0.501961" points="207.669326,365.433906,299.605398,359.947996,201.316333,299.834522,247.089739,311.803230" />
<polygon fill="#000000" fill-opacity="0.501961" points="78.571992,293.536336,42.613338,297.875711,118.278112,233.719271,104.321017,203.628919" />
<polygon fill="#c7c7c7" fill-opacity="0.501961" points="79.228634,464.785826,82.261204,449.048018,55.620476,414.439047,37.664982,415.004468" />
<polygon fill="#040404" fill-opacity="0.501961" points="328.392469,57.783825,303.495645,139.867026,304.403800,75.844134,50.489447,33.457114" />
<polygon fill="#ffffff" fill-opacity="0.501961" points="971.503075,87.749882,976.313477,35.718248,1003.469327,44.644950,1009.619082,73.658160" />
<polygon fill="#ffffff" fill-opacity="0.501961" points="834.489358,-16.000000,833.316989,4.732898,843.263032,7.980359,907.592885,2.205323" />
<polygon fill="#5b5b5b" fill-opacity="0.501961" points="964.658623,161.793785,835.166507,120.291147,901.175488,104.170073,917.031785,133.881702" />
<polygon fill="#b6b6b6" fill-opacity="0.501961" points="540.990826,337.666026,538.326747,356.793927,573.129437,331.977343,590.513442,373.246017" />
<polygon fill="#000000" fill-opacity="0.501961" points="239.492371,595.983769,212.614391,564.440498,228.746464,698.000000,360.025849,682.790321" />
<polygon fill="#dadada" fill-opacity="0.501961" points="987.762024,191.372466,1029.647602,100.084059,1036.207047,147.196007,964.447474,187.694222" />
<polygon fill="#b2b2b2" fill-opacity="0.501961" points="338.895028,212.487628,320.334868,201.160361,375.822742,206.697172,352.429450,246.024232" />
<polygon fill="#e9e9e9" fill-opacity="0.501961" points="41.266694,349.773041,12.174252,389.557299,-16.000000,225.080832,5.733807,288.819779" />
<polygon fill="#2c2c2c" fill-opacity="0.501961" points="1025.098333,4.227728,1006.134166,40.561941,1021.878714,38.218198,1000.863429,1.728010" />
<polygon fill="#ffffff" fill-opacity="0.501961" points="960.235207,68.593002,957.035570,91.968886,931.509883,102.224207,907.422123,55.455059" />
<polygon fill="#040404" fill-opacity="0.501961" points="1016.074730,194.366827,1008.816803,196.429206,977.028753,198.724268,1016.715654,162.957022" />
<polygon fill="#616161" fill-opacity="0.501961" points="308.169634,248.285747,291.314582,131.380727,480.629114,111.346226,301.097546,143.034382" />
<polygon fill="#d6d6d6" fill-opacity="0.501961" points="575.323754,393.229356,570.044540,400.106406,562.454036,395.862062,567.692562,382.305124" />
<polygon fill="#e0e0e0" fill-opacity="0.501961" points="511.682144,285.157164,475.598996,176.693040,483.365273,223.542500,493.862185,249.930728" />
<polygon fill="#a6a6a6" fill-opacity="0.501961" points="251.778138,112.511987,223.366130,144.684678,292.809566,170.841423,258.306736,172.354424" />
<polygon fill="#e6e6e6" fill-opacity="0.501961" points="588.099422,102.712579,705.680407,31.023996,680.357677,90.441438,690.019570,17.567187" />
<polygon fill="#848484" fill-opacity="0.501961" points="974.343117,45.924418,797.985931,58.337298,905.717664,36.527162,962.544071,37.564580" />
<polygon fill="#f7f7f7" fill-opacity="0.501961" points="30.591566,508.888657,-0.632624,473.330737,10.826434,510.384036,18.790719,590.253583" />
<polygon fill="#000000" fill-opacity="0.501961" points="879.691019,688.300556,876.675136,612.131265,889.007558,643.197077,1039.000000,610.544433" />
<polygon fill="#000000" fill-opacity="0.501961" points="122.970064,481.507674,33.633930,511.677705,99.363209,452.011035,127.212422,457.351359" />
<polygon fill="#ededed" fill-opacity="0.501961" points="205.122970,492.206917,196.323775,502.413081,183.666534,486.522526,189.806174,476.298814" />
<polygon fill="#b0b0b0" fill-opacity="0.501961" points="9.636272,473.232075,13.487380,436.880099,33.570630,460.320814,30.946320,478.023662" />
<polygon fill="#818181" fill-opacity="0.501961" points="159.879372,165.311913,256.406803,151.359608,156.988300,142.793341,116.998158,183.730896" />
<polygon fill="#f2f2f2" fill-opacity="0.501961" points="1004.664099,202.411475,974.552302,213.907415,991.023627,218.358307,997.784584,234.876370" />
<polygon fill="#010101" fill-opacity="0.501961" points="137.677797,617.605359,146.492016,645.288078,200.064166,629.193944,194.316471,593.927788" />
<polygon fill="#000000" fill-opacity="0.501961" points="306.754935,367.398880,377.679626,382.842322,387.520792,379.294140,308.715793,321.143906" />
<polygon fill="#292929" fill-opacity="0.501961" points="434.227278,446.317303,454.283957,477.769895,489.907324,490.057949,490.052163,435.057929" />
<polygon fill="#333333" fill-opacity="0.501961" points="971.417596,155.356714,929.972124,281.876224,880.908744,253.090535,937.450155,275.655987" />
<polygon fill="#3a3a3a" fill-opacity="0.501961" points="712.522319,694.630175,677.686456,618.690606,755.296794,634.378397,751.668967,673.341509" />
<polygon fill="#f1f1f1" fill-opacity="0.501961" points="91.740180,364.376023,92.453394,396.834249,80.441947,399.282826,113.435203,421.316187" />
<polygon fill="#ffffff" fill-opacity="0.501961" points="963.069043,13.195845,953.442052,15.557871,956.977015,29.313040,1014.692910,17.730049" />
<polygon fill="#000000" fill-opacity="0.501961" points="32.847959,286.512336,56.972839,329.994240,27.293635,303.146712,25.048749,160.272230" />
<polygon fill="#545454" fill-opacity="0.501961" points="509.387064,267.561397,525.621683,244.106096,502.425309,211.959818,494.342210,240.405465" />
<polygon fill="#7b7b7b" fill-opacity="0.501961" points="196.099189,270.437725,324.927680,292.048007,245.813002,440.214505,320.912777,265.755455" />
<polygon fill="#838383" fill-opacity="0.501961" points="861.572650,372.061320,859.150134,458.737214,867.825990,461.166308,894.877053,387.704921" />
<polygon fill="#7c7c7c" fill-opacity="0.501961" points="917.488830,375.051196,931.801822,241.826677,1028.268535,365.443548,1039.000000,442.611410" />
<polygon fill="#d2d2d2" fill-opacity="0.501961" points="40.057767,522.528694,77.318348,540.263351,43.662221,507.039353,11.377340,578.142997" />
<polygon fill="#bcbcbc" fill-opacity="0.501961" points="484.446684,617.471065,520.383450,663.283790,457.991596,645.756537,516.864131,698.000000" />
<polygon fill="#ffffff" fill-opacity="0.501961" points="869.368079,73.006772,924.001733,111.356632,896.473093,114.230604,848.989202,83.354988" />
<polygon fill="#e6e6e6" fill-opacity="0.501961" points="641.374174,121.353186,666.888764,-16.000000,643.861249,25.730550,679.368993,8.215505" />
<polygon fill="#aaaaaa" fill-opacity="0.501961" points="643.531606,373.678458,661.907451,336.090461,660.512093,364.364886,633.177156,349.190996" />
<polygon fill="#b8b8b8" fill-opacity="0.501961" points="174.153433,374.421340,179.440333,391.012476,182.604261,366.444584,174.687786,370.209911" />
<polygon fill="#e7e7e7" fill-opacity="0.501961" points="657.264619,145.838387,588.029114,52.371058,700.614497,68.633946,731.407059,62.251220" />
<polygon fill="#000000" fill-opacity="0.501961" points="77.012655,372.541859,44.078732,413.017053,17.314560,416.807501,46.000347,375.867348" />
<polygon fill="#f0f0f0" fill-opacity="0.501961" points="1006.950272,119.295509,958.414998,94.962132,969.151526,119.548774,1012.920984,125.467607" />
<polygon fill="#979797" fill-opacity="0.501961" points="255.705593,-1.709447,248.847770,12.045141,269.127272,10.070659,269.230784,5.854515" />
<polygon fill="#171717" fill-opacity="0.501961" points="823.008267,249.584516,750.116546,299.506356,718.667378,357.676040,771.050863,297.782609" />
<polygon fill="#ffffff" fill-opacity="0.501961" points="870.962373,592.261481,926.396248,595.700557,870.670634,601.545005,832.078244,586.430499" />
<polygon fill="#000000" fill-opacity="0.501961" points="318.678326,284.316445,312.209812,286.806972,360.890636,330.404129,390.885897,296.918955" />
<polygon fill="#000000" fill-opacity="0.501961" points="779.508597,138.357798,826.900002,222.748602,763.411867,158.662425,739.698879,148.649541" />
<polygon fill="#0a0a0a" fill-opacity="0.501961" points="526.483087,335.671476,372.763355,242.746635,402.563826,207.241972,374.234927,210.249993" />
<polygon fill="#040404" fill-opacity="0.501961" points="443.925589,342.030770,704.672598,395.869490,426.617402,372.813552,389.952029,388.083331" />
<polygon fill="#404040" fill-opacity="0.501961" points="350.388118,67.234785,438.407263,66.623286,493.327347,57.293433,444.370066,45.572279" />
<polygon fill="#000000" fill-opacity="0.501961" points="825.857732,640.461841,484.792306,621.749667,681.748194,515.359313,699.603237,519.273598" />
<polygon fill="#717171" fill-opacity="0.501961" points="980.603860,606.085262,819.804336,596.962285,836.530828,632.537578,862.211005,637.823486" />
<polygon fill="#767676" fill-opacity="0.501961" points="661.631566,39.172116,711.034994,89.275460,674.285287,43.683869,637.453769,17.815295" />
<polygon fill="#323232" fill-opacity="0.501961" points="236.999258,448.445037,260.470542,468.037114,271.502528,470.315283,243.592910,408.712181" />
<polygon fill="#c5c5c5" fill-opacity="0.501961" points="272.020966,401.802717,221.304163,371.590679,270.890302,430.473246,286.476376,396.982581" />
<polygon fill="#929292" fill-opacity="0.501961" points="64.335538,367.235373,16.623511,311.971298,69.716643,336.212890,109.426218,404.250342" />
<polygon fill="#090909" fill-opacity="0.501961" points="262.129698,323.104336,189.483569,322.696584,305.460959,310.261134,299.312684,290.107349" />
<polygon fill="#ffffff" fill-opacity="0.501961" points="657.567315,508.490697,414.713345,599.729814,625.892803,532.956370,671.789368,521.345202" />
<polygon fill="#c6c6c6" fill-opacity="0.501961" points="599.464464,135.239718,584.863944,128.602919,543.483772,165.500403,565.692466,187.400432" />
<polygon fill="#7d7d7d" fill-opacity="0.501961" points="554.783207,154.345029,621.904939,186.413332,602.571440,207.717479,522.006878,123.520060" />
<polygon fill="#202020" fill-opacity="0.501961" points="833.451092,487.913798,930.959263,443.159201,953.906160,467.358788,898.452275,485.548175" />
<polygon fill="#070707" fill-opacity="0.501961" points="677.173296,-16.000000,676.560689,31.442669,703.900667,-4.003796,659.008887,16.055014" />
<polygon fill="#131313" fill-opacity="0.501961" points="111.991579,612.604015,93.351771,561.059233,87.448568,598.630877,114.624425,568.077770" />
<polygon fill="#adadad" fill-opacity="0.501961" points="440.605783,377.334144,419.293116,398.097888,420.969959,377.530706,398.938145,387.260198" />
<polygon fill="#1b1b1b" fill-opacity="0.501961" points="999.376704,35.753192,972.371347,40.442045,961.774240,30.596987,982.487231,25.224590" />
<polygon fill="#141414" fill-opacity="0.501961" points="655.731024,209.633256,646.347412,227.597491,590.792087,232.815175,593.760829,197.820026" />
<polygon fill="#cacaca" fill-opacity="0.501961" points="60.013188,316.928117,36.456518,298.558420,72.112756,293.669605,79.798436,287.334845" />
<polygon fill="#040404" fill-opacity="0.501961" points="693.032350,48.756498,745.384222,24.317776,705.305799,66.358933,788.023765,52.796749" />
<polygon fill="#9b9b9b" fill-opacity="0.501961" points="4.117229,628.072116,34.095240,698.000000,44.049352,671.796493,4.918774,594.720260" />
<polygon fill="#000000" fill-opacity="0.501961" points="388.559868,651.690640,357.819947,693.088642,444.015180,637.607155,422.090296,636.145636" />
<polygon fill="#6a6a6a" fill-opacity="0.501961" points="688.787097,383.267351,826.313936,335.995298,831.645686,387.181133,703.894764,438.721126" />
<polygon fill="#767676" fill-opacity="0.501961" points="930.832209,139.747266,969.030226,128.905613,905.510564,174.021340,988.811885,223.529452" />
<polygon fill="#949494" fill-opacity="0.501961" points="46.928180,209.528178,67.750142,245.925734,71.028872,245.983183,70.513507,265.467337" />
<polygon fill="#c8c8c8" fill-opacity="0.501961" points="893.337037,228.243189,787.242121,246.686144,752.620783,274.255780,791.097467,265.512827" />
<polygon fill="#010101" fill-opacity="0.501961" points="881.522992,66.933241,879.165362,33.632780,842.724442,106.165122,833.316967,63.887569" />
<polygon fill="#adadad" fill-opacity="0.501961" points="230.669251,277.504996,170.725644,263.990891,200.779128,322.365497,162.174886,288.991483" />
<polygon fill="#a9a9a9" fill-opacity="0.501961" points="302.026419,476.045589,248.163742,443.204390,325.213053,444.753004,223.884651,487.302967" />
<polygon fill="#020202" fill-opacity="0.501961" points="679.115173,392.202213,642.152303,372.462186,679.354844,354.199132,719.564680,318.787009" />
<polygon fill="#000000" fill-opacity="0.501961" points="41.248553,87.095295,92.973849,132.754509,113.547852,126.172540,46.946726,-16.000000" />
<polygon fill="#9a9a9a" fill-opacity="0.501961" points="379.692179,165.199648,426.309693,204.339927,417.540777,241.169631,408.712864,199.332688" />
<polygon fill="#000000" fill-opacity="0.501961" points="773.314518,98.777927,729.671431,110.383245,758.489624,117.231162,790.534207,103.534443" />
<polygon fill="#101010" fill-opacity="0.501961" points="974.422189,78.434162,961.389669,96.342837,959.367351,47.832006,973.576920,68.845136" />
<polygon fill="#dadada" fill-opacity="0.501961" points="1016.439670,81.942056,1035.080607,62.909868,1039.000000,92.708290,978.606723,86.689125" />
<polygon fill="#6b6b6b" fill-opacity="0.501961" points="612.456207,653.582573,603.474286,658.033216,584.995392,660.907657,580.319192,644.316920" />
<polygon fill="#a9a9a9" fill-opacity="0.501961" points="194.506275,194.068265,180.543777,184.921725,194.940853,208.288850,242.924849,174.292821" />
<polygon fill="#3f3f3f" fill-opacity="0.501961" points="-16.000000,30.389970,45.554627,-16.000000,39.757092,50.643058,-2.234878,93.234788" />
<polygon fill="#b7b7b7" fill-opacity="0.501961" points="983.650172,170.395818,935.195737,91.691211,959.326099,113.537889,926.069300,121.444514" />
<polygon fill="#5f5f5f" fill-opacity="0.501961" points="524.643962,667.121187,479.246512,643.328868,552.276265,696.188402,545.771210,656.685960" />
<polygon fill="#090909" fill-opacity="0.501961" points="959.047061,235.043897,954.819805,200.008845,941.715446,217.770571,919.215924,251.029489" />
<polygon fill="#2d2d2d" fill-opacity="0.501961" points="797.014256,226.081484,795.709283,246.081570,736.346163,223.124086,763.273748,264.173899" />
<polygon fill="#7c7c7c" fill-opacity="0.501961" points="682.894243,533.791073,700.748779,520.341807,796.981582,532.210446,659.359048,497.966281" />
<polygon fill="#000000" fill-opacity="0.501961" points="171.022692,200.833693,104.214307,389.069586,189.348709,312.217406,163.080158,316.292521" />
<polygon fill="#080808" fill-opacity="0.501961" points="1039.000000,679.428335,1030.494509,510.394481,1000.861159,582.645313,979.397288,616.590986" />
<polygon fill="#000000" fill-opacity="0.501961" points="452.128469,374.329128,517.922775,315.621582,511.506998,355.090156,542.465584,473.244227" />
<polygon fill="#454545" fill-opacity="0.501961" points="321.663243,201.650314,309.577598,168.082390,343.929146,170.560281,466.343138,153.021977" />
<polygon fill="#000000" fill-opacity="0.501961" points="4.932582,152.451516,29.837763,128.992375,3.053717,217.017042,-16.000000,248.412513" />
<polygon fill="#bcbcbc" fill-opacity="0.501961" points="376.705316,383.028353,374.205801,394.700585,339.711736,381.116996,352.739013,378.455341" />
<polygon fill="#8c8c8c" fill-opacity="0.501961" points="895.868527,211.185037,885.410734,235.345486,791.268409,231.078999,811.134877,225.052314" />
<polygon fill="#1d1d1d" fill-opacity="0.501961" points="903.530568,106.011058,894.356780,160.837173,937.866218,121.331670,890.553104,107.099839" />
<polygon fill="#b8b8b8" fill-opacity="0.501961" points="826.652320,457.270619,804.345172,450.701539,823.967310,471.908310,842.224033,478.281489" />
<polygon fill="#717171" fill-opacity="0.501961" points="739.635207,209.428794,772.582338,173.244575,747.755328,172.087776,768.603744,198.922704" />
<polygon fill="#575757" fill-opacity="0.501961" points="207.611303,638.200565,228.328686,564.318603,179.277232,679.957380,215.512077,642.842713" />
<polygon fill="#000000" fill-opacity="0.501961" points="355.083174,528.517037,579.567797,493.834442,349.639711,471.674855,298.806249,593.449522" />
<polygon fill="#191919" fill-opacity="0.501961" points="194.110872,527.313193,237.600623,562.554364,214.571799,538.347471,218.107191,502.652273" />
<polygon fill="#030303" fill-opacity="0.501961" points="88.650043,670.537318,119.245100,697.003669,130.900039,666.873775,118.101290,658.240919" />
<polygon fill="#454545" fill-opacity="0.501961" points="776.467619,15.670271,787.252836,43.551567,795.430419,84.436535,792.444176,-10.325649" />
<polygon fill="#1d1d1d" fill-opacity="0.501961" points="146.273104,571.379630,160.399123,582.344687,183.619882,630.231770,151.226538,579.509374" />
<polygon fill="#878787" fill-opacity="0.501961" points="492.078082,462.087416,586.663603,481.759125,773.432136,534.234320,563.002329,491.211761" />
<polygon fill="#ffffff" fill-opacity="0.501961" points="960.637151,61.566852,954.335188,95.409625,907.474614,77.460598,906.499101,60.147489" />
<polygon fill="#c3c3c3" fill-opacity="0.501961" points="959.240555,587.432946,1002.820867,533.314221,977.697314,560.063555,919.695239,594.915855" />
<polygon fill="#b8b8b8" fill-opacity="0.501961" points="572.906718,327.400493,568.122197,367.555880,601.277703,342.161166,603.781312,381.123364" />
<polygon fill="#000000" fill-opacity="0.501961" points="1020.319702,275.875946,962.612693,282.465774,975.412435,286.712331,987.395500,216.926128" />
<polygon fill="#d9d9d9" fill-opacity="0.501961" points="84.127305,218.511579,119.903426,192.852882,120.124332,206.608488,89.735405,176.763278" />
<polygon fill="#000000" fill-opacity="0.501961" points="185.679239,242.682113,200.572848,218.197041,201.787041,204.718597,186.079561,230.443168" />
<polygon fill="#181818" fill-opacity="0.501961" points="279.703608,154.583375,185.424649,162.968557,203.166950,183.826728,224.190537,170.805649" />
<polygon fill="#424242" fill-opacity="0.501961" points="556.528051,332.644999,520.774297,305.765839,499.250994,276.886707,565.827672,333.822848" />
<polygon fill="#000000" fill-opacity="0.501961" points="46.027570,189.955569,17.333691,240.528015,28.675333,185.780003,60.307123,173.953682" />
<polygon fill="#666666" fill-opacity="0.501961" points="976.046925,644.908451,923.100342,672.439563,956.120622,661.457364,998.636228,639.859551" />
<polygon fill="#030303" fill-opacity="0.501961" points="376.200192,360.524966,404.335153,355.755574,405.894366,342.825101,383.782410,349.840777" />
<polygon fill="#9c9c9c" fill-opacity="0.501961" points="272.060555,317.059350,207.920475,411.249553,277.792449,367.315545,292.274337,381.176530" />
<polygon fill="#565656" fill-opacity="0.501961" points="81.340636,557.279455,127.718378,518.964287,137.760913,477.935858,48.030373,540.994644" />
<polygon fill="#0a0a0a" fill-opacity="0.501961" points="127.365679,273.151102,87.459928,294.922553,60.952712,221.634287,73.436636,215.789381" />
<polygon fill="#000000" fill-opacity="0.501961" points="993.145128,316.588717,1027.584038,226.936011,946.717186,243.604252,1018.856910,312.445645" />
<polygon fill="#bdbdbd" fill-opacity="0.501961" points="781.472012,136.663239,759.554741,143.975646,731.205075,130.782998,777.139089,137.724692" />
<polygon fill="#000000" fill-opacity="0.501961" points="667.218736,663.891506,621.837714,698.000000,569.877928,586.368010,689.408202,556.726793" />
<polygon fill="#d8d8d8" fill-opacity="0.501961" points="544.414121,317.231605,587.108913,336.816382,628.744628,338.018531,595.763236,285.285919" />
<polygon fill="#484848" fill-opacity="0.501961" points="839.059667,417.557937,866.361457,452.989738,821.337588,414.153535,850.865474,416.967491" />
<polygon fill="#a9a9a9" fill-opacity="0.501961" points="278.075184,420.771544,298.683305,406.472818,261.677795,506.952475,258.049628,485.111245" />
<polygon fill="#717171" fill-opacity="0.501961" points="585.409714,123.407169,506.106982,106.080005,474.050097,151.169268,476.840471,197.488975" />
<polygon fill="#636363" fill-opacity="0.501961" points="386.427134,446.587415,374.618502,421.405629,385.970343,478.177237,391.821223,486.512507" />
<polygon fill="#000000" fill-opacity="0.501961" points="376.500018,150.259578,456.292761,149.739973,432.664440,118.322989,378.168167,126.308521" />
<polygon fill="#e3e3e3" fill-opacity="0.501961" points="450.473763,425.185645,462.869945,436.121845,455.733856,442.292245,449.807475,436.295607" />
<polygon fill="#a6a6a6" fill-opacity="0.501961" points="619.652929,225.468887,723.671033,285.017900,687.392495,330.784085,685.133690,352.511823" />
<polygon fill="#111111" fill-opacity="0.501961" points="798.898187,175.331114,945.290186,155.287268,862.568359,135.696009,813.529596,153.408749" />
<polygon fill="#bababa" fill-opacity="0.501961" points="979.631537,203.014878,1025.030907,228.760868,1006.975542,200.026782,973.864887,234.659879" />
<polygon fill="#d0d0d0" fill-opacity="0.501961" points="194.441198,325.235909,186.286148,344.982371,201.199141,343.677512,238.748282,365.813940" />
<polygon fill="#c1c1c1" fill-opacity="0.501961" points="898.158159,386.226595,945.026013,429.123814,920.096914,427.330464,915.164026,450.795952" />
<polygon fill="#292929" fill-opacity="0.501961" points="124.909644,647.963665,52.178695,632.508683,45.877238,621.215772,98.731864,606.498887" />
<polygon fill="#a9a9a9" fill-opacity="0.501961" points="457.122039,324.408741,439.404585,307.020987,453.220698,340.545778,472.900047,325.508488" />
<polygon fill="#b8b8b8" fill-opacity="0.501961" points="125.622817,243.128488,115.894754,213.337962,134.232392,207.809049,115.344185,230.895163" />
<polygon fill="#4b4b4b" fill-opacity="0.501961" points="37.276540,385.756520,12.248134,412.175916,21.664542,374.170040,138.883545,322.366847" />
<polygon fill="#f8f8f8" fill-opacity="0.501961" points="5.132059,446.295651,-16.000000,410.876233,20.325566,428.749308,-16.000000,440.735602" />
<polygon fill="#202020" fill-opacity="0.501961" points="889.551072,27.572229,901.425516,11.983143,906.242675,32.122503,895.348960,27.929825" />
<polygon fill="#000000" fill-opacity="0.501961" points="399.009510,27.102785,292.921227,-16.000000,375.820430,47.107336,386.121256,69.004674" />
<polygon fill="#0e0e0e" fill-opacity="0.501961" points="101.410967,413.728191,70.176210,427.291228,80.613439,445.659463,110.268219,431.558653" />
<polygon fill="#b5b5b5" fill-opacity="0.501961" points="350.431439,294.157855,324.579167,254.881119,332.923803,292.582988,345.809218,266.066257" />
<polygon fill="#d7d7d7" fill-opacity="0.501961" points="875.991987,240.052520,827.012494,251.102438,890.343191,251.362906,885.226628,213.762840" />
<polygon fill="#090909" fill-opacity="0.501961" points="57.365880,301.899044,78.854364,300.909579,62.499382,334.621811,104.530914,321.316857" />
<polygon fill="#969696" fill-opacity="0.501961" points="376.481133,326.634439,358.331345,351.521313,355.643266,328.832459,377.141536,373.152312" />
<polygon fill="#6a6a6a" fill-opacity="0.501961" points="978.813316,179.020981,1017.316394,157.071025,1039.000000,204.668196,977.668747,123.619681" />
<polygon fill="#030303" fill-opacity="0.501961" points="7.535129,233.556553,57.601504,230.035068,7.201708,287.987033,67.096822,275.148658" />
<polygon fill="#f5f5f5" fill-opacity="0.501961" points="721.351238,425.244686,752.392789,513.960047,734.248557,478.991864,728.188889,450.773411" />
<polygon fill="#5f5f5f" fill-opacity="0.501961" points="58.528038,407.149154,85.156761,421.090276,92.759496,385.650142,74.256160,373.525695" />
<polygon fill="#000000" fill-opacity="0.501961" points="113.573655,177.094490,171.039847,217.077610,185.557822,165.243323,108.506709,198.441642" />
<polygon fill="#000000" fill-opacity="0.501961" points="447.069478,570.981862,382.716901,438.739227,432.248056,381.144849,435.518707,452.442958" />
<polygon fill="#000000" fill-opacity="0.501961" points="893.331587,626.195014,891.650347,686.727228,913.184169,667.940026,899.147125,622.571169" />
<polygon fill="#c4c4c4" fill-opacity="0.501961" points="98.608927,406.899394,95.946305,360.873070,78.931973,386.581735,109.715657,372.051415" />
<polygon fill="#131313" fill-opacity="0.501961" points="548.896793,188.630308,560.799029,186.063933,564.383252,199.772986,545.753081,192.124812" />
<polygon fill="#cbcbcb" fill-opacity="0.501961" points="552.207074,331.007638,556.246686,360.823284,565.842032,352.089596,621.773063,358.237676" />
<polygon fill="#d5d5d5" fill-opacity="0.501961" points="110.965546,698.000000,93.887697,681.424815,72.523496,662.306264,86.559571,669.110376" />
<polygon fill="#000000" fill-opacity="0.501961" points="360.842867,340.751129,264.948285,389.860630,272.744604,378.355197,270.775610,405.747143" />
<polygon fill="#d9d9d9" fill-opacity="0.501961" points="696.894484,161.503391,581.133170,161.396787,590.241582,189.231739,602.826755,179.589790" />
<polygon fill="#b4b4b4" fill-opacity="0.501961" points="882.638531,256.196921,927.311468,232.232419,912.127711,258.447110,900.116383,227.668245" />
<polygon fill="#000000" fill-opacity="0.501961" points="780.497398,162.204555,805.909062,167.797979,744.097262,175.591575,746.796892,166.298662" />
<polygon fill="#777777" fill-opacity="0.501961" points="27.141627,258.006196,14.404907,306.126193,28.128179,310.448581,-16.000000,260.833833" />
<polygon fill="#ffffff" fill-opacity="0.501961" points="897.757663,28.341818,862.139086,18.564096,865.787808,31.710236,914.296535,31.321685" />
<polygon fill="#e3e3e3" fill-opacity="0.501961" points="947.144003,194.020717,889.786278,206.950217,868.419033,202.095507,934.369952,190.780440" />
<polygon fill="#b9b9b9" fill-opacity="0.501961" points="305.885475,240.391258,308.761892,247.370546,314.380182,300.675174,301.053000,292.554663" />
<polygon fill="#c8c8c8" fill-opacity="0.501961" points="303.382395,104.082811,300.106357,127.568424,267.750895,79.035879,301.828467,75.941219" />
<polygon fill="#080808" fill-opacity="0.501961" points="536.181615,384.988356,549.872335,419.431588,577.262416,354.298097,583.602755,361.554518" />
<polygon fill="#000000" fill-opacity="0.501961" points="742.210776,190.110164,803.452577,171.204402,825.748553,220.157406,795.491328,229.450119" />
<polygon fill="#7a7a7a" fill-opacity="0.501961" points="438.245730,605.179906,429.956637,634.280818,512.322449,637.735315,478.743124,613.586667" />
<polygon fill="#d7d7d7" fill-opacity="0.501961" points="774.774171,114.260445,768.501957,113.625994,767.893347,122.992133,712.334597,122.661366" />
<polygon fill="#0c0c0c" fill-opacity="0.501961" points="902.132255,219.261107,872.110968,235.386646,870.580738,221.896664,895.359445,235.636951" />
<polygon fill="#383838" fill-opacity="0.501961" points="425.647375,337.595526,394.809630,294.578425,438.829361,300.981913,461.432919,383.240732" />
<polygon fill="#5b5b5b" fill-opacity="0.501961" points="195.321235,524.201604,226.620543,582.928877,205.935525,578.990164,186.613575,544.474461" />
<polygon fill="#919191" fill-opacity="0.501961" points="198.199411,528.731434,207.150690,494.592317,173.735267,503.238797,188.541814,526.281292" />
<polygon fill="#080808" fill-opacity="0.501961" points="360.039064,206.771489,384.270397,174.243235,348.200118,185.226932,400.540635,194.616062" />
<polygon fill="#afafaf" fill-opacity="0.501961" points="220.786662,210.861642,206.085772,203.843800,267.072583,190.061223,220.551184,195.174941" />
<polygon fill="#040404" fill-opacity="0.501961" points="49.965362,510.783692,21.889561,503.620235,76.837775,456.533586,31.929851,468.926739" />
<polygon fill="#7b7b7b" fill-opacity="0.501961" points="1004.857695,292.309858,937.344444,327.314321,985.778629,274.758060,974.271637,362.142197" />
<polygon fill="#e2e2e2" fill-opacity="0.501961" points="905.018234,423.109543,885.962853,436.516932,859.233644,393.420914,903.109446,424.303667" />
<polygon fill="#212121" fill-opacity="0.501961" points="211.500167,196.673976,239.792752,228.432003,256.155513,212.990102,218.096337,189.955117" />
<polygon fill="#8f8f8f" fill-opacity="0.501961" points="729.788612,530.190875,781.094414,555.699420,698.148518,435.330954,712.287961,482.640082" />
<polygon fill="#000000" fill-opacity="0.501961" points="309.417623,243.404793,309.120233,237.661517,322.484159,238.341345,315.204385,247.234643" />
<polygon fill="#020202" fill-opacity="0.501961" points="929.687824,222.818445,905.973539,231.242230,904.750977,246.961727,907.881147,244.789342" />
<polygon fill="#f5f5f5" fill-opacity="0.501961" points="206.143834,535.873716,219.870866,551.570477,242.283461,566.614949,225.953156,566.691247" />
<polygon fill="#828282" fill-opacity="0.501961" points="197.588325,456.441545,237.454206,447.767230,202.575434,376.536639,207.016617,436.575786" />
<polygon fill="#939393" fill-opacity="0.501961" points="955.574686,273.344986,869.725925,222.770621,966.387991,286.634947,975.690694,264.277778" />
<polygon fill="#b2b2b2" fill-opacity="0.501961" points="162.363226,671.394183,172.525108,637.201781,148.150131,647.525292,161.544027,664.339806" />
<polygon fill="#151515" fill-opacity="0.501961" points="188.407686,438.087454,188.765805,482.792043,205.524456,419.587321,188.515136,445.620852" />
<polygon fill="#8c8c8c" fill-opacity="0.501961" points="17.000026,209.162162,69.334458,220.695037,91.048370,165.660782,41.131997,227.656236" />
<polygon fill="#aaaaaa" fill-opacity="0.501961" points="726.614528,123.336876,695.008851,50.314478,726.666457,46.331783,687.835601,67.843203" />
<polygon fill="#000000" fill-opacity="0.501961" points="150.055282,445.821900,90.941625,339.473433,86.677955,371.545773,136.194822,314.971622" />
<polygon fill="#ffffff" fill-opacity="0.501961" points="888.557616,66.869598,897.195165,86.531234,875.332696,113.973534,854.767330,77.097937" />
<polygon fill="#636363" fill-opacity="0.501961" points="316.896263,333.341491,295.713562,370.973914,282.043578,322.993523,296.812555,307.054348" />
<polygon fill="#1d1d1d" fill-opacity="0.501961" points="1025.017214,66.618220,1009.223292,87.580216,1013.364990,27.404181,1004.470988,44.621022" />
<polygon fill="#0f0f0f" fill-opacity="0.501961" points="210.229486,351.428712,209.310355,401.304788,223.470929,364.297753,151.321237,411.080564" />
<polygon fill="#090909" fill-opacity="0.501961" points="748.163614,268.517512,725.317402,256.819366,738.106473,273.187563,758.711467,236.124845" />
<polygon fill="#6f6f6f" fill-opacity="0.501961" points="562.783312,117.050828,571.229395,114.141654,653.873288,148.334586,609.640077,158.153973" />
<polygon fill="#000000" fill-opacity="0.501961" points="319.954790,344.420983,329.979070,272.654339,315.242722,289.622606,351.633048,319.448829" />
<polygon fill="#000000" fill-opacity="0.501961" points="251.219003,160.144640,284.652505,158.061460,289.585460,130.015550,261.422934,130.071202" />
<polygon fill="#c3c3c3" fill-opacity="0.501961" points="541.719744,199.421186,555.264810,213.109751,575.206908,215.410640,538.670558,188.142662" />
<polygon fill="#101010" fill-opacity="0.501961" points="20.015612,441.983025,32.252589,457.487010,61.540602,441.267823,44.921910,443.859276" />
<polygon fill="#a0a0a0" fill-opacity="0.501961" points="527.727822,226.156440,491.686993,309.018420,496.249375,313.338886,586.625515,221.138549" />
<polygon fill="#4e4e4e" fill-opacity="0.501961" points="791.361243,479.985912,856.659279,489.673945,835.552199,479.483485,787.814387,444.023569" />
<polygon fill="#b4b4b4" fill-opacity="0.501961" points="43.188905,282.933098,23.903375,284.584191,37.961267,291.886852,59.249112,328.797223" />
<polygon fill="#5b5b5b" fill-opacity="0.501961" points="132.016564,307.573955,83.380920,294.232063,128.883398,326.063427,115.566549,273.265336" />
<polygon fill="#272727" fill-opacity="0.501961" points="875.846752,181.308827,822.950487,169.240315,857.949915,231.276385,898.991686,157.772575" />
<polygon fill="#a3a3a3" fill-opacity="0.501961" points="791.013906,266.866288,763.399782,240.006433,769.327562,261.007504,722.581693,309.758780" />
<polygon fill="#000000" fill-opacity="0.501961" points="224.210794,406.016122,243.007250,404.392767,208.209870,416.576514,197.224014,434.815326" />
<polygon fill="#040404" fill-opacity="0.501961" points="723.960706,95.253138,729.112300,91.950148,736.140122,85.835352,791.368569,96.763034" />
<polygon fill="#9a9a9a" fill-opacity="0.501961" points="893.238335,522.763469,821.002430,489.531783,947.986131,629.730428,938.364887,630.748027" />
<polygon fill="#a3a3a3" fill-opacity="0.501961" points="281.674589,493.070597,250.400914,484.550756,343.114788,461.465094,272.220478,464.753813" />
<polygon fill="#d4d4d4" fill-opacity="0.501961" points="164.953808,579.598194,178.751479,598.639367,141.629122,565.534104,153.175742,566.099604" />
<polygon fill="#5e5e5e" fill-opacity="0.501961" points="963.284658,686.955808,1039.000000,651.984419,1039.000000,663.011319,954.075969,698.000000" />
<polygon fill="#000000" fill-opacity="0.501961" points="576.348330,494.508733,409.747640,478.259811,541.601068,525.958027,634.358742,505.313239" />
<polygon fill="#656565" fill-opacity="0.501961" points="311.579076,50.730643,380.020998,47.213022,379.185043,74.409542,376.148338,140.497544" />
<polygon fill="#818181" fill-opacity="0.501961" points="261.224855,594.820765,246.089275,596.265242,242.400251,579.488080,289.906434,549.185912" />
<polygon fill="#555555" fill-opacity="0.501961" points="377.114009,698.000000,400.687410,663.112548,428.714679,646.223358,466.917954,643.867656" />
<polygon fill="#535353" fill-opacity="0.501961" points="301.998156,379.710856,326.997836,411.737550,366.545994,373.452722,297.690531,393.176844" />
<polygon fill="#090909" fill-opacity="0.501961" points="369.631822,285.782158,351.129506,275.885964,345.535140,332.392231,308.462790,305.609052" />
<polygon fill="#9b9b9b" fill-opacity="0.501961" points="728.884397,172.096460,735.659768,153.151049,773.588335,155.378488,773.439131,159.435374" />
<polygon fill="#dddddd" fill-opacity="0.501961" points="580.153576,123.111753,618.874737,94.001665,644.246403,175.943760,619.224637,128.461403" />
<polygon fill="#dedede" fill-opacity="0.501961" points="439.523912,98.539039,469.906866,98.786376,385.934523,118.317457,380.095685,67.921253" />
<polygon fill="#5f5f5f" fill-opacity="0.501961" points="929.635274,17.193723,1007.446931,11.171028,1026.156907,64.056864,1016.989137,-10.937108" />
<polygon fill="#000000" fill-opacity="0.501961" points="157.461973,698.000000,166.077843,662.662397,220.684881,698.000000,336.003161,573.701116" />
<polygon fill="#ffffff" fill-opacity="0.501961" points="983.902141,84.329435,1010.678354,64.939935,989.929665,37.294846,967.843676,54.545564" />
<polygon fill="#c0c0c0" fill-opacity="0.501961" points="92.740634,212.430767,117.215129,180.205178,64.473073,193.580479,98.601461,225.574335" />
<polygon fill="#000000" fill-opacity="0.501961" points="999.733157,286.372858,986.696310,302.016272,981.501808,296.058133,1039.000000,187.798707" />
<polygon fill="#000000" fill-opacity="0.501961" points="691.652616,25.357973,715.977939,25.777192,687.465134,38.760676,686.576649,34.576856" />
<polygon fill="#191919" fill-opacity="0.501961" points="161.348731,567.323264,207.124777,612.016989,201.517348,631.870906,188.189187,570.668817" />
<polygon fill="#a0a0a0" fill-opacity="0.501961" points="796.276049,276.992216,821.430453,262.401975,789.377406,339.772870,766.538599,304.524480" />
<polygon fill="#010101" fill-opacity="0.501961" points="233.971272,530.104348,263.473523,536.176078,277.327756,495.888713,249.149278,527.964920" />
<polygon fill="#151515" fill-opacity="0.501961" points="947.944975,44.836826,952.260088,41.356613,955.776516,55.852093,874.325471,59.575157" />
<polygon fill="#ffffff" fill-opacity="0.501961" points="1010.317585,17.931440,1008.939424,35.605204,969.447847,13.830834,988.267704,11.558844" />
<polygon fill="#c4c4c4" fill-opacity="0.501961" points="197.767367,260.618489,195.443549,230.548244,185.891211,280.368199,174.053480,261.619218" />
<polygon fill="#000000" fill-opacity="0.501961" points="975.449358,215.190189,955.221851,224.749914,946.946446,261.321150,937.251413,257.343088" />
<polygon fill="#1e1e1e" fill-opacity="0.501961" points="291.578308,166.327616,283.483551,206.143438,313.145196,191.621029,351.198790,236.590425" />
<polygon fill="#000000" fill-opacity="0.501961" points="1006.133004,326.884765,1039.000000,295.141966,1005.853160,336.158650,1024.891353,330.812130" />
<polygon fill="#0d0d0d" fill-opacity="0.501961" points="428.014281,291.303736,487.743547,259.919780,475.083346,233.761613,426.415431,231.038347" />
<polygon fill="#181818" fill-opacity="0.501961" points="147.082725,146.657416,147.788644,163.165674,98.918692,184.384990,102.106637,176.507341" />
<polygon fill="#e6e6e6" fill-opacity="0.501961" points="108.394785,647.707466,129.092880,664.186884,128.276913,671.423315,132.484467,650.326734" />
<polygon fill="#e0e0e0" fill-opacity="0.501961" points="864.570284,252.830619,864.223675,219.967079,892.478638,212.878932,871.930007,220.185988" />
<polygon fill="#aaaaaa" fill-opacity="0.501961" points="239.481846,188.980617,233.231020,161.038230,222.616390,190.549427,214.108016,162.096752" />
<polygon fill="#c8c8c8" fill-opacity="0.501961" points="250.560348,261.160643,200.423066,243.043443,226.068323,233.770516,245.959738,244.799460" />
<polygon fill="#1b1b1b" fill-opacity="0.501961" points="271.311088,316.707914,189.698463,290.487302,230.075270,279.562579,266.028796,285.692139" />
<polygon fill="#e1e1e1" fill-opacity="0.501961" points="248.570922,229.969173,256.412648,197.192390,272.230828,248.107196,257.535373,230.841983" />
<polygon fill="#ffffff" fill-opacity="0.501961" points="914.748280,16.969274,939.632189,19.848222,929.148342,36.135010,901.322881,24.131985" />
<polygon fill="#717171" fill-opacity="0.501961" points="524.565292,694.078699,565.445883,673.074634,542.122036,673.869665,513.288790,630.470558" />
<polygon fill="#bfbfbf" fill-opacity="0.501961" points="347.710292,196.735633,374.360280,214.236025,359.498816,220.213394,366.530994,188.763666" />
<polygon fill="#b2b2b2" fill-opacity="0.501961" points="902.605586,263.113480,914.013128,384.046293,815.506525,339.310406,881.124435,325.932482" />
<polygon fill="#a5a5a5" fill-opacity="0.501961" points="544.555280,-12.444862,449.538279,23.753368,492.746756,40.060940,489.632041,27.578938" />
<polygon fill="#adadad" fill-opacity="0.501961" points="161.353309,518.043353,155.791969,538.472638,152.686460,529.357101,199.428504,582.539502" />
<polygon fill="#7a7a7a" fill-opacity="0.501961" points="997.032864,412.756237,910.816284,440.249775,1035.652798,329.053468,913.416658,359.592963" />
<polygon fill="#d1d1d1" fill-opacity="0.501961" points="-6.112912,332.297222,70.621723,338.239995,38.510516,318.170413,47.019613,356.122647" />
<polygon fill="#111111" fill-opacity="0.501961" points="338.471682,262.669216,344.219705,271.602323,362.271147,255.594879,365.226083,232.692482" />
<polygon fill="#707070" fill-opacity="0.501961" points="96.541954,155.566879,80.397553,116.553458,58.154409,127.329744,111.019887,133.057443" />
<polygon fill="#303030" fill-opacity="0.501961" points="232.658798,352.924524,240.619868,357.470694,230.107033,355.100949,190.037555,321.037169" />
<polygon fill="#b3b3b3" fill-opacity="0.501961" points="275.979396,515.149339,266.507132,527.793614,269.781240,531.303427,282.117288,530.536390" />
<polygon fill="#2a2a2a" fill-opacity="0.501961" points="492.195318,128.801099,456.510038,87.423163,565.139308,39.603832,464.478855,70.802031" />
<polygon fill="#e1e1e1" fill-opacity="0.501961" points="65.026051,301.666246,70.880533,316.859789,52.866546,299.500347,77.486549,294.913438" />
<polygon fill="#4b4b4b" fill-opacity="0.501961" points="631.948922,341.142778,612.053758,346.505319,587.005617,342.638837,558.885984,334.082920" />
<polygon fill="#3d3d3d" fill-opacity="0.501961" points="57.925187,340.221678,48.461599,346.991483,41.014338,328.503400,31.149721,334.052769" />
<polygon fill="#999999" fill-opacity="0.501961" points="292.235487,156.528762,294.971370,148.980345,314.984225,187.969049,304.711340,180.397397" />
<polygon fill="#101010" fill-opacity="0.501961" points="479.504731,409.599088,494.539211,464.380667,437.153930,498.475065,480.642576,458.429936" />
<polygon fill="#000000" fill-opacity="0.501961" points="97.259976,353.667015,199.034586,334.368422,152.785282,328.078911,97.302307,380.166313" />
<polygon fill="#c4c4c4" fill-opacity="0.501961" points="226.668566,352.621876,225.201559,380.415345,210.754683,341.152814,207.862025,374.513504" />
<polygon fill="#000000" fill-opacity="0.501961" points="704.795435,322.730150,703.012052,340.623207,694.505227,317.601300,700.134147,319.664619" />
<polygon fill="#b9b9b9" fill-opacity="0.501961" points="339.899482,255.355935,338.900491,261.135513,311.633174,264.576031,265.645053,263.455228" />
<polygon fill="#000000" fill-opacity="0.501961" points="99.222357,238.463611,96.486102,213.351391,107.773099,207.505005,116.049998,226.159299" />
<polygon fill="#010101" fill-opacity="0.501961" points="547.564666,639.257636,768.308071,567.596297,535.263528,562.442504,519.349266,652.287264" />
<polygon fill="#909090" fill-opacity="0.501961" points="762.747759,219.058227,660.298276,252.498859,772.645419,193.045423,677.341791,199.963862" />
<polygon fill="#c6c6c6" fill-opacity="0.501961" points="246.816955,121.532968,227.192208,116.785115,252.615840,112.622203,253.199993,152.949349" />
<polygon fill="#030303" fill-opacity="0.501961" points="528.643228,328.576641,477.077784,369.033109,448.886454,219.024250,522.815099,387.133585" />
<polygon fill="#000000" fill-opacity="0.501961" points="36.296678,673.079583,-14.792125,694.335835,-9.297375,584.770593,15.453031,680.878564" />
<polygon fill="#c2c2c2" fill-opacity="0.501961" points="886.532499,613.171606,839.729953,603.536371,916.514740,607.715166,953.776804,590.578168" />
<polygon fill="#898989" fill-opacity="0.501961" points="118.061034,459.164055,119.458448,444.778371,137.854233,414.123681,108.530994,421.441705" />
<polygon fill="#000000" fill-opacity="0.501961" points="723.392925,80.140914,782.171662,77.228086,775.112395,58.883108,715.065567,74.763095" />
<polygon fill="#565656" fill-opacity="0.501961" points="88.403315,602.425198,167.411369,698.000000,135.733072,622.836599,139.158667,614.700959" />
<polygon fill="#9d9d9d" fill-opacity="0.501961" points="219.918231,174.883154,190.801833,207.918011,174.140082,200.563964,187.928758,222.461505" />
<polygon fill="#1f1f1f" fill-opacity="0.501961" points="942.911700,108.700403,892.489959,76.371322,943.967232,136.837238,883.593673,150.346850" />
<polygon fill="#5b5b5b" fill-opacity="0.501961" points="172.884997,363.603676,141.238082,358.455163,138.672128,358.556540,161.505573,351.510336" />
<polygon fill="#828282" fill-opacity="0.501961" points="130.937919,116.206100,115.352617,118.322417,133.056769,139.221262,194.431211,164.640648" />
<polygon fill="#e3e3e3" fill-opacity="0.501961" points="885.755773,262.087877,891.535199,282.072028,861.386780,337.047722,847.527629,257.836361" />
<polygon fill="#898989" fill-opacity="0.501961" points="756.100620,263.612328,718.376704,320.761899,696.772061,388.791793,708.789343,389.944566" />
<polygon fill="#000000" fill-opacity="0.501961" points="183.720630,504.642617,180.947344,538.731352,156.534831,473.268629,165.841856,536.552108" />
<polygon fill="#767676" fill-opacity="0.501961" points="400.979009,361.697950,412.048344,359.066634,428.693253,317.689850,410.929466,393.401738" />
<polygon fill="#6a6a6a" fill-opacity="0.501961" points="897.602548,389.679950,874.822000,375.677643,843.976245,375.384903,893.733536,402.722683" />
<polygon fill="#050505" fill-opacity="0.501961" points="114.658645,395.735511,185.111845,431.581549,131.539754,452.942485,191.298997,328.709094" />
<polygon fill="#4e4e4e" fill-opacity="0.501961" points="255.338422,302.012848,266.113543,272.020933,324.049497,270.037162,203.498380,302.439532" />
<polygon fill="#070707" fill-opacity="0.501961" points="675.549011,381.238972,706.354927,379.042442,670.182940,343.333339,679.421148,336.298176" />
<polygon fill="#464646" fill-opacity="0.501961" points="253.939466,109.672551,257.768778,179.463568,263.351029,77.988536,248.324365,84.804654" />
<polygon fill="#b0b0b0" fill-opacity="0.501961" points="0.711885,216.908469,27.313076,205.210534,2.972836,244.225257,23.704168,252.411642" />
<polygon fill="#1d1d1d" fill-opacity="0.501961" points="864.289653,251.378476,869.144732,251.006025,831.711558,253.332638,907.559500,263.192023" />
<polygon fill="#d8d8d8" fill-opacity="0.501961" points="118.164586,383.857269,94.116644,398.204345,99.191017,415.360746,109.601424,422.231145" />
<polygon fill="#d8d8d8" fill-opacity="0.501961" points="743.465340,493.532648,775.476381,545.999763,725.388203,483.685953,747.068577,525.376606" />
<polygon fill="#3b3b3b" fill-opacity="0.501961" points="877.029871,107.880810,878.618021,123.734015,846.218353,121.152555,895.164059,107.506595" />
<polygon fill="#3f3f3f" fill-opacity="0.501961" points="941.956388,633.032590,1011.212765,585.142508,1009.593317,592.165878,1034.326201,481.899557" />
<polygon fill="#919191" fill-opacity="0.501961" points="567.684267,112.998483,593.069042,22.029068,609.954378,15.298960,625.352431,21.449104" />
<polygon fill="#424242" fill-opacity="0.501961" points="310.886780,82.281751,369.724233,99.092240,363.455984,145.811766,307.468215,133.440870" />
<polygon fill="#cecece" fill-opacity="0.501961" points="10.180552,576.622197,57.454237,540.759052,88.597033,574.522581,129.034124,564.672791" />
<polygon fill="#666666" fill-opacity="0.501961" points="976.343548,90.572235,1029.889034,90.373792,1039.000000,164.531828,1009.098513,110.348438" />
<polygon fill="#000000" fill-opacity="0.501961" points="415.649595,359.818075,448.987702,366.986582,388.860595,385.134815,387.024941,441.434150" />
<polygon fill="#121212" fill-opacity="0.501961" points="197.990987,613.061570,218.875690,569.971380,228.019721,680.956107,232.289006,570.966772" />
<polygon fill="#dadada" fill-opacity="0.501961" points="43.274053,411.413344,30.577099,419.490054,57.818803,416.648812,78.749066,450.163363" />
<polygon fill="#a9a9a9" fill-opacity="0.501961" points="657.560683,365.328703,627.766208,294.298192,674.851066,362.887856,666.715688,285.362806" />
<polygon fill="#a2a2a2" fill-opacity="0.501961" points="437.562808,628.866132,495.889493,647.952497,507.160438,640.010680,461.718929,620.862246" />
<polygon fill="#000000" fill-opacity="0.501961" points="718.886437,485.177638,589.872821,462.902085,709.325454,491.752952,692.918316,503.587367" />
<polygon fill="#969696" fill-opacity="0.501961" points="666.369607,686.226739,655.554696,677.252573,649.920780,672.266607,661.332783,673.136125" />
<polygon fill="#8b8b8b" fill-opacity="0.501961" points="192.524151,275.302409,201.042697,294.186278,181.451627,312.156383,169.473496,312.108840" />
<polygon fill="#d9d9d9" fill-opacity="0.501961" points="482.673316,62.805747,457.875149,69.197917,478.170886,87.467854,422.573161,67.462292" />
<polygon fill="#686868" fill-opacity="0.501961" points="577.086638,523.160469,650.225170,499.731271,661.597724,504.168812,569.704221,538.510464" />
<polygon fill="#afafaf" fill-opacity="0.501961" points="528.233818,313.607606,559.985357,358.177537,558.503610,329.145181,528.411119,344.545488" />
<polygon fill="#000000" fill-opacity="0.501961" points="50.568072,212.669289,28.372780,216.466001,20.426186,201.648042,26.290051,188.695635" />
<polygon fill="#6f6f6f" fill-opacity="0.501961" points="593.404185,-16.000000,601.188020,5.912203,554.227411,14.427452,513.032308,33.887381" />
<polygon fill="#404040" fill-opacity="0.501961" points="455.002560,595.865069,319.204716,698.000000,377.192078,698.000000,347.055070,646.442965" />
</g>
</svg>