<svg xmlns="http://www.w3.org/2000/svg" version="1.1" width="1024" height="640">
<rect x="0" y="0" width="1024" height="640" fill="#77736b" />
<g transform="scale(4.000000) translate(0.5 0.5)">
<polygon fill="#d9e6f0" fill-opacity="0.501961" points="145,-16 271,25 176,132" />
<polygon fill="#433011" fill-opacity="0.501961" points="-16,175 157,111 37,5" />
<polygon fill="#2d2623" fill-opacity="0.501961" points="207,49 216,-4 240,69" />
<polygon fill="#fbffff" fill-opacity="0.501961" points="268,107 254,-16 232,34" />
<polygon fill="#000000" fill-opacity="0.501961" points="125,87 136,175 145,129" />
<polygon fill="#e9f4f6" fill-opacity="0.501961" points="208,115 150,76 211,52" />
<polygon fill="#1f180a" fill-opacity="0.501961" points="39,175 36,51 -7,78" />
<polygon fill="#bbc3c8" fill-opacity="0.501961" points="70,14 68,-16 4,48" />
<polygon fill="#160b01" fill-opacity="0.501961" points="135,25 138,65 160,-16" />
<polygon fill="#504e4f" fill-opacity="0.501961" points="164,151 249,147 169,96" />
<polygon fill="#a89461" fill-opacity="0.501961" points="54,60 132,90 13,83" />
<polygon fill="#a5b2c0" fill-opacity="0.501961" points="146,131 141,96 204,127" />
<polygon fill="#413118" fill-opacity="0.501961" points="94,53 -12,84 112,-10" />
<polygon fill="#b6ab86" fill-opacity="0.501961" points="98,124 59,84 125,113" />
<polygon fill="#fcd87a" fill-opacity="0.501961" points="87,77 77,29 71,52" />
<polygon fill="#dae7ed" fill-opacity="0.501961" points="207,43 172,-11 144,34" />
<polygon fill="#02050a" fill-opacity="0.501961" points="97,114 24,109 54,87" />
<polygon fill="#969da5" fill-opacity="0.501961" points="271,110 187,113 239,39" />
<polygon fill="#ffd852" fill-opacity="0.501961" points="-6,174 -16,151 27,141" />
<polygon fill="#a0aab6" fill-opacity="0.501961" points="152,175 106,175 60,111" />
<polygon fill="#cbe0eb" fill-opacity="0.501961" points="243,134 271,128 244,175" />
<polygon fill="#89868a" fill-opacity="0.501961" points="170,-8 271,-16 211,38" />
<polygon fill="#201408" fill-opacity="0.501961" points="139,73 168,108 136,35" />
<polygon fill="#bdbbc3" fill-opacity="0.501961" points="98,14 53,19 88,28" />
<polygon fill="#210000" fill-opacity="0.501961" points="116,105 126,132 119,155" />
<polygon fill="#aaa8a2" fill-opacity="0.501961" points="157,85 200,51 144,21" />
<polygon fill="#000000" fill-opacity="0.501961" points="82,147 62,160 92,159" />
<polygon fill="#9c98a0" fill-opacity="0.501961" points="57,149 54,110 35,135" />
<polygon fill="#190b00" fill-opacity="0.501961" points="132,92 83,63 87,45" />
<polygon fill="#0d0000" fill-opacity="0.501961" points="63,22 79,31 22,46" />
<polygon fill="#250a09" fill-opacity="0.501961" points="-16,41 2,99 11,41" />
<polygon fill="#bc9d4e" fill-opacity="0.501961" points="22,73 51,68 -5,106" />
<polygon fill="#2e322f" fill-opacity="0.501961" points="264,107 199,122 264,128" />
<polygon fill="#32000e" fill-opacity="0.501961" points="72,16 91,12 72,-16" />
<polygon fill="#afb6bb" fill-opacity="0.501961" points="199,126 196,162 167,166" />
<polygon fill="#d2deea" fill-opacity="0.501961" points="97,5 89,22 89,-10" />
<polygon fill="#180000" fill-opacity="0.501961" points="129,175 130,91 144,142" />
<polygon fill="#0c0e0d" fill-opacity="0.501961" points="72,62 -4,77 63,42" />
<polygon fill="#414445" fill-opacity="0.501961" points="190,148 152,153 187,108" />
<polygon fill="#350b13" fill-opacity="0.501961" points="13,12 36,-2 36,20" />
<polygon fill="#100000" fill-opacity="0.501961" points="107,17 85,43 108,-16" />
<polygon fill="#858991" fill-opacity="0.501961" points="109,14 89,46 162,109" />
<polygon fill="#96a4b4" fill-opacity="0.501961" points="35,98 60,79 20,95" />
<polygon fill="#c4a850" fill-opacity="0.501961" points="52,50 59,38 19,53" />
<polygon fill="#ca962b" fill-opacity="0.501961" points="121,107 135,123 126,142" />
<polygon fill="#38312d" fill-opacity="0.501961" points="47,72 83,73 120,108" />
<polygon fill="#3d3e40" fill-opacity="0.501961" points="230,79 208,45 228,27" />
<polygon fill="#cbd6dc" fill-opacity="0.501961" points="221,161 208,175 210,138" />
<polygon fill="#eac560" fill-opacity="0.501961" points="54,60 45,72 65,69" />
<polygon fill="#120001" fill-opacity="0.501961" points="59,144 77,126 52,133" />
<polygon fill="#9f9b9d" fill-opacity="0.501961" points="79,147 42,149 82,135" />
<polygon fill="#2b2319" fill-opacity="0.501961" points="93,110 84,145 81,101" />
<polygon fill="#252326" fill-opacity="0.501961" points="4,148 15,90 40,74" />
<polygon fill="#191310" fill-opacity="0.501961" points="106,169 30,149 -13,175" />
<polygon fill="#d4b265" fill-opacity="0.501961" points="77,62 89,83 122,94" />
<polygon fill="#d9e0e2" fill-opacity="0.501961" points="202,113 162,90 205,44" />
<polygon fill="#deecf0" fill-opacity="0.501961" points="271,66 256,-10 234,53" />
<polygon fill="#000000" fill-opacity="0.501961" points="-16,114 17,79 6,70" />
<polygon fill="#959693" fill-opacity="0.501961" points="17,65 37,18 6,19" />
<polygon fill="#000000" fill-opacity="0.501961" points="152,6 161,7 150,-2" />
<polygon fill="#e6bc57" fill-opacity="0.501961" points="91,114 96,124 127,105" />
<polygon fill="#838485" fill-opacity="0.501961" points="217,57 236,131 270,68" />
<polygon fill="#879cb7" fill-opacity="0.501961" points="39,80 64,79 84,95" />
<polygon fill="#60250f" fill-opacity="0.501961" points="244,141 214,145 222,128" />
<polygon fill="#7d7c7c" fill-opacity="0.501961" points="64,107 40,121 93,132" />
<polygon fill="#000000" fill-opacity="0.501961" points="203,142 209,145 204,152" />
<polygon fill="#a89b88" fill-opacity="0.501961" points="6,71 19,61 -1,58" />
<polygon fill="#0a0400" fill-opacity="0.501961" points="177,114 170,108 179,104" />
<polygon fill="#1d1b1a" fill-opacity="0.501961" points="57,87 34,134 -5,147" />
<polygon fill="#000000" fill-opacity="0.501961" points="214,129 207,137 208,124" />
<polygon fill="#a5adb2" fill-opacity="0.501961" points="95,161 120,175 103,118" />
<polygon fill="#030400" fill-opacity="0.501961" points="121,118 119,134 105,123" />
<polygon fill="#91979e" fill-opacity="0.501961" points="210,132 146,124 135,91" />
<polygon fill="#b8b4ab" fill-opacity="0.501961" points="168,72 145,70 160,53" />
<polygon fill="#858182" fill-opacity="0.501961" points="237,-16 187,9 229,37" />
<polygon fill="#020000" fill-opacity="0.501961" points="143,128 119,95 132,96" />
<polygon fill="#6e6f71" fill-opacity="0.501961" points="103,84 158,-16 113,20" />
<polygon fill="#c6a44e" fill-opacity="0.501961" points="124,113 120,87 109,85" />
<polygon fill="#1e0f00" fill-opacity="0.501961" points="82,31 94,56 91,29" />
<polygon fill="#cfdade" fill-opacity="0.501961" points="210,39 190,14 146,16" />
<polygon fill="#949cad" fill-opacity="0.501961" points="114,16 153,-13 102,-16" />
<polygon fill="#cfae65" fill-opacity="0.501961" points="75,50 91,42 73,40" />
<polygon fill="#ffffff" fill-opacity="0.501961" points="119,40 126,40 121,35" />
<polygon fill="#000000" fill-opacity="0.501961" points="90,128 101,138 98,124" />
<polygon fill="#bac2c7" fill-opacity="0.501961" points="63,6 47,20 81,21" />
<polygon fill="#a8955b" fill-opacity="0.501961" points="24,80 5,101 22,63" />
<polygon fill="#000000" fill-opacity="0.501961" points="159,77 151,80 149,85" />
<polygon fill="#aab0ab" fill-opacity="0.501961" points="20,91 35,95 25,98" />
<polygon fill="#92999d" fill-opacity="0.501961" points="216,125 208,85 237,41" />
<polygon fill="#c0c7c7" fill-opacity="0.501961" points="180,99 148,123 167,120" />
<polygon fill="#000000" fill-opacity="0.501961" points="151,30 138,24 140,31" />
<polygon fill="#000000" fill-opacity="0.501961" points="168,102 171,99 171,111" />
<polygon fill="#070000" fill-opacity="0.501961" points="163,92 168,91 162,100" />
<polygon fill="#000000" fill-opacity="0.501961" points="249,127 246,133 235,119" />
<polygon fill="#929aa0" fill-opacity="0.501961" points="94,39 140,76 99,61" />
<polygon fill="#b6c6ce" fill-opacity="0.501961" points="216,135 210,143 204,138" />
<polygon fill="#000000" fill-opacity="0.501961" points="38,31 41,45 24,48" />
<polygon fill="#000000" fill-opacity="0.501961" points="113,72 126,82 108,83" />
<polygon fill="#9c9690" fill-opacity="0.501961" points="141,62 162,36 189,54" />
<polygon fill="#303338" fill-opacity="0.501961" points="213,36 234,49 232,35" />
<polygon fill="#7f7d7b" fill-opacity="0.501961" points="42,14 90,-6 24,-16" />
<polygon fill="#aa6f18" fill-opacity="0.501961" points="14,156 23,138 30,149" />
<polygon fill="#c8a44e" fill-opacity="0.501961" points="130,147 128,125 118,169" />
<polygon fill="#a3acac" fill-opacity="0.501961" points="249,145 232,127 232,108" />
<polygon fill="#c1c7c9" fill-opacity="0.501961" points="155,96 188,51 181,84" />
<polygon fill="#b59554" fill-opacity="0.501961" points="93,67 74,65 91,85" />
<polygon fill="#c1c7c7" fill-opacity="0.501961" points="180,78 151,87 178,56" />
<polygon fill="#918679" fill-opacity="0.501961" points="94,25 79,20 105,4" />
<polygon fill="#361c00" fill-opacity="0.501961" points="125,138 120,110 116,152" />
<polygon fill="#020000" fill-opacity="0.501961" points="196,110 187,119 195,118" />
<polygon fill="#dce2e3" fill-opacity="0.501961" points="203,86 180,112 185,83" />
<polygon fill="#7f8692" fill-opacity="0.501961" points="177,175 143,122 148,175" />
<polygon fill="#000000" fill-opacity="0.501961" points="221,115 217,126 227,125" />
<polygon fill="#252627" fill-opacity="0.501961" points="214,56 229,50 205,44" />
<polygon fill="#585d6a" fill-opacity="0.501961" points="146,-16 135,37 117,31" />
<polygon fill="#dde6e6" fill-opacity="0.501961" points="164,101 192,86 171,89" />
<polygon fill="#000000" fill-opacity="0.501961" points="155,17 150,11 154,12" />
<polygon fill="#40241f" fill-opacity="0.501961" points="11,62 1,39 18,55" />
<polygon fill="#cfa23c" fill-opacity="0.501961" points="-16,115 10,91 -1,118" />
<polygon fill="#222327" fill-opacity="0.501961" points="93,141 83,164 78,149" />
<polygon fill="#c1a153" fill-opacity="0.501961" points="94,126 130,112 91,116" />
<polygon fill="#76818e" fill-opacity="0.501961" points="64,81 68,98 104,108" />
<polygon fill="#0d0703" fill-opacity="0.501961" points="106,68 86,50 102,80" />
<polygon fill="#392d1d" fill-opacity="0.501961" points="109,50 119,39 119,51" />
<polygon fill="#9da09c" fill-opacity="0.501961" points="19,48 54,15 2,37" />
<polygon fill="#9a9791" fill-opacity="0.501961" points="12,-16 -8,-16 23,20" />
<polygon fill="#150a00" fill-opacity="0.501961" points="47,26 68,44 72,28" />
<polygon fill="#a3a5a4" fill-opacity="0.501961" points="183,33 140,42 195,57" />
<polygon fill="#000000" fill-opacity="0.501961" points="144,16 152,22 138,23" />
<polygon fill="#8e959e" fill-opacity="0.501961" points="-16,129 12,127 -16,109" />
<polygon fill="#000000" fill-opacity="0.501961" points="211,132 212,115 205,136" />
<polygon fill="#000000" fill-opacity="0.501961" points="164,1 171,-12 152,-6" />
<polygon fill="#020000" fill-opacity="0.501961" points="200,123 203,113 205,121" />
<polygon fill="#c6a65b" fill-opacity="0.501961" points="83,28 77,44 74,32" />
<polygon fill="#828485" fill-opacity="0.501961" points="69,120 75,158 84,131" />
<polygon fill="#d9e9f1" fill-opacity="0.501961" points="201,112 196,116 198,120" />
<polygon fill="#93989e" fill-opacity="0.501961" points="210,69 231,99 226,123" />
<polygon fill="#bfc4c3" fill-opacity="0.501961" points="169,75 147,78 160,67" />
<polygon fill="#aeb8c1" fill-opacity="0.501961" points="265,-6 247,-15 228,35" />
<polygon fill="#050000" fill-opacity="0.501961" points="139,60 139,53 149,54" />
<polygon fill="#201202" fill-opacity="0.501961" points="157,96 143,80 140,60" />
<polygon fill="#6e727c" fill-opacity="0.501961" points="136,99 133,53 151,97" />
<polygon fill="#7d8289" fill-opacity="0.501961" points="191,137 172,119 203,123" />
<polygon fill="#2d2b24" fill-opacity="0.501961" points="-1,114 45,156 20,93" />
<polygon fill="#d3dcde" fill-opacity="0.501961" points="190,117 189,62 213,57" />
<polygon fill="#000000" fill-opacity="0.501961" points="139,45 148,45 145,49" />
<polygon fill="#807e79" fill-opacity="0.501961" points="57,120 39,165 39,116" />
<polygon fill="#040000" fill-opacity="0.501961" points="179,113 188,110 186,115" />
<polygon fill="#171d1f" fill-opacity="0.501961" points="164,154 159,141 178,151" />
<polygon fill="#a4aeb2" fill-opacity="0.501961" points="251,128 271,144 232,169" />
<polygon fill="#494036" fill-opacity="0.501961" points="78,94 117,107 71,64" />
<polygon fill="#24201b" fill-opacity="0.501961" points="49,87 84,118 36,99" />
<polygon fill="#9ea2a6" fill-opacity="0.501961" points="206,175 198,155 166,140" />
<polygon fill="#2d2923" fill-opacity="0.501961" points="80,100 87,133 66,97" />
<polygon fill="#9f9b95" fill-opacity="0.501961" points="165,39 140,52 188,58" />
<polygon fill="#a2aab0" fill-opacity="0.501961" points="205,122 210,80 218,103" />
<polygon fill="#c8d1d5" fill-opacity="0.501961" points="149,7 189,16 185,43" />
<polygon fill="#000104" fill-opacity="0.501961" points="49,55 23,56 35,69" />
<polygon fill="#c4a24f" fill-opacity="0.501961" points="98,84 110,70 104,90" />
<polygon fill="#a1aaaf" fill-opacity="0.501961" points="139,67 110,70 135,57" />
<polygon fill="#96a7b3" fill-opacity="0.501961" points="39,94 38,82 49,82" />
<polygon fill="#070200" fill-opacity="0.501961" points="131,131 137,169 142,124" />
<polygon fill="#1f1204" fill-opacity="0.501961" points="30,134 44,152 27,154" />
<polygon fill="#e5e2d0" fill-opacity="0.501961" points="79,78 76,77 73,81" />
<polygon fill="#b79a4d" fill-opacity="0.501961" points="52,48 37,30 43,43" />
<polygon fill="#8b7a5c" fill-opacity="0.501961" points="36,47 12,49 5,60" />
<polygon fill="#b6babe" fill-opacity="0.501961" points="223,143 229,149 219,149" />
<polygon fill="#663f31" fill-opacity="0.501961" points="242,141 229,127 230,156" />
<polygon fill="#482e0f" fill-opacity="0.501961" points="124,119 110,92 94,88" />
<polygon fill="#e3e3e3" fill-opacity="0.501961" points="19,8 30,-16 40,-16" />
<polygon fill="#2a050c" fill-opacity="0.501961" points="85,20 69,9 73,4" />
<polygon fill="#d4dcdd" fill-opacity="0.501961" points="213,64 173,107 179,69" />
<polygon fill="#2d0013" fill-opacity="0.501961" points="51,139 66,141 64,123" />
<polygon fill="#110005" fill-opacity="0.501961" points="28,81 35,93 35,80" />
<polygon fill="#b6bdc3" fill-opacity="0.501961" points="90,152 106,175 111,145" />
<polygon fill="#000000" fill-opacity="0.501961" points="246,109 250,115 249,122" />
<polygon fill="#0e0b05" fill-opacity="0.501961" points="-16,106 19,79 -16,65" />
<polygon fill="#bcc8d0" fill-opacity="0.501961" points="206,153 228,158 222,170" />
<polygon fill="#7f8081" fill-opacity="0.501961" points="225,55 254,115 212,74" />
<polygon fill="#000000" fill-opacity="0.501961" points="158,86 162,87 158,89" />
<polygon fill="#342e2d" fill-opacity="0.501961" points="55,80 51,72 40,76" />
<polygon fill="#ebe9df" fill-opacity="0.501961" points="126,44 126,52 122,52" />
<polygon fill="#1f1a14" fill-opacity="0.501961" points="87,66 93,53 79,50" />
<polygon fill="#0c0200" fill-opacity="0.501961" points="92,30 105,20 106,3" />
<polygon fill="#daab56" fill-opacity="0.501961" points="-11,154 18,141 -5,175" />
<polygon fill="#989693" fill-opacity="0.501961" points="110,148 166,175 95,175" />
<polygon fill="#000000" fill-opacity="0.501961" points="140,36 147,38 137,41" />
<polygon fill="#89959f" fill-opacity="0.501961" points="213,125 214,131 236,126" />
<polygon fill="#646367" fill-opacity="0.501961" points="141,111 144,120 166,107" />
<polygon fill="#0c0a0a" fill-opacity="0.501961" points="64,65 73,60 48,49" />
<polygon fill="#947033" fill-opacity="0.501961" points="118,83 107,100 131,90" />
<polygon fill="#140003" fill-opacity="0.501961" points="19,9 36,5 29,2" />
<polygon fill="#050400" fill-opacity="0.501961" points="208,147 201,160 203,140" />
<polygon fill="#cbcece" fill-opacity="0.501961" points="65,10 76,-16 80,-8" />
<polygon fill="#9a9d9e" fill-opacity="0.501961" points="182,150 154,162 210,156" />
<polygon fill="#070200" fill-opacity="0.501961" points="262,132 253,108 271,96" />
<polygon fill="#88898b" fill-opacity="0.501961" points="129,28 145,4 134,37" />
<polygon fill="#110900" fill-opacity="0.501961" points="142,118 129,97 129,122" />
<polygon fill="#7d8286" fill-opacity="0.501961" points="114,145 87,144 114,131" />
<polygon fill="#565860" fill-opacity="0.501961" points="137,72 126,83 148,94" />
<polygon fill="#c1cace" fill-opacity="0.501961" points="175,18 182,40 144,14" />
<polygon fill="#2f2f2d" fill-opacity="0.501961" points="177,126 161,135 175,137" />
<polygon fill="#bfc8cd" fill-opacity="0.501961" points="180,20 174,41 143,24" />
<polygon fill="#ffe073" fill-opacity="0.501961" points="3,137 -16,128 -11,150" />
<polygon fill="#d7c9bf" fill-opacity="0.501961" points="51,139 63,146 51,143" />
<polygon fill="#515257" fill-opacity="0.501961" points="144,-9 126,19 129,49" />
<polygon fill="#311e0c" fill-opacity="0.501961" points="217,151 219,133 214,143" />
<polygon fill="#cdbdb8" fill-opacity="0.501961" points="58,124 48,134 53,124" />
<polygon fill="#1f2532" fill-opacity="0.501961" points="32,68 28,74 14,70" />
<polygon fill="#8f7139" fill-opacity="0.501961" points="74,44 68,43 75,63" />
<polygon fill="#120e09" fill-opacity="0.501961" points="158,4 145,6 152,1" />
<polygon fill="#ad7720" fill-opacity="0.501961" points="136,128 117,126 136,121" />
<polygon fill="#060600" fill-opacity="0.501961" points="199,175 204,157 263,175" />
<polygon fill="#3d1e23" fill-opacity="0.501961" points="90,5 73,-13 87,18" />
<polygon fill="#c5cdce" fill-opacity="0.501961" points="243,48 258,39 221,26" />
<polygon fill="#070000" fill-opacity="0.501961" points="95,-13 99,9 104,-14" />
<polygon fill="#270103" fill-opacity="0.501961" points="31,19 23,17 24,10" />
<polygon fill="#bfa284" fill-opacity="0.501961" points="106,24 95,33 94,42" />
<polygon fill="#848183" fill-opacity="0.501961" points="188,-15 208,31 271,-14" />
<polygon fill="#98948a" fill-opacity="0.501961" points="5,60 28,24 48,21" />
<polygon fill="#d5ad53" fill-opacity="0.501961" points="7,108 -7,110 -13,93" />
<polygon fill="#736e69" fill-opacity="0.501961" points="58,4 18,0 73,-16" />
<polygon fill="#9c9d9f" fill-opacity="0.501961" points="92,23 77,26 93,5" />
<polygon fill="#909aa1" fill-opacity="0.501961" points="140,101 175,113 151,93" />
<polygon fill="#b8974c" fill-opacity="0.501961" points="55,76 51,62 58,59" />
<polygon fill="#9fa6ac" fill-opacity="0.501961" points="181,9 199,28 185,-16" />
<polygon fill="#a4a199" fill-opacity="0.501961" points="20,63 8,64 22,56" />
<polygon fill="#160f07" fill-opacity="0.501961" points="60,44 70,55 58,66" />
<polygon fill="#2b1c0d" fill-opacity="0.501961" points="143,116 120,98 128,85" />
<polygon fill="#564f49" fill-opacity="0.501961" points="116,58 130,57 131,49" />
<polygon fill="#131416" fill-opacity="0.501961" points="72,155 105,166 81,150" />
<polygon fill="#888884" fill-opacity="0.501961" points="39,175 101,172 77,155" />
<polygon fill="#bfa256" fill-opacity="0.501961" points="18,74 25,76 28,88" />
<polygon fill="#231e17" fill-opacity="0.501961" points="31,121 52,111 13,92" />
<polygon fill="#000000" fill-opacity="0.501961" points="251,124 258,133 259,130" />
<polygon fill="#685c5c" fill-opacity="0.501961" points="81,16 97,14 69,27" />
<polygon fill="#a4a5a4" fill-opacity="0.501961" points="170,48 142,33 156,28" />
<polygon fill="#afb8be" fill-opacity="0.501961" points="193,155 186,154 197,135" />
<polygon fill="#9099a6" fill-opacity="0.501961" points="94,110 75,97 101,106" />
<polygon fill="#868c8a" fill-opacity="0.501961" points="251,129 241,109 241,120" />
<polygon fill="#524d41" fill-opacity="0.501961" points="21,134 15,127 25,104" />
<polygon fill="#d0c7b6" fill-opacity="0.501961" points="254,118 271,113 271,156" />
<polygon fill="#030000" fill-opacity="0.501961" points="139,62 148,66 151,62" />
<polygon fill="#151007" fill-opacity="0.501961" points="214,118 210,114 208,127" />
<polygon fill="#bba259" fill-opacity="0.501961" points="36,77 25,76 48,66" />
<polygon fill="#0c0400" fill-opacity="0.501961" points="163,105 173,98 170,104" />
<polygon fill="#3b3c35" fill-opacity="0.501961" points="240,111 236,124 243,130" />
<polygon fill="#191710" fill-opacity="0.501961" points="6,140 5,128 23,137" />
<polygon fill="#84662d" fill-opacity="0.501961" points="51,44 63,28 58,48" />
<polygon fill="#110d00" fill-opacity="0.501961" points="179,110 170,110 177,106" />
<polygon fill="#260006" fill-opacity="0.501961" points="10,44 10,51 -7,40" />
<polygon fill="#3b3734" fill-opacity="0.501961" points="222,32 206,42 229,44" />
<polygon fill="#150800" fill-opacity="0.501961" points="47,43 46,35 71,25" />
<polygon fill="#6d7174" fill-opacity="0.501961" points="188,145 169,121 176,117" />
<polygon fill="#999c98" fill-opacity="0.501961" points="71,98 68,83 55,73" />
<polygon fill="#24160b" fill-opacity="0.501961" points="93,72 102,65 99,79" />
<polygon fill="#e3f0f4" fill-opacity="0.501961" points="254,58 271,40 237,50" />
<polygon fill="#ced8dc" fill-opacity="0.501961" points="178,11 150,-5 192,38" />
<polygon fill="#26231d" fill-opacity="0.501961" points="40,92 58,86 66,94" />
<polygon fill="#18140f" fill-opacity="0.501961" points="83,30 81,41 106,22" />
<polygon fill="#43321d" fill-opacity="0.501961" points="184,154 189,143 187,135" />
<polygon fill="#8d9394" fill-opacity="0.501961" points="208,142 217,125 212,151" />
<polygon fill="#c1aa6a" fill-opacity="0.501961" points="76,40 74,55 85,65" />
<polygon fill="#6d6455" fill-opacity="0.501961" points="157,143 143,140 138,161" />
<polygon fill="#a48084" fill-opacity="0.501961" points="76,11 83,12 78,5" />
<polygon fill="#b8c3cb" fill-opacity="0.501961" points="184,146 187,146 185,141" />
<polygon fill="#373735" fill-opacity="0.501961" points="-13,73 -5,61 9,62" />
<polygon fill="#2c0009" fill-opacity="0.501961" points="53,132 55,142 63,142" />
<polygon fill="#381e00" fill-opacity="0.501961" points="118,132 121,153 124,143" />
<polygon fill="#64002b" fill-opacity="0.501961" points="54,128 60,126 52,138" />
<polygon fill="#0a131c" fill-opacity="0.501961" points="84,144 84,128 87,138" />
<polygon fill="#a07b38" fill-opacity="0.501961" points="105,106 125,107 128,118" />
<polygon fill="#b3b6b4" fill-opacity="0.501961" points="182,71 212,36 147,78" />
<polygon fill="#bbc3c8" fill-opacity="0.501961" points="95,11 81,-10 96,-11" />
<polygon fill="#5f6673" fill-opacity="0.501961" points="105,98 96,111 108,106" />
<polygon fill="#b3904b" fill-opacity="0.501961" points="94,67 86,82 88,63" />
<polygon fill="#000000" fill-opacity="0.501961" points="63,158 50,157 57,164" />
<polygon fill="#94908c" fill-opacity="0.501961" points="66,123 67,112 82,123" />
<polygon fill="#535658" fill-opacity="0.501961" points="223,38 229,55 234,40" />
<polygon fill="#110f08" fill-opacity="0.501961" points="217,124 226,126 232,121" />
<polygon fill="#222118" fill-opacity="0.501961" points="164,103 151,91 161,96" />
<polygon fill="#4b4037" fill-opacity="0.501961" points="66,114 67,131 61,115" />
<polygon fill="#a7b0b6" fill-opacity="0.501961" points="87,140 94,134 87,129" />
<polygon fill="#160300" fill-opacity="0.501961" points="149,71 153,70 150,75" />
<polygon fill="#180b00" fill-opacity="0.501961" points="137,29 136,54 142,36" />
<polygon fill="#7c7d7e" fill-opacity="0.501961" points="228,61 223,122 248,84" />
<polygon fill="#939aa0" fill-opacity="0.501961" points="188,175 155,145 164,175" />
<polygon fill="#a0a6a8" fill-opacity="0.501961" points="167,128 170,111 156,140" />
<polygon fill="#717682" fill-opacity="0.501961" points="99,27 121,23 142,-8" />
<polygon fill="#8b7668" fill-opacity="0.501961" points="39,152 66,169 37,175" />
<polygon fill="#020000" fill-opacity="0.501961" points="252,118 247,116 243,120" />
<polygon fill="#8d8783" fill-opacity="0.501961" points="54,153 84,139 81,125" />
<polygon fill="#686c74" fill-opacity="0.501961" points="138,97 115,71 154,93" />
<polygon fill="#130a02" fill-opacity="0.501961" points="120,80 112,70 106,82" />
<polygon fill="#c3cacd" fill-opacity="0.501961" points="215,67 178,110 204,98" />
<polygon fill="#a3abac" fill-opacity="0.501961" points="271,153 259,162 230,122" />
<polygon fill="#a5afb2" fill-opacity="0.501961" points="230,51 271,66 246,70" />
<polygon fill="#26261b" fill-opacity="0.501961" points="201,121 192,121 189,117" />
<polygon fill="#000000" fill-opacity="0.501961" points="48,53 44,50 48,62" />
<polygon fill="#816230" fill-opacity="0.501961" points="103,2 104,10 96,15" />
<polygon fill="#574c48" fill-opacity="0.501961" points="237,165 215,150 232,154" />
<polygon fill="#835f35" fill-opacity="0.501961" points="72,35 76,27 90,25" />
<polygon fill="#242323" fill-opacity="0.501961" points="107,128 124,136 115,120" />
<polygon fill="#211e12" fill-opacity="0.501961" points="204,113 199,122 205,124" />
<polygon fill="#aab1b0" fill-opacity="0.501961" points="214,67 223,63 195,41" />
<polygon fill="#8e9491" fill-opacity="0.501961" points="59,80 28,99 46,79" />
<polygon fill="#191711" fill-opacity="0.501961" points="17,90 7,103 30,113" />
<polygon fill="#060501" fill-opacity="0.501961" points="18,67 15,77 -16,80" />
<polygon fill="#ada9a1" fill-opacity="0.501961" points="170,69 178,51 142,70" />
<polygon fill="#404858" fill-opacity="0.501961" points="20,62 18,69 33,62" />
<polygon fill="#e8edef" fill-opacity="0.501961" points="259,11 248,37 231,35" />
<polygon fill="#8c8b8c" fill-opacity="0.501961" points="204,36 231,30 250,-14" />
<polygon fill="#a29f99" fill-opacity="0.501961" points="142,60 194,42 170,63" />
<polygon fill="#2d2d27" fill-opacity="0.501961" points="225,127 233,122 230,114" />
<polygon fill="#140600" fill-opacity="0.501961" points="146,13 153,14 147,5" />
<polygon fill="#23180e" fill-opacity="0.501961" points="102,66 89,63 92,45" />
<polygon fill="#979692" fill-opacity="0.501961" points="169,56 204,46 142,42" />
<polygon fill="#080000" fill-opacity="0.501961" points="32,3 37,12 37,8" />
<polygon fill="#838485" fill-opacity="0.501961" points="-16,46 18,14 35,24" />
<polygon fill="#95696d" fill-opacity="0.501961" points="29,16 33,12 26,7" />
<polygon fill="#cad1d2" fill-opacity="0.501961" points="198,80 159,93 174,68" />
<polygon fill="#d6b9aa" fill-opacity="0.501961" points="-16,63 8,59 -10,57" />
<polygon fill="#514c40" fill-opacity="0.501961" points="15,53 3,62 31,52" />
<polygon fill="#656361" fill-opacity="0.501961" points="63,149 47,150 33,136" />
<polygon fill="#564324" fill-opacity="0.501961" points="127,156 134,149 131,133" />
<polygon fill="#64605a" fill-opacity="0.501961" points="18,6 12,28 5,7" />
<polygon fill="#1c1a15" fill-opacity="0.501961" points="80,89 88,82 75,86" />
<polygon fill="#b29757" fill-opacity="0.501961" points="105,82 108,92 126,92" />
<polygon fill="#e1dfd3" fill-opacity="0.501961" points="121,37 128,40 127,44" />
<polygon fill="#58594e" fill-opacity="0.501961" points="202,164 203,126 196,143" />
<polygon fill="#070303" fill-opacity="0.501961" points="62,38 65,43 73,42" />
<polygon fill="#bfc6c8" fill-opacity="0.501961" points="60,15 79,19 59,6" />
<polygon fill="#b2a061" fill-opacity="0.501961" points="130,122 128,135 123,112" />
<polygon fill="#84898c" fill-opacity="0.501961" points="105,127 114,135 95,145" />
<polygon fill="#211203" fill-opacity="0.501961" points="141,61 138,67 148,77" />
<polygon fill="#563b1b" fill-opacity="0.501961" points="80,76 78,67 66,77" />
<polygon fill="#1a0900" fill-opacity="0.501961" points="156,82 154,78 159,78" />
<polygon fill="#150007" fill-opacity="0.501961" points="37,88 30,93 26,88" />
<polygon fill="#c1acae" fill-opacity="0.501961" points="5,53 -16,44 -16,53" />
<polygon fill="#3e3932" fill-opacity="0.501961" points="77,111 44,99 52,111" />
<polygon fill="#2c2e2f" fill-opacity="0.501961" points="208,51 229,52 219,57" />
<polygon fill="#000000" fill-opacity="0.501961" points="248,128 243,126 246,131" />
<polygon fill="#1f1408" fill-opacity="0.501961" points="100,138 91,120 90,127" />
<polygon fill="#959ba1" fill-opacity="0.501961" points="198,132 196,144 185,128" />
<polygon fill="#69491d" fill-opacity="0.501961" points="38,36 49,36 50,23" />
<polygon fill="#1b1712" fill-opacity="0.501961" points="100,21 90,44 90,28" />
<polygon fill="#231f10" fill-opacity="0.501961" points="185,118 182,114 185,108" />
<polygon fill="#0c0000" fill-opacity="0.501961" points="-16,57 9,55 -4,60" />
<polygon fill="#2e333b" fill-opacity="0.501961" points="42,67 52,65 41,58" />
<polygon fill="#532a02" fill-opacity="0.501961" points="122,112 122,123 117,106" />
<polygon fill="#563b19" fill-opacity="0.501961" points="82,58 80,45 93,46" />
<polygon fill="#b08535" fill-opacity="0.501961" points="5,146 21,140 21,152" />
<polygon fill="#919ca4" fill-opacity="0.501961" points="122,76 133,69 111,67" />
<polygon fill="#878785" fill-opacity="0.501961" points="137,36 136,21 130,46" />
<polygon fill="#353328" fill-opacity="0.501961" points="196,121 176,113 184,112" />
<polygon fill="#2e2e2e" fill-opacity="0.501961" points="54,51 73,55 46,57" />
<polygon fill="#2c200c" fill-opacity="0.501961" points="174,128 182,128 187,134" />
<polygon fill="#bda567" fill-opacity="0.501961" points="88,43 76,45 70,38" />
<polygon fill="#a2adb1" fill-opacity="0.501961" points="213,137 210,142 202,139" />
<polygon fill="#b19c54" fill-opacity="0.501961" points="48,49 59,40 32,49" />
<polygon fill="#c4bfb4" fill-opacity="0.501961" points="119,43 128,50 121,48" />
<polygon fill="#8a7b68" fill-opacity="0.501961" points="35,132 43,117 61,111" />
<polygon fill="#ddc6a8" fill-opacity="0.501961" points="54,143 57,146 67,143" />
<polygon fill="#3c322a" fill-opacity="0.501961" points="152,5 161,9 148,-8" />
<polygon fill="#a8a7a0" fill-opacity="0.501961" points="149,90 143,78 143,87" />
<polygon fill="#1e1608" fill-opacity="0.501961" points="189,107 186,118 186,107" />
<polygon fill="#22201b" fill-opacity="0.501961" points="25,153 0,162 35,161" />
<polygon fill="#c0c6cc" fill-opacity="0.501961" points="158,11 155,6 150,6" />
<polygon fill="#664335" fill-opacity="0.501961" points="225,127 245,147 219,143" />
<polygon fill="#625341" fill-opacity="0.501961" points="123,47 128,37 132,49" />
<polygon fill="#847f7a" fill-opacity="0.501961" points="30,25 52,5 44,3" />
<polygon fill="#d1dde0" fill-opacity="0.501961" points="206,38 170,2 192,44" />
<polygon fill="#b9bcb8" fill-opacity="0.501961" points="81,23 84,26 95,18" />
<polygon fill="#b2a28f" fill-opacity="0.501961" points="123,36 112,43 108,38" />
<polygon fill="#2d0c16" fill-opacity="0.501961" points="76,17 73,11 84,14" />
<polygon fill="#0f0c04" fill-opacity="0.501961" points="75,59 51,55 61,62" />
<polygon fill="#878482" fill-opacity="0.501961" points="259,63 253,113 240,105" />
<polygon fill="#92979b" fill-opacity="0.501961" points="201,100 243,112 218,115" />
<polygon fill="#5f5242" fill-opacity="0.501961" points="47,74 39,82 29,79" />
<polygon fill="#7c7b7a" fill-opacity="0.501961" points="114,49 107,15 95,51" />
<polygon fill="#becccf" fill-opacity="0.501961" points="248,137 255,133 250,128" />
<polygon fill="#b8984d" fill-opacity="0.501961" points="56,70 78,72 51,61" />
<polygon fill="#acb3b5" fill-opacity="0.501961" points="146,122 171,110 144,134" />
<polygon fill="#a0a6aa" fill-opacity="0.501961" points="213,103 208,121 207,86" />
<polygon fill="#dbe2e2" fill-opacity="0.501961" points="188,86 195,96 170,105" />
<polygon fill="#170102" fill-opacity="0.501961" points="24,6 21,11 25,17" />
<polygon fill="#d1cac4" fill-opacity="0.501961" points="23,19 28,20 18,13" />
<polygon fill="#140c04" fill-opacity="0.501961" points="109,108 115,99 109,99" />
<polygon fill="#b6bbb9" fill-opacity="0.501961" points="157,68 179,70 148,79" />
<polygon fill="#78797b" fill-opacity="0.501961" points="83,149 108,142 89,133" />
<polygon fill="#8b9195" fill-opacity="0.501961" points="246,153 271,172 222,157" />
<polygon fill="#c5aa66" fill-opacity="0.501961" points="111,107 118,117 92,115" />
<polygon fill="#a29d99" fill-opacity="0.501961" points="155,48 140,42 158,37" />
<polygon fill="#856b46" fill-opacity="0.501961" points="23,38 29,48 20,61" />
<polygon fill="#000000" fill-opacity="0.501961" points="208,147 206,152 203,142" />
<polygon fill="#af9651" fill-opacity="0.501961" points="18,82 -16,114 -9,126" />
<polygon fill="#97a0a5" fill-opacity="0.501961" points="18,47 -3,31 27,35" />
<polygon fill="#5f5040" fill-opacity="0.501961" points="20,114 22,106 31,101" />
<polygon fill="#4a3e2c" fill-opacity="0.501961" points="108,165 117,166 113,156" />
<polygon fill="#c1a762" fill-opacity="0.501961" points="80,34 80,39 72,35" />
</g>
</svg>