<svg xmlns="http://www.w3.org/2000/svg" version="1.1" width="1024" height="640">
<rect x="0" y="0" width="1024" height="640" fill="#6b966e" />
<g transform="scale(4.000000) translate(0.5 0.5)">
<polygon fill="#a5c8ad" fill-opacity="0.501961" points="271,-7 254,92 57,-11" />
<polygon fill="#4a794b" fill-opacity="0.501961" points="271,167 56,42 -3,174" />
<polygon fill="#ffffff" fill-opacity="0.501961" points="260,64 226,83 271,88" />
<polygon fill="#001a08" fill-opacity="0.501961" points="131,148 102,130 105,163" />
<polygon fill="#ffffff" fill-opacity="0.501961" points="62,142 34,165 35,154" />
<polygon fill="#001100" fill-opacity="0.501961" points="22,150 59,135 22,163" />
<polygon fill="#000000" fill-opacity="0.501961" points="240,89 242,99 268,86" />
<polygon fill="#75a17b" fill-opacity="0.501961" points="2,-16 238,45 223,119" />
<polygon fill="#badabc" fill-opacity="0.501961" points="271,23 158,-2 233,-9" />
<polygon fill="#fffffb" fill-opacity="0.501961" points="52,162 80,149 66,149" />
<polygon fill="#7aae70" fill-opacity="0.501961" points="59,90 152,143 32,116" />
<polygon fill="#365c42" fill-opacity="0.501961" points="125,93 170,141 66,94" />
<polygon fill="#000000" fill-opacity="0.501961" points="47,153 69,145 45,164" />
<polygon fill="#3d703e" fill-opacity="0.501961" points="5,99 16,77 61,141" />
<polygon fill="#ffffff" fill-opacity="0.501961" points="251,141 254,136 243,135" />
<polygon fill="#80b276" fill-opacity="0.501961" points="68,138 21,81 10,98" />
<polygon fill="#f2ffe8" fill-opacity="0.501961" points="12,59 -16,45 -11,65" />
<polygon fill="#001702" fill-opacity="0.501961" points="65,137 54,132 44,146" />
<polygon fill="#ffffff" fill-opacity="0.501961" points="83,155 51,175 117,175" />
<polygon fill="#6bb262" fill-opacity="0.501961" points="-10,175 -6,94 47,134" />
<polygon fill="#628868" fill-opacity="0.501961" points="238,137 96,109 79,45" />
<polygon fill="#00200c" fill-opacity="0.501961" points="44,93 50,75 49,99" />
<polygon fill="#fbfaf1" fill-opacity="0.501961" points="51,145 58,149 67,141" />
<polygon fill="#0f3825" fill-opacity="0.501961" points="167,152 170,162 192,137" />
<polygon fill="#578156" fill-opacity="0.501961" points="48,47 74,8 -16,18" />
<polygon fill="#bde5bc" fill-opacity="0.501961" points="131,151 194,175 136,171" />
<polygon fill="#93c28e" fill-opacity="0.501961" points="145,21 84,-16 22,1" />
<polygon fill="#719c7b" fill-opacity="0.501961" points="138,-2 271,121 189,132" />
<polygon fill="#376042" fill-opacity="0.501961" points="76,73 70,101 134,101" />
<polygon fill="#002c0c" fill-opacity="0.501961" points="87,154 94,159 92,131" />
<polygon fill="#769f72" fill-opacity="0.501961" points="75,63 66,147 49,47" />
<polygon fill="#215d39" fill-opacity="0.501961" points="215,151 271,153 200,170" />
<polygon fill="#00270b" fill-opacity="0.501961" points="18,112 36,118 9,100" />
<polygon fill="#557b64" fill-opacity="0.501961" points="271,54 224,83 241,59" />
<polygon fill="#dffad6" fill-opacity="0.501961" points="105,154 107,148 102,150" />
<polygon fill="#6fb37a" fill-opacity="0.501961" points="195,142 149,174 247,142" />
<polygon fill="#00250c" fill-opacity="0.501961" points="30,152 37,158 10,164" />
<polygon fill="#5d8860" fill-opacity="0.501961" points="71,28 56,0 130,25" />
<polygon fill="#204c2f" fill-opacity="0.501961" points="134,131 170,130 114,114" />
<polygon fill="#a0d298" fill-opacity="0.501961" points="-10,4 15,7 3,21" />
<polygon fill="#7fa778" fill-opacity="0.501961" points="126,28 18,24 134,68" />
<polygon fill="#315e49" fill-opacity="0.501961" points="226,140 237,123 194,143" />
<polygon fill="#83a47e" fill-opacity="0.501961" points="99,87 80,89 102,101" />
<polygon fill="#4a7155" fill-opacity="0.501961" points="177,69 129,73 122,91" />
<polygon fill="#90c785" fill-opacity="0.501961" points="38,88 42,106 48,68" />
<polygon fill="#ffffff" fill-opacity="0.501961" points="46,151 38,175 38,153" />
<polygon fill="#080e01" fill-opacity="0.501961" points="83,152 55,175 19,175" />
<polygon fill="#b4ccb8" fill-opacity="0.501961" points="177,142 168,150 161,148" />
<polygon fill="#0e3f23" fill-opacity="0.501961" points="41,96 56,76 51,96" />
<polygon fill="#e9e5e9" fill-opacity="0.501961" points="271,61 243,88 230,81" />
<polygon fill="#dee4d7" fill-opacity="0.501961" points="8,139 3,136 -6,142" />
<polygon fill="#003313" fill-opacity="0.501961" points="5,102 10,104 11,90" />
<polygon fill="#89a78e" fill-opacity="0.501961" points="173,115 133,98 157,117" />
<polygon fill="#a4cb94" fill-opacity="0.501961" points="46,140 50,134 35,123" />
<polygon fill="#1f5036" fill-opacity="0.501961" points="167,107 160,98 165,121" />
<polygon fill="#132f17" fill-opacity="0.501961" points="60,152 71,147 74,137" />
<polygon fill="#9bc0a2" fill-opacity="0.501961" points="232,108 241,123 256,114" />
<polygon fill="#70a666" fill-opacity="0.501961" points="89,158 88,110 72,145" />
<polygon fill="#a1c4a7" fill-opacity="0.501961" points="196,21 271,27 249,2" />
<polygon fill="#7ea786" fill-opacity="0.501961" points="227,99 176,72 232,18" />
<polygon fill="#9ba984" fill-opacity="0.501961" points="62,152 24,175 67,175" />
<polygon fill="#002911" fill-opacity="0.501961" points="56,134 45,123 31,120" />
<polygon fill="#326339" fill-opacity="0.501961" points="133,148 170,153 155,143" />
<polygon fill="#1a4d26" fill-opacity="0.501961" points="27,76 20,91 21,81" />
<polygon fill="#000100" fill-opacity="0.501961" points="239,95 247,88 254,95" />
<polygon fill="#547c55" fill-opacity="0.501961" points="27,48 11,28 81,30" />
<polygon fill="#0f3c21" fill-opacity="0.501961" points="96,109 88,95 72,94" />
<polygon fill="#e8f7e7" fill-opacity="0.501961" points="147,132 141,133 147,135" />
<polygon fill="#86a77e" fill-opacity="0.501961" points="119,102 127,117 96,102" />
<polygon fill="#4c785d" fill-opacity="0.501961" points="186,104 210,96 211,113" />
<polygon fill="#001d01" fill-opacity="0.501961" points="9,56 16,56 8,52" />
<polygon fill="#82a380" fill-opacity="0.501961" points="97,67 112,90 139,102" />
<polygon fill="#87ba7a" fill-opacity="0.501961" points="3,33 38,66 -16,37" />
<polygon fill="#1e4732" fill-opacity="0.501961" points="61,60 63,52 77,50" />
<polygon fill="#87c17b" fill-opacity="0.501961" points="97,155 94,138 101,122" />
<polygon fill="#1a472e" fill-opacity="0.501961" points="122,100 133,104 122,112" />
<polygon fill="#2c6233" fill-opacity="0.501961" points="31,94 24,98 33,76" />
<polygon fill="#0b4024" fill-opacity="0.501961" points="125,146 114,163 101,130" />
<polygon fill="#2b5738" fill-opacity="0.501961" points="116,117 99,107 105,89" />
<polygon fill="#6e9f68" fill-opacity="0.501961" points="8,98 82,99 50,126" />
<polygon fill="#a0cb9c" fill-opacity="0.501961" points="41,8 66,10 21,-8" />
<polygon fill="#94b38d" fill-opacity="0.501961" points="116,104 115,111 99,103" />
<polygon fill="#3a6a4f" fill-opacity="0.501961" points="185,88 195,93 198,80" />
<polygon fill="#ffffff" fill-opacity="0.501961" points="188,128 192,128 192,131" />
<polygon fill="#fffffe" fill-opacity="0.501961" points="177,124 174,123 175,121" />
<polygon fill="#c6ddc3" fill-opacity="0.501961" points="126,112 130,113 129,108" />
<polygon fill="#7fae75" fill-opacity="0.501961" points="70,69 44,70 14,42" />
<polygon fill="#cce6ca" fill-opacity="0.501961" points="132,21 136,14 138,27" />
<polygon fill="#013516" fill-opacity="0.501961" points="39,82 37,91 36,85" />
<polygon fill="#e4f0e0" fill-opacity="0.501961" points="62,153 74,148 78,152" />
<polygon fill="#2c5536" fill-opacity="0.501961" points="27,61 12,57 19,63" />
<polygon fill="#033516" fill-opacity="0.501961" points="13,76 13,89 18,77" />
<polygon fill="#628f6e" fill-opacity="0.501961" points="132,67 171,43 215,47" />
<polygon fill="#7cb589" fill-opacity="0.501961" points="271,111 219,142 271,129" />
<polygon fill="#e8ebe0" fill-opacity="0.501961" points="210,102 203,103 204,105" />
<polygon fill="#164921" fill-opacity="0.501961" points="0,67 6,74 18,77" />
<polygon fill="#77ac6f" fill-opacity="0.501961" points="42,141 19,112 47,131" />
<polygon fill="#487b4a" fill-opacity="0.501961" points="34,103 35,92 60,119" />
<polygon fill="#527e5c" fill-opacity="0.501961" points="179,91 190,119 152,95" />
<polygon fill="#7ab074" fill-opacity="0.501961" points="36,103 72,122 39,91" />
<polygon fill="#72b46c" fill-opacity="0.501961" points="16,78 -5,117 -16,63" />
<polygon fill="#588e5b" fill-opacity="0.501961" points="173,146 116,139 163,132" />
<polygon fill="#244e36" fill-opacity="0.501961" points="179,140 175,154 194,141" />
<polygon fill="#e0f2db" fill-opacity="0.501961" points="204,122 196,124 196,127" />
<polygon fill="#92b293" fill-opacity="0.501961" points="206,86 190,108 175,109" />
<polygon fill="#58886c" fill-opacity="0.501961" points="234,58 234,50 261,50" />
<polygon fill="#64926c" fill-opacity="0.501961" points="149,40 198,24 165,25" />
<polygon fill="#1d482d" fill-opacity="0.501961" points="72,86 75,98 97,107" />
<polygon fill="#94bd93" fill-opacity="0.501961" points="110,-7 199,13 171,27" />
<polygon fill="#e5eee3" fill-opacity="0.501961" points="224,121 229,121 230,126" />
<polygon fill="#39644c" fill-opacity="0.501961" points="242,95 241,88 223,81" />
<polygon fill="#85aa7a" fill-opacity="0.501961" points="56,48 82,46 55,25" />
<polygon fill="#699a78" fill-opacity="0.501961" points="242,117 228,90 261,102" />
<polygon fill="#4e8053" fill-opacity="0.501961" points="145,125 164,110 123,122" />
<polygon fill="#152a11" fill-opacity="0.501961" points="61,153 51,154 62,146" />
<polygon fill="#f3f3e4" fill-opacity="0.501961" points="35,153 41,159 41,150" />
<polygon fill="#326034" fill-opacity="0.501961" points="84,147 81,132 79,154" />
<polygon fill="#002810" fill-opacity="0.501961" points="20,95 20,89 16,98" />
<polygon fill="#e7f6eb" fill-opacity="0.501961" points="245,140 254,140 246,133" />
<polygon fill="#0a391e" fill-opacity="0.501961" points="42,151 57,134 28,151" />
<polygon fill="#235532" fill-opacity="0.501961" points="88,57 90,49 81,57" />
<polygon fill="#96c496" fill-opacity="0.501961" points="100,17 36,-16 98,-5" />
<polygon fill="#43704c" fill-opacity="0.501961" points="120,27 107,16 135,28" />
<polygon fill="#8dc67f" fill-opacity="0.501961" points="37,73 35,89 26,97" />
<polygon fill="#54825f" fill-opacity="0.501961" points="150,33 135,33 130,56" />
<polygon fill="#7d9f7e" fill-opacity="0.501961" points="87,86 83,59 76,62" />
<polygon fill="#295137" fill-opacity="0.501961" points="68,49 53,49 80,59" />
<polygon fill="#8db58c" fill-opacity="0.501961" points="149,56 141,45 174,33" />
<polygon fill="#467249" fill-opacity="0.501961" points="-16,33 7,28 24,7" />
<polygon fill="#245434" fill-opacity="0.501961" points="92,58 81,66 95,62" />
<polygon fill="#96b886" fill-opacity="0.501961" points="92,95 101,86 109,86" />
<polygon fill="#2f5b3d" fill-opacity="0.501961" points="135,107 117,112 133,98" />
<polygon fill="#285538" fill-opacity="0.501961" points="70,98 85,74 74,79" />
<polygon fill="#e8f7e5" fill-opacity="0.501961" points="158,111 159,109 154,108" />
<polygon fill="#548665" fill-opacity="0.501961" points="271,110 246,84 269,96" />
<polygon fill="#6ca87a" fill-opacity="0.501961" points="266,140 271,163 221,140" />
<polygon fill="#c2dbc2" fill-opacity="0.501961" points="173,2 209,5 214,-16" />
<polygon fill="#00200a" fill-opacity="0.501961" points="42,123 29,116 36,123" />
<polygon fill="#79987a" fill-opacity="0.501961" points="75,85 85,96 85,83" />
<polygon fill="#68946b" fill-opacity="0.501961" points="89,22 121,7 99,30" />
<polygon fill="#85ac81" fill-opacity="0.501961" points="18,17 29,28 8,26" />
<polygon fill="#376441" fill-opacity="0.501961" points="119,103 80,87 91,79" />
<polygon fill="#a0b899" fill-opacity="0.501961" points="36,117 29,111 46,112" />
<polygon fill="#bbd2b8" fill-opacity="0.501961" points="80,123 79,117 86,123" />
<polygon fill="#467857" fill-opacity="0.501961" points="208,135 222,120 187,138" />
<polygon fill="#89b58e" fill-opacity="0.501961" points="223,121 225,128 202,138" />
<polygon fill="#fafff2" fill-opacity="0.501961" points="58,157 48,175 25,169" />
<polygon fill="#9bce8c" fill-opacity="0.501961" points="20,76 14,91 20,84" />
<polygon fill="#3c6950" fill-opacity="0.501961" points="224,127 223,137 242,126" />
<polygon fill="#609559" fill-opacity="0.501961" points="66,134 33,110 85,129" />
<polygon fill="#4b7b5a" fill-opacity="0.501961" points="208,105 215,107 204,85" />
<polygon fill="#94b494" fill-opacity="0.501961" points="168,104 170,125 173,115" />
<polygon fill="#8fb18a" fill-opacity="0.501961" points="38,44 21,40 20,33" />
<polygon fill="#e6efe2" fill-opacity="0.501961" points="180,106 179,108 183,109" />
<polygon fill="#416b44" fill-opacity="0.501961" points="49,46 62,43 35,41" />
<polygon fill="#426c49" fill-opacity="0.501961" points="42,76 44,69 27,62" />
<polygon fill="#dfefd4" fill-opacity="0.501961" points="78,159 96,174 86,154" />
<polygon fill="#84a27a" fill-opacity="0.501961" points="110,94 120,100 111,88" />
<polygon fill="#537c62" fill-opacity="0.501961" points="237,116 226,103 222,125" />
<polygon fill="#6a9964" fill-opacity="0.501961" points="46,109 104,124 57,82" />
<polygon fill="#4a7957" fill-opacity="0.501961" points="174,112 196,100 204,107" />
<polygon fill="#d5e3d4" fill-opacity="0.501961" points="54,149 60,141 65,144" />
<polygon fill="#eff5eb" fill-opacity="0.501961" points="191,100 193,97 193,101" />
<polygon fill="#2e5d3d" fill-opacity="0.501961" points="178,115 156,118 168,120" />
<polygon fill="#85bb7a" fill-opacity="0.501961" points="28,73 26,90 16,103" />
<polygon fill="#5d9c5c" fill-opacity="0.501961" points="10,141 45,133 -16,93" />
<polygon fill="#679664" fill-opacity="0.501961" points="139,113 170,131 152,108" />
<polygon fill="#a6be9a" fill-opacity="0.501961" points="96,105 99,110 98,96" />
<polygon fill="#275537" fill-opacity="0.501961" points="109,90 112,109 99,92" />
<polygon fill="#82aa7b" fill-opacity="0.501961" points="109,36 79,63 135,40" />
<polygon fill="#305f38" fill-opacity="0.501961" points="26,39 24,44 35,48" />
<polygon fill="#5a865d" fill-opacity="0.501961" points="49,24 87,21 12,-1" />
<polygon fill="#579f5e" fill-opacity="0.501961" points="136,160 144,151 161,151" />
<polygon fill="#79a175" fill-opacity="0.501961" points="64,11 71,52 53,29" />
<polygon fill="#2b5833" fill-opacity="0.501961" points="30,103 25,96 38,104" />
<polygon fill="#bfd7c3" fill-opacity="0.501961" points="238,37 238,46 245,42" />
<polygon fill="#80a882" fill-opacity="0.501961" points="193,64 183,40 165,96" />
<polygon fill="#9ecd8d" fill-opacity="0.501961" points="15,99 15,91 10,100" />
<polygon fill="#84a083" fill-opacity="0.501961" points="90,70 90,78 108,88" />
<polygon fill="#1b2918" fill-opacity="0.501961" points="73,153 73,162 63,162" />
<polygon fill="#c0d7bd" fill-opacity="0.501961" points="164,34 158,27 156,29" />
<polygon fill="#b6d3b6" fill-opacity="0.501961" points="141,152 135,162 132,154" />
<polygon fill="#163c1f" fill-opacity="0.501961" points="140,118 126,121 115,116" />
<polygon fill="#b7cfae" fill-opacity="0.501961" points="101,89 96,95 92,95" />
<polygon fill="#bfd3c0" fill-opacity="0.501961" points="191,111 197,112 201,109" />
<polygon fill="#5d8b63" fill-opacity="0.501961" points="141,14 151,20 155,40" />
<polygon fill="#436e4b" fill-opacity="0.501961" points="94,70 106,64 114,74" />
<polygon fill="#588062" fill-opacity="0.501961" points="139,86 138,59 161,75" />
<polygon fill="#41704b" fill-opacity="0.501961" points="137,94 147,104 149,88" />
<polygon fill="#7db373" fill-opacity="0.501961" points="82,135 50,115 63,130" />
<polygon fill="#26542f" fill-opacity="0.501961" points="99,152 103,156 102,147" />
<polygon fill="#7ca578" fill-opacity="0.501961" points="136,100 162,84 161,93" />
<polygon fill="#aed99e" fill-opacity="0.501961" points="70,72 71,79 67,84" />
<polygon fill="#46724e" fill-opacity="0.501961" points="69,36 77,31 62,26" />
<polygon fill="#e2ede9" fill-opacity="0.501961" points="251,60 263,63 271,59" />
<polygon fill="#264f2e" fill-opacity="0.501961" points="61,119 67,125 75,127" />
<polygon fill="#7aa37f" fill-opacity="0.501961" points="209,75 239,81 196,57" />
<polygon fill="#8cbd83" fill-opacity="0.501961" points="46,63 49,74 39,89" />
<polygon fill="#9ab8a4" fill-opacity="0.501961" points="240,69 231,52 245,64" />
<polygon fill="#093a1e" fill-opacity="0.501961" points="54,138 46,126 66,140" />
<polygon fill="#e3f0db" fill-opacity="0.501961" points="133,100 135,102 136,99" />
<polygon fill="#779e81" fill-opacity="0.501961" points="211,45 242,79 218,65" />
<polygon fill="#316534" fill-opacity="0.501961" points="20,73 16,74 9,67" />
<polygon fill="#285738" fill-opacity="0.501961" points="41,96 50,72 54,85" />
<polygon fill="#224e35" fill-opacity="0.501961" points="150,109 150,113 157,113" />
<polygon fill="#629a5d" fill-opacity="0.501961" points="44,140 -16,140 -14,168" />
<polygon fill="#73a277" fill-opacity="0.501961" points="122,-1 79,-16 106,8" />
<polygon fill="#3b6542" fill-opacity="0.501961" points="27,38 49,37 18,29" />
<polygon fill="#46734d" fill-opacity="0.501961" points="142,77 114,108 125,86" />
<polygon fill="#82a679" fill-opacity="0.501961" points="120,86 117,92 140,91" />
<polygon fill="#dbe4d6" fill-opacity="0.501961" points="46,137 45,139 42,138" />
<polygon fill="#d2e4ce" fill-opacity="0.501961" points="161,114 159,116 157,113" />
<polygon fill="#7ca181" fill-opacity="0.501961" points="154,60 165,55 159,86" />
<polygon fill="#669961" fill-opacity="0.501961" points="135,147 121,121 70,113" />
<polygon fill="#b5d1b9" fill-opacity="0.501961" points="203,42 208,40 203,32" />
<polygon fill="#d7ebcc" fill-opacity="0.501961" points="104,149 106,152 108,150" />
<polygon fill="#77a375" fill-opacity="0.501961" points="146,18 150,10 117,3" />
<polygon fill="#4f825b" fill-opacity="0.501961" points="162,52 160,70 156,46" />
<polygon fill="#719e79" fill-opacity="0.501961" points="195,29 175,50 216,30" />
<polygon fill="#c5d3c0" fill-opacity="0.501961" points="66,116 70,120 64,119" />
<polygon fill="#f0eeef" fill-opacity="0.501961" points="240,80 271,81 271,93" />
<polygon fill="#f7fdee" fill-opacity="0.501961" points="179,115 185,118 182,115" />
<polygon fill="#325f3f" fill-opacity="0.501961" points="126,95 140,111 108,90" />
<polygon fill="#5b8a60" fill-opacity="0.501961" points="215,128 182,114 184,103" />
<polygon fill="#193f23" fill-opacity="0.501961" points="62,165 17,171 21,154" />
<polygon fill="#77a085" fill-opacity="0.501961" points="218,31 241,23 271,42" />
<polygon fill="#fffffc" fill-opacity="0.501961" points="63,156 66,151 69,154" />
<polygon fill="#9fc0a3" fill-opacity="0.501961" points="221,33 218,51 229,37" />
<polygon fill="#c8ddc4" fill-opacity="0.501961" points="120,104 117,107 121,109" />
<polygon fill="#36603f" fill-opacity="0.501961" points="160,141 174,147 168,140" />
<polygon fill="#c8d0ca" fill-opacity="0.501961" points="237,75 263,89 265,73" />
<polygon fill="#5d8b6b" fill-opacity="0.501961" points="264,74 238,121 262,97" />
<polygon fill="#f7fcfa" fill-opacity="0.501961" points="233,111 237,111 231,109" />
<polygon fill="#355731" fill-opacity="0.501961" points="51,140 49,143 52,151" />
<polygon fill="#446f53" fill-opacity="0.501961" points="67,67 52,53 47,57" />
<polygon fill="#9bb696" fill-opacity="0.501961" points="69,66 73,56 73,61" />
<polygon fill="#91c686" fill-opacity="0.501961" points="22,96 35,105 23,101" />
<polygon fill="#a0c9a5" fill-opacity="0.501961" points="243,122 258,103 271,102" />
<polygon fill="#70a578" fill-opacity="0.501961" points="234,149 262,114 215,146" />
<polygon fill="#325d3f" fill-opacity="0.501961" points="160,127 139,115 150,135" />
<polygon fill="#95c299" fill-opacity="0.501961" points="221,119 205,128 214,118" />
<polygon fill="#9bbf9f" fill-opacity="0.501961" points="206,5 253,-16 214,36" />
<polygon fill="#5fa35d" fill-opacity="0.501961" points="138,159 109,162 124,155" />
<polygon fill="#3d6a4d" fill-opacity="0.501961" points="166,113 159,113 163,92" />
<polygon fill="#9cb59e" fill-opacity="0.501961" points="198,91 201,99 207,82" />
<polygon fill="#a8c4ad" fill-opacity="0.501961" points="169,142 178,144 174,146" />
<polygon fill="#77ae6d" fill-opacity="0.501961" points="99,168 99,132 92,152" />
<polygon fill="#588a67" fill-opacity="0.501961" points="188,28 194,17 194,27" />
<polygon fill="#214e34" fill-opacity="0.501961" points="122,125 133,124 140,131" />
<polygon fill="#103e1f" fill-opacity="0.501961" points="18,97 19,101 15,97" />
<polygon fill="#a5c7a1" fill-opacity="0.501961" points="3,46 13,51 1,49" />
<polygon fill="#7ea77a" fill-opacity="0.501961" points="116,25 115,76 92,33" />
<polygon fill="#548464" fill-opacity="0.501961" points="185,51 192,46 201,61" />
<polygon fill="#accbb5" fill-opacity="0.501961" points="187,55 174,53 181,52" />
<polygon fill="#19472a" fill-opacity="0.501961" points="135,150 102,132 101,148" />
<polygon fill="#8dad84" fill-opacity="0.501961" points="146,87 130,85 143,91" />
<polygon fill="#497859" fill-opacity="0.501961" points="193,96 200,99 204,117" />
<polygon fill="#7ba385" fill-opacity="0.501961" points="232,14 219,27 244,18" />
<polygon fill="#2e623d" fill-opacity="0.501961" points="219,150 241,152 205,160" />
<polygon fill="#dcebda" fill-opacity="0.501961" points="243,22 247,24 246,18" />
<polygon fill="#96b391" fill-opacity="0.501961" points="33,70 38,69 26,64" />
<polygon fill="#4e7258" fill-opacity="0.501961" points="244,72 235,71 255,64" />
<polygon fill="#1f4f2f" fill-opacity="0.501961" points="91,101 84,96 101,100" />
<polygon fill="#245533" fill-opacity="0.501961" points="64,95 61,96 65,86" />
<polygon fill="#e0f3d7" fill-opacity="0.501961" points="233,118 232,115 231,116" />
<polygon fill="#7baf71" fill-opacity="0.501961" points="87,149 78,160 87,130" />
<polygon fill="#9ab787" fill-opacity="0.501961" points="81,103 69,95 74,103" />
<polygon fill="#bcd3c7" fill-opacity="0.501961" points="190,61 195,57 192,62" />
<polygon fill="#588263" fill-opacity="0.501961" points="271,61 237,61 271,71" />
<polygon fill="#79a474" fill-opacity="0.501961" points="17,47 16,64 27,33" />
<polygon fill="#4f805d" fill-opacity="0.501961" points="158,36 146,34 163,30" />
<polygon fill="#0b3d21" fill-opacity="0.501961" points="104,153 103,175 115,153" />
<polygon fill="#adcbae" fill-opacity="0.501961" points="190,29 181,26 186,37" />
<polygon fill="#bfd7bc" fill-opacity="0.501961" points="5,53 11,60 0,63" />
<polygon fill="#376647" fill-opacity="0.501961" points="144,54 153,58 146,59" />
<polygon fill="#123b23" fill-opacity="0.501961" points="16,79 12,87 14,76" />
<polygon fill="#245431" fill-opacity="0.501961" points="39,84 44,70 39,73" />
<polygon fill="#447554" fill-opacity="0.501961" points="178,54 166,56 180,59" />
<polygon fill="#38674a" fill-opacity="0.501961" points="131,42 137,55 136,45" />
<polygon fill="#7b9e7f" fill-opacity="0.501961" points="50,49 63,55 57,63" />
<polygon fill="#94bd91" fill-opacity="0.501961" points="69,137 66,146 61,146" />
<polygon fill="#8eb390" fill-opacity="0.501961" points="119,43 126,38 138,42" />
<polygon fill="#5a8c5f" fill-opacity="0.501961" points="136,140 175,128 197,139" />
<polygon fill="#ffffff" fill-opacity="0.501961" points="245,87 238,84 242,83" />
<polygon fill="#74a56e" fill-opacity="0.501961" points="-16,30 9,29 46,71" />
<polygon fill="#c3d5ba" fill-opacity="0.501961" points="148,106 150,109 152,107" />
<polygon fill="#8aae8d" fill-opacity="0.501961" points="153,64 138,50 130,54" />
<polygon fill="#95b295" fill-opacity="0.501961" points="140,72 146,80 142,79" />
<polygon fill="#30593f" fill-opacity="0.501961" points="178,132 187,131 189,125" />
<polygon fill="#98be9d" fill-opacity="0.501961" points="239,112 235,123 242,126" />
<polygon fill="#0a1a04" fill-opacity="0.501961" points="47,153 57,152 47,158" />
<polygon fill="#001d0a" fill-opacity="0.501961" points="249,94 248,86 242,94" />
<polygon fill="#467757" fill-opacity="0.501961" points="210,106 202,93 206,92" />
<polygon fill="#a4cf96" fill-opacity="0.501961" points="64,84 60,93 63,93" />
<polygon fill="#80b276" fill-opacity="0.501961" points="38,125 18,119 16,110" />
<polygon fill="#efffeb" fill-opacity="0.501961" points="129,110 131,110 129,112" />
<polygon fill="#aac7b0" fill-opacity="0.501961" points="225,67 220,63 222,56" />
<polygon fill="#93bc94" fill-opacity="0.501961" points="133,29 186,-16 164,-16" />
<polygon fill="#2c5d3d" fill-opacity="0.501961" points="67,60 54,60 65,56" />
<polygon fill="#508262" fill-opacity="0.501961" points="232,102 216,117 232,112" />
<polygon fill="#6c977a" fill-opacity="0.501961" points="224,43 237,67 218,56" />
<polygon fill="#2f5f38" fill-opacity="0.501961" points="60,91 58,92 59,98" />
<polygon fill="#8ec284" fill-opacity="0.501961" points="37,96 45,80 42,96" />
<polygon fill="#88af86" fill-opacity="0.501961" points="58,24 35,34 44,25" />
<polygon fill="#8fb29a" fill-opacity="0.501961" points="213,51 198,45 217,67" />
<polygon fill="#78a57d" fill-opacity="0.501961" points="223,117 227,97 195,118" />
<polygon fill="#3b6646" fill-opacity="0.501961" points="40,15 57,24 44,23" />
<polygon fill="#97c097" fill-opacity="0.501961" points="240,101 232,98 227,86" />
<polygon fill="#6da178" fill-opacity="0.501961" points="255,175 253,124 271,135" />
<polygon fill="#083a1e" fill-opacity="0.501961" points="32,114 40,123 24,114" />
<polygon fill="#1e462d" fill-opacity="0.501961" points="183,167 171,164 163,149" />
<polygon fill="#2d573c" fill-opacity="0.501961" points="164,162 188,143 172,146" />
<polygon fill="#7ca378" fill-opacity="0.501961" points="145,53 135,71 107,80" />
<polygon fill="#8cae85" fill-opacity="0.501961" points="56,52 36,44 49,45" />
<polygon fill="#548260" fill-opacity="0.501961" points="192,88 209,84 184,98" />
<polygon fill="#215033" fill-opacity="0.501961" points="102,80 88,86 97,85" />
<polygon fill="#73a17c" fill-opacity="0.501961" points="179,-16 169,9 148,-11" />
<polygon fill="#588b58" fill-opacity="0.501961" points="124,133 162,146 139,147" />
<polygon fill="#215135" fill-opacity="0.501961" points="77,70 74,78 80,78" />
<polygon fill="#91b58e" fill-opacity="0.501961" points="76,28 86,21 68,26" />
<polygon fill="#1f502c" fill-opacity="0.501961" points="18,57 22,63 24,60" />
<polygon fill="#abb9a4" fill-opacity="0.501961" points="52,78 50,78 53,75" />
<polygon fill="#e7f4ec" fill-opacity="0.501961" points="249,43 252,44 249,45" />
<polygon fill="#3e6a4a" fill-opacity="0.501961" points="81,19 68,19 69,25" />
<polygon fill="#7baa75" fill-opacity="0.501961" points="3,66 0,51 -16,61" />
<polygon fill="#3f6d49" fill-opacity="0.501961" points="94,48 97,53 95,41" />
<polygon fill="#dfead5" fill-opacity="0.501961" points="105,106 103,104 107,104" />
<polygon fill="#2b5431" fill-opacity="0.501961" points="43,106 47,111 35,104" />
<polygon fill="#508258" fill-opacity="0.501961" points="150,123 123,122 138,118" />
<polygon fill="#88b183" fill-opacity="0.501961" points="12,83 3,71 15,78" />
<polygon fill="#dbefdd" fill-opacity="0.501961" points="171,149 168,147 164,148" />
<polygon fill="#45724c" fill-opacity="0.501961" points="194,130 187,122 202,131" />
<polygon fill="#396443" fill-opacity="0.501961" points="97,61 105,55 103,61" />
<polygon fill="#507e51" fill-opacity="0.501961" points="4,0 21,7 12,8" />
<polygon fill="#477052" fill-opacity="0.501961" points="115,74 124,67 122,61" />
<polygon fill="#83ba7a" fill-opacity="0.501961" points="44,107 28,96 32,92" />
<polygon fill="#8fbf8c" fill-opacity="0.501961" points="7,6 -16,15 10,19" />
<polygon fill="#6ea072" fill-opacity="0.501961" points="208,127 209,115 192,136" />
<polygon fill="#eef2ef" fill-opacity="0.501961" points="238,75 271,88 255,75" />
<polygon fill="#b0bcb4" fill-opacity="0.501961" points="270,88 246,75 271,75" />
<polygon fill="#88b58d" fill-opacity="0.501961" points="224,95 236,105 215,97" />
<polygon fill="#00381a" fill-opacity="0.501961" points="7,101 13,90 8,95" />
<polygon fill="#9cc3a0" fill-opacity="0.501961" points="172,12 175,27 192,13" />
<polygon fill="#144525" fill-opacity="0.501961" points="101,102 100,108 98,107" />
<polygon fill="#71946b" fill-opacity="0.501961" points="97,87 101,92 79,94" />
<polygon fill="#ffffff" fill-opacity="0.501961" points="251,76 271,73 271,82" />
<polygon fill="#3f6d4b" fill-opacity="0.501961" points="116,85 143,84 132,77" />
<polygon fill="#95c28a" fill-opacity="0.501961" points="71,80 66,94 66,87" />
<polygon fill="#bed7be" fill-opacity="0.501961" points="167,114 169,112 174,117" />
<polygon fill="#adcead" fill-opacity="0.501961" points="109,1 129,10 115,8" />
<polygon fill="#74ae6b" fill-opacity="0.501961" points="31,77 6,64 24,62" />
<polygon fill="#86a87c" fill-opacity="0.501961" points="59,90 57,76 52,91" />
<polygon fill="#1a2d19" fill-opacity="0.501961" points="54,152 69,147 61,146" />
<polygon fill="#0d3319" fill-opacity="0.501961" points="86,175 94,168 90,151" />
<polygon fill="#5c9359" fill-opacity="0.501961" points="91,116 56,110 74,120" />
<polygon fill="#4c7058" fill-opacity="0.501961" points="236,72 240,71 246,75" />
<polygon fill="#748b64" fill-opacity="0.501961" points="64,156 58,164 60,153" />
<polygon fill="#376a48" fill-opacity="0.501961" points="173,113 169,109 170,97" />
<polygon fill="#2e5d3a" fill-opacity="0.501961" points="75,53 75,46 71,55" />
<polygon fill="#416d48" fill-opacity="0.501961" points="16,10 11,16 17,24" />
<polygon fill="#3f6d48" fill-opacity="0.501961" points="175,115 168,116 165,124" />
<polygon fill="#5c8d67" fill-opacity="0.501961" points="164,40 188,40 180,34" />
<polygon fill="#235232" fill-opacity="0.501961" points="72,85 73,98 78,88" />
<polygon fill="#709e7d" fill-opacity="0.501961" points="255,96 254,108 234,96" />
<polygon fill="#609e5f" fill-opacity="0.501961" points="5,77 7,133 -16,148" />
<polygon fill="#1c4628" fill-opacity="0.501961" points="64,138 54,130 43,148" />
<polygon fill="#264c31" fill-opacity="0.501961" points="3,23 2,28 -11,16" />
<polygon fill="#6c9a73" fill-opacity="0.501961" points="244,3 271,-4 234,-16" />
<polygon fill="#96c587" fill-opacity="0.501961" points="32,111 18,102 25,111" />
<polygon fill="#3a704c" fill-opacity="0.501961" points="153,63 148,76 141,77" />
<polygon fill="#4d7b53" fill-opacity="0.501961" points="76,25 85,29 91,24" />
<polygon fill="#517d53" fill-opacity="0.501961" points="61,88 52,103 59,76" />
<polygon fill="#386544" fill-opacity="0.501961" points="39,19 32,18 25,23" />
<polygon fill="#39653c" fill-opacity="0.501961" points="56,113 46,110 62,120" />
<polygon fill="#ced2c1" fill-opacity="0.501961" points="7,106 10,105 13,107" />
<polygon fill="#6fa46b" fill-opacity="0.501961" points="62,94 40,104 55,114" />
<polygon fill="#c2d7cd" fill-opacity="0.501961" points="201,63 201,61 207,60" />
<polygon fill="#dfe8d7" fill-opacity="0.501961" points="2,139 8,138 3,136" />
<polygon fill="#88b97e" fill-opacity="0.501961" points="34,72 34,92 40,71" />
<polygon fill="#669e61" fill-opacity="0.501961" points="31,120 14,174 7,135" />
<polygon fill="#3e6e42" fill-opacity="0.501961" points="124,152 138,144 155,149" />
<polygon fill="#659669" fill-opacity="0.501961" points="113,39 149,24 132,24" />
<polygon fill="#85aa7d" fill-opacity="0.501961" points="107,39 64,48 91,27" />
<polygon fill="#3b5e48" fill-opacity="0.501961" points="56,73 54,77 48,68" />
<polygon fill="#e6ecea" fill-opacity="0.501961" points="247,69 257,69 260,76" />
<polygon fill="#437052" fill-opacity="0.501961" points="85,43 91,48 90,54" />
<polygon fill="#b3c7a9" fill-opacity="0.501961" points="83,90 85,87 78,90" />
<polygon fill="#558360" fill-opacity="0.501961" points="167,97 178,85 184,106" />
<polygon fill="#7da778" fill-opacity="0.501961" points="63,62 57,91 67,75" />
<polygon fill="#5f925f" fill-opacity="0.501961" points="-3,63 41,73 22,62" />
<polygon fill="#588363" fill-opacity="0.501961" points="170,44 163,69 171,71" />
<polygon fill="#759e75" fill-opacity="0.501961" points="163,79 180,105 173,72" />
<polygon fill="#254c38" fill-opacity="0.501961" points="252,70 267,77 271,72" />
<polygon fill="#83ad7c" fill-opacity="0.501961" points="24,11 -4,0 -16,11" />
<polygon fill="#417745" fill-opacity="0.501961" points="86,124 94,132 80,125" />
<polygon fill="#5b845f" fill-opacity="0.501961" points="110,77 93,76 112,65" />
<polygon fill="#79a275" fill-opacity="0.501961" points="131,33 90,70 122,57" />
<polygon fill="#548562" fill-opacity="0.501961" points="173,23 160,30 172,29" />
<polygon fill="#4c7d5c" fill-opacity="0.501961" points="238,120 228,122 232,117" />
<polygon fill="#bdd8c0" fill-opacity="0.501961" points="163,45 167,48 161,47" />
</g>
</svg>