<svg xmlns="http://www.w3.org/2000/svg" version="1.1" width="1024" height="640">
<rect x="0" y="0" width="1024" height="640" fill="#5a5d5c" />
<g transform="scale(4.000000) translate(0.5 0.5)">
<polygon fill="#dde1e7" fill-opacity="0.501961" points="261,113 90,170 100,69" />
<polygon fill="#000000" fill-opacity="0.501961" points="79,155 5,-16 -16,173" />
<polygon fill="#f6f7f1" fill-opacity="0.501961" points="115,54 201,7 4,47" />
<polygon fill="#000000" fill-opacity="0.501961" points="112,166 271,112 258,175" />
<polygon fill="#000000" fill-opacity="0.501961" points="-14,-12 210,-15 -14,49" />
<polygon fill="#ffffff" fill-opacity="0.501961" points="214,15 265,54 168,15" />
<polygon fill="#000000" fill-opacity="0.501961" points="271,-16 147,-16 261,44" />
<polygon fill="#1a1e20" fill-opacity="0.501961" points="158,31 -16,113 4,58" />
<polygon fill="#80888e" fill-opacity="0.501961" points="67,62 185,18 85,144" />
<polygon fill="#fffffb" fill-opacity="0.501961" points="56,166 109,173 185,122" />
<polygon fill="#7a8288" fill-opacity="0.501961" points="171,126 176,33 236,107" />
<polygon fill="#e0e2df" fill-opacity="0.501961" points="24,58 -16,50 71,37" />
<polygon fill="#101417" fill-opacity="0.501961" points="271,67 190,23 251,101" />
<polygon fill="#000000" fill-opacity="0.501961" points="271,112 129,162 261,164" />
<polygon fill="#ffffff" fill-opacity="0.501961" points="80,33 131,38 177,15" />
<polygon fill="#000000" fill-opacity="0.501961" points="-16,142 69,175 8,58" />
<polygon fill="#000000" fill-opacity="0.501961" points="177,62 140,63 163,88" />
<polygon fill="#1d1507" fill-opacity="0.501961" points="168,16 90,-16 253,0" />
<polygon fill="#2c3032" fill-opacity="0.501961" points="269,96 271,54 188,120" />
<polygon fill="#f8f6f3" fill-opacity="0.501961" points="185,139 144,139 222,111" />
<polygon fill="#9fa5aa" fill-opacity="0.501961" points="212,92 115,119 222,51" />
<polygon fill="#ffffff" fill-opacity="0.501961" points="117,26 89,43 51,39" />
<polygon fill="#fffff7" fill-opacity="0.501961" points="191,14 140,21 177,28" />
<polygon fill="#4f535b" fill-opacity="0.501961" points="122,141 78,156 44,85" />
<polygon fill="#cbcec8" fill-opacity="0.501961" points="211,32 248,36 271,64" />
<polygon fill="#050400" fill-opacity="0.501961" points="-15,38 0,-7 114,-8" />
<polygon fill="#5a5343" fill-opacity="0.501961" points="36,40 185,11 129,-11" />
<polygon fill="#adb6b7" fill-opacity="0.501961" points="209,40 223,55 184,36" />
<polygon fill="#ffffff" fill-opacity="0.501961" points="135,52 146,55 140,62" />
<polygon fill="#161716" fill-opacity="0.501961" points="93,46 0,85 -16,60" />
<polygon fill="#ebece7" fill-opacity="0.501961" points="196,10 231,32 199,26" />
<polygon fill="#d8dbd8" fill-opacity="0.501961" points="259,100 239,107 271,112" />
<polygon fill="#000000" fill-opacity="0.501961" points="176,82 156,55 151,83" />
<polygon fill="#989c9c" fill-opacity="0.501961" points="163,59 152,39 185,34" />
<polygon fill="#81868c" fill-opacity="0.501961" points="112,144 83,141 89,49" />
<polygon fill="#565c60" fill-opacity="0.501961" points="119,48 71,72 157,70" />
<polygon fill="#373c42" fill-opacity="0.501961" points="80,76 58,140 38,66" />
<polygon fill="#333534" fill-opacity="0.501961" points="194,23 169,26 223,49" />
<polygon fill="#676d71" fill-opacity="0.501961" points="212,57 232,98 181,123" />
<polygon fill="#aaafb2" fill-opacity="0.501961" points="210,72 173,72 174,93" />
<polygon fill="#555852" fill-opacity="0.501961" points="224,125 261,116 271,98" />
<polygon fill="#11100b" fill-opacity="0.501961" points="271,-9 248,38 204,-13" />
<polygon fill="#5f635e" fill-opacity="0.501961" points="143,47 87,43 159,29" />
<polygon fill="#e3eced" fill-opacity="0.501961" points="106,48 127,49 119,45" />
<polygon fill="#ffffff" fill-opacity="0.501961" points="136,23 73,36 108,39" />
<polygon fill="#676e72" fill-opacity="0.501961" points="46,59 99,47 171,89" />
<polygon fill="#e2e1e1" fill-opacity="0.501961" points="201,119 102,150 160,148" />
<polygon fill="#131613" fill-opacity="0.501961" points="176,29 153,33 168,35" />
<polygon fill="#302e24" fill-opacity="0.501961" points="107,-14 -16,49 51,37" />
<polygon fill="#52575d" fill-opacity="0.501961" points="157,42 183,37 209,72" />
<polygon fill="#25272a" fill-opacity="0.501961" points="107,145 56,140 56,163" />
<polygon fill="#8e8e82" fill-opacity="0.501961" points="121,15 155,25 98,24" />
<polygon fill="#b4babd" fill-opacity="0.501961" points="122,87 127,130 154,83" />
<polygon fill="#6b6d64" fill-opacity="0.501961" points="21,58 -1,54 -15,64" />
<polygon fill="#060402" fill-opacity="0.501961" points="128,161 198,167 271,113" />
<polygon fill="#d4d6d2" fill-opacity="0.501961" points="210,128 170,128 243,105" />
<polygon fill="#e9ebea" fill-opacity="0.501961" points="96,34 32,42 66,47" />
<polygon fill="#040404" fill-opacity="0.501961" points="-16,125 32,175 3,61" />
<polygon fill="#d0e1db" fill-opacity="0.501961" points="146,47 152,56 157,55" />
<polygon fill="#b1b1af" fill-opacity="0.501961" points="170,175 104,148 58,164" />
<polygon fill="#7b7f83" fill-opacity="0.501961" points="162,129 104,128 111,144" />
<polygon fill="#aab4b5" fill-opacity="0.501961" points="92,58 101,48 76,59" />
<polygon fill="#0d0f0c" fill-opacity="0.501961" points="261,60 220,42 251,67" />
<polygon fill="#e8e7e0" fill-opacity="0.501961" points="159,16 202,17 147,31" />
<polygon fill="#160800" fill-opacity="0.501961" points="183,11 171,9 166,17" />
<polygon fill="#373c3b" fill-opacity="0.501961" points="137,48 126,72 118,64" />
<polygon fill="#787e83" fill-opacity="0.501961" points="91,82 132,39 86,148" />
<polygon fill="#ced5d2" fill-opacity="0.501961" points="162,37 161,51 153,37" />
<polygon fill="#34342a" fill-opacity="0.501961" points="271,50 203,13 251,20" />
<polygon fill="#adaea9" fill-opacity="0.501961" points="154,150 176,131 198,135" />
<polygon fill="#9c9f98" fill-opacity="0.501961" points="57,45 36,48 38,55" />
<polygon fill="#e8f0f0" fill-opacity="0.501961" points="199,41 202,48 209,48" />
<polygon fill="#6c7479" fill-opacity="0.501961" points="180,72 230,72 162,41" />
<polygon fill="#d2d2d2" fill-opacity="0.501961" points="117,83 130,88 100,88" />
<polygon fill="#474c4f" fill-opacity="0.501961" points="222,54 248,94 219,112" />
<polygon fill="#000000" fill-opacity="0.501961" points="112,42 101,42 91,48" />
<polygon fill="#726d61" fill-opacity="0.501961" points="68,33 106,11 151,18" />
<polygon fill="#e1dbd8" fill-opacity="0.501961" points="79,73 83,76 92,74" />
<polygon fill="#535752" fill-opacity="0.501961" points="13,161 -16,168 -5,134" />
<polygon fill="#cfd9d8" fill-opacity="0.501961" points="217,57 222,69 214,61" />
<polygon fill="#d3d7d7" fill-opacity="0.501961" points="145,112 164,106 129,107" />
<polygon fill="#bbbeb6" fill-opacity="0.501961" points="102,33 120,38 93,44" />
<polygon fill="#232320" fill-opacity="0.501961" points="80,6 182,2 110,-16" />
<polygon fill="#999d9f" fill-opacity="0.501961" points="90,146 113,128 81,135" />
<polygon fill="#070806" fill-opacity="0.501961" points="170,84 173,63 147,77" />
<polygon fill="#5b6861" fill-opacity="0.501961" points="129,29 146,23 136,23" />
<polygon fill="#f4f9f4" fill-opacity="0.501961" points="122,39 152,24 134,26" />
<polygon fill="#f7faf9" fill-opacity="0.501961" points="86,33 136,22 106,38" />
<polygon fill="#feffff" fill-opacity="0.501961" points="105,48 99,49 106,50" />
<polygon fill="#f1fcf8" fill-opacity="0.501961" points="141,60 138,52 147,59" />
<polygon fill="#a09b8b" fill-opacity="0.501961" points="189,18 170,29 195,23" />
<polygon fill="#77787c" fill-opacity="0.501961" points="196,118 166,118 150,133" />
<polygon fill="#5e656c" fill-opacity="0.501961" points="60,93 84,75 92,141" />
<polygon fill="#afb1ae" fill-opacity="0.501961" points="249,51 219,38 271,44" />
<polygon fill="#b5bebe" fill-opacity="0.501961" points="136,38 148,38 127,44" />
<polygon fill="#15150c" fill-opacity="0.501961" points="149,58 163,59 171,81" />
<polygon fill="#1b1d20" fill-opacity="0.501961" points="8,101 24,71 72,170" />
<polygon fill="#1d2021" fill-opacity="0.501961" points="96,45 60,51 88,54" />
<polygon fill="#b1b2ae" fill-opacity="0.501961" points="139,146 162,147 114,162" />
<polygon fill="#d3e0df" fill-opacity="0.501961" points="219,70 201,75 212,75" />
<polygon fill="#424649" fill-opacity="0.501961" points="81,72 71,63 89,56" />
<polygon fill="#929592" fill-opacity="0.501961" points="-14,50 6,56 27,42" />
<polygon fill="#d7dbdc" fill-opacity="0.501961" points="113,127 105,120 124,126" />
<polygon fill="#c2cccd" fill-opacity="0.501961" points="177,35 192,36 184,38" />
<polygon fill="#303334" fill-opacity="0.501961" points="207,45 244,57 191,22" />
<polygon fill="#5b4b30" fill-opacity="0.501961" points="187,3 199,17 172,6" />
<polygon fill="#1b201f" fill-opacity="0.501961" points="139,37 160,37 157,32" />
<polygon fill="#d0d1cd" fill-opacity="0.501961" points="192,10 238,35 216,36" />
<polygon fill="#2d2f2f" fill-opacity="0.501961" points="31,54 54,98 65,48" />
<polygon fill="#080c0a" fill-opacity="0.501961" points="136,37 141,39 129,39" />
<polygon fill="#d0d6d7" fill-opacity="0.501961" points="178,35 169,39 167,35" />
<polygon fill="#282b2b" fill-opacity="0.501961" points="258,99 271,36 230,108" />
<polygon fill="#848c8f" fill-opacity="0.501961" points="95,48 68,65 80,52" />
<polygon fill="#8c9195" fill-opacity="0.501961" points="211,97 175,56 174,120" />
<polygon fill="#55595b" fill-opacity="0.501961" points="160,40 166,53 184,37" />
<polygon fill="#b5babb" fill-opacity="0.501961" points="73,73 70,64 67,68" />
<polygon fill="#414039" fill-opacity="0.501961" points="96,6 61,35 14,42" />
<polygon fill="#404347" fill-opacity="0.501961" points="59,137 52,104 94,150" />
<polygon fill="#b2b3a7" fill-opacity="0.501961" points="167,29 155,25 153,33" />
<polygon fill="#d5d5d3" fill-opacity="0.501961" points="193,80 168,90 181,90" />
<polygon fill="#10100d" fill-opacity="0.501961" points="-16,5 64,-16 27,33" />
<polygon fill="#61686b" fill-opacity="0.501961" points="222,102 223,71 197,78" />
<polygon fill="#302e24" fill-opacity="0.501961" points="144,165 117,161 133,157" />
<polygon fill="#4b5258" fill-opacity="0.501961" points="192,40 195,60 223,57" />
<polygon fill="#52585b" fill-opacity="0.501961" points="210,62 192,69 225,69" />
<polygon fill="#292d2e" fill-opacity="0.501961" points="126,38 111,42 118,45" />
<polygon fill="#414548" fill-opacity="0.501961" points="230,48 247,101 218,61" />
<polygon fill="#404448" fill-opacity="0.501961" points="69,52 61,114 51,58" />
<polygon fill="#fbfcfc" fill-opacity="0.501961" points="121,33 97,32 137,23" />
<polygon fill="#6d7278" fill-opacity="0.501961" points="124,46 128,41 110,45" />
<polygon fill="#080909" fill-opacity="0.501961" points="-16,67 47,54 2,77" />
<polygon fill="#c5c4c5" fill-opacity="0.501961" points="85,77 88,86 91,86" />
<polygon fill="#565d60" fill-opacity="0.501961" points="147,77 152,61 115,67" />
<polygon fill="#f8fefd" fill-opacity="0.501961" points="144,52 143,57 134,53" />
<polygon fill="#959b9f" fill-opacity="0.501961" points="158,104 110,81 140,108" />
<polygon fill="#f4f7f5" fill-opacity="0.501961" points="166,49 160,48 158,45" />
<polygon fill="#899398" fill-opacity="0.501961" points="141,75 152,84 129,86" />
<polygon fill="#babdbc" fill-opacity="0.501961" points="26,49 15,45 5,53" />
<polygon fill="#585d61" fill-opacity="0.501961" points="172,37 154,44 199,45" />
<polygon fill="#6c6b69" fill-opacity="0.501961" points="162,44 167,64 178,41" />
<polygon fill="#dcdad2" fill-opacity="0.501961" points="174,23 198,18 184,12" />
<polygon fill="#a9b1b0" fill-opacity="0.501961" points="170,36 161,41 146,37" />
<polygon fill="#b8b9b7" fill-opacity="0.501961" points="206,132 172,142 219,113" />
<polygon fill="#0c0b0d" fill-opacity="0.501961" points="16,175 57,175 -11,56" />
<polygon fill="#d5dada" fill-opacity="0.501961" points="85,140 87,133 83,139" />
<polygon fill="#fdfffe" fill-opacity="0.501961" points="110,116 107,116 107,122" />
<polygon fill="#bdc5c4" fill-opacity="0.501961" points="211,46 220,51 207,48" />
<polygon fill="#292b2b" fill-opacity="0.501961" points="168,31 228,43 193,25" />
<polygon fill="#353329" fill-opacity="0.501961" points="178,13 193,5 214,8" />
<polygon fill="#45484c" fill-opacity="0.501961" points="212,36 231,56 183,29" />
<polygon fill="#55595b" fill-opacity="0.501961" points="94,151 74,143 120,141" />
<polygon fill="#545249" fill-opacity="0.501961" points="89,13 60,23 116,21" />
<polygon fill="#292318" fill-opacity="0.501961" points="172,-9 149,-16 175,16" />
<polygon fill="#878d90" fill-opacity="0.501961" points="156,92 202,113 189,88" />
<polygon fill="#040302" fill-opacity="0.501961" points="264,120 217,151 255,140" />
<polygon fill="#fafcfa" fill-opacity="0.501961" points="139,33 141,25 153,28" />
<polygon fill="#bec3c5" fill-opacity="0.501961" points="165,97 162,106 152,93" />
<polygon fill="#505458" fill-opacity="0.501961" points="101,60 93,55 83,69" />
<polygon fill="#e2e9e9" fill-opacity="0.501961" points="194,74 190,75 191,80" />
<polygon fill="#a1aaa3" fill-opacity="0.501961" points="124,41 124,34 132,27" />
<polygon fill="#20211b" fill-opacity="0.501961" points="17,44 -3,23 49,13" />
<polygon fill="#767b7e" fill-opacity="0.501961" points="193,76 199,117 221,95" />
<polygon fill="#3e4246" fill-opacity="0.501961" points="248,60 215,42 229,67" />
<polygon fill="#ebecea" fill-opacity="0.501961" points="84,33 65,42 50,38" />
<polygon fill="#3a3a35" fill-opacity="0.501961" points="159,8 116,12 152,-2" />
<polygon fill="#ffffff" fill-opacity="0.501961" points="128,106 123,100 125,99" />
<polygon fill="#717266" fill-opacity="0.501961" points="70,49 64,46 51,51" />
<polygon fill="#b7bab1" fill-opacity="0.501961" points="202,21 193,23 216,33" />
<polygon fill="#6b7277" fill-opacity="0.501961" points="114,52 90,83 104,84" />
<polygon fill="#bfc1bf" fill-opacity="0.501961" points="236,44 238,34 256,44" />
<polygon fill="#c6cacb" fill-opacity="0.501961" points="88,132 98,135 98,132" />
<polygon fill="#7f7158" fill-opacity="0.501961" points="144,13 160,17 171,12" />
<polygon fill="#55585d" fill-opacity="0.501961" points="170,33 197,35 190,28" />
<polygon fill="#444b47" fill-opacity="0.501961" points="146,51 151,60 142,51" />
<polygon fill="#464e50" fill-opacity="0.501961" points="161,55 154,40 150,44" />
<polygon fill="#d5dddb" fill-opacity="0.501961" points="215,59 219,69 219,64" />
<polygon fill="#575c5c" fill-opacity="0.501961" points="177,32 153,32 156,38" />
<polygon fill="#535b62" fill-opacity="0.501961" points="154,87 175,81 172,87" />
<polygon fill="#0e1311" fill-opacity="0.501961" points="84,47 100,44 91,49" />
<polygon fill="#969ba0" fill-opacity="0.501961" points="160,127 176,114 115,108" />
<polygon fill="#5e656c" fill-opacity="0.501961" points="69,98 95,93 81,76" />
<polygon fill="#74797e" fill-opacity="0.501961" points="76,109 114,128 104,135" />
<polygon fill="#6f767c" fill-opacity="0.501961" points="204,72 184,73 161,40" />
<polygon fill="#9a9ea2" fill-opacity="0.501961" points="142,128 91,142 110,127" />
<polygon fill="#b0b9b9" fill-opacity="0.501961" points="210,63 203,61 216,59" />
<polygon fill="#393e3e" fill-opacity="0.501961" points="123,64 135,55 133,47" />
<polygon fill="#464c4f" fill-opacity="0.501961" points="206,68 211,61 218,66" />
<polygon fill="#171715" fill-opacity="0.501961" points="268,-12 265,35 197,-1" />
<polygon fill="#cdd0ce" fill-opacity="0.501961" points="55,37 90,41 22,53" />
<polygon fill="#989b96" fill-opacity="0.501961" points="193,136 232,123 214,122" />
<polygon fill="#53565b" fill-opacity="0.501961" points="69,53 93,48 82,55" />
<polygon fill="#c6d0d2" fill-opacity="0.501961" points="93,52 89,61 88,57" />
<polygon fill="#8a8c89" fill-opacity="0.501961" points="225,125 240,109 260,107" />
<polygon fill="#9ea29b" fill-opacity="0.501961" points="227,38 214,30 222,40" />
<polygon fill="#31312a" fill-opacity="0.501961" points="271,49 231,11 211,17" />
<polygon fill="#76786f" fill-opacity="0.501961" points="120,40 108,38 124,36" />
<polygon fill="#cdc5c5" fill-opacity="0.501961" points="79,75 72,72 76,72" />
<polygon fill="#575c60" fill-opacity="0.501961" points="113,50 84,64 97,52" />
<polygon fill="#646f71" fill-opacity="0.501961" points="142,59 131,61 157,69" />
<polygon fill="#737672" fill-opacity="0.501961" points="-16,64 -3,51 19,51" />
<polygon fill="#a9aaac" fill-opacity="0.501961" points="90,84 102,86 94,89" />
<polygon fill="#22211a" fill-opacity="0.501961" points="258,145 186,160 219,172" />
<polygon fill="#12130e" fill-opacity="0.501961" points="205,37 203,30 223,42" />
<polygon fill="#695435" fill-opacity="0.501961" points="190,7 176,8 197,15" />
<polygon fill="#f2f2f1" fill-opacity="0.501961" points="185,17 158,27 152,19" />
<polygon fill="#1c1c18" fill-opacity="0.501961" points="-9,67 14,57 -16,61" />
<polygon fill="#dedfde" fill-opacity="0.501961" points="97,151 149,134 147,149" />
<polygon fill="#596062" fill-opacity="0.501961" points="125,53 142,37 139,51" />
<polygon fill="#dadada" fill-opacity="0.501961" points="207,17 223,34 193,16" />
<polygon fill="#54585e" fill-opacity="0.501961" points="94,134 94,140 90,134" />
<polygon fill="#bfbfbe" fill-opacity="0.501961" points="169,137 140,155 139,146" />
<polygon fill="#3a3e41" fill-opacity="0.501961" points="210,59 218,56 207,49" />
<polygon fill="#6f7165" fill-opacity="0.501961" points="43,53 30,56 33,52" />
<polygon fill="#c7d0cc" fill-opacity="0.501961" points="220,56 220,53 218,58" />
<polygon fill="#6e747b" fill-opacity="0.501961" points="82,123 101,89 81,83" />
<polygon fill="#fff8e6" fill-opacity="0.501961" points="162,54 163,55 167,53" />
<polygon fill="#464b4e" fill-opacity="0.501961" points="198,32 205,44 213,40" />
<polygon fill="#9fa095" fill-opacity="0.501961" points="150,32 139,32 143,35" />
<polygon fill="#ececec" fill-opacity="0.501961" points="45,45 61,36 75,40" />
<polygon fill="#d6e1e1" fill-opacity="0.501961" points="195,73 205,73 195,76" />
<polygon fill="#b7bbbd" fill-opacity="0.501961" points="123,97 143,86 165,89" />
<polygon fill="#888f94" fill-opacity="0.501961" points="95,112 138,89 112,87" />
<polygon fill="#474a3e" fill-opacity="0.501961" points="192,22 187,22 183,25" />
<polygon fill="#ffffff" fill-opacity="0.501961" points="200,47 204,47 203,46" />
<polygon fill="#585c61" fill-opacity="0.501961" points="159,52 204,54 185,37" />
<polygon fill="#c2c2bb" fill-opacity="0.501961" points="165,17 171,18 175,16" />
<polygon fill="#949a9d" fill-opacity="0.501961" points="133,90 160,94 152,87" />
<polygon fill="#25282a" fill-opacity="0.501961" points="40,134 66,140 21,89" />
<polygon fill="#7c7c74" fill-opacity="0.501961" points="89,45 84,42 98,41" />
<polygon fill="#b4b6b3" fill-opacity="0.501961" points="231,109 251,104 217,123" />
<polygon fill="#767267" fill-opacity="0.501961" points="86,30 93,14 106,26" />
<polygon fill="#4a4941" fill-opacity="0.501961" points="87,16 104,28 96,18" />
<polygon fill="#afb0af" fill-opacity="0.501961" points="90,153 46,171 136,163" />
<polygon fill="#737579" fill-opacity="0.501961" points="129,133 116,143 146,133" />
<polygon fill="#d5d7d7" fill-opacity="0.501961" points="126,114 132,120 121,114" />
<polygon fill="#82898c" fill-opacity="0.501961" points="191,68 166,89 186,83" />
<polygon fill="#0e0f0b" fill-opacity="0.501961" points="158,55 153,63 161,80" />
<polygon fill="#494d4e" fill-opacity="0.501961" points="232,107 250,85 208,115" />
<polygon fill="#e1e2e2" fill-opacity="0.501961" points="174,136 197,119 148,136" />
<polygon fill="#050a08" fill-opacity="0.501961" points="130,38 128,40 131,40" />
<polygon fill="#565c55" fill-opacity="0.501961" points="140,24 138,26 135,25" />
<polygon fill="#514f47" fill-opacity="0.501961" points="138,21 124,3 109,9" />
<polygon fill="#dedfde" fill-opacity="0.501961" points="126,86 135,89 144,87" />
<polygon fill="#dbdadc" fill-opacity="0.501961" points="29,48 27,42 50,42" />
<polygon fill="#252726" fill-opacity="0.501961" points="140,-8 196,10 196,-16" />
<polygon fill="#bcbab9" fill-opacity="0.501961" points="91,75 95,72 97,75" />
<polygon fill="#51565a" fill-opacity="0.501961" points="70,69 86,57 97,73" />
<polygon fill="#51565a" fill-opacity="0.501961" points="63,72 66,118 84,76" />
<polygon fill="#80888c" fill-opacity="0.501961" points="117,70 138,82 97,86" />
<polygon fill="#cccecf" fill-opacity="0.501961" points="122,87 117,81 111,87" />
<polygon fill="#070a08" fill-opacity="0.501961" points="36,60 45,53 59,53" />
<polygon fill="#8d9398" fill-opacity="0.501961" points="112,94 136,116 111,112" />
<polygon fill="#828580" fill-opacity="0.501961" points="25,50 27,55 44,47" />
<polygon fill="#3e4037" fill-opacity="0.501961" points="38,53 29,57 24,53" />
<polygon fill="#060908" fill-opacity="0.501961" points="67,53 65,49 78,49" />
<polygon fill="#6c6f6a" fill-opacity="0.501961" points="271,62 271,74 243,47" />
<polygon fill="#92979b" fill-opacity="0.501961" points="158,112 187,85 179,113" />
<polygon fill="#0b0b0b" fill-opacity="0.501961" points="175,65 149,79 167,82" />
<polygon fill="#000000" fill-opacity="0.501961" points="245,56 252,61 263,61" />
<polygon fill="#dae0e0" fill-opacity="0.501961" points="201,43 195,37 190,37" />
<polygon fill="#262a2b" fill-opacity="0.501961" points="271,69 239,58 270,132" />
<polygon fill="#222527" fill-opacity="0.501961" points="43,58 47,88 16,64" />
<polygon fill="#8f949a" fill-opacity="0.501961" points="150,94 161,99 162,105" />
<polygon fill="#121515" fill-opacity="0.501961" points="7,112 10,62 36,78" />
<polygon fill="#494c4f" fill-opacity="0.501961" points="195,41 197,49 176,38" />
<polygon fill="#414647" fill-opacity="0.501961" points="224,47 209,47 196,35" />
<polygon fill="#7a654a" fill-opacity="0.501961" points="173,60 166,64 161,57" />
<polygon fill="#e4e8e6" fill-opacity="0.501961" points="123,34 79,42 102,30" />
<polygon fill="#83877f" fill-opacity="0.501961" points="159,32 152,25 161,29" />
<polygon fill="#969a93" fill-opacity="0.501961" points="227,38 237,48 242,45" />
<polygon fill="#5b5c55" fill-opacity="0.501961" points="72,45 67,45 64,51" />
<polygon fill="#e5e5e4" fill-opacity="0.501961" points="178,14 188,14 182,19" />
<polygon fill="#7f8589" fill-opacity="0.501961" points="199,112 192,77 209,76" />
<polygon fill="#515559" fill-opacity="0.501961" points="99,46 64,54 87,55" />
<polygon fill="#8e887c" fill-opacity="0.501961" points="120,17 130,20 110,22" />
<polygon fill="#a7a79d" fill-opacity="0.501961" points="165,26 173,28 156,31" />
<polygon fill="#72726a" fill-opacity="0.501961" points="185,26 176,25 192,21" />
<polygon fill="#0e0e0c" fill-opacity="0.501961" points="4,-2 -16,37 89,-16" />
<polygon fill="#0c1010" fill-opacity="0.501961" points="108,41 109,44 118,41" />
<polygon fill="#d1d6d6" fill-opacity="0.501961" points="144,95 149,93 154,94" />
<polygon fill="#d3d3d1" fill-opacity="0.501961" points="195,11 223,27 204,23" />
<polygon fill="#2f3237" fill-opacity="0.501961" points="37,99 57,143 45,53" />
<polygon fill="#8e9298" fill-opacity="0.501961" points="114,124 110,117 129,117" />
<polygon fill="#3e4546" fill-opacity="0.501961" points="192,40 200,43 195,44" />
<polygon fill="#53524a" fill-opacity="0.501961" points="46,38 76,32 92,15" />
<polygon fill="#1e2222" fill-opacity="0.501961" points="150,37 143,35 159,33" />
<polygon fill="#3b3f41" fill-opacity="0.501961" points="67,135 72,152 82,134" />
<polygon fill="#7b8388" fill-opacity="0.501961" points="177,80 187,65 171,74" />
<polygon fill="#c5caca" fill-opacity="0.501961" points="101,133 100,138 98,134" />
<polygon fill="#1c1c18" fill-opacity="0.501961" points="60,20 68,10 37,7" />
<polygon fill="#464b4e" fill-opacity="0.501961" points="219,55 202,61 211,50" />
<polygon fill="#5d5c50" fill-opacity="0.501961" points="200,27 203,31 208,32" />
<polygon fill="#565c60" fill-opacity="0.501961" points="201,64 215,70 211,62" />
<polygon fill="#676d6d" fill-opacity="0.501961" points="158,38 167,34 147,36" />
<polygon fill="#e4e6e5" fill-opacity="0.501961" points="127,104 131,109 136,108" />
<polygon fill="#b6c3c1" fill-opacity="0.501961" points="147,47 151,56 154,53" />
<polygon fill="#e1e4e1" fill-opacity="0.501961" points="162,53 158,40 158,47" />
<polygon fill="#d2d4d3" fill-opacity="0.501961" points="226,110 213,121 203,119" />
<polygon fill="#6b675c" fill-opacity="0.501961" points="128,13 157,15 133,21" />
<polygon fill="#b0b7b8" fill-opacity="0.501961" points="97,140 88,140 90,143" />
<polygon fill="#686b66" fill-opacity="0.501961" points="155,57 162,53 154,46" />
<polygon fill="#707a77" fill-opacity="0.501961" points="154,50 157,53 149,52" />
<polygon fill="#666b6e" fill-opacity="0.501961" points="183,59 157,42 171,38" />
<polygon fill="#586066" fill-opacity="0.501961" points="159,88 155,84 168,87" />
<polygon fill="#655e53" fill-opacity="0.501961" points="170,13 154,3 165,6" />
<polygon fill="#eae9e6" fill-opacity="0.501961" points="150,85 144,86 155,88" />
<polygon fill="#4d5451" fill-opacity="0.501961" points="145,51 150,58 149,51" />
<polygon fill="#474c4f" fill-opacity="0.501961" points="225,62 217,74 231,73" />
<polygon fill="#c8c8c4" fill-opacity="0.501961" points="228,43 234,43 224,39" />
<polygon fill="#c5c5c5" fill-opacity="0.501961" points="188,128 173,142 143,144" />
<polygon fill="#a1a9a7" fill-opacity="0.501961" points="129,42 128,50 125,39" />
<polygon fill="#bfc5c7" fill-opacity="0.501961" points="120,114 129,117 109,117" />
<polygon fill="#bfc3c5" fill-opacity="0.501961" points="127,128 134,119 118,130" />
<polygon fill="#454a4d" fill-opacity="0.501961" points="81,73 71,67 73,62" />
<polygon fill="#e2e6e5" fill-opacity="0.501961" points="182,37 183,35 175,35" />
<polygon fill="#c9d7d7" fill-opacity="0.501961" points="76,57 74,60 80,57" />
<polygon fill="#d7d8d8" fill-opacity="0.501961" points="108,148 92,156 114,152" />
<polygon fill="#36362f" fill-opacity="0.501961" points="91,12 88,-5 106,23" />
<polygon fill="#dfe2df" fill-opacity="0.501961" points="130,30 124,37 146,29" />
<polygon fill="#16191a" fill-opacity="0.501961" points="54,171 13,107 70,157" />
<polygon fill="#151712" fill-opacity="0.501961" points="25,40 -15,49 2,20" />
<polygon fill="#292a1f" fill-opacity="0.501961" points="171,65 176,65 168,56" />
<polygon fill="#808489" fill-opacity="0.501961" points="103,140 100,125 129,137" />
<polygon fill="#fafdfb" fill-opacity="0.501961" points="134,23 124,32 123,25" />
<polygon fill="#424749" fill-opacity="0.501961" points="228,57 217,60 235,74" />
<polygon fill="#26271d" fill-opacity="0.501961" points="160,68 153,59 161,57" />
<polygon fill="#474b4f" fill-opacity="0.501961" points="60,66 60,55 90,49" />
<polygon fill="#717578" fill-opacity="0.501961" points="201,116 166,127 180,115" />
<polygon fill="#f1f3f1" fill-opacity="0.501961" points="127,98 130,95 124,98" />
<polygon fill="#0e0f0b" fill-opacity="0.501961" points="200,33 211,36 196,27" />
<polygon fill="#afbab9" fill-opacity="0.501961" points="135,55 138,60 146,58" />
<polygon fill="#666b6f" fill-opacity="0.501961" points="104,46 126,46 122,41" />
<polygon fill="#10110d" fill-opacity="0.501961" points="59,50 70,51 52,56" />
<polygon fill="#a98e80" fill-opacity="0.501961" points="167,62 172,63 166,59" />
<polygon fill="#595f61" fill-opacity="0.501961" points="136,42 140,51 124,52" />
<polygon fill="#61656a" fill-opacity="0.501961" points="95,140 85,137 98,135" />
<polygon fill="#5d605e" fill-opacity="0.501961" points="258,116 271,103 238,120" />
<polygon fill="#777a75" fill-opacity="0.501961" points="9,46 -16,47 -14,55" />
<polygon fill="#8c8d85" fill-opacity="0.501961" points="132,38 120,38 121,35" />
<polygon fill="#46494c" fill-opacity="0.501961" points="200,31 186,33 210,44" />
<polygon fill="#5f6467" fill-opacity="0.501961" points="230,102 214,73 213,101" />
<polygon fill="#686b64" fill-opacity="0.501961" points="103,43 99,41 110,39" />
<polygon fill="#0c0e0a" fill-opacity="0.501961" points="228,44 235,51 219,42" />
<polygon fill="#979ca0" fill-opacity="0.501961" points="132,106 128,97 155,107" />
<polygon fill="#62686c" fill-opacity="0.501961" points="156,84 140,76 144,72" />
<polygon fill="#292821" fill-opacity="0.501961" points="9,59 20,57 14,56" />
<polygon fill="#383730" fill-opacity="0.501961" points="53,17 61,31 26,38" />
<polygon fill="#9fa4a8" fill-opacity="0.501961" points="165,115 129,135 136,111" />
<polygon fill="#d4d1d0" fill-opacity="0.501961" points="87,74 84,82 88,78" />
<polygon fill="#c4cdcc" fill-opacity="0.501961" points="211,73 216,69 218,70" />
<polygon fill="#aaafaf" fill-opacity="0.501961" points="139,38 152,38 142,41" />
<polygon fill="#fcfefb" fill-opacity="0.501961" points="156,29 142,25 132,29" />
<polygon fill="#4a4840" fill-opacity="0.501961" points="83,30 87,16 72,11" />
<polygon fill="#333738" fill-opacity="0.501961" points="150,77 153,70 143,64" />
<polygon fill="#adb1af" fill-opacity="0.501961" points="249,49 239,34 271,54" />
<polygon fill="#1a1000" fill-opacity="0.501961" points="173,16 170,7 173,8" />
<polygon fill="#30302a" fill-opacity="0.501961" points="129,6 86,11 127,-8" />
<polygon fill="#d0d0d0" fill-opacity="0.501961" points="100,86 94,86 100,88" />
<polygon fill="#3e4242" fill-opacity="0.501961" points="121,58 135,56 127,62" />
<polygon fill="#898f95" fill-opacity="0.501961" points="123,86 107,117 107,89" />
<polygon fill="#65696f" fill-opacity="0.501961" points="84,133 73,122 103,128" />
<polygon fill="#585f64" fill-opacity="0.501961" points="88,78 93,82 94,76" />
<polygon fill="#404548" fill-opacity="0.501961" points="49,104 72,73 60,72" />
<polygon fill="#ced4d3" fill-opacity="0.501961" points="189,37 185,35 182,36" />
<polygon fill="#7a8184" fill-opacity="0.501961" points="115,58 126,47 126,55" />
<polygon fill="#5a6364" fill-opacity="0.501961" points="148,42 154,40 140,39" />
<polygon fill="#d1d2d2" fill-opacity="0.501961" points="237,41 228,29 210,24" />
<polygon fill="#a6b3b4" fill-opacity="0.501961" points="69,65 75,59 73,58" />
<polygon fill="#ebeaea" fill-opacity="0.501961" points="130,144 158,131 144,144" />
<polygon fill="#292e2e" fill-opacity="0.501961" points="135,39 131,38 128,41" />
<polygon fill="#b0b1af" fill-opacity="0.501961" points="67,175 134,156 88,156" />
<polygon fill="#767d83" fill-opacity="0.501961" points="93,87 84,110 105,89" />
<polygon fill="#333739" fill-opacity="0.501961" points="231,50 251,62 248,103" />
<polygon fill="#cac9c9" fill-opacity="0.501961" points="160,88 170,88 166,90" />
<polygon fill="#24231f" fill-opacity="0.501961" points="180,-9 247,19 207,15" />
<polygon fill="#63696d" fill-opacity="0.501961" points="216,69 182,53 200,72" />
<polygon fill="#5f656b" fill-opacity="0.501961" points="85,78 76,122 71,90" />
<polygon fill="#4c5154" fill-opacity="0.501961" points="85,57 75,61 86,70" />
<polygon fill="#303438" fill-opacity="0.501961" points="52,70 60,54 36,60" />
<polygon fill="#706a59" fill-opacity="0.501961" points="193,25 191,24 193,21" />
<polygon fill="#a39989" fill-opacity="0.501961" points="63,33 67,30 66,32" />
<polygon fill="#d2d4d4" fill-opacity="0.501961" points="166,103 159,93 162,102" />
<polygon fill="#616258" fill-opacity="0.501961" points="54,48 49,53 68,49" />
<polygon fill="#c0c2c1" fill-opacity="0.501961" points="15,45 34,42 29,47" />
<polygon fill="#d5d6d1" fill-opacity="0.501961" points="204,15 210,26 190,17" />
<polygon fill="#8f959a" fill-opacity="0.501961" points="182,99 165,99 149,88" />
<polygon fill="#6e757a" fill-opacity="0.501961" points="113,74 121,49 103,50" />
<polygon fill="#7a8187" fill-opacity="0.501961" points="115,84 94,76 103,86" />
<polygon fill="#505652" fill-opacity="0.501961" points="-15,123 4,149 -16,150" />
<polygon fill="#f1f2f0" fill-opacity="0.501961" points="107,30 122,34 123,24" />
<polygon fill="#989b9a" fill-opacity="0.501961" points="14,52 13,45 -3,51" />
<polygon fill="#cecdcc" fill-opacity="0.501961" points="181,87 189,84 192,76" />
<polygon fill="#211a07" fill-opacity="0.501961" points="173,9 179,13 184,11" />
<polygon fill="#b2b3b2" fill-opacity="0.501961" points="200,135 212,123 186,135" />
<polygon fill="#feffff" fill-opacity="0.501961" points="139,52 145,55 142,56" />
<polygon fill="#565c5f" fill-opacity="0.501961" points="147,40 144,45 134,42" />
<polygon fill="#6c7c77" fill-opacity="0.501961" points="151,25 148,23 147,25" />
<polygon fill="#d3d2ca" fill-opacity="0.501961" points="189,14 183,23 181,21" />
<polygon fill="#181e1d" fill-opacity="0.501961" points="147,35 142,38 138,37" />
<polygon fill="#8a9296" fill-opacity="0.501961" points="135,87 134,75 147,84" />
</g>
</svg>