<svg xmlns="http://www.w3.org/2000/svg" version="1.1" width="1024" height="572">
<rect x="0" y="0" width="1024" height="572" fill="#447290" />
<g transform="scale(4.000000) translate(0.5 0.5)">
<polygon fill="#c6688a" fill-opacity="0.501961" points="268.923543,-12.166727,260.000558,69.791864,97.992018,43.641214,110.373958,29.491651" />
<polygon fill="#006c9d" fill-opacity="0.501961" points="224.464784,76.501982,125.003148,142.579125,-16.000000,144.350233,60.693594,36.253307" />
<polygon fill="#bdd8d5" fill-opacity="0.501961" points="-8.976461,29.864603,33.448167,68.567054,37.450839,45.146225,70.286227,9.957579" />
<polygon fill="#00a1df" fill-opacity="0.501961" points="90.225538,119.099220,120.292746,118.224755,91.396991,49.595099,48.734318,102.707294" />
<polygon fill="#000500" fill-opacity="0.501961" points="41.785797,116.252110,111.757672,131.144097,70.976069,115.001056,11.244144,158.000000" />
<polygon fill="#611646" fill-opacity="0.501961" points="159.895300,53.426284,187.807272,13.831644,185.608438,32.975849,271.000000,83.711188" />
<polygon fill="#e8eafb" fill-opacity="0.501961" points="237.582986,22.696908,239.244578,37.446813,211.801061,50.485943,211.195697,23.167168" />
<polygon fill="#94a8a3" fill-opacity="0.501961" points="271.000000,86.855687,192.740517,79.177449,262.714193,158.000000,240.098438,-16.000000" />
<polygon fill="#fc73df" fill-opacity="0.501961" points="130.527401,20.867034,117.474703,49.151571,171.678615,37.430726,154.922006,60.620112" />
<polygon fill="#74eefe" fill-opacity="0.501961" points="162.619493,103.312401,167.438582,91.640219,124.731063,102.012186,136.141949,113.659339" />
<polygon fill="#0f3e28" fill-opacity="0.501961" points="206.686044,14.973712,262.535554,25.246363,238.484351,4.624549,201.153433,6.759355" />
<polygon fill="#3a2d29" fill-opacity="0.501961" points="207.296382,123.892896,200.499159,138.814133,237.068676,123.276660,257.182903,81.654850" />
<polygon fill="#183546" fill-opacity="0.501961" points="127.540742,14.150062,95.078285,50.092393,78.110968,13.240868,98.987099,-3.894709" />
<polygon fill="#18000a" fill-opacity="0.501961" points="63.428419,7.450476,77.285470,62.181445,58.241583,43.032900,82.830601,-16.000000" />
<polygon fill="#003864" fill-opacity="0.501961" points="110.191871,88.241963,73.698505,100.277472,122.373284,105.049714,197.050184,45.407346" />
<polygon fill="#8ee4f6" fill-opacity="0.501961" points="-4.168986,66.482864,14.340897,99.614171,7.632300,127.902630,-3.987575,89.400534" />
<polygon fill="#000000" fill-opacity="0.501961" points="-16.000000,16.701420,71.003831,-16.000000,-0.407494,-16.000000,12.136151,22.208516" />
<polygon fill="#c9ffff" fill-opacity="0.501961" points="203.795499,6.553980,190.725473,12.151209,190.809969,25.671648,202.227327,27.441115" />
<polygon fill="#d5ffee" fill-opacity="0.501961" points="258.211761,-16.000000,193.453312,0.897743,239.019963,2.733837,260.431889,17.188764" />
<polygon fill="#002f49" fill-opacity="0.501961" points="62.333773,83.943519,85.904584,63.951434,41.910323,110.918465,44.535932,56.126016" />
<polygon fill="#a8e9f9" fill-opacity="0.501961" points="154.612640,123.016038,174.721670,148.062583,157.390922,102.045611,166.135958,95.599445" />
<polygon fill="#95c8c1" fill-opacity="0.501961" points="204.531129,31.739808,160.144332,16.755294,144.248507,23.358033,100.353886,-16.000000" />
<polygon fill="#01334e" fill-opacity="0.501961" points="159.680597,103.687475,184.480470,127.235601,161.127922,34.831552,199.669853,82.134365" />
<polygon fill="#11cdff" fill-opacity="0.501961" points="195.321164,75.991643,228.351992,83.536112,213.843443,96.979676,200.961512,92.292215" />
<polygon fill="#131d1d" fill-opacity="0.501961" points="35.648146,123.135244,43.047896,158.000000,-16.000000,99.864689,9.441009,158.000000" />
<polygon fill="#8e9da6" fill-opacity="0.501961" points="230.436155,80.458562,244.445928,63.354249,213.305604,65.261560,236.770206,143.190821" />
<polygon fill="#2d011e" fill-opacity="0.501961" points="241.089652,63.386670,243.936207,38.893488,236.894235,48.336978,225.707359,52.973171" />
<polygon fill="#151503" fill-opacity="0.501961" points="250.811293,69.970461,226.745991,73.411555,271.000000,88.299078,264.326545,61.154877" />
<polygon fill="#103549" fill-opacity="0.501961" points="203.434207,131.821041,218.857209,80.954122,226.545139,104.434653,200.403022,108.848695" />
<polygon fill="#002230" fill-opacity="0.501961" points="47.355531,158.000000,133.749319,90.559266,115.151935,93.623318,105.548320,123.533597" />
<polygon fill="#34bee3" fill-opacity="0.501961" points="112.609388,123.052892,100.071032,158.000000,92.038604,91.622075,70.705193,114.323690" />
<polygon fill="#c3aca8" fill-opacity="0.501961" points="209.692214,135.160223,232.163650,133.002682,241.377621,142.279050,271.000000,108.646426" />
<polygon fill="#d6f5f5" fill-opacity="0.501961" points="243.256570,56.732348,264.841632,35.691243,241.424531,22.295468,271.000000,66.788034" />
<polygon fill="#89bac1" fill-opacity="0.501961" points="36.424390,-16.000000,25.972501,3.505321,59.024789,45.688266,63.613282,12.926638" />
<polygon fill="#002b47" fill-opacity="0.501961" points="18.340903,102.746190,35.696309,88.364440,32.951362,77.121680,21.157963,67.015198" />
<polygon fill="#4e1750" fill-opacity="0.501961" points="141.782276,32.752189,147.995749,67.422808,127.163836,61.174664,125.729829,53.154655" />
<polygon fill="#04bbfc" fill-opacity="0.501961" points="15.409687,105.256028,45.582706,89.048022,10.380274,124.386526,37.931786,119.927542" />
<polygon fill="#243137" fill-opacity="0.501961" points="37.394838,36.865894,59.210962,53.745992,44.872298,28.247743,41.585369,20.199828" />
<polygon fill="#001534" fill-opacity="0.501961" points="121.988439,132.988140,135.729602,119.470205,146.117084,152.720607,153.769479,132.222746" />
<polygon fill="#20231f" fill-opacity="0.501961" points="191.080717,158.000000,183.194023,123.379061,237.126723,148.760431,194.601504,134.274879" />
<polygon fill="#b7318f" fill-opacity="0.501961" points="226.655009,55.091854,148.921092,38.485953,193.205646,28.712291,233.819338,46.437683" />
<polygon fill="#0b2150" fill-opacity="0.501961" points="80.254039,52.410874,107.275581,65.074302,56.940849,21.954049,68.715347,67.844925" />
<polygon fill="#b6d9e4" fill-opacity="0.501961" points="40.933941,15.534401,16.958873,53.824647,-13.358157,9.378524,34.591422,50.364201" />
<polygon fill="#28403f" fill-opacity="0.501961" points="200.415817,30.958396,207.837262,-16.000000,207.208381,39.068829,160.205112,21.631055" />
<polygon fill="#0d4c42" fill-opacity="0.501961" points="150.769017,30.915109,129.283553,12.887476,131.236258,28.635758,161.611474,16.946630" />
<polygon fill="#0086be" fill-opacity="0.501961" points="144.545271,68.183702,197.834075,64.504306,144.707236,102.292343,127.819022,102.894550" />
<polygon fill="#1fb9f0" fill-opacity="0.501961" points="92.437523,92.121100,124.844359,50.716631,72.979389,80.241711,39.868527,42.792389" />
<polygon fill="#b7dbf4" fill-opacity="0.501961" points="211.870051,113.519310,228.000955,114.474109,235.151556,128.271998,226.966316,101.248460" />
<polygon fill="#a1e2ed" fill-opacity="0.501961" points="16.214130,54.453542,-13.044773,76.974793,12.246770,74.159423,6.856108,52.982352" />
<polygon fill="#a4c6c8" fill-opacity="0.501961" points="193.579567,2.450460,160.645127,35.181337,182.950598,18.115851,156.949741,-16.000000" />
<polygon fill="#9fdadf" fill-opacity="0.501961" points="78.005927,42.720246,71.610373,12.858758,95.070356,3.797276,76.775658,1.803863" />
<polygon fill="#153230" fill-opacity="0.501961" points="46.749618,16.638837,45.243643,5.822253,42.917893,8.928825,3.155617,16.784097" />
<polygon fill="#5dc2d9" fill-opacity="0.501961" points="76.536280,138.304643,72.771108,120.252638,33.365670,153.240096,46.970080,137.673808" />
<polygon fill="#3a3639" fill-opacity="0.501961" points="243.517416,116.102865,236.984122,94.990081,233.273872,114.858354,253.895636,157.692885" />
<polygon fill="#002c58" fill-opacity="0.501961" points="100.507720,82.458718,91.074246,9.666099,107.427096,98.145581,89.073925,102.519802" />
<polygon fill="#169adc" fill-opacity="0.501961" points="84.489719,36.369454,45.376781,76.419475,89.774406,11.176445,91.749136,34.883106" />
<polygon fill="#c7dfde" fill-opacity="0.501961" points="237.827480,27.515259,233.047709,9.973371,221.434060,37.708188,234.780907,45.338233" />
<polygon fill="#93b5d2" fill-opacity="0.501961" points="22.567890,51.647011,25.686957,73.271208,42.482152,42.866020,58.931382,59.538673" />
<polygon fill="#00213c" fill-opacity="0.501961" points="146.010379,107.227746,144.442049,80.381623,155.296619,82.000759,154.179009,66.696426" />
<polygon fill="#002434" fill-opacity="0.501961" points="40.008369,129.890361,60.390379,80.324882,38.617097,100.734245,62.261352,134.132754" />
<polygon fill="#f492e6" fill-opacity="0.501961" points="146.276181,26.984122,179.646429,33.342114,110.174007,31.978066,129.302221,47.017116" />
<polygon fill="#59acc7" fill-opacity="0.501961" points="0.765789,131.050792,9.050675,116.935900,21.637862,116.241210,21.931585,130.659992" />
<polygon fill="#0d3041" fill-opacity="0.501961" points="220.723427,84.991784,210.494275,76.305531,234.013730,68.360262,213.695250,91.846654" />
<polygon fill="#0a1512" fill-opacity="0.501961" points="0.792724,55.274883,7.727177,38.961127,-8.446165,43.520106,0.638699,90.409614" />
<polygon fill="#344e40" fill-opacity="0.501961" points="192.235166,21.139703,185.537352,25.383574,157.720039,-16.000000,136.333850,1.096461" />
<polygon fill="#060d00" fill-opacity="0.501961" points="108.561074,14.214275,130.128646,8.747439,98.207885,5.294186,105.935439,-16.000000" />
<polygon fill="#003451" fill-opacity="0.501961" points="86.999887,137.928042,59.129124,65.094326,76.684389,100.444664,63.484630,116.389818" />
<polygon fill="#00a2e3" fill-opacity="0.501961" points="45.672781,111.806709,49.919303,108.102618,47.170351,126.872952,21.415116,77.720975" />
<polygon fill="#d7dfe9" fill-opacity="0.501961" points="227.017425,94.923279,239.959045,79.190896,224.935109,86.634945,251.212393,92.603978" />
<polygon fill="#00b7f8" fill-opacity="0.501961" points="74.104885,81.486885,116.669998,121.483062,112.894807,96.249183,94.450491,108.420437" />
<polygon fill="#1b2a27" fill-opacity="0.501961" points="-1.686430,-16.000000,-6.674656,17.716381,20.426579,30.285428,14.699456,40.460506" />
<polygon fill="#83185d" fill-opacity="0.501961" points="122.855922,22.625763,126.263323,33.405909,92.037812,26.384383,117.505555,50.675894" />
<polygon fill="#11110d" fill-opacity="0.501961" points="168.548536,92.379585,184.332530,109.256614,176.355695,108.958785,163.968348,108.130513" />
<polygon fill="#112b2e" fill-opacity="0.501961" points="23.497824,47.540219,30.177966,55.057944,27.945859,41.648830,8.303932,73.690370" />
<polygon fill="#4d1035" fill-opacity="0.501961" points="235.714667,66.639576,162.047628,36.525801,164.258888,64.891221,196.214938,46.311141" />
<polygon fill="#f2a4ed" fill-opacity="0.501961" points="139.318513,42.727288,147.613750,45.889333,167.178233,49.899419,157.858845,60.399740" />
<polygon fill="#8acbe2" fill-opacity="0.501961" points="186.317179,105.248921,199.228138,121.816037,185.298523,124.636102,203.809529,113.578251" />
<polygon fill="#7f9eb8" fill-opacity="0.501961" points="214.117230,61.035668,195.862515,78.456760,205.620071,51.832908,238.392001,112.763145" />
<polygon fill="#4abbdc" fill-opacity="0.501961" points="40.546604,134.036470,132.613043,144.583651,114.395172,128.326955,176.698505,158.000000" />
<polygon fill="#beffff" fill-opacity="0.501961" points="150.913993,91.021532,149.710122,106.811996,150.431022,103.113491,163.320936,106.723341" />
<polygon fill="#001c2b" fill-opacity="0.501961" points="147.065730,58.862168,123.276808,88.357532,140.062749,81.340180,125.852093,65.169527" />
<polygon fill="#aceae5" fill-opacity="0.501961" points="221.534207,17.436893,178.266542,11.299923,207.465456,12.563350,215.214745,31.451232" />
<polygon fill="#9cb5be" fill-opacity="0.501961" points="67.414692,27.658865,-16.000000,32.432846,72.772611,21.055215,83.637435,-16.000000" />
<polygon fill="#31b2e9" fill-opacity="0.501961" points="105.809657,41.626805,124.628191,86.632812,125.820469,71.700916,108.248601,67.634741" />
<polygon fill="#112125" fill-opacity="0.501961" points="197.144651,109.695238,221.410687,126.023330,228.701001,123.587555,202.420205,105.117837" />
<polygon fill="#fdffff" fill-opacity="0.501961" points="253.708462,8.928257,254.281748,-16.000000,241.104519,-12.389143,242.460672,10.660705" />
<polygon fill="#132e26" fill-opacity="0.501961" points="237.812620,64.587170,244.554208,50.809408,251.725968,47.051367,237.813154,38.549513" />
<polygon fill="#2ea7d6" fill-opacity="0.501961" points="66.111018,72.348719,57.029465,95.780401,82.586192,60.591094,40.294105,70.428182" />
<polygon fill="#e3e0ea" fill-opacity="0.501961" points="271.000000,109.998299,244.867114,126.410678,271.000000,144.451213,243.002927,117.101872" />
<polygon fill="#2a272a" fill-opacity="0.501961" points="235.051393,95.242641,228.487078,95.761070,241.993548,107.054203,256.671608,101.217134" />
<polygon fill="#0096d3" fill-opacity="0.501961" points="123.621739,100.111390,111.683422,117.265204,152.685447,124.511098,154.449822,130.899825" />
<polygon fill="#355556" fill-opacity="0.501961" points="230.537325,-7.699488,221.392371,41.281511,210.689483,0.101700,199.036152,25.706163" />
<polygon fill="#58e2ff" fill-opacity="0.501961" points="216.696126,80.588420,195.212618,81.953742,211.820175,97.795714,206.216085,108.193455" />
<polygon fill="#7abfdb" fill-opacity="0.501961" points="146.547867,125.400423,165.988578,108.206941,143.530100,158.000000,178.217684,158.000000" />
<polygon fill="#1b2220" fill-opacity="0.501961" points="271.000000,26.188948,248.561452,25.068148,237.531143,-3.420459,237.621643,12.345552" />
<polygon fill="#73e0f1" fill-opacity="0.501961" points="99.974322,120.364630,100.426659,107.300959,83.985631,117.191864,103.831694,120.628389" />
<polygon fill="#002f3d" fill-opacity="0.501961" points="27.425646,97.304364,33.474960,92.803234,6.055608,85.723382,5.090196,73.391584" />
<polygon fill="#162624" fill-opacity="0.501961" points="28.962505,39.364035,22.092983,34.687775,29.190205,18.283791,19.898059,-16.000000" />
<polygon fill="#6a9fbd" fill-opacity="0.501961" points="175.226094,63.889041,183.815014,61.969494,237.398000,84.027680,178.701518,53.121447" />
<polygon fill="#2e4349" fill-opacity="0.501961" points="53.732440,40.293983,34.091805,42.224481,38.168954,70.016110,41.031751,47.609033" />
<polygon fill="#7cabb0" fill-opacity="0.501961" points="126.645466,18.872276,105.351383,18.013059,99.636332,31.140510,142.247776,-1.250595" />
<polygon fill="#002618" fill-opacity="0.501961" points="184.662856,18.441528,185.706458,16.135997,191.304151,15.018077,185.320366,34.960969" />
<polygon fill="#1d3b3d" fill-opacity="0.501961" points="156.980925,14.929040,146.218402,26.756912,162.734966,22.734344,179.950993,42.117183" />
<polygon fill="#95bce7" fill-opacity="0.501961" points="55.518775,49.798779,29.843276,54.844661,50.033074,47.635311,30.842602,72.939677" />
<polygon fill="#cbdae1" fill-opacity="0.501961" points="234.301662,60.124508,248.825892,62.516074,271.000000,26.015478,252.352808,71.009071" />
<polygon fill="#0fa5d7" fill-opacity="0.501961" points="114.730498,119.496903,66.132260,100.427823,61.615246,132.735503,48.995524,98.288735" />
<polygon fill="#1b1535" fill-opacity="0.501961" points="60.508841,42.204363,74.760268,64.351151,78.836019,58.298231,68.513784,26.099620" />
<polygon fill="#8dcbc9" fill-opacity="0.501961" points="155.078738,6.117088,162.454670,22.653085,195.611973,7.321211,181.577371,21.184032" />
<polygon fill="#0b3941" fill-opacity="0.501961" points="165.331692,118.081669,154.759517,103.704253,143.502825,110.497896,171.230332,114.633396" />
<polygon fill="#000b17" fill-opacity="0.501961" points="134.453783,124.057715,138.803187,118.430729,149.221979,158.000000,149.022511,136.301358" />
<polygon fill="#cefdff" fill-opacity="0.501961" points="37.195181,38.689148,19.396883,35.444294,30.461134,41.294544,29.077399,65.742418" />
<polygon fill="#00a3e4" fill-opacity="0.501961" points="25.810800,103.075588,49.234279,93.134699,40.053075,86.331457,59.499547,58.777453" />
<polygon fill="#00171b" fill-opacity="0.501961" points="71.216190,129.888816,46.380060,125.149377,58.508856,107.073083,55.529977,131.849867" />
<polygon fill="#e69ff1" fill-opacity="0.501961" points="121.436203,44.584267,118.674286,59.221620,142.265650,28.162213,126.086176,30.406060" />
<polygon fill="#b8f5fe" fill-opacity="0.501961" points="12.302450,112.545849,5.638035,92.175602,-16.000000,153.133951,-11.548047,90.571031" />
<polygon fill="#922572" fill-opacity="0.501961" points="120.437032,46.541319,151.642157,59.392264,139.828585,35.949535,163.472112,44.823315" />
<polygon fill="#0b1008" fill-opacity="0.501961" points="251.737287,85.656980,252.495863,70.352282,227.529559,84.279253,244.012082,66.794281" />
<polygon fill="#00b1e3" fill-opacity="0.501961" points="148.979250,72.270884,86.737521,72.846426,79.038052,94.308831,112.794458,75.039278" />
<polygon fill="#acc5d3" fill-opacity="0.501961" points="-12.306870,37.683027,27.113865,26.588124,68.696248,39.816524,30.793489,22.324995" />
<polygon fill="#003b62" fill-opacity="0.501961" points="97.459291,74.013569,118.387174,76.417081,125.426186,135.880689,110.291048,65.595643" />
<polygon fill="#001626" fill-opacity="0.501961" points="46.443593,75.136785,37.378275,75.816417,53.027723,64.555482,44.269954,54.532640" />
<polygon fill="#80ccf9" fill-opacity="0.501961" points="76.243184,15.346082,73.973560,38.594126,72.808667,38.123936,82.251171,41.374815" />
<polygon fill="#2ed2fe" fill-opacity="0.501961" points="138.339818,117.709968,134.445128,122.480744,134.274866,90.026943,146.242743,93.828993" />
<polygon fill="#001b32" fill-opacity="0.501961" points="22.118270,110.949123,-8.799919,127.795016,14.028761,112.286340,13.181813,107.182085" />
<polygon fill="#82d5e6" fill-opacity="0.501961" points="14.301967,13.456152,68.804865,-10.368073,39.090934,9.224936,13.526033,8.541632" />
<polygon fill="#010000" fill-opacity="0.501961" points="3.602841,139.457438,-0.751142,134.462447,18.450016,133.377429,-12.456419,158.000000" />
<polygon fill="#052236" fill-opacity="0.501961" points="94.870271,8.316315,99.601439,36.434067,79.165339,26.646591,104.592486,21.797139" />
<polygon fill="#bbd4dc" fill-opacity="0.501961" points="217.787052,31.608549,223.299659,15.084727,209.797725,20.352214,234.864662,42.164630" />
<polygon fill="#9fcddb" fill-opacity="0.501961" points="144.967477,10.989633,157.278687,-14.233358,143.862182,26.374991,134.013979,-3.508670" />
<polygon fill="#091e25" fill-opacity="0.501961" points="217.932791,114.285103,221.002051,116.235243,209.504166,140.636462,199.466398,135.676596" />
<polygon fill="#60a7c2" fill-opacity="0.501961" points="184.402828,114.259714,189.528006,77.386691,188.601292,117.364385,157.541369,145.741852" />
<polygon fill="#84d6ec" fill-opacity="0.501961" points="119.118532,152.069895,104.414628,134.619772,66.666882,158.000000,143.116317,139.016689" />
<polygon fill="#1178c0" fill-opacity="0.501961" points="74.672714,69.438092,97.710965,14.295487,72.672375,43.335254,99.281482,39.287599" />
<polygon fill="#887c77" fill-opacity="0.501961" points="254.396570,158.000000,193.895512,154.747518,220.421709,131.995397,209.819179,115.357850" />
<polygon fill="#001722" fill-opacity="0.501961" points="17.279676,158.000000,38.650665,112.256436,42.580368,135.994684,45.506392,128.788701" />
<polygon fill="#afdce2" fill-opacity="0.501961" points="164.559100,4.992006,177.862366,-0.985953,198.914918,28.398277,199.917458,11.213594" />
<polygon fill="#0b2e42" fill-opacity="0.501961" points="156.182326,96.877171,170.596464,95.304052,183.796470,109.551296,139.222435,79.835875" />
<polygon fill="#042a43" fill-opacity="0.501961" points="181.474781,68.098555,198.531970,54.978725,178.957136,80.377118,201.331090,78.623336" />
<polygon fill="#121a1d" fill-opacity="0.501961" points="212.732371,9.968102,199.632869,7.981106,216.327468,18.466333,229.356710,4.104204" />
<polygon fill="#f293e1" fill-opacity="0.501961" points="208.574682,34.213044,240.905019,47.046108,231.747567,38.034167,211.226682,52.359917" />
<polygon fill="#009edb" fill-opacity="0.501961" points="147.227141,91.671512,81.622474,89.072967,108.475594,70.120710,74.176950,81.764263" />
<polygon fill="#042f3a" fill-opacity="0.501961" points="116.629390,115.379302,41.933942,151.843538,70.841200,158.000000,76.210954,123.689759" />
<polygon fill="#be75b9" fill-opacity="0.501961" points="157.196105,25.291583,189.619962,37.820364,206.298530,74.192302,186.536571,42.279999" />
<polygon fill="#5ebad6" fill-opacity="0.501961" points="60.020276,136.813163,79.505246,131.168292,37.182602,134.343399,61.127988,142.563293" />
<polygon fill="#9ea8cb" fill-opacity="0.501961" points="231.173157,86.483633,206.296091,106.840199,226.885702,85.551370,238.467848,42.846502" />
<polygon fill="#a0c6d9" fill-opacity="0.501961" points="212.035196,96.011251,203.300140,105.376365,232.542321,115.951314,210.283063,105.432702" />
<polygon fill="#1a1a47" fill-opacity="0.501961" points="124.961831,43.333526,112.305613,51.861641,109.385255,44.768332,112.585672,42.740203" />
<polygon fill="#000013" fill-opacity="0.501961" points="127.830725,96.435069,126.045333,104.008813,109.145640,91.382763,118.493744,92.407902" />
<polygon fill="#011218" fill-opacity="0.501961" points="221.537721,79.970446,219.943661,81.477686,207.519582,77.067983,216.113290,72.776741" />
<polygon fill="#94d3e7" fill-opacity="0.501961" points="3.198844,54.270922,16.896249,36.222263,36.514828,80.598736,7.703532,31.519517" />
<polygon fill="#284939" fill-opacity="0.501961" points="243.905004,30.600017,239.589970,20.407166,239.358820,37.455504,271.000000,8.273885" />
<polygon fill="#423531" fill-opacity="0.501961" points="222.467900,135.461384,271.000000,146.642750,238.140888,124.112886,268.421815,158.000000" />
<polygon fill="#a6a9b0" fill-opacity="0.501961" points="271.000000,141.811000,212.278355,131.732767,240.461840,127.483470,250.262541,140.801782" />
<polygon fill="#2d4750" fill-opacity="0.501961" points="210.699932,117.800417,167.414439,130.880053,163.236221,125.777008,183.964974,131.745085" />
<polygon fill="#3d2237" fill-opacity="0.501961" points="192.388782,50.611569,180.267783,57.901212,189.240664,34.167017,173.291255,15.327216" />
<polygon fill="#0b4046" fill-opacity="0.501961" points="58.173171,-4.729095,67.574696,17.164461,88.937082,22.221975,52.475881,2.516322" />
<polygon fill="#254446" fill-opacity="0.501961" points="5.651872,73.171244,21.679135,49.895712,12.121699,97.308743,16.850337,61.796613" />
<polygon fill="#3a5959" fill-opacity="0.501961" points="175.066923,16.437976,195.585559,7.973890,163.222701,-15.900506,187.943638,6.988730" />
<polygon fill="#bfe0ec" fill-opacity="0.501961" points="22.554363,14.651271,17.446815,41.748393,37.348262,33.004226,23.071651,45.173579" />
<polygon fill="#159bce" fill-opacity="0.501961" points="178.598392,73.023511,182.167324,52.766074,173.639910,75.059822,189.084177,102.828827" />
<polygon fill="#0d191f" fill-opacity="0.501961" points="129.332821,2.928378,176.784703,-15.659270,143.216931,4.464137,119.397918,-16.000000" />
<polygon fill="#76a9bb" fill-opacity="0.501961" points="155.868765,115.066269,185.102122,128.581648,146.980073,90.470914,195.179609,150.551896" />
<polygon fill="#00233a" fill-opacity="0.501961" points="26.497765,90.178482,12.245326,100.298415,25.159781,102.385220,16.391176,68.580901" />
<polygon fill="#009ce0" fill-opacity="0.501961" points="53.260433,71.689194,56.839276,45.560098,70.133816,53.968493,37.423956,72.054234" />
<polygon fill="#90aeae" fill-opacity="0.501961" points="255.394354,40.023753,254.201011,-13.572564,264.094681,54.709708,207.843185,17.828621" />
<polygon fill="#004464" fill-opacity="0.501961" points="58.726556,69.602522,23.025018,72.007009,74.310496,78.300298,70.790566,91.282587" />
<polygon fill="#001841" fill-opacity="0.501961" points="102.036430,65.325091,103.046810,56.449042,76.189165,48.701680,78.991279,47.487169" />
<polygon fill="#b65eab" fill-opacity="0.501961" points="99.866648,17.725868,108.263907,46.150998,129.842394,32.594847,111.320976,39.485524" />
<polygon fill="#010f18" fill-opacity="0.501961" points="222.356539,93.665377,227.415667,105.666902,221.008787,103.412312,219.399479,97.151556" />
<polygon fill="#18252b" fill-opacity="0.501961" points="46.146268,24.305191,41.265284,21.460521,43.834266,35.746256,35.548767,36.151976" />
<polygon fill="#003659" fill-opacity="0.501961" points="157.047239,132.804435,162.324632,137.772673,142.084073,132.464943,144.851454,126.313090" />
<polygon fill="#9bfdff" fill-opacity="0.501961" points="140.696396,107.863437,142.309231,104.212498,131.761859,102.921546,135.596349,114.230179" />
<polygon fill="#92edff" fill-opacity="0.501961" points="163.593843,107.430448,167.831544,87.263420,163.833337,95.330947,148.396505,102.171373" />
<polygon fill="#00a3eb" fill-opacity="0.501961" points="226.700048,79.152924,218.487679,89.718744,223.224165,94.912590,208.130957,87.142703" />
<polygon fill="#5a9397" fill-opacity="0.501961" points="148.895809,36.268857,172.141734,21.134748,139.507976,27.924421,120.764212,-16.000000" />
<polygon fill="#000000" fill-opacity="0.501961" points="1.760513,9.573026,14.692489,19.244124,-9.342917,25.385447,2.924086,21.711324" />
<polygon fill="#c9c3c6" fill-opacity="0.501961" points="245.975429,85.912498,237.641303,84.235234,241.115698,99.200953,248.549395,83.538522" />
<polygon fill="#00111c" fill-opacity="0.501961" points="57.041433,91.096941,42.845011,80.213099,43.368732,86.409585,53.403978,100.831265" />
<polygon fill="#492947" fill-opacity="0.501961" points="209.403209,32.720217,184.558606,46.633726,210.917522,22.050484,210.997108,26.055505" />
<polygon fill="#004c6a" fill-opacity="0.501961" points="130.278621,56.832515,176.329317,72.822527,115.613703,59.480000,113.789110,74.408206" />
<polygon fill="#8f8183" fill-opacity="0.501961" points="264.347209,80.358586,239.725748,119.654147,271.000000,109.675361,234.163092,78.978712" />
<polygon fill="#b6f9ff" fill-opacity="0.501961" points="14.216540,74.594308,14.536025,68.968470,-11.657311,75.944472,-10.744843,69.868042" />
<polygon fill="#133c50" fill-opacity="0.501961" points="209.061631,93.851679,209.558620,95.817564,199.223122,106.159434,201.991832,90.573707" />
<polygon fill="#0076ab" fill-opacity="0.501961" points="102.656507,122.919553,151.670078,158.000000,119.834146,158.000000,133.635568,106.563530" />
<polygon fill="#349add" fill-opacity="0.501961" points="99.930176,52.270372,138.025062,68.523932,121.642100,53.612730,101.380650,50.797818" />
<polygon fill="#d449af" fill-opacity="0.501961" points="237.851365,50.152360,214.642312,56.414889,224.794855,51.370536,190.554629,40.410434" />
<polygon fill="#11b5f5" fill-opacity="0.501961" points="58.900855,66.881384,41.138675,67.677634,49.455022,75.930587,64.254194,49.435044" />
<polygon fill="#0c050f" fill-opacity="0.501961" points="177.706670,52.921780,187.626557,53.604456,162.414772,46.076073,172.690664,62.898646" />
<polygon fill="#1f9dc6" fill-opacity="0.501961" points="141.430541,76.792035,123.899135,73.322450,114.397913,87.838024,163.297806,54.988553" />
<polygon fill="#0c1211" fill-opacity="0.501961" points="173.690593,119.339224,181.716884,118.039927,161.508206,106.648101,169.266342,109.206981" />
<polygon fill="#a2c6d2" fill-opacity="0.501961" points="61.574743,22.335712,63.176470,7.655225,41.617536,32.933970,83.398827,18.841459" />
<polygon fill="#c2e8f2" fill-opacity="0.501961" points="17.662019,44.278195,42.252817,26.355240,7.418719,60.920796,19.211484,53.793726" />
<polygon fill="#000004" fill-opacity="0.501961" points="137.514412,81.966133,147.859945,87.101972,151.191635,82.507676,123.302907,85.406408" />
<polygon fill="#141a19" fill-opacity="0.501961" points="250.501807,70.514303,252.590727,91.298703,240.344983,63.775954,271.000000,94.470895" />
<polygon fill="#2f5262" fill-opacity="0.501961" points="33.647043,62.898603,46.177149,51.195649,27.619752,61.824953,24.259146,45.975021" />
<polygon fill="#cfb3e2" fill-opacity="0.501961" points="165.934670,39.225356,156.412285,48.363511,145.342640,58.754745,157.543026,57.346564" />
<polygon fill="#263236" fill-opacity="0.501961" points="229.710559,62.243821,246.391739,73.714642,217.278474,59.369027,210.088536,65.356589" />
<polygon fill="#4b9db8" fill-opacity="0.501961" points="46.241747,123.676042,38.569646,124.713606,49.500685,133.965987,43.989447,158.000000" />
<polygon fill="#010400" fill-opacity="0.501961" points="96.145488,122.394644,91.750034,145.424215,94.245571,155.844251,91.079152,120.655116" />
<polygon fill="#add4db" fill-opacity="0.501961" points="154.372913,5.619176,169.849698,25.491449,169.978932,7.362391,173.885239,21.622139" />
<polygon fill="#0b1610" fill-opacity="0.501961" points="115.732999,4.771272,119.680552,22.451580,89.345128,-8.851977,115.391944,11.256445" />
<polygon fill="#7d9c9f" fill-opacity="0.501961" points="224.721972,-7.692198,213.629046,9.788359,208.782129,-16.000000,253.647832,31.193562" />
<polygon fill="#031f4e" fill-opacity="0.501961" points="64.191380,64.209187,70.784514,44.713347,108.163180,36.340480,88.090963,36.517987" />
<polygon fill="#2e98c4" fill-opacity="0.501961" points="25.102111,77.544109,2.325382,107.011779,20.778523,92.551771,25.395471,78.996416" />
<polygon fill="#6ca5c1" fill-opacity="0.501961" points="204.657208,118.725626,170.324761,110.385815,208.486107,121.712576,232.666965,98.173280" />
<polygon fill="#c7c9d5" fill-opacity="0.501961" points="246.283690,104.962737,242.096370,141.559920,244.360755,109.884688,262.115731,105.344549" />
<polygon fill="#101b1b" fill-opacity="0.501961" points="1.247919,39.895209,11.662640,41.870762,-13.864323,47.734049,3.862233,56.011047" />
<polygon fill="#171328" fill-opacity="0.501961" points="204.269649,59.552672,201.629998,47.270707,199.916223,44.723133,196.222596,54.471992" />
<polygon fill="#0098da" fill-opacity="0.501961" points="109.923400,111.113899,123.778144,99.643185,116.653621,123.693768,101.796862,53.927336" />
<polygon fill="#001e3e" fill-opacity="0.501961" points="85.147446,97.296911,99.599702,103.642989,106.890692,90.553433,84.663598,103.348426" />
<polygon fill="#cff7ff" fill-opacity="0.501961" points="229.517048,98.833997,223.456469,96.351784,225.888501,85.110748,221.164848,87.535200" />
<polygon fill="#089dd6" fill-opacity="0.501961" points="149.615005,83.467505,169.155808,69.038336,150.741914,91.861995,184.777733,92.710171" />
<polygon fill="#2e4040" fill-opacity="0.501961" points="28.740578,9.907909,17.015603,24.671201,24.076740,21.723949,34.502450,23.241612" />
<polygon fill="#dcfeff" fill-opacity="0.501961" points="14.147540,31.782280,5.889236,24.019803,-15.509302,34.808475,-16.000000,15.207574" />
<polygon fill="#6ca6b7" fill-opacity="0.501961" points="31.641914,29.681710,26.776869,-7.274256,42.825207,-16.000000,34.493985,36.306284" />
<polygon fill="#004c76" fill-opacity="0.501961" points="141.614538,69.795695,133.658521,80.397235,84.661051,78.670900,113.834838,86.537395" />
<polygon fill="#00c2f8" fill-opacity="0.501961" points="98.297000,81.926022,92.368176,95.056736,79.487869,94.832493,62.398858,93.056774" />
<polygon fill="#411d24" fill-opacity="0.501961" points="66.207074,44.257035,72.470332,33.923384,56.908977,24.847285,63.105120,42.079427" />
<polygon fill="#2a1a33" fill-opacity="0.501961" points="152.884086,42.329954,146.878346,23.176855,152.407453,32.400642,147.691107,45.378716" />
<polygon fill="#f285d7" fill-opacity="0.501961" points="123.114572,33.045221,128.621610,43.589612,124.810894,22.322956,150.506190,38.175683" />
<polygon fill="#5cedff" fill-opacity="0.501961" points="131.099846,74.947230,130.110792,74.008428,119.505066,73.480513,123.114890,79.238676" />
<polygon fill="#bb3ea0" fill-opacity="0.501961" points="198.217313,47.052115,230.949344,63.051624,196.226316,42.539069,183.696121,62.833415" />
<polygon fill="#00587c" fill-opacity="0.501961" points="147.237440,103.613812,149.715888,158.000000,142.718597,110.600220,146.557037,93.947119" />
<polygon fill="#423d39" fill-opacity="0.501961" points="239.265844,126.385579,227.254779,145.258196,223.763127,136.259910,236.027738,140.837021" />
<polygon fill="#8fc5ee" fill-opacity="0.501961" points="56.487284,42.785018,57.426321,18.388146,54.023811,43.395187,64.473760,53.663816" />
<polygon fill="#d1f0f5" fill-opacity="0.501961" points="200.544113,25.314909,187.595748,23.182842,203.247865,7.950201,191.695615,14.816326" />
<polygon fill="#212122" fill-opacity="0.501961" points="245.912513,98.268656,252.485909,99.217320,245.534843,88.511785,250.897824,83.862889" />
<polygon fill="#8ebfd4" fill-opacity="0.501961" points="156.362628,140.332669,166.121136,133.814991,174.107967,134.184430,176.086117,139.037473" />
<polygon fill="#00b5f5" fill-opacity="0.501961" points="95.725891,100.318267,101.596126,107.181835,103.191344,113.016981,67.275865,106.616254" />
<polygon fill="#af79ae" fill-opacity="0.501961" points="198.765966,40.342105,198.095981,28.350361,189.547066,43.831936,189.488955,23.892965" />
<polygon fill="#c3c6cc" fill-opacity="0.501961" points="230.945506,158.000000,240.892664,139.321618,226.585884,129.007235,245.711058,137.079591" />
<polygon fill="#159bcc" fill-opacity="0.501961" points="87.006660,75.674554,34.196213,75.067575,32.775869,93.433057,35.125073,82.423813" />
<polygon fill="#1c2521" fill-opacity="0.501961" points="244.887744,14.650604,236.747348,-3.120111,241.544644,4.883892,239.238415,25.660833" />
<polygon fill="#96b1d3" fill-opacity="0.501961" points="26.169803,57.103903,43.966679,52.406632,40.207862,74.154521,50.093341,44.393161" />
<polygon fill="#4c5dbc" fill-opacity="0.501961" points="107.583019,40.748186,99.272420,51.122611,93.152836,31.284952,111.245149,50.728542" />
<polygon fill="#79b9c2" fill-opacity="0.501961" points="11.602987,4.983938,27.696040,9.982036,14.609072,19.713832,23.672289,17.368995" />
<polygon fill="#003e64" fill-opacity="0.501961" points="158.966568,73.803903,169.918762,88.559720,168.528295,53.099844,173.797301,75.760910" />
<polygon fill="#091214" fill-opacity="0.501961" points="164.707224,6.626114,171.442985,-8.553220,160.539646,7.576490,169.826333,16.240811" />
<polygon fill="#7acaea" fill-opacity="0.501961" points="31.256642,71.630707,47.466664,50.763801,42.389473,67.869775,22.151680,58.756480" />
<polygon fill="#09c0f8" fill-opacity="0.501961" points="73.849163,66.170678,105.235704,79.727318,79.257135,75.740425,83.920153,55.164455" />
<polygon fill="#006fa2" fill-opacity="0.501961" points="205.985264,77.392814,191.699548,79.106319,173.538850,90.728499,190.095637,94.123829" />
<polygon fill="#b7c9d5" fill-opacity="0.501961" points="253.533622,46.854092,226.598675,84.267679,245.150344,52.483042,271.000000,86.903762" />
<polygon fill="#004975" fill-opacity="0.501961" points="57.478442,66.171796,36.569569,82.752831,15.536653,105.383832,57.999096,71.213169" />
<polygon fill="#0b180e" fill-opacity="0.501961" points="63.145721,18.630985,71.212111,8.011902,70.129090,20.150235,68.931595,21.466474" />
<polygon fill="#00bbf7" fill-opacity="0.501961" points="88.148060,104.403910,95.772744,77.752480,92.131557,56.966398,102.607415,76.684207" />
<polygon fill="#03ace8" fill-opacity="0.501961" points="173.729375,78.838380,164.014510,86.111557,180.277943,77.339499,147.687088,66.138215" />
<polygon fill="#2e4956" fill-opacity="0.501961" points="183.746011,134.996502,169.056848,158.000000,168.627199,124.888823,163.559792,147.575373" />
<polygon fill="#181e33" fill-opacity="0.501961" points="54.577919,77.876410,49.390104,51.519608,43.034145,63.396158,55.696782,69.079478" />
<polygon fill="#89cae3" fill-opacity="0.501961" points="199.415667,83.167289,213.454220,90.802386,221.699942,114.376389,213.777163,99.469320" />
<polygon fill="#314c53" fill-opacity="0.501961" points="4.049080,51.831831,16.964772,51.801292,8.977980,45.851169,20.115440,42.081408" />
<polygon fill="#131411" fill-opacity="0.501961" points="247.267348,23.994599,256.968715,14.387892,253.556563,5.649180,271.000000,11.799125" />
<polygon fill="#0a3e5b" fill-opacity="0.501961" points="145.981440,74.531346,153.426480,57.779057,128.042949,68.997820,154.863323,68.697290" />
<polygon fill="#6a9bb0" fill-opacity="0.501961" points="171.538062,97.595795,189.658776,95.868628,185.222478,124.670622,183.347043,100.547774" />
<polygon fill="#ed61c8" fill-opacity="0.501961" points="155.182376,39.221008,156.474321,51.808876,150.718316,36.496001,162.789778,26.474391" />
<polygon fill="#bed2d5" fill-opacity="0.501961" points="243.340465,11.095920,234.747258,22.873573,230.666220,38.834366,218.513666,31.899961" />
<polygon fill="#a6bbd8" fill-opacity="0.501961" points="155.856312,0.762905,128.980483,14.943041,125.678541,62.126801,127.853427,11.073083" />
<polygon fill="#4c153d" fill-opacity="0.501961" points="212.563595,42.796875,204.702406,42.962185,201.076052,25.178701,207.138930,38.977510" />
<polygon fill="#24221e" fill-opacity="0.501961" points="222.187273,124.210966,226.965605,113.564205,230.655708,128.774227,223.655608,131.528452" />
<polygon fill="#04b5ee" fill-opacity="0.501961" points="72.202534,89.846730,59.757555,101.196137,36.878972,119.074968,59.702483,105.896837" />
<polygon fill="#9baebd" fill-opacity="0.501961" points="226.614828,129.735110,231.241455,122.312273,215.100960,138.865568,218.494451,126.546821" />
<polygon fill="#00090e" fill-opacity="0.501961" points="53.249129,115.339853,48.025953,114.045194,50.847673,129.549706,59.959640,134.958701" />
<polygon fill="#170110" fill-opacity="0.501961" points="219.165571,53.192363,209.256545,55.218625,209.894197,59.805689,218.640263,48.365786" />
<polygon fill="#44534e" fill-opacity="0.501961" points="183.902213,4.297642,176.598284,-7.142043,197.420428,11.140781,200.992826,3.338321" />
<polygon fill="#0f2b33" fill-opacity="0.501961" points="192.742082,102.898191,154.973960,108.632334,153.104103,115.409958,175.218333,102.293977" />
<polygon fill="#002231" fill-opacity="0.501961" points="79.820217,130.150860,73.937032,112.876812,67.710702,119.084771,63.010456,103.059818" />
<polygon fill="#003950" fill-opacity="0.501961" points="121.791486,52.434505,144.380428,70.647578,131.485931,47.941827,121.109288,64.358521" />
<polygon fill="#002a31" fill-opacity="0.501961" points="110.168155,152.116157,109.655777,133.172028,122.941168,158.000000,121.379763,138.906792" />
<polygon fill="#92afb6" fill-opacity="0.501961" points="219.050010,14.797933,201.906665,-16.000000,181.762620,9.641932,216.811493,-5.411953" />
<polygon fill="#21525d" fill-opacity="0.501961" points="27.309775,14.179009,60.947250,11.758560,53.560513,16.571713,49.032540,4.909000" />
<polygon fill="#001326" fill-opacity="0.501961" points="134.691074,77.640751,129.207413,93.355735,125.376854,77.320735,147.101623,83.313017" />
<polygon fill="#1e3939" fill-opacity="0.501961" points="172.142478,11.757623,171.647015,5.132166,176.333112,7.419780,180.057369,21.201768" />
<polygon fill="#001b2a" fill-opacity="0.501961" points="196.967256,71.882549,193.069034,66.801728,183.523898,78.598636,182.667024,81.315442" />
<polygon fill="#000904" fill-opacity="0.501961" points="16.798191,88.248146,9.997399,78.000809,16.602057,82.385691,12.229297,88.234563" />
<polygon fill="#59b3cf" fill-opacity="0.501961" points="27.282768,130.014925,37.183549,122.118766,18.311610,128.105393,-16.000000,93.420666" />
<polygon fill="#002e55" fill-opacity="0.501961" points="9.538104,120.260889,32.150105,106.056284,33.409041,114.313906,16.773946,110.464877" />
<polygon fill="#d0e6f3" fill-opacity="0.501961" points="245.225699,35.710022,260.255111,56.117323,246.378296,32.003494,249.366352,31.325482" />
<polygon fill="#0e1212" fill-opacity="0.501961" points="52.440679,42.747768,35.669418,43.980427,37.270115,50.650560,49.805529,37.703526" />
<polygon fill="#639ea8" fill-opacity="0.501961" points="95.656760,4.348647,71.128534,2.163304,107.417480,10.020740,110.537422,21.330144" />
<polygon fill="#0a292f" fill-opacity="0.501961" points="55.555574,154.692652,48.467976,140.446024,95.450291,150.705321,66.679566,137.653327" />
<polygon fill="#210f1f" fill-opacity="0.501961" points="249.675266,43.494629,240.159854,59.128301,229.381037,53.141637,248.505771,51.482094" />
<polygon fill="#0e2821" fill-opacity="0.501961" points="188.152593,33.233083,177.268919,21.724512,176.846956,28.344255,172.458182,24.901285" />
<polygon fill="#0092d4" fill-opacity="0.501961" points="141.222260,102.982523,135.485384,85.836926,129.860232,88.236048,135.686743,103.587317" />
<polygon fill="#a99ff7" fill-opacity="0.501961" points="120.162974,53.415603,118.706810,31.420577,123.824914,47.687542,130.018087,49.640870" />
<polygon fill="#001f28" fill-opacity="0.501961" points="89.467778,15.973012,101.254169,19.340051,98.323842,32.656874,97.992640,3.113057" />
<polygon fill="#7c205b" fill-opacity="0.501961" points="190.658644,48.324853,169.831187,53.859605,176.705971,37.329880,155.452520,30.655552" />
<polygon fill="#1c3538" fill-opacity="0.501961" points="16.033155,63.262020,18.376178,73.881682,18.078822,60.576023,-0.572987,55.588600" />
<polygon fill="#8edefb" fill-opacity="0.501961" points="63.799200,76.372551,72.988771,73.557712,59.516837,69.263110,79.534561,77.350084" />
<polygon fill="#3c4855" fill-opacity="0.501961" points="130.668744,13.516415,139.012209,10.292767,136.394825,26.843077,131.511098,29.253206" />
<polygon fill="#6bb8e9" fill-opacity="0.501961" points="73.632593,33.240250,68.367386,29.935539,96.024746,34.710588,81.288731,36.587923" />
<polygon fill="#e0e9f3" fill-opacity="0.501961" points="245.573356,130.188448,254.754178,116.754091,253.079528,113.429889,251.005695,112.179041" />
<polygon fill="#93a6b1" fill-opacity="0.501961" points="187.076554,29.226797,233.181408,12.852172,228.839655,17.055888,180.185145,33.867110" />
<polygon fill="#a1def3" fill-opacity="0.501961" points="171.043279,118.506368,160.897408,127.527146,156.015901,114.564961,171.840243,124.578463" />
<polygon fill="#201018" fill-opacity="0.501961" points="118.840395,31.759087,111.655422,30.093909,108.077263,29.634589,112.121160,22.236727" />
<polygon fill="#00100f" fill-opacity="0.501961" points="152.984902,18.019970,161.917689,20.490268,147.692719,24.490234,152.284992,19.321106" />
<polygon fill="#95c0ca" fill-opacity="0.501961" points="209.456987,8.011186,225.559232,-13.046259,228.689863,0.227139,204.625284,6.312962" />
<polygon fill="#3edcff" fill-opacity="0.501961" points="203.674875,91.924865,213.754607,86.004414,206.826216,76.291421,195.577052,95.020142" />
<polygon fill="#1d282a" fill-opacity="0.501961" points="219.982497,1.150279,235.060535,9.043860,244.620570,9.165336,224.344860,14.140460" />
<polygon fill="#afaacb" fill-opacity="0.501961" points="167.116714,27.423090,173.084354,34.799480,174.344063,34.835720,133.167806,29.220433" />
<polygon fill="#151922" fill-opacity="0.501961" points="253.252320,42.649195,271.000000,32.930248,271.000000,53.388881,271.000000,64.068348" />
<polygon fill="#0059ae" fill-opacity="0.501961" points="68.098589,43.227023,99.074241,54.957744,80.187420,31.686596,83.857708,61.327140" />
<polygon fill="#002842" fill-opacity="0.501961" points="84.834792,57.473258,61.151319,62.878153,71.824677,47.777963,67.086196,64.941188" />
<polygon fill="#e1ebf2" fill-opacity="0.501961" points="253.718244,36.588877,271.000000,41.332024,245.600322,53.094056,271.000000,82.892235" />
<polygon fill="#9dced2" fill-opacity="0.501961" points="91.262411,3.356752,76.091603,4.616198,72.701376,13.078470,123.166812,-16.000000" />
<polygon fill="#99bbc8" fill-opacity="0.501961" points="18.187029,19.393177,48.158554,51.121676,20.077029,17.913689,3.815319,10.402282" />
<polygon fill="#181f21" fill-opacity="0.501961" points="219.453475,83.454068,206.395102,63.283592,213.060007,66.851710,210.438916,73.058157" />
<polygon fill="#b4bec5" fill-opacity="0.501961" points="248.009334,80.636834,249.746521,91.800243,271.000000,103.724514,246.373631,86.110115" />
<polygon fill="#2a3139" fill-opacity="0.501961" points="219.085570,36.640044,218.610276,33.221615,223.698832,38.683713,222.512472,31.766066" />
<polygon fill="#68b9d9" fill-opacity="0.501961" points="200.753966,82.120935,197.008715,74.163664,209.686444,72.673190,200.694972,59.289581" />
<polygon fill="#6f7682" fill-opacity="0.501961" points="47.969434,29.750466,66.312557,41.091261,50.612864,21.970137,72.406632,29.358870" />
<polygon fill="#466e7b" fill-opacity="0.501961" points="18.420672,36.938919,26.607977,53.022514,16.960041,26.504841,23.035700,-0.163314" />
<polygon fill="#3a1548" fill-opacity="0.501961" points="107.096819,44.991382,91.862682,30.254162,106.299303,36.005909,99.876497,51.794127" />
<polygon fill="#002243" fill-opacity="0.501961" points="131.431356,98.866580,118.798493,76.104489,112.309186,76.725579,131.129185,91.709951" />
<polygon fill="#0ba3e3" fill-opacity="0.501961" points="159.214417,53.813638,155.076957,64.465572,149.922008,80.276998,142.996138,81.049361" />
<polygon fill="#224542" fill-opacity="0.501961" points="76.144831,17.111879,95.957677,7.167585,86.438816,7.555463,74.338803,12.044747" />
<polygon fill="#022223" fill-opacity="0.501961" points="-7.861760,-16.000000,23.726165,9.026855,30.465728,-16.000000,11.424253,6.137212" />
<polygon fill="#1b4e64" fill-opacity="0.501961" points="22.956087,95.363831,12.200652,102.914940,-0.639125,95.730719,1.896337,100.591856" />
<polygon fill="#8fc9e0" fill-opacity="0.501961" points="193.405543,121.191907,199.459783,118.138613,197.735372,112.623774,195.838515,103.036775" />
<polygon fill="#000000" fill-opacity="0.501961" points="186.522029,139.501493,184.928513,135.962737,187.751118,132.172261,191.233233,133.531876" />
<polygon fill="#8fa0af" fill-opacity="0.501961" points="224.452072,69.110988,212.727316,67.548746,225.667281,63.492176,239.571006,73.865046" />
<polygon fill="#00b1f5" fill-opacity="0.501961" points="27.712142,95.441112,44.857910,91.717610,32.272699,89.420725,46.915761,119.025899" />
<polygon fill="#00213f" fill-opacity="0.501961" points="47.965156,107.016567,52.394547,77.726361,44.772555,112.014827,35.682181,91.939845" />
<polygon fill="#00aceb" fill-opacity="0.501961" points="85.798643,77.117221,116.095462,96.583608,105.208217,106.245926,109.578988,89.478146" />
<polygon fill="#b35a9f" fill-opacity="0.501961" points="235.356872,62.858598,237.774365,43.364972,233.811326,57.554843,205.159880,58.687329" />
<polygon fill="#66c4d9" fill-opacity="0.501961" points="116.705185,137.860901,96.334873,119.540460,98.156924,115.216799,81.933471,112.069352" />
<polygon fill="#8ec3d0" fill-opacity="0.501961" points="4.581983,45.392073,2.568460,47.258883,9.844662,75.789477,6.520584,51.433454" />
<polygon fill="#4fb3d0" fill-opacity="0.501961" points="63.793400,112.572168,57.240060,158.000000,63.583085,136.304593,54.244755,113.428046" />
<polygon fill="#001a3d" fill-opacity="0.501961" points="167.271010,85.864240,165.777473,82.622908,179.477039,83.798826,178.073012,86.938108" />
<polygon fill="#7ba4b2" fill-opacity="0.501961" points="151.127055,20.566200,151.052384,-2.511052,137.573615,22.843555,167.290138,-5.306981" />
<polygon fill="#00417d" fill-opacity="0.501961" points="107.249727,108.169992,100.228139,107.238256,111.791442,122.353405,113.832633,121.913058" />
<polygon fill="#00649d" fill-opacity="0.501961" points="100.745264,76.431482,76.598029,82.937553,66.199861,124.612869,73.346481,92.702149" />
<polygon fill="#5d7678" fill-opacity="0.501961" points="223.043549,19.175031,216.746718,5.982576,206.692604,7.135510,257.954930,32.018459" />
<polygon fill="#00132a" fill-opacity="0.501961" points="109.656909,107.464954,117.261820,96.302528,122.635362,93.995618,121.441391,103.215785" />
<polygon fill="#6fbeca" fill-opacity="0.501961" points="52.061698,7.782578,68.038958,7.812421,62.266817,-13.967540,64.656908,18.662705" />
<polygon fill="#6d94a5" fill-opacity="0.501961" points="204.574325,124.333579,179.638925,133.732415,207.440727,125.504695,194.318843,140.642721" />
<polygon fill="#e64abe" fill-opacity="0.501961" points="195.094468,58.070055,197.845300,57.877295,187.277714,33.580305,187.252131,40.018795" />
<polygon fill="#96d9ee" fill-opacity="0.501961" points="9.451922,105.114985,8.581477,122.397425,0.484200,75.064630,0.424589,68.346150" />
<polygon fill="#12365c" fill-opacity="0.501961" points="58.159089,57.094536,63.690341,52.012988,45.750805,49.383494,52.353532,44.755294" />
<polygon fill="#304747" fill-opacity="0.501961" points="222.595307,28.985568,223.809711,10.536096,225.857907,23.001800,215.832914,30.886483" />
<polygon fill="#0096d1" fill-opacity="0.501961" points="131.230655,141.532094,143.476523,131.625205,135.466082,108.983001,148.026513,121.886239" />
<polygon fill="#a9b8c3" fill-opacity="0.501961" points="215.073480,110.667329,243.383228,105.920497,235.302855,103.950355,223.249928,112.939739" />
<polygon fill="#4d2a56" fill-opacity="0.501961" points="141.651968,52.401684,138.383876,36.834155,138.694594,54.464002,113.233080,39.754096" />
<polygon fill="#1f4051" fill-opacity="0.501961" points="160.768611,120.050249,165.941065,121.477285,181.191468,86.062647,185.689542,86.616410" />
<polygon fill="#aeced9" fill-opacity="0.501961" points="67.159222,25.403581,53.794501,16.477189,45.754293,42.818531,48.499436,21.174902" />
<polygon fill="#b3dbec" fill-opacity="0.501961" points="7.340061,29.655778,21.344890,43.645578,0.322087,38.063105,23.533996,27.740166" />
<polygon fill="#33b3e6" fill-opacity="0.501961" points="123.923486,76.214337,116.898938,50.781499,119.958798,71.937422,108.976609,75.843039" />
<polygon fill="#99cad4" fill-opacity="0.501961" points="76.244624,6.685479,83.244612,12.420381,80.121032,-7.989688,77.366664,0.264668" />
<polygon fill="#b84999" fill-opacity="0.501961" points="155.457899,36.289489,155.916563,46.997818,169.489003,42.390960,158.953614,26.291544" />
<polygon fill="#000000" fill-opacity="0.501961" points="172.886115,-16.000000,151.924826,6.755203,154.709650,2.070305,158.399212,3.310298" />
<polygon fill="#41839a" fill-opacity="0.501961" points="20.218700,122.271382,30.389342,136.364932,3.277626,144.217642,25.843722,149.081559" />
<polygon fill="#9fafb0" fill-opacity="0.501961" points="253.843901,15.713344,248.848568,12.883519,240.929889,21.344014,211.884566,34.310822" />
<polygon fill="#002844" fill-opacity="0.501961" points="18.472322,102.268931,25.209661,76.926134,13.876883,76.300710,27.679793,87.003521" />
<polygon fill="#00b5f8" fill-opacity="0.501961" points="60.582711,62.188642,66.538032,52.015204,49.935056,59.185717,55.489881,64.879711" />
<polygon fill="#d1dfe7" fill-opacity="0.501961" points="232.204435,23.580011,219.316910,24.741264,244.151065,51.030894,221.006735,33.221492" />
<polygon fill="#000000" fill-opacity="0.501961" points="239.847152,102.191704,237.189435,104.215432,233.047081,98.621383,236.063634,95.452515" />
<polygon fill="#7fc1d2" fill-opacity="0.501961" points="77.737335,25.224260,84.880764,11.066023,66.256498,28.697771,71.976005,18.800777" />
<polygon fill="#004d7f" fill-opacity="0.501961" points="78.754914,84.831450,80.894980,88.237971,84.324412,64.093036,90.330033,60.741811" />
<polygon fill="#313339" fill-opacity="0.501961" points="252.190315,106.875228,259.819090,128.880820,271.000000,122.354113,249.826339,109.968644" />
<polygon fill="#0f0a05" fill-opacity="0.501961" points="227.824455,70.126938,231.670191,75.374690,228.149794,75.220317,220.995894,73.521845" />
<polygon fill="#566569" fill-opacity="0.501961" points="1.162331,27.020563,6.668378,30.383721,9.531163,18.578374,22.106160,27.744066" />
<polygon fill="#a6b9c5" fill-opacity="0.501961" points="56.476725,44.364129,59.279870,33.570717,31.048661,30.752546,45.196597,29.337719" />
<polygon fill="#000000" fill-opacity="0.501961" points="88.990867,7.807796,85.507247,14.513156,83.566819,7.044790,93.851107,7.112409" />
<polygon fill="#000816" fill-opacity="0.501961" points="38.168648,63.188565,33.191059,62.293375,33.232305,61.796798,39.592282,55.205870" />
<polygon fill="#322229" fill-opacity="0.501961" points="72.463700,23.706154,75.476109,33.636320,71.441138,27.744310,56.280007,43.123019" />
<polygon fill="#b3b9da" fill-opacity="0.501961" points="26.464196,28.841800,54.815140,59.330466,42.291156,52.345651,40.707193,38.631626" />
<polygon fill="#0d0600" fill-opacity="0.501961" points="246.131667,138.548757,258.326850,150.844458,256.412152,155.326581,229.656570,158.000000" />
<polygon fill="#d85cb5" fill-opacity="0.501961" points="125.128398,41.709346,125.037754,34.420243,110.381908,45.163153,120.636342,29.281586" />
<polygon fill="#d0e0eb" fill-opacity="0.501961" points="213.120654,24.103762,207.967497,36.994182,226.769104,30.308709,231.190841,43.672798" />
<polygon fill="#00547a" fill-opacity="0.501961" points="142.807485,138.675037,125.755119,117.465464,128.683289,115.466571,111.783675,131.211089" />
<polygon fill="#072a35" fill-opacity="0.501961" points="91.819683,139.843615,89.392373,146.786454,60.436547,138.404046,69.325843,154.302338" />
<polygon fill="#20363f" fill-opacity="0.501961" points="193.425010,125.445610,212.573011,107.039742,204.234916,121.370765,222.355402,117.897817" />
<polygon fill="#234950" fill-opacity="0.501961" points="3.936644,70.018928,-16.000000,57.793917,6.040129,61.089557,-16.000000,77.917749" />
<polygon fill="#003f7b" fill-opacity="0.501961" points="75.314591,98.281049,86.581142,99.400401,71.668332,93.976373,67.630592,117.215542" />
<polygon fill="#25363f" fill-opacity="0.501961" points="237.776305,80.083468,271.000000,59.060324,244.591953,72.571976,220.133825,85.659596" />
<polygon fill="#93c9d1" fill-opacity="0.501961" points="177.786871,22.132033,186.632190,12.909450,180.307206,25.246600,190.145370,26.117389" />
<polygon fill="#0b91c1" fill-opacity="0.501961" points="125.169903,128.949784,115.452660,143.994917,124.035988,112.865865,95.990208,135.383507" />
<polygon fill="#47a5c8" fill-opacity="0.501961" points="7.751534,87.646376,25.154385,90.041188,11.165758,98.978079,15.833221,103.514339" />
<polygon fill="#0091d3" fill-opacity="0.501961" points="46.284546,99.305148,81.862475,117.161737,65.957053,102.921423,78.026566,99.228045" />
<polygon fill="#a985ae" fill-opacity="0.501961" points="208.264865,61.062602,230.199149,49.606382,212.127261,62.755661,231.717994,89.579050" />
<polygon fill="#1f4046" fill-opacity="0.501961" points="136.554747,29.050559,139.552139,25.702140,128.953725,18.083159,130.473343,25.729938" />
<polygon fill="#003152" fill-opacity="0.501961" points="101.073880,87.189246,122.877251,57.150539,121.900648,64.052726,107.213389,78.863008" />
<polygon fill="#0e0519" fill-opacity="0.501961" points="115.773708,45.086377,117.871605,51.894993,111.313227,50.393531,111.156098,42.909206" />
<polygon fill="#0c1812" fill-opacity="0.501961" points="240.092291,35.968517,238.657853,35.689142,246.549324,32.436509,242.019611,28.984410" />
<polygon fill="#000025" fill-opacity="0.501961" points="95.581393,57.151687,94.046034,44.689687,97.474534,42.287116,97.562043,45.919978" />
<polygon fill="#b5bec5" fill-opacity="0.501961" points="270.893355,9.819192,236.290870,-4.909270,225.383760,47.371877,241.778773,-14.315576" />
<polygon fill="#bd48a0" fill-opacity="0.501961" points="139.557745,58.185781,143.171516,32.228705,146.757299,37.886198,140.256382,61.532033" />
<polygon fill="#278ec1" fill-opacity="0.501961" points="199.130179,65.531120,204.000689,77.721450,183.888749,56.678323,183.276818,65.069214" />
<polygon fill="#aa3879" fill-opacity="0.501961" points="64.223163,45.639071,55.024051,44.025253,57.803883,41.106302,62.080208,41.856495" />
<polygon fill="#69ccf4" fill-opacity="0.501961" points="124.963976,137.200026,151.594669,158.000000,159.206153,158.000000,141.538477,139.558024" />
<polygon fill="#000200" fill-opacity="0.501961" points="187.055077,14.991149,183.241817,26.079151,190.858170,14.580137,187.732075,14.908657" />
<polygon fill="#00182a" fill-opacity="0.501961" points="137.578412,125.257698,133.234897,130.051426,132.152258,120.349642,141.844737,121.678750" />
<polygon fill="#000502" fill-opacity="0.501961" points="94.937907,131.656811,93.128187,127.697789,84.357933,130.080532,79.540889,132.301190" />
<polygon fill="#3eb6f3" fill-opacity="0.501961" points="111.515731,70.494271,115.832528,72.328021,110.245938,51.497189,106.413444,42.143857" />
<polygon fill="#71bbe8" fill-opacity="0.501961" points="158.962723,55.493893,161.501495,68.755849,163.764030,58.990462,157.062064,49.416780" />
<polygon fill="#2e122a" fill-opacity="0.501961" points="214.620605,54.332718,195.334517,50.750343,217.457992,59.375748,217.988242,46.260304" />
<polygon fill="#000e13" fill-opacity="0.501961" points="24.989063,46.156558,29.151437,43.235925,27.485717,55.538913,27.657287,52.532081" />
<polygon fill="#6ea1b9" fill-opacity="0.501961" points="196.124825,127.465534,180.299724,118.645320,209.820846,126.179180,208.937010,125.312255" />
<polygon fill="#00182b" fill-opacity="0.501961" points="155.885146,63.595061,171.246167,73.296973,171.510182,71.352339,155.473489,67.828022" />
<polygon fill="#b2b7c3" fill-opacity="0.501961" points="254.618809,141.576472,242.499658,104.191644,245.276079,128.367218,247.895572,127.952043" />
<polygon fill="#1e3233" fill-opacity="0.501961" points="114.389230,8.520097,121.397216,24.134824,127.530479,32.026033,123.253420,32.559379" />
<polygon fill="#250217" fill-opacity="0.501961" points="194.722097,40.562296,194.942738,35.696565,186.929970,54.516379,182.260881,52.690115" />
<polygon fill="#6b797c" fill-opacity="0.501961" points="230.797458,32.479217,238.287757,26.807021,245.004911,4.514055,234.799364,38.657716" />
<polygon fill="#5a606c" fill-opacity="0.501961" points="247.062395,58.853068,241.259793,64.805688,236.663382,59.787587,255.459028,64.160482" />
<polygon fill="#004663" fill-opacity="0.501961" points="34.959111,72.156661,47.486386,61.729160,18.212137,77.987858,33.342503,76.786222" />
<polygon fill="#000608" fill-opacity="0.501961" points="28.289110,18.552545,28.832942,10.636341,23.769891,16.840933,30.900312,22.627568" />
<polygon fill="#02a3c4" fill-opacity="0.501961" points="95.640108,17.584975,94.386478,20.574152,95.010430,26.767133,82.782622,24.362329" />
<polygon fill="#9dcfda" fill-opacity="0.501961" points="135.942962,18.973224,143.842374,14.990263,118.140506,-7.218202,151.697501,22.645068" />
<polygon fill="#000710" fill-opacity="0.501961" points="118.175437,63.192273,116.595949,62.825306,115.393285,68.574423,119.228850,72.759874" />
<polygon fill="#4aaacc" fill-opacity="0.501961" points="156.313610,117.088621,138.213385,103.035337,160.906885,128.702245,146.438056,130.916616" />
<polygon fill="#031b25" fill-opacity="0.501961" points="20.144944,136.624285,43.349939,158.000000,56.424589,136.777688,57.492925,147.771330" />
<polygon fill="#dbeff3" fill-opacity="0.501961" points="187.023543,11.593823,194.939803,9.625237,192.590284,24.029601,200.297840,27.799750" />
<polygon fill="#003d5a" fill-opacity="0.501961" points="131.816033,72.401111,123.220702,72.782825,128.065643,64.102062,141.917520,82.461637" />
<polygon fill="#3b4f51" fill-opacity="0.501961" points="235.616487,38.730970,271.000000,54.807566,255.798836,46.971384,243.768565,53.214666" />
<polygon fill="#317c9e" fill-opacity="0.501961" points="24.068284,130.791109,6.673432,134.870230,4.125233,132.715154,5.227050,115.103511" />
<polygon fill="#121f23" fill-opacity="0.501961" points="181.992369,122.470495,189.045381,131.996758,180.160872,116.356992,163.332229,106.526504" />
<polygon fill="#051414" fill-opacity="0.501961" points="55.946210,5.207745,54.760390,0.626658,34.522288,-16.000000,79.617311,-14.539793" />
<polygon fill="#fe76df" fill-opacity="0.501961" points="206.150602,44.483630,220.731085,41.824824,225.755918,46.674170,212.816616,48.613510" />
<polygon fill="#67adcf" fill-opacity="0.501961" points="189.570535,109.152851,192.077158,109.729107,187.589128,98.053320,180.080124,123.892462" />
<polygon fill="#000000" fill-opacity="0.501961" points="144.767375,158.000000,165.104651,139.491673,166.969129,155.154487,157.158959,142.358585" />
<polygon fill="#3e4a4f" fill-opacity="0.501961" points="233.563315,87.450124,252.484492,75.207153,234.529081,89.163009,223.924736,80.952907" />
<polygon fill="#546670" fill-opacity="0.501961" points="31.280731,32.012077,35.435831,30.117704,35.163733,22.210152,35.313960,20.249701" />
<polygon fill="#a0c7d7" fill-opacity="0.501961" points="239.306981,82.876296,221.359734,93.497627,231.366587,78.586564,220.475117,80.338207" />
<polygon fill="#061014" fill-opacity="0.501961" points="105.009787,93.538023,97.621522,97.786205,95.393356,97.869500,101.361469,104.005941" />
<polygon fill="#273132" fill-opacity="0.501961" points="237.602011,4.341826,271.000000,45.345951,240.112368,10.467363,227.755268,-2.559650" />
<polygon fill="#6f7bb3" fill-opacity="0.501961" points="77.306491,46.006338,82.521934,34.822570,67.194458,41.110645,70.791057,37.480946" />
<polygon fill="#9fdbed" fill-opacity="0.501961" points="44.297933,51.685440,23.085971,59.090520,28.005389,54.071336,37.357957,51.104118" />
<polygon fill="#1c2a26" fill-opacity="0.501961" points="214.010690,14.337877,201.402017,2.772053,194.893740,11.019206,195.679460,2.087017" />
<polygon fill="#b1d0dd" fill-opacity="0.501961" points="35.520604,23.147534,-6.790732,26.624250,3.392998,23.352238,23.923310,26.789058" />
<polygon fill="#628e94" fill-opacity="0.501961" points="103.642612,18.930680,98.890707,32.837193,112.156069,23.908278,137.691436,24.514089" />
<polygon fill="#35393b" fill-opacity="0.501961" points="231.557334,106.116400,232.714046,117.969005,245.999060,122.224814,239.309021,119.592818" />
<polygon fill="#00a0e0" fill-opacity="0.501961" points="37.559483,78.922762,44.138375,95.111233,41.993422,99.581431,42.898513,82.335145" />
<polygon fill="#101918" fill-opacity="0.501961" points="5.557228,21.918780,18.593987,-10.158600,8.646506,-16.000000,11.769178,27.498631" />
<polygon fill="#749aac" fill-opacity="0.501961" points="195.164132,142.225473,197.835230,133.595051,215.154550,149.579241,190.321370,136.626724" />
<polygon fill="#3a444e" fill-opacity="0.501961" points="222.320250,37.196401,217.414167,36.244428,217.705644,32.814466,224.891449,33.811594" />
<polygon fill="#4a193b" fill-opacity="0.501961" points="171.378520,33.584518,177.793592,35.932368,165.756053,45.031906,167.632255,53.845918" />
<polygon fill="#002e4b" fill-opacity="0.501961" points="162.639993,94.009790,160.254482,98.931749,145.802620,84.046211,150.519176,91.269300" />
<polygon fill="#c9edf5" fill-opacity="0.501961" points="31.302383,39.255024,45.536089,38.950195,33.351277,42.982547,29.528517,25.467357" />
<polygon fill="#3fbce7" fill-opacity="0.501961" points="24.419817,111.206333,21.949454,123.384363,13.879998,127.074817,21.956579,108.974510" />
<polygon fill="#a4a9b2" fill-opacity="0.501961" points="228.569292,118.491092,233.697930,87.330543,231.660686,105.826691,233.318155,125.995751" />
<polygon fill="#0f333d" fill-opacity="0.501961" points="29.191470,139.624020,40.847364,133.380110,19.475170,122.948010,27.854485,121.561110" />
<polygon fill="#1f414f" fill-opacity="0.501961" points="212.206866,111.664366,191.421107,106.986019,190.662894,93.949719,197.642380,114.152550" />
<polygon fill="#649ca6" fill-opacity="0.501961" points="92.135936,2.656333,99.872567,-16.000000,91.794349,11.597601,86.167101,16.285767" />
<polygon fill="#1dbaea" fill-opacity="0.501961" points="143.357558,71.113783,125.368079,77.765831,136.927267,73.066126,142.042550,81.032950" />
<polygon fill="#c3d1da" fill-opacity="0.501961" points="271.000000,35.411210,252.450966,61.724669,241.064001,51.215538,271.000000,52.883975" />
<polygon fill="#0fa7df" fill-opacity="0.501961" points="168.567358,88.333023,151.316468,64.849009,164.479496,86.673530,135.701932,100.212137" />
<polygon fill="#ff9ae8" fill-opacity="0.501961" points="126.156900,37.054724,125.520931,24.771489,137.489202,39.029467,123.895060,44.997334" />
<polygon fill="#2f0c1c" fill-opacity="0.501961" points="92.309282,32.219383,99.395334,29.089846,100.187191,42.300736,106.581059,34.306751" />
<polygon fill="#005176" fill-opacity="0.501961" points="141.888941,111.869968,113.952832,128.035523,133.433802,112.458350,153.249145,119.605529" />
<polygon fill="#002945" fill-opacity="0.501961" points="140.970104,84.716750,148.420393,86.160576,154.094528,70.614074,163.520019,73.593741" />
<polygon fill="#1f3e48" fill-opacity="0.501961" points="134.172336,5.092078,132.352923,3.715170,132.708168,-6.349761,136.100645,4.756342" />
<polygon fill="#c27fb7" fill-opacity="0.501961" points="178.253571,47.497039,177.168785,51.941125,178.792519,35.160295,170.589754,22.223688" />
<polygon fill="#00232d" fill-opacity="0.501961" points="78.783466,117.215922,88.800522,126.710139,65.111070,109.188666,64.927922,118.391724" />
<polygon fill="#97bec5" fill-opacity="0.501961" points="217.133645,40.767741,209.677163,13.757011,193.916392,8.919958,208.008344,17.123534" />
<polygon fill="#1076ae" fill-opacity="0.501961" points="194.673304,56.828833,175.211060,66.545749,164.708781,69.825975,171.280383,62.729553" />
<polygon fill="#023246" fill-opacity="0.501961" points="33.675392,89.553509,14.346624,85.598500,1.334550,87.264134,40.816089,84.502884" />
<polygon fill="#00547c" fill-opacity="0.501961" points="62.968557,102.328694,29.607132,133.194350,65.670531,105.360250,46.125210,75.413407" />
<polygon fill="#bcbfc6" fill-opacity="0.501961" points="226.750558,136.709319,243.944243,121.174110,225.353324,132.543034,234.260666,158.000000" />
<polygon fill="#9ba3e1" fill-opacity="0.501961" points="121.771459,51.547199,115.093656,44.968887,129.757308,48.839894,126.871272,52.872988" />
<polygon fill="#151d1b" fill-opacity="0.501961" points="53.662492,41.907939,49.767631,35.339132,37.052175,34.225243,40.476709,30.933000" />
<polygon fill="#531843" fill-opacity="0.501961" points="136.614407,40.676729,141.315978,36.311044,150.873849,46.365780,150.208666,38.047554" />
<polygon fill="#22748c" fill-opacity="0.501961" points="90.122088,133.522461,107.535023,141.164771,98.889829,140.790612,81.410540,115.836843" />
<polygon fill="#cfebf1" fill-opacity="0.501961" points="174.089293,20.974786,166.942296,17.044097,171.012980,16.787442,171.304480,8.665486" />
<polygon fill="#14242b" fill-opacity="0.501961" points="228.769934,124.757406,215.770015,113.237593,199.106375,152.155567,219.338406,112.497039" />
<polygon fill="#db41b1" fill-opacity="0.501961" points="234.018670,42.565661,235.098848,54.256237,229.329944,43.348118,223.499964,46.053232" />
<polygon fill="#002b33" fill-opacity="0.501961" points="155.020036,105.993413,157.846506,113.282181,141.086937,112.274493,147.412401,116.664126" />
<polygon fill="#156896" fill-opacity="0.501961" points="116.374831,50.201131,143.323896,60.152442,150.390828,73.333766,159.543638,72.263702" />
<polygon fill="#1b2c31" fill-opacity="0.501961" points="178.731971,157.816041,182.314210,135.110654,177.658653,136.426489,186.580987,158.000000" />
<polygon fill="#0090db" fill-opacity="0.501961" points="34.370456,108.458901,32.369078,123.180798,43.555165,91.920060,47.980245,91.765837" />
<polygon fill="#ecf7ff" fill-opacity="0.501961" points="271.000000,32.699392,251.921312,9.115824,271.000000,17.574559,249.427063,41.398297" />
<polygon fill="#196786" fill-opacity="0.501961" points="85.091662,113.714795,106.580772,95.390504,96.101478,101.580119,93.745555,113.910241" />
<polygon fill="#2f3c44" fill-opacity="0.501961" points="235.739610,89.624884,230.495419,88.458585,233.317609,85.926051,238.010387,86.169024" />
<polygon fill="#001a37" fill-opacity="0.501961" points="38.902887,97.464170,44.014387,104.594871,55.326536,100.109996,44.661713,110.874623" />
<polygon fill="#77bddc" fill-opacity="0.501961" points="150.273964,134.127776,157.053159,158.000000,109.859057,158.000000,162.684004,139.292645" />
<polygon fill="#000d12" fill-opacity="0.501961" points="32.348108,128.698609,19.238441,158.000000,28.359198,142.800234,50.343729,127.239599" />
<polygon fill="#88cfe0" fill-opacity="0.501961" points="11.223299,13.543080,20.859310,7.989197,13.854496,3.705410,12.859624,14.519679" />
<polygon fill="#4a4b4d" fill-opacity="0.501961" points="238.381165,122.848812,219.926302,134.635675,220.083387,139.447098,243.045805,110.835414" />
<polygon fill="#02323c" fill-opacity="0.501961" points="101.230713,132.275152,115.983019,137.037035,110.856727,139.345467,103.595462,130.655407" />
<polygon fill="#93ebf9" fill-opacity="0.501961" points="106.230987,133.777552,106.662212,139.997072,94.284187,147.630887,115.588769,158.000000" />
<polygon fill="#4eb9d7" fill-opacity="0.501961" points="97.145737,132.437010,96.913313,140.222928,85.505465,133.602014,106.829312,156.012303" />
<polygon fill="#2c3544" fill-opacity="0.501961" points="194.958494,70.698414,217.508917,60.894661,222.122053,56.199721,221.109977,62.753922" />
<polygon fill="#12bbf2" fill-opacity="0.501961" points="102.245747,102.352966,119.010135,114.021731,111.508101,118.729492,110.740969,97.625113" />
<polygon fill="#021015" fill-opacity="0.501961" points="188.704437,48.459253,162.973741,65.203376,176.569697,49.132115,187.700397,54.365012" />
<polygon fill="#042e39" fill-opacity="0.501961" points="97.515035,19.171972,82.239963,14.454315,107.433562,16.749876,87.972546,33.431650" />
<polygon fill="#79cbe2" fill-opacity="0.501961" points="33.382671,-16.000000,37.077058,11.974639,21.951814,-16.000000,63.590289,14.258034" />
<polygon fill="#07354c" fill-opacity="0.501961" points="69.769357,87.303225,44.792734,81.435891,53.814457,95.438708,73.144872,74.244908" />
<polygon fill="#939ba3" fill-opacity="0.501961" points="247.149485,70.978991,267.766027,93.861521,246.057746,73.039161,257.127059,60.717778" />
<polygon fill="#06ace2" fill-opacity="0.501961" points="71.291218,103.204299,40.648832,116.747499,54.834636,102.832480,71.749193,98.211110" />
<polygon fill="#c7d1d7" fill-opacity="0.501961" points="224.740178,95.016491,241.994039,92.418006,237.053596,79.394530,237.881987,89.404089" />
<polygon fill="#2a4e54" fill-opacity="0.501961" points="109.509457,5.004705,133.145215,9.884121,130.367833,4.580996,105.909743,11.433110" />
<polygon fill="#93cbd7" fill-opacity="0.501961" points="156.977760,8.329915,126.605624,10.549258,129.136101,2.676815,129.804902,13.086200" />
<polygon fill="#28e1ff" fill-opacity="0.501961" points="90.321399,93.163097,88.434017,110.131779,85.208195,115.872666,84.169031,108.662293" />
<polygon fill="#4392af" fill-opacity="0.501961" points="28.193227,130.984378,51.866983,138.394106,42.700254,158.000000,72.794633,153.073675" />
<polygon fill="#ff75e1" fill-opacity="0.501961" points="141.564060,43.058165,157.124114,49.428055,153.976568,37.218142,149.763895,50.763316" />
<polygon fill="#4da9c4" fill-opacity="0.501961" points="170.073424,89.696362,181.455663,87.816316,169.600954,94.003315,162.958685,91.186888" />
<polygon fill="#00486a" fill-opacity="0.501961" points="36.505857,114.719223,28.292686,132.931985,69.811875,97.625887,47.169257,121.468734" />
<polygon fill="#08bafb" fill-opacity="0.501961" points="85.795194,80.324762,71.788337,80.868318,85.073752,91.761727,70.466144,84.142722" />
<polygon fill="#d245b1" fill-opacity="0.501961" points="186.424952,58.016617,185.812073,56.761421,204.748533,36.545271,194.500156,52.345219" />
<polygon fill="#c8d8e3" fill-opacity="0.501961" points="239.701424,64.684790,243.419811,57.753710,248.260502,67.283954,271.000000,65.609572" />
<polygon fill="#35393e" fill-opacity="0.501961" points="263.724974,114.080140,245.109175,95.336111,246.497290,93.621268,246.495452,89.541558" />
<polygon fill="#001d22" fill-opacity="0.501961" points="81.542046,125.448042,97.781839,120.892252,75.474922,120.655214,74.850631,125.508151" />
<polygon fill="#080d0b" fill-opacity="0.501961" points="246.205737,68.152066,246.117401,81.486035,257.374599,76.499339,237.690314,72.318247" />
<polygon fill="#293d48" fill-opacity="0.501961" points="12.656989,31.999726,15.142401,32.473610,18.937680,34.426947,13.138577,39.028807" />
<polygon fill="#464b50" fill-opacity="0.501961" points="246.396326,136.130737,232.931578,119.207693,249.728794,133.997817,271.000000,131.718440" />
<polygon fill="#00172c" fill-opacity="0.501961" points="140.975137,130.236320,147.951125,126.122199,144.041478,149.567582,146.849364,149.671589" />
<polygon fill="#bcd8e6" fill-opacity="0.501961" points="227.324728,77.033286,229.356116,73.834229,230.238038,85.174563,230.668358,95.395871" />
<polygon fill="#4c4948" fill-opacity="0.501961" points="232.334199,131.964530,224.604544,140.566948,220.249333,133.369433,242.455146,146.724171" />
<polygon fill="#7ea8bc" fill-opacity="0.501961" points="186.239370,138.191630,160.624019,158.000000,179.064731,150.872055,198.993660,156.876000" />
<polygon fill="#2b6372" fill-opacity="0.501961" points="49.248528,12.868361,56.192014,18.310914,58.512102,9.316523,35.117589,13.491091" />
<polygon fill="#6ab6d4" fill-opacity="0.501961" points="171.730385,113.861445,157.301577,107.231900,151.157625,101.477324,174.331895,119.049376" />
<polygon fill="#0589ef" fill-opacity="0.501961" points="99.013185,44.234645,100.448213,44.334122,101.163573,53.741155,96.948771,49.070146" />
<polygon fill="#002f48" fill-opacity="0.501961" points="191.784851,62.960862,193.817275,56.475012,181.176256,74.729659,179.690888,66.771573" />
<polygon fill="#95aec2" fill-opacity="0.501961" points="228.271527,135.745538,215.289181,121.434363,219.483787,129.295585,226.899059,137.974041" />
<polygon fill="#004160" fill-opacity="0.501961" points="213.133254,97.731189,204.302136,96.054693,183.948221,63.728661,192.743561,85.901450" />
</g>
</svg>