<svg xmlns="http://www.w3.org/2000/svg" version="1.1" width="1024" height="768">
<rect x="0" y="0" width="1024" height="768" fill="#6d7c82" />
<g transform="scale(4.000000) translate(0.5 0.5)">
<polygon fill="#0e0000" fill-opacity="0.501961" points="14.477549,132.805927,41.455799,74.893249,126.450580,67.057068,110.651701,110.425174" />
<polygon fill="#83cafb" fill-opacity="0.501961" points="1.452056,114.924251,35.670015,79.369592,271.000000,-15.116965,-16.000000,-11.755947" />
<polygon fill="#5c3d24" fill-opacity="0.501961" points="-16.000000,206.200107,-10.855914,142.244057,264.852926,177.109417,256.146824,195.603846" />
<polygon fill="#6fbaf0" fill-opacity="0.501961" points="268.558115,110.455061,156.235484,60.377725,192.056003,4.575609,271.000000,12.211490" />
<polygon fill="#5d3000" fill-opacity="0.501961" points="167.308510,105.148737,201.597222,79.784184,267.718915,113.575171,206.309299,132.842340" />
<polygon fill="#133e6a" fill-opacity="0.501961" points="6.613199,60.204059,80.253637,36.157976,98.539290,20.313968,-16.000000,33.976908" />
<polygon fill="#ddfeff" fill-opacity="0.501961" points="-16.000000,121.782129,37.669467,72.254034,104.063272,50.281081,-16.000000,59.137339" />
<polygon fill="#083961" fill-opacity="0.501961" points="158.473285,13.151544,127.097356,17.233564,116.163280,50.040858,164.026181,71.830786" />
<polygon fill="#f5ffff" fill-opacity="0.501961" points="57.210161,-16.000000,-16.000000,18.582653,43.974950,16.197556,127.460065,-16.000000" />
<polygon fill="#b7997b" fill-opacity="0.501961" points="104.875661,53.536248,177.186749,183.591850,202.451540,172.880655,228.357467,157.029094" />
<polygon fill="#a5d3ed" fill-opacity="0.501961" points="245.815886,80.494668,153.882925,29.852303,172.460572,95.151147,179.678123,72.840485" />
<polygon fill="#b09d8f" fill-opacity="0.501961" points="241.959289,150.618950,92.193754,165.398316,37.102357,135.505264,83.264213,127.323893" />
<polygon fill="#3f3025" fill-opacity="0.501961" points="122.218196,122.570269,163.716767,96.773749,149.161514,62.054840,144.565474,145.991298" />
<polygon fill="#ffb31e" fill-opacity="0.501961" points="206.916944,88.102792,205.022372,109.761655,177.978726,105.948564,189.193546,87.593702" />
<polygon fill="#a2d3ee" fill-opacity="0.501961" points="39.738133,77.705204,64.836426,73.099967,116.839430,50.457166,100.034160,42.581731" />
<polygon fill="#191b12" fill-opacity="0.501961" points="-16.000000,114.262372,25.864296,113.726463,39.387261,70.536785,60.250886,132.567498" />
<polygon fill="#061119" fill-opacity="0.501961" points="271.000000,114.688126,204.684759,123.768123,184.849685,123.841474,189.322954,109.827895" />
<polygon fill="#28567c" fill-opacity="0.501961" points="240.032650,34.202442,271.000000,23.894638,271.000000,65.513767,219.720937,61.738428" />
<polygon fill="#467aa9" fill-opacity="0.501961" points="130.200774,4.912164,217.870153,21.316539,170.049719,44.027992,112.500348,32.576287" />
<polygon fill="#9fdfff" fill-opacity="0.501961" points="-16.000000,99.368706,23.677631,114.198827,33.492335,91.457502,11.231400,80.758087" />
<polygon fill="#1f4e7b" fill-opacity="0.501961" points="59.150128,12.838438,75.863109,9.548742,97.247269,32.608093,57.491891,28.263693" />
<polygon fill="#0d0801" fill-opacity="0.501961" points="146.292432,37.978812,117.623694,43.535427,116.635016,50.924553,162.913269,49.582470" />
<polygon fill="#24231c" fill-opacity="0.501961" points="-16.000000,180.279295,34.674337,207.000000,62.989745,184.979334,33.126891,176.589277" />
<polygon fill="#d3e2dc" fill-opacity="0.501961" points="172.629123,82.096921,194.910949,88.478501,156.222209,91.139482,178.942616,50.145542" />
<polygon fill="#c6cec5" fill-opacity="0.501961" points="87.486974,134.065334,-7.499712,134.064974,100.969128,144.089669,107.907793,132.259891" />
<polygon fill="#816732" fill-opacity="0.501961" points="119.343157,61.151960,81.374596,60.336051,90.957996,73.337160,148.507087,73.616144" />
<polygon fill="#826e54" fill-opacity="0.501961" points="186.508340,125.253736,208.352696,141.536976,250.163087,189.544711,271.000000,117.689941" />
<polygon fill="#756d61" fill-opacity="0.501961" points="88.024807,96.660585,213.186803,198.855264,85.684602,118.139495,20.592972,151.768658" />
<polygon fill="#73b0ce" fill-opacity="0.501961" points="139.771873,68.749149,145.105339,63.601846,-16.000000,-3.382488,109.911611,61.269951" />
<polygon fill="#094779" fill-opacity="0.501961" points="271.000000,3.381168,257.698399,-16.000000,211.166421,-9.291010,230.507434,13.119565" />
<polygon fill="#5b9bc5" fill-opacity="0.501961" points="26.637157,85.064388,44.523638,72.054737,-16.000000,70.627686,-12.654059,79.316798" />
<polygon fill="#23273b" fill-opacity="0.501961" points="169.594115,108.282032,167.894594,98.366495,144.391729,96.346039,146.970548,105.281803" />
<polygon fill="#c4e5ec" fill-opacity="0.501961" points="19.729651,27.595281,17.032805,33.678621,53.487510,23.748028,60.289860,-10.580004" />
<polygon fill="#3d688a" fill-opacity="0.501961" points="-8.808582,31.236460,76.912728,43.406897,-12.507804,63.535389,37.399469,8.596006" />
<polygon fill="#ffffff" fill-opacity="0.501961" points="32.408426,55.722086,-9.549946,65.877732,0.867063,69.408999,47.181924,65.295329" />
<polygon fill="#f4ffff" fill-opacity="0.501961" points="99.095927,32.193963,91.650822,22.482530,93.888950,19.419887,108.405605,24.669203" />
<polygon fill="#20201b" fill-opacity="0.501961" points="35.481283,130.405833,81.032052,90.924506,92.455521,67.394404,29.970861,83.305225" />
<polygon fill="#b1e2fe" fill-opacity="0.501961" points="81.930410,42.837578,83.761212,68.590875,78.437646,71.329732,60.491930,72.572406" />
<polygon fill="#653709" fill-opacity="0.501961" points="186.662361,75.509914,156.186146,75.330508,207.656645,79.168862,213.970012,101.263823" />
<polygon fill="#ac8a4c" fill-opacity="0.501961" points="120.381140,60.390211,117.615938,74.659349,124.749454,93.060591,178.993687,97.180461" />
<polygon fill="#33353e" fill-opacity="0.501961" points="170.925300,122.937423,103.811445,147.697573,131.025815,127.198538,128.409663,125.672641" />
<polygon fill="#94bdd8" fill-opacity="0.501961" points="34.658567,78.849220,99.095942,44.934337,98.481343,77.581288,78.441309,31.318186" />
<polygon fill="#9ccce3" fill-opacity="0.501961" points="215.665640,21.503533,177.808574,-16.000000,242.110181,27.207571,223.559280,42.750119" />
<polygon fill="#57514d" fill-opacity="0.501961" points="70.241932,143.298779,-5.838582,136.089629,31.426075,172.975916,37.696237,175.952613" />
<polygon fill="#d6c8ad" fill-opacity="0.501961" points="197.875153,175.190286,191.644496,180.624035,176.047447,170.826409,186.704575,164.804669" />
<polygon fill="#c1c6c8" fill-opacity="0.501961" points="175.133030,109.421078,170.030790,112.357725,155.589300,116.613399,135.814428,105.955789" />
<polygon fill="#563e22" fill-opacity="0.501961" points="161.704291,102.417439,147.499909,65.902101,138.437281,86.747872,176.716991,101.228250" />
<polygon fill="#9fa79d" fill-opacity="0.501961" points="59.315954,129.460330,48.200364,140.997647,18.335805,122.787597,8.483763,137.077765" />
<polygon fill="#a9d1e5" fill-opacity="0.501961" points="221.616025,90.888196,213.901632,89.294830,206.121768,80.284372,220.232154,70.824339" />
<polygon fill="#39321e" fill-opacity="0.501961" points="202.963239,115.059941,271.000000,109.817874,254.694730,106.969547,210.798381,92.150205" />
<polygon fill="#43749d" fill-opacity="0.501961" points="243.897795,39.178888,171.683940,32.969091,224.437455,7.063948,187.444010,49.536117" />
<polygon fill="#5a4c41" fill-opacity="0.501961" points="130.365176,195.434738,231.357807,207.000000,134.853438,157.275668,188.129754,161.396364" />
<polygon fill="#554020" fill-opacity="0.501961" points="154.094391,70.215596,122.355995,68.253949,100.034276,55.926327,99.045986,71.033958" />
<polygon fill="#93c9e5" fill-opacity="0.501961" points="105.312751,6.462075,62.436777,6.762845,130.467645,-16.000000,170.459750,5.907715" />
<polygon fill="#8f8176" fill-opacity="0.501961" points="138.807492,184.254749,191.765507,177.739452,153.709316,167.427920,130.288146,170.449883" />
<polygon fill="#c9eef5" fill-opacity="0.501961" points="55.015675,-16.000000,-15.973555,25.634893,84.741052,0.511995,132.012826,0.790068" />
<polygon fill="#294d65" fill-opacity="0.501961" points="182.441286,101.343272,183.974883,73.837728,198.376563,74.107067,175.044247,98.589481" />
<polygon fill="#453d31" fill-opacity="0.501961" points="94.242121,58.674508,88.407080,54.866648,67.640912,108.655134,93.007254,68.078633" />
<polygon fill="#a1d1ee" fill-opacity="0.501961" points="163.608682,48.584108,202.809431,50.300698,166.010884,78.255461,164.741409,70.792199" />
<polygon fill="#588ab2" fill-opacity="0.501961" points="189.625914,-16.000000,193.390246,46.567087,163.052301,50.614212,143.661407,32.249469" />
<polygon fill="#4c4236" fill-opacity="0.501961" points="37.996654,189.030635,234.158047,207.000000,271.000000,202.483925,244.938133,183.493375" />
<polygon fill="#366189" fill-opacity="0.501961" points="54.823474,25.014240,-16.000000,47.723612,94.988951,33.592371,71.716111,6.967092" />
<polygon fill="#7e7571" fill-opacity="0.501961" points="58.177260,182.502457,116.564497,165.111687,139.593223,99.694161,97.425381,151.375895" />
<polygon fill="#9dc0d5" fill-opacity="0.501961" points="94.781171,39.135235,112.605901,67.878692,118.194217,46.340212,91.669980,63.672344" />
<polygon fill="#7d4d11" fill-opacity="0.501961" points="223.010623,95.090482,231.780642,89.488344,231.831058,106.850966,221.470825,118.079803" />
<polygon fill="#574827" fill-opacity="0.501961" points="14.702857,113.097471,-16.000000,124.626211,19.701445,120.515751,-16.000000,94.970872" />
<polygon fill="#f6fffe" fill-opacity="0.501961" points="-7.750340,102.898406,-16.000000,80.883211,7.931122,82.732661,10.255470,99.757147" />
<polygon fill="#2a2221" fill-opacity="0.501961" points="134.134924,108.587981,127.660682,136.219607,125.468028,133.627847,144.620607,135.083052" />
<polygon fill="#a1d7e7" fill-opacity="0.501961" points="271.000000,19.370728,254.903186,6.964758,250.297747,12.464680,220.952346,17.987714" />
<polygon fill="#a3988e" fill-opacity="0.501961" points="118.234054,156.132377,245.578136,161.378261,179.554192,131.470343,113.848760,147.549905" />
<polygon fill="#736b5a" fill-opacity="0.501961" points="271.000000,190.530259,191.844077,166.294982,223.511392,162.646639,254.218151,106.723375" />
<polygon fill="#e7f8fa" fill-opacity="0.501961" points="81.436492,59.191484,48.778254,56.079850,47.643153,53.185578,94.659093,53.756936" />
<polygon fill="#478fb4" fill-opacity="0.501961" points="158.058855,87.236940,159.404682,74.055284,151.645470,43.468181,154.155496,80.908785" />
<polygon fill="#b1ccd5" fill-opacity="0.501961" points="98.486520,60.455406,86.648248,48.443411,101.223707,72.625531,92.746473,71.577234" />
<polygon fill="#112c42" fill-opacity="0.501961" points="143.607360,34.935656,150.115798,83.694024,153.433985,83.509713,151.205573,38.663326" />
<polygon fill="#d1f4f1" fill-opacity="0.501961" points="1.647708,24.317198,2.743573,8.472519,11.564231,-7.507548,-11.535856,3.214642" />
<polygon fill="#90bfd8" fill-opacity="0.501961" points="219.172386,35.567131,175.966494,34.773402,259.267610,23.104234,218.207222,40.649300" />
<polygon fill="#c0e3ed" fill-opacity="0.501961" points="213.894107,6.140750,192.705449,17.934441,194.143432,12.124250,200.263912,2.355234" />
<polygon fill="#cdb889" fill-opacity="0.501961" points="152.286777,91.482981,145.731610,80.096609,146.350753,90.300491,143.419701,98.975503" />
<polygon fill="#5989b0" fill-opacity="0.501961" points="139.744527,16.804170,125.248058,42.461161,99.100748,39.911771,149.810659,-7.850842" />
<polygon fill="#1b1e1f" fill-opacity="0.501961" points="121.786486,46.199989,113.294711,81.447771,122.872981,53.414350,153.771611,38.600989" />
<polygon fill="#898279" fill-opacity="0.501961" points="178.487853,126.200731,229.623520,122.838271,217.991069,130.983411,250.318295,166.126264" />
<polygon fill="#c8bfa0" fill-opacity="0.501961" points="209.514936,93.747261,170.446257,81.533546,175.146308,99.377195,153.057207,85.013983" />
<polygon fill="#a49e93" fill-opacity="0.501961" points="186.381099,126.962121,173.871203,119.451928,152.524346,114.298282,184.338066,107.891383" />
<polygon fill="#7e460e" fill-opacity="0.501961" points="193.032871,120.974508,198.739812,100.636691,195.765029,82.619360,208.364011,72.442159" />
<polygon fill="#31597a" fill-opacity="0.501961" points="-5.318748,46.681614,-14.060160,16.199344,57.667763,49.247674,58.421156,38.358481" />
<polygon fill="#6394b8" fill-opacity="0.501961" points="204.981323,76.225418,199.929485,64.646950,155.952532,68.512421,227.963875,52.288386" />
<polygon fill="#4e493e" fill-opacity="0.501961" points="63.474626,83.466601,116.845710,99.896773,108.984589,116.115875,95.398504,118.342482" />
<polygon fill="#83786f" fill-opacity="0.501961" points="70.927382,138.232419,82.991932,185.129325,86.313406,170.054245,49.244051,153.421768" />
<polygon fill="#8b897c" fill-opacity="0.501961" points="80.052708,127.394283,121.860493,133.583297,127.675799,127.493597,72.570742,108.292203" />
<polygon fill="#8cb7d1" fill-opacity="0.501961" points="169.942164,50.224197,198.213257,52.631869,249.213034,39.165924,252.933850,44.246166" />
<polygon fill="#71a8ce" fill-opacity="0.501961" points="46.202687,64.886235,68.372154,57.799267,79.787470,61.377895,27.160256,79.307197" />
<polygon fill="#162b3d" fill-opacity="0.501961" points="171.434593,75.866199,176.473481,80.037465,179.585999,77.768205,196.801543,75.142819" />
<polygon fill="#5b584e" fill-opacity="0.501961" points="1.131513,123.544981,-16.000000,164.934562,17.249108,117.313151,52.395319,131.665579" />
<polygon fill="#6babd3" fill-opacity="0.501961" points="26.154649,80.121707,12.197901,94.383532,12.620562,110.733439,33.820342,95.831342" />
<polygon fill="#6198b9" fill-opacity="0.501961" points="230.719964,91.097335,245.409779,104.977122,271.000000,107.774072,250.997442,58.114546" />
<polygon fill="#b8d5de" fill-opacity="0.501961" points="174.612537,75.313052,157.859540,79.814296,175.972970,68.877254,198.109727,71.787295" />
<polygon fill="#b2a68f" fill-opacity="0.501961" points="127.538191,71.844315,120.988100,105.450817,128.430615,92.119152,152.580862,111.209444" />
<polygon fill="#204561" fill-opacity="0.501961" points="162.046530,46.290216,162.986236,61.579785,127.831876,47.426066,161.708985,49.851939" />
<polygon fill="#2c5880" fill-opacity="0.501961" points="234.646994,47.278348,240.551020,67.226890,227.477313,67.690986,271.000000,46.639861" />
<polygon fill="#4b7ca0" fill-opacity="0.501961" points="24.892751,9.021784,14.750071,24.374542,62.660288,27.022943,36.126170,43.073974" />
<polygon fill="#165e88" fill-opacity="0.501961" points="146.045523,41.624483,127.237652,66.639383,126.971018,52.848529,138.046858,65.633804" />
<polygon fill="#b56200" fill-opacity="0.501961" points="178.164571,105.851827,189.455192,111.935524,206.237464,110.650052,192.518307,101.976138" />
<polygon fill="#cfd1c9" fill-opacity="0.501961" points="77.933263,135.924470,104.385204,137.790384,80.279009,143.493999,73.405659,144.567369" />
<polygon fill="#e1f8fc" fill-opacity="0.501961" points="19.491411,70.389097,43.841658,67.759072,31.986957,52.170024,20.992103,63.612753" />
<polygon fill="#d6a33f" fill-opacity="0.501961" points="187.429422,86.867778,221.250715,85.481088,209.907807,85.940764,184.347145,104.612202" />
<polygon fill="#2d1a0e" fill-opacity="0.501961" points="200.938852,111.878705,206.365358,110.582216,189.568414,129.021470,185.010541,105.688048" />
<polygon fill="#2b2825" fill-opacity="0.501961" points="231.581261,97.813798,206.045762,105.792499,208.834256,99.706292,233.059874,90.462640" />
<polygon fill="#e1fbff" fill-opacity="0.501961" points="95.113872,30.361595,109.853342,32.730467,105.735640,29.711879,96.357592,21.423884" />
<polygon fill="#212220" fill-opacity="0.501961" points="52.023302,86.949394,58.611539,123.031668,27.159078,84.506882,64.278717,79.727495" />
<polygon fill="#47769b" fill-opacity="0.501961" points="138.056042,38.110371,213.884226,27.581207,213.828911,15.118127,122.095380,27.825170" />
<polygon fill="#615d59" fill-opacity="0.501961" points="202.868668,160.784203,242.947626,192.493539,191.010114,178.507293,191.087453,197.151613" />
<polygon fill="#6bb5d7" fill-opacity="0.501961" points="34.541803,15.263214,43.929732,-16.000000,-16.000000,25.150002,27.551375,-16.000000" />
<polygon fill="#403627" fill-opacity="0.501961" points="97.979281,60.545642,105.210024,54.030581,108.852452,63.822583,100.833893,64.267548" />
<polygon fill="#b8dcef" fill-opacity="0.501961" points="114.426052,64.532160,119.381356,56.003095,93.144441,56.480665,102.815668,51.618226" />
<polygon fill="#616053" fill-opacity="0.501961" points="230.976841,143.664308,219.839614,93.926432,214.922696,119.661604,271.000000,121.335556" />
<polygon fill="#5d88a4" fill-opacity="0.501961" points="7.569898,43.969729,-1.651494,55.342364,24.533309,59.133782,20.238524,47.216444" />
<polygon fill="#23242c" fill-opacity="0.501961" points="133.719284,135.310840,158.119798,134.578672,145.875487,131.712911,132.503819,130.864363" />
<polygon fill="#e2f7fa" fill-opacity="0.501961" points="36.707822,19.356176,75.609682,-2.394646,35.918993,6.821773,37.850521,-12.466445" />
<polygon fill="#57544e" fill-opacity="0.501961" points="59.051253,141.094959,-16.000000,168.019188,21.046490,167.935981,51.898587,138.451649" />
<polygon fill="#598bb1" fill-opacity="0.501961" points="78.182291,17.343233,105.126896,34.470098,84.222348,48.854953,94.262204,-16.000000" />
<polygon fill="#9ac1d7" fill-opacity="0.501961" points="215.176978,89.118269,224.130879,64.833664,242.519563,81.847505,209.774698,82.357240" />
<polygon fill="#49392a" fill-opacity="0.501961" points="145.520596,69.144704,145.035286,65.234592,139.546676,92.910307,144.154800,90.537968" />
<polygon fill="#cbdbe4" fill-opacity="0.501961" points="91.278432,147.539462,101.678810,140.121063,104.531319,129.873777,91.739884,145.550388" />
<polygon fill="#524d44" fill-opacity="0.501961" points="52.529694,174.870637,120.644786,207.000000,21.129785,169.315859,105.970234,161.402360" />
<polygon fill="#81735f" fill-opacity="0.501961" points="69.005722,168.831364,121.524658,164.544453,45.927196,173.236667,108.027673,190.740602" />
<polygon fill="#aad9f1" fill-opacity="0.501961" points="144.600353,13.873094,177.138593,-16.000000,116.674765,3.951100,149.590783,-1.375158" />
<polygon fill="#636261" fill-opacity="0.501961" points="153.669522,128.279693,156.146518,114.954195,56.285212,101.346635,193.067810,127.344869" />
<polygon fill="#928875" fill-opacity="0.501961" points="216.267190,160.549321,235.292062,146.213233,251.830475,137.466149,224.128457,178.060789" />
<polygon fill="#6598c0" fill-opacity="0.501961" points="119.357045,55.546920,97.745871,53.110602,118.828525,-16.000000,113.439980,30.290821" />
<polygon fill="#444542" fill-opacity="0.501961" points="47.080049,124.909085,35.595951,118.776459,29.228025,141.878653,7.298227,150.016830" />
<polygon fill="#6da0c3" fill-opacity="0.501961" points="158.591487,32.184877,197.056007,41.394551,163.633096,51.094483,150.385217,38.331231" />
<polygon fill="#84796c" fill-opacity="0.501961" points="127.902334,186.162564,137.568585,203.034658,142.680307,183.131694,128.097190,187.651548" />
<polygon fill="#0c1a2b" fill-opacity="0.501961" points="214.385662,121.694157,207.130492,98.268983,214.161888,94.367322,216.104488,120.968883" />
<polygon fill="#8e938b" fill-opacity="0.501961" points="-1.732593,123.358831,37.313053,132.834069,9.613913,138.703387,22.733275,119.668220" />
<polygon fill="#b0afab" fill-opacity="0.501961" points="139.175523,95.135140,172.358769,96.118859,131.812733,91.580828,150.249702,112.224242" />
<polygon fill="#ba9d5b" fill-opacity="0.501961" points="115.027103,75.409771,126.161897,87.597193,142.653181,81.523250,142.012889,77.153476" />
<polygon fill="#8a807b" fill-opacity="0.501961" points="117.258152,90.038241,121.360486,74.401704,114.524052,121.125351,150.977696,104.091117" />
<polygon fill="#b9dded" fill-opacity="0.501961" points="76.650625,44.027089,79.033082,69.088690,84.493079,69.615564,84.083402,55.939449" />
<polygon fill="#8d877d" fill-opacity="0.501961" points="197.678651,140.760104,208.605590,134.309163,207.237890,108.862986,224.515089,160.155996" />
<polygon fill="#4777a0" fill-opacity="0.501961" points="184.343820,46.085795,196.895242,36.490575,242.818973,42.950046,205.040915,46.602062" />
<polygon fill="#abcfe4" fill-opacity="0.501961" points="210.555042,46.218400,197.833173,49.768357,168.912438,61.892568,206.100602,57.541445" />
<polygon fill="#a89d93" fill-opacity="0.501961" points="210.423752,186.123666,166.138370,133.409598,183.933309,138.060836,161.915937,144.426021" />
<polygon fill="#283333" fill-opacity="0.501961" points="234.725920,108.053433,268.443524,103.905097,236.101376,120.063868,201.645573,124.907094" />
<polygon fill="#87afba" fill-opacity="0.501961" points="184.519158,80.841788,190.958218,97.570038,196.301721,96.666933,168.808302,82.001642" />
<polygon fill="#90bed2" fill-opacity="0.501961" points="33.164487,2.124250,26.227321,31.404959,9.664732,30.998266,39.017153,14.288130" />
<polygon fill="#2e2d2c" fill-opacity="0.501961" points="92.491561,67.566414,32.324582,95.212571,116.088119,70.308621,114.171641,101.841055" />
<polygon fill="#d7f0f5" fill-opacity="0.501961" points="54.988703,20.299067,46.852992,27.372658,32.079903,-16.000000,40.634362,17.768404" />
<polygon fill="#6497bb" fill-opacity="0.501961" points="60.508063,8.128094,69.950316,3.403406,88.349099,22.789630,134.785757,12.524514" />
<polygon fill="#c8d0d6" fill-opacity="0.501961" points="167.948058,111.621596,149.278166,110.230211,141.430893,104.805481,170.878479,111.047111" />
<polygon fill="#1f2223" fill-opacity="0.501961" points="67.717215,74.498196,34.952820,77.670491,43.672329,117.803262,18.307473,125.565818" />
<polygon fill="#cce8f1" fill-opacity="0.501961" points="170.504419,85.257319,170.100415,77.322609,176.854758,86.887917,173.460655,93.087940" />
<polygon fill="#336982" fill-opacity="0.501961" points="191.293641,83.616677,196.415846,73.695080,180.774175,77.661763,173.419601,86.361553" />
<polygon fill="#758491" fill-opacity="0.501961" points="129.413503,131.721207,104.385716,145.292697,103.376608,135.547370,113.788433,124.345070" />
<polygon fill="#414b59" fill-opacity="0.501961" points="158.954990,108.208380,187.165843,86.981405,184.168272,99.024179,176.182200,105.995100" />
<polygon fill="#4e7b9f" fill-opacity="0.501961" points="246.254408,84.569669,238.521159,92.564780,213.305818,91.474616,220.821502,87.706371" />
<polygon fill="#9b6214" fill-opacity="0.501961" points="229.949095,97.756188,220.871230,100.016008,228.056410,114.560769,231.184487,106.382637" />
<polygon fill="#3a658d" fill-opacity="0.501961" points="38.622770,24.828030,15.035311,38.732701,39.183160,53.276088,58.155988,51.216665" />
<polygon fill="#1b1106" fill-opacity="0.501961" points="123.807683,47.936905,151.710836,44.360918,149.080093,37.697799,119.913244,45.544423" />
<polygon fill="#7b7471" fill-opacity="0.501961" points="163.231871,147.661166,104.809984,134.292766,153.008843,136.067483,146.232904,157.465087" />
<polygon fill="#504b4d" fill-opacity="0.501961" points="114.677985,167.393273,148.227902,167.204069,178.132370,169.615625,147.789360,157.250606" />
<polygon fill="#7dffff" fill-opacity="0.501961" points="127.246434,61.033678,124.143538,63.229417,122.385455,64.791676,124.631737,55.030716" />
<polygon fill="#6fa5c6" fill-opacity="0.501961" points="33.156319,69.547368,35.716871,84.447299,19.857206,81.773103,-10.153783,78.402094" />
<polygon fill="#6298bc" fill-opacity="0.501961" points="233.092073,27.949299,199.976661,-16.000000,265.160658,37.124313,271.000000,7.942138" />
<polygon fill="#9ac0d5" fill-opacity="0.501961" points="212.189036,85.321523,200.941694,70.370399,195.325845,78.980835,233.390618,73.613823" />
<polygon fill="#494c53" fill-opacity="0.501961" points="85.954842,148.597662,129.313046,136.256370,127.891574,138.181572,107.332496,144.347865" />
<polygon fill="#f2fdf7" fill-opacity="0.501961" points="14.327553,88.362214,-16.000000,85.903107,-16.000000,82.299977,21.112511,85.748330" />
<polygon fill="#422613" fill-opacity="0.501961" points="197.904705,82.868630,194.329830,84.318083,207.105446,76.559469,208.182362,85.847085" />
<polygon fill="#5f5239" fill-opacity="0.501961" points="87.278949,56.480910,117.339481,68.779593,132.145548,72.848405,113.315635,62.954867" />
<polygon fill="#746350" fill-opacity="0.501961" points="160.266076,177.797676,198.107788,190.296388,155.025911,185.367961,148.230653,154.208273" />
<polygon fill="#4ab1ca" fill-opacity="0.501961" points="139.617781,67.321816,144.943474,64.245930,141.546422,59.233369,126.495693,64.822205" />
<polygon fill="#af6511" fill-opacity="0.501961" points="198.981799,85.461083,208.026847,83.686276,210.776688,87.733721,206.208677,99.752615" />
<polygon fill="#746e68" fill-opacity="0.501961" points="70.336452,140.533909,44.990487,166.991865,64.930889,163.394453,28.109609,148.866207" />
<polygon fill="#91c2db" fill-opacity="0.501961" points="218.248644,6.739717,195.291093,13.330715,238.880965,15.726169,222.473011,25.750532" />
<polygon fill="#41372a" fill-opacity="0.501961" points="101.819935,65.713847,86.176314,66.188380,83.182629,76.775885,84.998011,61.264961" />
<polygon fill="#79786b" fill-opacity="0.501961" points="85.861503,131.327745,97.741465,105.243920,47.095099,131.977134,87.674943,126.409331" />
<polygon fill="#5d575b" fill-opacity="0.501961" points="80.819262,141.724419,83.456755,142.447919,92.279975,142.229665,88.343044,146.507680" />
<polygon fill="#948471" fill-opacity="0.501961" points="100.226095,182.978528,95.728175,173.486634,122.222965,141.111089,86.090529,189.797199" />
<polygon fill="#364252" fill-opacity="0.501961" points="75.358874,141.617331,70.692301,143.952530,62.221499,144.029535,57.534173,143.483018" />
<polygon fill="#534c37" fill-opacity="0.501961" points="-16.000000,121.116725,1.977816,112.332237,24.529163,120.565150,-8.952218,123.784980" />
<polygon fill="#c2aa88" fill-opacity="0.501961" points="175.647869,99.225449,156.383606,89.182469,156.502527,84.027340,168.707291,82.097371" />
<polygon fill="#d7970c" fill-opacity="0.501961" points="201.474846,101.343638,187.922286,100.942671,178.587739,103.779215,201.411254,109.202034" />
<polygon fill="#84b9db" fill-opacity="0.501961" points="-3.191130,84.967601,55.756356,68.490904,83.554766,69.002215,76.796178,70.506718" />
<polygon fill="#89bbd9" fill-opacity="0.501961" points="119.778694,15.367799,120.440478,-16.000000,129.582551,24.365115,109.986213,20.451837" />
<polygon fill="#87c4e5" fill-opacity="0.501961" points="10.305779,112.362892,9.306599,100.071941,22.113493,99.468558,26.973936,104.510026" />
<polygon fill="#525548" fill-opacity="0.501961" points="18.392564,112.967637,10.355802,121.580345,9.379791,107.030266,-16.000000,104.424920" />
<polygon fill="#8092a2" fill-opacity="0.501961" points="149.702217,127.421033,146.252313,130.721499,170.225385,131.709141,183.721380,125.147593" />
<polygon fill="#e6fbfd" fill-opacity="0.501961" points="79.306390,8.815969,83.248176,-0.186672,43.370702,7.868124,78.062017,-4.604859" />
<polygon fill="#6496b5" fill-opacity="0.501961" points="58.644629,16.902425,66.333813,29.872638,56.029317,23.921118,43.550617,9.399905" />
<polygon fill="#42352e" fill-opacity="0.501961" points="128.113344,185.045549,136.645390,207.000000,191.782928,188.298961,74.772602,195.271020" />
<polygon fill="#5f9bc3" fill-opacity="0.501961" points="35.247275,92.155360,7.556122,94.017446,28.346757,104.524715,22.515453,107.381783" />
<polygon fill="#44423e" fill-opacity="0.501961" points="213.743451,185.518065,186.000371,177.244436,219.780363,193.899951,218.977656,169.911386" />
<polygon fill="#1c2b3e" fill-opacity="0.501961" points="157.304428,49.446499,160.602382,84.573311,156.566167,57.369914,154.898195,47.089726" />
<polygon fill="#1f425f" fill-opacity="0.501961" points="248.619840,5.835284,271.000000,-3.440379,208.949123,-5.368136,219.333684,-1.352278" />
<polygon fill="#c4e2e7" fill-opacity="0.501961" points="8.848959,113.957346,-6.917338,103.833719,10.790061,92.739096,-9.913676,108.632635" />
<polygon fill="#84b5c7" fill-opacity="0.501961" points="-16.000000,15.262125,25.804115,9.652255,21.550195,19.186782,9.364092,8.204687" />
<polygon fill="#45718a" fill-opacity="0.501961" points="31.698894,93.162598,22.004338,121.795983,23.690953,117.969653,15.230621,130.824335" />
<polygon fill="#daf5fa" fill-opacity="0.501961" points="18.673238,9.451747,10.422875,4.745591,30.130461,-0.952445,29.981220,7.834730" />
<polygon fill="#9ca69d" fill-opacity="0.501961" points="137.437042,73.122507,136.919381,79.607717,131.757988,80.029981,123.513097,72.094648" />
<polygon fill="#4d4c4b" fill-opacity="0.501961" points="10.445125,146.375467,45.192796,138.147097,-11.509644,166.339035,4.837645,206.348539" />
<polygon fill="#393934" fill-opacity="0.501961" points="90.285546,70.175495,125.174391,84.095891,60.381025,112.863953,56.527869,90.169377" />
<polygon fill="#9ea092" fill-opacity="0.501961" points="96.875886,137.877057,98.497860,120.446083,105.766030,117.524217,70.320673,132.896204" />
<polygon fill="#eefeff" fill-opacity="0.501961" points="84.661549,61.246349,66.518286,53.827055,42.151111,56.587593,84.787331,57.106322" />
<polygon fill="#958b85" fill-opacity="0.501961" points="174.689089,137.825768,76.720490,170.519240,133.544224,159.709139,114.707916,144.510710" />
<polygon fill="#48433e" fill-opacity="0.501961" points="175.023941,77.789471,197.567389,76.090906,190.948497,73.756383,163.675563,78.299696" />
<polygon fill="#8e9998" fill-opacity="0.501961" points="21.793820,139.057403,63.145208,131.461440,5.320090,135.815511,14.580918,121.894833" />
<polygon fill="#6699ab" fill-opacity="0.501961" points="151.584827,63.689576,151.842062,47.331189,157.996444,72.894589,174.786137,88.106827" />
<polygon fill="#6d9ebc" fill-opacity="0.501961" points="249.493195,106.498056,266.466351,43.847773,237.291557,101.405903,229.938792,89.204446" />
<polygon fill="#74a4c4" fill-opacity="0.501961" points="93.349048,34.503980,81.786484,31.938277,75.203770,56.497449,58.173612,38.660310" />
<polygon fill="#393c36" fill-opacity="0.501961" points="221.867976,197.234741,247.397856,181.215527,247.184129,200.566139,269.210627,184.200094" />
<polygon fill="#c5ccc8" fill-opacity="0.501961" points="101.800442,142.208243,64.152576,138.718738,68.153972,133.420146,97.440797,145.642407" />
<polygon fill="#afa598" fill-opacity="0.501961" points="165.581082,152.466244,213.187636,158.360305,213.665133,155.489207,202.743922,141.975205" />
<polygon fill="#2d2722" fill-opacity="0.501961" points="30.153828,176.366459,21.878758,194.582800,-16.000000,205.099945,42.255038,184.351683" />
<polygon fill="#212221" fill-opacity="0.501961" points="231.420004,103.286788,243.680751,98.413559,221.811469,119.684829,232.237969,120.493711" />
<polygon fill="#a48a4f" fill-opacity="0.501961" points="142.731360,72.182903,143.912175,71.790941,148.281977,94.105512,147.022566,66.324497" />
<polygon fill="#433f3c" fill-opacity="0.501961" points="24.400362,163.335233,20.483834,163.763480,69.732671,171.170053,34.065115,171.283586" />
<polygon fill="#6b6962" fill-opacity="0.501961" points="19.121746,207.000000,44.673574,180.666338,4.886254,165.890536,48.585333,174.577887" />
<polygon fill="#5181a6" fill-opacity="0.501961" points="223.174533,58.933238,242.667918,68.765760,245.255706,63.228023,192.497407,63.036993" />
<polygon fill="#a4d6f0" fill-opacity="0.501961" points="185.170935,73.677736,168.433236,74.585017,165.681550,71.824534,162.592195,51.717940" />
<polygon fill="#bbd1e1" fill-opacity="0.501961" points="177.861480,89.722843,158.394843,87.565764,194.805386,86.156408,181.605756,88.849469" />
<polygon fill="#c3b8a4" fill-opacity="0.501961" points="175.079800,178.288980,191.520804,175.422598,180.773911,164.365751,181.711880,173.783098" />
<polygon fill="#86b4d2" fill-opacity="0.501961" points="197.688385,30.169571,169.033191,48.250417,215.387649,30.166557,220.964378,33.196326" />
<polygon fill="#86b8d3" fill-opacity="0.501961" points="92.194203,25.284366,109.822576,-11.880764,208.381693,-16.000000,90.217473,6.489136" />
<polygon fill="#787c80" fill-opacity="0.501961" points="142.405611,111.576291,155.607099,94.747892,180.864694,89.329965,143.134978,100.156334" />
<polygon fill="#706055" fill-opacity="0.501961" points="174.740940,161.586344,50.841629,206.798836,168.691814,168.247305,204.021687,161.204358" />
<polygon fill="#726e67" fill-opacity="0.501961" points="5.196866,150.430683,-1.436142,157.569360,25.960943,157.949416,21.648521,151.732215" />
<polygon fill="#5e5d51" fill-opacity="0.501961" points="81.470634,115.350523,101.103653,103.187934,61.968579,109.940782,57.667476,127.627075" />
<polygon fill="#7d776f" fill-opacity="0.501961" points="197.236576,122.383180,151.471175,135.332695,220.601209,122.012979,183.592392,148.319146" />
<polygon fill="#264860" fill-opacity="0.501961" points="155.291254,87.724247,146.651779,60.969046,140.010315,71.834663,152.774296,61.740406" />
<polygon fill="#a9d6e7" fill-opacity="0.501961" points="77.438002,6.770631,104.486742,-6.948179,105.791864,5.582357,74.584512,-3.521140" />
<polygon fill="#d1eae9" fill-opacity="0.501961" points="5.930629,18.314658,-16.000000,42.336275,3.776007,3.351678,-16.000000,-11.191571" />
<polygon fill="#b5a496" fill-opacity="0.501961" points="82.274346,150.079606,88.827077,153.531730,99.685620,153.460699,101.797746,147.046515" />
<polygon fill="#a9c7da" fill-opacity="0.501961" points="103.231939,73.805294,98.338406,73.117023,94.324887,64.178667,95.076975,73.049973" />
<polygon fill="#4b3d33" fill-opacity="0.501961" points="129.433841,188.699217,103.903151,182.095814,117.843309,175.878575,120.083599,194.531391" />
<polygon fill="#0d0f10" fill-opacity="0.501961" points="196.176218,122.149118,200.950450,112.878174,192.365077,110.074223,189.705424,122.287847" />
<polygon fill="#89b4cd" fill-opacity="0.501961" points="229.614201,70.155116,196.426109,62.432333,236.713327,85.589906,242.638357,68.125662" />
<polygon fill="#555a54" fill-opacity="0.501961" points="271.000000,162.873330,250.290585,115.142185,271.000000,106.331997,241.201136,112.306658" />
<polygon fill="#4b7da2" fill-opacity="0.501961" points="225.327790,13.054124,204.801813,-16.000000,240.570586,13.483006,271.000000,2.357712" />
<polygon fill="#d2ecf2" fill-opacity="0.501961" points="4.278732,69.692375,13.631708,55.107306,23.236260,70.412227,11.606757,72.753941" />
<polygon fill="#5c4f4c" fill-opacity="0.501961" points="197.274371,172.371278,219.338864,168.548311,211.058673,168.382204,204.757090,161.681076" />
<polygon fill="#bdc0b8" fill-opacity="0.501961" points="73.625407,132.862933,58.148097,145.339839,58.532397,139.180547,88.471303,141.676052" />
<polygon fill="#5988ae" fill-opacity="0.501961" points="101.075152,40.012810,149.097308,-6.392892,121.143057,41.190018,81.318646,29.471244" />
<polygon fill="#171919" fill-opacity="0.501961" points="31.394039,84.528981,50.380403,106.842772,25.562194,113.793340,34.403254,91.301535" />
<polygon fill="#286587" fill-opacity="0.501961" points="140.985677,54.774810,146.299567,44.142536,146.509717,62.380459,113.879224,52.095381" />
<polygon fill="#604118" fill-opacity="0.501961" points="222.190181,92.394610,234.640369,101.457080,241.457100,115.039486,244.154887,101.969229" />
<polygon fill="#736b62" fill-opacity="0.501961" points="129.694159,87.630002,130.437473,116.640363,136.548323,107.878580,115.399126,78.835648" />
<polygon fill="#b2def0" fill-opacity="0.501961" points="123.509302,8.725013,118.358772,5.067635,125.722409,-3.790650,137.438944,-5.996315" />
<polygon fill="#fcffff" fill-opacity="0.501961" points="59.381315,-16.000000,59.828782,-16.000000,40.716905,8.551252,50.676245,4.525041" />
<polygon fill="#303442" fill-opacity="0.501961" points="167.685214,102.863214,150.596719,107.084447,151.673563,100.933009,166.736004,109.285807" />
<polygon fill="#897d77" fill-opacity="0.501961" points="154.832707,163.008443,145.424315,169.047563,137.294207,172.477379,152.880774,181.822364" />
<polygon fill="#6998bb" fill-opacity="0.501961" points="213.750014,45.789218,232.685476,43.768737,229.950200,55.511289,202.607652,53.581114" />
<polygon fill="#413e3b" fill-opacity="0.501961" points="107.581628,77.548012,108.014053,112.744309,98.662859,117.800799,95.186391,120.969773" />
<polygon fill="#7e7c6e" fill-opacity="0.501961" points="250.073084,192.560246,239.179004,155.871363,237.275163,177.696824,253.685797,184.015381" />
<polygon fill="#4d4437" fill-opacity="0.501961" points="58.615973,201.646438,65.696744,194.283154,57.645736,183.450633,88.903158,183.741262" />
<polygon fill="#695b44" fill-opacity="0.501961" points="200.697727,101.384595,234.318400,116.029532,193.229241,98.266151,181.428432,100.346481" />
<polygon fill="#644f31" fill-opacity="0.501961" points="90.902185,76.866608,86.416508,55.341411,91.799755,60.044816,94.184136,72.092214" />
<polygon fill="#343733" fill-opacity="0.501961" points="58.084500,125.485970,31.745264,131.057938,29.621631,113.746358,58.718796,125.393564" />
<polygon fill="#f8ffff" fill-opacity="0.501961" points="16.134203,61.480882,23.431835,62.304061,0.659818,68.889244,-16.000000,68.729742" />
<polygon fill="#b4d6e2" fill-opacity="0.501961" points="100.296340,59.483064,86.168475,51.817685,53.849644,53.463313,70.338930,48.920855" />
<polygon fill="#8c7d73" fill-opacity="0.501961" points="172.298600,161.366541,94.218999,156.067323,169.634953,157.543282,157.064525,178.157383" />
<polygon fill="#5b5550" fill-opacity="0.501961" points="163.532964,177.392389,177.458984,156.298743,178.532496,173.888859,168.607288,168.975931" />
<polygon fill="#514035" fill-opacity="0.501961" points="7.842194,130.492306,-16.000000,148.488086,-14.575433,120.439927,-10.508194,124.718963" />
<polygon fill="#867369" fill-opacity="0.501961" points="101.147872,175.622687,119.447201,175.360490,122.465080,181.820239,124.258986,169.476628" />
<polygon fill="#8f8f90" fill-opacity="0.501961" points="116.053323,116.721175,129.083496,99.719673,126.804488,86.323466,115.052911,106.993230" />
<polygon fill="#5e4b3b" fill-opacity="0.501961" points="151.410100,80.621750,135.493011,84.610080,145.942871,94.090197,145.486975,85.257363" />
<polygon fill="#756d60" fill-opacity="0.501961" points="200.525051,128.872060,225.007051,140.152916,224.194117,164.775904,234.399423,123.045837" />
<polygon fill="#8d816d" fill-opacity="0.501961" points="92.159224,172.546291,75.982220,171.092922,56.356558,173.298615,61.268332,176.894953" />
<polygon fill="#8c7247" fill-opacity="0.501961" points="225.780806,94.540786,207.490618,89.921125,226.844559,99.152450,207.697372,84.022513" />
<polygon fill="#80b0cc" fill-opacity="0.501961" points="195.201917,-16.000000,204.564952,4.141783,179.268270,12.221353,194.332222,21.186141" />
<polygon fill="#b0915a" fill-opacity="0.501961" points="186.686358,112.730668,181.148981,114.749054,181.864159,104.531233,168.622408,93.768358" />
<polygon fill="#e4b640" fill-opacity="0.501961" points="194.146519,87.598595,198.060089,96.447296,185.183259,86.738378,185.519696,96.012257" />
<polygon fill="#6e7074" fill-opacity="0.501961" points="203.563553,173.277883,212.080152,184.133886,195.006383,180.033316,182.162185,182.609859" />
<polygon fill="#b39560" fill-opacity="0.501961" points="200.913867,91.394185,204.316285,104.831885,207.863346,94.812810,202.001676,92.335675" />
<polygon fill="#598cb3" fill-opacity="0.501961" points="193.051559,5.512737,166.059564,21.198993,102.868252,8.055742,106.469239,14.281287" />
<polygon fill="#4f768d" fill-opacity="0.501961" points="159.593387,72.810289,166.284971,77.742213,157.709285,47.273981,159.276548,24.788925" />
<polygon fill="#887b70" fill-opacity="0.501961" points="124.847978,155.189111,107.582384,139.911872,105.595949,149.944151,57.422276,165.552601" />
<polygon fill="#d9e9e6" fill-opacity="0.501961" points="176.051511,78.702203,169.998432,77.827332,167.874488,72.047249,170.323390,86.408965" />
<polygon fill="#a3884a" fill-opacity="0.501961" points="145.295952,71.871498,128.411951,64.534431,144.535344,81.935597,137.841076,79.129879" />
<polygon fill="#346184" fill-opacity="0.501961" points="243.812033,32.789578,271.000000,53.795352,243.366997,60.287295,257.812900,32.443009" />
<polygon fill="#84acc3" fill-opacity="0.501961" points="213.540639,79.087720,199.160312,67.682364,193.277431,80.614671,229.390682,61.413685" />
<polygon fill="#1b1b20" fill-opacity="0.501961" points="133.210572,126.380719,127.238411,132.249182,127.652038,134.898110,147.252175,132.959208" />
<polygon fill="#5194b4" fill-opacity="0.501961" points="153.213371,61.493497,153.865415,41.981019,151.663761,23.599720,157.869566,84.744925" />
<polygon fill="#7dabc5" fill-opacity="0.501961" points="265.257213,105.119609,243.331283,104.705173,244.362691,90.917725,235.039052,95.471443" />
<polygon fill="#73a7ca" fill-opacity="0.501961" points="33.705733,78.113918,11.125437,77.831600,75.014501,63.047813,60.072488,58.169965" />
<polygon fill="#3f3224" fill-opacity="0.501961" points="202.222718,80.632047,217.518167,98.535273,209.781653,106.218875,206.292255,73.671020" />
<polygon fill="#3d678f" fill-opacity="0.501961" points="82.612963,33.431136,84.453117,15.280602,55.816335,14.644454,74.702201,38.622305" />
<polygon fill="#645d50" fill-opacity="0.501961" points="271.000000,145.309469,238.913044,149.440272,240.522844,155.718184,271.000000,148.858470" />
<polygon fill="#72a6ca" fill-opacity="0.501961" points="145.733074,10.863353,146.146312,7.590409,202.870011,-3.622862,164.459246,11.771563" />
<polygon fill="#9dc9dd" fill-opacity="0.501961" points="5.886312,90.444057,27.489655,82.688450,26.442938,86.151640,33.197354,91.636338" />
<polygon fill="#3b3330" fill-opacity="0.501961" points="174.084266,99.709773,156.054862,97.088955,165.288254,97.224215,181.290973,108.853963" />
<polygon fill="#6b675c" fill-opacity="0.501961" points="217.278044,150.993057,223.802626,112.302444,225.522829,135.208733,217.631882,111.045554" />
<polygon fill="#6e99b5" fill-opacity="0.501961" points="44.852864,24.828885,26.509358,22.912697,43.802994,20.789766,51.353669,53.775051" />
<polygon fill="#48779e" fill-opacity="0.501961" points="160.350380,35.807121,129.373346,6.139186,182.737581,41.101408,176.486530,12.516450" />
<polygon fill="#d2eef8" fill-opacity="0.501961" points="106.912497,26.934827,102.105743,23.013665,93.201206,22.088037,102.149377,33.337516" />
<polygon fill="#6c532c" fill-opacity="0.501961" points="82.057791,61.845017,128.852547,71.373618,114.716529,60.380113,119.157465,72.772191" />
<polygon fill="#bfb19c" fill-opacity="0.501961" points="178.995153,146.144205,169.184131,145.459013,191.801661,174.523659,180.721580,168.734379" />
<polygon fill="#9dc8de" fill-opacity="0.501961" points="203.844481,33.708525,216.988612,28.295940,240.286093,28.743314,235.946345,33.061917" />
<polygon fill="#504445" fill-opacity="0.501961" points="127.389466,172.883458,145.399339,165.254872,115.806934,174.276750,144.760260,177.160113" />
<polygon fill="#b9d8e8" fill-opacity="0.501961" points="118.988261,59.539874,119.093494,55.867502,105.954266,58.169922,114.776053,60.654914" />
<polygon fill="#a4d1de" fill-opacity="0.501961" points="262.677259,9.173936,250.081453,17.086818,242.786522,15.905693,251.859757,9.531467" />
<polygon fill="#bea168" fill-opacity="0.501961" points="140.361700,81.147687,126.255944,91.141120,140.380910,70.040485,140.741615,71.776657" />
<polygon fill="#84837b" fill-opacity="0.501961" points="240.671381,125.058977,192.221227,124.116374,204.184716,125.402216,178.435710,129.323486" />
<polygon fill="#252421" fill-opacity="0.501961" points="52.804316,115.106724,27.590489,84.927121,54.627867,79.504779,38.802272,119.209086" />
<polygon fill="#7f847e" fill-opacity="0.501961" points="36.882810,134.469801,141.796738,123.120602,27.365204,130.931523,33.183886,141.509429" />
<polygon fill="#e3f6f8" fill-opacity="0.501961" points="10.297610,12.739405,24.973488,-0.629447,37.184724,-8.682885,16.340500,11.402300" />
<polygon fill="#335b7b" fill-opacity="0.501961" points="34.391668,42.202096,35.959308,35.796919,-4.576114,27.869976,-15.551676,47.064486" />
<polygon fill="#424f60" fill-opacity="0.501961" points="183.532291,89.284281,171.464245,106.508135,180.493075,110.173808,173.698148,90.806935" />
<polygon fill="#3c3d3c" fill-opacity="0.501961" points="9.999735,140.114655,9.844599,136.114120,-16.000000,142.679256,-16.000000,138.202887" />
<polygon fill="#82b6d6" fill-opacity="0.501961" points="172.837540,36.661417,179.468213,70.546450,164.108149,69.601874,183.403981,61.156521" />
<polygon fill="#695d59" fill-opacity="0.501961" points="145.936884,157.091538,90.000927,177.666886,105.807368,154.263847,85.952326,171.296109" />
<polygon fill="#9a5506" fill-opacity="0.501961" points="213.269585,88.810099,209.121114,94.653395,193.947628,85.685641,200.152710,85.332606" />
<polygon fill="#467a96" fill-opacity="0.501961" points="31.759296,17.316555,-7.864670,35.016312,4.323044,24.032256,31.721581,14.725815" />
<polygon fill="#eaf9f3" fill-opacity="0.501961" points="99.015496,59.782272,97.529346,54.420174,94.525322,59.945884,94.181815,54.814158" />
<polygon fill="#57514b" fill-opacity="0.501961" points="17.821871,180.254850,54.718264,137.574677,52.400874,136.767805,57.422261,141.243936" />
<polygon fill="#aba7a3" fill-opacity="0.501961" points="114.557553,146.026499,125.659908,147.448875,125.594036,152.674920,126.711208,141.147217" />
<polygon fill="#6e6c69" fill-opacity="0.501961" points="116.813436,117.903485,110.270006,102.884068,102.262719,120.624048,151.624980,120.984072" />
<polygon fill="#3c4845" fill-opacity="0.501961" points="188.921534,79.887833,187.232471,73.677730,194.606390,73.795627,190.462206,83.952734" />
<polygon fill="#4776a0" fill-opacity="0.501961" points="52.226037,24.787454,67.479996,45.073010,53.316041,50.177587,64.157558,24.065692" />
<polygon fill="#3395ce" fill-opacity="0.501961" points="5.570510,5.745389,27.273070,-16.000000,12.225932,-16.000000,21.378641,-0.837439" />
<polygon fill="#383b40" fill-opacity="0.501961" points="211.555473,188.205771,199.767174,186.301140,201.360059,207.000000,193.714242,178.354695" />
<polygon fill="#2a2015" fill-opacity="0.501961" points="229.842503,90.699058,235.363141,118.145145,237.613964,102.583736,226.588874,96.901798" />
<polygon fill="#8b8375" fill-opacity="0.501961" points="217.294442,145.704225,239.244237,165.480483,211.489255,172.859931,231.322925,173.654281" />
<polygon fill="#bbdce9" fill-opacity="0.501961" points="191.337206,67.463666,167.593285,74.601415,178.657339,74.740457,198.957560,69.365904" />
<polygon fill="#6f726f" fill-opacity="0.501961" points="7.833029,169.105760,25.645309,167.670715,16.817669,177.744307,13.044114,178.044925" />
<polygon fill="#3f6c94" fill-opacity="0.501961" points="208.837653,31.629270,193.151015,24.264647,210.517144,18.808558,210.991330,32.383984" />
<polygon fill="#113251" fill-opacity="0.501961" points="118.254980,54.932534,148.334872,46.652345,140.589886,45.830568,121.287337,49.680911" />
<polygon fill="#c2e2ed" fill-opacity="0.501961" points="23.843130,11.613050,24.277101,9.801438,54.057540,21.187763,48.902828,23.454827" />
<polygon fill="#9ecfe7" fill-opacity="0.501961" points="24.067999,111.263731,10.725646,110.270928,6.631387,105.708866,20.266391,107.401443" />
<polygon fill="#7c7064" fill-opacity="0.501961" points="127.808570,89.959518,156.167896,148.378576,147.338896,132.858351,130.087536,100.471351" />
<polygon fill="#3f3f43" fill-opacity="0.501961" points="44.408734,139.705832,24.104964,149.531223,37.737792,142.669759,27.646323,140.566954" />
<polygon fill="#8a7043" fill-opacity="0.501961" points="110.972735,61.551881,106.741071,66.946922,97.579758,74.651983,109.273351,71.075554" />
<polygon fill="#747270" fill-opacity="0.501961" points="73.111532,144.551821,38.757612,141.311799,51.012840,153.354906,86.465555,143.979985" />
<polygon fill="#726048" fill-opacity="0.501961" points="157.035163,179.253008,166.751250,172.391257,167.246924,174.491398,158.880293,201.047961" />
<polygon fill="#b4dbec" fill-opacity="0.501961" points="49.288300,70.088431,17.758339,62.574641,22.666915,68.622519,41.700581,72.605014" />
<polygon fill="#1d3142" fill-opacity="0.501961" points="162.648752,49.234804,156.391677,57.970958,158.909610,78.826417,156.268089,50.916563" />
<polygon fill="#233a3d" fill-opacity="0.501961" points="-13.243612,111.533511,12.620892,117.145692,14.874130,113.709825,-2.143357,113.112001" />
<polygon fill="#7eabcb" fill-opacity="0.501961" points="79.896510,50.140072,100.780119,48.006598,114.781578,37.100352,107.232021,56.590054" />
<polygon fill="#534f4d" fill-opacity="0.501961" points="119.937106,113.463862,151.867395,116.980067,144.415382,120.552394,130.638497,116.943477" />
<polygon fill="#7d868c" fill-opacity="0.501961" points="127.648515,124.562834,114.502002,123.788683,106.009707,142.120561,124.148811,137.057838" />
<polygon fill="#6c6b69" fill-opacity="0.501961" points="190.201341,107.953099,177.525850,127.041787,156.546382,123.672739,171.616834,128.640483" />
<polygon fill="#bfc5ca" fill-opacity="0.501961" points="152.402247,107.760537,172.017230,112.551843,136.353783,110.505167,145.377297,108.351763" />
<polygon fill="#979186" fill-opacity="0.501961" points="180.607046,134.590936,173.748475,117.218351,131.468872,114.115025,160.695932,112.150743" />
<polygon fill="#403d38" fill-opacity="0.501961" points="23.716948,162.300365,-16.000000,157.521511,-13.782814,169.396629,14.861171,162.430620" />
<polygon fill="#4e4d4e" fill-opacity="0.501961" points="143.693543,103.518097,142.754858,119.036425,135.658331,127.336382,147.097227,118.204162" />
<polygon fill="#958b7d" fill-opacity="0.501961" points="149.128300,173.808789,140.022527,168.983523,130.933865,173.430634,127.266474,173.689662" />
<polygon fill="#57a7d3" fill-opacity="0.501961" points="8.164081,12.526731,17.031336,-2.311098,18.747342,-16.000000,11.064682,12.969658" />
<polygon fill="#a1c5d4" fill-opacity="0.501961" points="233.441651,78.226091,217.336566,73.668556,217.711057,90.863616,207.022063,82.723064" />
<polygon fill="#222a3a" fill-opacity="0.501961" points="148.465525,58.550564,149.389835,82.844794,154.583406,87.164886,147.885332,39.047790" />
<polygon fill="#477f9e" fill-opacity="0.501961" points="176.301744,77.774335,190.077582,76.721631,181.704773,87.010213,174.498935,80.419826" />
<polygon fill="#accfde" fill-opacity="0.501961" points="194.295096,78.628100,200.320362,72.924277,202.975822,74.591439,203.843442,77.373473" />
<polygon fill="#332a18" fill-opacity="0.501961" points="115.408674,44.406268,128.437113,46.469326,149.579833,39.650306,129.719713,40.697720" />
<polygon fill="#608fb0" fill-opacity="0.501961" points="224.137037,49.072676,191.390424,56.801347,255.087249,31.139732,267.257299,10.646478" />
<polygon fill="#6b9fba" fill-opacity="0.501961" points="58.960209,7.818327,63.714418,4.516706,76.545331,3.254377,75.468357,15.096461" />
<polygon fill="#343435" fill-opacity="0.501961" points="96.342998,76.708197,82.002810,62.903835,91.602047,60.585261,74.407641,88.840863" />
<polygon fill="#a0abaa" fill-opacity="0.501961" points="58.575525,130.871071,59.994091,143.267114,92.950793,125.719773,40.110166,143.278654" />
<polygon fill="#9acae4" fill-opacity="0.501961" points="74.178291,58.848380,70.609744,51.873346,84.668023,69.228394,64.269718,73.074043" />
<polygon fill="#595348" fill-opacity="0.501961" points="232.583908,177.923782,206.331333,178.296794,239.944617,170.716343,218.862165,207.000000" />
<polygon fill="#c8edfa" fill-opacity="0.501961" points="171.785861,-5.780482,151.905471,3.771390,143.435200,-16.000000,123.343617,1.537277" />
<polygon fill="#bbdae3" fill-opacity="0.501961" points="13.631744,29.420506,20.678347,29.917189,60.542772,4.991906,34.844533,18.733344" />
<polygon fill="#8f5512" fill-opacity="0.501961" points="192.287502,107.127834,208.907164,112.126294,175.427031,109.257326,188.059176,105.252546" />
<polygon fill="#8e867d" fill-opacity="0.501961" points="191.215441,121.554534,186.704443,150.508913,237.056234,146.796911,175.902092,147.668413" />
<polygon fill="#aac5cf" fill-opacity="0.501961" points="94.420570,51.409590,91.414894,58.515886,98.587691,64.651046,90.770641,61.097271" />
<polygon fill="#7e6532" fill-opacity="0.501961" points="9.131437,120.464540,-16.000000,111.250006,-14.194095,111.157002,9.838822,117.615220" />
<polygon fill="#9cc6da" fill-opacity="0.501961" points="83.067814,-16.000000,60.015874,-16.568082,42.943631,32.117549,46.737926,8.719340" />
<polygon fill="#979893" fill-opacity="0.501961" points="150.762337,127.579376,145.057839,120.960545,185.776586,119.611378,155.711845,121.423196" />
<polygon fill="#483b2e" fill-opacity="0.501961" points="198.869491,187.950049,263.211982,207.000000,162.961210,186.334457,166.421299,200.064754" />
<polygon fill="#5f8fb3" fill-opacity="0.501961" points="136.542150,38.285333,125.262833,40.846373,80.769795,-16.000000,115.096087,35.501157" />
<polygon fill="#4d81a8" fill-opacity="0.501961" points="242.278501,80.099045,257.390211,79.220115,233.672082,93.141240,233.598254,96.324847" />
<polygon fill="#ada199" fill-opacity="0.501961" points="161.094100,143.569129,183.636622,163.933922,156.152517,134.729382,184.805366,136.730432" />
<polygon fill="#524234" fill-opacity="0.501961" points="143.417913,67.871834,142.571096,83.866950,137.294332,90.513555,146.052195,91.881649" />
<polygon fill="#5f625d" fill-opacity="0.501961" points="211.265977,136.522021,208.858207,99.447234,205.910394,111.616764,207.807612,112.467950" />
<polygon fill="#699dc0" fill-opacity="0.501961" points="114.254993,-9.651463,88.669108,26.433518,129.198449,-11.400400,116.330945,6.745588" />
<polygon fill="#907d4c" fill-opacity="0.501961" points="116.452400,68.466910,119.215127,84.576446,121.900477,76.612137,101.581136,56.462837" />
<polygon fill="#93836d" fill-opacity="0.501961" points="180.816811,189.208562,173.973915,184.433536,181.653436,179.842217,186.834995,140.073169" />
<polygon fill="#5e8eb1" fill-opacity="0.501961" points="228.737063,86.145235,230.963812,84.961403,218.770533,80.757060,219.341582,93.246448" />
<polygon fill="#716a68" fill-opacity="0.501961" points="151.909136,131.785383,154.162856,143.168187,114.391409,137.106673,164.836777,133.751859" />
<polygon fill="#dec69c" fill-opacity="0.501961" points="184.172658,173.764066,180.141845,168.635393,193.907309,164.114890,190.321337,166.279814" />
<polygon fill="#f5fffe" fill-opacity="0.501961" points="22.930157,68.311305,23.546827,63.010349,40.034572,67.804916,35.783690,58.206357" />
<polygon fill="#232529" fill-opacity="0.501961" points="101.416513,85.770118,110.908598,96.548072,115.409201,84.920421,117.616596,86.587734" />
<polygon fill="#ab8e43" fill-opacity="0.501961" points="123.068529,82.426748,114.520865,74.619250,124.978910,70.402739,125.623373,86.735770" />
<polygon fill="#59534d" fill-opacity="0.501961" points="22.233603,153.110695,81.506209,162.277620,89.360100,159.454460,91.045141,165.145040" />
<polygon fill="#7daac8" fill-opacity="0.501961" points="46.119145,54.435313,57.065518,75.208968,40.745157,56.391976,37.473210,55.397354" />
<polygon fill="#3c6a94" fill-opacity="0.501961" points="196.657062,40.171671,215.783999,41.691451,199.251810,48.162545,192.596146,43.780888" />
<polygon fill="#a4cee1" fill-opacity="0.501961" points="109.483520,-16.000000,93.771006,11.711422,89.236193,8.584949,101.111009,4.162289" />
<polygon fill="#7c7a69" fill-opacity="0.501961" points="227.964274,178.318787,226.895648,182.510117,222.306039,185.124163,227.583684,189.945482" />
<polygon fill="#71f8ff" fill-opacity="0.501961" points="132.887357,64.023965,132.037806,58.447629,131.124930,57.960451,131.146168,64.559290" />
<polygon fill="#5bcfe2" fill-opacity="0.501961" points="130.115325,56.189554,122.411645,61.205676,124.601508,54.069590,129.132930,56.693798" />
<polygon fill="#d9edef" fill-opacity="0.501961" points="10.830262,19.839937,17.316056,7.403852,1.153503,21.370523,-2.700755,10.286398" />
<polygon fill="#53463f" fill-opacity="0.501961" points="87.523008,176.276805,86.489232,179.624170,88.407237,180.804916,116.799025,168.229145" />
<polygon fill="#5789ab" fill-opacity="0.501961" points="234.502099,26.160881,239.269366,25.004132,253.758027,21.363437,229.070405,21.433793" />
<polygon fill="#c5cdcb" fill-opacity="0.501961" points="95.332450,143.288360,92.768477,134.982786,72.705106,145.157315,79.931615,135.437029" />
<polygon fill="#71a0bc" fill-opacity="0.501961" points="253.515613,58.595943,242.330214,62.233641,271.000000,75.159499,227.895430,79.065442" />
<polygon fill="#332c29" fill-opacity="0.501961" points="45.797970,182.458151,23.317812,190.438149,29.831990,175.462143,6.013087,181.108014" />
<polygon fill="#aa9e8c" fill-opacity="0.501961" points="219.915261,160.218705,203.978804,154.915966,213.723006,139.393658,210.436184,168.243872" />
<polygon fill="#235478" fill-opacity="0.501961" points="127.270148,64.546579,127.465640,50.165457,121.541092,55.147093,139.063896,46.554633" />
<polygon fill="#505257" fill-opacity="0.501961" points="112.911247,143.149707,138.775940,131.831390,121.125209,137.662709,90.339947,149.462304" />
<polygon fill="#336a82" fill-opacity="0.501961" points="147.087300,55.942609,134.023856,65.243462,132.802551,47.929495,147.197794,69.520858" />
<polygon fill="#b8ae97" fill-opacity="0.501961" points="138.255628,88.296505,141.427653,113.861261,144.293929,100.641209,132.832229,90.703306" />
<polygon fill="#d6eff3" fill-opacity="0.501961" points="81.929071,64.393949,77.339862,58.841278,73.987856,58.311573,87.179640,56.450606" />
<polygon fill="#bfdff0" fill-opacity="0.501961" points="198.623985,56.908172,191.459247,51.623386,190.605034,55.313950,180.553262,57.609160" />
<polygon fill="#9aadbb" fill-opacity="0.501961" points="193.711132,94.787162,190.181807,98.136368,190.234642,95.813062,189.144989,92.729188" />
<polygon fill="#f2fffc" fill-opacity="0.501961" points="0.692240,95.282510,-1.219289,105.014892,-4.705164,103.418757,10.091499,95.918503" />
<polygon fill="#0f2b28" fill-opacity="0.501961" points="245.965913,105.033907,269.004252,115.955511,271.000000,100.884643,242.231136,110.614417" />
<polygon fill="#90877f" fill-opacity="0.501961" points="96.125245,144.612807,80.289854,159.877189,66.445033,153.105063,46.162085,151.538745" />
<polygon fill="#e2f6fa" fill-opacity="0.501961" points="101.812176,25.100894,99.460408,19.926840,93.358611,30.084910,94.267531,29.862807" />
<polygon fill="#9ba6ae" fill-opacity="0.501961" points="181.252436,127.396479,165.099582,128.263180,148.075309,132.343090,166.516170,130.330614" />
<polygon fill="#6898be" fill-opacity="0.501961" points="123.224336,34.774319,139.575553,-16.000000,157.182955,-8.759019,114.144020,24.684576" />
<polygon fill="#544b41" fill-opacity="0.501961" points="189.723782,182.857281,174.324331,183.193387,169.204869,179.917952,168.797607,178.459119" />
<polygon fill="#636058" fill-opacity="0.501961" points="211.128483,143.977957,226.362726,144.206968,230.343756,145.448222,224.863305,147.747554" />
<polygon fill="#7f511a" fill-opacity="0.501961" points="154.801039,93.106740,156.958597,89.006583,157.084503,84.225041,149.484853,83.972106" />
<polygon fill="#8d8276" fill-opacity="0.501961" points="172.636675,180.148119,188.560864,145.567075,178.447895,170.312003,167.359347,170.961465" />
<polygon fill="#83817c" fill-opacity="0.501961" points="173.981470,116.103448,175.869867,115.967675,179.415288,108.236627,172.598117,108.490264" />
<polygon fill="#3b678f" fill-opacity="0.501961" points="62.086851,11.297739,93.618075,29.795032,46.092734,36.543345,79.411495,11.065237" />
<polygon fill="#98c1da" fill-opacity="0.501961" points="212.732950,53.108720,226.213387,52.908812,228.885644,49.533214,162.140681,61.480418" />
<polygon fill="#6290ac" fill-opacity="0.501961" points="8.500646,37.819848,35.368653,11.680691,26.160937,24.258310,12.275101,26.561522" />
<polygon fill="#544b38" fill-opacity="0.501961" points="43.681186,179.968716,49.099779,193.867953,28.980620,189.456764,81.874660,177.805635" />
<polygon fill="#554e42" fill-opacity="0.501961" points="230.459135,128.379587,208.776206,127.775702,233.232463,126.390355,239.747936,127.413737" />
<polygon fill="#8db8ca" fill-opacity="0.501961" points="238.959846,40.545431,249.391795,41.257482,242.070005,44.008740,239.622918,40.833335" />
<polygon fill="#8b8075" fill-opacity="0.501961" points="158.124048,184.829649,225.000737,131.595719,159.644330,182.300005,125.205035,160.224736" />
<polygon fill="#857b70" fill-opacity="0.501961" points="83.964606,160.327723,141.129296,148.515965,48.325945,166.285639,33.067682,164.566744" />
<polygon fill="#817a6c" fill-opacity="0.501961" points="213.274863,132.114129,236.288623,145.578317,271.000000,144.257770,254.355174,138.029968" />
<polygon fill="#94a7b2" fill-opacity="0.501961" points="-1.944634,141.775146,-16.000000,141.345542,12.445091,132.377673,-9.455452,142.286868" />
<polygon fill="#939a93" fill-opacity="0.501961" points="9.102472,137.917267,20.902033,125.887239,34.226408,140.706814,39.407207,132.322395" />
<polygon fill="#524946" fill-opacity="0.501961" points="175.657133,160.992626,174.965486,168.652844,159.573954,164.816878,153.361067,175.201355" />
<polygon fill="#433423" fill-opacity="0.501961" points="106.380903,75.386434,104.870557,69.070620,106.094578,57.047278,99.589334,60.708741" />
<polygon fill="#91877f" fill-opacity="0.501961" points="129.521455,151.495516,117.978999,166.892896,165.221897,147.133340,151.854129,137.402221" />
<polygon fill="#6e8a96" fill-opacity="0.501961" points="159.637486,68.060644,167.498157,79.943348,165.954687,87.426262,159.350410,53.348691" />
<polygon fill="#4f4b4d" fill-opacity="0.501961" points="156.659516,159.409710,111.413267,168.029687,145.913824,168.035012,156.081430,162.599328" />
<polygon fill="#78aac8" fill-opacity="0.501961" points="18.916226,77.001735,37.622312,82.211814,23.133363,85.423904,31.037794,64.032910" />
<polygon fill="#638696" fill-opacity="0.501961" points="154.145729,26.365844,147.344743,33.118977,164.406853,51.600761,150.097037,41.347118" />
<polygon fill="#857e6b" fill-opacity="0.501961" points="-3.913350,176.174367,-16.000000,182.754319,7.801081,176.165837,-16.000000,173.694266" />
<polygon fill="#a39375" fill-opacity="0.501961" points="167.325278,115.308165,156.035378,118.226264,136.073092,120.930278,169.999261,120.455058" />
<polygon fill="#504b40" fill-opacity="0.501961" points="114.618704,95.794039,75.217025,110.482099,84.450492,91.658120,110.384987,106.399742" />
<polygon fill="#75a3bd" fill-opacity="0.501961" points="234.021281,93.918413,267.938301,75.743214,244.729712,97.478604,234.611253,99.381547" />
<polygon fill="#5c5959" fill-opacity="0.501961" points="25.373603,152.469581,68.518720,141.893961,79.098906,140.632120,52.164829,147.229976" />
<polygon fill="#b2daea" fill-opacity="0.501961" points="201.216707,6.897694,191.347460,16.506614,192.678668,16.629273,214.639434,4.630041" />
<polygon fill="#826c48" fill-opacity="0.501961" points="227.202915,100.243113,230.604322,105.877982,208.668910,86.354085,219.163487,89.654657" />
<polygon fill="#80807e" fill-opacity="0.501961" points="-16.000000,132.843080,9.356774,144.355420,26.219442,137.990387,-16.000000,145.758319" />
<polygon fill="#afa59c" fill-opacity="0.501961" points="190.892050,143.169582,168.580897,158.573376,171.055139,132.113622,161.458107,150.028904" />
<polygon fill="#666155" fill-opacity="0.501961" points="232.805110,169.810613,254.550739,163.068199,246.735368,113.678993,252.653737,170.351347" />
<polygon fill="#82acc1" fill-opacity="0.501961" points="-16.000000,84.052528,-13.172703,60.963165,12.220908,62.091907,4.923299,54.254486" />
<polygon fill="#423d3f" fill-opacity="0.501961" points="87.449608,142.307118,90.316629,144.901497,83.764834,143.203338,83.457123,142.944391" />
<polygon fill="#8b8773" fill-opacity="0.501961" points="243.009817,184.008587,238.761873,181.687780,246.843842,176.679814,236.088016,175.155546" />
<polygon fill="#82786c" fill-opacity="0.501961" points="126.518768,184.508418,142.632441,188.987496,97.170726,207.000000,149.434460,207.000000" />
<polygon fill="#d39207" fill-opacity="0.501961" points="186.261976,103.192132,201.820276,110.171269,196.017041,108.797646,185.892857,92.594662" />
<polygon fill="#444042" fill-opacity="0.501961" points="65.018429,142.608008,68.953008,142.517881,75.231059,142.822526,67.948343,140.331127" />
<polygon fill="#bba77c" fill-opacity="0.501961" points="137.261261,108.656076,146.467572,93.541116,146.940643,81.275148,151.459601,87.990249" />
<polygon fill="#94c0d8" fill-opacity="0.501961" points="74.133459,72.736708,78.182270,45.555543,66.616163,38.731327,80.913053,38.847969" />
<polygon fill="#70a1c3" fill-opacity="0.501961" points="229.258283,54.949182,212.757636,-0.989433,227.338440,14.264495,214.165505,17.713326" />
<polygon fill="#5c8bb1" fill-opacity="0.501961" points="185.809220,25.423357,206.707437,14.080232,171.265208,24.996810,197.649081,44.622423" />
<polygon fill="#5b5958" fill-opacity="0.501961" points="7.421205,152.687294,18.142347,134.990725,31.831997,156.061454,30.908501,138.461696" />
<polygon fill="#899298" fill-opacity="0.501961" points="116.934480,138.163613,99.602171,143.896349,109.762791,143.520241,115.388120,125.487331" />
<polygon fill="#41270e" fill-opacity="0.501961" points="217.380984,98.164981,229.465352,94.865325,232.594473,95.663164,216.467287,103.059223" />
<polygon fill="#4b7ba3" fill-opacity="0.501961" points="91.718520,36.734098,73.182159,6.499821,100.742876,38.562728,95.461929,41.454829" />
<polygon fill="#a99064" fill-opacity="0.501961" points="189.277756,72.665488,174.435947,75.612695,189.015747,74.037782,192.883914,71.405512" />
<polygon fill="#1c2932" fill-opacity="0.501961" points="157.516341,51.611532,162.272783,55.088808,154.236555,43.112966,159.532154,67.217463" />
<polygon fill="#9ccce0" fill-opacity="0.501961" points="26.851588,-16.000000,55.367825,2.432496,69.553352,-3.727804,27.606096,3.919032" />
<polygon fill="#9eabad" fill-opacity="0.501961" points="10.095016,131.202886,11.791887,138.510530,30.209101,132.151095,23.881563,139.963192" />
<polygon fill="#4c9aba" fill-opacity="0.501961" points="151.476165,59.916344,155.511569,57.781633,157.816734,76.683712,158.436381,82.327559" />
<polygon fill="#4d7da2" fill-opacity="0.501961" points="235.101545,60.260971,251.227614,69.361542,230.913116,68.075745,237.752319,33.882870" />
<polygon fill="#604e2f" fill-opacity="0.501961" points="156.966052,68.789813,111.967249,72.752163,102.199454,54.074274,101.850486,70.544588" />
<polygon fill="#dcf3f9" fill-opacity="0.501961" points="64.257904,52.506217,43.082017,58.598086,52.146464,58.376567,63.929767,56.081614" />
<polygon fill="#454848" fill-opacity="0.501961" points="58.121497,112.164160,64.221740,109.230425,42.638992,131.108359,60.176736,124.697709" />
<polygon fill="#94b5cb" fill-opacity="0.501961" points="187.665742,87.574257,190.322520,83.862082,179.321608,87.475390,166.539763,84.473555" />
<polygon fill="#a49b8b" fill-opacity="0.501961" points="172.229254,98.374669,167.251330,97.463431,165.529918,75.733706,159.899724,72.843953" />
<polygon fill="#6f6f6a" fill-opacity="0.501961" points="107.107848,132.664871,107.578746,138.917060,112.829817,130.963864,96.622844,114.700222" />
<polygon fill="#1d2225" fill-opacity="0.501961" points="61.453100,76.778143,45.476190,76.157602,36.538390,79.424709,34.184951,85.827388" />
<polygon fill="#907752" fill-opacity="0.501961" points="135.249987,87.340464,124.480470,92.358334,135.216773,84.752897,145.751330,87.347200" />
<polygon fill="#767367" fill-opacity="0.501961" points="38.126836,175.169032,43.183574,182.067030,49.533887,177.461472,48.652959,176.586517" />
<polygon fill="#7baaca" fill-opacity="0.501961" points="187.397695,36.885758,182.357894,55.807806,193.109578,49.914916,173.576589,42.463250" />
<polygon fill="#33322e" fill-opacity="0.501961" points="271.000000,191.355765,254.877565,201.450520,245.521037,183.175494,237.476805,187.860432" />
<polygon fill="#535965" fill-opacity="0.501961" points="143.666927,96.203182,145.142747,100.967253,174.618973,101.556320,142.760972,96.594443" />
<polygon fill="#b6d5e2" fill-opacity="0.501961" points="34.194612,52.016504,24.316963,54.364820,39.021398,59.598969,43.468518,71.089460" />
<polygon fill="#588ab0" fill-opacity="0.501961" points="249.810092,100.891622,271.000000,102.543481,238.995774,94.098385,271.000000,85.809470" />
<polygon fill="#c5cdd5" fill-opacity="0.501961" points="172.872637,113.967600,164.726073,113.803906,159.188164,110.002560,167.357714,109.138853" />
<polygon fill="#73a1c2" fill-opacity="0.501961" points="102.610700,22.691851,115.086865,10.416106,104.238275,43.901585,119.266463,53.052165" />
<polygon fill="#9ac9e5" fill-opacity="0.501961" points="82.856155,70.136535,54.620173,72.093329,71.813853,64.158555,81.393129,61.552918" />
<polygon fill="#ad9261" fill-opacity="0.501961" points="186.778119,118.834322,180.532512,112.465372,185.387128,107.077340,185.797295,118.721770" />
<polygon fill="#1e1d21" fill-opacity="0.501961" points="216.407132,121.787500,207.974217,93.592464,209.718629,105.098654,211.053727,122.072007" />
<polygon fill="#1d2020" fill-opacity="0.501961" points="230.315400,121.898545,245.939725,110.681554,239.085560,119.041224,221.346666,110.594479" />
<polygon fill="#60b9d0" fill-opacity="0.501961" points="141.483913,65.866512,135.203588,67.228360,138.654818,59.849567,145.543772,64.903150" />
<polygon fill="#78a7c5" fill-opacity="0.501961" points="217.582511,42.416211,231.214826,38.429776,231.956813,28.879109,216.716248,40.714845" />
<polygon fill="#a9d8e5" fill-opacity="0.501961" points="6.923457,109.883431,5.997124,112.934994,-16.000000,98.491565,-5.518539,114.424062" />
<polygon fill="#447197" fill-opacity="0.501961" points="176.993314,34.450161,160.641894,24.802353,132.121215,11.954731,135.710774,25.477533" />
<polygon fill="#5d86a3" fill-opacity="0.501961" points="117.085879,51.883471,114.490934,65.069458,115.974768,48.075575,119.565062,52.227707" />
<polygon fill="#0b182c" fill-opacity="0.501961" points="179.092603,76.188170,194.638460,76.615686,191.292379,74.992052,184.219718,75.668095" />
<polygon fill="#999083" fill-opacity="0.501961" points="203.024818,138.442356,216.453841,134.123454,213.762433,160.122699,229.632825,153.220059" />
<polygon fill="#615348" fill-opacity="0.501961" points="127.020369,179.885368,90.458383,174.191368,120.402543,182.303372,171.987597,182.622796" />
<polygon fill="#aca49c" fill-opacity="0.501961" points="88.245258,154.244006,100.586295,150.154231,86.569673,145.212513,89.830088,144.529421" />
<polygon fill="#b3a796" fill-opacity="0.501961" points="189.567608,154.369197,178.796787,159.442642,183.526495,158.364097,223.347843,154.728017" />
<polygon fill="#72a7ca" fill-opacity="0.501961" points="29.588684,80.543008,44.200048,73.206285,35.465882,69.667620,7.579063,76.924617" />
<polygon fill="#524a47" fill-opacity="0.501961" points="148.909796,156.083014,148.795951,160.610804,163.648508,168.398800,140.950248,162.368166" />
<polygon fill="#635854" fill-opacity="0.501961" points="223.424236,169.166216,211.398074,172.210445,199.539214,164.281592,198.992863,163.828861" />
<polygon fill="#b6d3e0" fill-opacity="0.501961" points="190.290781,88.938096,174.270671,90.142363,170.578886,81.214279,176.531532,86.670290" />
<polygon fill="#1b242b" fill-opacity="0.501961" points="202.123891,112.404425,185.030656,121.756497,206.094402,124.519643,207.338231,113.261651" />
<polygon fill="#d1e8ec" fill-opacity="0.501961" points="98.775697,53.313703,98.489816,55.789551,78.701845,51.629065,99.048401,58.930548" />
<polygon fill="#5784a9" fill-opacity="0.501961" points="51.780814,49.410679,84.122714,44.783751,53.321239,46.131863,-6.424195,59.867031" />
<polygon fill="#77a2af" fill-opacity="0.501961" points="-9.416193,4.602863,-16.000000,-1.038850,5.796724,13.488861,6.396635,9.845760" />
<polygon fill="#5b5149" fill-opacity="0.501961" points="139.879904,110.687028,136.302367,116.317848,147.920085,116.284530,128.679261,113.201577" />
<polygon fill="#ab7521" fill-opacity="0.501961" points="204.737391,100.716881,202.475109,108.538064,205.659073,112.975294,207.815586,86.343929" />
<polygon fill="#e0f4f7" fill-opacity="0.501961" points="49.719462,-9.323330,64.554613,-11.650857,32.678632,21.726207,40.270571,19.927903" />
<polygon fill="#8b7860" fill-opacity="0.501961" points="99.582251,186.885387,83.061138,189.096615,87.235014,186.148378,94.806560,177.577358" />
<polygon fill="#554422" fill-opacity="0.501961" points="-16.000000,122.983264,18.264830,114.409869,17.392855,119.176672,0.471035,116.909943" />
<polygon fill="#514f48" fill-opacity="0.501961" points="19.361750,180.904146,20.191536,185.723519,-16.000000,172.723889,12.216741,190.223213" />
<polygon fill="#324556" fill-opacity="0.501961" points="183.586833,97.026101,173.831238,100.541863,183.850153,90.121137,185.382296,96.041897" />
<polygon fill="#456d8f" fill-opacity="0.501961" points="21.139696,58.259193,13.275827,52.886015,22.781352,41.893391,30.371687,47.367912" />
<polygon fill="#80551c" fill-opacity="0.501961" points="217.734574,104.112246,232.291906,94.790715,241.445659,107.943217,236.315085,100.617531" />
<polygon fill="#79786c" fill-opacity="0.501961" points="263.797451,124.104501,226.238637,124.269415,265.081559,133.666929,233.230016,129.069337" />
<polygon fill="#aea69c" fill-opacity="0.501961" points="188.386191,176.066219,201.352623,174.405692,186.890768,172.456716,179.230783,182.415664" />
<polygon fill="#edd7a6" fill-opacity="0.501961" points="133.612501,94.350212,130.247456,93.525457,141.831091,93.064398,130.831583,94.819516" />
<polygon fill="#7a695b" fill-opacity="0.501961" points="193.872834,175.134301,185.985391,207.000000,190.132301,175.933395,197.088835,204.104604" />
<polygon fill="#5a5b60" fill-opacity="0.501961" points="172.157751,124.788397,153.064751,120.910507,154.967690,129.711887,156.009252,127.199603" />
</g>
</svg>