<svg xmlns="http://www.w3.org/2000/svg" version="1.1" width="1024" height="768">
<rect x="0" y="0" width="1024" height="768" fill="#4b5852" />
<g transform="scale(4.000000) translate(0.5 0.5)">
<polygon fill="#a3d2de" fill-opacity="0.611765" points="173.074919,120.714077,99.937442,128.349029,93.270924,-5.181411,108.365910,-16.000000" />
<polygon fill="#bdb494" fill-opacity="0.631373" points="144.532565,-16.000000,90.958269,47.025297,249.040015,-16.000000,271.000000,137.593927" />
<polygon fill="#040505" fill-opacity="0.650980" points="-16.000000,116.439951,-0.530440,198.938657,254.334091,198.435425,271.000000,170.809396" />
<polygon fill="#111412" fill-opacity="0.768627" points="209.993839,55.047119,159.780300,18.396017,126.176627,54.031420,193.933628,100.000121" />
<polygon fill="#afac8c" fill-opacity="0.686275" points="56.012483,86.062890,28.395524,89.307343,8.703940,-16.000000,44.062933,0.214210" />
<polygon fill="#0088ed" fill-opacity="0.403922" points="101.787335,147.986854,212.944140,115.344513,93.688871,83.157193,63.340448,98.308782" />
<polygon fill="#000d10" fill-opacity="0.549020" points="93.016875,13.975169,49.536828,-16.000000,57.027239,87.446162,95.870977,87.103070" />
<polygon fill="#adab93" fill-opacity="0.980392" points="79.446332,-16.000000,100.044488,30.422436,161.397860,22.095242,219.671009,-4.507297" />
<polygon fill="#33372b" fill-opacity="0.807843" points="195.830020,24.577927,198.937904,66.502072,182.110010,8.537498,271.000000,27.194717" />
<polygon fill="#b8e1ec" fill-opacity="0.670588" points="135.605954,114.949536,122.897881,61.526083,156.531563,68.119982,151.517388,85.733439" />
<polygon fill="#31362e" fill-opacity="0.843137" points="5.875965,-16.000000,25.804980,82.453732,117.951506,153.608012,-16.000000,121.660738" />
<polygon fill="#b0af96" fill-opacity="0.709804" points="271.000000,94.448277,253.871611,34.726439,219.473534,32.675329,206.613623,90.494965" />
<polygon fill="#b0ac92" fill-opacity="0.756863" points="108.603295,93.779258,154.142045,-9.902044,202.067117,42.621604,86.556223,-16.000000" />
<polygon fill="#6d6a52" fill-opacity="0.760784" points="185.430973,96.835646,236.671966,149.346988,271.000000,101.123290,212.672319,89.879395" />
<polygon fill="#0e110e" fill-opacity="0.580392" points="180.824058,68.685672,193.585035,31.698297,132.700423,39.655569,126.636185,60.615920" />
<polygon fill="#003d6c" fill-opacity="0.462745" points="69.656114,82.414010,135.525890,83.354006,53.961963,97.890696,115.416335,160.654808" />
<polygon fill="#3e3d30" fill-opacity="0.698039" points="123.354750,141.566476,271.000000,150.609575,271.000000,172.204284,129.704265,161.274852" />
<polygon fill="#9d9e87" fill-opacity="0.866667" points="177.587890,-16.000000,271.000000,-10.176424,265.680165,19.878561,207.979945,18.383136" />
<polygon fill="#9ed0e3" fill-opacity="0.466667" points="120.989370,84.580624,167.063125,95.979299,180.227200,79.369679,122.994696,115.367757" />
<polygon fill="#056199" fill-opacity="0.576471" points="177.520331,139.299228,212.621031,106.516052,63.160423,141.694154,165.607283,128.022567" />
<polygon fill="#070a05" fill-opacity="0.439216" points="200.382838,10.342415,182.062471,8.738536,181.649985,15.500800,204.880266,34.364684" />
<polygon fill="#202e2c" fill-opacity="0.725490" points="162.599208,98.514065,162.500724,73.719221,158.059561,35.981356,153.233819,88.827444" />
<polygon fill="#152830" fill-opacity="0.674510" points="202.988454,89.311864,213.998267,66.220810,160.829240,97.302043,179.293674,103.734788" />
<polygon fill="#1b150a" fill-opacity="0.364706" points="66.481969,105.348589,66.384714,58.108107,103.738448,82.138163,-16.000000,100.415194" />
<polygon fill="#afaf96" fill-opacity="0.803922" points="195.962976,32.492960,228.126165,32.583508,264.287593,38.409935,209.082865,60.346248" />
<polygon fill="#0a0d0c" fill-opacity="0.494118" points="0.966292,137.920780,-16.000000,200.434181,112.663474,200.948817,121.388178,164.749208" />
<polygon fill="#5ba7c4" fill-opacity="0.360784" points="197.413384,103.894838,83.790108,87.077760,95.046335,114.999115,114.113881,134.745416" />
<polygon fill="#afad95" fill-opacity="0.780392" points="127.964624,85.774005,99.283352,76.960977,95.553865,44.620304,129.953070,7.468812" />
<polygon fill="#005c9a" fill-opacity="0.494118" points="81.240818,148.867885,66.844580,135.525582,147.972214,137.761528,89.282531,114.101279" />
<polygon fill="#101302" fill-opacity="0.196078" points="189.087885,29.949917,188.909109,20.000884,257.513104,19.707081,258.523259,34.990600" />
<polygon fill="#575440" fill-opacity="0.560784" points="271.000000,144.772343,199.836778,137.472612,141.456575,129.384191,128.498148,154.678192" />
<polygon fill="#00568e" fill-opacity="0.556863" points="92.280883,110.083291,70.039321,88.122718,69.367480,101.366088,51.278211,117.275796" />
<polygon fill="#aaa78d" fill-opacity="0.658824" points="190.041117,37.203723,190.020424,18.515414,176.592191,23.231972,102.716664,-16.000000" />
<polygon fill="#c6eefd" fill-opacity="0.298039" points="152.499269,62.742611,131.753182,77.320742,117.334100,96.190261,139.066912,109.382772" />
<polygon fill="#29322f" fill-opacity="0.784314" points="209.682206,72.539879,202.160920,45.771359,181.980638,33.429370,195.734239,83.698918" />
<polygon fill="#111613" fill-opacity="0.752941" points="151.740485,22.157564,144.517479,50.118494,186.225487,98.040462,169.156045,25.380338" />
<polygon fill="#273532" fill-opacity="0.415686" points="110.080364,92.061120,42.145318,-15.048539,54.579554,63.326873,123.401796,87.056814" />
<polygon fill="#12557c" fill-opacity="0.780392" points="203.386131,116.858178,174.744662,97.903352,174.541653,102.590322,195.778284,129.322271" />
<polygon fill="#7f7c64" fill-opacity="0.768627" points="60.741344,91.822553,56.026885,92.262364,56.850258,84.073683,13.261834,87.380069" />
<polygon fill="#64624c" fill-opacity="0.627451" points="222.146406,95.353097,190.319429,142.595374,237.049962,143.330108,182.180250,103.767113" />
<polygon fill="#004478" fill-opacity="0.615686" points="115.492605,146.469289,137.652047,139.573087,142.657573,134.215210,91.888835,136.896070" />
<polygon fill="#a6d2e0" fill-opacity="0.952941" points="155.092598,91.872957,128.861222,71.949755,161.258898,107.435132,154.165951,106.705957" />
<polygon fill="#3992c1" fill-opacity="0.466667" points="186.373054,125.472392,185.829145,109.329920,154.407975,92.832652,166.890461,122.701132" />
<polygon fill="#5aa1c3" fill-opacity="0.592157" points="110.102227,86.807067,90.180376,94.061132,93.476297,120.511032,141.094297,113.540719" />
<polygon fill="#171b14" fill-opacity="0.521569" points="194.649331,39.502106,203.047037,10.136104,194.884410,8.528167,190.515560,17.797136" />
<polygon fill="#aead95" fill-opacity="0.807843" points="63.594586,-11.384966,121.158515,27.246460,217.183431,0.852101,118.096729,-16.000000" />
<polygon fill="#1b1a11" fill-opacity="0.505882" points="139.355831,36.327972,145.431988,23.442029,130.343004,40.406869,143.458613,63.867171" />
<polygon fill="#172322" fill-opacity="0.427451" points="73.585374,89.273677,62.579177,94.951850,63.956919,-16.000000,95.090481,13.142803" />
<polygon fill="#0163a0" fill-opacity="0.317647" points="141.526393,117.046820,210.698343,111.078064,178.474660,133.982068,137.765395,119.194812" />
<polygon fill="#feefd3" fill-opacity="0.231373" points="146.054744,34.469738,154.274927,30.617865,145.103109,29.409150,139.582531,39.394490" />
<polygon fill="#f9f4c9" fill-opacity="0.164706" points="184.301372,24.312769,244.947212,30.516889,244.503349,27.762237,221.672236,24.085767" />
<polygon fill="#badce8" fill-opacity="0.596078" points="175.017388,87.505719,161.787609,93.670036,166.314293,94.947946,170.556836,83.183198" />
<polygon fill="#0a1010" fill-opacity="0.439216" points="149.195221,87.283151,188.279689,62.468965,173.588158,33.074689,167.294119,88.858374" />
<polygon fill="#9c9474" fill-opacity="0.286275" points="207.925509,93.115594,242.708893,111.269052,237.359045,68.174908,202.557255,80.773431" />
<polygon fill="#23271b" fill-opacity="0.545098" points="271.000000,32.753680,251.462706,24.455869,189.869427,22.800674,251.898957,19.576820" />
<polygon fill="#454b45" fill-opacity="0.431373" points="47.953834,92.582331,49.301990,131.901498,70.992009,138.307250,88.148741,127.393551" />
<polygon fill="#becdcc" fill-opacity="0.549020" points="113.854967,93.806480,104.043000,96.050491,101.860252,95.532964,112.936274,99.457678" />
<polygon fill="#027bbd" fill-opacity="0.196078" points="70.933212,88.167102,92.019515,82.375960,108.280729,82.487050,88.988572,135.973336" />
<polygon fill="#868973" fill-opacity="0.917647" points="14.966540,22.382881,18.011170,39.835296,45.974403,-16.000000,6.979310,-14.598444" />
<polygon fill="#14252c" fill-opacity="0.819608" points="188.165029,94.969490,201.037838,93.677746,168.906746,89.750789,168.631887,100.536621" />
<polygon fill="#a4a38b" fill-opacity="0.749020" points="190.118457,37.958642,271.000000,75.753316,214.960877,81.139871,205.397139,28.504629" />
<polygon fill="#212721" fill-opacity="0.678431" points="156.759991,82.500197,171.357764,60.118558,144.486617,24.074610,158.630799,21.574131" />
<polygon fill="#877957" fill-opacity="0.454902" points="132.663207,85.699503,122.904864,80.532339,95.147004,77.753529,117.369903,85.719400" />
<polygon fill="#e4ce97" fill-opacity="0.058824" points="64.142447,84.132866,58.762653,16.495579,55.787676,-2.442936,-1.276023,31.972939" />
<polygon fill="#2a2a20" fill-opacity="0.835294" points="-16.000000,53.244267,6.743239,-16.000000,-12.646233,85.111230,24.332773,82.985379" />
<polygon fill="#a4d0de" fill-opacity="0.729412" points="140.117863,111.578432,139.697263,67.260349,125.851280,57.343777,131.044137,102.191458" />
<polygon fill="#262724" fill-opacity="0.298039" points="94.128842,207.000000,271.000000,164.430024,105.026265,144.324377,84.101428,132.819319" />
<polygon fill="#141e21" fill-opacity="0.211765" points="189.418566,27.886036,258.255923,30.939956,193.742469,31.957640,183.606829,157.601828" />
<polygon fill="#0f4c75" fill-opacity="0.509804" points="153.045364,104.637853,149.768202,97.819659,147.468826,102.106621,146.706339,105.463210" />
<polygon fill="#575946" fill-opacity="0.623529" points="216.063405,153.705450,271.000000,128.957200,154.303458,143.510302,155.671149,125.280812" />
<polygon fill="#293b3f" fill-opacity="0.552941" points="98.814243,89.561451,95.763699,42.568196,88.347662,7.198105,78.930713,52.406787" />
<polygon fill="#0a0d0d" fill-opacity="0.360784" points="155.556187,26.677389,141.611542,65.370606,126.207497,58.054801,181.603834,42.694898" />
<polygon fill="#adad94" fill-opacity="1.000000" points="232.679797,27.180324,213.433154,47.523430,217.571568,24.763738,222.696648,53.894595" />
<polygon fill="#115279" fill-opacity="0.933333" points="184.932283,95.442577,170.397553,102.517448,186.412542,100.508476,195.259522,129.804219" />
<polygon fill="#171d1e" fill-opacity="0.352941" points="140.468954,144.412337,20.969850,144.967343,80.114235,183.505122,145.260519,127.694561" />
<polygon fill="#213235" fill-opacity="0.654902" points="180.365990,38.240304,154.140338,104.691608,162.294162,65.780718,166.443825,73.346822" />
<polygon fill="#0b1312" fill-opacity="0.662745" points="91.523786,82.298576,72.310294,75.921519,57.707487,87.151865,59.080046,89.555039" />
<polygon fill="#005994" fill-opacity="0.447059" points="69.187106,114.481701,58.319194,116.671979,52.849877,115.037995,56.941815,109.482437" />
<polygon fill="#373c34" fill-opacity="0.627451" points="197.003528,95.521101,213.933769,70.851013,195.552599,43.595624,204.636556,88.619332" />
<polygon fill="#a6d5e5" fill-opacity="0.800000" points="152.919366,80.714328,148.614844,98.828246,157.222593,89.766354,118.739872,91.905021" />
<polygon fill="#1c6d9e" fill-opacity="0.698039" points="65.923983,96.212393,102.875506,83.027622,123.348592,89.508311,94.913375,89.457491" />
<polygon fill="#8e8f7a" fill-opacity="1.000000" points="271.000000,35.057653,254.436588,35.117186,262.023055,-16.000000,215.800472,-16.000000" />
<polygon fill="#88d7f4" fill-opacity="0.133333" points="169.817230,73.975360,163.918037,105.019830,185.232191,114.238042,167.388547,123.972083" />
<polygon fill="#35362b" fill-opacity="0.603922" points="15.162315,89.331303,69.065268,114.534590,58.691837,92.181314,26.724498,89.260049" />
<polygon fill="#a4a58d" fill-opacity="0.713725" points="204.638546,17.567478,241.921607,18.418676,224.730766,19.922251,199.715547,-16.000000" />
<polygon fill="#a8a891" fill-opacity="0.772549" points="225.101781,84.143507,223.711437,23.999421,243.483161,90.752393,244.302416,22.258027" />
<polygon fill="#1f1802" fill-opacity="0.360784" points="11.817624,15.998961,-16.000000,13.343557,-16.000000,20.165901,16.962779,30.779204" />
<polygon fill="#abaa92" fill-opacity="0.443137" points="138.918954,35.632783,144.621066,-4.416621,100.313872,36.338323,154.563764,29.573378" />
<polygon fill="#4d9dc3" fill-opacity="0.329412" points="88.515129,117.517221,134.464309,92.460185,107.857748,140.515560,138.848206,127.078934" />
<polygon fill="#1c2018" fill-opacity="0.764706" points="185.454357,10.124246,211.929232,20.926003,188.252962,19.809392,181.873568,15.570846" />
<polygon fill="#2b5869" fill-opacity="0.490196" points="158.572450,59.725718,148.574257,61.679630,140.233049,64.055111,152.090945,68.370515" />
<polygon fill="#131917" fill-opacity="0.529412" points="207.604965,88.624640,168.131830,81.565240,193.919864,23.307851,170.826179,99.581588" />
<polygon fill="#b0ac8f" fill-opacity="0.423529" points="154.666177,8.107885,192.509510,21.065097,185.424661,31.345429,176.723978,31.848962" />
<polygon fill="#b1b096" fill-opacity="0.713725" points="213.387012,20.915365,202.635990,46.711574,244.561497,34.104319,211.995825,34.842778" />
<polygon fill="#444639" fill-opacity="0.419608" points="219.030671,162.819536,160.054735,158.191830,122.710630,146.142585,252.945066,145.889847" />
<polygon fill="#aeac90" fill-opacity="0.603922" points="200.472775,40.341943,205.683923,22.967281,200.818179,25.224571,210.251663,34.980751" />
<polygon fill="#005289" fill-opacity="0.670588" points="82.004059,131.316264,123.027037,147.867957,71.100175,108.660253,93.929117,110.825812" />
<polygon fill="#69674c" fill-opacity="0.368627" points="169.398488,145.690385,237.519956,136.134769,265.640736,168.477876,266.710813,89.836431" />
<polygon fill="#213238" fill-opacity="0.454902" points="200.058513,130.172323,198.800782,115.828796,211.957020,112.536445,205.351979,116.985184" />
<polygon fill="#39423a" fill-opacity="0.780392" points="42.880507,-14.995093,51.087688,-16.000000,59.870073,57.515125,57.931355,89.682368" />
<polygon fill="#4a4833" fill-opacity="0.588235" points="19.838060,44.909822,-16.000000,69.995519,25.706983,71.559588,22.321880,63.185979" />
<polygon fill="#07649e" fill-opacity="0.592157" points="146.169424,116.785359,156.009134,130.779726,124.222593,127.263981,137.299542,140.446362" />
<polygon fill="#060802" fill-opacity="0.262745" points="209.907728,33.766629,210.528827,33.235232,205.904798,31.105643,207.550820,16.839709" />
<polygon fill="#c1c4b3" fill-opacity="0.498039" points="117.074000,72.995771,123.899017,51.968032,133.259024,64.654081,105.219881,62.747468" />
<polygon fill="#c3d8df" fill-opacity="0.439216" points="154.805514,106.075243,160.830181,104.123432,161.296867,97.599876,160.258567,94.268235" />
<polygon fill="#abac94" fill-opacity="0.952941" points="200.166652,45.515074,241.938144,57.356684,236.965944,25.027207,234.538065,35.842245" />
<polygon fill="#9f9c81" fill-opacity="0.584314" points="233.430370,68.140189,230.454164,89.454370,206.791703,88.741321,204.417845,80.830412" />
<polygon fill="#98947b" fill-opacity="0.643137" points="106.608905,81.226201,96.350164,52.436254,98.038686,79.674895,97.491106,81.972309" />
<polygon fill="#2b2815" fill-opacity="0.439216" points="20.713421,53.688227,-16.000000,48.379428,-14.176246,38.988464,19.365915,43.473410" />
<polygon fill="#13140e" fill-opacity="0.356863" points="148.743581,22.915329,127.557219,51.131467,174.347403,39.959382,132.263695,36.218761" />
<polygon fill="#1d2b33" fill-opacity="0.537255" points="184.477528,134.163483,184.607171,125.601236,190.352073,126.382598,185.917140,136.813380" />
<polygon fill="#a5a58e" fill-opacity="0.878431" points="232.801637,89.197583,271.000000,71.666723,256.158843,105.485528,250.455772,24.753631" />
<polygon fill="#93947c" fill-opacity="0.709804" points="38.298287,-16.000000,23.377673,75.698391,56.964337,91.516489,49.092531,32.669447" />
<polygon fill="#6d6d58" fill-opacity="0.709804" points="216.444231,100.047699,203.753393,87.476033,271.000000,112.986609,194.195624,112.332034" />
<polygon fill="#00558f" fill-opacity="0.301961" points="69.626296,134.431939,145.188764,139.278945,90.673340,123.157265,82.683897,148.472497" />
<polygon fill="#7d8273" fill-opacity="0.572549" points="118.562527,76.721199,132.755425,47.194741,125.044920,66.706067,119.345333,64.723793" />
<polygon fill="#b4e1ee" fill-opacity="0.321569" points="140.735358,97.197754,120.209253,91.111796,155.864486,64.162635,144.318057,86.067209" />
<polygon fill="#adad93" fill-opacity="0.498039" points="95.654888,38.687839,123.058291,65.948124,133.482872,37.597311,91.403067,0.005416" />
<polygon fill="#4e95b7" fill-opacity="0.325490" points="91.037384,131.752183,100.479479,122.873044,81.432757,91.789771,111.116655,86.675477" />
<polygon fill="#5c5f52" fill-opacity="0.839216" points="143.858132,139.934486,143.144196,134.784777,169.395413,127.934771,171.582705,138.658792" />
<polygon fill="#0666a2" fill-opacity="0.482353" points="182.488766,106.597799,201.585337,125.926312,150.318410,120.171477,183.184844,134.710983" />
<polygon fill="#272a24" fill-opacity="0.643137" points="-7.753829,130.232025,-16.000000,119.926390,75.934108,141.170281,72.006261,148.884248" />
<polygon fill="#01619f" fill-opacity="0.439216" points="179.571947,98.075395,163.715624,103.255569,179.199879,105.645750,182.573007,133.806481" />
<polygon fill="#414135" fill-opacity="0.572549" points="73.571867,85.920758,57.243756,109.448533,-16.000000,124.410934,65.652468,92.463275" />
<polygon fill="#464a40" fill-opacity="0.709804" points="79.153038,135.962608,86.515503,124.186653,38.849987,124.152142,77.798652,113.175192" />
<polygon fill="#2f2f26" fill-opacity="0.631373" points="-16.000000,88.516313,47.010098,91.134991,57.467721,94.769054,-16.000000,121.714103" />
<polygon fill="#a9a892" fill-opacity="0.537255" points="172.745275,-16.000000,191.559532,12.587417,194.874777,6.366977,237.313025,17.708810" />
<polygon fill="#2e3129" fill-opacity="0.349020" points="131.297305,163.577444,221.051188,153.042167,271.000000,166.717046,231.136061,175.845252" />
<polygon fill="#f6dbbb" fill-opacity="0.145098" points="115.219726,98.057822,108.120621,100.217787,100.110359,87.783673,104.016582,87.765688" />
<polygon fill="#060500" fill-opacity="0.133333" points="216.077275,32.430752,242.249352,34.185429,238.976116,24.401889,271.000000,18.945699" />
<polygon fill="#d7eef7" fill-opacity="0.211765" points="162.835764,92.417841,176.099222,88.783526,166.287339,86.260551,175.204668,82.531740" />
<polygon fill="#b0b097" fill-opacity="0.807843" points="225.693324,19.198392,223.915694,39.259132,262.213348,39.163771,221.794739,35.893678" />
<polygon fill="#000f39" fill-opacity="0.274510" points="79.178444,155.462048,82.845546,149.763425,66.288701,142.743162,91.240605,135.809959" />
<polygon fill="#172321" fill-opacity="0.470588" points="86.337468,90.165644,80.639803,88.302771,66.299902,55.259022,56.103124,-13.521205" />
<polygon fill="#4e92b4" fill-opacity="0.556863" points="125.532436,138.691180,141.867705,110.981389,144.560832,88.586212,146.897885,92.864920" />
<polygon fill="#20231b" fill-opacity="0.674510" points="193.349270,14.900836,199.742053,20.916951,195.658333,34.886739,189.247683,34.571342" />
<polygon fill="#b6b499" fill-opacity="0.474510" points="271.000000,39.274643,200.653192,32.038882,199.063205,21.798135,197.402164,37.810470" />
<polygon fill="#adad95" fill-opacity="0.694118" points="229.345581,57.570225,232.451407,49.408345,230.560925,21.751919,224.432375,54.743886" />
<polygon fill="#070300" fill-opacity="0.149020" points="176.299118,102.519412,158.432108,69.421932,166.179476,88.435156,203.230553,118.271089" />
<polygon fill="#045f96" fill-opacity="0.560784" points="97.688146,131.882276,78.936886,115.876825,79.615202,86.160203,73.840451,84.978629" />
<polygon fill="#858c7d" fill-opacity="0.435294" points="154.629301,79.301836,152.549446,62.049514,151.175595,89.853854,150.440495,90.109452" />
<polygon fill="#065081" fill-opacity="0.996078" points="64.139324,99.202961,72.883886,89.697141,72.557796,107.120572,94.782330,132.873124" />
<polygon fill="#232a28" fill-opacity="0.984314" points="133.000356,137.698568,121.254377,157.880341,112.422502,149.303510,135.615475,141.125082" />
<polygon fill="#272a25" fill-opacity="0.431373" points="194.128241,96.531993,178.478290,30.505449,206.969666,82.257289,203.573813,88.253602" />
<polygon fill="#a9a991" fill-opacity="0.850980" points="229.182636,66.544634,258.815983,31.423772,244.033633,42.988019,189.845731,35.854633" />
<polygon fill="#25261e" fill-opacity="0.541176" points="14.293949,86.431709,-16.000000,68.530090,20.239228,73.354150,26.834142,87.292339" />
<polygon fill="#293534" fill-opacity="0.800000" points="67.438530,1.004680,93.032840,27.730839,93.344390,13.473538,65.811902,-16.000000" />
<polygon fill="#888469" fill-opacity="0.352941" points="53.087051,61.456191,58.705320,93.064565,27.521671,83.221398,21.873365,93.277578" />
<polygon fill="#9b9b84" fill-opacity="0.360784" points="50.133982,52.636385,25.347196,68.049897,19.383441,45.601116,14.263293,20.557437" />
<polygon fill="#0b6196" fill-opacity="0.364706" points="71.612086,97.889285,98.195205,100.756438,47.239786,116.030641,96.608677,108.649963" />
<polygon fill="#96cee3" fill-opacity="0.470588" points="149.405790,75.971901,152.554912,68.254100,115.747985,99.635114,122.404006,100.193164" />
<polygon fill="#4993b7" fill-opacity="0.576471" points="162.749536,99.265672,186.081614,114.439506,148.475152,119.118509,159.668820,107.600653" />
<polygon fill="#0c5d91" fill-opacity="0.443137" points="201.698316,110.331988,209.504966,116.846322,178.267625,112.839291,192.277056,127.414039" />
<polygon fill="#7b7c67" fill-opacity="0.466667" points="255.962240,103.347608,248.351696,107.784607,205.685493,88.008744,266.790884,95.709065" />
<polygon fill="#202318" fill-opacity="0.498039" points="271.000000,26.103063,231.631522,22.111826,183.967355,15.013459,199.850062,22.427656" />
<polygon fill="#585942" fill-opacity="0.360784" points="218.054885,117.612871,271.000000,139.511699,248.556424,158.245384,222.190454,145.084298" />
<polygon fill="#1670a4" fill-opacity="0.478431" points="107.406993,137.419655,115.966955,120.094041,84.553362,126.225403,138.694326,135.101445" />
<polygon fill="#c4d7d5" fill-opacity="0.494118" points="120.037723,63.723487,119.580967,59.139898,118.107531,71.538314,112.328137,66.407197" />
<polygon fill="#464a42" fill-opacity="0.384314" points="129.567075,57.636114,120.292582,50.186760,137.681341,63.350095,137.242927,46.717147" />
<polygon fill="#848975" fill-opacity="0.290196" points="23.942781,41.898817,21.956187,-16.000000,40.046699,37.354629,-13.792492,39.784936" />
<polygon fill="#313327" fill-opacity="0.721569" points="138.394338,28.682792,133.065183,38.648414,145.078489,25.292702,156.704707,28.835605" />
<polygon fill="#151715" fill-opacity="0.580392" points="271.000000,195.045201,200.867243,207.000000,234.582173,178.638028,255.141909,178.377429" />
<polygon fill="#e2e2de" fill-opacity="0.490196" points="130.628852,96.636422,136.174377,107.862880,141.538191,105.120255,131.419071,103.167413" />
<polygon fill="#ebf7f3" fill-opacity="0.207843" points="128.658957,72.620957,142.048619,89.083398,150.141747,83.501984,129.285842,83.221023" />
<polygon fill="#302f21" fill-opacity="0.921569" points="14.551415,-8.110978,6.920829,6.536407,-13.906506,4.111529,0.320447,-4.834866" />
<polygon fill="#0b0e0d" fill-opacity="0.439216" points="154.489436,31.530556,132.095918,46.983726,132.840542,35.935672,154.991764,66.162613" />
<polygon fill="#afb09a" fill-opacity="0.784314" points="127.676109,80.725895,127.527514,40.179085,131.825842,48.541671,106.248084,34.019844" />
<polygon fill="#20394d" fill-opacity="0.149020" points="116.797617,96.303303,105.134290,84.797161,131.858223,83.182374,108.342901,92.872949" />
<polygon fill="#212e2b" fill-opacity="0.737255" points="159.750852,62.456773,153.924383,85.081815,168.124770,88.905560,166.036655,63.107437" />
<polygon fill="#fef4e7" fill-opacity="0.211765" points="171.499967,83.054517,173.413363,85.514507,172.572168,89.906678,166.820927,83.708428" />
<polygon fill="#0b100f" fill-opacity="0.486275" points="42.249689,189.423813,-2.632588,205.920179,-16.000000,112.523004,13.954310,163.070549" />
<polygon fill="#559fc2" fill-opacity="0.670588" points="130.373443,96.941904,89.559020,120.280019,103.514148,91.448292,124.020146,124.490227" />
<polygon fill="#afac92" fill-opacity="0.568627" points="126.736991,11.436169,180.404895,28.155344,163.981948,-0.348011,129.583210,39.282271" />
<polygon fill="#a5a38a" fill-opacity="0.658824" points="224.721849,89.543951,204.350108,25.061790,209.007664,63.759360,233.024484,86.126601" />
<polygon fill="#3a9ac1" fill-opacity="0.137255" points="136.490558,76.002729,153.155671,62.027283,128.349524,66.171317,128.942870,73.815835" />
<polygon fill="#696954" fill-opacity="0.658824" points="227.850009,94.274988,202.855810,119.486340,207.650300,138.749520,234.314665,95.489709" />
<polygon fill="#000000" fill-opacity="0.223529" points="244.589195,30.634456,249.647373,31.621291,271.000000,31.149138,244.818745,34.097452" />
<polygon fill="#99cddf" fill-opacity="0.835294" points="151.480683,88.971985,150.361532,77.271723,145.279970,68.535186,146.862651,103.390967" />
<polygon fill="#01223c" fill-opacity="0.400000" points="162.029707,127.702286,155.181081,133.662654,155.479492,126.157153,156.960220,126.589783" />
<polygon fill="#031c31" fill-opacity="0.400000" points="72.257613,113.994343,63.108557,118.018107,69.406182,110.926828,65.092801,107.754719" />
<polygon fill="#60624e" fill-opacity="1.000000" points="226.375829,131.486450,198.775666,142.583671,188.073787,131.700473,189.665041,127.258894" />
<polygon fill="#ffe4c2" fill-opacity="0.196078" points="139.165891,84.178366,146.285460,88.768918,139.355689,73.176585,157.300992,66.620532" />
<polygon fill="#adae96" fill-opacity="0.580392" points="236.405551,51.414249,238.177451,22.531436,229.880060,48.608682,270.979460,24.551709" />
<polygon fill="#fff4ee" fill-opacity="0.176471" points="151.451654,28.801593,154.099823,29.285155,144.480550,30.853353,138.242681,37.711494" />
<polygon fill="#616352" fill-opacity="0.776471" points="216.713847,93.675599,181.364813,102.567992,198.714193,113.854375,203.456449,90.176772" />
<polygon fill="#1a1d17" fill-opacity="0.427451" points="198.274763,8.334315,206.138203,22.208200,196.069246,24.567463,181.201073,16.376662" />
<polygon fill="#191d1b" fill-opacity="0.607843" points="95.109132,207.000000,101.255458,147.615591,126.743826,148.925913,123.136943,140.109364" />
<polygon fill="#004b82" fill-opacity="0.505882" points="81.414833,137.525528,106.742974,135.414721,104.213927,122.865423,74.840416,147.836216" />
<polygon fill="#f4fffb" fill-opacity="0.211765" points="142.892632,98.666624,141.705983,91.250364,118.213766,91.825894,125.682933,87.028750" />
<polygon fill="#8fd8fd" fill-opacity="0.223529" points="169.281622,96.356559,163.948879,85.373980,160.914285,98.084757,135.709122,88.785415" />
<polygon fill="#25271e" fill-opacity="0.423529" points="220.110727,18.914415,223.056932,22.299044,220.879555,31.945024,219.468102,30.945510" />
<polygon fill="#535443" fill-opacity="0.545098" points="140.648897,137.897869,129.778600,145.987326,203.088367,139.210370,203.457230,153.178017" />
<polygon fill="#f2f2b3" fill-opacity="0.129412" points="271.000000,53.593646,252.620084,29.502172,227.969490,26.627101,271.000000,27.553450" />
<polygon fill="#99d4ea" fill-opacity="0.803922" points="148.340367,99.125995,137.288264,98.516345,139.642106,75.171618,126.339964,91.443403" />
<polygon fill="#a5a58e" fill-opacity="0.603922" points="171.596961,-16.000000,241.404429,12.937539,204.021886,17.801781,204.268621,13.014212" />
<polygon fill="#2079ad" fill-opacity="0.866667" points="160.170897,118.668761,150.218316,124.492371,140.276428,126.494597,145.432861,118.166509" />
<polygon fill="#0e100e" fill-opacity="0.537255" points="166.626294,45.361053,177.473220,99.924720,183.776416,48.879839,170.509601,27.957786" />
<polygon fill="#023e65" fill-opacity="0.231373" points="139.966097,110.522032,149.579370,97.223194,152.441625,103.095475,142.670555,103.996009" />
<polygon fill="#4f9bbf" fill-opacity="0.827451" points="144.099576,121.368304,111.236373,126.023459,133.733174,126.953860,147.755161,98.912756" />
<polygon fill="#34372a" fill-opacity="0.400000" points="226.083938,21.883592,201.609865,20.555276,231.585600,20.154570,225.233910,34.107501" />
<polygon fill="#0a659c" fill-opacity="0.435294" points="84.091755,97.222858,85.977043,84.330332,103.500618,86.877397,63.731484,94.707333" />
<polygon fill="#3f3f3a" fill-opacity="0.172549" points="133.132557,146.296354,229.215688,161.458422,77.842175,151.763901,88.037286,146.573415" />
<polygon fill="#8a8d76" fill-opacity="0.580392" points="267.009880,3.691968,230.610136,17.217866,237.197560,20.010924,271.000000,21.350363" />
<polygon fill="#002e4a" fill-opacity="0.188235" points="121.242174,68.549187,123.996809,69.307308,117.735739,70.573596,120.156182,65.218464" />
<polygon fill="#f5fbf0" fill-opacity="0.184314" points="106.762522,100.068740,119.005408,91.360448,111.688345,95.032654,107.880354,93.085861" />
<polygon fill="#253533" fill-opacity="0.466667" points="155.892890,74.854657,155.206880,47.340283,165.938931,88.134422,151.419804,89.630279" />
<polygon fill="#353f37" fill-opacity="0.298039" points="204.860018,48.826786,168.136377,32.440334,196.387544,39.303799,212.447561,85.334947" />
<polygon fill="#020500" fill-opacity="0.203922" points="208.459801,22.620188,216.711523,29.701010,208.553179,31.718159,216.036336,31.683521" />
<polygon fill="#4d4d41" fill-opacity="0.498039" points="49.983856,117.616632,50.265406,111.919122,70.091624,129.611841,83.191325,119.233733" />
<polygon fill="#06629c" fill-opacity="0.415686" points="130.563891,131.855094,121.670680,126.841452,150.126560,131.705491,174.473196,117.742402" />
<polygon fill="#363f3d" fill-opacity="0.635294" points="50.805655,102.931752,88.663670,82.468651,82.837428,88.714660,60.840490,91.009918" />
<polygon fill="#4e8aa5" fill-opacity="0.713725" points="115.040503,92.305790,113.545936,82.540254,117.325776,101.936325,113.113055,98.282782" />
<polygon fill="#0f1213" fill-opacity="0.227451" points="114.730038,84.914536,85.833353,78.199487,60.577296,92.240585,63.581595,76.865581" />
<polygon fill="#1e2622" fill-opacity="0.462745" points="150.942497,64.917182,170.198110,78.870118,166.702943,88.470060,167.056071,49.274552" />
<polygon fill="#b0b097" fill-opacity="0.533333" points="241.595776,34.947031,222.764133,58.550029,202.563960,24.898425,206.332799,47.297367" />
<polygon fill="#feebdd" fill-opacity="0.207843" points="151.683144,108.249853,159.765366,104.435425,162.156251,102.671136,154.226207,102.095104" />
<polygon fill="#3d3c31" fill-opacity="0.458824" points="88.250147,122.194727,27.097392,132.366173,37.038945,96.223484,63.553879,142.421725" />
<polygon fill="#050d14" fill-opacity="0.376471" points="142.709125,129.461693,140.713386,129.083881,138.673302,141.046932,143.406059,135.446224" />
<polygon fill="#075f96" fill-opacity="0.584314" points="170.713898,134.880125,184.017799,129.839720,182.379553,134.872212,168.569038,122.226170" />
<polygon fill="#575646" fill-opacity="0.329412" points="17.763112,86.960116,-16.000000,82.249871,21.438834,92.097252,33.593902,85.514092" />
<polygon fill="#abac94" fill-opacity="0.788235" points="242.589009,45.994913,242.717835,51.551201,251.426731,31.426121,248.662548,31.603259" />
<polygon fill="#468cb0" fill-opacity="0.556863" points="89.514017,89.049261,95.209438,105.135778,109.216285,84.031693,81.999275,101.342738" />
<polygon fill="#111e25" fill-opacity="0.470588" points="201.315344,114.119220,199.030835,126.491855,201.133957,126.978138,202.114680,116.071006" />
<polygon fill="#9bc1cd" fill-opacity="0.752941" points="168.984497,83.029290,171.053213,86.826796,163.959541,93.767471,167.321973,95.548902" />
<polygon fill="#545239" fill-opacity="0.458824" points="19.052491,39.868179,15.393322,31.324552,-2.198096,29.909460,-16.000000,39.854589" />
<polygon fill="#1c73a3" fill-opacity="0.486275" points="79.876884,109.716702,81.234145,108.378713,99.950432,98.355670,67.762716,107.382697" />
<polygon fill="#257eaf" fill-opacity="0.901961" points="164.219883,122.927475,172.631371,103.490024,167.672374,114.752450,188.603027,124.465245" />
<polygon fill="#a6a489" fill-opacity="0.478431" points="191.488480,19.244769,174.223762,28.645223,177.138033,30.875852,186.594270,31.937103" />
<polygon fill="#5d5f51" fill-opacity="0.670588" points="144.607293,130.752996,142.168926,135.672428,163.999412,138.539002,199.381723,137.353685" />
<polygon fill="#aead92" fill-opacity="0.941176" points="211.487667,23.455042,205.889670,47.460954,221.351670,33.896673,212.470217,36.099638" />
<polygon fill="#9f9d83" fill-opacity="0.627451" points="206.477453,85.558986,225.831702,92.290537,234.367762,60.796927,206.294013,81.020294" />
<polygon fill="#414224" fill-opacity="0.415686" points="149.788124,22.602242,172.208945,29.676942,172.556241,26.704176,163.639221,22.954367" />
<polygon fill="#1d2119" fill-opacity="0.447059" points="202.596006,10.662100,180.609907,12.787450,208.176824,25.557683,203.933913,17.924648" />
<polygon fill="#0c181a" fill-opacity="0.537255" points="87.715586,145.894569,79.511726,149.721283,74.563453,160.009581,88.245895,135.622468" />
<polygon fill="#202e2e" fill-opacity="0.454902" points="73.759765,72.799108,93.050597,45.642182,96.691402,44.935678,75.952203,-1.021533" />
<polygon fill="#024f84" fill-opacity="0.521569" points="124.921508,136.570485,97.563008,141.685533,116.635994,144.734914,120.308672,146.753220" />
<polygon fill="#b1b29b" fill-opacity="0.729412" points="108.118100,72.315925,121.467304,81.431944,129.097837,42.549567,126.086537,70.758532" />
<polygon fill="#99987d" fill-opacity="0.517647" points="28.085744,82.955790,42.669994,88.493922,45.449371,87.946567,25.751077,36.579147" />
<polygon fill="#bcbca3" fill-opacity="0.454902" points="222.575716,32.321860,218.141622,40.384681,241.031150,39.514610,241.070149,35.211379" />
<polygon fill="#a6daec" fill-opacity="0.560784" points="153.126328,93.998405,157.266603,92.728651,130.543495,83.642058,127.928002,86.413906" />
<polygon fill="#1c3743" fill-opacity="0.443137" points="164.083907,82.062422,155.928964,87.659518,159.971258,66.428615,155.607465,101.190512" />
<polygon fill="#4c9ec8" fill-opacity="0.321569" points="152.321258,95.919870,178.130684,106.462671,178.246371,109.265200,146.068319,96.036704" />
<polygon fill="#767863" fill-opacity="0.458824" points="12.559255,-16.000000,11.562590,6.639183,-12.207441,8.076977,28.557075,7.230996" />
<polygon fill="#b0ae96" fill-opacity="0.439216" points="163.570728,-16.000000,181.670251,16.077372,161.850766,22.684836,84.787682,5.015363" />
<polygon fill="#515047" fill-opacity="0.482353" points="102.384080,81.668900,88.329473,82.575316,88.793425,81.386785,92.213498,85.174336" />
<polygon fill="#b4b294" fill-opacity="0.231373" points="216.227360,27.007859,221.565091,14.700693,213.540106,48.972099,215.316055,58.277517" />
<polygon fill="#04568e" fill-opacity="0.427451" points="187.149315,117.158448,202.201870,127.885453,180.091584,125.255538,182.594381,137.761180" />
<polygon fill="#454941" fill-opacity="0.419608" points="94.257729,133.695574,74.504856,132.907381,82.132785,117.716720,43.793064,124.724043" />
<polygon fill="#262f2d" fill-opacity="0.564706" points="185.799204,40.199788,186.604304,34.180467,201.739236,48.603946,204.042843,92.660839" />
<polygon fill="#66aaca" fill-opacity="0.517647" points="118.471385,90.213848,134.279474,100.165684,103.889100,88.564002,126.969196,90.732988" />
<polygon fill="#4f9abe" fill-opacity="0.627451" points="135.708207,114.460458,132.944996,109.179650,178.169881,107.801361,179.017104,115.658448" />
<polygon fill="#3a3b31" fill-opacity="0.450980" points="202.544066,86.853670,211.077376,73.544891,210.687413,78.783345,191.989556,81.273125" />
<polygon fill="#020604" fill-opacity="0.274510" points="235.714006,29.782843,231.763365,32.794631,233.463695,23.153448,233.247368,28.732736" />
<polygon fill="#0b110f" fill-opacity="0.356863" points="173.245037,57.187002,134.070382,62.905185,174.957993,31.011911,128.205625,48.578251" />
<polygon fill="#4e97ba" fill-opacity="0.600000" points="108.123023,95.531530,89.769906,89.587165,101.733073,119.015086,92.540128,118.661887" />
<polygon fill="#ffe3cf" fill-opacity="0.196078" points="128.772774,100.136960,138.573888,110.274337,141.462314,106.410230,132.666909,98.851578" />
</g>
</svg>