<svg xmlns="http://www.w3.org/2000/svg" version="1.1" width="1024" height="640">
<rect x="0" y="0" width="1024" height="640" fill="#d9dbd9" />
<g transform="scale(4.000000) translate(0.5 0.5)">
<polygon fill="#000000" fill-opacity="0.501961" points="163,96 134,35 209,59" />
<polygon fill="#000000" fill-opacity="0.501961" points="129,69 202,88 175,32" />
<polygon fill="#f5f9f7" fill-opacity="0.501961" points="39,156 -16,-13 170,5" />
<polygon fill="#000000" fill-opacity="0.501961" points="168,91 195,53 145,80" />
<polygon fill="#000000" fill-opacity="0.501961" points="187,43 170,36 133,71" />
<polygon fill="#ffffff" fill-opacity="0.501961" points="183,60 202,32 177,52" />
<polygon fill="#f4f7f5" fill-opacity="0.501961" points="119,-16 254,105 259,-4" />
<polygon fill="#f3f5f4" fill-opacity="0.501961" points="66,128 129,66 215,130" />
<polygon fill="#ffffff" fill-opacity="0.501961" points="130,87 157,73 150,67" />
<polygon fill="#0e0815" fill-opacity="0.501961" points="126,67 152,50 204,64" />
<polygon fill="#000000" fill-opacity="0.501961" points="195,87 200,77 167,69" />
<polygon fill="#000000" fill-opacity="0.501961" points="135,46 162,49 142,40" />
<polygon fill="#f9fcf9" fill-opacity="0.501961" points="106,76 150,52 121,40" />
<polygon fill="#e9eae9" fill-opacity="0.501961" points="119,175 271,139 213,70" />
<polygon fill="#130e1c" fill-opacity="0.501961" points="148,81 199,52 170,91" />
<polygon fill="#f7faf8" fill-opacity="0.501961" points="128,24 157,45 199,2" />
<polygon fill="#ffffff" fill-opacity="0.501961" points="196,67 190,73 206,78" />
<polygon fill="#100b16" fill-opacity="0.501961" points="180,39 189,45 166,52" />
<polygon fill="#1d1a23" fill-opacity="0.501961" points="166,80 143,45 202,65" />
<polygon fill="#edefee" fill-opacity="0.501961" points="180,79 216,111 141,142" />
<polygon fill="#e6e8e6" fill-opacity="0.501961" points="111,32 109,170 176,134" />
<polygon fill="#ffffff" fill-opacity="0.501961" points="178,50 197,41 182,57" />
<polygon fill="#16121b" fill-opacity="0.501961" points="202,61 166,95 191,53" />
<polygon fill="#f0f3f1" fill-opacity="0.501961" points="212,70 174,30 217,43" />
<polygon fill="#eff2ef" fill-opacity="0.501961" points="71,-16 187,34 118,40" />
<polygon fill="#0b0413" fill-opacity="0.501961" points="190,88 185,75 203,80" />
<polygon fill="#f5f8f7" fill-opacity="0.501961" points="202,66 235,93 195,118" />
<polygon fill="#18161d" fill-opacity="0.501961" points="172,48 139,74 132,62" />
<polygon fill="#cecfcd" fill-opacity="0.501961" points="77,115 1,162 46,96" />
<polygon fill="#c8c9c8" fill-opacity="0.501961" points="16,97 68,56 27,71" />
<polygon fill="#fbfefb" fill-opacity="0.501961" points="201,95 173,90 180,81" />
<polygon fill="#ffffff" fill-opacity="0.501961" points="156,69 143,74 154,76" />
<polygon fill="#cecfcd" fill-opacity="0.501961" points="196,121 258,85 208,146" />
<polygon fill="#f8fbf8" fill-opacity="0.501961" points="172,96 113,93 143,79" />
<polygon fill="#e6e8e8" fill-opacity="0.501961" points="-6,163 6,26 49,126" />
<polygon fill="#000008" fill-opacity="0.501961" points="151,46 136,48 147,39" />
<polygon fill="#ffffff" fill-opacity="0.501961" points="125,42 137,55 147,51" />
<polygon fill="#c3c4c1" fill-opacity="0.501961" points="99,113 147,130 115,107" />
<polygon fill="#1d1a23" fill-opacity="0.501961" points="182,40 159,79 147,48" />
<polygon fill="#99968e" fill-opacity="0.501961" points="155,143 186,175 169,171" />
<polygon fill="#1b1820" fill-opacity="0.501961" points="179,68 147,79 170,93" />
<polygon fill="#ffffff" fill-opacity="0.501961" points="162,41 143,34 154,45" />
<polygon fill="#a2a19d" fill-opacity="0.501961" points="53,125 70,137 56,119" />
<polygon fill="#eef1ee" fill-opacity="0.501961" points="20,21 156,98 96,14" />
<polygon fill="#e4e7e4" fill-opacity="0.501961" points="121,-16 195,44 142,24" />
<polygon fill="#88867e" fill-opacity="0.501961" points="268,175 233,149 247,167" />
<polygon fill="#e9eaea" fill-opacity="0.501961" points="57,125 95,175 32,143" />
<polygon fill="#ffffff" fill-opacity="0.501961" points="144,84 153,68 147,68" />
<polygon fill="#eff1ef" fill-opacity="0.501961" points="140,29 62,90 133,61" />
<polygon fill="#f3f6f5" fill-opacity="0.501961" points="222,29 182,58 200,9" />
<polygon fill="#1f1b24" fill-opacity="0.501961" points="181,69 199,79 159,83" />
<polygon fill="#1a1720" fill-opacity="0.501961" points="169,36 142,69 186,44" />
<polygon fill="#76746e" fill-opacity="0.501961" points="235,91 238,95 246,96" />
<polygon fill="#84837c" fill-opacity="0.501961" points="137,125 123,116 128,123" />
<polygon fill="#bdbdb9" fill-opacity="0.501961" points="60,113 75,98 97,93" />
<polygon fill="#8e8c84" fill-opacity="0.501961" points="14,149 27,168 38,169" />
<polygon fill="#d9dbd9" fill-opacity="0.501961" points="185,82 189,126 238,156" />
<polygon fill="#d9dad8" fill-opacity="0.501961" points="261,69 192,71 229,83" />
<polygon fill="#19161d" fill-opacity="0.501961" points="165,80 196,54 203,64" />
<polygon fill="#bdc0bd" fill-opacity="0.501961" points="26,87 30,100 5,75" />
<polygon fill="#aaa7a0" fill-opacity="0.501961" points="102,175 79,144 117,174" />
<polygon fill="#d0d2cf" fill-opacity="0.501961" points="105,30 55,44 78,48" />
<polygon fill="#f1f3f2" fill-opacity="0.501961" points="93,149 81,98 99,95" />
<polygon fill="#e0e3e0" fill-opacity="0.501961" points="271,17 192,48 206,65" />
<polygon fill="#b5b5af" fill-opacity="0.501961" points="85,83 109,103 100,89" />
<polygon fill="#f8faf9" fill-opacity="0.501961" points="111,118 139,129 116,111" />
<polygon fill="#cbcbc9" fill-opacity="0.501961" points="197,130 161,157 168,130" />
<polygon fill="#a5a39c" fill-opacity="0.501961" points="78,115 85,111 81,105" />
<polygon fill="#cfd1ce" fill-opacity="0.501961" points="261,68 269,51 220,27" />
<polygon fill="#ebeded" fill-opacity="0.501961" points="237,94 260,114 227,140" />
<polygon fill="#ccceca" fill-opacity="0.501961" points="35,18 55,14 18,37" />
<polygon fill="#f2f5f3" fill-opacity="0.501961" points="156,-16 80,44 43,20" />
<polygon fill="#d7d9d6" fill-opacity="0.501961" points="88,11 71,17 110,42" />
<polygon fill="#a6a7a0" fill-opacity="0.501961" points="153,103 149,105 142,96" />
<polygon fill="#c8c9c7" fill-opacity="0.501961" points="52,129 12,125 28,140" />
<polygon fill="#f6faf7" fill-opacity="0.501961" points="130,47 145,49 143,57" />
<polygon fill="#f1f4f4" fill-opacity="0.501961" points="-16,66 53,67 26,39" />
<polygon fill="#bebfb8" fill-opacity="0.501961" points="113,78 124,83 118,91" />
<polygon fill="#979994" fill-opacity="0.501961" points="4,139 13,145 0,141" />
<polygon fill="#9a9c96" fill-opacity="0.501961" points="271,28 256,29 243,22" />
<polygon fill="#120e11" fill-opacity="0.501961" points="147,39 160,51 138,41" />
<polygon fill="#9e9f97" fill-opacity="0.501961" points="60,7 69,-1 68,-6" />
<polygon fill="#cccec9" fill-opacity="0.501961" points="103,53 112,60 129,54" />
<polygon fill="#daddd8" fill-opacity="0.501961" points="126,33 104,28 144,-5" />
<polygon fill="#a19f9a" fill-opacity="0.501961" points="193,117 202,126 208,125" />
<polygon fill="#1e1a22" fill-opacity="0.501961" points="200,79 193,88 172,64" />
<polygon fill="#f3f5f4" fill-opacity="0.501961" points="221,80 196,90 207,70" />
<polygon fill="#a8a8a2" fill-opacity="0.501961" points="141,108 143,112 131,120" />
<polygon fill="#eaebe9" fill-opacity="0.501961" points="229,147 173,159 260,175" />
<polygon fill="#010000" fill-opacity="0.501961" points="186,42 172,42 170,37" />
<polygon fill="#cbcfc9" fill-opacity="0.501961" points="200,11 223,21 192,-4" />
<polygon fill="#9e9d98" fill-opacity="0.501961" points="219,145 214,149 206,145" />
<polygon fill="#c2c2be" fill-opacity="0.501961" points="39,148 69,173 33,160" />
<polygon fill="#f4f6f4" fill-opacity="0.501961" points="132,118 132,94 91,85" />
<polygon fill="#a5a7a3" fill-opacity="0.501961" points="41,104 35,105 30,99" />
<polygon fill="#bfc1bc" fill-opacity="0.501961" points="-8,103 5,102 20,87" />
<polygon fill="#161318" fill-opacity="0.501961" points="134,64 143,73 152,51" />
<polygon fill="#999993" fill-opacity="0.501961" points="271,122 271,134 246,151" />
<polygon fill="#f5f8f6" fill-opacity="0.501961" points="145,36 105,13 133,43" />
<polygon fill="#ecefef" fill-opacity="0.501961" points="20,90 5,128 51,123" />
<polygon fill="#ffffff" fill-opacity="0.501961" points="195,49 178,50 178,55" />
<polygon fill="#f3f5f4" fill-opacity="0.501961" points="75,70 72,109 38,79" />
<polygon fill="#f6f9f8" fill-opacity="0.501961" points="120,88 92,73 87,42" />
<polygon fill="#a6a5a0" fill-opacity="0.501961" points="136,147 142,147 133,137" />
<polygon fill="#93938f" fill-opacity="0.501961" points="106,117 113,114 100,114" />
<polygon fill="#7a7870" fill-opacity="0.501961" points="236,98 245,94 239,94" />
<polygon fill="#e6e9e7" fill-opacity="0.501961" points="210,121 240,154 271,128" />
<polygon fill="#bdbdb7" fill-opacity="0.501961" points="72,71 81,61 67,69" />
<polygon fill="#a2a19a" fill-opacity="0.501961" points="147,140 152,141 143,146" />
<polygon fill="#25232b" fill-opacity="0.501961" points="144,60 184,47 162,44" />
<polygon fill="#a5a6a1" fill-opacity="0.501961" points="215,45 220,54 219,45" />
<polygon fill="#a8a7a2" fill-opacity="0.501961" points="50,55 61,62 59,65" />
<polygon fill="#a4a39f" fill-opacity="0.501961" points="250,94 258,86 242,95" />
<polygon fill="#f0f2f1" fill-opacity="0.501961" points="208,82 192,71 207,65" />
<polygon fill="#c8cbc6" fill-opacity="0.501961" points="12,45 0,36 22,36" />
<polygon fill="#edefef" fill-opacity="0.501961" points="233,67 222,107 186,135" />
<polygon fill="#b7b8b3" fill-opacity="0.501961" points="30,45 38,45 47,36" />
<polygon fill="#92928f" fill-opacity="0.501961" points="44,75 51,71 55,64" />
<polygon fill="#b9b9b4" fill-opacity="0.501961" points="246,73 246,79 260,83" />
<polygon fill="#f2f5f3" fill-opacity="0.501961" points="153,74 126,89 120,73" />
<polygon fill="#ebeeed" fill-opacity="0.501961" points="235,115 227,106 256,89" />
<polygon fill="#abaca5" fill-opacity="0.501961" points="137,99 139,108 134,106" />
<polygon fill="#eaebe9" fill-opacity="0.501961" points="153,143 175,167 90,171" />
<polygon fill="#abafa7" fill-opacity="0.501961" points="243,1 260,6 249,6" />
<polygon fill="#a3a19c" fill-opacity="0.501961" points="59,115 58,123 45,131" />
<polygon fill="#eef1ef" fill-opacity="0.501961" points="180,24 189,50 244,72" />
<polygon fill="#adaeaa" fill-opacity="0.501961" points="223,77 215,77 204,64" />
<polygon fill="#b3b5ad" fill-opacity="0.501961" points="-16,26 10,14 -16,39" />
<polygon fill="#f3f7f5" fill-opacity="0.501961" points="4,-5 38,44 28,-16" />
<polygon fill="#f5f8f6" fill-opacity="0.501961" points="122,20 197,4 146,-1" />
<polygon fill="#e8eae8" fill-opacity="0.501961" points="52,130 68,152 99,160" />
<polygon fill="#c5c7c1" fill-opacity="0.501961" points="8,28 -4,26 21,19" />
<polygon fill="#b9b9b5" fill-opacity="0.501961" points="120,136 129,123 109,139" />
<polygon fill="#afb0a9" fill-opacity="0.501961" points="189,34 184,33 195,29" />
<polygon fill="#b8b9b4" fill-opacity="0.501961" points="234,149 217,143 226,140" />
<polygon fill="#edf0ef" fill-opacity="0.501961" points="217,75 251,42 201,58" />
<polygon fill="#a7a7a4" fill-opacity="0.501961" points="236,75 231,69 237,69" />
<polygon fill="#dddfdb" fill-opacity="0.501961" points="183,106 158,98 158,87" />
<polygon fill="#999892" fill-opacity="0.501961" points="9,112 6,115 -1,114" />
<polygon fill="#91918a" fill-opacity="0.501961" points="27,76 27,71 30,70" />
<polygon fill="#211f26" fill-opacity="0.501961" points="195,60 148,52 165,88" />
<polygon fill="#acada3" fill-opacity="0.501961" points="120,69 117,74 126,68" />
<polygon fill="#74736b" fill-opacity="0.501961" points="24,137 21,136 21,131" />
<polygon fill="#f2f4f2" fill-opacity="0.501961" points="164,98 184,82 192,93" />
<polygon fill="#868075" fill-opacity="0.501961" points="13,154 22,149 17,150" />
<polygon fill="#b7b8b2" fill-opacity="0.501961" points="122,33 127,23 130,26" />
<polygon fill="#acaba6" fill-opacity="0.501961" points="97,137 110,145 100,133" />
<polygon fill="#777671" fill-opacity="0.501961" points="46,131 38,135 43,135" />
<polygon fill="#eceeed" fill-opacity="0.501961" points="55,116 68,135 96,117" />
<polygon fill="#f2f4f4" fill-opacity="0.501961" points="124,149 109,133 100,136" />
<polygon fill="#e3e5e4" fill-opacity="0.501961" points="56,123 82,175 35,145" />
<polygon fill="#eceeed" fill-opacity="0.501961" points="202,159 206,126 177,146" />
<polygon fill="#a6a59f" fill-opacity="0.501961" points="222,108 228,114 225,103" />
<polygon fill="#c5c7c2" fill-opacity="0.501961" points="152,26 158,31 162,19" />
<polygon fill="#f5f9f8" fill-opacity="0.501961" points="230,113 212,107 225,120" />
<polygon fill="#f6f8f8" fill-opacity="0.501961" points="70,73 57,64 45,75" />
<polygon fill="#9b9c97" fill-opacity="0.501961" points="208,138 216,138 218,133" />
<polygon fill="#a9a9a6" fill-opacity="0.501961" points="230,113 225,123 234,114" />
<polygon fill="#93938d" fill-opacity="0.501961" points="89,134 76,129 83,129" />
<polygon fill="#888680" fill-opacity="0.501961" points="71,39 65,40 70,41" />
<polygon fill="#bfc2ba" fill-opacity="0.501961" points="84,5 96,-1 78,2" />
<polygon fill="#bcbfba" fill-opacity="0.501961" points="231,15 215,20 226,11" />
<polygon fill="#f3f6f5" fill-opacity="0.501961" points="182,39 154,26 166,20" />
<polygon fill="#f2f7f4" fill-opacity="0.501961" points="235,11 186,19 259,-16" />
<polygon fill="#1b181f" fill-opacity="0.501961" points="147,79 165,74 170,93" />
<polygon fill="#7a7a6c" fill-opacity="0.501961" points="10,156 -12,175 -5,163" />
<polygon fill="#f4f6f6" fill-opacity="0.501961" points="70,95 47,114 55,118" />
<polygon fill="#938d83" fill-opacity="0.501961" points="156,175 170,151 144,175" />
<polygon fill="#fcffff" fill-opacity="0.501961" points="43,78 28,73 36,69" />
<polygon fill="#8f908a" fill-opacity="0.501961" points="271,67 247,72 270,59" />
<polygon fill="#f9fcf9" fill-opacity="0.501961" points="145,55 133,55 146,50" />
<polygon fill="#9e9e97" fill-opacity="0.501961" points="80,81 82,81 79,74" />
<polygon fill="#c8cac6" fill-opacity="0.501961" points="170,98 194,118 183,102" />
<polygon fill="#c2c4bd" fill-opacity="0.501961" points="118,47 118,41 107,51" />
<polygon fill="#ebeeeb" fill-opacity="0.501961" points="114,104 74,99 109,115" />
<polygon fill="#969890" fill-opacity="0.501961" points="3,102 10,102 12,105" />
<polygon fill="#acaea6" fill-opacity="0.501961" points="198,-16 162,-6 180,2" />
<polygon fill="#f1f4f3" fill-opacity="0.501961" points="44,74 24,39 55,62" />
<polygon fill="#b5b6ad" fill-opacity="0.501961" points="118,90 111,90 107,83" />
<polygon fill="#aaaaa6" fill-opacity="0.501961" points="54,107 45,110 54,102" />
<polygon fill="#eff1f0" fill-opacity="0.501961" points="124,129 116,136 96,112" />
<polygon fill="#9d9d99" fill-opacity="0.501961" points="218,116 225,121 221,122" />
<polygon fill="#9c9d9a" fill-opacity="0.501961" points="40,70 31,69 37,66" />
<polygon fill="#edf0ef" fill-opacity="0.501961" points="245,84 243,41 208,25" />
<polygon fill="#afafab" fill-opacity="0.501961" points="243,97 271,115 271,128" />
<polygon fill="#9b9b98" fill-opacity="0.501961" points="208,123 214,115 202,124" />
<polygon fill="#6b6862" fill-opacity="0.501961" points="244,154 232,175 223,175" />
<polygon fill="#a5a097" fill-opacity="0.501961" points="43,169 92,155 60,175" />
<polygon fill="#f9fdf9" fill-opacity="0.501961" points="162,35 149,44 159,43" />
<polygon fill="#f4f7f6" fill-opacity="0.501961" points="-10,23 14,42 19,33" />
<polygon fill="#eff3f4" fill-opacity="0.501961" points="21,87 -2,63 32,80" />
<polygon fill="#eff1f0" fill-opacity="0.501961" points="149,123 166,152 173,146" />
<polygon fill="#e7e9e7" fill-opacity="0.501961" points="99,155 176,175 129,139" />
<polygon fill="#d7d9d4" fill-opacity="0.501961" points="159,44 168,25 177,27" />
<polygon fill="#989590" fill-opacity="0.501961" points="79,107 73,104 73,99" />
<polygon fill="#f4f7f7" fill-opacity="0.501961" points="184,147 171,135 177,133" />
<polygon fill="#a9aaa3" fill-opacity="0.501961" points="31,14 36,11 34,17" />
<polygon fill="#cbcdc8" fill-opacity="0.501961" points="138,12 135,4 121,0" />
<polygon fill="#a3a19c" fill-opacity="0.501961" points="87,139 90,133 79,143" />
<polygon fill="#cccdca" fill-opacity="0.501961" points="50,36 41,54 54,43" />
<polygon fill="#edf0ef" fill-opacity="0.501961" points="145,143 189,105 149,105" />
<polygon fill="#9e9e94" fill-opacity="0.501961" points="85,63 80,61 76,63" />
<polygon fill="#ebefec" fill-opacity="0.501961" points="137,36 124,64 135,60" />
<polygon fill="#f4f6f6" fill-opacity="0.501961" points="38,9 60,30 63,59" />
<polygon fill="#201e26" fill-opacity="0.501961" points="154,46 178,68 137,68" />
<polygon fill="#e8eae9" fill-opacity="0.501961" points="85,126 96,146 101,97" />
<polygon fill="#b0b1a7" fill-opacity="0.501961" points="75,19 69,16 66,11" />
<polygon fill="#95938f" fill-opacity="0.501961" points="55,102 47,98 54,98" />
<polygon fill="#f1f5f3" fill-opacity="0.501961" points="49,10 -8,-6 80,-9" />
<polygon fill="#b8b8b3" fill-opacity="0.501961" points="209,44 215,46 212,39" />
<polygon fill="#7d7c76" fill-opacity="0.501961" points="150,140 153,140 157,145" />
<polygon fill="#f1f3f2" fill-opacity="0.501961" points="129,119 123,100 142,111" />
<polygon fill="#b4b5b1" fill-opacity="0.501961" points="139,123 145,130 142,133" />
<polygon fill="#f0f4f1" fill-opacity="0.501961" points="180,49 193,46 183,58" />
<polygon fill="#adada9" fill-opacity="0.501961" points="188,136 194,128 201,128" />
<polygon fill="#eef2f1" fill-opacity="0.501961" points="14,92 36,103 5,99" />
<polygon fill="#edf0ef" fill-opacity="0.501961" points="199,126 160,92 187,136" />
<polygon fill="#9d9c96" fill-opacity="0.501961" points="56,115 56,120 64,110" />
<polygon fill="#eef0f0" fill-opacity="0.501961" points="83,84 73,71 53,120" />
<polygon fill="#eceeed" fill-opacity="0.501961" points="191,111 206,123 229,88" />
<polygon fill="#9a9a94" fill-opacity="0.501961" points="71,115 79,116 85,113" />
<polygon fill="#b1b1ad" fill-opacity="0.501961" points="44,113 47,109 58,124" />
<polygon fill="#e4e6e5" fill-opacity="0.501961" points="30,135 86,138 42,153" />
<polygon fill="#eaedeb" fill-opacity="0.501961" points="70,132 103,116 88,105" />
<polygon fill="#a3a39e" fill-opacity="0.501961" points="30,141 21,149 31,146" />
<polygon fill="#e3e6e5" fill-opacity="0.501961" points="58,140 34,136 17,164" />
<polygon fill="#171319" fill-opacity="0.501961" points="192,53 204,65 181,63" />
<polygon fill="#84837c" fill-opacity="0.501961" points="100,112 100,108 104,115" />
<polygon fill="#a5a59f" fill-opacity="0.501961" points="36,81 33,85 33,78" />
<polygon fill="#95958f" fill-opacity="0.501961" points="62,45 64,49 64,42" />
<polygon fill="#e9ebea" fill-opacity="0.501961" points="12,92 53,121 40,134" />
<polygon fill="#aeafa7" fill-opacity="0.501961" points="239,38 228,46 236,36" />
<polygon fill="#94928e" fill-opacity="0.501961" points="177,144 172,148 176,142" />
<polygon fill="#b1b1a7" fill-opacity="0.501961" points="127,69 129,57 132,62" />
<polygon fill="#929490" fill-opacity="0.501961" points="115,109 109,112 119,110" />
<polygon fill="#f0f4f3" fill-opacity="0.501961" points="37,137 31,128 22,134" />
<polygon fill="#ffffff" fill-opacity="0.501961" points="152,74 154,70 148,68" />
<polygon fill="#736c65" fill-opacity="0.501961" points="185,137 188,138 182,138" />
<polygon fill="#1a171d" fill-opacity="0.501961" points="190,87 200,81 188,73" />
<polygon fill="#aeafa8" fill-opacity="0.501961" points="79,48 75,46 87,42" />
<polygon fill="#b3b4ac" fill-opacity="0.501961" points="106,28 99,36 95,35" />
<polygon fill="#f9fcfb" fill-opacity="0.501961" points="226,110 224,106 232,101" />
<polygon fill="#eef0f1" fill-opacity="0.501961" points="39,103 76,70 23,90" />
<polygon fill="#c1c3bf" fill-opacity="0.501961" points="34,45 29,30 18,21" />
<polygon fill="#f2f5f4" fill-opacity="0.501961" points="71,27 109,20 79,46" />
<polygon fill="#b6b5ae" fill-opacity="0.501961" points="205,67 212,55 204,62" />
<polygon fill="#f5f7f7" fill-opacity="0.501961" points="107,56 101,36 59,62" />
<polygon fill="#f3f5f3" fill-opacity="0.501961" points="182,82 176,85 197,92" />
<polygon fill="#b7bab4" fill-opacity="0.501961" points="191,25 185,17 182,20" />
<polygon fill="#f7faf9" fill-opacity="0.501961" points="41,155 75,175 14,175" />
<polygon fill="#edefee" fill-opacity="0.501961" points="234,95 184,91 223,78" />
<polygon fill="#8d8d86" fill-opacity="0.501961" points="114,135 107,130 110,130" />
<polygon fill="#1e1a23" fill-opacity="0.501961" points="148,78 162,87 188,76" />
<polygon fill="#f6f9f6" fill-opacity="0.501961" points="86,135 72,137 82,131" />
<polygon fill="#eff1f2" fill-opacity="0.501961" points="51,107 40,108 58,93" />
<polygon fill="#fbffff" fill-opacity="0.501961" points="63,45 71,41 78,52" />
<polygon fill="#9e9d97" fill-opacity="0.501961" points="54,64 62,62 68,55" />
<polygon fill="#9b9a94" fill-opacity="0.501961" points="225,105 234,99 225,102" />
<polygon fill="#c0c2bd" fill-opacity="0.501961" points="86,21 84,25 95,32" />
<polygon fill="#888881" fill-opacity="0.501961" points="74,136 67,136 69,138" />
<polygon fill="#1e1b22" fill-opacity="0.501961" points="138,48 152,46 144,38" />
<polygon fill="#edf0ee" fill-opacity="0.501961" points="141,129 106,149 131,124" />
<polygon fill="#f5f7f5" fill-opacity="0.501961" points="142,79 131,65 117,79" />
<polygon fill="#eceeed" fill-opacity="0.501961" points="229,84 192,74 202,68" />
<polygon fill="#92928d" fill-opacity="0.501961" points="35,129 37,135 31,126" />
<polygon fill="#abaca5" fill-opacity="0.501961" points="245,15 243,20 246,24" />
<polygon fill="#f5f9f8" fill-opacity="0.501961" points="252,53 261,-8 271,67" />
<polygon fill="#e6e9e8" fill-opacity="0.501961" points="39,102 -16,124 12,143" />
<polygon fill="#eff2f1" fill-opacity="0.501961" points="208,124 229,131 217,117" />
<polygon fill="#9d9d95" fill-opacity="0.501961" points="193,31 194,26 192,25" />
<polygon fill="#fbfffe" fill-opacity="0.501961" points="157,-8 112,-11 132,5" />
<polygon fill="#cfd2cc" fill-opacity="0.501961" points="219,0 204,14 185,16" />
<polygon fill="#eef0ef" fill-opacity="0.501961" points="75,102 110,114 94,95" />
<polygon fill="#f3f6f5" fill-opacity="0.501961" points="132,35 162,41 129,7" />
<polygon fill="#f4f9f7" fill-opacity="0.501961" points="240,34 228,28 245,10" />
<polygon fill="#979894" fill-opacity="0.501961" points="224,30 230,35 235,35" />
<polygon fill="#b0b1ad" fill-opacity="0.501961" points="-16,90 -16,102 10,78" />
<polygon fill="#f6f8f7" fill-opacity="0.501961" points="60,61 59,39 48,52" />
<polygon fill="#a2a19d" fill-opacity="0.501961" points="168,141 173,141 165,135" />
<polygon fill="#a1a39b" fill-opacity="0.501961" points="7,36 3,36 9,41" />
<polygon fill="#a2a498" fill-opacity="0.501961" points="46,-16 36,-15 60,3" />
<polygon fill="#a8a89f" fill-opacity="0.501961" points="113,72 113,80 117,72" />
<polygon fill="#f1f4f2" fill-opacity="0.501961" points="244,41 207,23 227,43" />
<polygon fill="#c5c8c2" fill-opacity="0.501961" points="165,20 153,15 157,13" />
<polygon fill="#ebedec" fill-opacity="0.501961" points="239,95 195,112 205,68" />
<polygon fill="#90918b" fill-opacity="0.501961" points="18,91 14,91 22,88" />
<polygon fill="#92928d" fill-opacity="0.501961" points="229,86 238,92 232,90" />
<polygon fill="#f3f5f4" fill-opacity="0.501961" points="106,80 81,81 127,66" />
<polygon fill="#f3f6f5" fill-opacity="0.501961" points="202,11 222,24 185,20" />
<polygon fill="#fdffff" fill-opacity="0.501961" points="120,46 109,56 115,58" />
<polygon fill="#b2b3ad" fill-opacity="0.501961" points="104,23 107,26 114,24" />
<polygon fill="#9e9e94" fill-opacity="0.501961" points="54,14 46,18 50,18" />
<polygon fill="#b8bab4" fill-opacity="0.501961" points="230,22 232,15 232,24" />
<polygon fill="#fafdfc" fill-opacity="0.501961" points="103,31 126,41 109,25" />
<polygon fill="#a5a5a0" fill-opacity="0.501961" points="40,151 35,155 46,154" />
<polygon fill="#afb2ad" fill-opacity="0.501961" points="44,51 57,59 49,57" />
<polygon fill="#e4e5e5" fill-opacity="0.501961" points="18,153 54,127 42,152" />
<polygon fill="#adafa5" fill-opacity="0.501961" points="136,5 157,-16 171,-15" />
<polygon fill="#95928d" fill-opacity="0.501961" points="199,128 204,124 206,125" />
<polygon fill="#eff1ef" fill-opacity="0.501961" points="234,151 227,143 220,144" />
<polygon fill="#f5f7f6" fill-opacity="0.501961" points="74,69 61,62 76,53" />
<polygon fill="#babab3" fill-opacity="0.501961" points="121,52 117,61 113,61" />
<polygon fill="#a6a6a3" fill-opacity="0.501961" points="222,116 220,113 211,114" />
<polygon fill="#9c9a94" fill-opacity="0.501961" points="87,95 80,95 75,99" />
<polygon fill="#f1f3f1" fill-opacity="0.501961" points="119,82 118,88 99,86" />
<polygon fill="#eaecea" fill-opacity="0.501961" points="225,121 231,114 215,116" />
<polygon fill="#aeafaa" fill-opacity="0.501961" points="179,130 172,130 164,137" />
<polygon fill="#ebedec" fill-opacity="0.501961" points="191,103 166,136 134,120" />
<polygon fill="#b7bab2" fill-opacity="0.501961" points="258,13 247,14 258,16" />
<polygon fill="#ebeeed" fill-opacity="0.501961" points="271,73 246,98 271,118" />
<polygon fill="#bebfba" fill-opacity="0.501961" points="199,105 186,111 196,102" />
<polygon fill="#c5c6c0" fill-opacity="0.501961" points="82,73 90,70 89,63" />
<polygon fill="#1f1c25" fill-opacity="0.501961" points="199,83 191,87 173,67" />
<polygon fill="#8f8e87" fill-opacity="0.501961" points="11,106 12,111 10,111" />
<polygon fill="#c5c7c0" fill-opacity="0.501961" points="117,40 108,41 97,34" />
<polygon fill="#eaede9" fill-opacity="0.501961" points="271,139 252,147 237,175" />
<polygon fill="#eef1f0" fill-opacity="0.501961" points="-16,81 26,64 -4,87" />
<polygon fill="#e6e8e7" fill-opacity="0.501961" points="227,103 264,110 256,144" />
<polygon fill="#ebedec" fill-opacity="0.501961" points="204,75 236,92 207,118" />
<polygon fill="#f4f7f5" fill-opacity="0.501961" points="68,12 88,32 74,-12" />
<polygon fill="#a8a8a1" fill-opacity="0.501961" points="152,104 155,100 160,99" />
<polygon fill="#abaca9" fill-opacity="0.501961" points="209,121 218,133 209,127" />
<polygon fill="#eeefef" fill-opacity="0.501961" points="93,151 106,143 81,142" />
<polygon fill="#070408" fill-opacity="0.501961" points="184,46 184,42 176,39" />
<polygon fill="#f0f2f0" fill-opacity="0.501961" points="95,90 77,80 57,105" />
<polygon fill="#f2f6f4" fill-opacity="0.501961" points="4,18 3,26 21,13" />
<polygon fill="#e4e6e4" fill-opacity="0.501961" points="120,167 180,175 152,141" />
<polygon fill="#f2f6f4" fill-opacity="0.501961" points="161,23 189,-5 201,9" />
<polygon fill="#f1f3f2" fill-opacity="0.501961" points="164,93 134,74 151,103" />
<polygon fill="#c8cac5" fill-opacity="0.501961" points="139,17 149,22 133,7" />
<polygon fill="#8e8d87" fill-opacity="0.501961" points="29,126 33,128 24,128" />
<polygon fill="#aaaaa4" fill-opacity="0.501961" points="107,104 106,102 100,107" />
<polygon fill="#eff1f1" fill-opacity="0.501961" points="215,133 193,139 209,128" />
<polygon fill="#eff1f0" fill-opacity="0.501961" points="186,44 221,75 202,17" />
<polygon fill="#1c1920" fill-opacity="0.501961" points="170,37 148,55 180,62" />
<polygon fill="#eceeed" fill-opacity="0.501961" points="203,124 187,132 185,115" />
<polygon fill="#f2f5f3" fill-opacity="0.501961" points="72,59 101,37 117,45" />
<polygon fill="#f4f8f6" fill-opacity="0.501961" points="86,24 114,17 97,31" />
<polygon fill="#acaba4" fill-opacity="0.501961" points="237,75 238,78 229,82" />
<polygon fill="#94958c" fill-opacity="0.501961" points="84,23 89,21 84,21" />
<polygon fill="#ecf0f0" fill-opacity="0.501961" points="10,108 3,113 -13,89" />
<polygon fill="#aca9a0" fill-opacity="0.501961" points="98,154 103,149 92,154" />
<polygon fill="#9f9e97" fill-opacity="0.501961" points="127,121 130,122 123,130" />
<polygon fill="#1e1c23" fill-opacity="0.501961" points="164,53 141,39 139,46" />
<polygon fill="#a4a59d" fill-opacity="0.501961" points="115,30 125,30 118,33" />
<polygon fill="#92918d" fill-opacity="0.501961" points="207,139 209,145 206,143" />
<polygon fill="#b6b8b1" fill-opacity="0.501961" points="120,13 117,19 127,10" />
<polygon fill="#f2f6f4" fill-opacity="0.501961" points="113,32 130,58 140,35" />
<polygon fill="#afaea9" fill-opacity="0.501961" points="195,96 197,101 187,96" />
<polygon fill="#e5e7e6" fill-opacity="0.501961" points="177,175 240,165 177,136" />
<polygon fill="#e4e5e4" fill-opacity="0.501961" points="232,146 209,123 271,120" />
<polygon fill="#afafaa" fill-opacity="0.501961" points="148,100 146,97 136,98" />
<polygon fill="#f4f7f5" fill-opacity="0.501961" points="152,111 137,102 146,99" />
<polygon fill="#f6f8f8" fill-opacity="0.501961" points="258,69 254,80 248,75" />
<polygon fill="#a6a9a1" fill-opacity="0.501961" points="43,9 39,9 46,12" />
<polygon fill="#989893" fill-opacity="0.501961" points="28,86 30,83 34,83" />
<polygon fill="#94948b" fill-opacity="0.501961" points="271,62 250,56 263,56" />
<polygon fill="#eef1ef" fill-opacity="0.501961" points="36,44 14,6 32,11" />
<polygon fill="#f6f9fa" fill-opacity="0.501961" points="55,119 46,112 49,110" />
<polygon fill="#eff1f0" fill-opacity="0.501961" points="111,92 158,88 105,112" />
<polygon fill="#e6e8e7" fill-opacity="0.501961" points="213,148 205,141 228,133" />
<polygon fill="#b0b0a9" fill-opacity="0.501961" points="68,48 70,55 71,48" />
<polygon fill="#6a665e" fill-opacity="0.501961" points="157,175 164,157 153,169" />
<polygon fill="#edf1ef" fill-opacity="0.501961" points="37,20 0,-3 40,43" />
<polygon fill="#eaedeb" fill-opacity="0.501961" points="18,151 16,129 25,143" />
<polygon fill="#b2b1a8" fill-opacity="0.501961" points="105,84 96,93 100,86" />
<polygon fill="#eff2f0" fill-opacity="0.501961" points="115,111 126,121 104,124" />
<polygon fill="#f0f3f2" fill-opacity="0.501961" points="10,80 16,86 -6,104" />
<polygon fill="#a9a8a2" fill-opacity="0.501961" points="222,77 231,69 226,70" />
<polygon fill="#f6f9f9" fill-opacity="0.501961" points="187,33 173,19 192,29" />
<polygon fill="#a0a199" fill-opacity="0.501961" points="120,80 116,79 123,84" />
<polygon fill="#a9a9a4" fill-opacity="0.501961" points="46,72 42,76 40,72" />
<polygon fill="#f7fbfa" fill-opacity="0.501961" points="37,51 51,43 43,40" />
<polygon fill="#babbb7" fill-opacity="0.501961" points="141,133 135,139 132,137" />
<polygon fill="#f1f5f3" fill-opacity="0.501961" points="238,36 252,26 228,24" />
<polygon fill="#bbbcb8" fill-opacity="0.501961" points="253,46 248,40 245,51" />
<polygon fill="#ccd0c9" fill-opacity="0.501961" points="9,16 11,10 -1,5" />
<polygon fill="#f0f2f1" fill-opacity="0.501961" points="97,91 115,68 86,50" />
<polygon fill="#abaca6" fill-opacity="0.501961" points="227,140 234,148 222,141" />
<polygon fill="#fafcfb" fill-opacity="0.501961" points="138,143 138,136 135,139" />
<polygon fill="#f3f7f5" fill-opacity="0.501961" points="154,41 134,9 122,16" />
<polygon fill="#9c9a95" fill-opacity="0.501961" points="122,132 119,138 116,138" />
<polygon fill="#53544f" fill-opacity="0.501961" points="21,158 26,160 29,164" />
<polygon fill="#f1f4f2" fill-opacity="0.501961" points="193,70 195,75 207,66" />
<polygon fill="#ebeeec" fill-opacity="0.501961" points="132,122 166,96 173,132" />
<polygon fill="#f1f4f3" fill-opacity="0.501961" points="95,13 60,27 59,45" />
<polygon fill="#1d1a1d" fill-opacity="0.501961" points="149,68 132,64 140,59" />
<polygon fill="#bdbcb6" fill-opacity="0.501961" points="33,24 37,24 28,30" />
<polygon fill="#8b9086" fill-opacity="0.501961" points="80,2 62,-16 74,-13" />
<polygon fill="#ecefee" fill-opacity="0.501961" points="36,85 75,113 58,64" />
<polygon fill="#f1f3f2" fill-opacity="0.501961" points="179,83 182,103 170,94" />
<polygon fill="#f5faf8" fill-opacity="0.501961" points="232,21 226,14 220,20" />
<polygon fill="#9c9d97" fill-opacity="0.501961" points="31,98 25,96 20,89" />
<polygon fill="#eceeed" fill-opacity="0.501961" points="220,90 222,118 200,77" />
<polygon fill="#201d25" fill-opacity="0.501961" points="156,74 169,36 188,81" />
<polygon fill="#eaedec" fill-opacity="0.501961" points="45,112 27,111 21,92" />
<polygon fill="#ffffff" fill-opacity="0.501961" points="83,3 73,-16 116,-16" />
<polygon fill="#eff1f1" fill-opacity="0.501961" points="260,60 250,58 235,83" />
<polygon fill="#e5e7e5" fill-opacity="0.501961" points="127,175 96,154 133,135" />
<polygon fill="#f1f4f3" fill-opacity="0.501961" points="181,17 166,-16 162,40" />
</g>
</svg>