<svg xmlns="http://www.w3.org/2000/svg" version="1.1" width="1024" height="640">
<rect x="0" y="0" width="1024" height="640" fill="#8b6648" />
<g transform="scale(4.000000) translate(0.5 0.5)">
<polygon fill="#ffd9a5" fill-opacity="0.501961" points="27,30 214,44 -16,88" />
<polygon fill="#651b00" fill-opacity="0.501961" points="43,69 271,124 255,51" />
<polygon fill="#4c5046" fill-opacity="0.501961" points="71,63 271,158 -15,159" />
<polygon fill="#ffebb8" fill-opacity="0.501961" points="-9,50 99,54 -16,94" />
<polygon fill="#bd8770" fill-opacity="0.501961" points="227,-16 230,59 36,2" />
<polygon fill="#854f3d" fill-opacity="0.501961" points="-16,1 201,24 20,53" />
<polygon fill="#743707" fill-opacity="0.501961" points="-9,116 202,72 69,64" />
<polygon fill="#e9a46f" fill-opacity="0.501961" points="245,47 86,27 147,61" />
<polygon fill="#ffe3c5" fill-opacity="0.501961" points="42,82 66,57 -16,74" />
<polygon fill="#8a4600" fill-opacity="0.501961" points="271,27 245,116 162,95" />
<polygon fill="#521e01" fill-opacity="0.501961" points="174,51 147,77 239,86" />
<polygon fill="#817455" fill-opacity="0.501961" points="122,87 271,114 101,175" />
<polygon fill="#464843" fill-opacity="0.501961" points="7,175 107,150 -16,107" />
<polygon fill="#febc82" fill-opacity="0.501961" points="2,44 129,54 -16,81" />
<polygon fill="#af7723" fill-opacity="0.501961" points="24,113 -16,90 82,96" />
<polygon fill="#704938" fill-opacity="0.501961" points="221,34 162,19 271,13" />
<polygon fill="#bc8228" fill-opacity="0.501961" points="106,153 123,175 123,97" />
<polygon fill="#47282b" fill-opacity="0.501961" points="114,60 146,59 79,89" />
<polygon fill="#a07762" fill-opacity="0.501961" points="-11,49 195,-16 177,42" />
<polygon fill="#f2aa67" fill-opacity="0.501961" points="225,55 164,51 263,31" />
<polygon fill="#72432b" fill-opacity="0.501961" points="8,42 84,24 -16,-5" />
<polygon fill="#bd927c" fill-opacity="0.501961" points="186,18 78,0 234,-16" />
<polygon fill="#6f370f" fill-opacity="0.501961" points="44,104 52,84 -16,86" />
<polygon fill="#a0927d" fill-opacity="0.501961" points="268,144 252,119 196,111" />
<polygon fill="#5b2d03" fill-opacity="0.501961" points="229,58 190,108 210,51" />
<polygon fill="#f6c692" fill-opacity="0.501961" points="175,42 162,60 108,58" />
<polygon fill="#192300" fill-opacity="0.501961" points="239,98 252,114 271,93" />
<polygon fill="#67605a" fill-opacity="0.501961" points="141,91 121,175 271,146" />
<polygon fill="#000000" fill-opacity="0.501961" points="6,111 10,122 -16,121" />
<polygon fill="#9d3e0c" fill-opacity="0.501961" points="271,-6 211,87 271,97" />
<polygon fill="#a55b21" fill-opacity="0.501961" points="170,76 88,89 189,100" />
<polygon fill="#51281f" fill-opacity="0.501961" points="52,66 89,89 158,68" />
<polygon fill="#968270" fill-opacity="0.501961" points="22,107 63,103 -6,133" />
<polygon fill="#ffc186" fill-opacity="0.501961" points="49,52 140,47 101,65" />
<polygon fill="#54524b" fill-opacity="0.501961" points="25,120 104,175 112,100" />
<polygon fill="#f0b67c" fill-opacity="0.501961" points="228,44 153,45 191,56" />
<polygon fill="#561806" fill-opacity="0.501961" points="257,78 235,62 231,89" />
<polygon fill="#94563d" fill-opacity="0.501961" points="163,59 133,70 113,60" />
<polygon fill="#d77828" fill-opacity="0.501961" points="-5,96 33,91 14,106" />
<polygon fill="#e3d7c7" fill-opacity="0.501961" points="-7,86 4,67 52,76" />
<polygon fill="#705e0b" fill-opacity="0.501961" points="256,120 175,102 196,84" />
<polygon fill="#e57f3a" fill-opacity="0.501961" points="244,93 271,88 236,85" />
<polygon fill="#ca885a" fill-opacity="0.501961" points="-16,38 77,44 13,58" />
<polygon fill="#2b3651" fill-opacity="0.501961" points="116,134 118,159 108,175" />
<polygon fill="#53211d" fill-opacity="0.501961" points="18,86 21,79 37,89" />
<polygon fill="#756a5a" fill-opacity="0.501961" points="187,168 98,91 157,91" />
<polygon fill="#441902" fill-opacity="0.501961" points="149,68 190,61 174,53" />
<polygon fill="#7b370d" fill-opacity="0.501961" points="210,52 187,82 122,92" />
<polygon fill="#b26f46" fill-opacity="0.501961" points="172,44 203,24 271,38" />
<polygon fill="#b07b62" fill-opacity="0.501961" points="189,11 271,12 244,-16" />
<polygon fill="#ffb31e" fill-opacity="0.501961" points="121,141 115,168 123,154" />
<polygon fill="#83604e" fill-opacity="0.501961" points="174,35 106,21 241,11" />
<polygon fill="#f3d5ad" fill-opacity="0.501961" points="-16,71 70,55 42,81" />
<polygon fill="#2c2c04" fill-opacity="0.501961" points="203,99 187,94 217,90" />
<polygon fill="#986523" fill-opacity="0.501961" points="262,121 230,94 196,102" />
<polygon fill="#8d601a" fill-opacity="0.501961" points="40,87 111,87 87,101" />
<polygon fill="#cd895d" fill-opacity="0.501961" points="172,31 122,48 225,44" />
<polygon fill="#f1ce9e" fill-opacity="0.501961" points="240,43 216,50 224,54" />
<polygon fill="#74392a" fill-opacity="0.501961" points="75,63 38,85 86,89" />
<polygon fill="#633c31" fill-opacity="0.501961" points="84,63 54,68 54,84" />
<polygon fill="#b67e32" fill-opacity="0.501961" points="152,92 169,104 182,95" />
<polygon fill="#862900" fill-opacity="0.501961" points="19,95 4,97 -16,83" />
<polygon fill="#875c45" fill-opacity="0.501961" points="-16,49 115,23 61,11" />
<polygon fill="#6f5e4d" fill-opacity="0.501961" points="246,123 219,117 265,141" />
<polygon fill="#41470c" fill-opacity="0.501961" points="27,97 26,107 45,90" />
<polygon fill="#c85802" fill-opacity="0.501961" points="261,49 233,48 271,24" />
<polygon fill="#ca6313" fill-opacity="0.501961" points="226,64 231,78 233,50" />
<polygon fill="#b16b49" fill-opacity="0.501961" points="53,-5 24,8 78,10" />
<polygon fill="#eec992" fill-opacity="0.501961" points="205,51 174,49 192,57" />
<polygon fill="#e8d5ab" fill-opacity="0.501961" points="134,54 168,55 147,60" />
<polygon fill="#c4c4b4" fill-opacity="0.501961" points="251,139 261,139 240,130" />
<polygon fill="#e8cba2" fill-opacity="0.501961" points="103,65 78,62 129,52" />
<polygon fill="#5f5347" fill-opacity="0.501961" points="143,162 126,99 123,175" />
<polygon fill="#e58035" fill-opacity="0.501961" points="49,100 53,92 62,100" />
<polygon fill="#854014" fill-opacity="0.501961" points="183,79 185,57 221,54" />
<polygon fill="#eaa06a" fill-opacity="0.501961" points="114,40 142,56 59,53" />
<polygon fill="#5a5045" fill-opacity="0.501961" points="113,134 121,117 116,150" />
<polygon fill="#782500" fill-opacity="0.501961" points="265,34 266,53 233,59" />
<polygon fill="#a28f46" fill-opacity="0.501961" points="-3,107 29,105 23,98" />
<polygon fill="#c78d32" fill-opacity="0.501961" points="107,151 115,118 116,138" />
<polygon fill="#754d3a" fill-opacity="0.501961" points="198,20 271,15 256,32" />
<polygon fill="#020b00" fill-opacity="0.501961" points="-16,104 10,120 -10,123" />
<polygon fill="#eba429" fill-opacity="0.501961" points="124,137 119,144 122,123" />
<polygon fill="#dd961e" fill-opacity="0.501961" points="113,146 109,166 104,163" />
<polygon fill="#774226" fill-opacity="0.501961" points="51,10 -16,11 -8,40" />
<polygon fill="#6d6555" fill-opacity="0.501961" points="242,175 266,145 210,118" />
<polygon fill="#744536" fill-opacity="0.501961" points="132,58 121,70 106,64" />
<polygon fill="#b25012" fill-opacity="0.501961" points="242,55 271,59 242,72" />
<polygon fill="#927a6f" fill-opacity="0.501961" points="99,18 180,17 139,5" />
<polygon fill="#926a55" fill-opacity="0.501961" points="86,35 86,8 186,34" />
<polygon fill="#4d240e" fill-opacity="0.501961" points="158,78 168,55 192,62" />
<polygon fill="#64280b" fill-opacity="0.501961" points="225,83 191,62 223,57" />
<polygon fill="#d77b37" fill-opacity="0.501961" points="6,89 27,97 18,89" />
<polygon fill="#89451b" fill-opacity="0.501961" points="216,68 246,105 212,102" />
<polygon fill="#b9864a" fill-opacity="0.501961" points="267,129 233,119 271,110" />
<polygon fill="#eee2cb" fill-opacity="0.501961" points="19,79 46,74 40,81" />
<polygon fill="#6b6359" fill-opacity="0.501961" points="107,115 127,91 48,108" />
<polygon fill="#d27035" fill-opacity="0.501961" points="127,86 134,80 124,81" />
<polygon fill="#b9b4a5" fill-opacity="0.501961" points="230,129 237,128 223,122" />
<polygon fill="#402419" fill-opacity="0.501961" points="101,88 119,72 85,77" />
<polygon fill="#5e4d39" fill-opacity="0.501961" points="29,115 5,125 14,115" />
<polygon fill="#545816" fill-opacity="0.501961" points="22,108 -10,107 -16,120" />
<polygon fill="#ab551f" fill-opacity="0.501961" points="160,65 134,69 138,62" />
<polygon fill="#431801" fill-opacity="0.501961" points="210,87 224,67 207,80" />
<polygon fill="#9e7770" fill-opacity="0.501961" points="17,84 0,91 -5,86" />
<polygon fill="#b98362" fill-opacity="0.501961" points="139,45 44,47 90,31" />
<polygon fill="#615b0d" fill-opacity="0.501961" points="95,96 67,102 74,91" />
<polygon fill="#944c1d" fill-opacity="0.501961" points="173,77 187,81 193,64" />
<polygon fill="#551e00" fill-opacity="0.501961" points="175,78 170,86 194,82" />
<polygon fill="#807260" fill-opacity="0.501961" points="132,92 124,111 195,109" />
<polygon fill="#63594a" fill-opacity="0.501961" points="201,122 238,171 139,98" />
<polygon fill="#a66a30" fill-opacity="0.501961" points="84,91 109,94 91,84" />
<polygon fill="#b4b3a7" fill-opacity="0.501961" points="17,124 12,124 21,120" />
<polygon fill="#8a4925" fill-opacity="0.501961" points="37,93 75,91 86,73" />
<polygon fill="#986749" fill-opacity="0.501961" points="226,42 269,28 174,24" />
<polygon fill="#bc5d16" fill-opacity="0.501961" points="165,93 178,97 187,86" />
<polygon fill="#5e5548" fill-opacity="0.501961" points="68,104 99,165 10,126" />
<polygon fill="#985025" fill-opacity="0.501961" points="222,54 201,60 209,51" />
<polygon fill="#fbd6a4" fill-opacity="0.501961" points="85,66 88,58 81,58" />
<polygon fill="#6f4a39" fill-opacity="0.501961" points="-11,24 21,37 73,21" />
<polygon fill="#f5ce9f" fill-opacity="0.501961" points="55,54 -11,68 53,75" />
<polygon fill="#f2aa70" fill-opacity="0.501961" points="19,53 51,57 69,46" />
<polygon fill="#543125" fill-opacity="0.501961" points="96,70 91,63 70,79" />
<polygon fill="#a27252" fill-opacity="0.501961" points="8,35 50,42 -16,50" />
<polygon fill="#716555" fill-opacity="0.501961" points="210,118 238,150 270,146" />
<polygon fill="#60301f" fill-opacity="0.501961" points="87,89 133,67 122,85" />
<polygon fill="#f9ce93" fill-opacity="0.501961" points="36,54 84,60 58,67" />
<polygon fill="#e6a570" fill-opacity="0.501961" points="206,41 148,48 181,53" />
<polygon fill="#5b280b" fill-opacity="0.501961" points="181,53 134,77 188,73" />
<polygon fill="#dbded5" fill-opacity="0.501961" points="6,127 -16,133 -11,137" />
<polygon fill="#6e652a" fill-opacity="0.501961" points="39,98 56,102 23,107" />
<polygon fill="#efdcc3" fill-opacity="0.501961" points="14,84 -16,82 31,70" />
<polygon fill="#4f210c" fill-opacity="0.501961" points="40,93 58,85 32,89" />
<polygon fill="#2d2200" fill-opacity="0.501961" points="244,98 248,112 257,98" />
<polygon fill="#974a19" fill-opacity="0.501961" points="138,79 107,92 166,88" />
<polygon fill="#995c23" fill-opacity="0.501961" points="42,94 43,87 56,90" />
<polygon fill="#8b6f54" fill-opacity="0.501961" points="237,127 201,110 221,111" />
<polygon fill="#6c280b" fill-opacity="0.501961" points="224,85 266,84 249,70" />
<polygon fill="#0f0000" fill-opacity="0.501961" points="252,56 271,14 271,47" />
<polygon fill="#c28868" fill-opacity="0.501961" points="76,9 103,-15 139,1" />
<polygon fill="#dc8e54" fill-opacity="0.501961" points="232,49 226,41 244,40" />
<polygon fill="#453900" fill-opacity="0.501961" points="182,96 206,95 193,88" />
<polygon fill="#514b48" fill-opacity="0.501961" points="118,126 119,148 114,140" />
<polygon fill="#6a5c4a" fill-opacity="0.501961" points="121,92 118,123 126,102" />
<polygon fill="#7b350c" fill-opacity="0.501961" points="151,66 160,91 131,71" />
<polygon fill="#aa5b18" fill-opacity="0.501961" points="228,63 221,86 236,75" />
<polygon fill="#f1c18d" fill-opacity="0.501961" points="3,74 -10,57 34,54" />
<polygon fill="#6f3114" fill-opacity="0.501961" points="200,55 209,52 216,55" />
<polygon fill="#544c40" fill-opacity="0.501961" points="113,115 79,175 107,153" />
<polygon fill="#f4c288" fill-opacity="0.501961" points="114,49 141,58 84,57" />
<polygon fill="#3c3400" fill-opacity="0.501961" points="240,113 239,117 232,113" />
<polygon fill="#552811" fill-opacity="0.501961" points="167,80 163,61 155,59" />
<polygon fill="#6b5d4d" fill-opacity="0.501961" points="128,96 123,142 155,175" />
<polygon fill="#613830" fill-opacity="0.501961" points="128,64 116,61 135,59" />
<polygon fill="#492c20" fill-opacity="0.501961" points="96,70 57,76 79,65" />
<polygon fill="#8b7824" fill-opacity="0.501961" points="186,96 168,101 205,102" />
<polygon fill="#3d0e00" fill-opacity="0.501961" points="241,83 255,79 246,78" />
<polygon fill="#5e2a0e" fill-opacity="0.501961" points="140,88 129,85 124,89" />
<polygon fill="#4c2919" fill-opacity="0.501961" points="84,76 77,84 91,88" />
<polygon fill="#d8bfa9" fill-opacity="0.501961" points="-16,67 27,69 -1,76" />
<polygon fill="#5b3e07" fill-opacity="0.501961" points="238,95 239,105 261,116" />
<polygon fill="#755a19" fill-opacity="0.501961" points="216,87 198,82 206,93" />
<polygon fill="#2b0300" fill-opacity="0.501961" points="242,60 238,57 236,59" />
<polygon fill="#a44d14" fill-opacity="0.501961" points="226,73 212,72 212,67" />
<polygon fill="#5f564a" fill-opacity="0.501961" points="4,151 61,117 -7,132" />
<polygon fill="#7c3f29" fill-opacity="0.501961" points="22,88 23,80 19,80" />
<polygon fill="#a07053" fill-opacity="0.501961" points="71,26 30,39 112,37" />
<polygon fill="#835202" fill-opacity="0.501961" points="6,101 2,105 -13,99" />
<polygon fill="#c7672a" fill-opacity="0.501961" points="248,86 232,89 261,94" />
<polygon fill="#e9cca0" fill-opacity="0.501961" points="167,52 150,57 168,57" />
<polygon fill="#98836d" fill-opacity="0.501961" points="192,113 213,111 187,106" />
<polygon fill="#926e25" fill-opacity="0.501961" points="263,120 207,103 237,103" />
<polygon fill="#a07a68" fill-opacity="0.501961" points="69,16 100,2 133,11" />
<polygon fill="#c08934" fill-opacity="0.501961" points="125,120 124,106 119,125" />
<polygon fill="#a15416" fill-opacity="0.501961" points="192,91 182,73 184,85" />
<polygon fill="#e4863a" fill-opacity="0.501961" points="51,99 63,94 61,99" />
<polygon fill="#98583a" fill-opacity="0.501961" points="36,85 41,87 43,81" />
<polygon fill="#a1782b" fill-opacity="0.501961" points="109,89 93,90 82,99" />
<polygon fill="#8d3a0f" fill-opacity="0.501961" points="230,79 243,88 241,75" />
<polygon fill="#e3c599" fill-opacity="0.501961" points="226,54 208,49 235,49" />
<polygon fill="#9d3e00" fill-opacity="0.501961" points="249,56 254,46 233,49" />
<polygon fill="#945838" fill-opacity="0.501961" points="17,14 48,22 75,13" />
<polygon fill="#827564" fill-opacity="0.501961" points="155,92 139,92 168,106" />
<polygon fill="#917f6a" fill-opacity="0.501961" points="32,116 65,104 48,104" />
<polygon fill="#f1ad73" fill-opacity="0.501961" points="131,45 163,51 102,56" />
<polygon fill="#8e4712" fill-opacity="0.501961" points="260,96 228,98 218,84" />
<polygon fill="#542308" fill-opacity="0.501961" points="222,79 203,69 185,83" />
<polygon fill="#581200" fill-opacity="0.501961" points="234,74 248,64 235,68" />
<polygon fill="#917d31" fill-opacity="0.501961" points="88,99 79,94 67,99" />
<polygon fill="#ac4f12" fill-opacity="0.501961" points="248,59 246,75 239,62" />
<polygon fill="#3a3700" fill-opacity="0.501961" points="24,96 37,96 26,101" />
<polygon fill="#8d5a48" fill-opacity="0.501961" points="-16,-3 61,-16 31,11" />
<polygon fill="#6a1f00" fill-opacity="0.501961" points="-12,90 8,90 1,95" />
<polygon fill="#65481e" fill-opacity="0.501961" points="78,96 64,89 46,93" />
<polygon fill="#be580b" fill-opacity="0.501961" points="14,98 -16,81 -16,95" />
<polygon fill="#994f2f" fill-opacity="0.501961" points="58,90 58,76 53,83" />
<polygon fill="#e8c895" fill-opacity="0.501961" points="180,51 187,56 183,55" />
<polygon fill="#8f5339" fill-opacity="0.501961" points="121,70 136,62 113,66" />
<polygon fill="#893d0c" fill-opacity="0.501961" points="195,72 212,76 198,77" />
<polygon fill="#6b4c12" fill-opacity="0.501961" points="163,89 164,95 153,90" />
<polygon fill="#1f1600" fill-opacity="0.501961" points="189,104 192,103 195,105" />
<polygon fill="#c2bdab" fill-opacity="0.501961" points="235,128 245,133 242,128" />
<polygon fill="#7c6851" fill-opacity="0.501961" points="233,122 242,130 255,127" />
<polygon fill="#efc799" fill-opacity="0.501961" points="85,58 77,65 78,59" />
<polygon fill="#99694f" fill-opacity="0.501961" points="214,12 254,17 263,2" />
<polygon fill="#a3531f" fill-opacity="0.501961" points="136,86 134,77 156,87" />
<polygon fill="#acaca0" fill-opacity="0.501961" points="24,117 21,120 30,117" />
<polygon fill="#f0dbbe" fill-opacity="0.501961" points="41,81 11,72 54,72" />
<polygon fill="#8a4a34" fill-opacity="0.501961" points="4,89 34,91 19,83" />
<polygon fill="#f7cc92" fill-opacity="0.501961" points="50,59 68,66 75,54" />
<polygon fill="#ae5922" fill-opacity="0.501961" points="192,65 186,69 186,63" />
<polygon fill="#897134" fill-opacity="0.501961" points="27,110 -3,107 37,100" />
<polygon fill="#8d3d0a" fill-opacity="0.501961" points="178,77 169,69 162,69" />
<polygon fill="#916b4d" fill-opacity="0.501961" points="48,108 6,119 21,107" />
<polygon fill="#48291d" fill-opacity="0.501961" points="116,85 115,60 108,67" />
<polygon fill="#c58e6b" fill-opacity="0.501961" points="176,5 181,13 209,6" />
<polygon fill="#786956" fill-opacity="0.501961" points="264,128 269,143 238,127" />
<polygon fill="#eacea7" fill-opacity="0.501961" points="107,57 86,63 107,63" />
<polygon fill="#de9b28" fill-opacity="0.501961" points="122,141 123,160 118,149" />
<polygon fill="#8f5d29" fill-opacity="0.501961" points="231,79 215,90 213,83" />
<polygon fill="#957769" fill-opacity="0.501961" points="200,4 203,-15 271,-4" />
<polygon fill="#6b5507" fill-opacity="0.501961" points="235,116 224,107 213,109" />
<polygon fill="#e9a96c" fill-opacity="0.501961" points="201,44 235,46 211,51" />
<polygon fill="#d79368" fill-opacity="0.501961" points="81,46 42,45 61,51" />
<polygon fill="#8e5f47" fill-opacity="0.501961" points="134,24 58,9 80,29" />
<polygon fill="#805b45" fill-opacity="0.501961" points="-2,31 38,34 -9,43" />
<polygon fill="#5a5143" fill-opacity="0.501961" points="-15,138 -16,158 37,115" />
<polygon fill="#b4ad9e" fill-opacity="0.501961" points="227,124 215,119 223,119" />
<polygon fill="#f0d099" fill-opacity="0.501961" points="162,59 156,54 165,57" />
<polygon fill="#74310f" fill-opacity="0.501961" points="207,73 220,56 231,55" />
<polygon fill="#ad775a" fill-opacity="0.501961" points="84,14 27,-5 99,-16" />
<polygon fill="#a27b62" fill-opacity="0.501961" points="88,38 133,39 116,29" />
<polygon fill="#652906" fill-opacity="0.501961" points="224,65 225,74 213,75" />
<polygon fill="#756959" fill-opacity="0.501961" points="184,106 192,129 247,134" />
<polygon fill="#3c1909" fill-opacity="0.501961" points="168,54 169,61 179,54" />
<polygon fill="#bf8c41" fill-opacity="0.501961" points="117,118 119,108 116,112" />
<polygon fill="#8d4417" fill-opacity="0.501961" points="181,89 172,78 140,81" />
<polygon fill="#a55d38" fill-opacity="0.501961" points="108,69 107,66 103,67" />
<polygon fill="#766856" fill-opacity="0.501961" points="230,119 241,128 218,118" />
<polygon fill="#635c51" fill-opacity="0.501961" points="110,128 123,92 98,92" />
<polygon fill="#554707" fill-opacity="0.501961" points="67,95 88,95 80,90" />
<polygon fill="#c26d30" fill-opacity="0.501961" points="213,57 215,54 207,58" />
<polygon fill="#533025" fill-opacity="0.501961" points="55,70 71,78 62,80" />
<polygon fill="#d3853f" fill-opacity="0.501961" points="8,99 12,104 25,97" />
<polygon fill="#d17322" fill-opacity="0.501961" points="231,50 245,46 236,45" />
<polygon fill="#e2c199" fill-opacity="0.501961" points="180,53 173,51 184,50" />
<polygon fill="#8f5d4b" fill-opacity="0.501961" points="159,61 133,59 140,65" />
<polygon fill="#531500" fill-opacity="0.501961" points="228,84 236,83 229,78" />
<polygon fill="#8a4e35" fill-opacity="0.501961" points="58,71 63,66 71,72" />
<polygon fill="#582608" fill-opacity="0.501961" points="189,61 196,68 205,59" />
<polygon fill="#b65629" fill-opacity="0.501961" points="229,96 231,89 235,100" />
<polygon fill="#904211" fill-opacity="0.501961" points="216,67 203,68 196,63" />
<polygon fill="#8d7e6c" fill-opacity="0.501961" points="147,107 133,96 133,104" />
<polygon fill="#301910" fill-opacity="0.501961" points="92,84 86,81 95,75" />
<polygon fill="#b5b1a6" fill-opacity="0.501961" points="7,127 7,124 10,125" />
<polygon fill="#7f360e" fill-opacity="0.501961" points="213,83 234,108 227,91" />
<polygon fill="#754d38" fill-opacity="0.501961" points="217,20 263,31 271,18" />
<polygon fill="#9a4d25" fill-opacity="0.501961" points="74,90 65,75 78,87" />
<polygon fill="#0a0201" fill-opacity="0.501961" points="202,70 206,72 205,74" />
<polygon fill="#824322" fill-opacity="0.501961" points="107,80 114,83 100,82" />
<polygon fill="#704800" fill-opacity="0.501961" points="173,102 184,104 182,100" />
<polygon fill="#56332a" fill-opacity="0.501961" points="114,60 132,71 129,76" />
<polygon fill="#a67938" fill-opacity="0.501961" points="164,91 177,103 162,101" />
<polygon fill="#ea9d64" fill-opacity="0.501961" points="-16,64 13,52 -15,49" />
<polygon fill="#6d5c49" fill-opacity="0.501961" points="14,122 35,113 24,112" />
<polygon fill="#6e3b2d" fill-opacity="0.501961" points="34,82 33,85 44,85" />
<polygon fill="#5f1900" fill-opacity="0.501961" points="233,73 248,63 235,67" />
<polygon fill="#322607" fill-opacity="0.501961" points="271,104 271,82 244,111" />
<polygon fill="#4d1d05" fill-opacity="0.501961" points="208,69 203,62 215,62" />
<polygon fill="#c55d0d" fill-opacity="0.501961" points="233,68 228,69 226,80" />
<polygon fill="#5c4704" fill-opacity="0.501961" points="183,90 213,86 192,99" />
<polygon fill="#ab5817" fill-opacity="0.501961" points="188,93 174,85 168,95" />
<polygon fill="#af8977" fill-opacity="0.501961" points="124,-16 203,-2 157,13" />
<polygon fill="#2b0c00" fill-opacity="0.501961" points="212,78 205,82 214,84" />
<polygon fill="#774028" fill-opacity="0.501961" points="95,65 83,76 98,72" />
<polygon fill="#413908" fill-opacity="0.501961" points="8,119 8,109 -1,112" />
<polygon fill="#663826" fill-opacity="0.501961" points="20,80 25,81 25,91" />
<polygon fill="#ba774a" fill-opacity="0.501961" points="208,38 250,44 233,34" />
<polygon fill="#4a2920" fill-opacity="0.501961" points="81,63 87,72 78,71" />
<polygon fill="#645d50" fill-opacity="0.501961" points="147,102 146,94 133,91" />
<polygon fill="#b4560c" fill-opacity="0.501961" points="255,56 244,56 234,67" />
<polygon fill="#52290d" fill-opacity="0.501961" points="201,76 192,79 188,71" />
<polygon fill="#805b49" fill-opacity="0.501961" points="173,26 206,17 220,28" />
<polygon fill="#c88d29" fill-opacity="0.501961" points="112,141 106,156 112,149" />
<polygon fill="#6e6251" fill-opacity="0.501961" points="175,144 208,147 144,98" />
<polygon fill="#b4895d" fill-opacity="0.501961" points="213,113 219,111 222,115" />
<polygon fill="#060d00" fill-opacity="0.501961" points="7,119 3,115 -7,124" />
<polygon fill="#c3722e" fill-opacity="0.501961" points="-16,86 8,89 -9,92" />
<polygon fill="#934f1f" fill-opacity="0.501961" points="51,97 43,86 51,90" />
<polygon fill="#c66c2f" fill-opacity="0.501961" points="128,86 128,80 122,84" />
<polygon fill="#7b808d" fill-opacity="0.501961" points="-7,85 9,85 0,88" />
<polygon fill="#b5510f" fill-opacity="0.501961" points="233,50 226,55 239,52" />
<polygon fill="#cb902f" fill-opacity="0.501961" points="110,139 114,131 112,143" />
<polygon fill="#9f4f1b" fill-opacity="0.501961" points="206,55 204,61 212,60" />
<polygon fill="#3c2209" fill-opacity="0.501961" points="191,86 198,75 190,80" />
<polygon fill="#8a6b26" fill-opacity="0.501961" points="251,120 245,107 229,107" />
<polygon fill="#584f42" fill-opacity="0.501961" points="103,102 41,171 -7,162" />
<polygon fill="#625a4e" fill-opacity="0.501961" points="108,100 103,131 43,113" />
<polygon fill="#7a3e18" fill-opacity="0.501961" points="189,79 179,70 197,79" />
<polygon fill="#d79367" fill-opacity="0.501961" points="108,43 113,51 142,44" />
<polygon fill="#edb981" fill-opacity="0.501961" points="194,57 195,46 189,51" />
<polygon fill="#504c4a" fill-opacity="0.501961" points="118,130 119,112 121,121" />
<polygon fill="#a65e0d" fill-opacity="0.501961" points="34,97 37,93 30,92" />
<polygon fill="#824723" fill-opacity="0.501961" points="32,14 -7,13 -1,27" />
<polygon fill="#74602b" fill-opacity="0.501961" points="67,95 49,108 71,100" />
<polygon fill="#603931" fill-opacity="0.501961" points="47,87 48,80 42,82" />
<polygon fill="#948876" fill-opacity="0.501961" points="65,102 73,102 60,106" />
<polygon fill="#655442" fill-opacity="0.501961" points="8,124 -6,122 -1,127" />
<polygon fill="#544203" fill-opacity="0.501961" points="203,109 210,108 203,105" />
<polygon fill="#451a00" fill-opacity="0.501961" points="172,79 180,86 181,81" />
<polygon fill="#966955" fill-opacity="0.501961" points="24,3 38,-16 56,2" />
<polygon fill="#a98e72" fill-opacity="0.501961" points="269,124 262,130 238,120" />
<polygon fill="#a87758" fill-opacity="0.501961" points="217,9 245,-7 237,13" />
<polygon fill="#4f250f" fill-opacity="0.501961" points="155,62 189,63 180,71" />
<polygon fill="#000000" fill-opacity="0.501961" points="7,93 8,91 5,91" />
<polygon fill="#bcb7a9" fill-opacity="0.501961" points="217,119 212,119 208,115" />
<polygon fill="#330c00" fill-opacity="0.501961" points="239,80 242,79 247,82" />
<polygon fill="#994a15" fill-opacity="0.501961" points="217,71 208,71 217,65" />
<polygon fill="#9d7058" fill-opacity="0.501961" points="136,27 218,27 179,39" />
<polygon fill="#5d5145" fill-opacity="0.501961" points="125,130 138,175 124,154" />
<polygon fill="#e9d9bf" fill-opacity="0.501961" points="26,73 52,75 39,82" />
<polygon fill="#732b09" fill-opacity="0.501961" points="248,71 240,72 257,90" />
<polygon fill="#a1733b" fill-opacity="0.501961" points="42,100 48,100 54,106" />
<polygon fill="#1d0b0d" fill-opacity="0.501961" points="52,85 53,89 49,87" />
<polygon fill="#9f4000" fill-opacity="0.501961" points="262,45 257,51 246,39" />
<polygon fill="#ffdaa4" fill-opacity="0.501961" points="57,59 36,68 11,64" />
<polygon fill="#916c27" fill-opacity="0.501961" points="205,101 236,106 219,110" />
<polygon fill="#5b1b00" fill-opacity="0.501961" points="243,67 232,62 240,75" />
<polygon fill="#ebc6a5" fill-opacity="0.501961" points="52,62 54,74 26,70" />
<polygon fill="#6b300d" fill-opacity="0.501961" points="182,55 179,70 167,78" />
<polygon fill="#a08171" fill-opacity="0.501961" points="137,15 107,8 164,3" />
<polygon fill="#723b17" fill-opacity="0.501961" points="151,84 154,93 161,77" />
<polygon fill="#aa7b58" fill-opacity="0.501961" points="32,111 31,106 49,105" />
<polygon fill="#9c5d2f" fill-opacity="0.501961" points="60,91 70,88 50,88" />
<polygon fill="#edca97" fill-opacity="0.501961" points="90,59 94,65 101,56" />
<polygon fill="#e7b178" fill-opacity="0.501961" points="206,49 207,53 212,44" />
<polygon fill="#8d481f" fill-opacity="0.501961" points="217,88 209,99 231,107" />
<polygon fill="#814932" fill-opacity="0.501961" points="72,64 60,72 66,71" />
<polygon fill="#b96233" fill-opacity="0.501961" points="108,88 104,93 99,90" />
<polygon fill="#664308" fill-opacity="0.501961" points="242,102 247,90 252,96" />
<polygon fill="#9d4d19" fill-opacity="0.501961" points="196,59 189,56 191,60" />
<polygon fill="#67270a" fill-opacity="0.501961" points="235,100 226,100 228,103" />
<polygon fill="#d57d39" fill-opacity="0.501961" points="17,95 19,91 26,93" />
<polygon fill="#867a69" fill-opacity="0.501961" points="168,104 186,112 194,108" />
<polygon fill="#e9c190" fill-opacity="0.501961" points="130,54 154,60 151,53" />
<polygon fill="#885e48" fill-opacity="0.501961" points="69,28 43,26 39,37" />
<polygon fill="#96461c" fill-opacity="0.501961" points="250,75 263,41 262,78" />
<polygon fill="#611e00" fill-opacity="0.501961" points="233,55 241,60 242,54" />
<polygon fill="#916c48" fill-opacity="0.501961" points="17,111 7,117 10,112" />
<polygon fill="#6f6353" fill-opacity="0.501961" points="206,171 129,111 137,154" />
<polygon fill="#814c39" fill-opacity="0.501961" points="109,62 121,70 135,62" />
<polygon fill="#655542" fill-opacity="0.501961" points="34,113 43,109 34,109" />
<polygon fill="#3a3104" fill-opacity="0.501961" points="186,91 205,96 195,98" />
<polygon fill="#7c3f25" fill-opacity="0.501961" points="60,87 85,85 52,77" />
<polygon fill="#b67e5d" fill-opacity="0.501961" points="182,33 156,36 195,43" />
<polygon fill="#442418" fill-opacity="0.501961" points="126,79 118,70 130,77" />
<polygon fill="#87735a" fill-opacity="0.501961" points="98,100 81,99 88,103" />
<polygon fill="#f2e9d1" fill-opacity="0.501961" points="253,137 271,155 271,140" />
<polygon fill="#1f1a00" fill-opacity="0.501961" points="271,104 244,102 263,97" />
<polygon fill="#bf8359" fill-opacity="0.501961" points="26,49 -1,44 -12,53" />
<polygon fill="#704439" fill-opacity="0.501961" points="156,59 151,64 156,63" />
<polygon fill="#c26628" fill-opacity="0.501961" points="234,89 271,86 261,95" />
<polygon fill="#994a17" fill-opacity="0.501961" points="184,82 188,80 178,70" />
<polygon fill="#ad5f1d" fill-opacity="0.501961" points="160,89 166,87 154,85" />
<polygon fill="#3a231a" fill-opacity="0.501961" points="106,70 117,79 96,75" />
<polygon fill="#2b1e1e" fill-opacity="0.501961" points="65,74 61,76 67,75" />
<polygon fill="#7f3006" fill-opacity="0.501961" points="263,58 245,63 271,63" />
<polygon fill="#7a6853" fill-opacity="0.501961" points="205,111 230,119 217,119" />
<polygon fill="#433917" fill-opacity="0.501961" points="53,101 59,101 55,103" />
<polygon fill="#8c5b3d" fill-opacity="0.501961" points="269,24 214,24 242,33" />
<polygon fill="#c18561" fill-opacity="0.501961" points="111,43 145,35 159,45" />
<polygon fill="#e9d5b9" fill-opacity="0.501961" points="-2,86 -4,71 25,77" />
<polygon fill="#403700" fill-opacity="0.501961" points="73,98 72,101 67,101" />
<polygon fill="#585044" fill-opacity="0.501961" points="114,119 103,130 112,107" />
<polygon fill="#de9760" fill-opacity="0.501961" points="188,48 203,39 214,45" />
<polygon fill="#432c05" fill-opacity="0.501961" points="36,97 44,86 42,93" />
<polygon fill="#8b3c13" fill-opacity="0.501961" points="130,78 133,70 135,80" />
<polygon fill="#b6afa0" fill-opacity="0.501961" points="203,115 208,115 201,113" />
<polygon fill="#94762c" fill-opacity="0.501961" points="55,100 69,97 66,102" />
<polygon fill="#9a6f57" fill-opacity="0.501961" points="106,24 74,34 135,32" />
<polygon fill="#9f5421" fill-opacity="0.501961" points="185,69 189,65 200,74" />
<polygon fill="#5e4c0d" fill-opacity="0.501961" points="80,101 79,97 85,96" />
<polygon fill="#95502b" fill-opacity="0.501961" points="82,75 78,74 74,80" />
<polygon fill="#762a08" fill-opacity="0.501961" points="234,90 243,81 231,86" />
<polygon fill="#5e5649" fill-opacity="0.501961" points="192,129 229,174 258,175" />
<polygon fill="#845a44" fill-opacity="0.501961" points="65,30 75,19 104,23" />
<polygon fill="#9c7760" fill-opacity="0.501961" points="170,14 187,19 207,12" />
<polygon fill="#7e4911" fill-opacity="0.501961" points="206,89 205,82 187,85" />
<polygon fill="#190700" fill-opacity="0.501961" points="166,76 164,77 164,74" />
<polygon fill="#b65614" fill-opacity="0.501961" points="224,62 234,66 229,71" />
<polygon fill="#491d05" fill-opacity="0.501961" points="158,65 153,68 156,78" />
<polygon fill="#754634" fill-opacity="0.501961" points="54,84 55,69 64,84" />
<polygon fill="#786a59" fill-opacity="0.501961" points="155,113 116,98 174,142" />
<polygon fill="#714c12" fill-opacity="0.501961" points="49,98 36,101 51,88" />
<polygon fill="#77701a" fill-opacity="0.501961" points="99,95 88,92 98,91" />
<polygon fill="#a85b30" fill-opacity="0.501961" points="34,84 43,87 34,87" />
<polygon fill="#d79466" fill-opacity="0.501961" points="160,41 141,50 181,43" />
<polygon fill="#8f6e5d" fill-opacity="0.501961" points="115,9 79,16 111,19" />
<polygon fill="#c38157" fill-opacity="0.501961" points="203,36 184,42 223,41" />
<polygon fill="#bf5d13" fill-opacity="0.501961" points="231,62 228,60 235,56" />
</g>
</svg>