<svg xmlns="http://www.w3.org/2000/svg" version="1.1" width="1024" height="640">
<rect x="0" y="0" width="1024" height="640" fill="#152332" />
<g transform="scale(4.000000) translate(0.5 0.5)">
<polygon fill="#ffffff" fill-opacity="0.501961" points="105,175 127,80 22,163" />
<polygon fill="#000000" fill-opacity="0.501961" points="253,-16 262,175 150,91" />
<polygon fill="#d3f5ff" fill-opacity="0.501961" points="85,102 130,83 83,175" />
<polygon fill="#000000" fill-opacity="0.501961" points="-14,61 108,89 -16,160" />
<polygon fill="#923629" fill-opacity="0.501961" points="174,144 262,175 121,74" />
<polygon fill="#4687b6" fill-opacity="0.501961" points="84,104 -16,164 89,162" />
<polygon fill="#000d35" fill-opacity="0.501961" points="188,77 -16,-1 271,0" />
<polygon fill="#000109" fill-opacity="0.501961" points="106,175 122,97 238,175" />
<polygon fill="#426d83" fill-opacity="0.501961" points="140,88 73,70 152,62" />
<polygon fill="#000000" fill-opacity="0.501961" points="271,37 264,175 144,91" />
<polygon fill="#001937" fill-opacity="0.501961" points="271,-2 56,83 -16,3" />
<polygon fill="#000000" fill-opacity="0.501961" points="1,149 81,88 -16,61" />
<polygon fill="#a9c9df" fill-opacity="0.501961" points="107,152 57,149 118,88" />
<polygon fill="#e1ddd7" fill-opacity="0.501961" points="84,105 114,96 102,92" />
<polygon fill="#b4523a" fill-opacity="0.501961" points="142,79 130,85 163,112" />
<polygon fill="#000000" fill-opacity="0.501961" points="255,145 142,87 271,40" />
<polygon fill="#f3f1e9" fill-opacity="0.501961" points="112,103 115,91 134,82" />
<polygon fill="#a13a32" fill-opacity="0.501961" points="210,154 193,125 158,109" />
<polygon fill="#1b4255" fill-opacity="0.501961" points="110,94 158,59 73,59" />
<polygon fill="#00233d" fill-opacity="0.501961" points="-9,48 1,-16 193,69" />
<polygon fill="#0d2a3b" fill-opacity="0.501961" points="64,121 45,147 9,160" />
<polygon fill="#001128" fill-opacity="0.501961" points="182,74 271,27 109,-16" />
<polygon fill="#1d1f24" fill-opacity="0.501961" points="207,153 185,163 139,95" />
<polygon fill="#366384" fill-opacity="0.501961" points="119,117 113,168 101,162" />
<polygon fill="#b6484c" fill-opacity="0.501961" points="224,173 249,175 194,137" />
<polygon fill="#6897bd" fill-opacity="0.501961" points="100,133 82,168 0,175" />
<polygon fill="#c6d4d9" fill-opacity="0.501961" points="110,94 78,153 117,116" />
<polygon fill="#00000b" fill-opacity="0.501961" points="202,172 150,124 90,175" />
<polygon fill="#0f2f3c" fill-opacity="0.501961" points="134,82 165,50 245,46" />
<polygon fill="#334147" fill-opacity="0.501961" points="71,112 100,101 62,129" />
<polygon fill="#3b73a2" fill-opacity="0.501961" points="68,175 81,132 44,175" />
<polygon fill="#2e6187" fill-opacity="0.501961" points="66,140 39,164 39,152" />
<polygon fill="#0b1217" fill-opacity="0.501961" points="196,128 140,87 157,71" />
<polygon fill="#05181e" fill-opacity="0.501961" points="126,81 47,76 77,104" />
<polygon fill="#294352" fill-opacity="0.501961" points="-1,61 -4,36 30,68" />
<polygon fill="#c3dcf0" fill-opacity="0.501961" points="84,153 71,163 83,145" />
<polygon fill="#cee3e7" fill-opacity="0.501961" points="133,84 134,81 141,82" />
<polygon fill="#71a1c2" fill-opacity="0.501961" points="113,115 103,175 84,175" />
<polygon fill="#bed1e3" fill-opacity="0.501961" points="44,172 66,144 48,157" />
<polygon fill="#000000" fill-opacity="0.501961" points="-16,57 -16,143 64,97" />
<polygon fill="#092332" fill-opacity="0.501961" points="106,175 124,94 137,122" />
<polygon fill="#8b5979" fill-opacity="0.501961" points="271,175 246,172 221,148" />
<polygon fill="#000718" fill-opacity="0.501961" points="226,171 221,151 264,175" />
<polygon fill="#38140e" fill-opacity="0.501961" points="150,128 132,87 186,154" />
<polygon fill="#3f6482" fill-opacity="0.501961" points="114,78 91,71 139,70" />
<polygon fill="#ac2e18" fill-opacity="0.501961" points="164,116 152,99 178,117" />
<polygon fill="#000d20" fill-opacity="0.501961" points="10,166 27,148 -12,171" />
<polygon fill="#839ba9" fill-opacity="0.501961" points="46,153 33,154 57,135" />
<polygon fill="#403944" fill-opacity="0.501961" points="186,132 224,164 212,175" />
<polygon fill="#91a5ad" fill-opacity="0.501961" points="98,105 68,125 86,121" />
<polygon fill="#000d20" fill-opacity="0.501961" points="193,19 268,34 152,64" />
<polygon fill="#c9d2d4" fill-opacity="0.501961" points="96,106 113,125 123,85" />
<polygon fill="#041d20" fill-opacity="0.501961" points="47,37 85,61 22,75" />
<polygon fill="#2a1b26" fill-opacity="0.501961" points="196,128 203,141 186,127" />
<polygon fill="#233f4f" fill-opacity="0.501961" points="110,88 145,61 178,67" />
<polygon fill="#061a36" fill-opacity="0.501961" points="232,58 271,17 235,-16" />
<polygon fill="#7aa1bb" fill-opacity="0.501961" points="98,139 104,121 83,150" />
<polygon fill="#25383c" fill-opacity="0.501961" points="106,90 91,90 76,108" />
<polygon fill="#f4f0eb" fill-opacity="0.501961" points="88,106 87,102 101,97" />
<polygon fill="#1c1422" fill-opacity="0.501961" points="200,136 234,158 218,156" />
<polygon fill="#1b5ca0" fill-opacity="0.501961" points="-16,175 -11,156 35,140" />
<polygon fill="#000f1e" fill-opacity="0.501961" points="-16,174 34,152 6,175" />
<polygon fill="#061018" fill-opacity="0.501961" points="180,150 125,134 127,89" />
<polygon fill="#325062" fill-opacity="0.501961" points="131,65 105,96 133,78" />
<polygon fill="#000f35" fill-opacity="0.501961" points="215,6 33,33 30,-16" />
<polygon fill="#000000" fill-opacity="0.501961" points="187,63 249,173 263,55" />
<polygon fill="#5983a5" fill-opacity="0.501961" points="83,165 95,139 83,153" />
<polygon fill="#bf4245" fill-opacity="0.501961" points="228,159 215,156 206,146" />
<polygon fill="#1f3643" fill-opacity="0.501961" points="125,92 127,116 114,134" />
<polygon fill="#351615" fill-opacity="0.501961" points="172,114 190,128 179,124" />
<polygon fill="#002348" fill-opacity="0.501961" points="35,19 -10,-16 -13,56" />
<polygon fill="#c4341a" fill-opacity="0.501961" points="139,89 160,104 149,103" />
<polygon fill="#2e76a1" fill-opacity="0.501961" points="29,150 6,164 20,160" />
<polygon fill="#163236" fill-opacity="0.501961" points="24,67 98,81 74,63" />
<polygon fill="#845168" fill-opacity="0.501961" points="208,138 228,149 215,146" />
<polygon fill="#c2d4dc" fill-opacity="0.501961" points="107,117 72,133 106,101" />
<polygon fill="#709dbd" fill-opacity="0.501961" points="87,131 72,138 96,115" />
<polygon fill="#3f2922" fill-opacity="0.501961" points="151,104 136,88 140,107" />
<polygon fill="#05040b" fill-opacity="0.501961" points="150,95 244,120 253,167" />
<polygon fill="#2b6793" fill-opacity="0.501961" points="29,166 53,145 43,167" />
<polygon fill="#16253f" fill-opacity="0.501961" points="244,51 206,54 235,39" />
<polygon fill="#d74a35" fill-opacity="0.501961" points="179,124 183,130 190,132" />
<polygon fill="#596c78" fill-opacity="0.501961" points="95,104 105,96 100,97" />
<polygon fill="#bdceda" fill-opacity="0.501961" points="25,175 41,151 13,175" />
<polygon fill="#b8a697" fill-opacity="0.501961" points="91,104 82,105 77,110" />
<polygon fill="#a34b53" fill-opacity="0.501961" points="192,128 199,129 205,136" />
<polygon fill="#8fa5ad" fill-opacity="0.501961" points="111,115 123,94 116,123" />
<polygon fill="#262527" fill-opacity="0.501961" points="141,83 165,96 154,99" />
<polygon fill="#001f37" fill-opacity="0.501961" points="191,63 91,10 5,40" />
<polygon fill="#1b3746" fill-opacity="0.501961" points="64,129 69,115 47,140" />
<polygon fill="#366586" fill-opacity="0.501961" points="50,153 74,131 56,140" />
<polygon fill="#a2aaa9" fill-opacity="0.501961" points="142,83 145,83 143,80" />
<polygon fill="#c0473c" fill-opacity="0.501961" points="192,140 187,130 209,147" />
<polygon fill="#263a47" fill-opacity="0.501961" points="227,128 226,134 224,126" />
<polygon fill="#d1d8da" fill-opacity="0.501961" points="107,122 112,92 127,85" />
<polygon fill="#6c9fc5" fill-opacity="0.501961" points="79,152 91,131 66,153" />
<polygon fill="#a0211a" fill-opacity="0.501961" points="205,175 183,152 195,174" />
<polygon fill="#97b4c4" fill-opacity="0.501961" points="114,113 105,130 108,149" />
<polygon fill="#060706" fill-opacity="0.501961" points="198,130 174,99 245,127" />
<polygon fill="#ffffff" fill-opacity="0.501961" points="102,94 101,97 96,99" />
<polygon fill="#889ba3" fill-opacity="0.501961" points="72,123 61,139 49,142" />
<polygon fill="#6086a1" fill-opacity="0.501961" points="107,145 114,129 109,162" />
<polygon fill="#000e1d" fill-opacity="0.501961" points="125,105 140,131 120,162" />
<polygon fill="#071a1e" fill-opacity="0.501961" points="59,100 31,135 98,94" />
<polygon fill="#1a3a45" fill-opacity="0.501961" points="125,102 135,84 128,88" />
<polygon fill="#000a12" fill-opacity="0.501961" points="49,112 49,78 106,85" />
<polygon fill="#2f3339" fill-opacity="0.501961" points="196,142 176,137 159,112" />
<polygon fill="#cfe1eb" fill-opacity="0.501961" points="69,140 73,133 77,132" />
<polygon fill="#1a1a24" fill-opacity="0.501961" points="212,144 250,171 236,175" />
<polygon fill="#e9f2f4" fill-opacity="0.501961" points="103,134 99,134 97,142" />
<polygon fill="#7898aa" fill-opacity="0.501961" points="98,107 81,124 82,116" />
<polygon fill="#b4d0e4" fill-opacity="0.501961" points="82,154 91,123 93,136" />
<polygon fill="#e84924" fill-opacity="0.501961" points="141,93 142,90 138,86" />
<polygon fill="#062f3f" fill-opacity="0.501961" points="158,56 73,52 120,67" />
<polygon fill="#203949" fill-opacity="0.501961" points="81,110 84,112 91,107" />
<polygon fill="#000a0f" fill-opacity="0.501961" points="51,121 -16,130 -7,154" />
<polygon fill="#2d679a" fill-opacity="0.501961" points="9,149 37,133 23,149" />
<polygon fill="#e2e2de" fill-opacity="0.501961" points="83,117 79,118 87,111" />
<polygon fill="#244355" fill-opacity="0.501961" points="90,78 110,63 74,71" />
<polygon fill="#233944" fill-opacity="0.501961" points="147,79 140,73 132,82" />
<polygon fill="#081e23" fill-opacity="0.501961" points="174,79 139,81 196,61" />
<polygon fill="#00020e" fill-opacity="0.501961" points="211,45 220,28 240,32" />
<polygon fill="#dceaf2" fill-opacity="0.501961" points="98,145 101,133 89,154" />
<polygon fill="#000000" fill-opacity="0.501961" points="159,89 246,49 264,133" />
<polygon fill="#374f5f" fill-opacity="0.501961" points="115,119 119,111 118,130" />
<polygon fill="#6e97b7" fill-opacity="0.501961" points="104,132 88,171 99,175" />
<polygon fill="#020e12" fill-opacity="0.501961" points="156,114 162,124 169,125" />
<polygon fill="#ee504d" fill-opacity="0.501961" points="234,175 215,154 248,175" />
<polygon fill="#1d2936" fill-opacity="0.501961" points="210,173 210,156 182,133" />
<polygon fill="#05030d" fill-opacity="0.501961" points="202,175 116,174 164,133" />
<polygon fill="#00071d" fill-opacity="0.501961" points="255,30 235,55 271,44" />
<polygon fill="#0b0d17" fill-opacity="0.501961" points="189,158 168,131 210,162" />
<polygon fill="#4f1d1a" fill-opacity="0.501961" points="165,111 185,122 174,120" />
<polygon fill="#48738d" fill-opacity="0.501961" points="84,120 73,131 75,125" />
<polygon fill="#a3b5be" fill-opacity="0.501961" points="87,113 80,123 68,127" />
<polygon fill="#0f4174" fill-opacity="0.501961" points="56,157 54,174 45,175" />
<polygon fill="#648fad" fill-opacity="0.501961" points="68,131 46,155 55,136" />
<polygon fill="#171317" fill-opacity="0.501961" points="198,133 185,125 191,132" />
<polygon fill="#c8442c" fill-opacity="0.501961" points="169,116 172,122 183,126" />
<polygon fill="#231017" fill-opacity="0.501961" points="171,153 148,118 164,131" />
<polygon fill="#d2e5e8" fill-opacity="0.501961" points="126,85 131,86 137,82" />
<polygon fill="#afc7d9" fill-opacity="0.501961" points="63,142 63,147 72,137" />
<polygon fill="#10242c" fill-opacity="0.501961" points="124,101 133,85 136,114" />
<polygon fill="#2e729f" fill-opacity="0.501961" points="30,149 37,145 33,146" />
<polygon fill="#000000" fill-opacity="0.501961" points="39,82 -4,67 -16,132" />
<polygon fill="#012341" fill-opacity="0.501961" points="30,148 37,140 20,150" />
<polygon fill="#010112" fill-opacity="0.501961" points="271,149 193,127 268,175" />
<polygon fill="#112d3f" fill-opacity="0.501961" points="-16,34 29,67 13,37" />
<polygon fill="#355e84" fill-opacity="0.501961" points="45,175 65,166 63,153" />
<polygon fill="#b4c7cf" fill-opacity="0.501961" points="106,118 109,98 119,93" />
<polygon fill="#77201d" fill-opacity="0.501961" points="183,151 177,145 178,149" />
<polygon fill="#f3f2ef" fill-opacity="0.501961" points="102,96 96,100 95,98" />
<polygon fill="#102e3d" fill-opacity="0.501961" points="169,74 191,60 148,62" />
<polygon fill="#9abdd4" fill-opacity="0.501961" points="100,109 93,130 76,144" />
<polygon fill="#667d8a" fill-opacity="0.501961" points="117,88 103,92 109,93" />
<polygon fill="#000f2f" fill-opacity="0.501961" points="208,32 215,-16 55,-1" />
<polygon fill="#0b223a" fill-opacity="0.501961" points="224,11 271,6 214,-16" />
<polygon fill="#cedce1" fill-opacity="0.501961" points="91,125 109,110 111,93" />
<polygon fill="#4c3834" fill-opacity="0.501961" points="148,103 130,86 137,85" />
<polygon fill="#618fab" fill-opacity="0.501961" points="80,118 74,127 89,115" />
<polygon fill="#516c82" fill-opacity="0.501961" points="38,155 22,172 35,172" />
<polygon fill="#132d38" fill-opacity="0.501961" points="106,91 109,80 128,79" />
<polygon fill="#2f628c" fill-opacity="0.501961" points="57,120 47,131 69,117" />
<polygon fill="#f5f1ea" fill-opacity="0.501961" points="100,97 104,92 107,92" />
<polygon fill="#71211d" fill-opacity="0.501961" points="171,141 168,134 178,145" />
<polygon fill="#090912" fill-opacity="0.501961" points="181,175 179,149 157,124" />
<polygon fill="#64869a" fill-opacity="0.501961" points="111,128 113,136 115,123" />
<polygon fill="#001929" fill-opacity="0.501961" points="161,65 217,47 141,32" />
<polygon fill="#2a4456" fill-opacity="0.501961" points="21,175 33,156 19,168" />
<polygon fill="#dcedff" fill-opacity="0.501961" points="94,151 88,171 75,175" />
<polygon fill="#3e7397" fill-opacity="0.501961" points="59,145 69,131 57,140" />
<polygon fill="#2f424f" fill-opacity="0.501961" points="-7,57 13,58 19,67" />
<polygon fill="#041217" fill-opacity="0.501961" points="-11,145 31,124 -16,166" />
<polygon fill="#2d5674" fill-opacity="0.501961" points="135,74 146,62 106,76" />
<polygon fill="#00183b" fill-opacity="0.501961" points="44,35 -4,-6 146,24" />
<polygon fill="#4e789c" fill-opacity="0.501961" points="90,151 71,166 85,161" />
<polygon fill="#285f92" fill-opacity="0.501961" points="42,129 55,127 29,143" />
<polygon fill="#2d4e66" fill-opacity="0.501961" points="67,114 52,134 88,106" />
<polygon fill="#478cc1" fill-opacity="0.501961" points="40,157 37,165 47,153" />
<polygon fill="#012739" fill-opacity="0.501961" points="76,65 84,38 143,50" />
<polygon fill="#1a2229" fill-opacity="0.501961" points="140,86 154,98 149,80" />
<polygon fill="#0f2129" fill-opacity="0.501961" points="97,80 115,83 71,109" />
<polygon fill="#dd532e" fill-opacity="0.501961" points="138,87 137,84 139,86" />
<polygon fill="#291c23" fill-opacity="0.501961" points="192,132 202,136 208,144" />
<polygon fill="#99a6af" fill-opacity="0.501961" points="62,135 56,136 50,145" />
<polygon fill="#091c27" fill-opacity="0.501961" points="46,134 48,135 53,130" />
<polygon fill="#000000" fill-opacity="0.501961" points="-2,112 33,92 7,62" />
<polygon fill="#dde7e9" fill-opacity="0.501961" points="103,133 104,124 107,123" />
<polygon fill="#031b25" fill-opacity="0.501961" points="25,57 79,44 60,70" />
<polygon fill="#30495e" fill-opacity="0.501961" points="35,165 44,164 51,153" />
<polygon fill="#193745" fill-opacity="0.501961" points="64,127 64,122 75,115" />
<polygon fill="#122d45" fill-opacity="0.501961" points="217,50 194,59 212,59" />
<polygon fill="#91aab7" fill-opacity="0.501961" points="104,102 100,101 96,107" />
<polygon fill="#071a1f" fill-opacity="0.501961" points="87,88 60,78 69,71" />
<polygon fill="#44434a" fill-opacity="0.501961" points="174,128 167,125 176,135" />
<polygon fill="#262934" fill-opacity="0.501961" points="185,138 220,163 194,154" />
<polygon fill="#2a5d8e" fill-opacity="0.501961" points="25,147 21,142 42,133" />
<polygon fill="#947491" fill-opacity="0.501961" points="230,154 243,167 248,164" />
<polygon fill="#4e6c83" fill-opacity="0.501961" points="45,145 53,140 46,142" />
<polygon fill="#aec2cb" fill-opacity="0.501961" points="115,119 115,108 105,127" />
<polygon fill="#9db2c2" fill-opacity="0.501961" points="47,146 42,154 31,158" />
<polygon fill="#4981bc" fill-opacity="0.501961" points="16,171 -14,166 4,157" />
<polygon fill="#45191a" fill-opacity="0.501961" points="148,117 142,106 142,111" />
<polygon fill="#84586e" fill-opacity="0.501961" points="222,148 229,154 229,151" />
<polygon fill="#d0dbde" fill-opacity="0.501961" points="116,90 111,104 90,115" />
<polygon fill="#05101a" fill-opacity="0.501961" points="148,160 152,128 132,93" />
<polygon fill="#8ba8b9" fill-opacity="0.501961" points="107,116 98,128 105,125" />
<polygon fill="#8d4f5d" fill-opacity="0.501961" points="206,138 204,134 210,140" />
<polygon fill="#001932" fill-opacity="0.501961" points="-13,175 3,175 19,152" />
<polygon fill="#4a2735" fill-opacity="0.501961" points="216,150 225,156 222,158" />
<polygon fill="#602016" fill-opacity="0.501961" points="158,124 162,123 166,131" />
<polygon fill="#000109" fill-opacity="0.501961" points="191,115 208,137 216,128" />
<polygon fill="#04356b" fill-opacity="0.501961" points="5,155 13,150 5,152" />
<polygon fill="#a3c0d8" fill-opacity="0.501961" points="48,167 30,170 63,147" />
<polygon fill="#0f141a" fill-opacity="0.501961" points="166,129 156,118 168,124" />
<polygon fill="#385e79" fill-opacity="0.501961" points="39,155 37,159 44,153" />
<polygon fill="#263e50" fill-opacity="0.501961" points="169,68 134,66 127,80" />
<polygon fill="#63161a" fill-opacity="0.501961" points="243,164 245,175 228,154" />
<polygon fill="#72a2c7" fill-opacity="0.501961" points="82,132 70,150 83,141" />
<polygon fill="#5c646d" fill-opacity="0.501961" points="70,113 81,106 77,111" />
<polygon fill="#97b5c4" fill-opacity="0.501961" points="97,115 102,108 91,117" />
<polygon fill="#334249" fill-opacity="0.501961" points="90,99 89,97 97,96" />
<polygon fill="#2a4555" fill-opacity="0.501961" points="98,101 96,103 95,102" />
<polygon fill="#46769d" fill-opacity="0.501961" points="59,174 73,142 61,156" />
<polygon fill="#103953" fill-opacity="0.501961" points="148,61 131,67 125,61" />
<polygon fill="#000311" fill-opacity="0.501961" points="130,175 149,175 133,111" />
<polygon fill="#000a11" fill-opacity="0.501961" points="160,93 149,82 195,69" />
<polygon fill="#92413e" fill-opacity="0.501961" points="200,147 209,153 202,144" />
<polygon fill="#61363b" fill-opacity="0.501961" points="194,139 198,146 200,144" />
<polygon fill="#001533" fill-opacity="0.501961" points="157,43 102,17 184,7" />
<polygon fill="#c7472c" fill-opacity="0.501961" points="172,118 168,118 164,113" />
<polygon fill="#a93420" fill-opacity="0.501961" points="151,103 162,111 156,101" />
<polygon fill="#c04640" fill-opacity="0.501961" points="178,118 187,123 183,123" />
<polygon fill="#14262b" fill-opacity="0.501961" points="42,61 16,68 63,78" />
<polygon fill="#061515" fill-opacity="0.501961" points="31,118 68,103 35,128" />
<polygon fill="#ce432d" fill-opacity="0.501961" points="140,92 148,96 149,100" />
<polygon fill="#cde0ec" fill-opacity="0.501961" points="71,168 79,153 74,175" />
<polygon fill="#45647d" fill-opacity="0.501961" points="36,151 33,155 40,150" />
<polygon fill="#a2433b" fill-opacity="0.501961" points="190,133 184,132 191,138" />
<polygon fill="#492f2d" fill-opacity="0.501961" points="166,116 151,107 172,129" />
<polygon fill="#94b1c3" fill-opacity="0.501961" points="112,133 100,150 110,119" />
<polygon fill="#00050c" fill-opacity="0.501961" points="74,98 7,115 48,85" />
<polygon fill="#6e99bd" fill-opacity="0.501961" points="81,154 68,175 80,175" />
<polygon fill="#2a0914" fill-opacity="0.501961" points="198,175 167,147 183,173" />
<polygon fill="#403138" fill-opacity="0.501961" points="214,155 236,175 223,175" />
<polygon fill="#091e31" fill-opacity="0.501961" points="120,134 116,163 124,148" />
<polygon fill="#020306" fill-opacity="0.501961" points="264,130 229,151 226,127" />
<polygon fill="#000f2d" fill-opacity="0.501961" points="203,22 261,26 255,10" />
<polygon fill="#0d273a" fill-opacity="0.501961" points="-6,175 13,175 35,149" />
<polygon fill="#090809" fill-opacity="0.501961" points="201,109 189,124 160,95" />
<polygon fill="#542920" fill-opacity="0.501961" points="139,92 135,91 139,104" />
<polygon fill="#9bacb3" fill-opacity="0.501961" points="58,136 66,134 70,127" />
<polygon fill="#517d99" fill-opacity="0.501961" points="67,137 61,136 77,123" />
<polygon fill="#568ab5" fill-opacity="0.501961" points="81,146 76,153 63,155" />
<polygon fill="#0d171b" fill-opacity="0.501961" points="158,120 152,112 162,119" />
<polygon fill="#001d32" fill-opacity="0.501961" points="75,61 14,25 89,42" />
<polygon fill="#43647a" fill-opacity="0.501961" points="110,89 119,86 111,92" />
<polygon fill="#245270" fill-opacity="0.501961" points="41,146 33,146 49,136" />
<polygon fill="#5880a3" fill-opacity="0.501961" points="87,171 150,175 94,156" />
<polygon fill="#6693ba" fill-opacity="0.501961" points="54,155 49,163 42,165" />
<polygon fill="#e7efef" fill-opacity="0.501961" points="108,119 104,124 104,129" />
<polygon fill="#dfe3e1" fill-opacity="0.501961" points="130,83 123,93 113,93" />
<polygon fill="#071a21" fill-opacity="0.501961" points="4,150 3,137 -16,160" />
<polygon fill="#082636" fill-opacity="0.501961" points="152,58 180,61 144,67" />
<polygon fill="#253539" fill-opacity="0.501961" points="101,93 114,87 101,89" />
<polygon fill="#154a82" fill-opacity="0.501961" points="-9,159 9,156 20,145" />
<polygon fill="#b1ccdf" fill-opacity="0.501961" points="56,150 60,150 55,156" />
<polygon fill="#7ba0c0" fill-opacity="0.501961" points="53,156 52,153 61,148" />
<polygon fill="#dcf5ff" fill-opacity="0.501961" points="33,158 11,175 30,174" />
<polygon fill="#769db6" fill-opacity="0.501961" points="92,140 97,137 100,128" />
<polygon fill="#b4c9d7" fill-opacity="0.501961" points="79,133 73,133 87,120" />
<polygon fill="#d9e3e5" fill-opacity="0.501961" points="110,106 98,124 101,113" />
<polygon fill="#757c7e" fill-opacity="0.501961" points="123,92 123,98 126,89" />
<polygon fill="#702218" fill-opacity="0.501961" points="165,130 168,134 167,135" />
<polygon fill="#000b1b" fill-opacity="0.501961" points="242,19 184,51 235,40" />
<polygon fill="#142f40" fill-opacity="0.501961" points="52,136 55,131 64,128" />
<polygon fill="#cca7a0" fill-opacity="0.501961" points="134,82 141,82 137,84" />
<polygon fill="#1a303f" fill-opacity="0.501961" points="122,132 120,110 117,126" />
<polygon fill="#45565f" fill-opacity="0.501961" points="103,98 105,98 106,96" />
<polygon fill="#afc2cb" fill-opacity="0.501961" points="107,96 111,95 113,108" />
<polygon fill="#122e42" fill-opacity="0.501961" points="48,140 41,138 35,150" />
<polygon fill="#010711" fill-opacity="0.501961" points="179,149 163,134 178,161" />
<polygon fill="#ffffff" fill-opacity="0.501961" points="47,175 40,175 53,158" />
<polygon fill="#b54840" fill-opacity="0.501961" points="213,157 224,174 226,168" />
<polygon fill="#0a0f15" fill-opacity="0.501961" points="175,144 156,122 159,135" />
<polygon fill="#1a293f" fill-opacity="0.501961" points="217,50 236,52 235,43" />
<polygon fill="#376481" fill-opacity="0.501961" points="125,71 121,76 107,74" />
<polygon fill="#e0dfd7" fill-opacity="0.501961" points="84,103 87,103 85,106" />
<polygon fill="#b8cad2" fill-opacity="0.501961" points="105,105 112,97 104,97" />
<polygon fill="#0b0f0d" fill-opacity="0.501961" points="199,110 214,122 236,124" />
<polygon fill="#4a6e89" fill-opacity="0.501961" points="55,144 57,139 47,148" />
<polygon fill="#2a5c7c" fill-opacity="0.501961" points="42,143 50,136 31,145" />
<polygon fill="#00082a" fill-opacity="0.501961" points="157,8 90,-16 234,-16" />
<polygon fill="#4a3234" fill-opacity="0.501961" points="176,124 172,121 170,124" />
<polygon fill="#341c20" fill-opacity="0.501961" points="183,127 193,129 178,120" />
<polygon fill="#00040c" fill-opacity="0.501961" points="28,123 39,127 11,144" />
<polygon fill="#254d63" fill-opacity="0.501961" points="60,126 48,136 55,135" />
<polygon fill="#0b1118" fill-opacity="0.501961" points="178,144 168,133 183,140" />
<polygon fill="#171617" fill-opacity="0.501961" points="148,94 153,87 178,100" />
<polygon fill="#14303a" fill-opacity="0.501961" points="84,62 52,74 84,75" />
<polygon fill="#031c2d" fill-opacity="0.501961" points="34,143 39,138 40,140" />
<polygon fill="#264b60" fill-opacity="0.501961" points="62,125 75,120 70,116" />
<polygon fill="#213b4d" fill-opacity="0.501961" points="113,82 100,78 123,77" />
<polygon fill="#552313" fill-opacity="0.501961" points="156,117 148,113 158,122" />
<polygon fill="#082533" fill-opacity="0.501961" points="11,37 44,44 27,61" />
<polygon fill="#5e2937" fill-opacity="0.501961" points="209,147 218,153 214,148" />
<polygon fill="#37576b" fill-opacity="0.501961" points="102,77 126,69 102,70" />
<polygon fill="#a35761" fill-opacity="0.501961" points="192,128 193,127 190,126" />
<polygon fill="#823e3f" fill-opacity="0.501961" points="200,142 204,149 196,142" />
<polygon fill="#b23c33" fill-opacity="0.501961" points="177,115 181,119 172,114" />
<polygon fill="#0e0a10" fill-opacity="0.501961" points="170,109 180,111 184,120" />
<polygon fill="#39302e" fill-opacity="0.501961" points="157,109 153,112 145,99" />
<polygon fill="#e7eae7" fill-opacity="0.501961" points="94,111 100,109 105,102" />
<polygon fill="#3c4c5a" fill-opacity="0.501961" points="86,111 75,111 95,104" />
<polygon fill="#bbc4c7" fill-opacity="0.501961" points="77,119 86,116 86,113" />
<polygon fill="#285170" fill-opacity="0.501961" points="50,152 38,175 41,161" />
<polygon fill="#0c1928" fill-opacity="0.501961" points="108,174 117,175 113,148" />
<polygon fill="#162933" fill-opacity="0.501961" points="132,86 131,101 125,94" />
<polygon fill="#304d5b" fill-opacity="0.501961" points="131,83 135,69 126,79" />
<polygon fill="#89291c" fill-opacity="0.501961" points="162,106 151,100 161,110" />
<polygon fill="#2a6089" fill-opacity="0.501961" points="53,123 33,135 39,138" />
<polygon fill="#fbfdfb" fill-opacity="0.501961" points="101,135 103,131 101,133" />
<polygon fill="#708a99" fill-opacity="0.501961" points="59,136 57,135 62,131" />
<polygon fill="#3e607f" fill-opacity="0.501961" points="104,166 109,165 108,153" />
<polygon fill="#030000" fill-opacity="0.501961" points="191,112 215,131 225,126" />
<polygon fill="#7ea5bf" fill-opacity="0.501961" points="88,127 93,117 81,128" />
<polygon fill="#072c43" fill-opacity="0.501961" points="203,56 189,58 196,62" />
<polygon fill="#4e748d" fill-opacity="0.501961" points="68,130 82,123 62,142" />
<polygon fill="#2d6092" fill-opacity="0.501961" points="13,155 33,141 21,144" />
<polygon fill="#00020c" fill-opacity="0.501961" points="173,157 156,175 144,138" />
<polygon fill="#222b37" fill-opacity="0.501961" points="214,175 210,156 194,143" />
<polygon fill="#0b1d25" fill-opacity="0.501961" points="140,110 141,134 128,93" />
<polygon fill="#28161e" fill-opacity="0.501961" points="218,153 233,157 213,144" />
<polygon fill="#07172d" fill-opacity="0.501961" points="231,40 254,19 244,49" />
<polygon fill="#01091a" fill-opacity="0.501961" points="223,51 226,55 209,63" />
<polygon fill="#5b90b3" fill-opacity="0.501961" points="70,129 76,125 69,133" />
<polygon fill="#c14731" fill-opacity="0.501961" points="162,114 165,114 159,108" />
<polygon fill="#5d99c6" fill-opacity="0.501961" points="67,134 61,140 65,133" />
<polygon fill="#00040e" fill-opacity="0.501961" points="184,112 193,127 210,127" />
<polygon fill="#a7bbc7" fill-opacity="0.501961" points="51,146 50,143 48,145" />
<polygon fill="#c2d8e7" fill-opacity="0.501961" points="89,138 85,148 77,154" />
<polygon fill="#14364a" fill-opacity="0.501961" points="166,67 175,69 187,61" />
<polygon fill="#719ab9" fill-opacity="0.501961" points="93,143 88,144 88,157" />
<polygon fill="#051014" fill-opacity="0.501961" points="192,60 174,77 188,73" />
<polygon fill="#120e14" fill-opacity="0.501961" points="160,141 170,139 147,111" />
<polygon fill="#0d2737" fill-opacity="0.501961" points="39,144 45,142 48,138" />
<polygon fill="#071f2b" fill-opacity="0.501961" points="128,131 119,127 127,97" />
<polygon fill="#85adcb" fill-opacity="0.501961" points="83,149 88,144 86,154" />
<polygon fill="#cbdee8" fill-opacity="0.501961" points="95,126 90,135 97,130" />
<polygon fill="#050b0e" fill-opacity="0.501961" points="248,126 227,125 267,142" />
<polygon fill="#567589" fill-opacity="0.501961" points="87,118 79,125 84,117" />
<polygon fill="#00101b" fill-opacity="0.501961" points="140,132 121,153 130,101" />
<polygon fill="#18131a" fill-opacity="0.501961" points="203,129 211,138 194,127" />
<polygon fill="#2b6489" fill-opacity="0.501961" points="34,147 27,149 28,152" />
<polygon fill="#0b2230" fill-opacity="0.501961" points="28,149 33,145 27,147" />
<polygon fill="#9cb6c3" fill-opacity="0.501961" points="106,122 99,125 111,108" />
<polygon fill="#0e2229" fill-opacity="0.501961" points="185,66 171,77 149,75" />
<polygon fill="#a2c1d5" fill-opacity="0.501961" points="94,129 80,136 102,115" />
<polygon fill="#38171a" fill-opacity="0.501961" points="158,131 150,119 150,124" />
<polygon fill="#0b1117" fill-opacity="0.501961" points="163,125 170,130 169,133" />
<polygon fill="#060d1e" fill-opacity="0.501961" points="222,54 211,61 210,57" />
<polygon fill="#a4c0d3" fill-opacity="0.501961" points="71,140 64,143 72,134" />
<polygon fill="#050a13" fill-opacity="0.501961" points="143,112 155,156 158,136" />
<polygon fill="#001d39" fill-opacity="0.501961" points="109,43 14,32 34,13" />
<polygon fill="#60211c" fill-opacity="0.501961" points="155,103 159,102 166,111" />
<polygon fill="#41779d" fill-opacity="0.501961" points="59,144 50,147 66,133" />
<polygon fill="#0f2126" fill-opacity="0.501961" points="65,115 71,104 86,99" />
<polygon fill="#9ebcd2" fill-opacity="0.501961" points="54,151 70,136 62,149" />
<polygon fill="#204052" fill-opacity="0.501961" points="88,77 75,73 100,63" />
<polygon fill="#325a7e" fill-opacity="0.501961" points="66,115 75,112 68,117" />
<polygon fill="#100913" fill-opacity="0.501961" points="186,122 185,116 188,121" />
<polygon fill="#000110" fill-opacity="0.501961" points="212,129 256,175 271,158" />
<polygon fill="#6f2410" fill-opacity="0.501961" points="157,123 155,119 160,124" />
<polygon fill="#d3dddf" fill-opacity="0.501961" points="117,109 112,108 106,120" />
<polygon fill="#5e89b2" fill-opacity="0.501961" points="40,175 62,150 54,168" />
<polygon fill="#fffefb" fill-opacity="0.501961" points="130,84 127,84 123,88" />
<polygon fill="#001224" fill-opacity="0.501961" points="176,27 180,54 222,45" />
<polygon fill="#121a23" fill-opacity="0.501961" points="215,150 210,144 219,150" />
<polygon fill="#8dadc2" fill-opacity="0.501961" points="106,128 95,150 110,138" />
<polygon fill="#41555e" fill-opacity="0.501961" points="122,109 118,112 122,99" />
<polygon fill="#9fb7c4" fill-opacity="0.501961" points="110,135 113,114 106,127" />
<polygon fill="#271017" fill-opacity="0.501961" points="166,138 157,132 171,151" />
<polygon fill="#0e222d" fill-opacity="0.501961" points="122,108 130,111 124,100" />
<polygon fill="#002544" fill-opacity="0.501961" points="19,42 -8,29 -1,-8" />
<polygon fill="#abbdc6" fill-opacity="0.501961" points="61,135 57,138 58,136" />
<polygon fill="#3b5668" fill-opacity="0.501961" points="51,136 56,136 50,142" />
<polygon fill="#5e3739" fill-opacity="0.501961" points="182,129 191,136 188,137" />
<polygon fill="#316787" fill-opacity="0.501961" points="43,138 40,142 49,136" />
<polygon fill="#7da3be" fill-opacity="0.501961" points="75,132 74,132 73,135" />
<polygon fill="#0c212d" fill-opacity="0.501961" points="60,125 54,130 57,125" />
<polygon fill="#171a1b" fill-opacity="0.501961" points="145,105 155,112 150,106" />
<polygon fill="#aeb5b8" fill-opacity="0.501961" points="66,130 70,128 69,127" />
<polygon fill="#24424f" fill-opacity="0.501961" points="71,122 87,109 76,113" />
<polygon fill="#e1e3e2" fill-opacity="0.501961" points="97,99 100,95 107,93" />
<polygon fill="#273c4a" fill-opacity="0.501961" points="17,56 0,57 20,68" />
<polygon fill="#7fa2b9" fill-opacity="0.501961" points="112,130 107,148 107,137" />
<polygon fill="#020000" fill-opacity="0.501961" points="270,141 226,129 249,148" />
<polygon fill="#0c1f30" fill-opacity="0.501961" points="143,142 143,151 146,150" />
<polygon fill="#041219" fill-opacity="0.501961" points="101,82 63,83 90,94" />
<polygon fill="#011832" fill-opacity="0.501961" points="202,3 207,20 261,11" />
</g>
</svg>