<svg xmlns="http://www.w3.org/2000/svg" version="1.1" width="1024" height="640">
<rect x="0" y="0" width="1024" height="640" fill="#697276" />
<g transform="scale(4.000000) translate(0.5 0.5)">
<polygon fill="#d9fcff" fill-opacity="0.501961" points="249,-16 -16,59 271,83" />
<polygon fill="#090100" fill-opacity="0.501961" points="271,175 -16,152 246,59" />
<polygon fill="#c6e7ff" fill-opacity="0.501961" points="259,-16 258,61 -16,3" />
<polygon fill="#161101" fill-opacity="0.501961" points="4,175 -16,66 133,98" />
<polygon fill="#8d8c8e" fill-opacity="0.501961" points="75,95 134,1 271,88" />
<polygon fill="#6e5737" fill-opacity="0.501961" points="31,140 242,82 88,74" />
<polygon fill="#141a1c" fill-opacity="0.501961" points="4,175 -11,95 267,161" />
<polygon fill="#0e0700" fill-opacity="0.501961" points="258,89 142,115 267,125" />
<polygon fill="#a7bcd4" fill-opacity="0.501961" points="-16,19 15,-16 148,34" />
<polygon fill="#34577d" fill-opacity="0.501961" points="-15,38 67,51 71,11" />
<polygon fill="#ab8e5d" fill-opacity="0.501961" points="115,138 130,107 130,175" />
<polygon fill="#bed1e1" fill-opacity="0.501961" points="-16,46 28,74 130,47" />
<polygon fill="#81a2bd" fill-opacity="0.501961" points="63,29 271,94 161,8" />
<polygon fill="#ffce98" fill-opacity="0.501961" points="99,81 67,96 116,91" />
<polygon fill="#434949" fill-opacity="0.501961" points="130,82 165,120 6,148" />
<polygon fill="#7b7869" fill-opacity="0.501961" points="213,143 157,122 271,126" />
<polygon fill="#00162b" fill-opacity="0.501961" points="56,97 19,81 111,77" />
<polygon fill="#dbeeee" fill-opacity="0.501961" points="196,42 246,69 271,-13" />
<polygon fill="#ffc691" fill-opacity="0.501961" points="181,96 207,88 181,83" />
<polygon fill="#c9d7e3" fill-opacity="0.501961" points="144,52 141,78 73,38" />
<polygon fill="#a4c2dc" fill-opacity="0.501961" points="235,-16 73,41 60,-16" />
<polygon fill="#1e1b13" fill-opacity="0.501961" points="192,112 133,87 89,99" />
<polygon fill="#34617c" fill-opacity="0.501961" points="120,29 99,38 149,46" />
<polygon fill="#527089" fill-opacity="0.501961" points="59,67 -13,70 3,87" />
<polygon fill="#92914b" fill-opacity="0.501961" points="82,116 105,104 40,103" />
<polygon fill="#818e9d" fill-opacity="0.501961" points="271,57 138,59 245,87" />
<polygon fill="#010000" fill-opacity="0.501961" points="6,125 -16,106 69,115" />
<polygon fill="#b29b90" fill-opacity="0.501961" points="20,89 12,97 49,97" />
<polygon fill="#c8d8e6" fill-opacity="0.501961" points="165,58 131,29 174,46" />
<polygon fill="#db9856" fill-opacity="0.501961" points="162,81 146,95 133,85" />
<polygon fill="#3c546f" fill-opacity="0.501961" points="8,27 74,34 56,53" />
<polygon fill="#5a3d29" fill-opacity="0.501961" points="200,81 162,75 142,101" />
<polygon fill="#0d1720" fill-opacity="0.501961" points="128,175 271,162 140,126" />
<polygon fill="#010700" fill-opacity="0.501961" points="205,103 210,124 269,113" />
<polygon fill="#9e702d" fill-opacity="0.501961" points="271,119 208,126 268,137" />
<polygon fill="#6a889c" fill-opacity="0.501961" points="181,62 166,10 212,70" />
<polygon fill="#c1d2dc" fill-opacity="0.501961" points="-16,47 58,56 10,69" />
<polygon fill="#554031" fill-opacity="0.501961" points="195,80 227,98 271,86" />
<polygon fill="#ab8854" fill-opacity="0.501961" points="138,106 157,106 148,117" />
<polygon fill="#877962" fill-opacity="0.501961" points="131,119 124,147 114,87" />
<polygon fill="#526d83" fill-opacity="0.501961" points="66,61 51,81 118,76" />
<polygon fill="#bec4cf" fill-opacity="0.501961" points="23,18 100,-16 -16,2" />
<polygon fill="#0c0f14" fill-opacity="0.501961" points="110,145 -11,157 94,175" />
<polygon fill="#9da0a5" fill-opacity="0.501961" points="145,50 117,76 242,78" />
<polygon fill="#845e2c" fill-opacity="0.501961" points="-16,121 -16,134 33,124" />
<polygon fill="#d8e9f0" fill-opacity="0.501961" points="80,32 108,49 81,64" />
<polygon fill="#091405" fill-opacity="0.501961" points="158,113 158,87 199,119" />
<polygon fill="#8097a4" fill-opacity="0.501961" points="71,6 6,24 83,28" />
<polygon fill="#b6daef" fill-opacity="0.501961" points="223,26 271,0 125,-3" />
<polygon fill="#364250" fill-opacity="0.501961" points="140,108 42,164 72,123" />
<polygon fill="#1b252f" fill-opacity="0.501961" points="194,129 249,136 271,161" />
<polygon fill="#b67a44" fill-opacity="0.501961" points="96,80 123,81 119,96" />
<polygon fill="#ced6d2" fill-opacity="0.501961" points="266,83 259,74 229,79" />
<polygon fill="#0a0d14" fill-opacity="0.501961" points="-16,134 31,141 60,122" />
<polygon fill="#5a7186" fill-opacity="0.501961" points="264,63 271,79 208,70" />
<polygon fill="#836541" fill-opacity="0.501961" points="156,79 205,106 178,104" />
<polygon fill="#a67f40" fill-opacity="0.501961" points="29,125 60,120 43,118" />
<polygon fill="#766f41" fill-opacity="0.501961" points="59,102 49,115 30,105" />
<polygon fill="#593c2c" fill-opacity="0.501961" points="136,89 132,77 95,74" />
<polygon fill="#020c13" fill-opacity="0.501961" points="73,95 59,89 50,104" />
<polygon fill="#ebc5a2" fill-opacity="0.501961" points="86,87 74,92 105,94" />
<polygon fill="#525b65" fill-opacity="0.501961" points="18,146 67,130 46,127" />
<polygon fill="#7e9eb2" fill-opacity="0.501961" points="-5,45 39,43 19,54" />
<polygon fill="#2f3e50" fill-opacity="0.501961" points="117,171 126,108 110,135" />
<polygon fill="#435668" fill-opacity="0.501961" points="138,117 198,121 240,152" />
<polygon fill="#8ca2b0" fill-opacity="0.501961" points="76,71 46,49 74,38" />
<polygon fill="#000300" fill-opacity="0.501961" points="-16,108 -16,125 48,119" />
<polygon fill="#1b324a" fill-opacity="0.501961" points="11,75 16,93 54,79" />
<polygon fill="#00060f" fill-opacity="0.501961" points="108,92 115,102 95,103" />
<polygon fill="#94b2c6" fill-opacity="0.501961" points="218,36 173,8 95,29" />
<polygon fill="#130500" fill-opacity="0.501961" points="129,158 126,143 124,165" />
<polygon fill="#171d26" fill-opacity="0.501961" points="-3,153 88,126 49,152" />
<polygon fill="#807e40" fill-opacity="0.501961" points="106,114 74,105 121,104" />
<polygon fill="#46382f" fill-opacity="0.501961" points="172,97 172,76 191,78" />
<polygon fill="#7e8e9a" fill-opacity="0.501961" points="7,82 -6,24 -10,83" />
<polygon fill="#e4efea" fill-opacity="0.501961" points="267,57 220,51 271,6" />
<polygon fill="#2f2208" fill-opacity="0.501961" points="223,123 262,125 271,69" />
<polygon fill="#352c19" fill-opacity="0.501961" points="183,100 229,89 271,109" />
<polygon fill="#292114" fill-opacity="0.501961" points="44,100 -3,117 -16,94" />
<polygon fill="#000000" fill-opacity="0.501961" points="134,113 144,116 134,105" />
<polygon fill="#bd9064" fill-opacity="0.501961" points="172,89 172,97 161,79" />
<polygon fill="#8497a5" fill-opacity="0.501961" points="116,73 114,50 76,70" />
<polygon fill="#82a3bb" fill-opacity="0.501961" points="146,28 126,-16 66,-16" />
<polygon fill="#8d7c70" fill-opacity="0.501961" points="93,100 72,95 102,93" />
<polygon fill="#7a7758" fill-opacity="0.501961" points="206,128 200,111 201,129" />
<polygon fill="#dfba91" fill-opacity="0.501961" points="185,86 177,97 194,91" />
<polygon fill="#b5cad9" fill-opacity="0.501961" points="77,60 81,-2 103,28" />
<polygon fill="#6b7783" fill-opacity="0.501961" points="56,132 87,122 71,122" />
<polygon fill="#4e5359" fill-opacity="0.501961" points="-16,145 19,147 -16,158" />
<polygon fill="#b4945c" fill-opacity="0.501961" points="129,119 122,120 130,143" />
<polygon fill="#253341" fill-opacity="0.501961" points="224,146 133,119 163,145" />
<polygon fill="#9b6948" fill-opacity="0.501961" points="142,100 130,99 142,95" />
<polygon fill="#c69965" fill-opacity="0.501961" points="155,94 141,92 139,78" />
<polygon fill="#96a5ae" fill-opacity="0.501961" points="60,70 28,62 77,60" />
<polygon fill="#db922d" fill-opacity="0.501961" points="114,175 123,165 124,147" />
<polygon fill="#4f6074" fill-opacity="0.501961" points="97,118 128,114 98,127" />
<polygon fill="#b4d1e2" fill-opacity="0.501961" points="219,61 188,34 180,-15" />
<polygon fill="#090d00" fill-opacity="0.501961" points="41,110 74,115 32,121" />
<polygon fill="#0a1011" fill-opacity="0.501961" points="123,104 124,86 134,91" />
<polygon fill="#0a1116" fill-opacity="0.501961" points="115,123 50,173 92,168" />
<polygon fill="#bdcfdb" fill-opacity="0.501961" points="153,61 113,59 121,44" />
<polygon fill="#a97d4b" fill-opacity="0.501961" points="76,113 88,115 75,118" />
<polygon fill="#557182" fill-opacity="0.501961" points="25,70 72,83 64,68" />
<polygon fill="#b59659" fill-opacity="0.501961" points="231,130 238,125 214,126" />
<polygon fill="#232f32" fill-opacity="0.501961" points="144,94 125,109 187,100" />
<polygon fill="#1d1c00" fill-opacity="0.501961" points="155,114 189,123 203,109" />
<polygon fill="#0b1000" fill-opacity="0.501961" points="222,102 198,122 268,115" />
<polygon fill="#040d14" fill-opacity="0.501961" points="73,124 56,123 84,117" />
<polygon fill="#e2eef1" fill-opacity="0.501961" points="37,50 28,58 55,58" />
<polygon fill="#86766b" fill-opacity="0.501961" points="26,99 24,91 53,95" />
<polygon fill="#b1c4d2" fill-opacity="0.501961" points="141,45 178,51 154,28" />
<polygon fill="#95a1ae" fill-opacity="0.501961" points="-8,17 64,20 31,7" />
<polygon fill="#446881" fill-opacity="0.501961" points="127,29 138,41 124,44" />
<polygon fill="#7695a6" fill-opacity="0.501961" points="124,45 106,23 99,40" />
<polygon fill="#24252a" fill-opacity="0.501961" points="60,128 19,130 -15,156" />
<polygon fill="#607991" fill-opacity="0.501961" points="-16,36 -16,18 38,22" />
<polygon fill="#0b0e11" fill-opacity="0.501961" points="143,141 130,175 198,168" />
<polygon fill="#8a6244" fill-opacity="0.501961" points="195,84 185,89 165,80" />
<polygon fill="#a9acb0" fill-opacity="0.501961" points="143,53 114,72 159,76" />
<polygon fill="#7b522b" fill-opacity="0.501961" points="170,110 160,115 165,116" />
<polygon fill="#c7a079" fill-opacity="0.501961" points="193,84 191,92 212,89" />
<polygon fill="#2a3438" fill-opacity="0.501961" points="77,74 65,99 88,80" />
<polygon fill="#768c9e" fill-opacity="0.501961" points="193,72 164,23 220,68" />
<polygon fill="#c1d5e2" fill-opacity="0.501961" points="59,-16 -7,0 52,3" />
<polygon fill="#3f403f" fill-opacity="0.501961" points="230,144 184,129 270,133" />
<polygon fill="#1a1b1d" fill-opacity="0.501961" points="271,136 227,143 271,162" />
<polygon fill="#2b2812" fill-opacity="0.501961" points="110,115 121,102 118,115" />
<polygon fill="#ab8558" fill-opacity="0.501961" points="122,80 95,83 118,92" />
<polygon fill="#d8b089" fill-opacity="0.501961" points="89,86 82,96 110,89" />
<polygon fill="#876a3d" fill-opacity="0.501961" points="21,123 43,121 33,126" />
<polygon fill="#51473f" fill-opacity="0.501961" points="108,72 126,79 83,85" />
<polygon fill="#997250" fill-opacity="0.501961" points="135,75 133,88 176,82" />
<polygon fill="#887668" fill-opacity="0.501961" points="24,92 7,94 25,99" />
<polygon fill="#486177" fill-opacity="0.501961" points="232,87 210,79 245,82" />
<polygon fill="#b2bdbe" fill-opacity="0.501961" points="207,73 216,79 233,76" />
<polygon fill="#5f7184" fill-opacity="0.501961" points="178,121 161,121 190,134" />
<polygon fill="#654632" fill-opacity="0.501961" points="136,78 121,86 111,106" />
<polygon fill="#101314" fill-opacity="0.501961" points="60,93 49,102 72,102" />
<polygon fill="#464528" fill-opacity="0.501961" points="41,114 73,112 49,107" />
<polygon fill="#425773" fill-opacity="0.501961" points="-16,30 45,29 9,47" />
<polygon fill="#80939c" fill-opacity="0.501961" points="20,64 -3,64 29,76" />
<polygon fill="#846d4b" fill-opacity="0.501961" points="161,107 143,117 144,107" />
<polygon fill="#152532" fill-opacity="0.501961" points="47,94 87,84 10,78" />
<polygon fill="#86a2b1" fill-opacity="0.501961" points="69,44 70,12 86,32" />
<polygon fill="#9ab8ce" fill-opacity="0.501961" points="196,45 214,30 202,18" />
<polygon fill="#565330" fill-opacity="0.501961" points="31,104 36,109 12,110" />
<polygon fill="#44647f" fill-opacity="0.501961" points="71,41 64,22 35,48" />
<polygon fill="#afbfcb" fill-opacity="0.501961" points="34,67 21,68 17,50" />
<polygon fill="#020506" fill-opacity="0.501961" points="-3,135 21,136 43,123" />
<polygon fill="#515152" fill-opacity="0.501961" points="69,104 93,96 64,96" />
<polygon fill="#d4e6e8" fill-opacity="0.501961" points="203,9 235,60 271,47" />
<polygon fill="#8493a1" fill-opacity="0.501961" points="206,79 135,51 251,62" />
<polygon fill="#443c3a" fill-opacity="0.501961" points="176,100 167,101 159,86" />
<polygon fill="#adcce3" fill-opacity="0.501961" points="257,-2 155,15 149,-15" />
<polygon fill="#0f1300" fill-opacity="0.501961" points="206,113 156,111 176,103" />
<polygon fill="#c39a4a" fill-opacity="0.501961" points="122,138 125,132 124,147" />
<polygon fill="#1f1e1b" fill-opacity="0.501961" points="179,94 180,87 172,90" />
<polygon fill="#a56414" fill-opacity="0.501961" points="126,175 129,141 135,175" />
<polygon fill="#2d2f2f" fill-opacity="0.501961" points="118,162 123,139 104,138" />
<polygon fill="#76553e" fill-opacity="0.501961" points="197,86 218,83 229,92" />
<polygon fill="#4f5c6c" fill-opacity="0.501961" points="117,131 122,141 127,109" />
<polygon fill="#816c40" fill-opacity="0.501961" points="207,122 187,120 208,128" />
<polygon fill="#1a2229" fill-opacity="0.501961" points="56,148 97,121 58,133" />
<polygon fill="#72818b" fill-opacity="0.501961" points="106,66 92,79 64,66" />
<polygon fill="#757d86" fill-opacity="0.501961" points="-9,67 19,89 -16,75" />
<polygon fill="#534017" fill-opacity="0.501961" points="190,110 199,102 219,102" />
<polygon fill="#0a1317" fill-opacity="0.501961" points="110,103 118,94 100,95" />
<polygon fill="#39495a" fill-opacity="0.501961" points="152,115 130,133 130,116" />
<polygon fill="#483519" fill-opacity="0.501961" points="219,101 236,108 257,102" />
<polygon fill="#56502d" fill-opacity="0.501961" points="92,109 93,116 69,111" />
<polygon fill="#4d6579" fill-opacity="0.501961" points="83,71 56,74 65,83" />
<polygon fill="#78828d" fill-opacity="0.501961" points="244,77 218,63 193,70" />
<polygon fill="#867366" fill-opacity="0.501961" points="54,96 49,100 37,93" />
<polygon fill="#e4efec" fill-opacity="0.501961" points="84,53 87,43 106,50" />
<polygon fill="#b28c4a" fill-opacity="0.501961" points="56,121 64,118 56,118" />
<polygon fill="#ac8a39" fill-opacity="0.501961" points="63,117 63,120 72,117" />
<polygon fill="#817f56" fill-opacity="0.501961" points="71,110 92,102 48,104" />
<polygon fill="#7d5339" fill-opacity="0.501961" points="241,92 254,89 226,85" />
<polygon fill="#b1b3b4" fill-opacity="0.501961" points="193,71 190,77 211,76" />
<polygon fill="#303f4d" fill-opacity="0.501961" points="13,92 40,93 24,77" />
<polygon fill="#2e3844" fill-opacity="0.501961" points="179,130 209,151 245,154" />
<polygon fill="#9bb2be" fill-opacity="0.501961" points="194,48 236,59 212,61" />
<polygon fill="#7d9aa8" fill-opacity="0.501961" points="16,47 25,40 50,49" />
<polygon fill="#a57d53" fill-opacity="0.501961" points="98,80 105,89 93,84" />
<polygon fill="#85a4b4" fill-opacity="0.501961" points="175,12 153,29 176,48" />
<polygon fill="#3e4b66" fill-opacity="0.501961" points="65,36 43,43 15,31" />
<polygon fill="#8f7f74" fill-opacity="0.501961" points="120,99 114,101 125,102" />
<polygon fill="#514841" fill-opacity="0.501961" points="61,104 104,104 76,95" />
<polygon fill="#0e1618" fill-opacity="0.501961" points="121,97 132,92 121,104" />
<polygon fill="#0c1300" fill-opacity="0.501961" points="172,114 188,105 203,122" />
<polygon fill="#c4a072" fill-opacity="0.501961" points="143,81 153,82 141,93" />
<polygon fill="#afbdc9" fill-opacity="0.501961" points="115,48 88,67 73,63" />
<polygon fill="#252b2a" fill-opacity="0.501961" points="171,108 163,86 155,106" />
<polygon fill="#202426" fill-opacity="0.501961" points="107,127 18,174 60,175" />
<polygon fill="#937a49" fill-opacity="0.501961" points="123,106 122,115 118,109" />
<polygon fill="#664b2b" fill-opacity="0.501961" points="246,120 271,121 271,112" />
<polygon fill="#22232b" fill-opacity="0.501961" points="5,85 11,92 -16,94" />
<polygon fill="#101501" fill-opacity="0.501961" points="205,95 225,123 203,121" />
<polygon fill="#3d3531" fill-opacity="0.501961" points="32,97 10,96 32,103" />
<polygon fill="#775339" fill-opacity="0.501961" points="132,93 146,98 129,99" />
<polygon fill="#4c4039" fill-opacity="0.501961" points="183,82 169,76 158,80" />
<polygon fill="#45433c" fill-opacity="0.501961" points="177,125 155,115 189,120" />
<polygon fill="#81a2b3" fill-opacity="0.501961" points="125,34 136,22 129,-15" />
<polygon fill="#0f1014" fill-opacity="0.501961" points="34,146 -16,160 46,175" />
<polygon fill="#9eb1ba" fill-opacity="0.501961" points="166,61 170,45 183,51" />
<polygon fill="#c49d6f" fill-opacity="0.501961" points="93,95 114,90 117,81" />
<polygon fill="#a0724d" fill-opacity="0.501961" points="184,99 189,93 173,99" />
<polygon fill="#4d798f" fill-opacity="0.501961" points="177,39 189,44 181,47" />
<polygon fill="#94acbd" fill-opacity="0.501961" points="111,52 108,43 125,43" />
<polygon fill="#abbbc7" fill-opacity="0.501961" points="263,61 234,61 245,55" />
<polygon fill="#3b4a56" fill-opacity="0.501961" points="133,102 136,122 124,109" />
<polygon fill="#3d4753" fill-opacity="0.501961" points="234,135 208,138 185,125" />
<polygon fill="#bbcdda" fill-opacity="0.501961" points="61,65 56,51 40,51" />
<polygon fill="#d9bfa3" fill-opacity="0.501961" points="88,95 85,89 74,94" />
<polygon fill="#a2b7cf" fill-opacity="0.501961" points="107,4 131,13 98,34" />
<polygon fill="#282b2e" fill-opacity="0.501961" points="0,138 56,125 25,142" />
<polygon fill="#383b3e" fill-opacity="0.501961" points="72,152 101,120 41,155" />
<polygon fill="#2b2a18" fill-opacity="0.501961" points="-9,115 6,104 36,113" />
<polygon fill="#0e1310" fill-opacity="0.501961" points="32,103 9,99 18,107" />
<polygon fill="#abb2c1" fill-opacity="0.501961" points="-16,13 58,11 21,2" />
<polygon fill="#3d3821" fill-opacity="0.501961" points="87,110 113,113 91,118" />
<polygon fill="#7b724d" fill-opacity="0.501961" points="52,107 33,107 35,102" />
<polygon fill="#3e474f" fill-opacity="0.501961" points="80,121 51,133 63,123" />
<polygon fill="#4e687b" fill-opacity="0.501961" points="-16,60 20,73 -13,74" />
<polygon fill="#bfdde8" fill-opacity="0.501961" points="271,37 202,1 183,18" />
<polygon fill="#9b724f" fill-opacity="0.501961" points="114,78 129,86 103,84" />
<polygon fill="#836a46" fill-opacity="0.501961" points="83,117 73,112 94,115" />
<polygon fill="#959e9f" fill-opacity="0.501961" points="220,143 221,145 225,145" />
<polygon fill="#262c29" fill-opacity="0.501961" points="178,102 203,92 216,101" />
<polygon fill="#6a7a84" fill-opacity="0.501961" points="255,84 244,88 237,81" />
<polygon fill="#5d7583" fill-opacity="0.501961" points="69,82 20,70 56,68" />
<polygon fill="#935f35" fill-opacity="0.501961" points="158,85 148,90 156,95" />
<polygon fill="#715933" fill-opacity="0.501961" points="245,136 222,130 271,127" />
<polygon fill="#463e3b" fill-opacity="0.501961" points="189,87 198,79 186,79" />
<polygon fill="#86866f" fill-opacity="0.501961" points="200,112 200,120 203,117" />
<polygon fill="#d5b591" fill-opacity="0.501961" points="202,89 182,88 185,94" />
<polygon fill="#58421b" fill-opacity="0.501961" points="129,139 126,142 126,131" />
<polygon fill="#865d40" fill-opacity="0.501961" points="186,96 196,98 190,91" />
<polygon fill="#c8dae2" fill-opacity="0.501961" points="127,58 132,47 115,54" />
<polygon fill="#6a8da1" fill-opacity="0.501961" points="100,45 122,31 111,27" />
<polygon fill="#000800" fill-opacity="0.501961" points="202,111 196,108 193,118" />
<polygon fill="#476076" fill-opacity="0.501961" points="82,76 45,73 61,81" />
<polygon fill="#b1afad" fill-opacity="0.501961" points="136,78 163,71 139,67" />
<polygon fill="#587388" fill-opacity="0.501961" points="232,68 259,68 271,80" />
<polygon fill="#b2bbbe" fill-opacity="0.501961" points="231,77 256,75 271,86" />
<polygon fill="#070f14" fill-opacity="0.501961" points="54,128 37,126 64,121" />
<polygon fill="#51575c" fill-opacity="0.501961" points="87,129 99,127 78,139" />
<polygon fill="#020900" fill-opacity="0.501961" points="202,108 228,109 203,118" />
<polygon fill="#26313b" fill-opacity="0.501961" points="130,139 161,125 133,122" />
<polygon fill="#000300" fill-opacity="0.501961" points="47,117 20,113 8,122" />
<polygon fill="#9aacc3" fill-opacity="0.501961" points="83,26 53,-9 77,4" />
<polygon fill="#9bb5d2" fill-opacity="0.501961" points="159,34 128,-5 157,9" />
<polygon fill="#c5dce7" fill-opacity="0.501961" points="155,38 164,50 165,43" />
<polygon fill="#7d8c9c" fill-opacity="0.501961" points="-16,33 -16,15 20,18" />
<polygon fill="#505c6b" fill-opacity="0.501961" points="79,122 90,123 98,117" />
<polygon fill="#5b798c" fill-opacity="0.501961" points="33,22 62,26 45,32" />
<polygon fill="#b3cada" fill-opacity="0.501961" points="86,59 80,35 73,43" />
<polygon fill="#5a6a80" fill-opacity="0.501961" points="148,117 158,117 166,122" />
<polygon fill="#18231e" fill-opacity="0.501961" points="184,106 150,96 148,106" />
<polygon fill="#3c372f" fill-opacity="0.501961" points="197,109 219,90 230,94" />
<polygon fill="#616c76" fill-opacity="0.501961" points="221,143 196,135 206,143" />
<polygon fill="#030e18" fill-opacity="0.501961" points="90,117 83,118 87,120" />
<polygon fill="#887857" fill-opacity="0.501961" points="214,123 219,129 197,124" />
<polygon fill="#557d91" fill-opacity="0.501961" points="72,30 69,42 48,49" />
<polygon fill="#252422" fill-opacity="0.501961" points="55,98 45,99 59,103" />
<polygon fill="#373d43" fill-opacity="0.501961" points="51,132 44,128 64,123" />
<polygon fill="#9c8c7b" fill-opacity="0.501961" points="9,94 21,92 27,96" />
<polygon fill="#95794b" fill-opacity="0.501961" points="43,123 36,121 53,119" />
<polygon fill="#98b4cf" fill-opacity="0.501961" points="188,40 179,4 169,12" />
<polygon fill="#52585c" fill-opacity="0.501961" points="54,133 20,146 39,132" />
<polygon fill="#000300" fill-opacity="0.501961" points="73,113 71,117 62,113" />
<polygon fill="#2b2e32" fill-opacity="0.501961" points="38,129 53,131 23,142" />
<polygon fill="#6e5939" fill-opacity="0.501961" points="109,115 105,111 95,115" />
<polygon fill="#2f2d0b" fill-opacity="0.501961" points="198,108 190,104 184,113" />
<polygon fill="#895e3c" fill-opacity="0.501961" points="136,86 134,79 150,80" />
<polygon fill="#2f2a24" fill-opacity="0.501961" points="142,96 121,87 131,86" />
<polygon fill="#c6d8e2" fill-opacity="0.501961" points="19,63 7,50 -10,50" />
<polygon fill="#2e3a43" fill-opacity="0.501961" points="205,144 201,138 217,143" />
<polygon fill="#142533" fill-opacity="0.501961" points="61,80 38,92 26,81" />
<polygon fill="#90633d" fill-opacity="0.501961" points="124,93 114,91 121,85" />
<polygon fill="#131712" fill-opacity="0.501961" points="126,148 131,175 124,165" />
<polygon fill="#527991" fill-opacity="0.501961" points="25,42 -4,41 9,48" />
<polygon fill="#060b03" fill-opacity="0.501961" points="36,121 38,115 57,117" />
<polygon fill="#040f0c" fill-opacity="0.501961" points="199,100 206,98 212,101" />
<polygon fill="#304050" fill-opacity="0.501961" points="147,115 175,131 142,124" />
<polygon fill="#a5b8ca" fill-opacity="0.501961" points="155,37 124,23 159,54" />
<polygon fill="#0b1520" fill-opacity="0.501961" points="86,116 97,116 86,119" />
<polygon fill="#616262" fill-opacity="0.501961" points="80,95 67,97 87,100" />
<polygon fill="#856f4c" fill-opacity="0.501961" points="154,112 150,118 150,108" />
<polygon fill="#a1917b" fill-opacity="0.501961" points="128,123 119,128 129,116" />
<polygon fill="#15191b" fill-opacity="0.501961" points="127,104 136,102 118,97" />
<polygon fill="#97a1a9" fill-opacity="0.501961" points="117,74 93,57 139,72" />
<polygon fill="#486a83" fill-opacity="0.501961" points="138,46 128,44 127,33" />
<polygon fill="#899ca9" fill-opacity="0.501961" points="137,37 150,67 175,65" />
<polygon fill="#263948" fill-opacity="0.501961" points="42,76 6,76 30,89" />
<polygon fill="#99704c" fill-opacity="0.501961" points="172,84 153,80 165,87" />
<polygon fill="#283c47" fill-opacity="0.501961" points="98,78 112,77 100,74" />
<polygon fill="#5b4639" fill-opacity="0.501961" points="167,93 158,94 170,97" />
<polygon fill="#0b0a0d" fill-opacity="0.501961" points="266,127 262,117 252,124" />
<polygon fill="#aec4d9" fill-opacity="0.501961" points="67,-15 89,-2 97,45" />
<polygon fill="#78858e" fill-opacity="0.501961" points="87,66 120,73 93,75" />
<polygon fill="#95aeca" fill-opacity="0.501961" points="121,-16 119,17 85,8" />
<polygon fill="#181b1b" fill-opacity="0.501961" points="131,174 132,150 150,139" />
<polygon fill="#435869" fill-opacity="0.501961" points="91,79 88,76 90,71" />
<polygon fill="#9eb0be" fill-opacity="0.501961" points="-16,52 -16,31 12,65" />
<polygon fill="#91afc9" fill-opacity="0.501961" points="214,33 205,21 203,30" />
<polygon fill="#8b7a68" fill-opacity="0.501961" points="146,76 157,78 158,75" />
<polygon fill="#020d0f" fill-opacity="0.501961" points="67,94 53,94 59,99" />
<polygon fill="#303632" fill-opacity="0.501961" points="75,81 70,92 98,80" />
<polygon fill="#8098ab" fill-opacity="0.501961" points="45,21 66,9 72,22" />
<polygon fill="#c5a074" fill-opacity="0.501961" points="168,94 170,94 167,87" />
<polygon fill="#b1babb" fill-opacity="0.501961" points="230,80 219,77 242,76" />
<polygon fill="#000000" fill-opacity="0.501961" points="135,109 139,112 138,115" />
<polygon fill="#252320" fill-opacity="0.501961" points="162,94 161,86 167,94" />
<polygon fill="#b1c4d7" fill-opacity="0.501961" points="53,13 56,-7 12,-4" />
<polygon fill="#8e7248" fill-opacity="0.501961" points="230,125 242,132 264,127" />
<polygon fill="#4b4319" fill-opacity="0.501961" points="203,124 210,120 193,120" />
<polygon fill="#1b1903" fill-opacity="0.501961" points="227,113 220,124 207,122" />
<polygon fill="#273540" fill-opacity="0.501961" points="211,80 200,83 194,80" />
<polygon fill="#9bacb4" fill-opacity="0.501961" points="53,68 22,65 47,60" />
<polygon fill="#323d48" fill-opacity="0.501961" points="111,121 115,148 120,119" />
<polygon fill="#646f71" fill-opacity="0.501961" points="234,146 242,151 224,146" />
<polygon fill="#1c2228" fill-opacity="0.501961" points="114,127 100,148 106,159" />
<polygon fill="#272d31" fill-opacity="0.501961" points="243,138 225,143 244,151" />
<polygon fill="#322510" fill-opacity="0.501961" points="237,106 212,102 271,85" />
<polygon fill="#040603" fill-opacity="0.501961" points="248,107 257,117 237,110" />
<polygon fill="#6f7f8f" fill-opacity="0.501961" points="167,123 181,129 175,123" />
<polygon fill="#7f8b93" fill-opacity="0.501961" points="43,73 52,68 59,70" />
<polygon fill="#15181a" fill-opacity="0.501961" points="192,175 170,151 255,159" />
<polygon fill="#adbdc9" fill-opacity="0.501961" points="65,62 50,68 58,50" />
<polygon fill="#787345" fill-opacity="0.501961" points="84,105 71,119 112,104" />
<polygon fill="#e3ece9" fill-opacity="0.501961" points="271,41 254,58 238,41" />
<polygon fill="#443a32" fill-opacity="0.501961" points="198,92 217,99 240,88" />
<polygon fill="#1e2023" fill-opacity="0.501961" points="258,175 225,147 252,157" />
<polygon fill="#8b93a0" fill-opacity="0.501961" points="204,60 157,66 201,74" />
<polygon fill="#12130b" fill-opacity="0.501961" points="67,111 56,111 51,116" />
<polygon fill="#d9e7ea" fill-opacity="0.501961" points="15,55 18,59 7,61" />
<polygon fill="#b1c2d1" fill-opacity="0.501961" points="39,51 29,47 13,54" />
<polygon fill="#b9c8d2" fill-opacity="0.501961" points="35,66 24,62 25,68" />
<polygon fill="#5c6670" fill-opacity="0.501961" points="124,129 125,116 117,133" />
<polygon fill="#46535f" fill-opacity="0.501961" points="168,120 190,124 183,129" />
<polygon fill="#213548" fill-opacity="0.501961" points="220,81 214,83 208,81" />
<polygon fill="#92a5af" fill-opacity="0.501961" points="118,69 112,51 88,65" />
<polygon fill="#737f8a" fill-opacity="0.501961" points="189,134 196,134 184,130" />
<polygon fill="#57452a" fill-opacity="0.501961" points="-16,120 22,127 -9,133" />
<polygon fill="#6c7b86" fill-opacity="0.501961" points="69,82 68,76 60,80" />
<polygon fill="#7394a5" fill-opacity="0.501961" points="142,42 130,28 118,28" />
<polygon fill="#9b8c7c" fill-opacity="0.501961" points="29,93 35,95 21,97" />
<polygon fill="#2a363a" fill-opacity="0.501961" points="69,88 74,92 55,92" />
<polygon fill="#6b737a" fill-opacity="0.501961" points="56,132 46,136 54,130" />
<polygon fill="#d9e5e8" fill-opacity="0.501961" points="30,60 32,52 50,57" />
<polygon fill="#3f3929" fill-opacity="0.501961" points="37,110 49,116 53,110" />
<polygon fill="#687c8c" fill-opacity="0.501961" points="266,77 237,64 220,73" />
<polygon fill="#48677e" fill-opacity="0.501961" points="41,45 29,38 21,40" />
<polygon fill="#25272a" fill-opacity="0.501961" points="69,134 46,162 32,158" />
<polygon fill="#13202b" fill-opacity="0.501961" points="77,85 54,81 62,93" />
<polygon fill="#1e1f23" fill-opacity="0.501961" points="3,148 -16,141 34,130" />
<polygon fill="#a7a7a8" fill-opacity="0.501961" points="157,67 189,74 164,76" />
<polygon fill="#ba9567" fill-opacity="0.501961" points="181,88 181,92 188,86" />
<polygon fill="#2f302a" fill-opacity="0.501961" points="105,93 92,103 101,104" />
<polygon fill="#334151" fill-opacity="0.501961" points="123,114 130,103 132,115" />
<polygon fill="#afd1e6" fill-opacity="0.501961" points="221,-16 271,9 142,3" />
<polygon fill="#575556" fill-opacity="0.501961" points="16,88 12,93 30,91" />
<polygon fill="#6c7c85" fill-opacity="0.501961" points="215,81 207,77 200,79" />
<polygon fill="#dae8e9" fill-opacity="0.501961" points="104,50 84,48 101,56" />
<polygon fill="#adc2d7" fill-opacity="0.501961" points="82,6 117,21 96,22" />
<polygon fill="#423226" fill-opacity="0.501961" points="175,95 170,87 179,86" />
<polygon fill="#729bae" fill-opacity="0.501961" points="174,17 174,33 167,19" />
<polygon fill="#885f45" fill-opacity="0.501961" points="111,79 97,80 102,84" />
<polygon fill="#826842" fill-opacity="0.501961" points="41,123 32,125 30,122" />
<polygon fill="#845d44" fill-opacity="0.501961" points="132,97 131,102 139,97" />
<polygon fill="#523a21" fill-opacity="0.501961" points="259,107 271,100 240,103" />
<polygon fill="#21262d" fill-opacity="0.501961" points="167,149 176,134 210,148" />
<polygon fill="#030e12" fill-opacity="0.501961" points="102,98 116,99 100,103" />
<polygon fill="#546d82" fill-opacity="0.501961" points="-8,39 29,24 7,24" />
<polygon fill="#4a5560" fill-opacity="0.501961" points="229,135 200,125 214,135" />
<polygon fill="#2f250e" fill-opacity="0.501961" points="243,112 220,123 244,123" />
<polygon fill="#e6c9a8" fill-opacity="0.501961" points="83,89 74,94 77,90" />
<polygon fill="#aa803d" fill-opacity="0.501961" points="121,148 125,144 122,156" />
<polygon fill="#6a513d" fill-opacity="0.501961" points="120,98 118,93 113,94" />
<polygon fill="#82807b" fill-opacity="0.501961" points="125,78 126,74 139,77" />
<polygon fill="#99acb7" fill-opacity="0.501961" points="82,66 66,49 47,49" />
<polygon fill="#503728" fill-opacity="0.501961" points="123,89 116,90 120,87" />
<polygon fill="#a4b5c4" fill-opacity="0.501961" points="11,54 -1,47 19,52" />
<polygon fill="#a37748" fill-opacity="0.501961" points="147,90 153,85 157,91" />
<polygon fill="#4e552e" fill-opacity="0.501961" points="67,113 81,110 55,108" />
<polygon fill="#966747" fill-opacity="0.501961" points="207,83 196,83 199,86" />
<polygon fill="#34302a" fill-opacity="0.501961" points="113,151 121,144 119,175" />
<polygon fill="#746336" fill-opacity="0.501961" points="185,106 187,102 180,103" />
<polygon fill="#b88a3e" fill-opacity="0.501961" points="128,147 131,146 128,139" />
<polygon fill="#cbe2e8" fill-opacity="0.501961" points="213,48 247,32 211,17" />
<polygon fill="#6c4631" fill-opacity="0.501961" points="117,79 136,87 134,79" />
<polygon fill="#b08e61" fill-opacity="0.501961" points="146,86 135,82 159,83" />
<polygon fill="#b1d2e5" fill-opacity="0.501961" points="178,14 201,31 205,18" />
<polygon fill="#00020a" fill-opacity="0.501961" points="135,103 138,100 139,103" />
<polygon fill="#5f4c3c" fill-opacity="0.501961" points="148,95 145,101 139,100" />
<polygon fill="#68574a" fill-opacity="0.501961" points="98,99 93,94 79,103" />
<polygon fill="#34322c" fill-opacity="0.501961" points="74,99 67,101 81,102" />
<polygon fill="#c4955f" fill-opacity="0.501961" points="119,91 116,91 119,93" />
<polygon fill="#87a3b3" fill-opacity="0.501961" points="116,21 140,18 133,26" />
</g>
</svg>