<svg xmlns="http://www.w3.org/2000/svg" version="1.1" width="1024" height="640">
<rect x="0" y="0" width="1024" height="640" fill="#5f6562" />
<g transform="scale(4.000000) translate(0.5 0.5)">
<polygon fill="#f5e8db" fill-opacity="0.501961" points="214,-3 14,-16 140,107" />
<polygon fill="#05141c" fill-opacity="0.501961" points="110,170 3,-16 -16,169" />
<polygon fill="#000e15" fill-opacity="0.501961" points="271,155 222,-16 177,175" />
<polygon fill="#7f867c" fill-opacity="0.501961" points="19,70 127,83 75,0" />
<polygon fill="#c7c0b4" fill-opacity="0.501961" points="113,137 156,137 146,-16" />
<polygon fill="#253031" fill-opacity="0.501961" points="134,87 250,175 271,50" />
<polygon fill="#273331" fill-opacity="0.501961" points="127,76 -16,73 120,117" />
<polygon fill="#cac0b6" fill-opacity="0.501961" points="189,75 195,-15 93,53" />
<polygon fill="#c9c2ba" fill-opacity="0.501961" points="58,70 68,13 37,9" />
<polygon fill="#aaaea6" fill-opacity="0.501961" points="58,133 100,113 67,111" />
<polygon fill="#273837" fill-opacity="0.501961" points="84,11 81,51 64,27" />
<polygon fill="#56645a" fill-opacity="0.501961" points="167,44 137,108 181,63" />
<polygon fill="#8a938b" fill-opacity="0.501961" points="238,78 227,51 244,48" />
<polygon fill="#acaeac" fill-opacity="0.501961" points="256,-16 222,-16 246,31" />
<polygon fill="#cbbfb3" fill-opacity="0.501961" points="152,0 109,-16 132,154" />
<polygon fill="#3f4d49" fill-opacity="0.501961" points="195,69 257,39 206,-12" />
<polygon fill="#243135" fill-opacity="0.501961" points="15,175 36,9 -14,-16" />
<polygon fill="#919b98" fill-opacity="0.501961" points="181,112 175,148 192,138" />
<polygon fill="#a2a197" fill-opacity="0.501961" points="29,59 43,78 72,63" />
<polygon fill="#a9a6a2" fill-opacity="0.501961" points="101,-1 172,-16 217,33" />
<polygon fill="#d4c7bd" fill-opacity="0.501961" points="131,80 174,38 84,10" />
<polygon fill="#6b756d" fill-opacity="0.501961" points="127,108 72,36 128,75" />
<polygon fill="#bbb5aa" fill-opacity="0.501961" points="105,54 78,65 78,82" />
<polygon fill="#2d3a3a" fill-opacity="0.501961" points="159,168 187,86 160,78" />
<polygon fill="#41504d" fill-opacity="0.501961" points="28,-16 52,70 17,43" />
<polygon fill="#263132" fill-opacity="0.501961" points="54,68 119,88 -16,152" />
<polygon fill="#15262e" fill-opacity="0.501961" points="262,-16 242,42 260,38" />
<polygon fill="#384549" fill-opacity="0.501961" points="160,174 50,147 48,112" />
<polygon fill="#a2a197" fill-opacity="0.501961" points="74,53 74,78 38,37" />
<polygon fill="#747d7b" fill-opacity="0.501961" points="113,145 180,142 54,112" />
<polygon fill="#646b62" fill-opacity="0.501961" points="135,98 168,104 143,72" />
<polygon fill="#dbcfc3" fill-opacity="0.501961" points="188,66 168,35 185,41" />
<polygon fill="#14202b" fill-opacity="0.501961" points="41,175 -16,154 46,128" />
<polygon fill="#3b413c" fill-opacity="0.501961" points="179,110 247,143 189,65" />
<polygon fill="#e3a553" fill-opacity="0.501961" points="128,156 137,173 130,134" />
<polygon fill="#afaba5" fill-opacity="0.501961" points="37,22 64,36 86,-16" />
<polygon fill="#535f5b" fill-opacity="0.501961" points="79,6 67,49 90,37" />
<polygon fill="#283435" fill-opacity="0.501961" points="243,139 262,81 186,48" />
<polygon fill="#4c5854" fill-opacity="0.501961" points="50,27 10,85 17,41" />
<polygon fill="#626c63" fill-opacity="0.501961" points="198,9 214,46 204,62" />
<polygon fill="#a1a39d" fill-opacity="0.501961" points="110,112 156,101 158,137" />
<polygon fill="#5b655e" fill-opacity="0.501961" points="85,63 100,47 47,56" />
<polygon fill="#414c47" fill-opacity="0.501961" points="107,64 75,66 98,71" />
<polygon fill="#2c3939" fill-opacity="0.501961" points="231,-8 229,75 207,0" />
<polygon fill="#cac0b5" fill-opacity="0.501961" points="93,39 158,85 156,22" />
<polygon fill="#263234" fill-opacity="0.501961" points="249,118 271,68 144,90" />
<polygon fill="#727b70" fill-opacity="0.501961" points="192,86 168,46 160,68" />
<polygon fill="#a4a69f" fill-opacity="0.501961" points="230,53 238,54 251,42" />
<polygon fill="#b6b0a9" fill-opacity="0.501961" points="168,-16 201,38 84,13" />
<polygon fill="#36434d" fill-opacity="0.501961" points="141,175 143,146 242,172" />
<polygon fill="#545d58" fill-opacity="0.501961" points="20,136 66,139 66,117" />
<polygon fill="#495757" fill-opacity="0.501961" points="101,130 125,98 90,100" />
<polygon fill="#bcb8ac" fill-opacity="0.501961" points="96,76 79,68 101,71" />
<polygon fill="#e5a54a" fill-opacity="0.501961" points="138,146 136,160 142,158" />
<polygon fill="#1d2e33" fill-opacity="0.501961" points="245,51 271,62 237,61" />
<polygon fill="#2b3943" fill-opacity="0.501961" points="94,164 128,143 130,175" />
<polygon fill="#1b2633" fill-opacity="0.501961" points="271,153 177,175 198,125" />
<polygon fill="#bab4a7" fill-opacity="0.501961" points="137,76 143,119 119,125" />
<polygon fill="#bdb6ae" fill-opacity="0.501961" points="78,34 157,14 199,45" />
<polygon fill="#979996" fill-opacity="0.501961" points="167,-8 215,19 191,-16" />
<polygon fill="#c5beb2" fill-opacity="0.501961" points="77,68 52,58 52,67" />
<polygon fill="#1e2b31" fill-opacity="0.501961" points="84,174 76,112 69,163" />
<polygon fill="#9b9c93" fill-opacity="0.501961" points="85,108 52,122 94,118" />
<polygon fill="#a2a197" fill-opacity="0.501961" points="33,54 53,79 34,66" />
<polygon fill="#374343" fill-opacity="0.501961" points="41,79 53,53 42,57" />
<polygon fill="#ccc1b7" fill-opacity="0.501961" points="128,30 134,48 84,67" />
<polygon fill="#242f33" fill-opacity="0.501961" points="64,116 -16,150 33,66" />
<polygon fill="#727a72" fill-opacity="0.501961" points="156,116 139,92 158,95" />
<polygon fill="#aeaaa4" fill-opacity="0.501961" points="157,7 173,-3 214,31" />
<polygon fill="#a8a59f" fill-opacity="0.501961" points="64,18 64,57 24,-16" />
<polygon fill="#adad9e" fill-opacity="0.501961" points="206,53 203,57 213,56" />
<polygon fill="#8d9188" fill-opacity="0.501961" points="180,53 132,84 173,72" />
<polygon fill="#959794" fill-opacity="0.501961" points="237,22 249,30 244,-16" />
<polygon fill="#54605e" fill-opacity="0.501961" points="229,61 229,77 255,63" />
<polygon fill="#212e33" fill-opacity="0.501961" points="31,43 -16,24 20,-1" />
<polygon fill="#757e7c" fill-opacity="0.501961" points="271,56 234,33 242,49" />
<polygon fill="#818784" fill-opacity="0.501961" points="19,49 17,42 26,41" />
<polygon fill="#233032" fill-opacity="0.501961" points="6,64 -16,46 50,48" />
<polygon fill="#35433b" fill-opacity="0.501961" points="186,36 221,52 205,38" />
<polygon fill="#374338" fill-opacity="0.501961" points="68,68 27,84 53,88" />
<polygon fill="#495557" fill-opacity="0.501961" points="58,118 48,146 96,133" />
<polygon fill="#514d42" fill-opacity="0.501961" points="203,123 157,96 210,108" />
<polygon fill="#586366" fill-opacity="0.501961" points="187,144 131,143 160,157" />
<polygon fill="#424e47" fill-opacity="0.501961" points="72,89 79,67 64,80" />
<polygon fill="#7e8887" fill-opacity="0.501961" points="102,138 128,92 118,137" />
<polygon fill="#4f5b57" fill-opacity="0.501961" points="77,51 87,20 72,11" />
<polygon fill="#c1b9af" fill-opacity="0.501961" points="54,54 61,20 48,20" />
<polygon fill="#c4c0b2" fill-opacity="0.501961" points="197,64 183,63 177,51" />
<polygon fill="#656e67" fill-opacity="0.501961" points="70,48 78,40 52,45" />
<polygon fill="#535b56" fill-opacity="0.501961" points="239,144 251,142 220,129" />
<polygon fill="#2d3937" fill-opacity="0.501961" points="178,69 173,96 151,90" />
<polygon fill="#202c33" fill-opacity="0.501961" points="40,175 49,126 18,140" />
<polygon fill="#a6a8a1" fill-opacity="0.501961" points="68,115 74,121 71,129" />
<polygon fill="#828986" fill-opacity="0.501961" points="40,27 49,-16 31,-4" />
<polygon fill="#43514f" fill-opacity="0.501961" points="221,19 202,22 198,12" />
<polygon fill="#606d6b" fill-opacity="0.501961" points="195,137 186,117 160,119" />
<polygon fill="#646d6b" fill-opacity="0.501961" points="34,66 15,61 15,71" />
<polygon fill="#abaaa1" fill-opacity="0.501961" points="78,82 78,72 89,68" />
<polygon fill="#d6cdc0" fill-opacity="0.501961" points="42,65 31,61 37,60" />
<polygon fill="#374445" fill-opacity="0.501961" points="36,33 9,23 32,-2" />
<polygon fill="#2a373a" fill-opacity="0.501961" points="242,47 271,17 241,34" />
<polygon fill="#9ca09c" fill-opacity="0.501961" points="33,38 37,35 30,34" />
<polygon fill="#283439" fill-opacity="0.501961" points="74,165 75,110 88,156" />
<polygon fill="#dacdbf" fill-opacity="0.501961" points="122,51 127,79 161,56" />
<polygon fill="#d7b081" fill-opacity="0.501961" points="131,114 133,149 127,132" />
<polygon fill="#93978d" fill-opacity="0.501961" points="64,61 48,77 46,66" />
<polygon fill="#999c96" fill-opacity="0.501961" points="179,140 186,129 182,119" />
<polygon fill="#3c4b4c" fill-opacity="0.501961" points="156,103 180,124 162,145" />
<polygon fill="#7e8076" fill-opacity="0.501961" points="107,95 124,90 127,99" />
<polygon fill="#646e68" fill-opacity="0.501961" points="163,56 177,53 159,75" />
<polygon fill="#717a74" fill-opacity="0.501961" points="76,27 76,11 61,29" />
<polygon fill="#b6b1a8" fill-opacity="0.501961" points="77,38 51,33 49,23" />
<polygon fill="#1f2b33" fill-opacity="0.501961" points="66,132 55,175 89,157" />
<polygon fill="#777f71" fill-opacity="0.501961" points="182,84 175,64 190,77" />
<polygon fill="#b5afa9" fill-opacity="0.501961" points="98,21 175,11 53,-10" />
<polygon fill="#333a3b" fill-opacity="0.501961" points="121,84 85,77 33,130" />
<polygon fill="#707871" fill-opacity="0.501961" points="70,28 97,35 87,41" />
<polygon fill="#2c3637" fill-opacity="0.501961" points="80,69 77,55 75,68" />
<polygon fill="#232f36" fill-opacity="0.501961" points="252,145 170,174 201,122" />
<polygon fill="#2d3939" fill-opacity="0.501961" points="239,22 207,97 213,29" />
<polygon fill="#7a8078" fill-opacity="0.501961" points="89,58 67,57 102,39" />
<polygon fill="#798281" fill-opacity="0.501961" points="79,129 78,120 100,116" />
<polygon fill="#b5b1a8" fill-opacity="0.501961" points="40,36 52,54 57,50" />
<polygon fill="#c4bdb3" fill-opacity="0.501961" points="102,36 96,43 80,43" />
<polygon fill="#999e94" fill-opacity="0.501961" points="131,87 110,63 123,66" />
<polygon fill="#4f5e5a" fill-opacity="0.501961" points="44,26 49,39 38,37" />
<polygon fill="#2f3d41" fill-opacity="0.501961" points="97,147 90,120 86,154" />
<polygon fill="#cdc6bb" fill-opacity="0.501961" points="64,57 75,57 69,55" />
<polygon fill="#43504b" fill-opacity="0.501961" points="43,59 31,52 59,54" />
<polygon fill="#46544a" fill-opacity="0.501961" points="100,48 86,52 93,46" />
<polygon fill="#656f64" fill-opacity="0.501961" points="217,41 188,48 189,59" />
<polygon fill="#263132" fill-opacity="0.501961" points="-16,79 44,75 6,139" />
<polygon fill="#8b9189" fill-opacity="0.501961" points="142,110 135,82 144,73" />
<polygon fill="#6c6d59" fill-opacity="0.501961" points="17,135 29,133 8,143" />
<polygon fill="#3b4843" fill-opacity="0.501961" points="211,70 188,88 185,70" />
<polygon fill="#969994" fill-opacity="0.501961" points="248,41 257,53 250,52" />
<polygon fill="#4c5450" fill-opacity="0.501961" points="109,91 112,123 81,103" />
<polygon fill="#a4a197" fill-opacity="0.501961" points="70,67 74,74 76,51" />
<polygon fill="#162426" fill-opacity="0.501961" points="136,154 139,175 131,163" />
<polygon fill="#949998" fill-opacity="0.501961" points="114,121 129,119 129,138" />
<polygon fill="#3e4a45" fill-opacity="0.501961" points="205,42 196,28 230,46" />
<polygon fill="#808784" fill-opacity="0.501961" points="235,31 242,43 241,34" />
<polygon fill="#737c73" fill-opacity="0.501961" points="191,48 188,30 199,51" />
<polygon fill="#3a4639" fill-opacity="0.501961" points="71,62 83,56 85,60" />
<polygon fill="#6d7871" fill-opacity="0.501961" points="122,73 111,83 97,71" />
<polygon fill="#a8a69a" fill-opacity="0.501961" points="174,70 171,57 168,75" />
<polygon fill="#788080" fill-opacity="0.501961" points="157,126 158,141 132,136" />
<polygon fill="#c8bfb5" fill-opacity="0.501961" points="93,25 104,25 89,37" />
<polygon fill="#d8cdbe" fill-opacity="0.501961" points="53,65 65,58 54,61" />
<polygon fill="#333f34" fill-opacity="0.501961" points="194,51 205,51 203,71" />
<polygon fill="#c0baaf" fill-opacity="0.501961" points="60,53 71,50 50,46" />
<polygon fill="#45524a" fill-opacity="0.501961" points="76,86 71,73 42,67" />
<polygon fill="#a4a29e" fill-opacity="0.501961" points="78,10 34,16 58,-16" />
<polygon fill="#394540" fill-opacity="0.501961" points="76,33 81,49 76,55" />
<polygon fill="#626e6d" fill-opacity="0.501961" points="176,141 170,119 161,116" />
<polygon fill="#2b383d" fill-opacity="0.501961" points="265,-3 256,49 251,8" />
<polygon fill="#5d6968" fill-opacity="0.501961" points="247,15 252,11 250,27" />
<polygon fill="#1b262f" fill-opacity="0.501961" points="10,53 -7,-12 11,-16" />
<polygon fill="#263636" fill-opacity="0.501961" points="24,15 40,18 32,22" />
<polygon fill="#414944" fill-opacity="0.501961" points="164,97 156,84 141,89" />
<polygon fill="#2f3a3a" fill-opacity="0.501961" points="162,98 156,112 175,118" />
<polygon fill="#8e9794" fill-opacity="0.501961" points="37,-16 17,-16 12,2" />
<polygon fill="#5e696d" fill-opacity="0.501961" points="103,149 128,146 91,130" />
<polygon fill="#dbd1bf" fill-opacity="0.501961" points="96,58 94,65 97,66" />
<polygon fill="#b3b3a4" fill-opacity="0.501961" points="190,69 195,70 195,68" />
<polygon fill="#868b83" fill-opacity="0.501961" points="81,58 95,56 79,48" />
<polygon fill="#404c51" fill-opacity="0.501961" points="174,175 193,137 169,160" />
<polygon fill="#44504c" fill-opacity="0.501961" points="23,63 50,49 36,40" />
<polygon fill="#354445" fill-opacity="0.501961" points="188,132 196,115 187,111" />
<polygon fill="#42473d" fill-opacity="0.501961" points="230,110 215,100 245,107" />
<polygon fill="#788281" fill-opacity="0.501961" points="183,137 173,148 169,135" />
<polygon fill="#cfc3b8" fill-opacity="0.501961" points="118,39 95,52 159,64" />
<polygon fill="#283337" fill-opacity="0.501961" points="27,62 42,124 17,137" />
<polygon fill="#969792" fill-opacity="0.501961" points="238,57 230,57 232,62" />
<polygon fill="#7a817a" fill-opacity="0.501961" points="70,39 58,36 76,50" />
<polygon fill="#aaa89e" fill-opacity="0.501961" points="37,67 43,73 43,68" />
<polygon fill="#868878" fill-opacity="0.501961" points="230,134 236,134 241,138" />
<polygon fill="#47534a" fill-opacity="0.501961" points="84,50 90,51 87,45" />
<polygon fill="#b5b2ab" fill-opacity="0.501961" points="26,45 21,45 24,43" />
<polygon fill="#2c3939" fill-opacity="0.501961" points="27,62 9,61 37,37" />
<polygon fill="#57615a" fill-opacity="0.501961" points="108,62 104,71 82,69" />
<polygon fill="#d3caba" fill-opacity="0.501961" points="93,71 85,74 98,74" />
<polygon fill="#2c3537" fill-opacity="0.501961" points="163,97 211,108 158,78" />
<polygon fill="#7f8780" fill-opacity="0.501961" points="113,55 110,69 104,62" />
<polygon fill="#adaba4" fill-opacity="0.501961" points="133,119 153,124 149,108" />
<polygon fill="#7a837c" fill-opacity="0.501961" points="163,47 160,58 178,57" />
<polygon fill="#6c6150" fill-opacity="0.501961" points="166,104 179,103 155,97" />
<polygon fill="#c7beb3" fill-opacity="0.501961" points="190,65 157,25 184,43" />
<polygon fill="#5c6660" fill-opacity="0.501961" points="111,98 124,76 120,117" />
<polygon fill="#5b6660" fill-opacity="0.501961" points="210,40 214,27 216,41" />
<polygon fill="#b2afa7" fill-opacity="0.501961" points="43,44 51,39 40,39" />
<polygon fill="#8e908d" fill-opacity="0.501961" points="232,1 254,19 232,-16" />
<polygon fill="#e7dacc" fill-opacity="0.501961" points="167,65 163,65 165,68" />
<polygon fill="#767f7f" fill-opacity="0.501961" points="21,5 55,-16 25,-11" />
<polygon fill="#5d6962" fill-opacity="0.501961" points="164,64 175,59 156,60" />
<polygon fill="#5e6a64" fill-opacity="0.501961" points="20,73 14,76 12,70" />
<polygon fill="#989d96" fill-opacity="0.501961" points="209,34 204,28 210,30" />
<polygon fill="#343c3c" fill-opacity="0.501961" points="91,74 51,122 114,89" />
<polygon fill="#bab5ab" fill-opacity="0.501961" points="194,51 184,42 183,25" />
<polygon fill="#808980" fill-opacity="0.501961" points="156,84 144,84 152,74" />
<polygon fill="#c0b9af" fill-opacity="0.501961" points="78,67 82,62 79,62" />
<polygon fill="#4d5a56" fill-opacity="0.501961" points="80,7 77,36 86,23" />
<polygon fill="#303b37" fill-opacity="0.501961" points="100,90 36,74 44,94" />
<polygon fill="#b2ada6" fill-opacity="0.501961" points="185,12 170,10 201,39" />
<polygon fill="#727b7b" fill-opacity="0.501961" points="128,132 129,145 95,132" />
<polygon fill="#435052" fill-opacity="0.501961" points="51,161 50,127 66,118" />
<polygon fill="#33423f" fill-opacity="0.501961" points="43,35 35,31 49,30" />
<polygon fill="#cdc0af" fill-opacity="0.501961" points="131,119 127,98 135,83" />
<polygon fill="#8a908b" fill-opacity="0.501961" points="249,23 241,24 231,8" />
<polygon fill="#3a453d" fill-opacity="0.501961" points="43,79 69,67 58,83" />
<polygon fill="#273136" fill-opacity="0.501961" points="227,119 249,140 190,114" />
<polygon fill="#959a93" fill-opacity="0.501961" points="209,18 210,12 204,10" />
<polygon fill="#2f3c3d" fill-opacity="0.501961" points="47,64 40,67 46,51" />
<polygon fill="#858b89" fill-opacity="0.501961" points="133,132 156,135 134,124" />
<polygon fill="#ddcfc1" fill-opacity="0.501961" points="149,76 142,64 154,61" />
<polygon fill="#bab3ab" fill-opacity="0.501961" points="88,25 92,3 146,31" />
<polygon fill="#27333d" fill-opacity="0.501961" points="75,81 77,69 79,86" />
<polygon fill="#aba7a2" fill-opacity="0.501961" points="211,-16 130,1 202,9" />
<polygon fill="#242f34" fill-opacity="0.501961" points="258,64 257,145 235,84" />
<polygon fill="#2c3936" fill-opacity="0.501961" points="43,98 34,64 23,82" />
<polygon fill="#56655d" fill-opacity="0.501961" points="196,32 193,26 198,29" />
<polygon fill="#3e484e" fill-opacity="0.501961" points="143,174 142,151 211,164" />
<polygon fill="#3b4848" fill-opacity="0.501961" points="238,27 229,58 230,7" />
<polygon fill="#a1a29b" fill-opacity="0.501961" points="96,116 80,121 78,110" />
<polygon fill="#2d393d" fill-opacity="0.501961" points="254,53 240,66 235,61" />
<polygon fill="#3d4c48" fill-opacity="0.501961" points="204,9 202,18 206,16" />
<polygon fill="#b0aba5" fill-opacity="0.501961" points="37,23 62,26 91,-7" />
<polygon fill="#55615c" fill-opacity="0.501961" points="192,116 173,122 179,111" />
<polygon fill="#505650" fill-opacity="0.501961" points="201,120 221,128 214,130" />
<polygon fill="#858d88" fill-opacity="0.501961" points="21,42 14,42 18,40" />
<polygon fill="#44443c" fill-opacity="0.501961" points="190,111 214,110 240,130" />
<polygon fill="#515c56" fill-opacity="0.501961" points="65,61 76,60 61,56" />
<polygon fill="#747970" fill-opacity="0.501961" points="151,108 140,94 158,93" />
<polygon fill="#6d6d5c" fill-opacity="0.501961" points="41,124 54,123 29,133" />
<polygon fill="#202c35" fill-opacity="0.501961" points="-4,145 -5,124 50,122" />
<polygon fill="#4a5757" fill-opacity="0.501961" points="37,13 21,0 31,17" />
<polygon fill="#45514f" fill-opacity="0.501961" points="96,115 107,91 102,127" />
<polygon fill="#242e36" fill-opacity="0.501961" points="185,115 257,147 230,164" />
<polygon fill="#beb9ac" fill-opacity="0.501961" points="51,59 61,66 55,56" />
<polygon fill="#596663" fill-opacity="0.501961" points="247,49 246,43 241,57" />
<polygon fill="#45514f" fill-opacity="0.501961" points="213,-2 210,25 217,24" />
<polygon fill="#7e8881" fill-opacity="0.501961" points="100,57 102,54 102,64" />
<polygon fill="#546158" fill-opacity="0.501961" points="94,39 96,35 86,38" />
<polygon fill="#4c595a" fill-opacity="0.501961" points="226,-16 229,13 238,-16" />
<polygon fill="#888e85" fill-opacity="0.501961" points="184,59 174,61 182,75" />
<polygon fill="#79827a" fill-opacity="0.501961" points="25,63 21,64 23,73" />
<polygon fill="#b5b1a6" fill-opacity="0.501961" points="66,55 60,58 56,65" />
<polygon fill="#66706e" fill-opacity="0.501961" points="6,36 -16,28 -16,36" />
<polygon fill="#c8c0b4" fill-opacity="0.501961" points="58,38 48,37 63,44" />
<polygon fill="#797f71" fill-opacity="0.501961" points="187,78 192,78 184,71" />
<polygon fill="#727a79" fill-opacity="0.501961" points="20,17 17,12 22,16" />
<polygon fill="#253236" fill-opacity="0.501961" points="22,43 -16,39 4,47" />
<polygon fill="#959791" fill-opacity="0.501961" points="80,36 86,27 83,36" />
<polygon fill="#3e4b42" fill-opacity="0.501961" points="75,42 68,39 78,37" />
<polygon fill="#959893" fill-opacity="0.501961" points="65,127 74,111 73,124" />
<polygon fill="#666e6b" fill-opacity="0.501961" points="232,69 229,59 244,68" />
<polygon fill="#354240" fill-opacity="0.501961" points="19,67 41,38 27,45" />
<polygon fill="#38453f" fill-opacity="0.501961" points="213,56 199,70 193,60" />
<polygon fill="#a1a29a" fill-opacity="0.501961" points="29,67 29,60 33,63" />
<polygon fill="#b6b1a5" fill-opacity="0.501961" points="72,62 67,72 75,72" />
<polygon fill="#232e34" fill-opacity="0.501961" points="216,49 215,81 232,68" />
<polygon fill="#757d74" fill-opacity="0.501961" points="181,64 171,68 177,51" />
<polygon fill="#2c3638" fill-opacity="0.501961" points="65,116 -16,96 27,131" />
<polygon fill="#bcb6ad" fill-opacity="0.501961" points="84,45 104,40 102,34" />
<polygon fill="#929690" fill-opacity="0.501961" points="187,139 185,120 181,136" />
<polygon fill="#1e2a30" fill-opacity="0.501961" points="28,13 -16,11 20,3" />
<polygon fill="#253138" fill-opacity="0.501961" points="126,152 133,175 98,171" />
<polygon fill="#454f54" fill-opacity="0.501961" points="103,162 124,144 94,152" />
<polygon fill="#2f3c3e" fill-opacity="0.501961" points="157,115 187,111 160,101" />
<polygon fill="#9f9f97" fill-opacity="0.501961" points="206,58 208,55 203,49" />
<polygon fill="#37423a" fill-opacity="0.501961" points="184,78 191,87 196,78" />
<polygon fill="#233238" fill-opacity="0.501961" points="104,89 84,76 83,86" />
<polygon fill="#c6beb1" fill-opacity="0.501961" points="86,69 77,74 91,71" />
<polygon fill="#5b6462" fill-opacity="0.501961" points="63,62 59,62 63,64" />
<polygon fill="#2f3b3e" fill-opacity="0.501961" points="240,36 263,18 271,50" />
<polygon fill="#5e6149" fill-opacity="0.501961" points="-16,146 11,141 -16,154" />
<polygon fill="#8d918c" fill-opacity="0.501961" points="238,15 230,23 245,16" />
<polygon fill="#3b4649" fill-opacity="0.501961" points="13,60 33,59 25,56" />
<polygon fill="#565e59" fill-opacity="0.501961" points="144,144 133,140 133,151" />
<polygon fill="#5e6964" fill-opacity="0.501961" points="63,30 76,31 79,22" />
<polygon fill="#525b4f" fill-opacity="0.501961" points="169,70 166,77 159,78" />
<polygon fill="#828883" fill-opacity="0.501961" points="247,40 246,51 258,53" />
<polygon fill="#596465" fill-opacity="0.501961" points="59,134 77,125 60,127" />
<polygon fill="#2a3837" fill-opacity="0.501961" points="236,47 235,44 245,46" />
<polygon fill="#8f948b" fill-opacity="0.501961" points="95,72 109,71 98,76" />
<polygon fill="#495657" fill-opacity="0.501961" points="3,74 -9,69 2,62" />
<polygon fill="#8d9288" fill-opacity="0.501961" points="184,52 187,43 199,44" />
<polygon fill="#3e4941" fill-opacity="0.501961" points="207,37 202,27 198,53" />
<polygon fill="#bfbbad" fill-opacity="0.501961" points="151,77 159,75 155,73" />
<polygon fill="#787f7b" fill-opacity="0.501961" points="39,36 29,38 30,32" />
<polygon fill="#596460" fill-opacity="0.501961" points="178,56 168,53 164,56" />
<polygon fill="#222c34" fill-opacity="0.501961" points="51,125 20,175 -8,151" />
<polygon fill="#263335" fill-opacity="0.501961" points="51,98 37,119 18,66" />
<polygon fill="#b3b1a4" fill-opacity="0.501961" points="46,77 45,72 49,73" />
<polygon fill="#a9a7a1" fill-opacity="0.501961" points="62,-16 73,-8 76,18" />
<polygon fill="#cac3b5" fill-opacity="0.501961" points="90,62 91,66 82,64" />
<polygon fill="#4a574c" fill-opacity="0.501961" points="156,73 164,69 162,67" />
<polygon fill="#313d41" fill-opacity="0.501961" points="167,143 162,138 165,122" />
<polygon fill="#7d8682" fill-opacity="0.501961" points="45,26 32,28 38,24" />
<polygon fill="#646d6d" fill-opacity="0.501961" points="53,140 51,133 53,127" />
<polygon fill="#1f2b2c" fill-opacity="0.501961" points="237,26 233,32 227,30" />
<polygon fill="#aca8a1" fill-opacity="0.501961" points="157,-13 194,6 202,29" />
<polygon fill="#788175" fill-opacity="0.501961" points="195,70 189,64 199,64" />
<polygon fill="#546158" fill-opacity="0.501961" points="188,35 195,41 194,33" />
<polygon fill="#d5c9bd" fill-opacity="0.501961" points="141,79 145,61 113,58" />
<polygon fill="#606d67" fill-opacity="0.501961" points="88,33 90,28 86,32" />
<polygon fill="#cdc4b7" fill-opacity="0.501961" points="68,62 59,65 72,65" />
<polygon fill="#232f30" fill-opacity="0.501961" points="230,3 220,7 220,23" />
<polygon fill="#3c4b4a" fill-opacity="0.501961" points="206,7 216,17 212,0" />
<polygon fill="#4c5755" fill-opacity="0.501961" points="232,64 228,68 228,60" />
<polygon fill="#484946" fill-opacity="0.501961" points="67,113 85,96 105,97" />
<polygon fill="#7d877f" fill-opacity="0.501961" points="82,81 81,78 77,83" />
<polygon fill="#49564f" fill-opacity="0.501961" points="188,65 193,78 200,80" />
<polygon fill="#253035" fill-opacity="0.501961" points="26,131 5,53 -6,147" />
<polygon fill="#7a8583" fill-opacity="0.501961" points="140,105 155,103 145,100" />
<polygon fill="#c3bab1" fill-opacity="0.501961" points="192,43 175,48 158,32" />
<polygon fill="#556059" fill-opacity="0.501961" points="39,47 39,56 51,48" />
<polygon fill="#7c8587" fill-opacity="0.501961" points="241,-16 271,9 239,-5" />
<polygon fill="#555e60" fill-opacity="0.501961" points="11,26 13,18 15,22" />
<polygon fill="#919893" fill-opacity="0.501961" points="73,81 72,80 74,79" />
<polygon fill="#a09f96" fill-opacity="0.501961" points="87,65 78,66 78,62" />
<polygon fill="#303b3b" fill-opacity="0.501961" points="198,60 210,56 200,90" />
<polygon fill="#b0ada4" fill-opacity="0.501961" points="95,40 84,45 83,41" />
<polygon fill="#9d9e96" fill-opacity="0.501961" points="112,70 110,54 121,71" />
<polygon fill="#212d32" fill-opacity="0.501961" points="19,17 0,43 7,76" />
<polygon fill="#495657" fill-opacity="0.501961" points="253,37 248,36 243,28" />
<polygon fill="#a4a59b" fill-opacity="0.501961" points="141,77 134,80 137,93" />
<polygon fill="#b5b2aa" fill-opacity="0.501961" points="233,49 235,51 233,53" />
<polygon fill="#b9b1a9" fill-opacity="0.501961" points="189,23 193,36 169,17" />
<polygon fill="#d0c4b8" fill-opacity="0.501961" points="149,40 159,66 111,54" />
<polygon fill="#3a4643" fill-opacity="0.501961" points="77,64 77,60 72,62" />
<polygon fill="#37433c" fill-opacity="0.501961" points="103,67 93,71 97,66" />
<polygon fill="#cc9f62" fill-opacity="0.501961" points="129,153 134,161 131,139" />
<polygon fill="#767f7a" fill-opacity="0.501961" points="81,9 85,14 72,11" />
<polygon fill="#434f52" fill-opacity="0.501961" points="63,144 76,127 45,139" />
<polygon fill="#717b74" fill-opacity="0.501961" points="58,43 60,47 47,43" />
<polygon fill="#c9beb5" fill-opacity="0.501961" points="107,27 100,53 164,46" />
<polygon fill="#adab9f" fill-opacity="0.501961" points="38,73 44,73 42,70" />
<polygon fill="#606b67" fill-opacity="0.501961" points="234,36 238,43 241,35" />
<polygon fill="#525d56" fill-opacity="0.501961" points="213,52 206,62 215,57" />
<polygon fill="#263337" fill-opacity="0.501961" points="248,16 268,43 257,39" />
<polygon fill="#2d393e" fill-opacity="0.501961" points="243,57 236,60 256,65" />
<polygon fill="#8a918c" fill-opacity="0.501961" points="121,91 129,94 128,103" />
<polygon fill="#5e6a67" fill-opacity="0.501961" points="198,8 203,16 198,20" />
<polygon fill="#5b6562" fill-opacity="0.501961" points="71,68 67,66 66,68" />
<polygon fill="#696e55" fill-opacity="0.501961" points="268,150 271,143 251,143" />
<polygon fill="#898d86" fill-opacity="0.501961" points="75,43 75,47 63,43" />
<polygon fill="#747e76" fill-opacity="0.501961" points="105,82 111,69 106,72" />
<polygon fill="#a4a59f" fill-opacity="0.501961" points="132,95 139,104 140,91" />
<polygon fill="#a8a699" fill-opacity="0.501961" points="168,69 161,73 163,75" />
<polygon fill="#3d4949" fill-opacity="0.501961" points="189,118 185,131 196,123" />
<polygon fill="#556061" fill-opacity="0.501961" points="247,51 257,38 267,44" />
<polygon fill="#b3aea7" fill-opacity="0.501961" points="160,3 208,24 175,21" />
<polygon fill="#7b807c" fill-opacity="0.501961" points="40,60 37,55 31,55" />
<polygon fill="#b1aca6" fill-opacity="0.501961" points="68,22 68,9 37,26" />
<polygon fill="#16242a" fill-opacity="0.501961" points="263,34 264,16 254,3" />
<polygon fill="#566062" fill-opacity="0.501961" points="183,149 159,141 161,158" />
<polygon fill="#63645c" fill-opacity="0.501961" points="107,91 104,95 107,104" />
<polygon fill="#c2bbad" fill-opacity="0.501961" points="37,66 39,61 40,70" />
<polygon fill="#596462" fill-opacity="0.501961" points="43,71 45,69 37,70" />
<polygon fill="#9da095" fill-opacity="0.501961" points="101,46 86,57 103,52" />
<polygon fill="#94988e" fill-opacity="0.501961" points="173,58 183,61 175,52" />
<polygon fill="#bab6a9" fill-opacity="0.501961" points="174,70 171,68 169,74" />
<polygon fill="#333f3b" fill-opacity="0.501961" points="205,92 157,76 175,100" />
<polygon fill="#2e3b3b" fill-opacity="0.501961" points="57,122 52,126 59,132" />
<polygon fill="#90918e" fill-opacity="0.501961" points="236,12 251,29 240,-1" />
<polygon fill="#919390" fill-opacity="0.501961" points="231,5 253,16 238,-1" />
<polygon fill="#394644" fill-opacity="0.501961" points="43,34 21,34 25,23" />
<polygon fill="#3d4949" fill-opacity="0.501961" points="78,67 84,68 82,66" />
<polygon fill="#3d4b47" fill-opacity="0.501961" points="40,37 42,43 26,38" />
<polygon fill="#253135" fill-opacity="0.501961" points="-8,7 -16,25 35,44" />
<polygon fill="#303d40" fill-opacity="0.501961" points="65,135 101,152 97,140" />
<polygon fill="#616b60" fill-opacity="0.501961" points="98,55 81,58 87,61" />
<polygon fill="#343a3c" fill-opacity="0.501961" points="84,79 76,112 72,94" />
<polygon fill="#c0965a" fill-opacity="0.501961" points="137,148 141,148 139,159" />
<polygon fill="#636d6b" fill-opacity="0.501961" points="241,24 240,21 244,18" />
<polygon fill="#818885" fill-opacity="0.501961" points="34,12 32,10 33,6" />
<polygon fill="#505b57" fill-opacity="0.501961" points="74,19 75,34 85,27" />
<polygon fill="#56625a" fill-opacity="0.501961" points="203,26 209,37 200,29" />
<polygon fill="#544e3c" fill-opacity="0.501961" points="215,113 206,106 189,108" />
<polygon fill="#aba9a1" fill-opacity="0.501961" points="47,48 48,47 46,43" />
<polygon fill="#90928d" fill-opacity="0.501961" points="122,132 111,131 118,114" />
<polygon fill="#333e38" fill-opacity="0.501961" points="30,72 29,85 57,80" />
<polygon fill="#556157" fill-opacity="0.501961" points="99,47 95,44 87,54" />
<polygon fill="#253135" fill-opacity="0.501961" points="229,47 187,104 224,98" />
<polygon fill="#a2a59d" fill-opacity="0.501961" points="202,49 202,51 206,51" />
<polygon fill="#7a7d6e" fill-opacity="0.501961" points="226,131 235,136 230,136" />
<polygon fill="#5e6b6c" fill-opacity="0.501961" points="117,109 111,110 110,129" />
<polygon fill="#6d7873" fill-opacity="0.501961" points="40,28 51,28 47,34" />
<polygon fill="#2f383a" fill-opacity="0.501961" points="19,106 66,114 1,126" />
<polygon fill="#242f35" fill-opacity="0.501961" points="228,131 199,118 223,118" />
<polygon fill="#2c3a3d" fill-opacity="0.501961" points="135,149 139,175 132,175" />
<polygon fill="#a0a196" fill-opacity="0.501961" points="96,47 103,42 102,37" />
<polygon fill="#747d7b" fill-opacity="0.501961" points="84,130 92,119 82,118" />
<polygon fill="#9c9d97" fill-opacity="0.501961" points="246,46 247,42 253,45" />
<polygon fill="#5c655f" fill-opacity="0.501961" points="68,43 73,48 64,49" />
<polygon fill="#6d7674" fill-opacity="0.501961" points="26,23 23,26 31,23" />
<polygon fill="#d2c6ba" fill-opacity="0.501961" points="102,40 111,52 105,58" />
<polygon fill="#243234" fill-opacity="0.501961" points="237,27 247,34 245,37" />
<polygon fill="#45514c" fill-opacity="0.501961" points="26,54 43,56 42,49" />
</g>
</svg>