<svg xmlns="http://www.w3.org/2000/svg" version="1.1" width="1024" height="640">
<rect x="0" y="0" width="1024" height="640" fill="#356c62" />
<g transform="scale(4.000000) translate(0.5 0.5)">
<polygon fill="#64eeec" fill-opacity="0.501961" points="-16,73 34,-16 216,79" />
<polygon fill="#391f07" fill-opacity="0.501961" points="-16,156 257,175 271,64" />
<polygon fill="#006f7d" fill-opacity="0.501961" points="251,-16 -16,22 269,86" />
<polygon fill="#645736" fill-opacity="0.501961" points="13,175 205,79 -16,73" />
<polygon fill="#c5d9cc" fill-opacity="0.501961" points="50,46 156,75 -16,75" />
<polygon fill="#003542" fill-opacity="0.501961" points="271,-7 91,-16 257,62" />
<polygon fill="#7a7b53" fill-opacity="0.501961" points="-6,114 129,81 137,160" />
<polygon fill="#009796" fill-opacity="0.501961" points="90,49 271,83 71,-16" />
<polygon fill="#7ecbc2" fill-opacity="0.501961" points="9,-16 78,72 79,-3" />
<polygon fill="#00a0a1" fill-opacity="0.501961" points="-16,60 5,-16 51,32" />
<polygon fill="#172720" fill-opacity="0.501961" points="271,82 138,80 251,175" />
<polygon fill="#18230d" fill-opacity="0.501961" points="8,113 100,84 -15,89" />
<polygon fill="#bacec0" fill-opacity="0.501961" points="144,79 122,61 189,78" />
<polygon fill="#83a396" fill-opacity="0.501961" points="212,67 260,80 167,80" />
<polygon fill="#006d74" fill-opacity="0.501961" points="103,38 271,68 120,-16" />
<polygon fill="#ab7b2a" fill-opacity="0.501961" points="111,175 137,168 128,82" />
<polygon fill="#142e1e" fill-opacity="0.501961" points="54,73 92,89 130,78" />
<polygon fill="#bde4dc" fill-opacity="0.501961" points="42,86 60,82 23,79" />
<polygon fill="#354d40" fill-opacity="0.501961" points="-16,164 111,174 124,97" />
<polygon fill="#4db3ad" fill-opacity="0.501961" points="47,21 19,55 160,69" />
<polygon fill="#001b2b" fill-opacity="0.501961" points="135,175 125,127 123,159" />
<polygon fill="#009d9b" fill-opacity="0.501961" points="68,30 165,66 85,-16" />
<polygon fill="#b7d1c7" fill-opacity="0.501961" points="12,-13 54,15 87,-16" />
<polygon fill="#9bcfcf" fill-opacity="0.501961" points="7,87 14,78 -6,81" />
<polygon fill="#cabb88" fill-opacity="0.501961" points="28,116 15,123 -6,112" />
<polygon fill="#405341" fill-opacity="0.501961" points="115,72 243,133 146,122" />
<polygon fill="#009091" fill-opacity="0.501961" points="-16,53 32,33 11,-16" />
<polygon fill="#003941" fill-opacity="0.501961" points="151,-14 259,41 271,2" />
<polygon fill="#77886d" fill-opacity="0.501961" points="55,127 133,80 49,101" />
<polygon fill="#c0d7cb" fill-opacity="0.501961" points="57,74 6,74 -16,54" />
<polygon fill="#353f30" fill-opacity="0.501961" points="1,168 37,117 -14,134" />
<polygon fill="#006067" fill-opacity="0.501961" points="271,81 65,-16 225,11" />
<polygon fill="#008185" fill-opacity="0.501961" points="86,19 184,69 115,-16" />
<polygon fill="#103f46" fill-opacity="0.501961" points="81,74 58,81 46,75" />
<polygon fill="#478c7f" fill-opacity="0.501961" points="267,84 222,70 271,69" />
<polygon fill="#c2d8c9" fill-opacity="0.501961" points="96,77 70,67 124,71" />
<polygon fill="#afc9bd" fill-opacity="0.501961" points="125,76 160,69 165,79" />
<polygon fill="#002833" fill-opacity="0.501961" points="124,130 129,140 127,114" />
<polygon fill="#c1dcd0" fill-opacity="0.501961" points="16,74 50,63 78,72" />
<polygon fill="#c8902f" fill-opacity="0.501961" points="131,128 129,163 140,164" />
<polygon fill="#293b2a" fill-opacity="0.501961" points="82,78 111,86 127,74" />
<polygon fill="#23332c" fill-opacity="0.501961" points="106,175 271,152 205,120" />
<polygon fill="#3ea7a3" fill-opacity="0.501961" points="33,29 20,-3 75,42" />
<polygon fill="#008682" fill-opacity="0.501961" points="271,74 183,64 271,50" />
<polygon fill="#1e3023" fill-opacity="0.501961" points="258,82 179,79 271,152" />
<polygon fill="#6fbbb4" fill-opacity="0.501961" points="-16,66 56,64 80,34" />
<polygon fill="#70a090" fill-opacity="0.501961" points="80,83 62,86 58,80" />
<polygon fill="#5a6851" fill-opacity="0.501961" points="68,103 11,133 48,145" />
<polygon fill="#40adaa" fill-opacity="0.501961" points="83,44 59,34 81,-16" />
<polygon fill="#a1b9ac" fill-opacity="0.501961" points="201,77 166,69 164,79" />
<polygon fill="#c58b2c" fill-opacity="0.501961" points="110,175 123,167 122,132" />
<polygon fill="#10322b" fill-opacity="0.501961" points="144,79 116,76 134,83" />
<polygon fill="#283a2f" fill-opacity="0.501961" points="120,118 111,175 85,175" />
<polygon fill="#354f4a" fill-opacity="0.501961" points="7,74 29,80 16,90" />
<polygon fill="#6f6a46" fill-opacity="0.501961" points="251,142 237,133 259,139" />
<polygon fill="#004952" fill-opacity="0.501961" points="271,54 164,5 207,-16" />
<polygon fill="#4cb3ad" fill-opacity="0.501961" points="123,45 65,38 83,53" />
<polygon fill="#445445" fill-opacity="0.501961" points="53,102 25,116 0,109" />
<polygon fill="#437064" fill-opacity="0.501961" points="196,84 178,78 156,84" />
<polygon fill="#323926" fill-opacity="0.501961" points="196,111 132,80 249,101" />
<polygon fill="#375e56" fill-opacity="0.501961" points="76,73 37,90 55,74" />
<polygon fill="#9f986f" fill-opacity="0.501961" points="53,106 44,116 29,115" />
<polygon fill="#6db6b1" fill-opacity="0.501961" points="75,-2 66,20 28,16" />
<polygon fill="#232f20" fill-opacity="0.501961" points="37,97 -16,92 -16,119" />
<polygon fill="#3c4d3a" fill-opacity="0.501961" points="134,115 145,78 216,170" />
<polygon fill="#009191" fill-opacity="0.501961" points="19,-16 27,32 -16,50" />
<polygon fill="#c3943f" fill-opacity="0.501961" points="124,108 125,137 120,125" />
<polygon fill="#6aa498" fill-opacity="0.501961" points="195,66 237,80 185,77" />
<polygon fill="#142726" fill-opacity="0.501961" points="188,175 271,153 244,137" />
<polygon fill="#58674e" fill-opacity="0.501961" points="97,128 132,83 20,147" />
<polygon fill="#e2a843" fill-opacity="0.501961" points="128,127 130,115 132,126" />
<polygon fill="#273127" fill-opacity="0.501961" points="-4,126 -11,114 11,120" />
<polygon fill="#009690" fill-opacity="0.501961" points="123,59 135,41 203,67" />
<polygon fill="#133739" fill-opacity="0.501961" points="125,112 128,109 126,104" />
<polygon fill="#a29a6e" fill-opacity="0.501961" points="15,122 -10,133 -12,126" />
<polygon fill="#00686f" fill-opacity="0.501961" points="127,20 127,-15 214,63" />
<polygon fill="#6e6947" fill-opacity="0.501961" points="225,123 233,132 209,120" />
<polygon fill="#172525" fill-opacity="0.501961" points="261,141 265,112 201,113" />
<polygon fill="#69b5ab" fill-opacity="0.501961" points="108,59 174,70 143,75" />
<polygon fill="#9dbcaf" fill-opacity="0.501961" points="36,86 31,79 57,82" />
<polygon fill="#445440" fill-opacity="0.501961" points="120,117 7,148 102,156" />
<polygon fill="#1a3630" fill-opacity="0.501961" points="121,169 125,130 129,150" />
<polygon fill="#284238" fill-opacity="0.501961" points="-16,175 -2,139 73,175" />
<polygon fill="#5d5c3e" fill-opacity="0.501961" points="42,123 19,121 68,103" />
<polygon fill="#185f67" fill-opacity="0.501961" points="46,76 35,80 23,75" />
<polygon fill="#447a73" fill-opacity="0.501961" points="267,81 246,70 217,81" />
<polygon fill="#384520" fill-opacity="0.501961" points="106,83 70,84 74,94" />
<polygon fill="#4f5d46" fill-opacity="0.501961" points="150,92 173,111 192,111" />
<polygon fill="#b0cec1" fill-opacity="0.501961" points="127,77 145,74 122,69" />
<polygon fill="#6dbbb4" fill-opacity="0.501961" points="128,67 42,34 51,60" />
<polygon fill="#00a09f" fill-opacity="0.501961" points="103,44 81,-16 82,36" />
<polygon fill="#bcdad0" fill-opacity="0.501961" points="30,-6 62,0 46,5" />
<polygon fill="#627a61" fill-opacity="0.501961" points="126,81 145,89 110,92" />
<polygon fill="#00393f" fill-opacity="0.501961" points="257,23 271,-14 175,-16" />
<polygon fill="#a4a67d" fill-opacity="0.501961" points="50,99 65,99 66,104" />
<polygon fill="#c19945" fill-opacity="0.501961" points="133,124 128,116 129,105" />
<polygon fill="#9fcfc5" fill-opacity="0.501961" points="93,75 29,65 68,58" />
<polygon fill="#0d575f" fill-opacity="0.501961" points="14,77 -14,71 0,79" />
<polygon fill="#00575f" fill-opacity="0.501961" points="167,29 268,55 144,-16" />
<polygon fill="#283a30" fill-opacity="0.501961" points="190,134 240,135 160,98" />
<polygon fill="#0e231d" fill-opacity="0.501961" points="220,99 250,85 271,98" />
<polygon fill="#525637" fill-opacity="0.501961" points="69,90 63,100 38,96" />
<polygon fill="#008683" fill-opacity="0.501961" points="167,49 204,70 253,67" />
<polygon fill="#0e2f32" fill-opacity="0.501961" points="66,80 46,80 57,77" />
<polygon fill="#3e422e" fill-opacity="0.501961" points="20,121 -15,135 -16,161" />
<polygon fill="#676545" fill-opacity="0.501961" points="191,114 197,111 212,120" />
<polygon fill="#708266" fill-opacity="0.501961" points="101,94 57,129 38,120" />
<polygon fill="#007e83" fill-opacity="0.501961" points="17,-7 -16,5 4,31" />
<polygon fill="#2b4035" fill-opacity="0.501961" points="170,142 139,175 136,128" />
<polygon fill="#a5c4b7" fill-opacity="0.501961" points="-2,84 12,79 -5,79" />
<polygon fill="#283628" fill-opacity="0.501961" points="157,93 191,81 229,126" />
<polygon fill="#607e68" fill-opacity="0.501961" points="41,88 49,84 29,86" />
<polygon fill="#293924" fill-opacity="0.501961" points="38,88 17,82 31,104" />
<polygon fill="#aba475" fill-opacity="0.501961" points="11,112 -6,114 21,121" />
<polygon fill="#203630" fill-opacity="0.501961" points="121,73 129,80 112,82" />
<polygon fill="#39a298" fill-opacity="0.501961" points="188,66 169,70 151,62" />
<polygon fill="#1f3420" fill-opacity="0.501961" points="58,83 38,95 66,91" />
<polygon fill="#a4c2b7" fill-opacity="0.501961" points="156,78 188,79 166,72" />
<polygon fill="#bf903a" fill-opacity="0.501961" points="134,132 129,123 131,148" />
<polygon fill="#96bfb4" fill-opacity="0.501961" points="138,76 114,66 126,78" />
<polygon fill="#375040" fill-opacity="0.501961" points="163,99 131,101 136,137" />
<polygon fill="#33a5a0" fill-opacity="0.501961" points="43,40 24,35 -9,58" />
<polygon fill="#27534a" fill-opacity="0.501961" points="192,85 170,79 208,79" />
<polygon fill="#30a9a2" fill-opacity="0.501961" points="133,64 89,49 121,43" />
<polygon fill="#c0d5c9" fill-opacity="0.501961" points="-16,64 14,72 -16,75" />
<polygon fill="#334030" fill-opacity="0.501961" points="12,121 -7,128 -16,121" />
<polygon fill="#297d7a" fill-opacity="0.501961" points="11,74 13,78 24,75" />
<polygon fill="#47837e" fill-opacity="0.501961" points="10,87 -16,87 -16,72" />
<polygon fill="#bf8c36" fill-opacity="0.501961" points="122,142 116,143 122,122" />
<polygon fill="#253d30" fill-opacity="0.501961" points="22,80 26,76 8,77" />
<polygon fill="#006066" fill-opacity="0.501961" points="269,68 179,35 266,42" />
<polygon fill="#354637" fill-opacity="0.501961" points="127,105 129,128 124,120" />
<polygon fill="#455d4b" fill-opacity="0.501961" points="42,142 7,151 21,130" />
<polygon fill="#395751" fill-opacity="0.501961" points="81,74 66,73 73,78" />
<polygon fill="#254238" fill-opacity="0.501961" points="271,93 222,82 258,80" />
<polygon fill="#79724a" fill-opacity="0.501961" points="242,133 229,129 240,136" />
<polygon fill="#adcfc4" fill-opacity="0.501961" points="118,76 87,65 60,72" />
<polygon fill="#919a76" fill-opacity="0.501961" points="73,94 64,103 86,94" />
<polygon fill="#35a9a6" fill-opacity="0.501961" points="23,15 52,37 88,36" />
<polygon fill="#5db3ac" fill-opacity="0.501961" points="30,60 58,42 -1,59" />
<polygon fill="#21332c" fill-opacity="0.501961" points="191,113 262,146 223,158" />
<polygon fill="#007679" fill-opacity="0.501961" points="258,70 209,44 155,50" />
<polygon fill="#007f84" fill-opacity="0.501961" points="71,-16 110,-13 152,54" />
<polygon fill="#7f8571" fill-opacity="0.501961" points="30,83 17,80 25,79" />
<polygon fill="#536344" fill-opacity="0.501961" points="90,95 118,84 106,83" />
<polygon fill="#2c433a" fill-opacity="0.501961" points="129,109 126,108 127,100" />
<polygon fill="#08a29e" fill-opacity="0.501961" points="19,-2 20,35 37,37" />
<polygon fill="#10241e" fill-opacity="0.501961" points="-16,105 24,97 3,95" />
<polygon fill="#393929" fill-opacity="0.501961" points="220,95 245,115 180,94" />
<polygon fill="#2d3e1f" fill-opacity="0.501961" points="149,80 159,90 128,79" />
<polygon fill="#669384" fill-opacity="0.501961" points="45,81 60,80 54,86" />
<polygon fill="#606142" fill-opacity="0.501961" points="79,104 90,95 65,105" />
<polygon fill="#39432d" fill-opacity="0.501961" points="18,109 40,94 -12,109" />
<polygon fill="#009394" fill-opacity="0.501961" points="116,35 81,-16 95,45" />
<polygon fill="#234342" fill-opacity="0.501961" points="53,75 65,81 37,77" />
<polygon fill="#79b4af" fill-opacity="0.501961" points="23,-5 55,13 36,12" />
<polygon fill="#57674e" fill-opacity="0.501961" points="52,99 36,111 15,111" />
<polygon fill="#77876a" fill-opacity="0.501961" points="108,90 78,116 67,108" />
<polygon fill="#65ada1" fill-opacity="0.501961" points="155,69 195,68 172,75" />
<polygon fill="#54725a" fill-opacity="0.501961" points="157,80 158,85 175,84" />
<polygon fill="#263e27" fill-opacity="0.501961" points="144,78 163,85 149,86" />
<polygon fill="#354738" fill-opacity="0.501961" points="123,101 116,147 87,173" />
<polygon fill="#7cc1b9" fill-opacity="0.501961" points="67,52 38,63 86,64" />
<polygon fill="#3e9187" fill-opacity="0.501961" points="251,71 223,68 238,78" />
<polygon fill="#55b2ae" fill-opacity="0.501961" points="73,34 103,60 75,54" />
<polygon fill="#b5c8b8" fill-opacity="0.501961" points="34,84 29,80 46,81" />
<polygon fill="#274d3c" fill-opacity="0.501961" points="230,80 220,88 213,80" />
<polygon fill="#495b44" fill-opacity="0.501961" points="41,90 27,80 26,85" />
<polygon fill="#626748" fill-opacity="0.501961" points="52,119 79,98 48,110" />
<polygon fill="#244a46" fill-opacity="0.501961" points="85,77 54,74 64,81" />
<polygon fill="#485327" fill-opacity="0.501961" points="95,82 118,82 85,91" />
<polygon fill="#45a096" fill-opacity="0.501961" points="208,67 212,76 180,67" />
<polygon fill="#b4cdc1" fill-opacity="0.501961" points="145,72 136,76 159,78" />
<polygon fill="#82b1a7" fill-opacity="0.501961" points="66,87 68,83 61,82" />
<polygon fill="#384131" fill-opacity="0.501961" points="192,123 217,175 165,143" />
<polygon fill="#47a3a0" fill-opacity="0.501961" points="26,16 15,-16 43,21" />
<polygon fill="#8ec5ba" fill-opacity="0.501961" points="-13,70 16,58 52,65" />
<polygon fill="#1e2c27" fill-opacity="0.501961" points="196,111 252,137 258,106" />
<polygon fill="#009594" fill-opacity="0.501961" points="24,11 12,44 -6,41" />
<polygon fill="#283c27" fill-opacity="0.501961" points="79,88 58,84 39,93" />
<polygon fill="#4f5f46" fill-opacity="0.501961" points="61,102 41,108 49,102" />
<polygon fill="#499e96" fill-opacity="0.501961" points="14,76 7,74 4,76" />
<polygon fill="#575f46" fill-opacity="0.501961" points="-1,137 51,113 35,131" />
<polygon fill="#819f95" fill-opacity="0.501961" points="201,72 193,79 219,78" />
<polygon fill="#243822" fill-opacity="0.501961" points="205,83 167,88 242,106" />
<polygon fill="#a4ab85" fill-opacity="0.501961" points="64,102 59,105 56,104" />
<polygon fill="#008c8c" fill-opacity="0.501961" points="207,68 120,49 168,46" />
<polygon fill="#515c42" fill-opacity="0.501961" points="111,121 49,149 54,128" />
<polygon fill="#4baca9" fill-opacity="0.501961" points="61,30 75,29 76,-12" />
<polygon fill="#00454c" fill-opacity="0.501961" points="200,10 269,34 209,-16" />
<polygon fill="#d4ae5a" fill-opacity="0.501961" points="128,90 128,96 130,97" />
<polygon fill="#9fa681" fill-opacity="0.501961" points="67,101 61,100 52,107" />
<polygon fill="#aaa679" fill-opacity="0.501961" points="7,125 25,117 14,114" />
<polygon fill="#626345" fill-opacity="0.501961" points="183,112 175,103 195,112" />
<polygon fill="#314538" fill-opacity="0.501961" points="203,118 160,98 172,121" />
<polygon fill="#6cb6ad" fill-opacity="0.501961" points="8,64 30,59 -11,53" />
<polygon fill="#94b6aa" fill-opacity="0.501961" points="163,71 178,79 194,77" />
<polygon fill="#616f52" fill-opacity="0.501961" points="95,117 117,89 67,121" />
<polygon fill="#52b2ae" fill-opacity="0.501961" points="60,49 34,52 41,35" />
<polygon fill="#4d612d" fill-opacity="0.501961" points="15,89 16,94 27,95" />
<polygon fill="#1b342e" fill-opacity="0.501961" points="112,76 123,82 95,82" />
<polygon fill="#50654d" fill-opacity="0.501961" points="111,127 104,103 125,91" />
<polygon fill="#2e4c3b" fill-opacity="0.501961" points="149,84 165,81 132,77" />
<polygon fill="#9fcdc2" fill-opacity="0.501961" points="117,70 115,75 98,67" />
<polygon fill="#bbd7ce" fill-opacity="0.501961" points="49,75 33,75 40,70" />
<polygon fill="#6a886d" fill-opacity="0.501961" points="81,83 68,81 73,84" />
<polygon fill="#2d3c31" fill-opacity="0.501961" points="180,107 201,151 221,127" />
<polygon fill="#49aca5" fill-opacity="0.501961" points="114,58 131,65 150,62" />
<polygon fill="#22342b" fill-opacity="0.501961" points="0,135 15,129 9,128" />
<polygon fill="#86835a" fill-opacity="0.501961" points="9,111 -16,120 -9,124" />
<polygon fill="#22a29e" fill-opacity="0.501961" points="28,26 43,34 19,-2" />
<polygon fill="#009f9a" fill-opacity="0.501961" points="116,50 125,44 140,52" />
<polygon fill="#43533f" fill-opacity="0.501961" points="19,108 8,111 28,116" />
<polygon fill="#607057" fill-opacity="0.501961" points="59,131 53,114 23,127" />
<polygon fill="#2b504b" fill-opacity="0.501961" points="75,74 63,73 69,80" />
<polygon fill="#48582d" fill-opacity="0.501961" points="195,87 196,82 205,82" />
<polygon fill="#394c29" fill-opacity="0.501961" points="50,91 48,84 61,89" />
<polygon fill="#c69e4c" fill-opacity="0.501961" points="129,102 131,109 128,109" />
<polygon fill="#7d784e" fill-opacity="0.501961" points="214,121 209,118 211,122" />
<polygon fill="#00676e" fill-opacity="0.501961" points="249,56 135,13 186,50" />
<polygon fill="#20453d" fill-opacity="0.501961" points="138,82 123,78 131,77" />
<polygon fill="#90885b" fill-opacity="0.501961" points="42,110 42,114 56,109" />
<polygon fill="#324335" fill-opacity="0.501961" points="-8,126 11,121 -5,117" />
<polygon fill="#3c503f" fill-opacity="0.501961" points="31,126 5,137 7,153" />
<polygon fill="#9ec7bb" fill-opacity="0.501961" points="112,69 109,77 106,70" />
<polygon fill="#9da37e" fill-opacity="0.501961" points="44,110 36,116 26,116" />
<polygon fill="#93b3a9" fill-opacity="0.501961" points="11,80 4,86 2,82" />
<polygon fill="#425846" fill-opacity="0.501961" points="130,89 133,116 154,87" />
<polygon fill="#425c4f" fill-opacity="0.501961" points="110,78 112,75 117,78" />
<polygon fill="#2e4c3e" fill-opacity="0.501961" points="-10,85 6,92 20,89" />
<polygon fill="#373f2d" fill-opacity="0.501961" points="143,86 202,93 182,102" />
<polygon fill="#00515a" fill-opacity="0.501961" points="182,19 249,48 271,32" />
<polygon fill="#1c4444" fill-opacity="0.501961" points="11,76 -4,76 7,79" />
<polygon fill="#bb8f40" fill-opacity="0.501961" points="122,108 122,123 125,113" />
<polygon fill="#11221d" fill-opacity="0.501961" points="235,97 265,86 240,86" />
<polygon fill="#97c9c1" fill-opacity="0.501961" points="68,-6 45,9 64,5" />
<polygon fill="#646242" fill-opacity="0.501961" points="33,119 25,119 40,113" />
<polygon fill="#317f78" fill-opacity="0.501961" points="32,76 14,77 23,74" />
<polygon fill="#1a2a1e" fill-opacity="0.501961" points="28,92 42,93 29,97" />
<polygon fill="#84c4bc" fill-opacity="0.501961" points="69,47 54,39 67,42" />
<polygon fill="#588f84" fill-opacity="0.501961" points="236,81 240,73 221,73" />
<polygon fill="#2b3e32" fill-opacity="0.501961" points="123,142 128,140 126,123" />
<polygon fill="#73bdb3" fill-opacity="0.501961" points="138,69 125,71 111,60" />
<polygon fill="#40523f" fill-opacity="0.501961" points="119,128 124,99 96,147" />
<polygon fill="#c4ddd1" fill-opacity="0.501961" points="43,74 47,70 59,72" />
<polygon fill="#b2d3c7" fill-opacity="0.501961" points="13,67 32,70 6,74" />
<polygon fill="#566443" fill-opacity="0.501961" points="72,91 73,97 68,99" />
<polygon fill="#b1ae7d" fill-opacity="0.501961" points="4,126 -7,129 -16,122" />
<polygon fill="#3a4837" fill-opacity="0.501961" points="22,149 60,175 101,151" />
<polygon fill="#162922" fill-opacity="0.501961" points="70,89 74,84 81,87" />
<polygon fill="#365138" fill-opacity="0.501961" points="85,77 100,76 77,86" />
<polygon fill="#76734c" fill-opacity="0.501961" points="202,116 199,117 194,112" />
<polygon fill="#28392e" fill-opacity="0.501961" points="197,115 217,157 211,122" />
<polygon fill="#a5cec2" fill-opacity="0.501961" points="146,71 121,72 130,76" />
<polygon fill="#20312a" fill-opacity="0.501961" points="180,103 214,106 246,134" />
<polygon fill="#6bb4af" fill-opacity="0.501961" points="31,12 29,3 56,16" />
<polygon fill="#376d65" fill-opacity="0.501961" points="255,80 270,72 243,78" />
<polygon fill="#314638" fill-opacity="0.501961" points="149,117 186,152 135,132" />
<polygon fill="#817749" fill-opacity="0.501961" points="252,139 266,149 271,139" />
<polygon fill="#608375" fill-opacity="0.501961" points="175,83 168,83 173,85" />
<polygon fill="#575630" fill-opacity="0.501961" points="10,105 3,105 13,101" />
<polygon fill="#716b3f" fill-opacity="0.501961" points="54,96 51,94 45,96" />
<polygon fill="#617053" fill-opacity="0.501961" points="51,101 60,104 42,103" />
<polygon fill="#5c684c" fill-opacity="0.501961" points="71,106 58,106 81,97" />
<polygon fill="#1b2c20" fill-opacity="0.501961" points="209,84 192,91 175,88" />
<polygon fill="#b18737" fill-opacity="0.501961" points="130,135 132,121 135,142" />
<polygon fill="#65785d" fill-opacity="0.501961" points="116,98 127,81 134,83" />
<polygon fill="#ac7d2e" fill-opacity="0.501961" points="115,162 123,171 119,137" />
<polygon fill="#152c29" fill-opacity="0.501961" points="123,80 117,77 124,76" />
<polygon fill="#3b4534" fill-opacity="0.501961" points="17,121 34,121 14,129" />
<polygon fill="#007279" fill-opacity="0.501961" points="122,17 119,-16 176,53" />
<polygon fill="#3a4634" fill-opacity="0.501961" points="27,78 27,85 29,82" />
<polygon fill="#1f3423" fill-opacity="0.501961" points="59,87 55,84 54,91" />
<polygon fill="#414d38" fill-opacity="0.501961" points="140,99 193,149 171,112" />
<polygon fill="#809382" fill-opacity="0.501961" points="37,85 32,82 38,82" />
<polygon fill="#a17a30" fill-opacity="0.501961" points="130,138 129,163 142,175" />
<polygon fill="#404b29" fill-opacity="0.501961" points="65,96 61,89 85,90" />
<polygon fill="#47523d" fill-opacity="0.501961" points="79,135 39,143 88,152" />
<polygon fill="#2da49d" fill-opacity="0.501961" points="144,59 135,62 157,64" />
<polygon fill="#263c34" fill-opacity="0.501961" points="127,110 125,123 128,117" />
<polygon fill="#928755" fill-opacity="0.501961" points="234,131 229,128 232,128" />
<polygon fill="#335751" fill-opacity="0.501961" points="58,79 67,73 41,76" />
<polygon fill="#71937c" fill-opacity="0.501961" points="67,86 70,83 62,87" />
<polygon fill="#8ccac0" fill-opacity="0.501961" points="106,70 83,60 75,67" />
<polygon fill="#008f8f" fill-opacity="0.501961" points="15,34 22,-16 -1,35" />
<polygon fill="#546653" fill-opacity="0.501961" points="32,87 32,83 27,82" />
<polygon fill="#74bab5" fill-opacity="0.501961" points="62,14 50,14 74,-1" />
<polygon fill="#bcbc92" fill-opacity="0.501961" points="18,120 11,118 10,120" />
<polygon fill="#4d614d" fill-opacity="0.501961" points="14,145 39,142 35,123" />
<polygon fill="#253d31" fill-opacity="0.501961" points="116,80 124,75 117,74" />
<polygon fill="#abc7bb" fill-opacity="0.501961" points="149,72 167,78 154,78" />
<polygon fill="#505f47" fill-opacity="0.501961" points="27,115 20,108 49,106" />
<polygon fill="#1a2b27" fill-opacity="0.501961" points="271,151 236,134 237,169" />
<polygon fill="#3aaba5" fill-opacity="0.501961" points="89,44 97,56 120,42" />
<polygon fill="#009491" fill-opacity="0.501961" points="116,30 108,38 146,52" />
<polygon fill="#224546" fill-opacity="0.501961" points="34,80 35,76 48,79" />
<polygon fill="#1c3834" fill-opacity="0.501961" points="167,80 183,80 173,83" />
<polygon fill="#626648" fill-opacity="0.501961" points="166,100 175,103 170,104" />
<polygon fill="#7eada0" fill-opacity="0.501961" points="180,71 201,79 191,71" />
<polygon fill="#152624" fill-opacity="0.501961" points="270,114 271,150 240,128" />
<polygon fill="#788365" fill-opacity="0.501961" points="62,110 72,116 90,98" />
<polygon fill="#708d86" fill-opacity="0.501961" points="7,78 -6,83 -2,78" />
<polygon fill="#2a9189" fill-opacity="0.501961" points="240,68 227,73 211,69" />
<polygon fill="#88ab9f" fill-opacity="0.501961" points="44,85 42,82 40,87" />
<polygon fill="#4a7e77" fill-opacity="0.501961" points="9,86 -12,82 -2,87" />
<polygon fill="#73beb7" fill-opacity="0.501961" points="43,36 49,41 53,36" />
<polygon fill="#1c342c" fill-opacity="0.501961" points="87,77 83,81 99,82" />
<polygon fill="#081c1c" fill-opacity="0.501961" points="212,86 215,85 216,93" />
<polygon fill="#5c6345" fill-opacity="0.501961" points="63,133 105,104 88,125" />
<polygon fill="#344b3d" fill-opacity="0.501961" points="149,95 174,104 174,116" />
<polygon fill="#938757" fill-opacity="0.501961" points="17,118 18,115 9,113" />
<polygon fill="#5db5b0" fill-opacity="0.501961" points="85,43 74,51 71,36" />
<polygon fill="#b9d9cd" fill-opacity="0.501961" points="86,75 104,75 86,69" />
<polygon fill="#48653e" fill-opacity="0.501961" points="179,84 182,86 190,82" />
<polygon fill="#48542a" fill-opacity="0.501961" points="206,87 209,88 206,83" />
<polygon fill="#777146" fill-opacity="0.501961" points="249,137 243,136 245,138" />
<polygon fill="#3c3629" fill-opacity="0.501961" points="221,109 204,101 236,105" />
<polygon fill="#294235" fill-opacity="0.501961" points="107,76 104,80 112,80" />
<polygon fill="#b4d9cd" fill-opacity="0.501961" points="87,73 77,68 62,71" />
<polygon fill="#8cc1b5" fill-opacity="0.501961" points="147,70 157,75 134,72" />
<polygon fill="#516b34" fill-opacity="0.501961" points="87,84 94,82 80,82" />
<polygon fill="#36442c" fill-opacity="0.501961" points="166,88 143,78 163,94" />
<polygon fill="#b58a3b" fill-opacity="0.501961" points="125,124 123,121 124,118" />
<polygon fill="#2b3c30" fill-opacity="0.501961" points="140,175 203,157 137,144" />
<polygon fill="#189e97" fill-opacity="0.501961" points="178,67 183,62 161,63" />
<polygon fill="#354436" fill-opacity="0.501961" points="33,118 38,119 29,121" />
<polygon fill="#4d634f" fill-opacity="0.501961" points="158,95 138,86 130,92" />
<polygon fill="#2aa6a3" fill-opacity="0.501961" points="37,40 21,44 18,34" />
<polygon fill="#5a6f59" fill-opacity="0.501961" points="34,136 67,124 36,126" />
<polygon fill="#344536" fill-opacity="0.501961" points="9,121 -6,119 -6,128" />
<polygon fill="#49523c" fill-opacity="0.501961" points="53,113 45,118 35,118" />
<polygon fill="#345342" fill-opacity="0.501961" points="82,81 80,75 104,77" />
<polygon fill="#00363d" fill-opacity="0.501961" points="271,23 265,-16 231,-4" />
<polygon fill="#34a9a7" fill-opacity="0.501961" points="70,39 36,32 68,30" />
<polygon fill="#6b6b4c" fill-opacity="0.501961" points="14,131 25,131 37,121" />
<polygon fill="#20322a" fill-opacity="0.501961" points="254,142 211,160 232,132" />
<polygon fill="#1c2c1e" fill-opacity="0.501961" points="22,77 18,79 28,78" />
<polygon fill="#4c5c46" fill-opacity="0.501961" points="112,115 75,154 94,115" />
<polygon fill="#75734c" fill-opacity="0.501961" points="222,128 215,121 226,127" />
<polygon fill="#22342c" fill-opacity="0.501961" points="205,175 222,127 241,137" />
<polygon fill="#007e82" fill-opacity="0.501961" points="-16,-8 15,-16 0,22" />
<polygon fill="#007e82" fill-opacity="0.501961" points="157,54 190,59 124,18" />
<polygon fill="#3f4730" fill-opacity="0.501961" points="44,96 62,96 44,101" />
<polygon fill="#004c55" fill-opacity="0.501961" points="161,-16 193,18 246,31" />
<polygon fill="#2f3f32" fill-opacity="0.501961" points="123,145 128,141 126,125" />
<polygon fill="#6b7b60" fill-opacity="0.501961" points="44,130 78,105 56,113" />
<polygon fill="#2a3d31" fill-opacity="0.501961" points="33,154 2,175 -7,159" />
<polygon fill="#70856a" fill-opacity="0.501961" points="122,83 104,99 82,103" />
<polygon fill="#445845" fill-opacity="0.501961" points="29,127 17,153 14,133" />
<polygon fill="#434d29" fill-opacity="0.501961" points="135,81 147,81 149,90" />
<polygon fill="#52aeaa" fill-opacity="0.501961" points="67,21 29,10 37,22" />
<polygon fill="#25372d" fill-opacity="0.501961" points="213,148 216,124 229,130" />
<polygon fill="#2f3f31" fill-opacity="0.501961" points="104,152 112,163 117,136" />
<polygon fill="#00a19e" fill-opacity="0.501961" points="95,42 81,31 122,41" />
<polygon fill="#4f573e" fill-opacity="0.501961" points="56,111 64,108 56,107" />
<polygon fill="#23372e" fill-opacity="0.501961" points="137,175 115,165 128,155" />
<polygon fill="#26aaa5" fill-opacity="0.501961" points="83,41 76,27 97,44" />
<polygon fill="#374c3c" fill-opacity="0.501961" points="150,125 139,138 130,99" />
<polygon fill="#1d3c38" fill-opacity="0.501961" points="58,77 72,80 65,81" />
<polygon fill="#51573d" fill-opacity="0.501961" points="5,130 9,124 17,124" />
<polygon fill="#009798" fill-opacity="0.501961" points="25,18 14,42 18,2" />
<polygon fill="#46afaa" fill-opacity="0.501961" points="107,58 85,39 84,52" />
<polygon fill="#769e91" fill-opacity="0.501961" points="55,82 66,85 69,82" />
<polygon fill="#223324" fill-opacity="0.501961" points="50,84 38,95 52,92" />
<polygon fill="#528d84" fill-opacity="0.501961" points="128,76 135,76 130,78" />
<polygon fill="#324334" fill-opacity="0.501961" points="13,134 -16,174 -6,144" />
<polygon fill="#b7d3c8" fill-opacity="0.501961" points="29,74 23,70 12,72" />
<polygon fill="#3b4c3b" fill-opacity="0.501961" points="101,136 74,158 102,146" />
<polygon fill="#b58f44" fill-opacity="0.501961" points="125,113 125,109 123,109" />
<polygon fill="#06928c" fill-opacity="0.501961" points="184,58 194,68 220,68" />
<polygon fill="#2d3b2e" fill-opacity="0.501961" points="33,98 13,111 -7,111" />
<polygon fill="#263229" fill-opacity="0.501961" points="210,118 250,116 174,94" />
<polygon fill="#9cc9bd" fill-opacity="0.501961" points="122,69 135,69 126,77" />
<polygon fill="#586a52" fill-opacity="0.501961" points="106,111 119,87 123,98" />
<polygon fill="#2a3a25" fill-opacity="0.501961" points="18,108 11,89 23,99" />
<polygon fill="#7fb2a8" fill-opacity="0.501961" points="57,82 51,81 51,84" />
<polygon fill="#adab7f" fill-opacity="0.501961" points="1,115 11,114 7,118" />
<polygon fill="#334234" fill-opacity="0.501961" points="127,114 124,126 128,129" />
<polygon fill="#5a684e" fill-opacity="0.501961" points="60,103 40,102 35,109" />
<polygon fill="#009692" fill-opacity="0.501961" points="159,50 129,53 189,66" />
<polygon fill="#008a8b" fill-opacity="0.501961" points="84,-10 98,22 131,40" />
<polygon fill="#2a3d27" fill-opacity="0.501961" points="232,101 246,103 257,94" />
<polygon fill="#223423" fill-opacity="0.501961" points="35,88 41,100 30,88" />
<polygon fill="#706e4a" fill-opacity="0.501961" points="210,119 206,120 204,116" />
<polygon fill="#2d3f26" fill-opacity="0.501961" points="222,100 216,96 221,84" />
<polygon fill="#39a6a0" fill-opacity="0.501961" points="27,41 -7,53 11,52" />
<polygon fill="#4c5a44" fill-opacity="0.501961" points="59,105 72,104 61,108" />
<polygon fill="#868f6d" fill-opacity="0.501961" points="80,97 91,91 83,91" />
<polygon fill="#284022" fill-opacity="0.501961" points="168,84 177,90 157,84" />
<polygon fill="#224641" fill-opacity="0.501961" points="221,79 232,83 211,83" />
<polygon fill="#597859" fill-opacity="0.501961" points="41,88 41,90 44,86" />
<polygon fill="#27847d" fill-opacity="0.501961" points="243,70 257,70 271,82" />
<polygon fill="#1f9e98" fill-opacity="0.501961" points="-16,57 -16,47 16,44" />
<polygon fill="#acc3b7" fill-opacity="0.501961" points="6,84 7,79 10,79" />
<polygon fill="#5d8b82" fill-opacity="0.501961" points="225,75 236,80 217,79" />
<polygon fill="#2c3e32" fill-opacity="0.501961" points="210,121 190,113 188,129" />
<polygon fill="#0f2426" fill-opacity="0.501961" points="90,86 88,87 86,84" />
<polygon fill="#2f4339" fill-opacity="0.501961" points="17,92 12,94 19,79" />
<polygon fill="#98cdc3" fill-opacity="0.501961" points="93,71 51,67 73,63" />
<polygon fill="#22342b" fill-opacity="0.501961" points="219,122 200,113 205,107" />
</g>
</svg>