<svg xmlns="http://www.w3.org/2000/svg" version="1.1" width="1024" height="768">
<rect x="0" y="0" width="1024" height="768" fill="#726c61" />
<g transform="scale(4.000000) translate(0.5 0.5)">
<polygon fill="#ffffff" fill-opacity="0.501961" points="22,-16 -16,85 271,51" />
<polygon fill="#000000" fill-opacity="0.501961" points="-16,128 251,207 271,64" />
<polygon fill="#fff3b9" fill-opacity="0.501961" points="-16,73 225,-16 271,79" />
<polygon fill="#050912" fill-opacity="0.501961" points="271,112 -7,200 -4,69" />
<polygon fill="#f7ead5" fill-opacity="0.501961" points="189,-16 -16,17 143,79" />
<polygon fill="#8c7e73" fill-opacity="0.501961" points="147,123 73,117 219,85" />
<polygon fill="#000511" fill-opacity="0.501961" points="214,161 -16,175 2,114" />
<polygon fill="#ffa83b" fill-opacity="0.501961" points="122,82 -16,74 42,55" />
<polygon fill="#aabbc8" fill-opacity="0.501961" points="266,-10 125,39 271,64" />
<polygon fill="#361806" fill-opacity="0.501961" points="208,75 120,117 82,86" />
<polygon fill="#ffb850" fill-opacity="0.501961" points="234,78 157,54 92,80" />
<polygon fill="#e5862d" fill-opacity="0.501961" points="115,167 40,178 117,187" />
<polygon fill="#6c7175" fill-opacity="0.501961" points="6,112 40,90 113,118" />
<polygon fill="#000000" fill-opacity="0.501961" points="201,97 271,131 271,71" />
<polygon fill="#5e4942" fill-opacity="0.501961" points="141,168 35,207 260,192" />
<polygon fill="#b5c4c8" fill-opacity="0.501961" points="77,47 -16,44 -5,-16" />
<polygon fill="#7d8493" fill-opacity="0.501961" points="220,-16 138,13 271,16" />
<polygon fill="#f5e8cd" fill-opacity="0.501961" points="207,19 39,9 130,74" />
<polygon fill="#624d45" fill-opacity="0.501961" points="-16,193 63,170 142,190" />
<polygon fill="#9c3900" fill-opacity="0.501961" points="126,88 79,86 121,71" />
<polygon fill="#000409" fill-opacity="0.501961" points="151,128 185,174 83,164" />
<polygon fill="#0e0000" fill-opacity="0.501961" points="39,91 51,71 60,84" />
<polygon fill="#1a2c3c" fill-opacity="0.501961" points="169,172 155,93 271,190" />
<polygon fill="#bbc0b8" fill-opacity="0.501961" points="271,19 236,66 99,35" />
<polygon fill="#ffefa6" fill-opacity="0.501961" points="121,42 106,78 29,60" />
<polygon fill="#8c5c49" fill-opacity="0.501961" points="190,77 257,84 243,68" />
<polygon fill="#be9067" fill-opacity="0.501961" points="146,181 123,169 159,172" />
<polygon fill="#88877f" fill-opacity="0.501961" points="170,93 213,102 162,106" />
<polygon fill="#ff9e27" fill-opacity="0.501961" points="114,189 117,169 85,170" />
<polygon fill="#030000" fill-opacity="0.501961" points="16,75 12,92 36,93" />
<polygon fill="#fad387" fill-opacity="0.501961" points="128,45 248,68 131,77" />
<polygon fill="#2b333a" fill-opacity="0.501961" points="233,189 112,180 141,207" />
<polygon fill="#ffffff" fill-opacity="0.501961" points="111,53 88,71 136,68" />
<polygon fill="#a9a8ab" fill-opacity="0.501961" points="60,4 217,22 173,-16" />
<polygon fill="#3d4f5c" fill-opacity="0.501961" points="188,164 247,156 270,111" />
<polygon fill="#000000" fill-opacity="0.501961" points="-16,98 -8,114 27,103" />
<polygon fill="#907a70" fill-opacity="0.501961" points="135,122 123,109 166,103" />
<polygon fill="#f79605" fill-opacity="0.501961" points="107,63 117,80 111,86" />
<polygon fill="#000a13" fill-opacity="0.501961" points="209,147 171,115 271,87" />
<polygon fill="#ddbd8e" fill-opacity="0.501961" points="-8,78 -10,49 86,55" />
<polygon fill="#1e170e" fill-opacity="0.501961" points="122,77 98,110 156,103" />
<polygon fill="#9e613e" fill-opacity="0.501961" points="66,88 94,81 52,78" />
<polygon fill="#182531" fill-opacity="0.501961" points="100,162 78,128 -16,189" />
<polygon fill="#fffbeb" fill-opacity="0.501961" points="169,18 217,28 182,30" />
<polygon fill="#06080c" fill-opacity="0.501961" points="191,74 182,89 196,87" />
<polygon fill="#272d36" fill-opacity="0.501961" points="25,189 83,184 100,206" />
<polygon fill="#916951" fill-opacity="0.501961" points="84,170 122,190 29,179" />
<polygon fill="#8aa7c2" fill-opacity="0.501961" points="-8,18 74,-1 -7,-11" />
<polygon fill="#000000" fill-opacity="0.501961" points="268,90 271,125 198,90" />
<polygon fill="#696b72" fill-opacity="0.501961" points="32,105 0,97 38,90" />
<polygon fill="#080a09" fill-opacity="0.501961" points="2,150 -13,116 86,116" />
<polygon fill="#5a5a58" fill-opacity="0.501961" points="237,185 148,171 166,193" />
<polygon fill="#bfb693" fill-opacity="0.501961" points="264,69 271,38 156,59" />
<polygon fill="#3b4449" fill-opacity="0.501961" points="162,115 198,165 145,122" />
<polygon fill="#fbf0dc" fill-opacity="0.501961" points="158,34 95,9 23,24" />
<polygon fill="#334552" fill-opacity="0.501961" points="271,159 220,117 253,120" />
<polygon fill="#54585c" fill-opacity="0.501961" points="86,117 4,113 60,85" />
<polygon fill="#9ab2b7" fill-opacity="0.501961" points="256,57 179,28 256,28" />
<polygon fill="#c7c5bb" fill-opacity="0.501961" points="38,62 -16,24 108,32" />
<polygon fill="#e0ddcc" fill-opacity="0.501961" points="213,31 216,18 261,22" />
<polygon fill="#ffffff" fill-opacity="0.501961" points="97,72 103,74 113,55" />
<polygon fill="#ffda6f" fill-opacity="0.501961" points="94,78 90,55 44,69" />
<polygon fill="#141c1c" fill-opacity="0.501961" points="104,110 164,102 175,80" />
<polygon fill="#060000" fill-opacity="0.501961" points="24,94 19,71 14,94" />
<polygon fill="#0d1e2c" fill-opacity="0.501961" points="239,153 257,195 271,136" />
<polygon fill="#0c0000" fill-opacity="0.501961" points="111,95 118,119 126,80" />
<polygon fill="#c18a68" fill-opacity="0.501961" points="23,80 37,70 50,80" />
<polygon fill="#a34812" fill-opacity="0.501961" points="133,85 150,79 115,80" />
<polygon fill="#686765" fill-opacity="0.501961" points="9,185 59,173 72,187" />
<polygon fill="#985128" fill-opacity="0.501961" points="112,207 80,178 119,180" />
<polygon fill="#26211e" fill-opacity="0.501961" points="76,110 82,79 112,108" />
<polygon fill="#7e837f" fill-opacity="0.501961" points="179,-16 232,18 271,9" />
<polygon fill="#83827c" fill-opacity="0.501961" points="173,95 185,100 207,86" />
<polygon fill="#cb9156" fill-opacity="0.501961" points="241,61 266,75 192,76" />
<polygon fill="#f3d7b3" fill-opacity="0.501961" points="135,37 62,46 193,65" />
<polygon fill="#aa6f55" fill-opacity="0.501961" points="169,81 151,75 191,75" />
<polygon fill="#ffffab" fill-opacity="0.501961" points="128,76 144,72 122,47" />
<polygon fill="#010000" fill-opacity="0.501961" points="52,71 58,90 50,78" />
<polygon fill="#806a5e" fill-opacity="0.501961" points="126,109 161,120 116,121" />
<polygon fill="#141314" fill-opacity="0.501961" points="88,131 150,120 189,174" />
<polygon fill="#1b2935" fill-opacity="0.501961" points="72,164 -16,150 -14,193" />
<polygon fill="#ffffff" fill-opacity="0.501961" points="102,64 115,55 133,71" />
<polygon fill="#602207" fill-opacity="0.501961" points="93,88 96,72 98,87" />
<polygon fill="#ebab5e" fill-opacity="0.501961" points="-16,74 54,75 -16,55" />
<polygon fill="#c86d18" fill-opacity="0.501961" points="102,80 112,92 120,70" />
<polygon fill="#46382e" fill-opacity="0.501961" points="127,83 121,102 177,85" />
<polygon fill="#fedb45" fill-opacity="0.501961" points="104,173 119,168 96,168" />
<polygon fill="#323536" fill-opacity="0.501961" points="271,93 271,71 218,86" />
<polygon fill="#5d6362" fill-opacity="0.501961" points="229,139 265,140 230,150" />
<polygon fill="#221a13" fill-opacity="0.501961" points="58,85 -2,81 20,93" />
<polygon fill="#76665e" fill-opacity="0.501961" points="117,121 113,109 72,112" />
<polygon fill="#e1cbb1" fill-opacity="0.501961" points="148,17 114,5 76,24" />
<polygon fill="#1b2228" fill-opacity="0.501961" points="214,152 151,110 176,106" />
<polygon fill="#ffc45c" fill-opacity="0.501961" points="153,65 122,79 194,73" />
<polygon fill="#a6a7a6" fill-opacity="0.501961" points="210,15 156,-16 52,5" />
<polygon fill="#a8b5b6" fill-opacity="0.501961" points="27,33 -16,50 6,6" />
<polygon fill="#040709" fill-opacity="0.501961" points="128,130 114,164 160,172" />
<polygon fill="#fffae6" fill-opacity="0.501961" points="137,16 103,27 174,25" />
<polygon fill="#ffdf53" fill-opacity="0.501961" points="111,77 114,80 105,82" />
<polygon fill="#7c6555" fill-opacity="0.501961" points="197,179 142,170 138,185" />
<polygon fill="#3a4045" fill-opacity="0.501961" points="167,177 116,207 256,189" />
<polygon fill="#8e948f" fill-opacity="0.501961" points="12,110 -11,113 1,115" />
<polygon fill="#000000" fill-opacity="0.501961" points="15,80 23,87 18,73" />
<polygon fill="#655953" fill-opacity="0.501961" points="35,89 22,88 38,84" />
<polygon fill="#23303b" fill-opacity="0.501961" points="256,121 185,147 179,176" />
<polygon fill="#1a1e22" fill-opacity="0.501961" points="114,167 86,119 51,172" />
<polygon fill="#000008" fill-opacity="0.501961" points="-1,100 -4,113 22,102" />
<polygon fill="#ef9302" fill-opacity="0.501961" points="109,76 106,70 124,71" />
<polygon fill="#000911" fill-opacity="0.501961" points="190,97 198,95 205,100" />
<polygon fill="#d7cdc1" fill-opacity="0.501961" points="90,17 10,23 42,3" />
<polygon fill="#090b0c" fill-opacity="0.501961" points="0,115 52,115 -14,145" />
<polygon fill="#ffffee" fill-opacity="0.501961" points="106,59 88,67 108,76" />
<polygon fill="#686c72" fill-opacity="0.501961" points="3,92 -15,100 24,100" />
<polygon fill="#8d6e5d" fill-opacity="0.501961" points="248,80 214,79 268,65" />
<polygon fill="#827d79" fill-opacity="0.501961" points="220,86 198,89 207,84" />
<polygon fill="#5f3c2b" fill-opacity="0.501961" points="120,84 79,87 109,94" />
<polygon fill="#b2836c" fill-opacity="0.501961" points="56,81 55,75 70,75" />
<polygon fill="#030000" fill-opacity="0.501961" points="39,92 48,88 40,78" />
<polygon fill="#414342" fill-opacity="0.501961" points="88,106 39,91 50,109" />
<polygon fill="#7a2e00" fill-opacity="0.501961" points="111,76 133,90 121,73" />
<polygon fill="#3e2a25" fill-opacity="0.501961" points="156,121 125,121 137,136" />
<polygon fill="#636565" fill-opacity="0.501961" points="175,88 207,94 190,96" />
<polygon fill="#bfc5c5" fill-opacity="0.501961" points="198,52 125,25 213,33" />
<polygon fill="#fff6a6" fill-opacity="0.501961" points="102,53 73,54 93,75" />
<polygon fill="#272624" fill-opacity="0.501961" points="255,90 203,84 233,79" />
<polygon fill="#fdfff2" fill-opacity="0.501961" points="141,32 112,22 90,29" />
<polygon fill="#35414a" fill-opacity="0.501961" points="216,111 247,143 246,128" />
<polygon fill="#464547" fill-opacity="0.501961" points="91,207 87,183 5,187" />
<polygon fill="#e0ceb1" fill-opacity="0.501961" points="104,40 8,48 54,61" />
<polygon fill="#2f2420" fill-opacity="0.501961" points="190,74 185,84 197,83" />
<polygon fill="#343d44" fill-opacity="0.501961" points="257,147 224,173 176,149" />
<polygon fill="#d8ccba" fill-opacity="0.501961" points="212,52 160,58 108,30" />
<polygon fill="#866653" fill-opacity="0.501961" points="213,76 195,80 225,82" />
<polygon fill="#f5e8d0" fill-opacity="0.501961" points="215,24 185,22 211,31" />
<polygon fill="#ffee88" fill-opacity="0.501961" points="137,75 164,66 135,58" />
<polygon fill="#a37f5d" fill-opacity="0.501961" points="53,174 76,171 63,177" />
<polygon fill="#d1b982" fill-opacity="0.501961" points="269,68 240,56 194,69" />
<polygon fill="#d2bf90" fill-opacity="0.501961" points="14,69 -16,58 52,57" />
<polygon fill="#7d5133" fill-opacity="0.501961" points="124,168 116,168 117,196" />
<polygon fill="#0e0f0e" fill-opacity="0.501961" points="168,91 136,104 160,103" />
<polygon fill="#726b5d" fill-opacity="0.501961" points="158,109 178,101 170,91" />
<polygon fill="#fffffb" fill-opacity="0.501961" points="98,68 95,75 108,74" />
<polygon fill="#ffffb7" fill-opacity="0.501961" points="99,51 121,47 132,63" />
<polygon fill="#1f2529" fill-opacity="0.501961" points="156,95 180,80 180,89" />
<polygon fill="#c59671" fill-opacity="0.501961" points="72,86 64,84 77,83" />
<polygon fill="#3e484c" fill-opacity="0.501961" points="222,116 207,99 217,105" />
<polygon fill="#fb9f30" fill-opacity="0.501961" points="99,179 102,170 119,179" />
<polygon fill="#050000" fill-opacity="0.501961" points="113,108 119,85 121,115" />
<polygon fill="#838583" fill-opacity="0.501961" points="22,107 25,100 36,101" />
<polygon fill="#fffadf" fill-opacity="0.501961" points="54,22 80,19 108,34" />
<polygon fill="#ffac47" fill-opacity="0.501961" points="146,75 125,75 129,80" />
<polygon fill="#866057" fill-opacity="0.501961" points="20,76 29,76 21,81" />
<polygon fill="#8f6e57" fill-opacity="0.501961" points="143,182 119,169 162,174" />
<polygon fill="#a29d9a" fill-opacity="0.501961" points="176,4 127,16 125,2" />
<polygon fill="#4e5a5a" fill-opacity="0.501961" points="167,138 147,111 155,107" />
<polygon fill="#978a76" fill-opacity="0.501961" points="169,93 181,100 189,93" />
<polygon fill="#cdbfab" fill-opacity="0.501961" points="177,9 149,15 206,24" />
<polygon fill="#615e58" fill-opacity="0.501961" points="71,115 50,114 65,85" />
<polygon fill="#7a4e37" fill-opacity="0.501961" points="159,80 137,90 128,82" />
<polygon fill="#1a232c" fill-opacity="0.501961" points="162,172 182,156 236,184" />
<polygon fill="#98acac" fill-opacity="0.501961" points="256,53 271,28 227,26" />
<polygon fill="#d89361" fill-opacity="0.501961" points="93,80 75,74 62,80" />
<polygon fill="#bca192" fill-opacity="0.501961" points="48,76 48,80 45,78" />
<polygon fill="#222528" fill-opacity="0.501961" points="87,119 129,122 52,154" />
<polygon fill="#b2bdc3" fill-opacity="0.501961" points="71,27 26,40 11,27" />
<polygon fill="#101419" fill-opacity="0.501961" points="56,152 -16,142 79,121" />
<polygon fill="#977565" fill-opacity="0.501961" points="1,81 14,77 -16,74" />
<polygon fill="#ffffff" fill-opacity="0.501961" points="123,65 109,60 114,71" />
<polygon fill="#e57e00" fill-opacity="0.501961" points="114,78 106,69 110,68" />
<polygon fill="#2f3337" fill-opacity="0.501961" points="117,207 120,180 166,207" />
<polygon fill="#121d29" fill-opacity="0.501961" points="220,121 186,143 241,134" />
<polygon fill="#fbcfa2" fill-opacity="0.501961" points="85,62 42,63 96,46" />
<polygon fill="#000305" fill-opacity="0.501961" points="271,120 224,114 209,90" />
<polygon fill="#e6a262" fill-opacity="0.501961" points="212,65 180,73 215,76" />
<polygon fill="#080907" fill-opacity="0.501961" points="260,86 251,85 254,77" />
<polygon fill="#000000" fill-opacity="0.501961" points="193,83 192,76 190,80" />
<polygon fill="#fff1d6" fill-opacity="0.501961" points="94,10 99,16 120,12" />
<polygon fill="#7f807e" fill-opacity="0.501961" points="39,108 44,101 52,101" />
<polygon fill="#adbcbc" fill-opacity="0.501961" points="231,54 171,30 232,29" />
<polygon fill="#ffb654" fill-opacity="0.501961" points="48,75 36,72 52,69" />
<polygon fill="#494943" fill-opacity="0.501961" points="69,87 75,110 84,84" />
<polygon fill="#37424f" fill-opacity="0.501961" points="12,113 37,104 41,113" />
<polygon fill="#bebcb0" fill-opacity="0.501961" points="208,11 196,6 194,21" />
<polygon fill="#fef7e2" fill-opacity="0.501961" points="152,19 188,24 159,28" />
<polygon fill="#92a5b2" fill-opacity="0.501961" points="31,12 38,-9 -5,9" />
<polygon fill="#555658" fill-opacity="0.501961" points="192,94 202,88 182,88" />
<polygon fill="#423127" fill-opacity="0.501961" points="93,92 72,95 106,78" />
<polygon fill="#14191e" fill-opacity="0.501961" points="212,103 180,128 171,106" />
<polygon fill="#343f50" fill-opacity="0.501961" points="54,102 58,87 40,101" />
<polygon fill="#c3c5b4" fill-opacity="0.501961" points="239,15 241,25 271,28" />
<polygon fill="#060e18" fill-opacity="0.501961" points="159,142 176,174 139,168" />
<polygon fill="#6a5f5a" fill-opacity="0.501961" points="63,188 28,181 80,174" />
<polygon fill="#98401c" fill-opacity="0.501961" points="127,72 122,73 124,71" />
<polygon fill="#d2bca5" fill-opacity="0.501961" points="87,9 105,4 123,12" />
<polygon fill="#282626" fill-opacity="0.501961" points="149,84 182,91 141,95" />
<polygon fill="#dfc9ae" fill-opacity="0.501961" points="154,15 132,20 132,9" />
<polygon fill="#7e6358" fill-opacity="0.501961" points="47,75 33,77 49,81" />
<polygon fill="#1e2832" fill-opacity="0.501961" points="60,170 -8,190 -16,151" />
<polygon fill="#d5854d" fill-opacity="0.501961" points="143,75 161,80 134,80" />
<polygon fill="#ae7e52" fill-opacity="0.501961" points="88,170 76,176 64,173" />
<polygon fill="#8f6857" fill-opacity="0.501961" points="134,115 111,119 140,122" />
<polygon fill="#fd8a27" fill-opacity="0.501961" points="116,80 105,82 112,83" />
<polygon fill="#1c1a18" fill-opacity="0.501961" points="86,92 84,110 107,109" />
<polygon fill="#000000" fill-opacity="0.501961" points="70,93 66,94 67,88" />
<polygon fill="#f6e9d4" fill-opacity="0.501961" points="17,23 67,26 43,17" />
<polygon fill="#967e6b" fill-opacity="0.501961" points="42,177 55,179 59,174" />
<polygon fill="#393734" fill-opacity="0.501961" points="-9,78 22,88 2,89" />
<polygon fill="#343133" fill-opacity="0.501961" points="57,190 81,183 82,207" />
<polygon fill="#5f8aab" fill-opacity="0.501961" points="271,10 236,-16 246,2" />
<polygon fill="#febd5f" fill-opacity="0.501961" points="79,72 51,64 55,75" />
<polygon fill="#3f1904" fill-opacity="0.501961" points="115,79 129,84 121,88" />
<polygon fill="#fcfffd" fill-opacity="0.501961" points="127,60 128,72 113,60" />
<polygon fill="#6d6866" fill-opacity="0.501961" points="62,114 92,117 79,109" />
<polygon fill="#4d5258" fill-opacity="0.501961" points="193,105 179,104 191,96" />
<polygon fill="#0d0803" fill-opacity="0.501961" points="44,84 61,85 35,91" />
<polygon fill="#504b4f" fill-opacity="0.501961" points="132,119 119,119 123,110" />
<polygon fill="#a2b0c1" fill-opacity="0.501961" points="18,6 125,-1 82,-16" />
<polygon fill="#dc6a00" fill-opacity="0.501961" points="118,77 121,71 108,76" />
<polygon fill="#1b262e" fill-opacity="0.501961" points="256,146 271,191 227,181" />
<polygon fill="#929dad" fill-opacity="0.501961" points="141,5 204,-16 205,2" />
<polygon fill="#111315" fill-opacity="0.501961" points="118,122 128,161 82,168" />
<polygon fill="#4d5050" fill-opacity="0.501961" points="58,181 55,207 -16,191" />
<polygon fill="#eec892" fill-opacity="0.501961" points="201,63 156,69 151,55" />
<polygon fill="#4c5a66" fill-opacity="0.501961" points="268,85 251,88 269,98" />
<polygon fill="#d6c6b4" fill-opacity="0.501961" points="106,23 82,18 104,16" />
<polygon fill="#362c23" fill-opacity="0.501961" points="115,107 79,89 113,94" />
<polygon fill="#211d17" fill-opacity="0.501961" points="180,88 174,79 197,86" />
<polygon fill="#eed6c4" fill-opacity="0.501961" points="157,54 84,33 119,30" />
<polygon fill="#bbbcb8" fill-opacity="0.501961" points="14,22 5,11 45,12" />
<polygon fill="#9d7c66" fill-opacity="0.501961" points="193,75 194,81 212,75" />
<polygon fill="#fef57a" fill-opacity="0.501961" points="88,63 91,75 74,75" />
<polygon fill="#2c2f35" fill-opacity="0.501961" points="76,117 96,126 112,121" />
<polygon fill="#0f1010" fill-opacity="0.501961" points="-16,114 69,118 68,141" />
<polygon fill="#4d5158" fill-opacity="0.501961" points="30,94 10,99 -6,92" />
<polygon fill="#b4b69b" fill-opacity="0.501961" points="271,44 244,65 223,52" />
<polygon fill="#2b343b" fill-opacity="0.501961" points="156,136 160,109 218,181" />
<polygon fill="#1a0e07" fill-opacity="0.501961" points="55,81 45,92 52,71" />
<polygon fill="#f7c987" fill-opacity="0.501961" points="84,63 52,71 50,61" />
<polygon fill="#969692" fill-opacity="0.501961" points="189,-7 255,19 217,15" />
<polygon fill="#bfc2ad" fill-opacity="0.501961" points="38,51 0,38 1,55" />
<polygon fill="#e9dfd4" fill-opacity="0.501961" points="145,34 117,26 156,25" />
<polygon fill="#d7934a" fill-opacity="0.501961" points="138,172 131,170 144,170" />
<polygon fill="#312e20" fill-opacity="0.501961" points="152,90 121,109 123,90" />
<polygon fill="#151b1f" fill-opacity="0.501961" points="178,155 148,122 142,134" />
<polygon fill="#a16136" fill-opacity="0.501961" points="117,179 115,189 79,181" />
<polygon fill="#cac4a8" fill-opacity="0.501961" points="229,62 165,56 201,43" />
<polygon fill="#3d332e" fill-opacity="0.501961" points="55,80 51,89 63,80" />
<polygon fill="#ffb462" fill-opacity="0.501961" points="21,74 48,67 38,75" />
<polygon fill="#77553f" fill-opacity="0.501961" points="97,181 83,177 89,189" />
<polygon fill="#494c4d" fill-opacity="0.501961" points="60,98 48,111 108,116" />
<polygon fill="#1d252f" fill-opacity="0.501961" points="85,169 -16,182 81,137" />
<polygon fill="#be865d" fill-opacity="0.501961" points="176,75 149,75 162,80" />
<polygon fill="#fbebd4" fill-opacity="0.501961" points="80,11 84,17 59,15" />
<polygon fill="#97847d" fill-opacity="0.501961" points="25,79 39,78 33,81" />
<polygon fill="#fdffb3" fill-opacity="0.501961" points="135,72 135,61 126,75" />
<polygon fill="#23282d" fill-opacity="0.501961" points="229,82 216,89 242,90" />
<polygon fill="#9c6d48" fill-opacity="0.501961" points="230,70 257,71 244,75" />
<polygon fill="#414957" fill-opacity="0.501961" points="64,89 34,104 51,87" />
<polygon fill="#767169" fill-opacity="0.501961" points="155,117 138,121 147,112" />
<polygon fill="#563d32" fill-opacity="0.501961" points="132,83 142,87 121,93" />
<polygon fill="#5b493c" fill-opacity="0.501961" points="202,79 194,81 195,86" />
<polygon fill="#0a1115" fill-opacity="0.501961" points="0,101 25,103 -11,115" />
<polygon fill="#3d2925" fill-opacity="0.501961" points="141,121 142,137 128,121" />
<polygon fill="#fba052" fill-opacity="0.501961" points="81,75 93,75 92,79" />
<polygon fill="#161310" fill-opacity="0.501961" points="166,97 136,93 149,105" />
<polygon fill="#bf6823" fill-opacity="0.501961" points="128,79 131,84 141,79" />
<polygon fill="#6b655a" fill-opacity="0.501961" points="201,179 209,184 220,183" />
<polygon fill="#5b6874" fill-opacity="0.501961" points="18,111 7,114 24,114" />
<polygon fill="#a8a59b" fill-opacity="0.501961" points="217,17 220,8 201,22" />
<polygon fill="#763e1c" fill-opacity="0.501961" points="75,81 97,80 101,87" />
<polygon fill="#dac7b2" fill-opacity="0.501961" points="62,7 92,6 80,13" />
<polygon fill="#fcffc0" fill-opacity="0.501961" points="100,54 112,53 90,68" />
<polygon fill="#94928a" fill-opacity="0.501961" points="43,104 38,106 43,108" />
<polygon fill="#000000" fill-opacity="0.501961" points="115,115 115,107 120,117" />
<polygon fill="#000000" fill-opacity="0.501961" points="52,84 57,87 60,86" />
<polygon fill="#200d02" fill-opacity="0.501961" points="192,78 189,74 190,86" />
<polygon fill="#a2745a" fill-opacity="0.501961" points="183,77 180,81 183,81" />
<polygon fill="#ffcd74" fill-opacity="0.501961" points="159,63 141,75 181,69" />
<polygon fill="#6b696d" fill-opacity="0.501961" points="63,110 79,115 51,115" />
<polygon fill="#4b4a45" fill-opacity="0.501961" points="260,199 225,184 255,188" />
<polygon fill="#c6c9c6" fill-opacity="0.501961" points="82,33 26,48 63,26" />
<polygon fill="#d4cdc2" fill-opacity="0.501961" points="43,6 19,26 67,10" />
<polygon fill="#eee6d3" fill-opacity="0.501961" points="219,24 226,30 212,26" />
<polygon fill="#fcffff" fill-opacity="0.501961" points="96,71 117,61 105,58" />
<polygon fill="#ffce3a" fill-opacity="0.501961" points="115,169 101,169 111,173" />
<polygon fill="#886853" fill-opacity="0.501961" points="142,85 142,89 148,83" />
<polygon fill="#928a80" fill-opacity="0.501961" points="219,85 214,87 208,85" />
<polygon fill="#15222e" fill-opacity="0.501961" points="228,117 271,117 264,127" />
<polygon fill="#d57524" fill-opacity="0.501961" points="100,82 104,83 96,74" />
<polygon fill="#333034" fill-opacity="0.501961" points="141,185 186,207 215,198" />
<polygon fill="#695c58" fill-opacity="0.501961" points="121,109 121,118 137,107" />
<polygon fill="#4f3e30" fill-opacity="0.501961" points="230,85 209,81 227,79" />
<polygon fill="#645d58" fill-opacity="0.501961" points="132,172 142,184 121,176" />
<polygon fill="#654638" fill-opacity="0.501961" points="140,183 173,207 138,207" />
<polygon fill="#191a1a" fill-opacity="0.501961" points="232,79 235,89 242,88" />
<polygon fill="#150c07" fill-opacity="0.501961" points="48,91 54,75 55,83" />
<polygon fill="#cd8144" fill-opacity="0.501961" points="78,180 88,182 84,183" />
<polygon fill="#c68d5e" fill-opacity="0.501961" points="239,72 253,76 227,76" />
<polygon fill="#7c8282" fill-opacity="0.501961" points="219,6 271,14 238,-3" />
<polygon fill="#44220e" fill-opacity="0.501961" points="44,83 44,78 48,83" />
<polygon fill="#64605f" fill-opacity="0.501961" points="21,97 49,90 34,102" />
<polygon fill="#344046" fill-opacity="0.501961" points="246,141 221,116 267,132" />
<polygon fill="#73665f" fill-opacity="0.501961" points="101,115 85,110 115,110" />
<polygon fill="#fbe4c1" fill-opacity="0.501961" points="133,15 115,22 154,19" />
<polygon fill="#313a41" fill-opacity="0.501961" points="211,172 161,137 241,166" />
<polygon fill="#967059" fill-opacity="0.501961" points="175,80 179,76 189,80" />
<polygon fill="#070a0c" fill-opacity="0.501961" points="137,132 157,168 115,168" />
<polygon fill="#8a6d5a" fill-opacity="0.501961" points="170,179 163,174 181,177" />
<polygon fill="#fee1b5" fill-opacity="0.501961" points="81,48 117,41 148,55" />
<polygon fill="#d6cfc8" fill-opacity="0.501961" points="155,45 162,32 109,32" />
<polygon fill="#afaa9f" fill-opacity="0.501961" points="191,15 145,12 186,3" />
<polygon fill="#e7d9c5" fill-opacity="0.501961" points="176,10 173,22 159,24" />
<polygon fill="#b0b0a6" fill-opacity="0.501961" points="233,23 235,17 218,23" />
<polygon fill="#ffd30c" fill-opacity="0.501961" points="109,67 116,74 107,69" />
<polygon fill="#383430" fill-opacity="0.501961" points="98,84 77,86 77,99" />
<polygon fill="#151b23" fill-opacity="0.501961" points="-16,146 61,137 48,156" />
<polygon fill="#fffce5" fill-opacity="0.501961" points="103,12 80,13 91,16" />
<polygon fill="#614438" fill-opacity="0.501961" points="104,196 85,184 59,207" />
<polygon fill="#040807" fill-opacity="0.501961" points="248,90 202,90 271,117" />
<polygon fill="#70706c" fill-opacity="0.501961" points="185,97 172,93 199,92" />
<polygon fill="#150400" fill-opacity="0.501961" points="28,81 17,85 30,87" />
<polygon fill="#0d1118" fill-opacity="0.501961" points="224,131 214,103 181,125" />
<polygon fill="#a2b5ba" fill-opacity="0.501961" points="204,29 240,40 237,29" />
<polygon fill="#af8a71" fill-opacity="0.501961" points="55,80 67,78 56,75" />
<polygon fill="#434a51" fill-opacity="0.501961" points="217,102 205,103 205,99" />
<polygon fill="#505759" fill-opacity="0.501961" points="226,140 222,149 255,143" />
<polygon fill="#fffffd" fill-opacity="0.501961" points="110,59 129,65 112,71" />
<polygon fill="#4e3d32" fill-opacity="0.501961" points="39,87 20,81 36,80" />
<polygon fill="#393c3f" fill-opacity="0.501961" points="168,86 180,89 156,90" />
<polygon fill="#764b2e" fill-opacity="0.501961" points="149,79 165,80 139,87" />
<polygon fill="#0a0b0c" fill-opacity="0.501961" points="209,95 255,92 222,107" />
<polygon fill="#2b0e00" fill-opacity="0.501961" points="111,98 118,83 127,86" />
<polygon fill="#55240d" fill-opacity="0.501961" points="70,82 76,83 69,79" />
<polygon fill="#583929" fill-opacity="0.501961" points="133,82 125,89 147,84" />
<polygon fill="#202b34" fill-opacity="0.501961" points="9,185 58,157 -16,165" />
<polygon fill="#f3be49" fill-opacity="0.501961" points="98,80 105,77 97,75" />
<polygon fill="#1e2225" fill-opacity="0.501961" points="212,98 205,94 192,97" />
<polygon fill="#b9bfb2" fill-opacity="0.501961" points="214,38 193,52 244,53" />
<polygon fill="#cec2b6" fill-opacity="0.501961" points="70,21 79,16 65,16" />
<polygon fill="#7e7163" fill-opacity="0.501961" points="24,182 36,183 38,179" />
<polygon fill="#d9bd8c" fill-opacity="0.501961" points="202,70 173,62 231,58" />
<polygon fill="#fefff2" fill-opacity="0.501961" points="139,25 130,21 120,26" />
<polygon fill="#767571" fill-opacity="0.501961" points="158,105 164,102 175,106" />
<polygon fill="#6c3416" fill-opacity="0.501961" points="128,81 110,90 123,77" />
<polygon fill="#d9c8a1" fill-opacity="0.501961" points="59,54 28,62 9,53" />
<polygon fill="#1b232a" fill-opacity="0.501961" points="170,133 168,108 204,146" />
<polygon fill="#47423b" fill-opacity="0.501961" points="257,79 247,85 235,84" />
<polygon fill="#a34a0f" fill-opacity="0.501961" points="98,80 105,80 111,76" />
<polygon fill="#37414c" fill-opacity="0.501961" points="11,113 25,113 28,106" />
<polygon fill="#767363" fill-opacity="0.501961" points="250,142 262,142 270,129" />
<polygon fill="#14191d" fill-opacity="0.501961" points="205,95 207,100 193,95" />
<polygon fill="#c2c7c8" fill-opacity="0.501961" points="199,36 151,26 155,42" />
<polygon fill="#938378" fill-opacity="0.501961" points="214,79 231,79 225,75" />
<polygon fill="#3f3c3a" fill-opacity="0.501961" points="190,84 189,78 183,84" />
<polygon fill="#505050" fill-opacity="0.501961" points="147,111 148,107 137,109" />
<polygon fill="#74554d" fill-opacity="0.501961" points="138,118 118,117 142,107" />
<polygon fill="#1a1c1b" fill-opacity="0.501961" points="50,79 49,76 51,77" />
<polygon fill="#595c5c" fill-opacity="0.501961" points="-12,94 10,88 -2,88" />
<polygon fill="#262d37" fill-opacity="0.501961" points="26,92 13,92 18,96" />
<polygon fill="#261001" fill-opacity="0.501961" points="126,88 117,86 127,82" />
<polygon fill="#ffbf59" fill-opacity="0.501961" points="74,74 50,68 56,75" />
<polygon fill="#ffce67" fill-opacity="0.501961" points="132,78 125,77 132,76" />
<polygon fill="#645f5b" fill-opacity="0.501961" points="206,94 188,94 192,90" />
<polygon fill="#dfa969" fill-opacity="0.501961" points="15,66 -16,66 16,76" />
<polygon fill="#795e4c" fill-opacity="0.501961" points="74,173 60,178 88,179" />
<polygon fill="#665c51" fill-opacity="0.501961" points="-16,203 -6,190 18,185" />
<polygon fill="#d3925a" fill-opacity="0.501961" points="146,171 143,173 141,171" />
<polygon fill="#c5af78" fill-opacity="0.501961" points="271,66 233,70 271,48" />
<polygon fill="#a7b6b6" fill-opacity="0.501961" points="20,30 -5,45 -14,16" />
<polygon fill="#fbf5e2" fill-opacity="0.501961" points="172,27 171,20 193,26" />
<polygon fill="#ba7e50" fill-opacity="0.501961" points="227,76 235,70 209,73" />
<polygon fill="#fcff8e" fill-opacity="0.501961" points="142,75 131,75 139,61" />
<polygon fill="#060000" fill-opacity="0.501961" points="16,83 19,73 21,89" />
<polygon fill="#273239" fill-opacity="0.501961" points="240,176 203,180 253,147" />
<polygon fill="#f3e3d3" fill-opacity="0.501961" points="83,31 83,39 99,40" />
<polygon fill="#5e636a" fill-opacity="0.501961" points="62,111 47,109 46,114" />
<polygon fill="#3e3e36" fill-opacity="0.501961" points="44,106 54,101 53,108" />
<polygon fill="#0c1219" fill-opacity="0.501961" points="148,165 148,171 138,168" />
<polygon fill="#fcde9d" fill-opacity="0.501961" points="133,62 130,51 169,63" />
<polygon fill="#525047" fill-opacity="0.501961" points="69,87 75,102 77,87" />
<polygon fill="#18191a" fill-opacity="0.501961" points="122,123 82,138 111,145" />
<polygon fill="#404a53" fill-opacity="0.501961" points="55,87 50,100 26,109" />
<polygon fill="#1c1c1a" fill-opacity="0.501961" points="168,91 150,91 162,104" />
<polygon fill="#8b8e8c" fill-opacity="0.501961" points="211,-10 266,19 202,6" />
<polygon fill="#060a0d" fill-opacity="0.501961" points="-16,116 -6,100 17,101" />
<polygon fill="#fcff9b" fill-opacity="0.501961" points="86,71 93,56 95,75" />
<polygon fill="#20150f" fill-opacity="0.501961" points="178,79 184,87 177,84" />
<polygon fill="#836c5c" fill-opacity="0.501961" points="43,176 60,173 81,183" />
<polygon fill="#2b3337" fill-opacity="0.501961" points="256,189 234,190 271,207" />
<polygon fill="#625752" fill-opacity="0.501961" points="142,184 181,179 151,174" />
<polygon fill="#3b312c" fill-opacity="0.501961" points="-2,84 18,86 14,81" />
<polygon fill="#d7cfc2" fill-opacity="0.501961" points="42,44 90,34 73,48" />
<polygon fill="#906e5b" fill-opacity="0.501961" points="61,88 63,84 71,84" />
<polygon fill="#b3aba0" fill-opacity="0.501961" points="154,7 179,15 137,14" />
<polygon fill="#b17e52" fill-opacity="0.501961" points="86,175 92,171 75,172" />
<polygon fill="#6c381c" fill-opacity="0.501961" points="93,84 101,81 106,90" />
<polygon fill="#1a1511" fill-opacity="0.501961" points="221,81 224,86 220,88" />
<polygon fill="#4b4e50" fill-opacity="0.501961" points="73,112 36,113 69,102" />
<polygon fill="#1f232b" fill-opacity="0.501961" points="35,114 48,118 52,114" />
<polygon fill="#fef5de" fill-opacity="0.501961" points="53,19 39,26 70,24" />
</g>
</svg>