<svg xmlns="http://www.w3.org/2000/svg" version="1.1" width="1024" height="640">
<rect x="0" y="0" width="1024" height="640" fill="#434b4a" />
<g transform="scale(4.000000) translate(0.5 0.5)">
<polygon fill="#e6be99" fill-opacity="0.501961" points="265.091857,49.916213,180.678722,112.427062,33.630696,37.150478,127.635995,0.011672" />
<polygon fill="#000324" fill-opacity="0.501961" points="2.376251,-16.000000,-16.000000,175.000000,271.000000,155.858914,28.981656,47.773596" />
<polygon fill="#c6af95" fill-opacity="0.501961" points="65.438423,11.760772,129.187275,96.464405,134.097723,71.186532,263.955880,73.426273" />
<polygon fill="#000811" fill-opacity="0.501961" points="227.855119,120.721276,271.000000,60.244815,255.270644,175.000000,-16.000000,156.201341" />
<polygon fill="#00435f" fill-opacity="0.501961" points="126.369814,90.937099,-16.000000,67.022949,154.625203,175.000000,158.055069,69.842461" />
<polygon fill="#afa38d" fill-opacity="0.501961" points="223.762548,98.886740,106.493572,87.524969,191.484557,107.253119,239.739801,134.248570" />
<polygon fill="#473d32" fill-opacity="0.501961" points="127.064134,85.210869,271.000000,66.451950,210.409579,-16.000000,255.824914,101.455083" />
<polygon fill="#080d05" fill-opacity="0.501961" points="-16.000000,2.815471,7.128592,175.000000,27.711078,21.117608,110.429352,-16.000000" />
<polygon fill="#220c00" fill-opacity="0.501961" points="256.807355,-10.873718,260.578506,39.961054,223.982048,12.651214,106.450152,-16.000000" />
<polygon fill="#7f6345" fill-opacity="0.501961" points="137.909903,-16.000000,271.000000,49.319719,134.016471,15.354742,2.377654,42.815748" />
<polygon fill="#00374f" fill-opacity="0.501961" points="245.185232,123.443847,169.081702,107.893519,3.937219,41.558920,55.257827,154.747749" />
<polygon fill="#000b0f" fill-opacity="0.501961" points="19.898496,102.805800,-16.000000,125.451311,-3.391842,175.000000,95.876427,165.076333" />
<polygon fill="#ecf2ed" fill-opacity="0.501961" points="128.186495,70.479297,117.893658,92.252264,133.787420,92.993854,121.355541,70.009221" />
<polygon fill="#00070c" fill-opacity="0.501961" points="271.000000,168.036585,253.263848,96.184731,242.525711,130.680905,82.428973,161.737319" />
<polygon fill="#897558" fill-opacity="0.501961" points="173.634481,9.007335,230.725350,76.459487,271.000000,83.745725,232.630626,36.323339" />
<polygon fill="#beb19e" fill-opacity="0.501961" points="182.619269,106.115913,182.005987,112.893222,157.692204,83.234856,226.610596,108.226513" />
<polygon fill="#6a635e" fill-opacity="0.501961" points="8.025001,19.546017,58.225447,58.955957,97.220464,80.929929,122.731649,80.359132" />
<polygon fill="#002339" fill-opacity="0.501961" points="163.653481,154.386944,238.108551,137.298193,193.876548,107.517156,23.326076,175.000000" />
<polygon fill="#58422d" fill-opacity="0.501961" points="91.513648,7.936971,-7.819490,43.192993,70.466534,-16.000000,163.591465,9.223059" />
<polygon fill="#c1aa92" fill-opacity="0.501961" points="182.806737,80.102392,75.756194,52.920940,120.565085,16.218574,142.036635,59.976314" />
<polygon fill="#003550" fill-opacity="0.501961" points="145.437744,151.155336,194.921942,127.345375,143.943155,92.936691,129.832442,66.734951" />
<polygon fill="#47484b" fill-opacity="0.501961" points="243.410814,106.907646,227.376897,137.451735,228.226940,75.360809,161.872761,83.130878" />
<polygon fill="#001f2d" fill-opacity="0.501961" points="36.117032,56.276471,-16.000000,17.531065,-16.000000,99.811001,40.252567,145.099828" />
<polygon fill="#1e1715" fill-opacity="0.501961" points="156.602708,90.001611,132.965479,88.138815,149.117032,78.207709,161.716496,85.845599" />
<polygon fill="#ab9882" fill-opacity="0.501961" points="91.614025,17.216420,152.819007,75.693535,201.851764,80.234965,231.380478,52.959011" />
<polygon fill="#796650" fill-opacity="0.501961" points="19.589675,45.520523,92.980298,-3.023999,85.804136,18.827625,49.872986,44.594813" />
<polygon fill="#003e59" fill-opacity="0.501961" points="209.037831,113.349390,135.206248,106.249778,43.298187,55.016922,76.991962,134.877851" />
<polygon fill="#9f9183" fill-opacity="0.501961" points="158.403465,90.102156,165.806240,81.213284,208.621740,104.442099,116.564756,88.950119" />
<polygon fill="#61533e" fill-opacity="0.501961" points="226.045492,97.072345,248.817277,140.794176,201.946470,112.767426,228.302567,116.054774" />
<polygon fill="#1c1007" fill-opacity="0.501961" points="-16.000000,-11.736825,97.380591,-16.000000,-16.000000,29.842290,20.303800,59.680404" />
<polygon fill="#26190f" fill-opacity="0.501961" points="122.650361,90.027453,98.638265,87.810063,99.737960,80.169063,120.497280,82.559319" />
<polygon fill="#000005" fill-opacity="0.501961" points="271.000000,163.311877,193.230648,168.029259,226.325234,127.184156,270.409051,159.951251" />
<polygon fill="#57432a" fill-opacity="0.501961" points="233.241378,10.788712,103.783016,-16.000000,211.306120,20.171861,271.000000,48.610194" />
<polygon fill="#d9e7e3" fill-opacity="0.501961" points="121.355120,80.878845,126.668755,91.389320,132.984540,88.747308,124.125597,71.354912" />
<polygon fill="#3a3025" fill-opacity="0.501961" points="11.251096,41.764106,30.460328,53.614614,33.264498,4.857102,2.957832,22.303034" />
<polygon fill="#2e2620" fill-opacity="0.501961" points="232.576353,106.275206,249.051664,147.471753,257.413897,84.548619,241.560162,80.671658" />
<polygon fill="#6c6863" fill-opacity="0.501961" points="150.708453,80.513922,238.372688,107.699541,148.288277,68.288340,130.736687,84.033312" />
<polygon fill="#696565" fill-opacity="0.501961" points="86.415217,75.757266,121.118873,82.777940,81.078261,51.754484,65.177547,52.565605" />
<polygon fill="#656f72" fill-opacity="0.501961" points="118.994160,99.325327,117.993224,95.537105,105.488895,90.576026,122.441403,88.226727" />
<polygon fill="#cfbba2" fill-opacity="0.501961" points="90.237023,50.056135,102.703375,32.498537,110.934179,38.611171,145.860353,47.690656" />
<polygon fill="#150f07" fill-opacity="0.501961" points="271.000000,26.639381,207.190533,-5.725660,206.330367,0.613823,270.270473,-4.435990" />
<polygon fill="#01070a" fill-opacity="0.501961" points="-16.000000,133.731510,18.172113,129.384189,68.228867,175.000000,-12.192529,162.003454" />
<polygon fill="#756751" fill-opacity="0.501961" points="155.527400,3.259087,260.903357,65.575469,221.805709,20.772033,70.847824,7.952544" />
<polygon fill="#525556" fill-opacity="0.501961" points="126.240248,79.795031,185.242273,78.937652,234.366802,102.380663,127.321689,75.483022" />
<polygon fill="#083142" fill-opacity="0.501961" points="76.996869,69.438170,31.360848,48.288511,53.006978,150.076004,7.382890,85.123518" />
<polygon fill="#00425e" fill-opacity="0.501961" points="82.363602,102.032651,124.965144,92.146197,144.545048,93.645476,183.842239,117.213587" />
<polygon fill="#b8ae9b" fill-opacity="0.501961" points="206.105060,111.505807,178.018919,98.663249,166.913729,109.771793,213.163906,98.147479" />
<polygon fill="#917f6f" fill-opacity="0.501961" points="93.113172,65.480126,105.719092,80.765937,124.428155,82.117567,100.072451,55.194578" />
<polygon fill="#a68f77" fill-opacity="0.501961" points="76.224091,51.205055,75.450617,19.552630,120.395554,15.538830,101.259563,34.450814" />
<polygon fill="#002638" fill-opacity="0.501961" points="62.759213,146.486237,120.245523,155.566984,182.676832,142.912719,39.408224,119.122989" />
<polygon fill="#a4907b" fill-opacity="0.501961" points="183.917996,38.079477,156.585910,14.271997,133.796054,81.644109,159.431762,74.047459" />
<polygon fill="#705c41" fill-opacity="0.501961" points="271.000000,31.726468,247.940724,39.833255,271.000000,105.109843,242.140921,74.036138" />
<polygon fill="#1a1c1a" fill-opacity="0.501961" points="132.797507,89.484550,156.704950,87.375304,143.904476,81.714486,134.054416,82.642615" />
<polygon fill="#46494b" fill-opacity="0.501961" points="225.745020,77.124086,229.377848,93.682057,192.042382,97.119709,208.764274,74.947885" />
<polygon fill="#927f65" fill-opacity="0.501961" points="248.853863,57.902149,207.392738,43.950592,223.393928,74.110923,245.395586,75.065622" />
<polygon fill="#877662" fill-opacity="0.501961" points="98.855826,18.020860,194.805747,17.515113,81.191577,8.598550,89.033969,31.801621" />
<polygon fill="#4b5155" fill-opacity="0.501961" points="92.148810,64.322151,84.365486,70.079583,25.031129,47.952404,72.004498,52.237641" />
<polygon fill="#001826" fill-opacity="0.501961" points="183.739409,175.000000,201.555034,114.959397,241.960924,137.468655,76.260530,152.037395" />
<polygon fill="#8c7d6c" fill-opacity="0.501961" points="176.335328,89.882082,205.032063,101.693740,213.928305,121.789652,233.963598,103.092928" />
<polygon fill="#002e45" fill-opacity="0.501961" points="185.676307,106.248532,168.239128,145.839592,213.287707,120.625558,196.239124,110.648943" />
<polygon fill="#0b3950" fill-opacity="0.501961" points="54.317210,59.936219,93.654929,77.587048,76.770460,138.883389,25.691632,87.924643" />
<polygon fill="#a49686" fill-opacity="0.501961" points="158.512696,83.028348,163.871828,105.771579,169.683705,89.403825,193.404917,94.699898" />
<polygon fill="#8e8b82" fill-opacity="0.501961" points="150.566379,97.215507,210.146343,99.692299,165.799009,86.498184,178.200693,112.398176" />
<polygon fill="#d8c9b4" fill-opacity="0.501961" points="171.278245,103.051825,185.985201,103.964116,184.885321,98.503358,178.769557,97.010498" />
<polygon fill="#625641" fill-opacity="0.501961" points="233.346234,23.622429,271.000000,62.830644,239.781900,49.189216,234.822331,62.667221" />
<polygon fill="#877c6e" fill-opacity="0.501961" points="244.304095,70.189698,205.263995,70.824033,204.707112,84.508741,175.636525,77.246407" />
<polygon fill="#3b2f23" fill-opacity="0.501961" points="37.193293,2.775814,3.700419,28.679008,37.679606,22.297641,110.593192,-16.000000" />
<polygon fill="#c4d2cf" fill-opacity="0.501961" points="122.721068,93.596801,121.769089,79.467552,131.673579,74.364150,127.724079,69.306742" />
<polygon fill="#415f6a" fill-opacity="0.501961" points="133.448171,90.624324,100.293847,91.676364,119.636141,91.167465,111.353826,99.331851" />
<polygon fill="#8b7a64" fill-opacity="0.501961" points="165.780284,7.613015,236.176333,47.099365,111.337997,10.904273,123.784296,26.264051" />
<polygon fill="#00364f" fill-opacity="0.501961" points="63.809564,120.452432,158.475322,105.955296,193.514509,114.891982,121.884575,144.418079" />
<polygon fill="#4f6369" fill-opacity="0.501961" points="97.376533,73.850096,44.869048,53.066697,67.753405,64.774811,101.979717,83.090617" />
<polygon fill="#001320" fill-opacity="0.501961" points="47.294488,59.916532,-15.080631,28.479603,-8.645104,77.939677,25.395572,50.985513" />
<polygon fill="#a39a87" fill-opacity="0.501961" points="215.183694,107.234986,197.462029,111.100668,154.067462,78.492813,188.665038,96.262827" />
<polygon fill="#94836f" fill-opacity="0.501961" points="135.901033,71.458439,123.938868,71.543095,109.651873,82.395972,121.048485,61.615207" />
<polygon fill="#d0c4af" fill-opacity="0.501961" points="161.588429,72.023395,165.979643,65.805208,165.446317,71.270965,173.737745,75.843396" />
<polygon fill="#31302d" fill-opacity="0.501961" points="246.066944,126.854726,234.206807,139.774881,239.806413,100.179339,224.471581,94.466636" />
<polygon fill="#665542" fill-opacity="0.501961" points="20.448652,35.592629,45.471339,20.271400,78.316023,5.830693,30.357428,42.949502" />
<polygon fill="#d5dcd8" fill-opacity="0.501961" points="124.774551,84.163408,127.004245,69.816384,121.803177,76.700123,124.121386,94.614053" />
<polygon fill="#374849" fill-opacity="0.501961" points="97.226003,96.862567,121.214850,80.073415,132.812053,80.686776,133.912640,74.748467" />
<polygon fill="#0e1010" fill-opacity="0.501961" points="97.607923,88.313059,114.359567,88.618559,114.488981,81.818748,98.294593,81.750630" />
<polygon fill="#061720" fill-opacity="0.501961" points="144.282840,175.000000,43.060222,155.009654,-10.678914,125.210369,-12.048615,108.855210" />
<polygon fill="#dcdfd9" fill-opacity="0.501961" points="131.235605,78.396022,129.448308,79.755542,122.108493,87.838989,129.207322,92.483806" />
<polygon fill="#d5bfa5" fill-opacity="0.501961" points="105.093275,28.860641,94.788041,54.165579,106.634487,52.886178,102.615734,47.555439" />
<polygon fill="#232728" fill-opacity="0.501961" points="153.947695,89.537102,158.103259,89.694139,159.423139,81.780242,133.353534,90.133473" />
<polygon fill="#443b2d" fill-opacity="0.501961" points="271.000000,37.697288,190.933477,5.324876,171.018269,12.830958,168.933185,-16.000000" />
<polygon fill="#565656" fill-opacity="0.501961" points="154.755859,77.595433,184.866432,77.737386,227.042505,94.338668,195.955488,95.011077" />
<polygon fill="#aa9884" fill-opacity="0.501961" points="163.135197,80.799950,166.286771,71.635740,163.327706,14.993580,184.607388,70.758187" />
<polygon fill="#777968" fill-opacity="0.501961" points="214.953167,115.414022,215.478704,121.767739,228.818018,128.436935,194.660131,100.861174" />
<polygon fill="#262c2e" fill-opacity="0.501961" points="25.465562,50.164781,-3.904078,30.636062,17.201754,33.600519,39.300249,51.152599" />
<polygon fill="#776f65" fill-opacity="0.501961" points="160.767658,82.516391,141.404634,72.968577,155.248254,73.226307,131.778492,81.692901" />
<polygon fill="#000f1a" fill-opacity="0.501961" points="209.214360,156.026296,243.345610,138.398524,223.615934,126.975105,141.849032,175.000000" />
<polygon fill="#bda891" fill-opacity="0.501961" points="181.917041,52.961308,213.801761,68.215735,214.485652,61.095073,166.577953,59.858081" />
<polygon fill="#7e746c" fill-opacity="0.501961" points="116.385843,91.783925,164.559939,92.869676,129.572516,91.293101,100.861817,88.427271" />
<polygon fill="#003147" fill-opacity="0.501961" points="44.400267,53.863813,22.127690,77.471470,71.221429,66.331285,50.178196,56.861538" />
<polygon fill="#7a6955" fill-opacity="0.501961" points="39.944160,29.724092,31.136475,42.402331,36.876030,41.932408,121.737475,0.237497" />
<polygon fill="#af9881" fill-opacity="0.501961" points="92.592907,23.062901,98.243904,57.999262,54.812667,47.080249,75.606343,44.984133" />
<polygon fill="#b6a189" fill-opacity="0.501961" points="136.185052,78.393307,124.850534,39.042444,108.724879,11.185026,153.347415,54.562725" />
<polygon fill="#3e3f41" fill-opacity="0.501961" points="188.938709,85.341754,203.606073,83.790916,206.623882,75.982154,257.301154,87.129291" />
<polygon fill="#a79d8c" fill-opacity="0.501961" points="186.198755,114.063375,178.600593,109.927859,159.494851,87.279750,172.332831,96.180154" />
<polygon fill="#9f8c72" fill-opacity="0.501961" points="173.576929,19.655214,222.482629,69.549543,226.377646,32.250488,233.371752,66.089642" />
<polygon fill="#013e59" fill-opacity="0.501961" points="115.058092,93.733816,60.258327,77.319303,110.654810,126.518614,148.149258,95.025889" />
<polygon fill="#665743" fill-opacity="0.501961" points="111.159840,-3.026187,188.848968,7.575947,231.983085,23.655147,228.938033,29.068608" />
<polygon fill="#092431" fill-opacity="0.501961" points="34.257949,136.297110,96.108016,157.261048,44.419384,119.567351,-3.525317,67.431198" />
<polygon fill="#100b08" fill-opacity="0.501961" points="-1.909110,-16.000000,28.066263,5.419872,-15.565456,10.049161,3.127947,48.606543" />
<polygon fill="#c2bba7" fill-opacity="0.501961" points="174.850725,102.178667,189.464486,107.784271,184.301795,97.050906,175.325229,109.477355" />
<polygon fill="#806f56" fill-opacity="0.501961" points="224.924588,29.036890,230.088025,37.221527,241.153862,48.016155,234.232210,74.188257" />
<polygon fill="#a18a73" fill-opacity="0.501961" points="75.221525,51.842468,64.946093,51.867078,87.035255,10.792755,92.562368,26.533113" />
<polygon fill="#af9c84" fill-opacity="0.501961" points="201.516690,76.664698,211.177050,52.890327,204.229379,48.059901,176.416992,76.657127" />
<polygon fill="#251e16" fill-opacity="0.501961" points="1.204485,37.819745,22.576954,39.458584,-11.151667,19.923099,48.868447,-8.055179" />
<polygon fill="#8c847b" fill-opacity="0.501961" points="170.807639,97.195343,148.748558,88.608585,163.849095,105.090494,174.123878,107.924109" />
<polygon fill="#042434" fill-opacity="0.501961" points="46.551458,54.753060,55.687286,61.450017,16.922779,45.320882,7.895979,100.387165" />
<polygon fill="#605954" fill-opacity="0.501961" points="109.338659,82.032942,42.161665,37.583722,44.493432,46.217024,62.206712,49.762146" />
<polygon fill="#5f584f" fill-opacity="0.501961" points="238.049218,109.470751,230.246868,116.425068,214.147606,86.097566,212.190257,93.856573" />
<polygon fill="#4e4133" fill-opacity="0.501961" points="79.889877,3.049166,20.750794,30.945653,94.337403,-16.000000,89.968987,9.912334" />
<polygon fill="#b5ab96" fill-opacity="0.501961" points="198.291923,103.420109,214.094253,109.835126,196.769865,99.335952,176.709895,109.869151" />
<polygon fill="#7b7972" fill-opacity="0.501961" points="171.224325,95.169027,117.861003,91.683726,116.429330,95.038883,137.101605,89.221895" />
<polygon fill="#002236" fill-opacity="0.501961" points="178.936474,147.005688,112.825945,154.668995,207.350042,119.043589,219.925504,123.222386" />
<polygon fill="#b19c85" fill-opacity="0.501961" points="158.149800,59.554095,157.914455,78.220563,135.337962,35.231816,145.631213,73.368591" />
<polygon fill="#2f281c" fill-opacity="0.501961" points="234.206682,19.012610,271.000000,23.658223,246.334611,9.431574,192.412665,-16.000000" />
<polygon fill="#b79d83" fill-opacity="0.501961" points="151.325339,91.577038,171.730936,87.222317,165.208612,93.237941,154.085298,93.347332" />
<polygon fill="#003c56" fill-opacity="0.501961" points="154.486113,99.266170,141.723371,92.408646,110.356544,104.743061,119.884113,129.333302" />
<polygon fill="#a18f7a" fill-opacity="0.501961" points="208.243887,55.259387,132.472569,44.526330,155.446754,0.791800,140.194173,24.633087" />
<polygon fill="#6a5e4d" fill-opacity="0.501961" points="171.942792,5.601071,105.612770,10.880273,92.748443,18.548260,90.223519,3.431093" />
<polygon fill="#000103" fill-opacity="0.501961" points="139.344398,175.000000,203.533501,175.000000,245.980778,141.594451,271.000000,163.298882" />
<polygon fill="#073e57" fill-opacity="0.501961" points="74.405892,68.036714,59.268524,101.033220,107.913251,108.270751,94.151129,80.688138" />
<polygon fill="#947e67" fill-opacity="0.501961" points="83.612560,29.331427,41.819114,36.181246,80.326301,52.161587,67.513474,20.752940" />
<polygon fill="#aca08f" fill-opacity="0.501961" points="173.295519,98.288490,176.588774,102.692673,181.275717,86.610126,185.350610,96.471202" />
</g>
</svg>