<svg xmlns="http://www.w3.org/2000/svg" version="1.1" width="1024" height="680">
<rect x="0" y="0" width="1024" height="680" fill="#3d352a" />
<g transform="scale(4.000000) translate(0.5 0.5)">
<polygon fill="#c8b596" fill-opacity="0.501961" points="227,74 166,140 170,-16" />
<polygon fill="#000000" fill-opacity="0.501961" points="-4,185 271,160 7,104" />
<polygon fill="#dccfb1" fill-opacity="0.501961" points="46,25 107,116 30,69" />
<polygon fill="#000000" fill-opacity="0.501961" points="271,175 253,-16 188,179" />
<polygon fill="#fffffe" fill-opacity="0.501961" points="191,59 121,15 171,30" />
<polygon fill="#baaf99" fill-opacity="0.501961" points="121,127 197,133 212,110" />
<polygon fill="#000000" fill-opacity="0.501961" points="-16,-4 8,115 43,26" />
<polygon fill="#ffe9d9" fill-opacity="0.501961" points="190,42 159,-16 207,28" />
<polygon fill="#62614d" fill-opacity="0.501961" points="210,131 31,40 138,18" />
<polygon fill="#ffffff" fill-opacity="0.501961" points="180,48 213,105 206,73" />
<polygon fill="#c1b7a6" fill-opacity="0.501961" points="72,6 48,21 117,12" />
<polygon fill="#ffcda1" fill-opacity="0.501961" points="148,30 150,-12 130,23" />
<polygon fill="#000000" fill-opacity="0.501961" points="271,131 -16,134 132,185" />
<polygon fill="#ffffff" fill-opacity="0.501961" points="75,94 47,42 50,71" />
<polygon fill="#000000" fill-opacity="0.501961" points="271,52 184,49 229,25" />
<polygon fill="#78543c" fill-opacity="0.501961" points="84,134 36,80 35,36" />
<polygon fill="#4f462a" fill-opacity="0.501961" points="155,128 168,45 220,105" />
<polygon fill="#000000" fill-opacity="0.501961" points="271,9 271,170 184,171" />
<polygon fill="#110c07" fill-opacity="0.501961" points="185,45 148,23 155,-16" />
<polygon fill="#ffc88c" fill-opacity="0.501961" points="43,185 46,163 32,156" />
<polygon fill="#d8c8ab" fill-opacity="0.501961" points="127,120 65,82 86,109" />
<polygon fill="#000000" fill-opacity="0.501961" points="48,-7 100,2 40,17" />
<polygon fill="#ce926b" fill-opacity="0.501961" points="112,135 80,124 62,101" />
<polygon fill="#d4d5bf" fill-opacity="0.501961" points="147,55 168,50 130,75" />
<polygon fill="#ac7748" fill-opacity="0.501961" points="206,-8 228,24 200,37" />
<polygon fill="#926137" fill-opacity="0.501961" points="239,65 197,43 218,98" />
<polygon fill="#5f5537" fill-opacity="0.501961" points="56,61 42,0 102,106" />
<polygon fill="#dfdfd4" fill-opacity="0.501961" points="46,61 42,38 52,19" />
<polygon fill="#392a23" fill-opacity="0.501961" points="105,139 85,102 186,155" />
<polygon fill="#000000" fill-opacity="0.501961" points="39,37 7,109 -16,45" />
<polygon fill="#e9e1ab" fill-opacity="0.501961" points="111,63 135,75 131,81" />
<polygon fill="#12191d" fill-opacity="0.501961" points="149,59 125,71 89,38" />
<polygon fill="#000000" fill-opacity="0.501961" points="228,19 206,-16 268,14" />
<polygon fill="#fffaeb" fill-opacity="0.501961" points="164,40 168,26 194,68" />
<polygon fill="#000000" fill-opacity="0.501961" points="52,85 65,90 47,69" />
<polygon fill="#bdb09a" fill-opacity="0.501961" points="127,131 123,119 164,130" />
<polygon fill="#050200" fill-opacity="0.501961" points="173,174 -13,67 57,185" />
<polygon fill="#000000" fill-opacity="0.501961" points="136,-16 136,17 112,7" />
<polygon fill="#f1e7d2" fill-opacity="0.501961" points="205,115 175,130 195,128" />
<polygon fill="#ebe0d4" fill-opacity="0.501961" points="184,-16 162,-16 190,38" />
<polygon fill="#cf761f" fill-opacity="0.501961" points="5,140 1,122 20,154" />
<polygon fill="#ffffdc" fill-opacity="0.501961" points="179,85 175,76 185,80" />
<polygon fill="#e2e0ce" fill-opacity="0.501961" points="131,48 124,33 121,43" />
<polygon fill="#bfb278" fill-opacity="0.501961" points="77,73 64,47 75,48" />
<polygon fill="#271a06" fill-opacity="0.501961" points="89,25 165,42 104,10" />
<polygon fill="#000000" fill-opacity="0.501961" points="271,17 271,80 207,44" />
<polygon fill="#c08a65" fill-opacity="0.501961" points="36,69 78,113 46,94" />
<polygon fill="#988862" fill-opacity="0.501961" points="103,27 95,44 63,34" />
<polygon fill="#e9dfc8" fill-opacity="0.501961" points="80,104 60,71 98,107" />
<polygon fill="#ffffc2" fill-opacity="0.501961" points="152,99 150,93 142,90" />
<polygon fill="#020000" fill-opacity="0.501961" points="271,95 211,83 228,185" />
<polygon fill="#99570a" fill-opacity="0.501961" points="-16,126 -11,104 22,87" />
<polygon fill="#282115" fill-opacity="0.501961" points="186,98 160,60 147,79" />
<polygon fill="#241500" fill-opacity="0.501961" points="196,77 205,97 198,118" />
<polygon fill="#30322d" fill-opacity="0.501961" points="108,109 71,82 97,51" />
<polygon fill="#979088" fill-opacity="0.501961" points="129,13 151,28 102,15" />
<polygon fill="#947861" fill-opacity="0.501961" points="262,25 225,24 248,18" />
<polygon fill="#1f1000" fill-opacity="0.501961" points="208,14 188,-16 194,25" />
<polygon fill="#100d0b" fill-opacity="0.501961" points="35,21 47,71 -2,-16" />
<polygon fill="#c2c0b1" fill-opacity="0.501961" points="201,111 180,97 180,105" />
<polygon fill="#9a9b96" fill-opacity="0.501961" points="197,126 210,84 212,109" />
<polygon fill="#917f52" fill-opacity="0.501961" points="130,39 168,50 195,81" />
<polygon fill="#202321" fill-opacity="0.501961" points="145,138 140,90 110,85" />
<polygon fill="#000000" fill-opacity="0.501961" points="-10,185 23,165 -12,115" />
<polygon fill="#ac7540" fill-opacity="0.501961" points="228,73 202,73 237,88" />
<polygon fill="#ffbb7e" fill-opacity="0.501961" points="228,61 228,66 241,68" />
<polygon fill="#1c0f00" fill-opacity="0.501961" points="239,88 225,55 217,62" />
<polygon fill="#503f30" fill-opacity="0.501961" points="197,59 173,39 165,2" />
<polygon fill="#f0f5e9" fill-opacity="0.501961" points="196,66 207,80 204,94" />
<polygon fill="#a89989" fill-opacity="0.501961" points="60,28 77,8 49,21" />
<polygon fill="#150900" fill-opacity="0.501961" points="187,67 163,46 177,52" />
<polygon fill="#6c5e4c" fill-opacity="0.501961" points="39,46 16,95 39,75" />
<polygon fill="#140f09" fill-opacity="0.501961" points="123,140 67,102 122,120" />
<polygon fill="#292825" fill-opacity="0.501961" points="169,129 160,69 148,119" />
<polygon fill="#e3c98c" fill-opacity="0.501961" points="103,108 115,109 127,123" />
<polygon fill="#a88f56" fill-opacity="0.501961" points="163,77 172,90 167,108" />
<polygon fill="#c05604" fill-opacity="0.501961" points="16,120 1,106 -11,112" />
<polygon fill="#76634f" fill-opacity="0.501961" points="220,45 211,85 194,54" />
<polygon fill="#e0dccc" fill-opacity="0.501961" points="49,37 60,83 46,61" />
<polygon fill="#000000" fill-opacity="0.501961" points="46,7 37,-14 113,7" />
<polygon fill="#000000" fill-opacity="0.501961" points="152,25 160,-16 165,31" />
<polygon fill="#ffbe88" fill-opacity="0.501961" points="108,5 96,-16 115,-6" />
<polygon fill="#000000" fill-opacity="0.501961" points="80,185 234,173 -7,116" />
<polygon fill="#624026" fill-opacity="0.501961" points="76,127 54,103 101,132" />
<polygon fill="#f9ffef" fill-opacity="0.501961" points="96,40 90,34 98,36" />
<polygon fill="#58483e" fill-opacity="0.501961" points="206,121 188,131 181,158" />
<polygon fill="#574332" fill-opacity="0.501961" points="20,32 0,38 -16,-4" />
<polygon fill="#252522" fill-opacity="0.501961" points="134,69 151,57 129,42" />
<polygon fill="#edf0e6" fill-opacity="0.501961" points="179,45 195,60 200,81" />
<polygon fill="#e4e6d3" fill-opacity="0.501961" points="146,23 125,20 158,35" />
<polygon fill="#000000" fill-opacity="0.501961" points="194,42 214,39 188,52" />
<polygon fill="#836b5c" fill-opacity="0.501961" points="202,42 183,3 211,35" />
<polygon fill="#eab577" fill-opacity="0.501961" points="42,185 24,164 19,180" />
<polygon fill="#1e1009" fill-opacity="0.501961" points="203,141 138,128 169,153" />
<polygon fill="#ffffe5" fill-opacity="0.501961" points="149,54 156,56 158,62" />
<polygon fill="#d5cbc5" fill-opacity="0.501961" points="168,114 175,117 178,131" />
<polygon fill="#000000" fill-opacity="0.501961" points="269,25 265,108 216,28" />
<polygon fill="#000000" fill-opacity="0.501961" points="133,15 130,-16 109,8" />
<polygon fill="#cfb69a" fill-opacity="0.501961" points="202,46 199,59 209,55" />
<polygon fill="#292c29" fill-opacity="0.501961" points="82,75 189,114 121,117" />
<polygon fill="#caccb5" fill-opacity="0.501961" points="144,122 150,121 140,118" />
<polygon fill="#c6b29e" fill-opacity="0.501961" points="183,25 182,45 207,36" />
<polygon fill="#2c261a" fill-opacity="0.501961" points="26,137 33,65 49,105" />
<polygon fill="#efe2e6" fill-opacity="0.501961" points="152,129 163,127 170,132" />
<polygon fill="#d3c48e" fill-opacity="0.501961" points="126,72 139,86 122,76" />
<polygon fill="#272a2d" fill-opacity="0.501961" points="152,62 130,79 180,76" />
<polygon fill="#2a2c28" fill-opacity="0.501961" points="78,67 112,64 78,35" />
<polygon fill="#201809" fill-opacity="0.501961" points="42,60 54,90 72,100" />
<polygon fill="#ffffe4" fill-opacity="0.501961" points="56,73 72,86 54,59" />
<polygon fill="#f8e692" fill-opacity="0.501961" points="154,99 144,94 145,88" />
<polygon fill="#050505" fill-opacity="0.501961" points="71,-12 -16,63 -3,99" />
<polygon fill="#190600" fill-opacity="0.501961" points="248,-16 212,8 241,22" />
<polygon fill="#786948" fill-opacity="0.501961" points="92,30 160,47 127,28" />
<polygon fill="#2b2112" fill-opacity="0.501961" points="187,97 190,116 192,106" />
<polygon fill="#a49887" fill-opacity="0.501961" points="109,8 69,20 77,8" />
<polygon fill="#8f7a5f" fill-opacity="0.501961" points="211,94 221,89 228,93" />
<polygon fill="#282111" fill-opacity="0.501961" points="149,31 83,27 89,10" />
<polygon fill="#ccc0a9" fill-opacity="0.501961" points="130,125 147,125 132,132" />
<polygon fill="#a28161" fill-opacity="0.501961" points="218,27 208,10 231,21" />
<polygon fill="#c89066" fill-opacity="0.501961" points="48,185 49,167 30,159" />
<polygon fill="#b78258" fill-opacity="0.501961" points="152,25 136,8 150,-16" />
<polygon fill="#908c83" fill-opacity="0.501961" points="76,101 95,108 64,86" />
<polygon fill="#201600" fill-opacity="0.501961" points="148,33 155,43 172,47" />
<polygon fill="#868a90" fill-opacity="0.501961" points="101,61 106,77 101,83" />
<polygon fill="#211600" fill-opacity="0.501961" points="198,78 182,60 189,75" />
<polygon fill="#a79272" fill-opacity="0.501961" points="68,36 50,51 59,35" />
<polygon fill="#15150f" fill-opacity="0.501961" points="95,44 82,33 91,32" />
<polygon fill="#83734f" fill-opacity="0.501961" points="195,120 172,128 198,107" />
<polygon fill="#23211b" fill-opacity="0.501961" points="139,123 155,106 128,79" />
<polygon fill="#1e2121" fill-opacity="0.501961" points="118,40 131,65 96,33" />
<polygon fill="#665948" fill-opacity="0.501961" points="77,11 62,27 43,26" />
<polygon fill="#47371d" fill-opacity="0.501961" points="157,128 151,121 177,126" />
<polygon fill="#524321" fill-opacity="0.501961" points="62,47 70,79 54,54" />
<polygon fill="#473018" fill-opacity="0.501961" points="217,111 235,98 223,118" />
<polygon fill="#a87e61" fill-opacity="0.501961" points="166,22 164,29 174,32" />
<polygon fill="#090100" fill-opacity="0.501961" points="7,130 51,133 25,166" />
<polygon fill="#644417" fill-opacity="0.501961" points="70,175 44,170 46,161" />
<polygon fill="#000000" fill-opacity="0.501961" points="27,28 9,7 -16,0" />
<polygon fill="#33281d" fill-opacity="0.501961" points="187,121 176,96 174,116" />
<polygon fill="#a6815f" fill-opacity="0.501961" points="102,124 81,118 101,132" />
<polygon fill="#422e17" fill-opacity="0.501961" points="100,116 121,141 76,110" />
<polygon fill="#979c7f" fill-opacity="0.501961" points="89,42 91,35 103,54" />
<polygon fill="#807042" fill-opacity="0.501961" points="74,82 83,49 60,66" />
<polygon fill="#000000" fill-opacity="0.501961" points="56,14 73,8 46,0" />
<polygon fill="#cf8545" fill-opacity="0.501961" points="210,-16 242,-12 206,5" />
<polygon fill="#dfd9c8" fill-opacity="0.501961" points="176,43 146,22 161,41" />
<polygon fill="#b0aca8" fill-opacity="0.501961" points="41,37 49,21 62,15" />
<polygon fill="#271d0e" fill-opacity="0.501961" points="50,37 56,22 57,41" />
<polygon fill="#917b4a" fill-opacity="0.501961" points="189,73 201,95 188,94" />
<polygon fill="#cecfc7" fill-opacity="0.501961" points="198,79 212,99 209,84" />
<polygon fill="#b6c0bf" fill-opacity="0.501961" points="144,84 143,76 146,82" />
<polygon fill="#553c2e" fill-opacity="0.501961" points="161,148 132,149 118,138" />
<polygon fill="#333327" fill-opacity="0.501961" points="106,44 83,36 123,68" />
<polygon fill="#645048" fill-opacity="0.501961" points="38,19 11,-3 28,-16" />
<polygon fill="#8a8271" fill-opacity="0.501961" points="95,8 103,16 77,16" />
<polygon fill="#725840" fill-opacity="0.501961" points="139,24 129,19 140,-1" />
<polygon fill="#120f08" fill-opacity="0.501961" points="80,52 76,42 63,42" />
<polygon fill="#e6e4c3" fill-opacity="0.501961" points="173,106 166,102 169,107" />
<polygon fill="#140d00" fill-opacity="0.501961" points="175,90 173,74 160,75" />
<polygon fill="#060a17" fill-opacity="0.501961" points="120,119 117,135 100,111" />
<polygon fill="#48423b" fill-opacity="0.501961" points="197,62 212,84 212,71" />
<polygon fill="#9296a4" fill-opacity="0.501961" points="118,75 115,84 114,72" />
<polygon fill="#3b2e0f" fill-opacity="0.501961" points="206,96 189,84 204,110" />
<polygon fill="#363023" fill-opacity="0.501961" points="12,10 42,40 40,25" />
<polygon fill="#c7be99" fill-opacity="0.501961" points="169,64 167,68 177,66" />
<polygon fill="#918e82" fill-opacity="0.501961" points="35,58 38,46 45,75" />
<polygon fill="#5a3617" fill-opacity="0.501961" points="245,21 230,8 261,21" />
<polygon fill="#352313" fill-opacity="0.501961" points="232,26 212,26 191,52" />
<polygon fill="#000000" fill-opacity="0.501961" points="1,40 -16,116 28,67" />
<polygon fill="#3d2e23" fill-opacity="0.501961" points="130,19 111,19 115,13" />
<polygon fill="#000000" fill-opacity="0.501961" points="226,59 217,45 263,20" />
<polygon fill="#cec6b5" fill-opacity="0.501961" points="106,31 111,33 106,35" />
<polygon fill="#c7c999" fill-opacity="0.501961" points="105,58 112,61 102,53" />
<polygon fill="#ab956c" fill-opacity="0.501961" points="88,39 79,29 72,32" />
<polygon fill="#514117" fill-opacity="0.501961" points="179,75 193,82 175,65" />
<polygon fill="#f6e3b9" fill-opacity="0.501961" points="70,82 97,103 82,99" />
<polygon fill="#dfd9c8" fill-opacity="0.501961" points="139,44 142,43 141,47" />
<polygon fill="#b7afa0" fill-opacity="0.501961" points="127,23 139,19 122,14" />
<polygon fill="#99938e" fill-opacity="0.501961" points="103,9 114,15 119,12" />
<polygon fill="#000000" fill-opacity="0.501961" points="270,53 269,150 173,185" />
<polygon fill="#6a5b3f" fill-opacity="0.501961" points="70,122 88,129 58,106" />
<polygon fill="#140b06" fill-opacity="0.501961" points="142,152 126,147 140,127" />
<polygon fill="#ffcc82" fill-opacity="0.501961" points="222,78 218,74 220,81" />
<polygon fill="#7f5a34" fill-opacity="0.501961" points="212,47 208,55 236,70" />
<polygon fill="#e4aa80" fill-opacity="0.501961" points="141,11 147,-4 148,17" />
<polygon fill="#000000" fill-opacity="0.501961" points="253,75 224,69 235,80" />
<polygon fill="#1f1c14" fill-opacity="0.501961" points="2,102 60,108 43,89" />
<polygon fill="#79461d" fill-opacity="0.501961" points="252,-16 271,16 234,-8" />
<polygon fill="#341c08" fill-opacity="0.501961" points="224,149 235,166 255,170" />
<polygon fill="#cad0c9" fill-opacity="0.501961" points="147,58 154,59 137,70" />
<polygon fill="#302a21" fill-opacity="0.501961" points="153,65 147,50 139,48" />
<polygon fill="#261a13" fill-opacity="0.501961" points="183,131 165,151 148,133" />
<polygon fill="#5e6063" fill-opacity="0.501961" points="101,114 78,104 96,105" />
<polygon fill="#c1ae9d" fill-opacity="0.501961" points="158,-16 171,9 172,-16" />
<polygon fill="#280b04" fill-opacity="0.501961" points="84,130 103,136 71,113" />
<polygon fill="#202322" fill-opacity="0.501961" points="99,78 121,103 113,79" />
<polygon fill="#9e7b62" fill-opacity="0.501961" points="38,62 60,95 42,84" />
<polygon fill="#f6e5cc" fill-opacity="0.501961" points="177,131 166,130 186,126" />
<polygon fill="#1c0400" fill-opacity="0.501961" points="78,106 56,83 63,98" />
<polygon fill="#cec9b2" fill-opacity="0.501961" points="190,127 196,127 187,115" />
<polygon fill="#302417" fill-opacity="0.501961" points="175,98 162,95 183,94" />
<polygon fill="#e8d6b0" fill-opacity="0.501961" points="197,111 195,105 192,108" />
<polygon fill="#f9f9f3" fill-opacity="0.501961" points="186,60 183,49 168,39" />
<polygon fill="#cac698" fill-opacity="0.501961" points="128,81 139,70 121,74" />
<polygon fill="#625f59" fill-opacity="0.501961" points="186,-8 196,22 185,11" />
<polygon fill="#221913" fill-opacity="0.501961" points="186,48 192,43 199,63" />
<polygon fill="#030100" fill-opacity="0.501961" points="140,185 200,136 154,155" />
<polygon fill="#192122" fill-opacity="0.501961" points="153,65 149,91 145,75" />
<polygon fill="#df9065" fill-opacity="0.501961" points="236,63 228,60 235,70" />
<polygon fill="#836d58" fill-opacity="0.501961" points="200,38 201,18 211,39" />
<polygon fill="#c7ccad" fill-opacity="0.501961" points="173,81 182,83 182,86" />
<polygon fill="#353733" fill-opacity="0.501961" points="144,102 119,94 116,69" />
<polygon fill="#464538" fill-opacity="0.501961" points="126,75 150,57 149,43" />
<polygon fill="#e2d9c1" fill-opacity="0.501961" points="67,65 70,68 71,64" />
<polygon fill="#67574a" fill-opacity="0.501961" points="181,131 210,125 192,137" />
<polygon fill="#835a4e" fill-opacity="0.501961" points="29,159 37,163 38,153" />
<polygon fill="#493f32" fill-opacity="0.501961" points="169,124 151,126 164,99" />
<polygon fill="#000000" fill-opacity="0.501961" points="-12,167 -10,111 27,185" />
<polygon fill="#2a2102" fill-opacity="0.501961" points="178,55 164,50 160,40" />
<polygon fill="#9b9588" fill-opacity="0.501961" points="78,100 57,82 70,86" />
<polygon fill="#584a2f" fill-opacity="0.501961" points="26,96 38,65 15,93" />
<polygon fill="#130700" fill-opacity="0.501961" points="83,83 77,82 77,77" />
<polygon fill="#2d2b21" fill-opacity="0.501961" points="95,62 80,36 106,59" />
<polygon fill="#ffdf96" fill-opacity="0.501961" points="104,111 98,104 111,112" />
<polygon fill="#1d1300" fill-opacity="0.501961" points="204,109 199,107 194,118" />
<polygon fill="#67390d" fill-opacity="0.501961" points="19,150 27,165 6,143" />
<polygon fill="#000000" fill-opacity="0.501961" points="233,5 232,-10 261,19" />
<polygon fill="#2a2827" fill-opacity="0.501961" points="170,35 145,21 156,19" />
<polygon fill="#1e2b24" fill-opacity="0.501961" points="132,76 141,77 146,67" />
<polygon fill="#31302c" fill-opacity="0.501961" points="178,96 170,76 190,99" />
<polygon fill="#c5c0b1" fill-opacity="0.501961" points="44,55 58,81 50,37" />
<polygon fill="#c29032" fill-opacity="0.501961" points="160,85 165,81 170,86" />
<polygon fill="#443d30" fill-opacity="0.501961" points="45,114 32,110 52,102" />
<polygon fill="#000509" fill-opacity="0.501961" points="147,-16 166,10 160,29" />
<polygon fill="#000000" fill-opacity="0.501961" points="13,96 2,103 20,110" />
<polygon fill="#9d9574" fill-opacity="0.501961" points="64,66 73,48 65,46" />
<polygon fill="#cbccbe" fill-opacity="0.501961" points="183,99 180,105 188,108" />
<polygon fill="#b0b5af" fill-opacity="0.501961" points="121,44 130,49 125,40" />
<polygon fill="#f0cb80" fill-opacity="0.501961" points="70,36 73,39 76,37" />
<polygon fill="#4b4b41" fill-opacity="0.501961" points="79,69 88,96 112,108" />
<polygon fill="#bcb191" fill-opacity="0.501961" points="187,92 191,92 193,103" />
<polygon fill="#232225" fill-opacity="0.501961" points="208,130 204,123 215,106" />
<polygon fill="#030607" fill-opacity="0.501961" points="101,6 131,1 127,14" />
<polygon fill="#473f31" fill-opacity="0.501961" points="68,67 55,45 69,55" />
<polygon fill="#62472f" fill-opacity="0.501961" points="18,121 16,131 21,130" />
<polygon fill="#2f2c1e" fill-opacity="0.501961" points="87,9 94,9 95,17" />
<polygon fill="#3d2d27" fill-opacity="0.501961" points="55,13 28,-16 37,20" />
<polygon fill="#cebba1" fill-opacity="0.501961" points="70,60 65,57 71,58" />
<polygon fill="#d1a986" fill-opacity="0.501961" points="77,115 85,123 88,121" />
<polygon fill="#15130d" fill-opacity="0.501961" points="37,45 23,78 16,23" />
<polygon fill="#534a2a" fill-opacity="0.501961" points="56,38 51,35 53,53" />
<polygon fill="#120900" fill-opacity="0.501961" points="159,41 133,30 146,30" />
<polygon fill="#3d2e1d" fill-opacity="0.501961" points="225,75 216,65 224,58" />
<polygon fill="#d7c9b4" fill-opacity="0.501961" points="67,12 83,8 76,13" />
<polygon fill="#89765f" fill-opacity="0.501961" points="179,155 188,151 190,146" />
<polygon fill="#4e443a" fill-opacity="0.501961" points="189,76 149,60 149,73" />
</g>
</svg>