<svg xmlns="http://www.w3.org/2000/svg" version="1.1" width="1024" height="640">
<rect x="0" y="0" width="1024" height="640" fill="#4b5062" />
<g transform="scale(4.000000) translate(0.5 0.5)">
<polygon fill="#93a7c4" fill-opacity="0.501961" points="158,20 -10,72 210,118" />
<polygon fill="#17110c" fill-opacity="0.501961" points="-16,149 271,100 250,175" />
<polygon fill="#cde2ea" fill-opacity="0.501961" points="114,97 95,33 146,68" />
<polygon fill="#0b1533" fill-opacity="0.501961" points="267,-4 142,-5 266,63" />
<polygon fill="#53433e" fill-opacity="0.501961" points="23,144 118,122 47,22" />
<polygon fill="#1f1300" fill-opacity="0.501961" points="24,175 -16,142 106,117" />
<polygon fill="#4a6191" fill-opacity="0.501961" points="208,11 229,107 144,156" />
<polygon fill="#8e8e99" fill-opacity="0.501961" points="59,88 -14,128 25,54" />
<polygon fill="#ffffff" fill-opacity="0.501961" points="149,19 144,6 155,1" />
<polygon fill="#1b170c" fill-opacity="0.501961" points="271,68 271,164 174,175" />
<polygon fill="#364975" fill-opacity="0.501961" points="88,77 148,-16 140,44" />
<polygon fill="#cedee4" fill-opacity="0.501961" points="150,28 141,38 178,48" />
<polygon fill="#5c555c" fill-opacity="0.501961" points="107,135 126,79 187,158" />
<polygon fill="#313140" fill-opacity="0.501961" points="96,-16 -4,0 -8,60" />
<polygon fill="#b2c5d0" fill-opacity="0.501961" points="158,96 103,70 156,62" />
<polygon fill="#e7e8dd" fill-opacity="0.501961" points="28,74 36,70 12,53" />
<polygon fill="#7f8fad" fill-opacity="0.501961" points="114,111 142,105 95,85" />
<polygon fill="#26335b" fill-opacity="0.501961" points="153,-12 157,34 207,37" />
<polygon fill="#4a526e" fill-opacity="0.501961" points="108,29 42,88 28,15" />
<polygon fill="#54505a" fill-opacity="0.501961" points="-10,45 15,126 22,53" />
<polygon fill="#8fa5c0" fill-opacity="0.501961" points="78,42 128,63 106,28" />
<polygon fill="#5f82ad" fill-opacity="0.501961" points="210,84 143,69 148,116" />
<polygon fill="#273054" fill-opacity="0.501961" points="120,41 112,-16 151,24" />
<polygon fill="#314168" fill-opacity="0.501961" points="213,24 271,80 215,115" />
<polygon fill="#d1dcdd" fill-opacity="0.501961" points="139,76 98,90 124,59" />
<polygon fill="#4a5e89" fill-opacity="0.501961" points="223,105 243,71 126,41" />
<polygon fill="#656069" fill-opacity="0.501961" points="104,51 72,121 -16,129" />
<polygon fill="#657ea6" fill-opacity="0.501961" points="80,88 150,41 75,55" />
<polygon fill="#dfeeec" fill-opacity="0.501961" points="148,3 143,16 158,10" />
<polygon fill="#3c373f" fill-opacity="0.501961" points="74,72 67,42 39,67" />
<polygon fill="#38363e" fill-opacity="0.501961" points="148,139 226,149 244,97" />
<polygon fill="#ffffff" fill-opacity="0.501961" points="105,49 97,47 106,39" />
<polygon fill="#2c334a" fill-opacity="0.501961" points="163,175 128,106 102,152" />
<polygon fill="#282523" fill-opacity="0.501961" points="84,119 -9,160 126,175" />
<polygon fill="#d7f2ff" fill-opacity="0.501961" points="60,153 61,156 55,155" />
<polygon fill="#2a365b" fill-opacity="0.501961" points="173,64 202,43 177,-16" />
<polygon fill="#b28f67" fill-opacity="0.501961" points="165,150 178,154 183,147" />
<polygon fill="#b1957a" fill-opacity="0.501961" points="152,113 134,120 147,103" />
<polygon fill="#4e5c7e" fill-opacity="0.501961" points="142,107 214,97 203,127" />
<polygon fill="#a6a6a9" fill-opacity="0.501961" points="201,50 209,38 216,43" />
<polygon fill="#566081" fill-opacity="0.501961" points="100,18 77,26 87,88" />
<polygon fill="#534239" fill-opacity="0.501961" points="83,119 59,130 65,76" />
<polygon fill="#d7ac6b" fill-opacity="0.501961" points="224,146 230,141 223,141" />
<polygon fill="#111009" fill-opacity="0.501961" points="158,159 271,143 271,175" />
<polygon fill="#5c6076" fill-opacity="0.501961" points="117,129 104,80 94,126" />
<polygon fill="#282e3f" fill-opacity="0.501961" points="271,0 255,117 220,-2" />
<polygon fill="#96aabf" fill-opacity="0.501961" points="168,33 175,51 148,44" />
<polygon fill="#333341" fill-opacity="0.501961" points="13,62 8,91 -16,95" />
<polygon fill="#2f3757" fill-opacity="0.501961" points="158,1 77,-16 93,15" />
<polygon fill="#d5cabb" fill-opacity="0.501961" points="75,71 81,57 76,61" />
<polygon fill="#604c3f" fill-opacity="0.501961" points="-13,120 66,126 -10,142" />
<polygon fill="#d4e5e4" fill-opacity="0.501961" points="215,66 209,65 210,69" />
<polygon fill="#3f4052" fill-opacity="0.501961" points="141,175 154,100 169,115" />
<polygon fill="#383a4a" fill-opacity="0.501961" points="89,125 96,162 115,105" />
<polygon fill="#ced5d4" fill-opacity="0.501961" points="152,22 153,42 144,33" />
<polygon fill="#6b7690" fill-opacity="0.501961" points="43,68 3,105 54,89" />
<polygon fill="#8a7d7a" fill-opacity="0.501961" points="79,105 85,96 67,72" />
<polygon fill="#eaf9f6" fill-opacity="0.501961" points="23,65 35,71 26,60" />
<polygon fill="#ffd77e" fill-opacity="0.501961" points="109,126 111,122 114,125" />
<polygon fill="#747e97" fill-opacity="0.501961" points="102,21 115,21 93,47" />
<polygon fill="#5d3d2d" fill-opacity="0.501961" points="127,81 122,100 131,95" />
<polygon fill="#5c739c" fill-opacity="0.501961" points="124,61 143,35 158,58" />
<polygon fill="#272017" fill-opacity="0.501961" points="21,175 -16,123 68,162" />
<polygon fill="#767888" fill-opacity="0.501961" points="13,79 29,49 11,50" />
<polygon fill="#d0bfae" fill-opacity="0.501961" points="156,61 156,71 164,66" />
<polygon fill="#292521" fill-opacity="0.501961" points="229,152 191,129 178,157" />
<polygon fill="#5674a0" fill-opacity="0.501961" points="162,65 180,122 200,59" />
<polygon fill="#7c9bb9" fill-opacity="0.501961" points="185,99 144,97 131,70" />
<polygon fill="#827976" fill-opacity="0.501961" points="50,6 60,2 68,9" />
<polygon fill="#362c1f" fill-opacity="0.501961" points="59,14 31,-15 33,6" />
<polygon fill="#3f4967" fill-opacity="0.501961" points="154,-16 176,23 158,38" />
<polygon fill="#d9f8f7" fill-opacity="0.501961" points="116,50 122,49 116,54" />
<polygon fill="#373c51" fill-opacity="0.501961" points="144,114 102,169 166,123" />
<polygon fill="#cdd3d3" fill-opacity="0.501961" points="114,89 104,75 146,67" />
<polygon fill="#354061" fill-opacity="0.501961" points="218,15 166,62 210,-8" />
<polygon fill="#cdbeac" fill-opacity="0.501961" points="148,111 158,115 140,113" />
<polygon fill="#f5ffff" fill-opacity="0.501961" points="166,42 166,38 161,40" />
<polygon fill="#867676" fill-opacity="0.501961" points="135,99 129,81 142,85" />
<polygon fill="#444e6d" fill-opacity="0.501961" points="218,57 208,125 257,49" />
<polygon fill="#c2ae99" fill-opacity="0.501961" points="54,72 54,77 60,76" />
<polygon fill="#fbe4be" fill-opacity="0.501961" points="108,24 110,22 109,26" />
<polygon fill="#5f6a88" fill-opacity="0.501961" points="103,49 143,29 140,49" />
<polygon fill="#73809b" fill-opacity="0.501961" points="95,53 68,40 93,39" />
<polygon fill="#566992" fill-opacity="0.501961" points="156,10 147,19 157,23" />
<polygon fill="#d8c8ae" fill-opacity="0.501961" points="203,48 199,50 204,43" />
<polygon fill="#7d92ae" fill-opacity="0.501961" points="101,91 124,114 105,68" />
<polygon fill="#464046" fill-opacity="0.501961" points="44,49 83,75 34,60" />
<polygon fill="#fff4ba" fill-opacity="0.501961" points="236,1 244,-16 234,-16" />
<polygon fill="#796a64" fill-opacity="0.501961" points="167,150 144,149 165,144" />
<polygon fill="#343442" fill-opacity="0.501961" points="149,133 160,136 143,106" />
<polygon fill="#121412" fill-opacity="0.501961" points="225,142 243,124 266,136" />
<polygon fill="#9c876c" fill-opacity="0.501961" points="259,115 271,101 253,106" />
<polygon fill="#9b8b80" fill-opacity="0.501961" points="36,71 39,59 28,55" />
<polygon fill="#42557f" fill-opacity="0.501961" points="219,37 164,85 207,69" />
<polygon fill="#252833" fill-opacity="0.501961" points="-6,22 21,-3 -15,-4" />
<polygon fill="#707e95" fill-opacity="0.501961" points="222,90 230,75 228,93" />
<polygon fill="#534743" fill-opacity="0.501961" points="45,95 36,119 33,94" />
<polygon fill="#3b383b" fill-opacity="0.501961" points="51,149 69,158 57,126" />
<polygon fill="#e2c38c" fill-opacity="0.501961" points="179,147 176,153 175,150" />
<polygon fill="#bfb09d" fill-opacity="0.501961" points="124,9 124,14 127,15" />
<polygon fill="#455479" fill-opacity="0.501961" points="195,31 212,48 189,39" />
<polygon fill="#4c5574" fill-opacity="0.501961" points="69,13 123,39 83,3" />
<polygon fill="#493d3b" fill-opacity="0.501961" points="98,111 75,124 95,86" />
<polygon fill="#a69b95" fill-opacity="0.501961" points="58,125 56,121 65,121" />
<polygon fill="#423838" fill-opacity="0.501961" points="134,132 137,109 124,105" />
<polygon fill="#1a2238" fill-opacity="0.501961" points="208,-16 220,21 259,23" />
<polygon fill="#4e3b2a" fill-opacity="0.501961" points="179,155 158,164 144,145" />
<polygon fill="#7b8090" fill-opacity="0.501961" points="34,106 28,93 -8,101" />
<polygon fill="#5e5a64" fill-opacity="0.501961" points="12,104 47,124 3,134" />
<polygon fill="#2b3555" fill-opacity="0.501961" points="113,14 144,15 152,28" />
<polygon fill="#8396ae" fill-opacity="0.501961" points="154,50 144,40 175,44" />
<polygon fill="#566a91" fill-opacity="0.501961" points="194,120 161,111 204,81" />
<polygon fill="#e6ece7" fill-opacity="0.501961" points="149,11 142,8 151,4" />
<polygon fill="#4f556d" fill-opacity="0.501961" points="73,72 72,44 44,30" />
<polygon fill="#7897b5" fill-opacity="0.501961" points="105,48 96,69 122,68" />
<polygon fill="#666c83" fill-opacity="0.501961" points="54,99 12,78 54,76" />
<polygon fill="#89a2bc" fill-opacity="0.501961" points="132,57 156,62 139,65" />
<polygon fill="#464b65" fill-opacity="0.501961" points="150,104 164,133 194,123" />
<polygon fill="#525367" fill-opacity="0.501961" points="67,97 99,94 87,78" />
<polygon fill="#454452" fill-opacity="0.501961" points="99,29 50,16 61,7" />
<polygon fill="#324064" fill-opacity="0.501961" points="206,8 215,48 255,79" />
<polygon fill="#6d8bae" fill-opacity="0.501961" points="182,103 145,99 180,82" />
<polygon fill="#a39e9a" fill-opacity="0.501961" points="16,79 11,81 15,64" />
<polygon fill="#757a8f" fill-opacity="0.501961" points="122,24 129,26 131,21" />
<polygon fill="#2c1d07" fill-opacity="0.501961" points="79,127 69,116 67,142" />
<polygon fill="#3e3a3e" fill-opacity="0.501961" points="145,130 182,150 185,134" />
<polygon fill="#676f89" fill-opacity="0.501961" points="106,96 98,113 146,96" />
<polygon fill="#374770" fill-opacity="0.501961" points="244,89 199,70 215,89" />
<polygon fill="#262c40" fill-opacity="0.501961" points="213,136 181,140 247,93" />
<polygon fill="#888c9d" fill-opacity="0.501961" points="80,74 71,90 89,74" />
<polygon fill="#d7dad6" fill-opacity="0.501961" points="139,32 157,34 151,38" />
<polygon fill="#3a3f55" fill-opacity="0.501961" points="35,42 17,-2 58,15" />
<polygon fill="#87735a" fill-opacity="0.501961" points="250,120 251,117 256,116" />
<polygon fill="#423832" fill-opacity="0.501961" points="-9,175 -16,101 13,146" />
<polygon fill="#dec4a6" fill-opacity="0.501961" points="255,49 270,38 271,68" />
<polygon fill="#b6aeab" fill-opacity="0.501961" points="118,77 125,82 120,95" />
<polygon fill="#98a8c0" fill-opacity="0.501961" points="56,157 60,157 57,151" />
<polygon fill="#ffdd9b" fill-opacity="0.501961" points="225,143 224,142 220,144" />
<polygon fill="#c8b69d" fill-opacity="0.501961" points="42,71 38,76 47,71" />
<polygon fill="#6c7691" fill-opacity="0.501961" points="144,74 155,61 148,80" />
<polygon fill="#c9ccc8" fill-opacity="0.501961" points="22,73 33,70 31,59" />
<polygon fill="#575c73" fill-opacity="0.501961" points="38,61 36,41 6,51" />
<polygon fill="#262e49" fill-opacity="0.501961" points="190,48 177,37 188,3" />
<polygon fill="#a69174" fill-opacity="0.501961" points="4,18 9,14 7,12" />
<polygon fill="#9aadbe" fill-opacity="0.501961" points="108,42 104,32 99,34" />
<polygon fill="#434557" fill-opacity="0.501961" points="68,44 44,59 45,84" />
<polygon fill="#4b5678" fill-opacity="0.501961" points="164,31 171,20 176,46" />
<polygon fill="#49423a" fill-opacity="0.501961" points="222,143 221,155 209,132" />
<polygon fill="#cde3ec" fill-opacity="0.501961" points="122,73 110,68 112,86" />
<polygon fill="#4e618a" fill-opacity="0.501961" points="84,85 101,53 85,51" />
<polygon fill="#e3f2ef" fill-opacity="0.501961" points="102,41 95,47 109,47" />
<polygon fill="#3a3f53" fill-opacity="0.501961" points="195,15 150,3 154,-16" />
<polygon fill="#41424f" fill-opacity="0.501961" points="12,79 12,95 -11,61" />
<polygon fill="#67738d" fill-opacity="0.501961" points="160,-10 148,-11 142,10" />
<polygon fill="#cdceca" fill-opacity="0.501961" points="213,41 208,44 208,40" />
<polygon fill="#525466" fill-opacity="0.501961" points="135,142 149,129 120,143" />
<polygon fill="#221e17" fill-opacity="0.501961" points="6,166 68,148 23,136" />
<polygon fill="#838c9f" fill-opacity="0.501961" points="37,83 46,85 25,100" />
<polygon fill="#475271" fill-opacity="0.501961" points="214,38 203,65 223,65" />
<polygon fill="#434963" fill-opacity="0.501961" points="125,112 126,124 91,120" />
<polygon fill="#201f20" fill-opacity="0.501961" points="121,146 108,143 86,175" />
<polygon fill="#4a5066" fill-opacity="0.501961" points="2,31 40,38 13,21" />
<polygon fill="#696d7f" fill-opacity="0.501961" points="47,49 56,49 56,37" />
<polygon fill="#1e2333" fill-opacity="0.501961" points="191,11 181,-16 207,12" />
<polygon fill="#666574" fill-opacity="0.501961" points="48,109 54,119 67,101" />
<polygon fill="#b9b0a4" fill-opacity="0.501961" points="9,97 6,92 6,96" />
<polygon fill="#bd8f64" fill-opacity="0.501961" points="130,87 125,80 133,81" />
<polygon fill="#e0d1b9" fill-opacity="0.501961" points="207,32 209,35 206,33" />
<polygon fill="#3f4869" fill-opacity="0.501961" points="112,46 113,8 131,32" />
<polygon fill="#3e5280" fill-opacity="0.501961" points="179,71 187,49 214,34" />
<polygon fill="#d9dad5" fill-opacity="0.501961" points="118,108 120,109 123,107" />
<polygon fill="#778da9" fill-opacity="0.501961" points="186,69 170,64 170,72" />
<polygon fill="#303751" fill-opacity="0.501961" points="125,142 101,144 102,121" />
<polygon fill="#0f100e" fill-opacity="0.501961" points="207,175 245,138 263,175" />
<polygon fill="#524541" fill-opacity="0.501961" points="78,98 40,98 77,108" />
<polygon fill="#ab8f71" fill-opacity="0.501961" points="83,106 81,95 79,104" />
<polygon fill="#7e93ae" fill-opacity="0.501961" points="148,20 157,26 160,45" />
<polygon fill="#554946" fill-opacity="0.501961" points="57,140 63,109 81,104" />
<polygon fill="#505976" fill-opacity="0.501961" points="71,26 61,9 42,34" />
<polygon fill="#7f8495" fill-opacity="0.501961" points="101,23 89,15 96,23" />
<polygon fill="#4e4850" fill-opacity="0.501961" points="167,150 184,160 163,138" />
<polygon fill="#515671" fill-opacity="0.501961" points="157,125 159,98 149,102" />
<polygon fill="#b2c0c8" fill-opacity="0.501961" points="154,94 154,82 152,87" />
<polygon fill="#a0acb7" fill-opacity="0.501961" points="151,27 146,37 140,32" />
<polygon fill="#8f7352" fill-opacity="0.501961" points="97,157 100,153 96,153" />
<polygon fill="#3e4867" fill-opacity="0.501961" points="216,120 206,100 230,94" />
<polygon fill="#d2c3ac" fill-opacity="0.501961" points="87,27 87,26 90,28" />
<polygon fill="#4f6082" fill-opacity="0.501961" points="145,10 138,6 148,23" />
<polygon fill="#8f8b8c" fill-opacity="0.501961" points="218,151 218,148 217,151" />
<polygon fill="#bddfe8" fill-opacity="0.501961" points="115,50 117,48 122,53" />
<polygon fill="#625d59" fill-opacity="0.501961" points="225,134 220,138 229,136" />
<polygon fill="#2a3553" fill-opacity="0.501961" points="121,8 127,-15 148,23" />
<polygon fill="#ccb18c" fill-opacity="0.501961" points="56,8 53,8 52,3" />
<polygon fill="#5d6682" fill-opacity="0.501961" points="137,47 118,50 133,29" />
<polygon fill="#252423" fill-opacity="0.501961" points="226,113 262,109 220,139" />
<polygon fill="#313442" fill-opacity="0.501961" points="-5,-2 60,-16 60,4" />
<polygon fill="#857e7e" fill-opacity="0.501961" points="201,117 204,122 193,116" />
<polygon fill="#726357" fill-opacity="0.501961" points="252,57 241,56 252,52" />
<polygon fill="#898b95" fill-opacity="0.501961" points="172,45 177,46 173,39" />
<polygon fill="#29272a" fill-opacity="0.501961" points="84,121 102,135 46,175" />
<polygon fill="#324068" fill-opacity="0.501961" points="157,9 180,40 158,30" />
<polygon fill="#9d9793" fill-opacity="0.501961" points="211,53 213,52 211,47" />
<polygon fill="#352b21" fill-opacity="0.501961" points="50,125 32,140 84,145" />
<polygon fill="#c6cac7" fill-opacity="0.501961" points="131,82 121,77 143,79" />
<polygon fill="#21273d" fill-opacity="0.501961" points="234,37 247,20 248,61" />
<polygon fill="#796d6b" fill-opacity="0.501961" points="15,80 16,65 26,81" />
<polygon fill="#384873" fill-opacity="0.501961" points="137,42 140,32 126,43" />
<polygon fill="#4f6590" fill-opacity="0.501961" points="146,51 166,64 139,32" />
<polygon fill="#2a2f40" fill-opacity="0.501961" points="99,138 154,122 119,144" />
<polygon fill="#b2c4ce" fill-opacity="0.501961" points="127,64 105,85 107,71" />
<polygon fill="#202b4d" fill-opacity="0.501961" points="164,25 171,-11 173,11" />
<polygon fill="#9a8f8c" fill-opacity="0.501961" points="27,43 30,42 27,39" />
<polygon fill="#fae2ad" fill-opacity="0.501961" points="176,151 177,150 175,148" />
<polygon fill="#cc9d54" fill-opacity="0.501961" points="138,116 136,120 141,120" />
<polygon fill="#be9a6b" fill-opacity="0.501961" points="114,128 108,124 112,121" />
<polygon fill="#313448" fill-opacity="0.501961" points="202,123 187,135 192,119" />
<polygon fill="#5a4941" fill-opacity="0.501961" points="77,81 75,67 63,67" />
<polygon fill="#3d4b6e" fill-opacity="0.501961" points="190,46 235,79 266,72" />
<polygon fill="#97949b" fill-opacity="0.501961" points="171,59 167,48 165,56" />
<polygon fill="#c4beb8" fill-opacity="0.501961" points="153,140 154,140 154,142" />
<polygon fill="#79859f" fill-opacity="0.501961" points="118,106 120,100 137,104" />
<polygon fill="#565f78" fill-opacity="0.501961" points="-2,102 21,83 35,87" />
<polygon fill="#beb2a4" fill-opacity="0.501961" points="112,157 115,166 112,165" />
<polygon fill="#3f4b6d" fill-opacity="0.501961" points="227,40 193,25 199,15" />
<polygon fill="#67554f" fill-opacity="0.501961" points="72,77 70,98 58,74" />
<polygon fill="#646881" fill-opacity="0.501961" points="130,90 139,89 148,110" />
<polygon fill="#a7a4a3" fill-opacity="0.501961" points="19,66 24,74 32,74" />
<polygon fill="#282420" fill-opacity="0.501961" points="221,146 194,135 177,163" />
<polygon fill="#554a4d" fill-opacity="0.501961" points="121,97 124,88 137,96" />
<polygon fill="#7b889c" fill-opacity="0.501961" points="238,81 228,82 227,78" />
<polygon fill="#5e5551" fill-opacity="0.501961" points="194,145 199,143 197,148" />
<polygon fill="#404357" fill-opacity="0.501961" points="122,20 80,-16 63,7" />
<polygon fill="#afa090" fill-opacity="0.501961" points="23,124 19,123 22,125" />
<polygon fill="#505363" fill-opacity="0.501961" points="248,1 249,6 242,11" />
<polygon fill="#6e84a3" fill-opacity="0.501961" points="154,61 106,55 132,50" />
<polygon fill="#8b9cb1" fill-opacity="0.501961" points="97,48 97,41 86,49" />
<polygon fill="#d9cdb8" fill-opacity="0.501961" points="200,103 201,104 197,104" />
<polygon fill="#5c5e6c" fill-opacity="0.501961" points="32,22 33,15 24,8" />
<polygon fill="#121b37" fill-opacity="0.501961" points="245,14 254,-16 257,10" />
<polygon fill="#484758" fill-opacity="0.501961" points="107,106 99,132 122,112" />
<polygon fill="#455070" fill-opacity="0.501961" points="95,38 50,23 76,41" />
<polygon fill="#cecfcd" fill-opacity="0.501961" points="101,86 98,87 102,94" />
<polygon fill="#554646" fill-opacity="0.501961" points="152,109 145,111 139,108" />
<polygon fill="#4c5574" fill-opacity="0.501961" points="170,53 176,48 179,72" />
<polygon fill="#ffffea" fill-opacity="0.501961" points="42,0 30,-16 37,-14" />
<polygon fill="#61667e" fill-opacity="0.501961" points="74,82 82,96 96,78" />
<polygon fill="#604733" fill-opacity="0.501961" points="56,120 37,128 60,131" />
<polygon fill="#404152" fill-opacity="0.501961" points="-15,50 16,62 -11,67" />
<polygon fill="#fcffff" fill-opacity="0.501961" points="145,9 151,11 149,7" />
<polygon fill="#6a5f5d" fill-opacity="0.501961" points="165,12 165,-1 161,13" />
<polygon fill="#2a3452" fill-opacity="0.501961" points="198,117 216,122 208,113" />
<polygon fill="#575c73" fill-opacity="0.501961" points="15,104 19,126 34,106" />
<polygon fill="#e3eaea" fill-opacity="0.501961" points="153,38 154,33 146,37" />
<polygon fill="#534f50" fill-opacity="0.501961" points="208,132 212,131 212,143" />
<polygon fill="#2a292b" fill-opacity="0.501961" points="251,98 247,118 205,139" />
<polygon fill="#6f6a72" fill-opacity="0.501961" points="42,81 59,82 70,91" />
</g>
</svg>