<svg xmlns="http://www.w3.org/2000/svg" version="1.1" width="1024" height="640">
<rect x="0" y="0" width="1024" height="640" fill="#75706c" />
<g transform="scale(4.000000) translate(0.5 0.5)">
<polygon fill="#eff3ee" fill-opacity="0.870588" points="1.066794,26.016914,63.147205,-16.000000,94.082072,44.493077,165.000546,-16.000000" />
<polygon fill="#f4e3d9" fill-opacity="0.768627" points="271.000000,87.805118,150.579804,121.036971,154.078743,146.044424,187.592584,138.999156" />
<polygon fill="#100706" fill-opacity="0.517647" points="227.262764,-16.000000,270.416867,8.283422,145.693671,128.740875,153.800935,69.221515" />
<polygon fill="#fbfff2" fill-opacity="0.388235" points="106.032366,-16.000000,45.283283,-15.926823,137.788069,72.197138,81.359509,147.498421" />
<polygon fill="#250703" fill-opacity="0.517647" points="110.095785,153.273662,265.655553,126.092520,271.000000,175.000000,65.730850,173.400604" />
<polygon fill="#11b892" fill-opacity="0.894118" points="55.246304,81.677924,32.824047,92.075209,-4.968647,34.007220,36.830150,51.912532" />
<polygon fill="#190805" fill-opacity="0.435294" points="98.390630,61.779970,6.320033,175.000000,84.921553,116.919144,-16.000000,115.999743" />
<polygon fill="#0d3366" fill-opacity="0.694118" points="69.695120,6.622184,37.828230,18.670956,85.258775,78.461128,96.852847,72.931803" />
<polygon fill="#ffdacb" fill-opacity="0.560784" points="177.037016,100.061160,184.013471,85.090726,265.178389,62.566404,226.645538,86.776860" />
<polygon fill="#fe0d95" fill-opacity="0.486275" points="57.436363,82.591789,77.453734,72.664602,45.920344,25.862590,21.446171,29.470655" />
<polygon fill="#a9a89d" fill-opacity="0.972549" points="148.351322,60.059746,90.079525,109.970183,65.750666,90.962937,206.244838,21.742453" />
<polygon fill="#192c28" fill-opacity="0.494118" points="122.510506,63.948176,101.206072,32.980280,143.631836,14.366518,156.802562,44.798643" />
<polygon fill="#f1f8f2" fill-opacity="0.607843" points="103.620517,154.700681,108.829997,147.278859,12.533918,163.942802,72.122449,175.000000" />
<polygon fill="#def9f5" fill-opacity="0.623529" points="-16.000000,73.912225,10.974703,102.346711,23.243775,98.159689,-16.000000,44.725925" />
<polygon fill="#5b4d46" fill-opacity="0.960784" points="144.102105,89.241240,98.720554,102.930535,120.380774,120.339586,216.608370,105.939361" />
<polygon fill="#d9d1b5" fill-opacity="0.600000" points="226.466213,141.495347,236.177879,142.686602,222.618978,166.570173,208.809508,170.732200" />
<polygon fill="#42403f" fill-opacity="1.000000" points="271.000000,51.625557,215.545000,78.486290,156.439540,80.717944,131.568393,71.982615" />
<polygon fill="#0067d2" fill-opacity="0.866667" points="86.658114,68.323057,55.014200,20.486269,45.402322,23.094548,75.747196,70.071150" />
<polygon fill="#fffff3" fill-opacity="0.439216" points="145.695781,16.654658,14.210577,1.482474,143.280711,-8.761204,177.172324,53.560884" />
<polygon fill="#271f20" fill-opacity="0.890196" points="222.180462,42.796453,181.861819,-15.214706,269.463155,-16.000000,255.997610,33.745383" />
<polygon fill="#c0c1b9" fill-opacity="0.898039" points="29.497952,20.849300,-16.000000,36.784028,-0.184661,11.585838,43.928797,16.690739" />
<polygon fill="#b779fe" fill-opacity="0.576471" points="25.158892,34.618620,35.065030,31.790673,64.053921,73.172547,58.450074,84.190379" />
<polygon fill="#fbfeef" fill-opacity="0.372549" points="110.542880,110.481934,117.314613,122.329356,99.726577,145.628486,80.174198,131.586118" />
<polygon fill="#1d1211" fill-opacity="0.403922" points="146.316132,122.766186,142.926717,175.000000,80.647396,133.845696,74.872148,155.406025" />
<polygon fill="#282625" fill-opacity="0.756863" points="-16.000000,37.285309,-5.845869,43.650960,65.081153,13.251715,42.472211,17.353588" />
<polygon fill="#f6fdf1" fill-opacity="0.462745" points="142.336058,123.125466,94.017114,145.079539,148.199267,113.438969,155.039055,112.039340" />
<polygon fill="#c40000" fill-opacity="0.568627" points="74.403390,71.869148,41.665115,19.319598,32.424271,25.092964,70.232808,80.258305" />
<polygon fill="#ceccbe" fill-opacity="0.721569" points="86.170214,58.074704,94.549387,44.867175,104.365917,34.282241,132.424366,78.389606" />
<polygon fill="#431f00" fill-opacity="0.368627" points="90.219285,30.926460,109.994301,28.077061,48.797565,10.492280,86.670385,66.481400" />
<polygon fill="#2c2523" fill-opacity="0.800000" points="-9.557178,113.644679,14.760898,114.335478,108.505189,66.630384,88.898728,65.716183" />
<polygon fill="#d3dbd8" fill-opacity="0.427451" points="271.000000,75.943486,203.722028,109.059031,138.048116,158.257657,244.568640,110.293120" />
<polygon fill="#e9be13" fill-opacity="0.447059" points="-5.990684,36.771091,-16.000000,43.786143,23.510215,99.208704,31.553084,89.094635" />
<polygon fill="#300602" fill-opacity="0.447059" points="260.682404,70.620836,203.138668,111.531532,185.078693,97.618304,220.822148,92.706758" />
<polygon fill="#a18a6d" fill-opacity="0.501961" points="211.770412,34.525737,166.379935,39.258540,109.135387,-15.787434,205.985439,19.288053" />
<polygon fill="#2da02d" fill-opacity="0.615686" points="23.315459,31.277483,54.536118,85.326526,44.074209,84.323302,8.145285,33.932431" />
<polygon fill="#62534c" fill-opacity="0.807843" points="89.356682,143.705037,55.082107,153.617571,-12.101600,120.322261,62.011782,99.869207" />
<polygon fill="#534f4a" fill-opacity="0.847059" points="120.142931,84.229211,102.974603,57.375501,105.576198,70.523893,115.131181,84.454210" />
<polygon fill="#00c5db" fill-opacity="0.815686" points="11.252024,38.173337,43.410918,85.554415,33.402398,90.935367,12.816734,60.017139" />
<polygon fill="#edfef1" fill-opacity="0.400000" points="215.216193,52.730354,253.151533,34.832100,262.423698,32.092742,214.780525,57.854676" />
<polygon fill="#2c2221" fill-opacity="0.686275" points="261.884624,175.000000,271.000000,119.641336,121.704534,175.000000,217.687734,127.388867" />
<polygon fill="#f4aa92" fill-opacity="0.466667" points="162.950521,115.589964,147.976331,161.234448,164.246717,146.107812,196.754288,140.871507" />
<polygon fill="#3d3a36" fill-opacity="0.698039" points="130.650020,84.405399,150.351232,57.327869,162.856804,52.459171,193.866425,90.568581" />
<polygon fill="#8d7b6e" fill-opacity="0.941176" points="8.795476,20.764578,-16.000000,-16.000000,42.873283,-16.000000,23.766708,15.580283" />
<polygon fill="#fffbf1" fill-opacity="0.403922" points="155.320193,147.249002,166.438076,136.514696,168.121928,113.269391,241.730600,100.896151" />
<polygon fill="#27201c" fill-opacity="0.423529" points="94.647219,111.977284,133.214363,108.459991,118.741930,138.569039,112.402353,93.387030" />
<polygon fill="#f8fdfe" fill-opacity="0.784314" points="137.847458,12.308186,80.264481,22.015005,69.811335,-0.139694,83.015315,-16.000000" />
<polygon fill="#fafefe" fill-opacity="0.623529" points="16.256135,24.824800,83.235527,1.350803,169.012175,5.408041,39.647436,-7.302535" />
<polygon fill="#ffcebd" fill-opacity="0.521569" points="190.647614,94.011590,178.523318,108.605952,193.626615,78.066205,235.670423,81.905555" />
<polygon fill="#261a19" fill-opacity="0.592157" points="166.984603,115.840185,137.373292,127.013061,175.412656,96.562595,180.887554,108.184585" />
<polygon fill="#c3c6be" fill-opacity="0.760784" points="44.854576,175.000000,46.248304,155.330841,77.701842,147.361272,70.708967,173.241995" />
<polygon fill="#938d89" fill-opacity="0.690196" points="104.073729,163.159609,142.497823,128.094459,141.047011,133.985834,95.410109,172.668751" />
<polygon fill="#3d312f" fill-opacity="0.941176" points="-7.278509,112.775299,-16.000000,68.668412,42.330041,152.143746,3.759518,110.353916" />
<polygon fill="#c2ac9b" fill-opacity="0.290196" points="33.576672,139.781983,19.056740,113.955865,28.115307,108.535209,65.658841,123.261192" />
<polygon fill="#301511" fill-opacity="0.439216" points="151.703609,121.374111,105.506428,175.000000,168.900589,125.674683,136.943989,163.726246" />
<polygon fill="#b3ae9d" fill-opacity="1.000000" points="98.268922,32.644440,112.023465,29.663170,136.881906,15.752459,149.383636,3.318264" />
<polygon fill="#493c38" fill-opacity="0.874510" points="46.116513,132.883087,90.605458,146.727093,34.530881,150.472766,-16.000000,175.000000" />
<polygon fill="#d6e9e9" fill-opacity="0.690196" points="237.740299,85.897293,225.456497,99.080483,192.302272,129.016395,237.937362,108.297894" />
<polygon fill="#302224" fill-opacity="0.454902" points="196.652288,130.087873,205.449560,170.726196,230.546702,133.356073,209.322364,123.731924" />
<polygon fill="#f2eee0" fill-opacity="0.439216" points="118.679437,65.671547,168.356443,40.931782,118.551538,80.299278,63.888717,-9.004092" />
<polygon fill="#555151" fill-opacity="0.988235" points="248.755154,85.285477,259.874974,78.946354,242.010549,73.676438,238.330380,97.813823" />
<polygon fill="#0c778a" fill-opacity="0.529412" points="116.300284,50.316296,143.082566,35.563775,150.688359,40.398883,119.176121,60.653633" />
<polygon fill="#8e877b" fill-opacity="0.588235" points="130.940967,119.723151,98.159340,115.790584,64.726092,90.544867,69.148322,127.756061" />
<polygon fill="#bccac9" fill-opacity="0.682353" points="208.574551,120.055858,226.682244,109.138852,225.305975,131.413948,245.424207,127.124338" />
<polygon fill="#36393b" fill-opacity="0.376471" points="75.909556,50.239721,98.596651,56.355597,99.911030,52.659956,67.606354,1.266938" />
<polygon fill="#e8b8a6" fill-opacity="0.698039" points="178.082829,100.884835,182.407349,88.602153,184.526237,91.715975,181.962251,108.526587" />
<polygon fill="#dea18c" fill-opacity="0.603922" points="159.160177,124.561095,151.253931,167.368320,156.890194,115.902782,140.423398,153.999885" />
<polygon fill="#c6cac1" fill-opacity="0.666667" points="103.371527,66.172541,126.941587,117.461451,90.924245,49.450835,85.673211,53.914459" />
<polygon fill="#25313e" fill-opacity="0.270588" points="236.515769,92.485574,271.000000,102.078725,225.900183,119.386814,261.931559,126.958181" />
<polygon fill="#918271" fill-opacity="0.756863" points="136.753430,113.158190,137.784929,105.721410,128.805961,60.567158,124.741252,80.916676" />
<polygon fill="#413f3d" fill-opacity="0.850980" points="218.510761,79.614220,158.062047,77.211191,271.000000,54.212199,258.260002,35.208805" />
<polygon fill="#3d2725" fill-opacity="0.498039" points="186.933407,103.302503,235.406866,87.320669,224.793379,99.074224,199.177259,111.821514" />
<polygon fill="#ced0c8" fill-opacity="0.549020" points="234.999859,68.841205,205.977592,97.043205,255.491802,66.744647,271.000000,57.161277" />
<polygon fill="#fcd8b8" fill-opacity="0.247059" points="19.882528,136.326434,-16.000000,153.040577,5.047902,158.021647,28.110668,146.121924" />
<polygon fill="#877a6b" fill-opacity="0.819608" points="161.741673,102.513738,156.331537,105.775015,133.530223,60.271047,157.348783,96.399119" />
<polygon fill="#473126" fill-opacity="0.509804" points="181.502729,-16.000000,154.922678,16.772515,188.936016,-1.145029,166.142232,-15.563540" />
<polygon fill="#c4b99e" fill-opacity="0.462745" points="176.080567,44.049130,132.664940,-8.165239,162.367444,50.101792,179.765903,46.584820" />
<polygon fill="#008ea1" fill-opacity="0.874510" points="17.267585,64.185184,-16.000000,21.943320,-16.000000,43.089739,11.142405,35.604779" />
<polygon fill="#83605d" fill-opacity="1.000000" points="68.628335,71.893543,119.499874,95.259617,100.403867,89.800369,87.301936,81.214791" />
<polygon fill="#4a342c" fill-opacity="0.549020" points="157.720289,38.800552,95.193662,34.613075,105.696010,37.720173,142.013353,13.904606" />
<polygon fill="#f5fffb" fill-opacity="0.572549" points="83.282511,152.527132,91.445914,163.901617,108.527430,147.472870,21.346107,175.000000" />
<polygon fill="#bec8c4" fill-opacity="0.450980" points="69.857676,86.228298,108.337353,69.626597,86.511901,93.047026,112.080472,130.387718" />
<polygon fill="#4b4542" fill-opacity="0.733333" points="65.748920,75.957394,129.768200,116.209597,129.344133,122.733091,106.075651,105.439862" />
<polygon fill="#dae7e3" fill-opacity="0.352941" points="114.100678,85.093233,127.802566,83.200808,116.830989,103.964855,92.178143,52.114091" />
<polygon fill="#f7fff9" fill-opacity="0.458824" points="84.256689,137.128032,82.030444,124.176876,113.567976,133.657950,101.523829,131.284795" />
<polygon fill="#8f8980" fill-opacity="0.984314" points="89.295862,132.986677,95.252940,137.836327,107.931029,138.232851,144.630836,128.911091" />
<polygon fill="#806f5e" fill-opacity="0.952941" points="212.369909,31.478842,178.295519,38.014906,173.476270,48.243665,181.301030,-16.000000" />
<polygon fill="#5e5853" fill-opacity="1.000000" points="224.440747,63.714769,246.406272,77.533409,218.077765,51.113565,243.781290,58.311906" />
<polygon fill="#460f06" fill-opacity="0.305882" points="156.810103,175.000000,157.000319,148.352999,186.207135,132.748456,176.268577,143.260035" />
<polygon fill="#2d2625" fill-opacity="0.588235" points="69.830677,146.195382,53.689177,106.563256,16.727008,98.318664,55.174215,90.395766" />
<polygon fill="#383a3a" fill-opacity="0.690196" points="197.269943,88.207453,135.787394,71.116207,205.407111,36.308516,183.100660,93.128518" />
<polygon fill="#979288" fill-opacity="0.729412" points="62.696527,-6.210930,64.784997,2.555555,86.579140,37.807653,68.791670,13.802862" />
<polygon fill="#352d2a" fill-opacity="0.556863" points="102.511955,134.455826,136.743066,113.336270,98.561358,103.917407,132.311353,123.758898" />
<polygon fill="#f2d1bd" fill-opacity="0.654902" points="183.088618,93.760620,197.478710,134.245337,182.011106,142.115292,188.009202,91.322740" />
<polygon fill="#f5fffb" fill-opacity="0.274510" points="91.038131,145.341286,123.057767,132.118319,161.070631,108.609244,152.539512,111.631016" />
<polygon fill="#271a19" fill-opacity="0.505882" points="33.024416,175.000000,87.531944,156.500806,82.272891,175.000000,123.893111,175.000000" />
<polygon fill="#747069" fill-opacity="1.000000" points="77.910164,97.216504,65.325880,78.244674,81.496957,106.912788,96.282628,117.268338" />
<polygon fill="#92948c" fill-opacity="0.478431" points="185.510949,70.469355,182.904131,115.618738,183.973195,56.998355,192.783983,72.759023" />
<polygon fill="#f3fbea" fill-opacity="0.200000" points="238.511798,59.797750,219.200692,62.191023,250.673776,41.654051,223.125080,45.084834" />
<polygon fill="#cccab2" fill-opacity="0.560784" points="171.943069,27.659597,165.187780,27.447604,178.474486,21.142279,189.544097,18.970010" />
<polygon fill="#f4fae6" fill-opacity="0.368627" points="115.478823,16.954831,164.873911,-1.379432,163.719078,7.200371,152.417827,6.089685" />
<polygon fill="#2e1204" fill-opacity="0.372549" points="85.676437,41.262174,63.190131,7.670013,59.516779,25.247174,81.794247,58.125112" />
<polygon fill="#6f5b4e" fill-opacity="0.976471" points="213.721241,54.781961,198.537408,14.719070,183.895707,23.840567,214.723611,37.529668" />
<polygon fill="#fe471c" fill-opacity="0.196078" points="240.817055,81.148504,212.594778,97.920321,174.137361,101.773485,195.929880,92.870103" />
<polygon fill="#362f2d" fill-opacity="0.847059" points="169.082509,54.367139,224.600640,74.362759,228.391797,68.475140,201.378233,38.903500" />
<polygon fill="#000030" fill-opacity="0.117647" points="51.235960,14.139166,5.623970,31.119137,-15.206834,48.629151,4.442673,70.973765" />
<polygon fill="#f7fcf2" fill-opacity="0.305882" points="109.799585,108.192612,95.392609,147.348244,114.795102,113.173550,101.995427,112.523506" />
<polygon fill="#66564f" fill-opacity="0.760784" points="27.113285,8.718962,19.528545,19.811447,0.368224,-16.000000,12.571989,16.888877" />
<polygon fill="#3a2d28" fill-opacity="0.737255" points="182.435791,109.730269,157.833581,65.274019,139.295249,67.002304,169.672380,112.778908" />
<polygon fill="#322722" fill-opacity="0.611765" points="83.293624,79.518367,86.894305,60.722760,100.367431,68.173030,108.791411,68.233277" />
<polygon fill="#3bbc4a" fill-opacity="0.788235" points="33.606960,49.671956,55.272343,80.778665,47.220746,86.103887,29.785545,63.120867" />
<polygon fill="#f3e0d5" fill-opacity="0.737255" points="149.469952,134.493080,220.259890,112.616391,194.249064,110.178459,183.173927,109.942937" />
<polygon fill="#57473f" fill-opacity="0.823529" points="146.086954,87.701775,124.364152,80.770097,130.954095,79.108259,148.112256,109.243377" />
<polygon fill="#d0d3ce" fill-opacity="0.450980" points="90.511774,175.000000,146.699047,127.057458,94.155931,175.000000,69.300249,148.879158" />
<polygon fill="#dde0da" fill-opacity="0.913725" points="87.981210,58.169044,85.119830,52.741943,98.227620,60.182311,106.293255,54.634801" />
<polygon fill="#a8aaa0" fill-opacity="1.000000" points="81.280851,22.860311,131.992176,29.731581,89.854133,23.620528,136.982916,15.527442" />
<polygon fill="#99b5ba" fill-opacity="0.364706" points="241.249962,120.534832,244.380264,85.898343,271.000000,90.390038,229.715489,126.137977" />
<polygon fill="#282121" fill-opacity="0.709804" points="102.898659,175.000000,122.326738,150.459688,151.044979,126.702774,138.839207,153.885896" />
<polygon fill="#aa9476" fill-opacity="0.505882" points="123.366107,36.811391,85.604060,55.136354,138.757928,26.722422,141.073282,28.061411" />
<polygon fill="#0f0200" fill-opacity="0.192157" points="91.361051,144.638028,104.087016,149.500347,75.199879,153.578574,103.088570,127.234965" />
<polygon fill="#f7ffe9" fill-opacity="0.282353" points="138.660108,92.173465,133.872074,85.483657,124.000866,83.810310,117.735180,89.503395" />
<polygon fill="#473a37" fill-opacity="0.858824" points="55.548094,155.129096,62.608529,124.784576,28.707131,146.772978,19.302988,129.979424" />
<polygon fill="#eac49d" fill-opacity="0.203922" points="226.962915,169.499279,216.729572,158.764102,222.299276,144.492504,239.193295,138.527742" />
<polygon fill="#cc8ff9" fill-opacity="0.380392" points="42.209501,61.063642,45.603040,46.346475,65.936026,77.189297,57.012785,81.753476" />
<polygon fill="#c0a748" fill-opacity="1.000000" points="13.113947,63.568326,31.981081,93.151881,19.691959,95.375205,12.494958,83.301620" />
<polygon fill="#f9c7b4" fill-opacity="0.286275" points="183.330164,37.823020,207.440216,33.021779,171.148876,34.387475,184.158534,37.187360" />
<polygon fill="#322b2c" fill-opacity="0.376471" points="160.506803,44.156406,128.848920,24.573001,149.290319,13.335039,137.148383,10.231533" />
<polygon fill="#9f9084" fill-opacity="0.729412" points="51.536734,167.015696,48.071923,147.576859,18.672851,164.440469,65.855887,156.464216" />
<polygon fill="#fefff8" fill-opacity="0.176471" points="-15.471500,-16.000000,22.029438,24.178695,-12.805586,34.720043,-16.000000,44.396097" />
<polygon fill="#d90e2b" fill-opacity="0.400000" points="51.593008,35.206972,44.706197,43.387578,63.656273,71.736070,78.956044,73.545449" />
<polygon fill="#458592" fill-opacity="0.439216" points="170.057737,72.185991,172.379923,84.956320,158.824057,66.955665,171.479867,70.163227" />
<polygon fill="#58372f" fill-opacity="0.627451" points="124.438099,175.000000,160.406672,132.699110,151.799005,136.347109,153.718751,148.271724" />
<polygon fill="#705d54" fill-opacity="0.717647" points="107.151641,90.653285,144.854767,96.358780,144.924562,116.475704,125.250209,97.300533" />
<polygon fill="#e1fcfa" fill-opacity="0.215686" points="85.722761,105.895485,105.191664,104.912072,100.297590,101.011720,71.687485,82.308168" />
<polygon fill="#ddf7f7" fill-opacity="0.286275" points="102.479415,89.791311,81.391398,80.989763,78.244536,81.999071,95.993074,95.605381" />
<polygon fill="#bd8270" fill-opacity="0.623529" points="160.756870,127.521617,135.545707,130.237092,168.917959,121.201772,157.092309,128.769197" />
<polygon fill="#e5cbbb" fill-opacity="0.478431" points="176.721860,144.513239,192.935834,138.054844,192.449142,132.789638,206.192291,100.148446" />
<polygon fill="#6d3634" fill-opacity="0.701961" points="198.449938,175.000000,192.730103,142.549298,174.149990,156.103231,207.011213,145.243308" />
<polygon fill="#0f0709" fill-opacity="0.192157" points="83.641316,142.013127,79.325648,116.227454,64.925501,125.820053,41.155493,91.885961" />
<polygon fill="#231a1c" fill-opacity="0.537255" points="227.669615,164.467680,271.000000,95.879822,244.726670,175.000000,158.092434,152.158705" />
<polygon fill="#594c43" fill-opacity="0.862745" points="146.515768,113.286964,143.171320,62.427484,168.090098,47.350833,133.341585,81.822819" />
<polygon fill="#efdad0" fill-opacity="0.580392" points="156.938091,137.982281,145.562494,170.072565,162.045945,136.909622,228.489128,99.459241" />
<polygon fill="#a3a196" fill-opacity="0.772549" points="98.145424,128.054545,80.731045,103.171527,80.031450,118.497955,118.101838,116.735884" />
<polygon fill="#ffe1cf" fill-opacity="0.333333" points="237.214903,77.512369,216.162446,92.234399,189.829106,78.210640,216.837321,80.523570" />
<polygon fill="#d7d8cc" fill-opacity="0.984314" points="110.911019,25.338304,101.374201,29.776647,98.584044,42.823159,90.674527,30.148493" />
<polygon fill="#00cfe5" fill-opacity="0.262745" points="10.186386,34.447430,46.292417,89.441525,34.935803,91.687516,7.331826,51.940529" />
<polygon fill="#bdd3dd" fill-opacity="0.713725" points="10.390545,103.830819,6.518821,100.526698,-8.442249,55.227860,19.441274,96.341368" />
<polygon fill="#f9fbfa" fill-opacity="0.792157" points="48.055328,14.369617,22.844554,22.044181,42.751935,-16.000000,77.936229,2.638302" />
<polygon fill="#2f2829" fill-opacity="0.913725" points="74.675316,84.165200,98.636204,64.807979,94.784275,63.187188,38.813000,90.640192" />
<polygon fill="#352d2e" fill-opacity="1.000000" points="47.771138,15.337121,5.387939,30.888126,-12.893557,43.251974,74.910806,11.117578" />
<polygon fill="#06000b" fill-opacity="0.188235" points="120.450031,57.338123,135.610578,46.127996,144.691102,48.906574,120.811640,67.360858" />
<polygon fill="#b3c5c5" fill-opacity="0.960784" points="246.229735,88.296381,255.353100,95.279325,256.276970,83.893986,235.013542,112.587277" />
<polygon fill="#dde3df" fill-opacity="0.925490" points="35.150109,163.599600,101.739973,154.739333,107.849804,146.721624,23.343018,175.000000" />
<polygon fill="#d7ccaa" fill-opacity="0.274510" points="141.384414,66.109015,180.041359,44.494913,125.068211,73.456541,132.136266,80.905796" />
<polygon fill="#f2b8a2" fill-opacity="0.564706" points="143.641887,145.069853,143.959308,145.813038,151.845138,134.448997,154.344069,122.839438" />
<polygon fill="#322a28" fill-opacity="0.650980" points="102.904196,112.186273,110.893426,102.530280,106.370993,102.779026,98.485387,107.791376" />
<polygon fill="#0071da" fill-opacity="0.576471" points="61.345369,43.605195,76.573398,69.559198,87.405933,67.792507,61.790108,30.335729" />
<polygon fill="#b6ab91" fill-opacity="0.596078" points="157.335686,17.245854,159.738579,20.187516,204.049828,-11.432174,178.269272,9.904683" />
<polygon fill="#1d0f0e" fill-opacity="0.152941" points="191.376770,0.650511,153.638096,29.431306,191.310700,12.080121,196.058884,12.278677" />
<polygon fill="#2c2424" fill-opacity="0.913725" points="271.000000,22.089163,207.637011,22.541388,227.984068,45.906024,240.578454,40.026485" />
<polygon fill="#017acb" fill-opacity="0.376471" points="89.184004,35.177176,90.232863,43.109491,96.352246,53.853845,95.437556,45.451906" />
<polygon fill="#180000" fill-opacity="0.239216" points="235.536557,111.522235,241.450683,114.421249,225.727992,125.971080,229.851503,114.776104" />
<polygon fill="#d0dfd5" fill-opacity="0.466667" points="120.171558,-1.348216,152.883711,-16.000000,145.658890,7.592714,121.773497,19.511927" />
<polygon fill="#b2bbb1" fill-opacity="0.627451" points="114.072043,95.304450,116.320543,94.246245,124.501719,108.798856,120.683852,108.089368" />
<polygon fill="#d3d1be" fill-opacity="0.615686" points="171.132948,41.472305,155.688382,45.765173,156.453696,46.955674,172.298138,49.885571" />
<polygon fill="#816f5e" fill-opacity="0.862745" points="150.953146,18.552838,168.599185,45.049214,147.848708,20.624325,111.577854,45.982951" />
<polygon fill="#373131" fill-opacity="0.478431" points="271.000000,80.802487,271.000000,37.300195,250.054133,92.536028,245.565378,76.704135" />
<polygon fill="#fcfde5" fill-opacity="0.192157" points="17.708122,24.582244,17.245573,2.659460,43.275274,-16.000000,9.731017,27.198571" />
<polygon fill="#ffe2c8" fill-opacity="0.090196" points="32.905366,103.739741,-16.000000,134.795676,30.099536,121.169225,34.204891,108.677831" />
<polygon fill="#110f11" fill-opacity="0.301961" points="176.917093,102.669811,227.984439,94.613471,229.023737,95.116547,218.581583,103.674548" />
<polygon fill="#1e120d" fill-opacity="0.258824" points="92.208357,134.842159,106.683031,137.753772,106.104611,127.252029,130.538214,129.842626" />
<polygon fill="#f8fdf3" fill-opacity="0.239216" points="114.664895,116.681890,113.948177,131.894222,74.469975,124.721139,116.314719,137.584053" />
<polygon fill="#eafefe" fill-opacity="0.368627" points="210.079246,122.879945,229.122793,101.058158,214.656193,103.397105,180.470280,130.597112" />
<polygon fill="#a042ad" fill-opacity="0.768627" points="39.303703,41.510651,34.050818,46.165059,22.063691,31.880120,33.081660,26.068457" />
<polygon fill="#4a3a2d" fill-opacity="0.372549" points="128.203608,125.082844,92.608397,67.580451,90.768188,62.644960,122.491138,111.469005" />
<polygon fill="#16140e" fill-opacity="0.215686" points="112.958064,81.841535,102.913787,67.711758,100.664078,53.020096,118.649706,84.976973" />
<polygon fill="#756152" fill-opacity="0.882353" points="102.662998,38.137763,151.027227,10.316165,117.905014,26.424882,101.268986,35.039147" />
<polygon fill="#00b9d5" fill-opacity="0.235294" points="148.055272,44.083900,118.704737,52.648070,122.753181,53.151416,147.560999,33.805620" />
<polygon fill="#fef6e2" fill-opacity="0.313725" points="161.897918,45.885760,168.322651,48.397315,164.694679,45.345787,149.828227,23.297990" />
<polygon fill="#2c2423" fill-opacity="0.521569" points="135.158877,126.274882,135.857364,134.432717,177.122657,88.492381,177.281700,110.031852" />
<polygon fill="#fff5e5" fill-opacity="0.247059" points="213.996051,53.650631,227.505524,63.539205,224.125463,58.872401,221.662832,54.374064" />
<polygon fill="#d3c9b3" fill-opacity="0.235294" points="76.002749,143.669409,73.640037,124.565765,65.936906,131.190881,86.057755,142.015607" />
<polygon fill="#2c2121" fill-opacity="0.717647" points="190.971157,168.349625,193.514262,140.395413,249.272007,133.458560,174.806903,156.791557" />
<polygon fill="#473c39" fill-opacity="0.807843" points="224.566157,32.401355,230.683238,69.006053,183.522392,80.007102,227.240287,72.314932" />
<polygon fill="#a4a095" fill-opacity="0.768627" points="74.764612,101.510067,78.501741,113.583228,70.325593,105.080298,65.790864,94.223268" />
<polygon fill="#f4fef4" fill-opacity="0.400000" points="129.953744,130.523332,132.755408,121.276204,149.355548,114.867440,149.502185,115.439131" />
<polygon fill="#ffe5db" fill-opacity="0.368627" points="177.381044,104.565296,181.065335,93.379476,227.681667,81.513458,190.015745,93.085607" />
<polygon fill="#1f1a20" fill-opacity="0.368627" points="244.466196,87.066928,236.583432,93.901273,237.019386,90.245957,241.688648,99.828403" />
<polygon fill="#3a312f" fill-opacity="0.494118" points="119.358100,104.393597,131.792502,106.822724,126.303864,128.177411,128.893770,86.774608" />
<polygon fill="#000107" fill-opacity="0.160784" points="160.289039,45.153283,145.900345,20.497071,178.774438,87.259898,182.356098,65.593478" />
<polygon fill="#0f050a" fill-opacity="0.419608" points="189.359630,-12.895306,149.691620,3.363143,141.039066,-14.505289,156.032076,-6.203530" />
<polygon fill="#1f1a1c" fill-opacity="0.466667" points="17.878098,115.674333,-3.746815,86.165362,-16.000000,89.532641,8.512674,117.031125" />
<polygon fill="#e5e4da" fill-opacity="0.364706" points="92.135080,39.732695,129.060041,92.574271,107.985678,46.074077,86.518413,25.590408" />
<polygon fill="#55443d" fill-opacity="0.992157" points="14.919619,175.000000,37.300228,142.096403,4.897642,159.419993,-16.000000,144.574123" />
<polygon fill="#240003" fill-opacity="0.250980" points="142.046668,24.339320,110.348193,41.492272,113.590955,47.807223,104.569215,33.209467" />
<polygon fill="#76644f" fill-opacity="0.423529" points="133.781756,65.234842,119.931812,83.093627,129.616054,80.632488,124.636215,70.386216" />
<polygon fill="#dde5e0" fill-opacity="0.752941" points="73.960405,154.166205,86.031155,154.961358,49.230329,175.000000,75.236357,147.493621" />
<polygon fill="#faeddb" fill-opacity="0.254902" points="87.895103,59.717822,84.437747,52.194199,88.923662,50.388294,101.944708,66.893719" />
<polygon fill="#5c504a" fill-opacity="0.964706" points="52.633557,147.239589,80.602144,116.830376,79.725782,105.318076,76.474016,120.109414" />
<polygon fill="#597f81" fill-opacity="0.419608" points="190.497127,74.078877,190.445143,59.487172,188.821429,60.176251,175.308606,55.970818" />
<polygon fill="#603433" fill-opacity="0.447059" points="69.138267,75.169482,84.596329,77.987100,102.774651,89.474507,119.623050,94.643006" />
<polygon fill="#ecfdf7" fill-opacity="0.333333" points="271.000000,21.727931,271.000000,27.840639,222.610166,50.124188,233.664655,47.654632" />
<polygon fill="#81493f" fill-opacity="0.650980" points="206.212924,89.445218,188.026082,107.481050,198.665931,110.723686,190.964000,97.635262" />
<polygon fill="#55403a" fill-opacity="0.490196" points="12.838308,11.867322,-6.432720,-8.719173,-10.206057,11.142949,17.282600,-16.000000" />
<polygon fill="#876c52" fill-opacity="0.509804" points="100.758753,51.809025,135.748543,33.895403,139.176960,27.010104,143.800760,32.885260" />
<polygon fill="#fffffc" fill-opacity="0.180392" points="94.501348,142.897949,95.789753,146.654880,106.573678,139.734708,80.240114,131.649445" />
<polygon fill="#4d413d" fill-opacity="0.839216" points="98.364733,175.000000,109.671156,157.742316,135.337708,134.944930,108.236742,145.678118" />
<polygon fill="#736159" fill-opacity="0.882353" points="41.843592,138.239705,52.112104,117.210163,35.020753,104.887146,29.656482,108.496609" />
<polygon fill="#433637" fill-opacity="0.423529" points="266.069352,111.723203,241.358975,147.295044,255.900443,121.809965,226.623642,127.395013" />
<polygon fill="#010a0c" fill-opacity="0.211765" points="25.026556,13.278973,24.242192,17.049320,23.870998,10.120465,40.428063,-12.278557" />
<polygon fill="#f7d5c7" fill-opacity="0.517647" points="150.553276,123.368546,200.904572,112.254309,176.875771,112.235365,152.554980,120.900877" />
<polygon fill="#e7fefa" fill-opacity="0.207843" points="101.845642,89.751359,92.523311,76.894424,123.615556,94.891976,101.640877,70.881103" />
<polygon fill="#a1a793" fill-opacity="0.239216" points="94.035293,48.738968,72.544727,13.746150,57.973470,12.558481,65.587449,6.751245" />
<polygon fill="#5e5b56" fill-opacity="0.415686" points="102.260278,23.360067,80.471930,25.322391,104.940248,26.415737,137.443231,59.927428" />
<polygon fill="#fffdd7" fill-opacity="0.121569" points="166.251474,28.355969,192.148904,11.691784,198.601014,40.594721,198.852891,18.610207" />
<polygon fill="#3c2f28" fill-opacity="0.325490" points="223.342472,74.366497,170.535445,36.567615,196.109579,37.246986,181.966801,5.948236" />
<polygon fill="#412e2b" fill-opacity="0.458824" points="226.799478,85.565228,229.895087,94.584254,204.280633,110.064953,202.265989,110.422215" />
<polygon fill="#f5feff" fill-opacity="0.129412" points="221.568799,127.836177,238.179496,118.798211,242.675830,116.460225,246.895027,133.165914" />
<polygon fill="#403631" fill-opacity="0.470588" points="132.081217,116.162235,110.427584,100.702163,99.522752,87.163387,117.392207,119.912868" />
<polygon fill="#282225" fill-opacity="0.450980" points="90.464647,36.081823,71.350621,44.370947,83.562297,56.303088,89.314523,49.211702" />
<polygon fill="#2e2928" fill-opacity="0.462745" points="92.415849,63.876711,46.613669,108.754542,60.897338,121.842921,23.197194,97.573743" />
<polygon fill="#d8e2e0" fill-opacity="0.525490" points="232.345221,89.561465,242.433868,85.798153,188.411731,136.526273,225.737457,106.980144" />
<polygon fill="#9c2e33" fill-opacity="0.501961" points="196.140940,157.218231,206.302417,147.477576,196.995031,148.025609,187.483552,174.530085" />
<polygon fill="#817b72" fill-opacity="0.996078" points="118.235360,121.322475,122.988989,123.662020,97.186233,116.866368,75.900728,109.821720" />
<polygon fill="#8d5436" fill-opacity="0.603922" points="227.424025,160.855660,228.431182,152.301038,237.162043,139.993078,228.012486,174.172519" />
<polygon fill="#eecbbc" fill-opacity="0.592157" points="226.983793,81.244250,189.279914,83.216676,198.085046,78.491425,211.462386,93.954252" />
<polygon fill="#c2c5b6" fill-opacity="0.647059" points="124.069472,7.399347,126.187368,-16.000000,173.370390,48.700551,145.811668,4.407418" />
<polygon fill="#a8f2ff" fill-opacity="0.211765" points="251.913116,75.098279,238.588940,69.906544,271.000000,49.716518,271.000000,53.209228" />
<polygon fill="#f0f8ee" fill-opacity="0.258824" points="83.593967,113.336768,96.371545,115.873434,109.521796,110.159980,114.892263,119.093444" />
<polygon fill="#f4fffd" fill-opacity="0.231373" points="84.536450,142.617657,82.731270,133.159232,90.982836,134.601969,77.981662,143.632488" />
<polygon fill="#312c2d" fill-opacity="0.552941" points="85.392197,156.150855,94.126927,175.000000,141.269735,156.248658,62.443227,172.594960" />
<polygon fill="#41322e" fill-opacity="0.494118" points="269.034957,52.006722,254.285511,47.362058,214.100756,82.396303,228.054652,72.389816" />
<polygon fill="#c2cec8" fill-opacity="0.701961" points="98.012840,96.621488,82.369454,80.507738,100.517321,90.292392,103.546543,98.917313" />
<polygon fill="#2c2322" fill-opacity="0.752941" points="115.706027,175.000000,148.980473,133.914241,149.938471,123.350298,149.318448,122.910344" />
<polygon fill="#3b3836" fill-opacity="0.529412" points="87.431299,35.034196,83.171709,23.930326,70.149392,6.726067,71.658600,11.987237" />
<polygon fill="#342b29" fill-opacity="0.450980" points="214.287970,132.031523,200.529004,129.308356,195.699384,131.584785,232.522455,144.846729" />
<polygon fill="#f7faf9" fill-opacity="0.776471" points="84.678820,24.588987,81.393942,-16.000000,139.664924,12.335165,71.960580,7.721157" />
<polygon fill="#a49b85" fill-opacity="0.466667" points="154.278288,7.225466,191.456293,-16.000000,160.124867,-0.019547,100.031094,31.299422" />
<polygon fill="#f4fffa" fill-opacity="0.219608" points="147.709207,126.520231,144.058523,127.291372,95.722145,175.000000,105.575018,162.126271" />
<polygon fill="#1e080d" fill-opacity="0.192157" points="174.623671,135.314321,182.172187,161.335841,158.398920,146.172442,152.820001,173.367797" />
<polygon fill="#dd987b" fill-opacity="0.270588" points="183.409969,134.615331,180.686766,153.757328,187.041892,151.487608,169.401629,132.837999" />
<polygon fill="#7d685e" fill-opacity="0.619608" points="-7.294019,141.396441,24.332726,137.121162,-16.000000,98.322214,4.437137,113.277758" />
<polygon fill="#cf7662" fill-opacity="0.415686" points="191.635812,89.201935,206.933484,84.658806,198.304569,83.878775,186.053779,87.692176" />
<polygon fill="#f6dcac" fill-opacity="0.192157" points="207.068648,31.595212,209.816261,30.763673,209.456226,27.522048,194.527990,4.746841" />
<polygon fill="#332927" fill-opacity="0.529412" points="218.200739,103.514405,184.782760,105.083609,182.781747,101.888034,201.099737,96.137665" />
<polygon fill="#0e0103" fill-opacity="0.321569" points="106.447480,130.729282,106.915159,136.596978,103.217505,139.884698,103.357774,135.401233" />
<polygon fill="#0d0300" fill-opacity="0.180392" points="119.878010,132.887464,133.360308,115.339804,107.328034,131.479272,134.599191,130.591772" />
<polygon fill="#fff9e3" fill-opacity="0.188235" points="105.131434,129.349789,96.616340,148.116261,106.076166,122.545659,127.431684,118.846428" />
<polygon fill="#f7faec" fill-opacity="0.352941" points="124.089928,66.398992,151.532709,49.255760,122.062030,64.707374,139.480241,69.211819" />
<polygon fill="#434d50" fill-opacity="0.784314" points="190.586369,76.056735,193.032824,80.592012,203.159403,74.173203,208.502902,65.506906" />
<polygon fill="#69605a" fill-opacity="0.898039" points="246.200008,45.241502,239.486569,50.017793,216.389341,61.507099,271.000000,41.131690" />
<polygon fill="#baeced" fill-opacity="0.172549" points="234.203632,140.060211,233.533736,138.313446,218.742720,152.412598,217.644167,175.000000" />
<polygon fill="#a7b7b6" fill-opacity="0.521569" points="243.114562,109.030005,191.620414,133.632726,222.291218,115.645875,246.621865,100.121404" />
<polygon fill="#bfb8a4" fill-opacity="0.733333" points="121.752068,80.876851,154.277498,47.355175,163.863971,48.905787,145.034755,60.811233" />
<polygon fill="#090402" fill-opacity="0.203922" points="100.347159,150.241835,86.575205,139.267628,77.883288,154.269926,100.618893,144.584276" />
<polygon fill="#746252" fill-opacity="0.815686" points="199.553755,24.430528,164.838410,28.795977,178.513512,35.329187,183.316207,22.871592" />
<polygon fill="#3b312f" fill-opacity="0.588235" points="91.865607,142.451123,80.862738,152.350469,58.770573,117.382802,70.130008,147.131448" />
</g>
</svg>