<svg xmlns="http://www.w3.org/2000/svg" version="1.1" width="1024" height="680">
<rect x="0" y="0" width="1024" height="680" fill="#a9825d" />
<g transform="scale(4.000000) translate(0.5 0.5)">
<polygon fill="#ffffc4" fill-opacity="0.501961" points="157.133476,154.199707,253.742462,185.000000,268.412189,26.309385,185.988267,33.792030" />
<polygon fill="#5a0e11" fill-opacity="0.501961" points="147.638902,51.419154,271.000000,4.662300,57.225442,-16.000000,88.971944,185.000000" />
<polygon fill="#ffffc9" fill-opacity="0.501961" points="58.916392,47.911042,-16.000000,54.405291,-16.000000,102.454187,83.691703,114.022007" />
<polygon fill="#4d0f08" fill-opacity="0.501961" points="-2.719661,152.259238,-10.614184,183.051363,188.185272,169.234653,73.343369,135.678118" />
<polygon fill="#64231e" fill-opacity="0.501961" points="-15.799736,52.225117,99.017530,45.083999,271.000000,21.637178,1.097074,11.292875" />
<polygon fill="#a86c48" fill-opacity="0.501961" points="123.959154,168.668617,178.232881,122.123108,162.639963,34.539673,81.346448,113.271945" />
<polygon fill="#f1e797" fill-opacity="0.501961" points="181.433578,185.000000,271.000000,144.306033,271.000000,28.906560,181.319744,32.051808" />
<polygon fill="#ece59c" fill-opacity="0.501961" points="160.766254,133.874266,136.321613,141.542321,210.783973,179.006255,184.677462,132.316942" />
<polygon fill="#ba8867" fill-opacity="0.501961" points="75.899236,69.458217,92.361000,129.533703,141.349448,174.336720,88.873199,79.795837" />
<polygon fill="#5b230f" fill-opacity="0.501961" points="185.993868,185.000000,-16.000000,165.249196,134.339398,162.346078,141.395482,142.204342" />
<polygon fill="#a37464" fill-opacity="0.501961" points="-16.000000,11.559210,122.345891,-13.603225,65.906111,32.418059,58.678689,21.047422" />
<polygon fill="#e9e09b" fill-opacity="0.501961" points="85.494607,109.397737,41.471035,49.182732,-16.000000,61.115826,76.330355,120.922077" />
<polygon fill="#6a2d24" fill-opacity="0.501961" points="75.539694,82.863862,208.965463,-16.000000,72.472878,23.602626,62.009266,65.551199" />
<polygon fill="#904c32" fill-opacity="0.501961" points="126.158404,20.901983,170.934759,73.443121,180.343488,85.852552,161.151732,116.412632" />
<polygon fill="#81432c" fill-opacity="0.501961" points="242.818495,28.042664,263.453681,25.714802,264.232726,-16.000000,155.543670,33.854232" />
<polygon fill="#865c2c" fill-opacity="0.501961" points="152.578909,95.847082,146.194355,95.761870,190.314781,137.387619,184.714097,125.313276" />
<polygon fill="#dcce7e" fill-opacity="0.501961" points="218.916045,128.930400,204.041642,41.911017,161.911067,54.127078,192.840655,117.970626" />
<polygon fill="#6a362b" fill-opacity="0.501961" points="51.528548,163.187357,64.593951,130.666258,85.738153,119.896459,132.890878,177.944338" />
<polygon fill="#896c55" fill-opacity="0.501961" points="64.637188,112.203766,29.736164,104.315979,64.118943,152.475952,-16.000000,151.357786" />
<polygon fill="#d2b87c" fill-opacity="0.501961" points="129.930262,150.543279,104.898366,149.320832,133.993164,164.418490,136.029288,147.334742" />
<polygon fill="#804936" fill-opacity="0.501961" points="130.620152,124.321440,166.633429,131.224615,126.255849,142.814145,52.707787,8.914710" />
<polygon fill="#6a3e24" fill-opacity="0.501961" points="193.919839,181.039593,171.496211,157.570205,164.065501,153.516194,136.199001,174.406386" />
<polygon fill="#73362b" fill-opacity="0.501961" points="-16.000000,51.246164,176.947086,-16.000000,169.668599,50.845360,186.608374,37.659637" />
<polygon fill="#6d3326" fill-opacity="0.501961" points="113.447723,72.545627,156.227077,69.030106,63.100864,26.431125,117.529168,112.199436" />
<polygon fill="#acab84" fill-opacity="0.501961" points="70.950163,113.644666,80.255152,118.494539,49.794612,143.486335,48.509988,105.937148" />
<polygon fill="#b7825a" fill-opacity="0.501961" points="132.676701,129.452261,159.580557,84.418258,119.061529,70.632252,122.336657,120.464962" />
<polygon fill="#b68d77" fill-opacity="0.501961" points="112.707800,-6.171744,101.130809,-16.000000,85.176985,8.964997,-16.000000,1.334829" />
<polygon fill="#e0d396" fill-opacity="0.501961" points="64.634466,45.882455,59.721932,102.500961,-15.687303,109.655793,7.871395,53.245582" />
<polygon fill="#e7dba8" fill-opacity="0.501961" points="271.000000,108.656440,145.055460,150.088082,150.887267,134.311318,271.000000,151.603463" />
<polygon fill="#7f442c" fill-opacity="0.501961" points="149.941676,114.833340,143.152793,105.310371,176.981901,85.919123,162.710972,102.137939" />
<polygon fill="#e8e0ad" fill-opacity="0.501961" points="256.534451,44.460297,271.000000,140.959904,241.825134,142.956384,231.605798,92.757085" />
<polygon fill="#7e4b3a" fill-opacity="0.501961" points="16.598128,175.886791,-13.796743,139.975692,113.865107,153.231536,86.166374,117.383698" />
<polygon fill="#9b644d" fill-opacity="0.501961" points="126.807055,123.762964,113.225059,123.730245,88.947704,68.770462,61.738849,70.044827" />
<polygon fill="#cfc878" fill-opacity="0.501961" points="214.339470,92.953171,184.042319,126.161754,169.448295,110.276219,171.586531,102.088711" />
<polygon fill="#824733" fill-opacity="0.501961" points="271.000000,-13.213076,172.238436,-11.480135,178.041093,32.996130,270.491570,24.826909" />
<polygon fill="#e5d38c" fill-opacity="0.501961" points="260.970532,63.895982,173.807947,49.393542,183.470867,122.990865,184.720574,28.388118" />
<polygon fill="#977b61" fill-opacity="0.501961" points="25.718204,152.393123,46.036947,144.735691,52.922123,108.506539,-16.000000,106.236924" />
<polygon fill="#7f4836" fill-opacity="0.501961" points="63.512524,46.482827,103.653759,14.459052,1.689587,24.176665,-16.000000,54.395126" />
<polygon fill="#9a5a3f" fill-opacity="0.501961" points="175.510045,59.618048,112.882739,90.887906,147.318207,33.341936,168.261568,97.853396" />
<polygon fill="#e2d297" fill-opacity="0.501961" points="174.355809,154.154729,169.024799,117.903133,237.893814,183.171460,180.244621,166.513020" />
<polygon fill="#735137" fill-opacity="0.501961" points="35.162018,109.551111,46.324349,122.879787,50.438828,163.354418,43.178509,127.930728" />
<polygon fill="#ded295" fill-opacity="0.501961" points="81.381187,116.889668,40.914645,59.081170,74.094581,79.118478,69.221209,116.638329" />
<polygon fill="#72342a" fill-opacity="0.501961" points="183.768935,48.343698,179.228497,-16.000000,104.300104,13.471527,129.247230,34.209579" />
<polygon fill="#895940" fill-opacity="0.501961" points="71.986161,60.111812,89.488342,69.050602,88.284689,109.237456,74.756588,98.481655" />
<polygon fill="#642812" fill-opacity="0.501961" points="89.147586,185.000000,156.883259,173.948330,117.864244,159.612907,104.921047,146.821844" />
<polygon fill="#c8a974" fill-opacity="0.501961" points="115.539750,153.161673,121.891730,163.644258,132.751859,148.642216,134.694677,164.927984" />
<polygon fill="#e2d68f" fill-opacity="0.501961" points="150.714903,151.277493,197.765055,162.578355,178.097351,130.306283,143.621927,139.283837" />
<polygon fill="#8f5c4b" fill-opacity="0.501961" points="113.403481,5.958962,-16.000000,11.641054,67.313942,25.879419,129.124824,-16.000000" />
<polygon fill="#623223" fill-opacity="0.501961" points="138.044804,149.644120,134.553506,165.497691,156.021418,162.506256,140.987832,143.302420" />
<polygon fill="#936e38" fill-opacity="0.501961" points="181.855083,129.885132,193.436384,134.571162,171.493180,114.272778,154.720487,98.932662" />
<polygon fill="#6c2f25" fill-opacity="0.501961" points="112.412580,66.170436,131.394554,69.597959,115.091925,10.485746,62.716713,57.522562" />
<polygon fill="#d1b96c" fill-opacity="0.501961" points="214.786662,172.976496,261.710034,153.131462,271.000000,177.406613,176.737659,167.440757" />
<polygon fill="#bd9063" fill-opacity="0.501961" points="138.438408,126.886762,156.056729,77.084384,156.960960,96.342102,141.249044,83.734234" />
<polygon fill="#aa8f73" fill-opacity="0.501961" points="18.858965,127.603900,22.709355,123.845499,37.417226,116.770816,46.510446,144.396739" />
<polygon fill="#774033" fill-opacity="0.501961" points="89.611908,53.635855,104.555655,108.899637,117.893702,113.381181,119.664220,92.410083" />
<polygon fill="#935537" fill-opacity="0.501961" points="144.177348,56.215787,158.536104,58.429758,179.216946,86.171240,161.762011,88.330680" />
<polygon fill="#774632" fill-opacity="0.501961" points="78.154138,75.965996,66.973983,76.072978,62.712587,30.303962,80.181194,64.994931" />
<polygon fill="#d8cc96" fill-opacity="0.501961" points="62.877136,99.458777,83.503695,109.845758,79.774454,98.869893,78.281065,125.493422" />
<polygon fill="#b07c51" fill-opacity="0.501961" points="182.983277,49.082635,162.904921,41.612796,139.681764,53.239460,149.938016,57.802655" />
<polygon fill="#e5d68e" fill-opacity="0.501961" points="178.471762,103.046111,193.063201,34.921311,241.563821,85.517900,170.269291,93.283131" />
<polygon fill="#ab7459" fill-opacity="0.501961" points="88.118557,86.989475,120.141289,126.105800,135.046413,147.742716,88.296764,119.509434" />
<polygon fill="#6f392e" fill-opacity="0.501961" points="92.437802,136.215713,56.952148,145.595447,-4.099787,183.997394,105.167008,145.831973" />
<polygon fill="#c3b76b" fill-opacity="0.501961" points="196.254729,110.667253,210.327184,109.691958,202.602064,101.136339,189.034808,105.104111" />
<polygon fill="#d6cc95" fill-opacity="0.501961" points="-16.000000,106.378879,18.946884,107.734049,72.129259,105.067094,20.030882,68.962447" />
<polygon fill="#e2d28a" fill-opacity="0.501961" points="183.735563,33.227021,183.001872,124.377135,170.926487,111.058221,226.304182,32.243522" />
<polygon fill="#a96b4c" fill-opacity="0.501961" points="163.878038,81.515235,134.950211,91.217086,108.781884,77.143505,154.415250,70.360044" />
<polygon fill="#a99a76" fill-opacity="0.501961" points="68.464934,113.916212,74.293184,117.295910,52.209495,144.975671,46.881543,119.065938" />
<polygon fill="#7b3d24" fill-opacity="0.501961" points="148.332985,56.433852,163.597860,60.034583,125.659957,62.375977,118.782045,66.848520" />
<polygon fill="#80482d" fill-opacity="0.501961" points="44.400931,46.169841,9.454995,25.445913,-16.000000,-13.080034,-5.135473,54.349029" />
<polygon fill="#c6a669" fill-opacity="0.501961" points="165.586074,65.309681,174.468070,76.146587,162.421903,45.624341,180.970180,63.463614" />
<polygon fill="#e0d38c" fill-opacity="0.501961" points="187.160626,38.677999,172.525852,75.855590,203.694269,106.892070,233.358196,136.261425" />
<polygon fill="#894b32" fill-opacity="0.501961" points="268.504300,22.368355,251.864867,-11.261414,213.400204,-16.000000,224.031975,30.544484" />
<polygon fill="#93633e" fill-opacity="0.501961" points="147.202229,137.421944,171.971402,129.422042,154.122962,125.607363,120.759391,124.752358" />
<polygon fill="#b38c5c" fill-opacity="0.501961" points="194.979138,143.979267,158.100047,104.262619,177.134079,97.087876,165.233487,112.628319" />
<polygon fill="#dece8f" fill-opacity="0.501961" points="40.687227,50.717670,62.184407,46.663863,63.281993,68.162379,83.301404,114.854219" />
<polygon fill="#7c412a" fill-opacity="0.501961" points="146.954450,108.310194,152.537164,97.075765,172.617099,92.050432,164.653412,99.284899" />
<polygon fill="#784c3d" fill-opacity="0.501961" points="86.458217,118.702817,51.817484,144.005061,53.941534,159.395982,72.726865,156.675641" />
<polygon fill="#71452b" fill-opacity="0.501961" points="167.265397,154.498533,181.581151,170.083840,144.017566,162.678936,168.668463,155.593788" />
<polygon fill="#7b4234" fill-opacity="0.501961" points="201.701813,-4.964756,162.685294,1.943162,176.866904,41.165509,184.401337,35.313049" />
<polygon fill="#804527" fill-opacity="0.501961" points="-10.583338,169.075355,-16.000000,103.857164,7.316897,149.379947,40.336976,185.000000" />
<polygon fill="#998650" fill-opacity="0.501961" points="156.037358,152.836652,139.075423,141.487057,152.987765,158.826611,169.593075,155.548137" />
<polygon fill="#8d5d37" fill-opacity="0.501961" points="154.299666,98.269983,185.122183,133.381223,180.029691,121.021236,153.553690,108.875587" />
<polygon fill="#ab765c" fill-opacity="0.501961" points="83.773148,112.976797,101.212234,91.050749,82.501405,86.011309,117.275249,156.280157" />
<polygon fill="#d9cf8d" fill-opacity="0.501961" points="173.120423,115.700106,246.308315,122.524893,185.004075,132.066734,178.407648,88.427796" />
<polygon fill="#b3845e" fill-opacity="0.501961" points="165.838654,118.942410,110.469719,117.869639,158.814273,91.912064,138.116285,108.383338" />
<polygon fill="#e3d49d" fill-opacity="0.501961" points="197.227325,145.664937,167.990882,118.057121,200.519271,180.013988,251.514980,136.049998" />
<polygon fill="#876e4d" fill-opacity="0.501961" points="27.852448,105.362929,51.121480,139.371935,37.003101,108.400678,47.694340,111.531081" />
<polygon fill="#9a8059" fill-opacity="0.501961" points="24.844286,108.458710,-16.000000,121.752166,55.958248,108.736009,75.468422,118.399540" />
<polygon fill="#8d5e44" fill-opacity="0.501961" points="53.093366,156.663748,22.004200,152.688748,-16.000000,159.782639,27.132882,137.815525" />
<polygon fill="#c8bb8f" fill-opacity="0.501961" points="28.723135,107.926812,17.140552,88.535120,36.774367,117.540437,17.530949,101.004248" />
<polygon fill="#ad8a4c" fill-opacity="0.501961" points="180.843778,38.509025,175.733910,66.848720,163.261780,79.890044,185.277040,42.531173" />
<polygon fill="#7c5535" fill-opacity="0.501961" points="85.248871,94.732697,89.182616,111.269517,74.323358,95.184267,76.429622,91.335479" />
<polygon fill="#9e6f59" fill-opacity="0.501961" points="81.179083,8.934116,54.237254,4.485840,-16.000000,9.009866,20.755561,15.976689" />
<polygon fill="#8e5342" fill-opacity="0.501961" points="103.885371,79.711947,59.841818,56.988566,88.789793,87.583797,101.464260,92.320380" />
<polygon fill="#6d2d27" fill-opacity="0.501961" points="91.688031,25.987915,93.215781,38.156923,179.541132,19.588331,146.468642,0.395584" />
<polygon fill="#834d41" fill-opacity="0.501961" points="18.314185,12.499741,65.875808,31.942666,134.604870,-11.000803,63.460994,22.227091" />
<polygon fill="#dcc98b" fill-opacity="0.501961" points="188.323845,185.000000,233.436438,154.724741,252.992363,147.100709,271.000000,153.347099" />
<polygon fill="#885136" fill-opacity="0.501961" points="134.079288,136.251681,152.931279,135.891711,156.069452,132.114229,125.200658,126.589316" />
<polygon fill="#c8a87a" fill-opacity="0.501961" points="132.450221,163.016512,123.338913,156.361262,132.508704,154.018876,140.648489,138.092354" />
<polygon fill="#ad884e" fill-opacity="0.501961" points="207.056175,32.164047,246.897282,28.811545,197.743867,29.793322,190.521304,31.636670" />
<polygon fill="#9f5e46" fill-opacity="0.501961" points="141.660922,58.016737,165.554309,47.488046,156.444017,41.390365,127.259292,49.196360" />
<polygon fill="#e2d591" fill-opacity="0.501961" points="154.459213,151.590701,204.618632,138.777318,160.401038,132.839415,143.095648,142.105804" />
<polygon fill="#79523b" fill-opacity="0.501961" points="34.432177,108.763941,53.576656,144.137562,96.388059,157.193891,48.535957,142.552016" />
<polygon fill="#93683a" fill-opacity="0.501961" points="167.818586,108.163114,151.227081,107.397624,169.796417,115.124628,191.143610,136.060125" />
<polygon fill="#bb8b60" fill-opacity="0.501961" points="141.684731,123.884218,146.698110,74.268560,156.631562,96.290324,146.151752,100.093071" />
<polygon fill="#6d362b" fill-opacity="0.501961" points="66.827401,137.127411,86.361604,165.869863,89.624137,130.170918,130.020823,169.512438" />
<polygon fill="#c8ba72" fill-opacity="0.501961" points="209.632643,125.747938,224.022589,126.223086,214.479444,119.396567,213.707796,121.647623" />
<polygon fill="#987151" fill-opacity="0.501961" points="37.855200,113.984507,-16.000000,122.358079,12.912014,153.112536,-14.841195,103.972275" />
<polygon fill="#78492e" fill-opacity="0.501961" points="179.444029,166.114754,142.221489,163.240512,192.374296,169.835971,209.334070,185.000000" />
<polygon fill="#b68d5d" fill-opacity="0.501961" points="120.980372,148.932712,151.799060,134.784157,121.052955,159.963341,105.508410,129.017345" />
<polygon fill="#834032" fill-opacity="0.501961" points="164.879616,38.219440,131.352483,32.007798,122.578254,40.457892,123.296469,47.975916" />
<polygon fill="#e3d288" fill-opacity="0.501961" points="169.999933,70.887813,209.012197,78.059328,172.878061,45.546392,196.827524,97.400369" />
<polygon fill="#6a3626" fill-opacity="0.501961" points="146.062238,148.865955,185.425557,185.000000,135.425169,161.032913,137.553956,148.644636" />
<polygon fill="#dccf9b" fill-opacity="0.501961" points="77.175709,97.790826,84.764275,113.501161,67.650962,110.449150,76.257962,120.427916" />
<polygon fill="#e3d298" fill-opacity="0.501961" points="-3.336511,53.917947,43.363410,51.212008,73.087085,80.013100,74.272830,100.646968" />
<polygon fill="#74412f" fill-opacity="0.501961" points="90.237682,44.301446,74.146833,80.802762,63.488260,52.106931,84.943683,61.067510" />
<polygon fill="#78402e" fill-opacity="0.501961" points="161.354368,22.461807,200.950057,30.738228,220.877862,30.029670,258.419293,17.219554" />
<polygon fill="#e8d898" fill-opacity="0.501961" points="239.412304,30.916097,271.000000,25.397996,229.781346,119.916817,224.159151,77.321830" />
<polygon fill="#997649" fill-opacity="0.501961" points="65.261459,43.793508,66.715616,64.929973,65.589766,74.006436,62.674061,58.571317" />
<polygon fill="#b0a17c" fill-opacity="0.501961" points="59.765278,118.565009,73.628936,119.945619,60.817554,137.225599,52.261807,134.031344" />
<polygon fill="#81452d" fill-opacity="0.501961" points="159.483483,88.760260,168.376271,98.681834,145.732991,111.334861,159.280483,98.961365" />
<polygon fill="#bfa982" fill-opacity="0.501961" points="7.754424,51.667846,38.182473,120.893964,45.605953,150.231352,44.291424,134.660436" />
<polygon fill="#995d48" fill-opacity="0.501961" points="122.282582,99.055723,114.562451,76.185985,121.911893,69.128356,125.929156,69.641797" />
<polygon fill="#6e331e" fill-opacity="0.501961" points="7.623808,159.341481,14.490264,185.000000,66.428313,156.591923,-16.000000,180.437315" />
<polygon fill="#bb8f5c" fill-opacity="0.501961" points="170.267252,66.092083,165.558920,63.452986,153.658481,48.701247,165.036911,51.110527" />
<polygon fill="#936f38" fill-opacity="0.501961" points="189.109239,133.258511,186.145219,135.938998,191.246894,134.381608,152.484240,100.579523" />
<polygon fill="#a26844" fill-opacity="0.501961" points="159.984199,57.270360,173.400252,76.005402,177.620521,83.332012,169.942515,101.190960" />
<polygon fill="#dccd8f" fill-opacity="0.501961" points="167.076513,121.570899,169.539182,117.495714,209.511387,160.563883,178.200046,128.205487" />
</g>
</svg>