<svg xmlns="http://www.w3.org/2000/svg" version="1.1" width="1024" height="680">
<rect x="0" y="0" width="1024" height="680" fill="#a9825d" />
<g transform="scale(4.000000) translate(0.5 0.5)">
<polygon fill="#ffffc4" fill-opacity="0.501961" points="158.581780,155.410225,185.849341,32.493559,271.000000,27.297679,253.780653,185.000000" />
<polygon fill="#580c10" fill-opacity="0.501961" points="92.354053,185.000000,140.063990,52.661324,271.000000,3.294171,54.036039,-14.807382" />
<polygon fill="#ffffc8" fill-opacity="0.501961" points="85.516324,116.070272,-12.424453,102.351151,-15.853041,54.483868,57.054213,48.109412" />
<polygon fill="#4d0f08" fill-opacity="0.501961" points="12.407207,185.000000,-16.000000,155.127925,72.393868,135.338113,185.685916,168.480862" />
<polygon fill="#682620" fill-opacity="0.501961" points="256.711740,9.236652,271.000000,23.850472,-16.000000,54.727364,-16.000000,14.187372" />
<polygon fill="#f0e79c" fill-opacity="0.501961" points="248.224944,185.000000,271.000000,4.503611,181.893946,123.879287,140.221105,144.500827" />
<polygon fill="#c7966c" fill-opacity="0.501961" points="75.757481,103.686462,92.136707,82.439598,139.521176,165.574471,116.516286,158.169530" />
<polygon fill="#975b3f" fill-opacity="0.501961" points="156.036820,33.527972,47.415297,149.101114,142.114849,137.258190,182.605767,129.654547" />
<polygon fill="#edde88" fill-opacity="0.501961" points="189.424761,29.507306,271.000000,36.365227,186.280071,110.957870,167.608785,60.998094" />
<polygon fill="#a97d6c" fill-opacity="0.501961" points="-16.000000,6.773125,-16.000000,-15.456707,67.718854,28.046642,132.401047,-16.000000" />
<polygon fill="#5c240f" fill-opacity="0.501961" points="139.762502,139.150557,179.954011,185.000000,15.604201,166.440203,134.343188,162.301995" />
<polygon fill="#703325" fill-opacity="0.501961" points="176.413226,69.034666,92.633087,30.044218,63.519297,53.078729,66.419660,76.943250" />
<polygon fill="#e9dfaa" fill-opacity="0.501961" points="271.000000,-4.038881,205.688216,185.000000,176.285063,163.531479,264.276223,141.241904" />
<polygon fill="#876852" fill-opacity="0.501961" points="62.478993,110.947248,30.466251,106.182600,64.134471,154.025187,-16.000000,153.810371" />
<polygon fill="#e7dd98" fill-opacity="0.501961" points="-3.049511,108.581341,69.972788,98.920999,58.904812,46.581053,-15.320293,55.626940" />
<polygon fill="#703429" fill-opacity="0.501961" points="151.597486,39.373551,183.591085,50.126642,177.103075,-16.000000,-16.000000,52.376611" />
<polygon fill="#6a3626" fill-opacity="0.501961" points="170.042902,153.753317,11.785214,185.000000,62.937359,138.327041,193.564922,185.000000" />
<polygon fill="#975636" fill-opacity="0.501961" points="142.977436,105.685077,183.997339,87.621399,122.835703,33.903687,180.123552,125.349983" />
<polygon fill="#d6c380" fill-opacity="0.501961" points="113.791386,153.833468,131.844813,165.791834,141.442679,138.609968,216.946794,117.781781" />
<polygon fill="#bd865b" fill-opacity="0.501961" points="121.168509,70.587741,113.253909,75.558466,134.230104,126.955192,159.035413,82.949813" />
<polygon fill="#ab9f7c" fill-opacity="0.501961" points="100.474660,118.601143,99.629312,98.472796,48.722532,149.341361,51.562067,109.488696" />
<polygon fill="#65332d" fill-opacity="0.501961" points="120.110154,160.624693,82.711755,121.000340,62.198588,134.488072,89.347469,166.328243" />
<polygon fill="#dad280" fill-opacity="0.501961" points="238.163220,101.877132,184.890311,126.768500,169.982225,110.360358,181.363907,74.505919" />
<polygon fill="#e3d791" fill-opacity="0.501961" points="166.020824,117.341872,192.740564,169.665849,134.373226,140.393133,182.769488,129.124177" />
<polygon fill="#8d722f" fill-opacity="0.501961" points="189.067291,138.051574,192.727069,136.512800,182.956899,124.365952,162.428087,107.257317" />
<polygon fill="#864c33" fill-opacity="0.501961" points="173.853442,33.562182,175.845244,-16.000000,271.000000,-2.165679,255.771546,27.407233" />
<polygon fill="#a26b52" fill-opacity="0.501961" points="116.649378,161.131432,72.467984,90.182165,79.685032,66.807916,89.629926,68.068115" />
<polygon fill="#ded795" fill-opacity="0.501961" points="45.318269,106.393457,85.079805,112.499544,62.235814,71.575441,76.535291,80.637297" />
<polygon fill="#e2d397" fill-opacity="0.501961" points="2.755489,54.859587,61.621055,48.022738,75.546857,129.288111,83.594306,106.491403" />
<polygon fill="#915d41" fill-opacity="0.501961" points="152.207377,135.202320,132.502217,146.695386,70.479678,73.465043,76.070179,99.460604" />
<polygon fill="#b68d74" fill-opacity="0.501961" points="-16.000000,2.932789,-16.000000,0.715067,82.463373,8.379571,109.334472,-16.000000" />
<polygon fill="#824b3c" fill-opacity="0.501961" points="109.847522,9.447360,0.626899,9.638364,-15.288115,53.816845,66.466753,38.857815" />
<polygon fill="#cdb270" fill-opacity="0.501961" points="265.579429,172.618218,249.826300,151.840722,193.393229,185.000000,226.039208,183.774315" />
<polygon fill="#b67e5f" fill-opacity="0.501961" points="86.030516,92.566944,114.859362,118.217675,122.907484,160.471058,93.371374,127.190045" />
<polygon fill="#6c2f27" fill-opacity="0.501961" points="123.639393,45.963694,181.164742,-16.000000,73.040488,29.693990,111.063017,108.836137" />
<polygon fill="#793d24" fill-opacity="0.501961" points="173.599449,96.669270,157.882548,91.619055,145.829785,107.566514,172.841974,98.967852" />
<polygon fill="#e6d593" fill-opacity="0.501961" points="271.000000,24.366167,182.123238,40.249649,186.638710,24.917905,203.224808,101.688392" />
<polygon fill="#a1896f" fill-opacity="0.501961" points="48.517587,145.369497,29.795779,101.899978,17.122148,124.659006,33.094773,143.901509" />
<polygon fill="#c09959" fill-opacity="0.501961" points="176.398013,69.708556,175.369967,44.797373,157.241385,54.677043,168.155521,71.389580" />
<polygon fill="#7e432a" fill-opacity="0.501961" points="-16.000000,183.880858,36.708776,167.434179,-5.092790,132.216867,2.819796,106.248380" />
<polygon fill="#b98d60" fill-opacity="0.501961" points="145.449193,111.794772,178.392825,119.856349,121.400325,121.482302,150.610179,77.074001" />
<polygon fill="#9d6e5a" fill-opacity="0.501961" points="42.293014,18.563152,82.072952,11.243988,63.903096,2.672344,-16.000000,13.606668" />
<polygon fill="#9c5a3e" fill-opacity="0.501961" points="170.133124,95.390131,127.454889,50.358565,143.802631,35.320396,180.180311,87.129755" />
<polygon fill="#76553d" fill-opacity="0.501961" points="32.374961,104.199046,58.963149,170.463124,40.730946,108.436720,37.724625,112.146351" />
<polygon fill="#c8bc6f" fill-opacity="0.501961" points="200.702390,98.881747,184.480079,104.693495,222.533971,121.578966,214.290771,129.061395" />
<polygon fill="#e3d496" fill-opacity="0.501961" points="182.477340,167.437309,167.519849,153.014670,171.753498,121.884556,243.247416,182.380717" />
<polygon fill="#774c34" fill-opacity="0.501961" points="76.366312,92.298947,88.455838,115.722251,88.193718,105.419527,69.806340,52.393875" />
<polygon fill="#652c16" fill-opacity="0.501961" points="-6.064410,179.160861,126.349025,182.683340,142.152564,140.013987,145.960700,161.351906" />
<polygon fill="#854e3d" fill-opacity="0.501961" points="62.036894,55.475381,122.009437,82.344403,121.580885,104.990985,63.724849,70.805169" />
<polygon fill="#957b5a" fill-opacity="0.501961" points="-12.284016,126.807554,62.353595,111.038303,36.768040,105.521400,-16.000000,113.468523" />
<polygon fill="#e2d893" fill-opacity="0.501961" points="162.967323,154.401623,159.113760,133.736462,144.608158,141.943767,148.089673,150.034255" />
<polygon fill="#8b5636" fill-opacity="0.501961" points="105.363957,146.264194,168.390097,130.868377,125.715789,127.361929,133.748089,137.879535" />
<polygon fill="#d8c78a" fill-opacity="0.501961" points="43.618943,52.353943,76.234342,83.974825,59.827283,88.021763,64.703277,45.392063" />
<polygon fill="#844735" fill-opacity="0.501961" points="232.809461,28.218892,162.526869,13.154634,261.981233,-6.219786,262.655034,20.466493" />
<polygon fill="#733d2f" fill-opacity="0.501961" points="103.647725,60.356403,101.512310,100.044483,105.438581,110.117521,121.411596,111.146610" />
<polygon fill="#76532d" fill-opacity="0.501961" points="154.813094,161.881916,159.329585,153.413544,170.800075,157.267767,183.181385,171.787383" />
<polygon fill="#aba17e" fill-opacity="0.501961" points="52.791041,141.689010,45.693544,119.552263,45.136850,113.914679,77.002234,119.738651" />
<polygon fill="#d3ca94" fill-opacity="0.501961" points="-16.000000,103.940598,-9.233191,65.076475,54.831198,97.409517,27.939275,109.208193" />
<polygon fill="#7d462f" fill-opacity="0.501961" points="-15.216728,8.900457,-14.666140,54.251493,54.652853,45.176685,81.852188,51.383556" />
<polygon fill="#a06246" fill-opacity="0.501961" points="111.516622,78.852875,119.383451,93.214212,177.684138,65.651664,116.374059,72.023693" />
<polygon fill="#e3d68b" fill-opacity="0.501961" points="183.317391,41.088988,174.109196,74.222044,181.956676,97.493103,229.979174,90.763085" />
<polygon fill="#7a4c3e" fill-opacity="0.501961" points="26.156953,157.647418,73.251369,158.515657,86.447579,105.545534,87.911992,121.876777" />
<polygon fill="#bf9968" fill-opacity="0.501961" points="136.753238,139.212455,134.270226,165.460186,111.066147,148.976219,151.389904,142.670978" />
<polygon fill="#a8704f" fill-opacity="0.501961" points="116.941960,112.676720,90.254720,112.827307,139.447887,145.797298,122.851507,153.927125" />
<polygon fill="#783f32" fill-opacity="0.501961" points="217.256414,-16.000000,178.479815,-8.412545,164.358099,42.253725,175.442366,46.510819" />
<polygon fill="#e3d29a" fill-opacity="0.501961" points="203.837172,131.199908,186.589257,136.231358,195.156328,181.107834,271.000000,146.216523" />
<polygon fill="#d8cb89" fill-opacity="0.501961" points="184.723881,112.919259,260.547143,127.421622,186.200323,124.316963,161.720498,104.578868" />
<polygon fill="#8b6632" fill-opacity="0.501961" points="184.133024,131.303958,180.401368,128.823423,160.261937,103.972744,179.621986,121.441285" />
<polygon fill="#dfd399" fill-opacity="0.501961" points="81.105421,103.284169,77.214280,127.080509,76.615649,121.717416,18.462481,51.811307" />
<polygon fill="#6b3326" fill-opacity="0.501961" points="64.405310,41.056961,129.342402,43.191648,63.829566,67.169634,67.773384,68.619364" />
<polygon fill="#ab704c" fill-opacity="0.501961" points="155.307702,41.317415,138.763641,59.109673,169.688263,49.651844,180.306688,46.550518" />
<polygon fill="#75433a" fill-opacity="0.501961" points="72.997831,116.498938,79.575818,144.594060,105.231738,142.560008,93.254114,155.409232" />
<polygon fill="#6b301a" fill-opacity="0.501961" points="111.760273,151.297266,101.020655,158.040705,-6.211748,168.666247,137.394549,185.000000" />
<polygon fill="#7f4125" fill-opacity="0.501961" points="155.920633,56.641957,155.918423,55.037948,162.021028,60.888702,131.596464,61.126068" />
<polygon fill="#dcce8d" fill-opacity="0.501961" points="180.127669,127.339110,164.828379,149.122424,171.560651,123.765687,165.150030,113.506602" />
<polygon fill="#bf9265" fill-opacity="0.501961" points="142.238293,102.261336,140.856302,94.401666,151.176932,86.855377,159.263008,94.356382" />
<polygon fill="#a58049" fill-opacity="0.501961" points="184.448049,46.469864,184.553609,33.310823,184.986026,22.648282,177.685551,51.221292" />
<polygon fill="#956a50" fill-opacity="0.501961" points="10.314578,150.421989,39.236433,149.069155,42.781292,139.141120,-16.000000,135.812408" />
<polygon fill="#895c30" fill-opacity="0.501961" points="139.940559,168.257098,195.080068,185.000000,184.154215,168.599514,253.038827,177.314176" />
<polygon fill="#ac9375" fill-opacity="0.501961" points="26.278281,99.795082,36.108611,127.547586,47.117064,147.194565,43.131157,129.295097" />
<polygon fill="#dace96" fill-opacity="0.501961" points="39.765398,107.415303,73.319410,102.679192,74.392664,85.473758,-16.000000,100.396823" />
<polygon fill="#e9deae" fill-opacity="0.501961" points="231.564750,130.347814,263.086546,104.854561,240.958631,69.023245,271.000000,159.950284" />
<polygon fill="#753b2c" fill-opacity="0.501961" points="235.198088,26.500378,166.832870,30.768968,170.696376,19.547292,247.418442,19.606484" />
<polygon fill="#774e3e" fill-opacity="0.501961" points="85.235150,124.339112,94.083928,127.722621,65.745869,145.136958,65.959409,127.690044" />
<polygon fill="#cfb176" fill-opacity="0.501961" points="170.589826,76.097220,170.548165,61.222478,184.897637,51.813592,163.503237,52.612023" />
<polygon fill="#be9b65" fill-opacity="0.501961" points="121.521416,161.558382,116.761589,158.350794,131.383404,153.664086,129.855205,160.724571" />
<polygon fill="#995b4a" fill-opacity="0.501961" points="100.902259,90.674191,88.536499,69.727829,76.807289,69.749740,80.763718,89.986407" />
<polygon fill="#894d36" fill-opacity="0.501961" points="228.792383,19.586405,271.000000,32.102329,271.000000,-10.605472,188.334432,12.873650" />
<polygon fill="#7b4028" fill-opacity="0.501961" points="146.404609,111.909184,166.925601,97.797721,166.435986,91.116602,145.937466,109.432444" />
<polygon fill="#ad734e" fill-opacity="0.501961" points="150.550580,68.152290,156.920625,80.744773,118.999553,103.947502,120.211057,94.700716" />
<polygon fill="#9c6141" fill-opacity="0.501961" points="153.898002,97.084762,175.611157,90.034843,169.593141,94.793015,175.816480,57.097577" />
<polygon fill="#e3d38a" fill-opacity="0.501961" points="201.789400,33.739911,210.315479,61.355045,179.640556,111.005411,184.318415,31.438906" />
<polygon fill="#813e30" fill-opacity="0.501961" points="145.227219,42.620084,124.212165,51.526367,127.354553,29.404137,184.859431,41.207877" />
<polygon fill="#b9905c" fill-opacity="0.501961" points="175.595589,96.023836,159.663753,104.414805,165.635240,105.629626,175.478252,100.700856" />
<polygon fill="#ccc174" fill-opacity="0.501961" points="190.051245,119.387060,205.913344,93.689456,206.224420,111.994142,183.173823,96.523927" />
<polygon fill="#7b4838" fill-opacity="0.501961" points="34.740845,18.984337,67.163345,27.825394,75.614614,45.456284,39.638722,48.889687" />
<polygon fill="#e6d696" fill-opacity="0.501961" points="221.959065,121.491938,214.571973,32.674137,256.553244,26.972437,271.000000,36.039105" />
<polygon fill="#a07f66" fill-opacity="0.501961" points="10.159006,142.764424,39.895270,136.053664,36.639315,115.993483,-16.000000,121.702281" />
<polygon fill="#673726" fill-opacity="0.501961" points="170.924162,185.000000,141.523588,144.263398,135.142447,157.064829,161.199186,158.536640" />
<polygon fill="#e1d393" fill-opacity="0.501961" points="179.132955,127.356860,141.732608,140.900478,208.927817,178.281842,165.563872,114.125636" />
<polygon fill="#ae9b68" fill-opacity="0.501961" points="164.848151,154.137942,161.932667,157.492544,149.003529,158.678309,169.569596,151.704405" />
<polygon fill="#7c533c" fill-opacity="0.501961" points="72.647642,160.330232,88.430180,112.512219,78.228837,116.061099,80.911884,136.162206" />
<polygon fill="#ab745a" fill-opacity="0.501961" points="83.198138,116.376808,119.954577,143.361121,102.528130,112.794543,98.868636,87.605324" />
<polygon fill="#6f2f28" fill-opacity="0.501961" points="109.128670,10.383308,144.741824,5.333591,170.826117,9.664298,172.468306,44.954287" />
<polygon fill="#b69163" fill-opacity="0.501961" points="163.768911,136.780636,167.900604,120.208160,151.340418,111.231976,158.040328,110.259760" />
<polygon fill="#e5d397" fill-opacity="0.501961" points="54.963257,82.005581,-16.000000,56.838920,42.260918,51.453163,64.873701,47.284913" />
<polygon fill="#7d4f37" fill-opacity="0.501961" points="56.092590,12.207771,87.359860,104.890973,76.333757,98.894096,67.751399,51.550290" />
<polygon fill="#845037" fill-opacity="0.501961" points="13.642967,160.984621,-16.000000,140.939715,39.129330,151.848077,4.199544,185.000000" />
<polygon fill="#95724e" fill-opacity="0.501961" points="-11.391860,100.449419,-7.915989,119.814277,22.841133,109.414182,-9.523358,106.276065" />
<polygon fill="#bc8e5f" fill-opacity="0.501961" points="172.145280,60.485219,164.589107,55.964562,169.532114,47.758226,147.948324,55.097444" />
<polygon fill="#8e4b36" fill-opacity="0.501961" points="129.003977,74.899708,154.081909,68.914159,124.081247,47.573815,132.758773,39.396085" />
<polygon fill="#dac78a" fill-opacity="0.501961" points="271.000000,151.415604,206.065961,179.855346,236.283199,146.707777,222.594404,149.519120" />
<polygon fill="#885142" fill-opacity="0.501961" points="88.318356,7.434083,82.497654,20.827960,122.150768,-16.000000,134.574243,2.401545" />
<polygon fill="#916d3a" fill-opacity="0.501961" points="170.217797,116.607395,157.067015,104.327807,184.991448,126.111181,183.448523,132.299406" />
<polygon fill="#632914" fill-opacity="0.501961" points="128.124535,161.818386,81.065750,185.000000,102.254352,158.082742,158.625794,185.000000" />
<polygon fill="#754829" fill-opacity="0.501961" points="180.399764,185.000000,180.634628,165.479142,165.792900,157.393920,183.727930,185.000000" />
<polygon fill="#6b2d23" fill-opacity="0.501961" points="118.514237,72.137820,118.316709,12.731784,76.859128,49.534337,129.051215,58.650557" />
<polygon fill="#9a5d3e" fill-opacity="0.501961" points="178.350806,92.045491,161.349712,61.766562,149.307079,61.487973,170.384500,93.475996" />
<polygon fill="#b48970" fill-opacity="0.501961" points="61.681040,8.576602,75.228374,-1.360988,-16.000000,7.180621,36.289508,-16.000000" />
<polygon fill="#c4a276" fill-opacity="0.501961" points="136.548638,149.841172,133.278864,151.563287,135.612566,167.960471,126.597356,157.759733" />
<polygon fill="#ddd197" fill-opacity="0.501961" points="10.413325,68.743991,49.215550,64.955442,72.857540,78.051301,74.351546,117.927101" />
<polygon fill="#e4d79c" fill-opacity="0.501961" points="239.693756,124.014177,204.854326,127.468906,184.219743,139.412490,181.709206,171.277439" />
<polygon fill="#ad8a50" fill-opacity="0.501961" points="217.087445,31.161788,200.362882,32.408049,191.913368,31.756618,219.250583,29.675423" />
<polygon fill="#b2825b" fill-opacity="0.501961" points="122.096891,112.083082,134.535174,89.780082,149.799445,117.919033,138.664908,126.945870" />
<polygon fill="#dbd18b" fill-opacity="0.501961" points="170.681153,109.708726,184.690383,127.501529,228.713391,117.342904,178.631419,105.833927" />
<polygon fill="#865237" fill-opacity="0.501961" points="153.199179,132.965416,147.124455,137.905941,131.832104,133.578141,147.145030,126.419093" />
<polygon fill="#c2b666" fill-opacity="0.501961" points="202.679565,107.639630,202.922294,109.377363,185.184175,109.376450,203.021075,102.405882" />
<polygon fill="#763f31" fill-opacity="0.501961" points="90.078523,74.083712,80.986456,59.812047,113.246903,65.124841,88.702777,80.947496" />
</g>
</svg>