<svg xmlns="http://www.w3.org/2000/svg" version="1.1" width="1024" height="640">
<rect x="0" y="0" width="1024" height="640" fill="#3f2e34" />
<g transform="scale(2.000000) translate(0.5 0.5)">
<polygon fill="#dc997a" fill-opacity="0.501961" points="265.764592,254.148059,162.578022,252.801999,69.857408,95.130182,255.540056,119.594194" />
<polygon fill="#ffae6c" fill-opacity="0.501961" points="252.601980,213.308373,261.097614,132.685987,187.939519,123.480560,188.480852,197.060217" />
<polygon fill="#875744" fill-opacity="0.501961" points="423.986149,164.568457,454.179924,221.365070,179.577581,275.470986,322.560780,164.345768" />
<polygon fill="#000010" fill-opacity="0.501961" points="511.811882,-16.000000,448.382419,285.338156,-16.000000,286.420564,512.021429,335.000000" />
<polygon fill="#070118" fill-opacity="0.501961" points="-2.670688,335.000000,341.743741,320.852747,123.263340,293.931258,-3.338752,-16.000000" />
<polygon fill="#4d464c" fill-opacity="0.501961" points="292.944703,24.722336,126.027697,221.066334,-6.413039,121.318516,120.644588,132.788183" />
<polygon fill="#cfc6c3" fill-opacity="0.501961" points="90.986335,103.496549,124.616356,96.021727,154.892304,127.978673,54.439094,126.216611" />
<polygon fill="#9c9fb4" fill-opacity="0.501961" points="388.171792,136.858897,410.004629,118.546397,395.492178,90.923212,362.588368,124.458666" />
<polygon fill="#151226" fill-opacity="0.501961" points="527.000000,5.663651,176.625564,56.286187,53.460802,122.265005,-4.606333,-16.000000" />
<polygon fill="#6d3735" fill-opacity="0.501961" points="185.138986,151.677553,191.389499,210.654946,491.258406,279.276294,122.372302,266.321570" />
<polygon fill="#100d21" fill-opacity="0.501961" points="383.048233,-16.000000,413.574201,162.589787,477.845709,161.319353,509.282954,-5.388792" />
<polygon fill="#bfada5" fill-opacity="0.501961" points="163.323443,213.178947,124.279699,214.206694,114.417099,204.935861,174.507848,188.667890" />
<polygon fill="#363036" fill-opacity="0.501961" points="184.401483,214.576002,184.094998,12.775328,116.297967,51.917052,167.203611,169.301544" />
<polygon fill="#765d5b" fill-opacity="0.501961" points="70.186542,107.230839,104.905066,119.585970,131.981298,169.571377,28.783468,165.224964" />
<polygon fill="#141326" fill-opacity="0.501961" points="109.058768,186.316097,153.908357,126.614787,110.635950,141.263172,146.483430,172.349002" />
<polygon fill="#6d5c55" fill-opacity="0.501961" points="441.294564,93.378990,404.694204,68.496637,308.941316,94.222797,349.534050,97.334811" />
<polygon fill="#a84545" fill-opacity="0.501961" points="158.210808,233.351598,56.661070,233.341709,25.660733,228.324311,140.885218,225.142421" />
<polygon fill="#c6b0a9" fill-opacity="0.501961" points="139.190017,150.362803,156.806076,139.572118,135.476018,179.530082,171.763534,174.594681" />
<polygon fill="#cdbfb9" fill-opacity="0.501961" points="100.032643,96.975525,144.059605,109.744956,117.437087,140.463554,120.896216,168.725360" />
<polygon fill="#735e48" fill-opacity="0.501961" points="314.252989,261.246692,313.020391,163.089498,367.132191,293.294899,448.645289,242.748573" />
<polygon fill="#866a4f" fill-opacity="0.501961" points="370.178663,228.099801,407.805144,200.393096,387.734963,166.100986,302.307426,167.795899" />
<polygon fill="#180719" fill-opacity="0.501961" points="194.468563,206.948532,167.209065,228.096979,-16.000000,190.881931,114.995129,228.606218" />
<polygon fill="#0e132a" fill-opacity="0.501961" points="527.000000,156.604294,299.749336,161.892076,342.911912,92.186196,362.569224,134.803186" />
<polygon fill="#493c3e" fill-opacity="0.501961" points="259.361835,189.218206,245.293918,5.887626,355.900685,229.496633,241.605313,218.451838" />
<polygon fill="#0e0a1b" fill-opacity="0.501961" points="-15.962374,235.998010,-16.000000,335.000000,134.568571,321.609692,115.066709,233.378431" />
<polygon fill="#1e161d" fill-opacity="0.501961" points="437.532428,235.025570,363.286603,230.977985,325.994779,200.247403,363.880392,259.119538" />
<polygon fill="#020118" fill-opacity="0.501961" points="474.420431,176.630803,463.246947,321.717635,527.000000,335.000000,519.712390,194.959041" />
<polygon fill="#0d071b" fill-opacity="0.501961" points="259.699463,303.499682,527.000000,314.051994,304.606181,279.501477,305.054612,231.596571" />
<polygon fill="#000015" fill-opacity="0.501961" points="448.644037,66.312996,379.761988,70.120588,330.686257,60.510909,374.404702,54.608714" />
<polygon fill="#604c48" fill-opacity="0.501961" points="445.334290,118.407498,478.410633,141.385707,454.572031,97.118203,401.806981,73.284926" />
<polygon fill="#0f0b1d" fill-opacity="0.501961" points="430.365411,98.737320,497.104356,196.719129,448.198740,158.133922,385.955986,73.871381" />
<polygon fill="#40383c" fill-opacity="0.501961" points="296.430663,8.444589,88.667714,90.831411,204.567955,123.665900,320.809688,109.005853" />
<polygon fill="#452f38" fill-opacity="0.501961" points="136.016756,186.331419,87.253867,195.954515,57.142116,213.788552,23.555222,147.651489" />
<polygon fill="#d89a6d" fill-opacity="0.501961" points="225.209907,122.128322,258.000629,182.129901,214.601042,219.105363,188.893486,124.252384" />
<polygon fill="#b69e94" fill-opacity="0.501961" points="106.545257,164.642721,130.659005,100.487624,109.276642,149.511417,142.300219,158.501805" />
<polygon fill="#060518" fill-opacity="0.501961" points="384.149356,210.933640,400.037001,222.728832,389.587134,199.378715,386.146851,196.042951" />
<polygon fill="#0d0c1d" fill-opacity="0.501961" points="123.548298,154.974428,116.645367,141.053345,143.289791,121.965422,138.335284,151.592601" />
<polygon fill="#15101f" fill-opacity="0.501961" points="-13.957586,127.958879,98.079381,92.587522,43.534539,133.141311,7.410443,335.000000" />
<polygon fill="#2e1e2d" fill-opacity="0.501961" points="303.292632,177.495382,306.720103,218.249938,256.425474,211.939002,260.283535,204.390324" />
<polygon fill="#49342c" fill-opacity="0.501961" points="404.111544,244.109149,393.073282,292.049266,470.487437,279.788607,468.029376,212.610014" />
<polygon fill="#a9574d" fill-opacity="0.501961" points="261.606696,141.267769,254.888710,238.177273,171.695816,231.220117,250.962062,193.384345" />
<polygon fill="#493a3d" fill-opacity="0.501961" points="113.243488,131.767259,113.013841,137.406355,74.885689,147.848084,92.642050,114.667047" />
<polygon fill="#785e4b" fill-opacity="0.501961" points="334.901638,219.892794,362.525808,252.856074,336.039918,281.417739,307.339068,194.437098" />
<polygon fill="#8e6f60" fill-opacity="0.501961" points="401.449399,72.147819,442.814381,98.696004,433.097872,90.885365,365.834897,69.421917" />
<polygon fill="#968f9d" fill-opacity="0.501961" points="376.868126,109.412698,395.807788,92.998223,403.507343,97.211651,387.366806,130.776079" />
<polygon fill="#42151f" fill-opacity="0.501961" points="296.302746,265.093436,284.046911,285.526914,123.662602,287.347519,117.295685,260.635841" />
<polygon fill="#2a0e1f" fill-opacity="0.501961" points="49.588913,225.662604,187.384933,227.332409,99.874684,208.472519,89.119487,175.707808" />
<polygon fill="#1b1420" fill-opacity="0.501961" points="351.225432,205.753267,324.519714,205.264645,352.941526,233.320454,354.956056,210.460133" />
<polygon fill="#474959" fill-opacity="0.501961" points="416.922912,140.010809,348.729702,118.396506,388.484936,147.732915,404.342193,97.131079" />
<polygon fill="#896c54" fill-opacity="0.501961" points="310.206139,191.247124,364.253004,214.640055,403.197832,239.748534,370.956055,192.192261" />
<polygon fill="#a07d75" fill-opacity="0.501961" points="115.751362,199.061041,91.224399,186.154318,116.385103,209.483911,146.738118,215.007082" />
<polygon fill="#7c3737" fill-opacity="0.501961" points="142.949624,256.569872,251.592865,259.977387,213.631311,238.148435,108.980443,225.591664" />
<polygon fill="#7b665e" fill-opacity="0.501961" points="344.014438,99.706261,369.001984,95.208096,302.753271,93.469455,378.095972,81.439734" />
<polygon fill="#cf774e" fill-opacity="0.501961" points="185.507842,127.109749,185.566959,184.217216,212.892404,220.356396,202.670955,139.940020" />
<polygon fill="#6c4e3d" fill-opacity="0.501961" points="402.837708,290.063136,339.547069,286.960773,386.096813,246.989140,398.159750,249.591157" />
<polygon fill="#917c79" fill-opacity="0.501961" points="114.262183,163.936512,156.744819,151.591818,146.335645,108.695332,141.718815,150.604748" />
<polygon fill="#cebfb8" fill-opacity="0.501961" points="136.827804,117.365984,99.072898,111.942731,69.572401,113.820559,105.823804,98.403568" />
<polygon fill="#66292f" fill-opacity="0.501961" points="49.057548,235.342513,97.756313,224.857271,34.151579,222.344743,40.803466,263.259207" />
<polygon fill="#241b26" fill-opacity="0.501961" points="139.101574,166.265623,117.432106,183.514979,114.195536,166.954744,145.477772,156.979266" />
<polygon fill="#080619" fill-opacity="0.501961" points="477.901036,265.621954,450.513926,286.882368,299.784506,292.469256,454.052585,335.000000" />
<polygon fill="#0f1126" fill-opacity="0.501961" points="395.506606,84.838646,357.469774,122.301740,324.350266,123.347305,414.037967,85.136029" />
<polygon fill="#2c2933" fill-opacity="0.501961" points="165.681866,142.971911,155.649947,170.031223,149.520295,158.009200,167.472499,144.901112" />
<polygon fill="#302532" fill-opacity="0.501961" points="317.267996,-7.481010,99.792488,52.521080,343.039354,58.742748,421.747363,46.792567" />
<polygon fill="#b89f97" fill-opacity="0.501961" points="164.306554,164.108501,169.757392,172.420984,126.785012,176.707062,163.432045,163.340517" />
<polygon fill="#8c4444" fill-opacity="0.501961" points="298.236087,219.077253,235.953551,214.754175,127.433705,231.269392,267.982166,255.097824" />
<polygon fill="#010013" fill-opacity="0.501961" points="8.189598,197.006524,-16.000000,225.638033,12.945128,260.232402,37.892776,232.031181" />
<polygon fill="#493e3e" fill-opacity="0.501961" points="176.621313,70.058429,332.945817,111.388015,169.481567,124.392516,133.384609,107.783118" />
<polygon fill="#281e2a" fill-opacity="0.501961" points="99.064934,87.877673,44.114883,136.751581,2.680642,210.656816,-3.447406,-16.000000" />
<polygon fill="#826661" fill-opacity="0.501961" points="85.872331,174.617674,62.568269,146.554627,62.829897,137.811417,99.872066,164.383645" />
<polygon fill="#775d46" fill-opacity="0.501961" points="444.657779,242.372278,413.603572,172.604451,410.827181,217.543367,428.201009,229.022082" />
<polygon fill="#847a7a" fill-opacity="0.501961" points="161.383922,194.257958,175.945131,208.545084,170.070127,172.261065,137.396788,199.160735" />
<polygon fill="#454450" fill-opacity="0.501961" points="366.795673,88.616281,378.696257,144.797991,347.553068,137.656918,386.729262,92.222670" />
<polygon fill="#b5755d" fill-opacity="0.501961" points="258.324695,121.476215,258.209889,180.678628,252.028999,148.948695,218.211031,124.183307" />
<polygon fill="#423639" fill-opacity="0.501961" points="180.136750,220.433201,214.326258,219.087561,191.891638,219.583347,149.081393,49.874418" />
<polygon fill="#1f1a26" fill-opacity="0.501961" points="148.065563,133.980674,159.944249,124.681135,158.196104,142.088807,161.977798,149.232609" />
<polygon fill="#1d1426" fill-opacity="0.501961" points="163.639682,284.383160,305.348803,280.746259,298.557560,265.811311,359.533517,335.000000" />
<polygon fill="#42323b" fill-opacity="0.501961" points="63.166307,147.246253,44.650332,134.274867,29.766675,164.617447,76.247373,216.418341" />
<polygon fill="#4b312a" fill-opacity="0.501961" points="471.549809,164.677565,465.960097,258.400953,451.319143,234.943759,415.654462,162.335963" />
<polygon fill="#261c2c" fill-opacity="0.501961" points="463.934951,183.237599,527.000000,166.109730,509.095600,-16.000000,477.270025,44.075873" />
<polygon fill="#241920" fill-opacity="0.501961" points="393.756863,219.436926,411.028663,207.526350,400.146297,252.304377,433.006263,234.677542" />
<polygon fill="#0a0d1e" fill-opacity="0.501961" points="373.190593,76.886443,355.907965,74.646533,344.550206,85.951635,354.891123,85.853145" />
<polygon fill="#542d34" fill-opacity="0.501961" points="289.182217,207.358845,320.756548,249.835155,323.119231,222.332866,277.598748,284.279448" />
<polygon fill="#664c3e" fill-opacity="0.501961" points="444.755578,247.547734,419.156381,281.072751,430.330590,236.817071,387.466193,255.961359" />
<polygon fill="#4c3630" fill-opacity="0.501961" points="363.029448,276.314892,400.641675,281.547434,328.578717,283.465213,352.867166,239.928020" />
<polygon fill="#1f1626" fill-opacity="0.501961" points="145.568623,24.478631,56.855655,45.528407,-16.000000,-1.936370,170.730709,-0.854822" />
<polygon fill="#53333a" fill-opacity="0.501961" points="188.407116,192.528274,149.658355,226.031043,94.098527,207.667986,185.988284,220.085826" />
<polygon fill="#77645c" fill-opacity="0.501961" points="363.259611,102.550693,404.067939,79.683384,359.333005,96.327588,353.703615,103.125045" />
<polygon fill="#a1847c" fill-opacity="0.501961" points="76.129356,108.537603,151.106836,131.015584,92.146849,120.065165,64.664811,122.639071" />
<polygon fill="#0b0718" fill-opacity="0.501961" points="66.249939,221.821749,114.765471,224.673568,92.968335,199.246930,60.387310,220.375049" />
<polygon fill="#dea16d" fill-opacity="0.501961" points="203.434235,192.077104,191.455671,156.266557,242.383797,160.205737,248.763333,186.257590" />
<polygon fill="#221827" fill-opacity="0.501961" points="358.687912,38.342484,508.257320,45.748604,515.974220,-16.000000,341.400073,-7.355816" />
<polygon fill="#775c46" fill-opacity="0.501961" points="384.792266,238.163252,428.684998,196.083949,424.131237,200.131258,402.311648,235.848333" />
<polygon fill="#82665a" fill-opacity="0.501961" points="408.573216,78.189932,415.962540,84.846844,445.809397,115.325975,426.714128,88.363584" />
<polygon fill="#c2b1ab" fill-opacity="0.501961" points="159.783880,148.850873,149.998331,150.397891,147.245900,136.471106,142.757426,132.036529" />
<polygon fill="#0e0c1c" fill-opacity="0.501961" points="445.957223,50.306361,344.272633,66.073303,421.444841,72.751387,432.324116,50.931327" />
<polygon fill="#4a383c" fill-opacity="0.501961" points="141.731413,189.060222,99.577909,168.279874,137.949722,203.543830,120.863177,206.049098" />
<polygon fill="#392d36" fill-opacity="0.501961" points="101.293168,101.118796,79.960957,102.631461,103.812500,56.205559,359.365389,22.470603" />
<polygon fill="#443d40" fill-opacity="0.501961" points="327.098968,92.448361,288.613567,208.160674,256.583385,123.224199,377.766698,88.626854" />
<polygon fill="#866851" fill-opacity="0.501961" points="354.871943,217.065334,398.135870,168.991450,368.384702,231.859565,362.478304,233.772629" />
<polygon fill="#301821" fill-opacity="0.501961" points="28.435624,253.900875,33.738646,291.474304,51.593804,280.559151,53.191016,232.635692" />
<polygon fill="#a26b5c" fill-opacity="0.501961" points="195.420352,119.569625,223.718454,121.274117,188.366608,153.638355,187.070147,125.263447" />
<polygon fill="#654637" fill-opacity="0.501961" points="445.125559,185.865581,372.319343,192.449722,425.785393,163.093297,442.305430,164.738758" />
<polygon fill="#342327" fill-opacity="0.501961" points="456.595319,187.072123,471.526753,188.607176,339.246664,189.003992,317.945655,187.179235" />
<polygon fill="#5b4a3e" fill-opacity="0.501961" points="328.272675,284.418634,322.505797,285.715897,306.241684,276.593136,305.894525,218.467699" />
<polygon fill="#171627" fill-opacity="0.501961" points="336.061104,102.363270,312.282128,137.404109,379.131424,104.944655,333.717794,101.698659" />
<polygon fill="#af7a61" fill-opacity="0.501961" points="187.601543,196.318192,218.452179,218.247968,247.802042,212.352610,256.547451,197.691626" />
<polygon fill="#b49b94" fill-opacity="0.501961" points="163.134447,211.003277,142.622757,190.495934,131.886297,212.627481,145.730855,212.246041" />
<polygon fill="#755948" fill-opacity="0.501961" points="404.286331,252.696147,397.798737,277.737463,353.176239,276.210225,388.547930,248.869835" />
<polygon fill="#281a2a" fill-opacity="0.501961" points="100.908238,295.799509,251.622869,319.878588,305.571262,305.479106,287.189808,288.082780" />
<polygon fill="#302127" fill-opacity="0.501961" points="471.407038,255.373497,419.571245,294.845757,450.700615,250.624958,453.777903,184.407217" />
<polygon fill="#725142" fill-opacity="0.501961" points="314.199165,187.524605,304.966444,223.023483,306.107901,158.909194,354.586274,179.844438" />
<polygon fill="#816660" fill-opacity="0.501961" points="66.133738,172.921030,81.398977,161.121856,61.187127,121.765896,81.974312,120.564203" />
<polygon fill="#5a2a2f" fill-opacity="0.501961" points="124.796955,259.759040,118.944498,242.257541,162.315293,234.308338,220.409341,284.430498" />
<polygon fill="#211c23" fill-opacity="0.501961" points="371.276198,218.468266,382.524355,235.626263,387.785153,226.079866,373.132095,235.064339" />
<polygon fill="#c3b0a8" fill-opacity="0.501961" points="134.170272,128.719342,113.471297,132.540786,119.142792,154.650024,116.979086,98.688640" />
<polygon fill="#7b5d4d" fill-opacity="0.501961" points="356.935598,252.807161,315.444252,191.760843,338.512419,286.454325,342.025474,250.873999" />
<polygon fill="#612632" fill-opacity="0.501961" points="310.760710,218.598913,258.198004,226.231550,254.638893,211.083964,300.186999,211.452431" />
<polygon fill="#281d25" fill-opacity="0.501961" points="352.651580,206.894260,335.163612,228.007900,415.047166,253.646391,354.859413,229.278496" />
<polygon fill="#2b1f27" fill-opacity="0.501961" points="385.388012,76.750237,368.789382,81.610784,401.443161,82.089659,396.520292,75.722601" />
<polygon fill="#130d1f" fill-opacity="0.501961" points="394.398896,162.583115,444.920366,127.658279,473.085161,143.022891,448.360866,162.325748" />
<polygon fill="#0b0819" fill-opacity="0.501961" points="435.770821,107.964921,430.118055,114.876947,408.032405,83.003140,391.434307,89.511839" />
<polygon fill="#a28878" fill-opacity="0.501961" points="333.480907,88.830807,360.512833,85.570907,314.538506,96.012205,317.085959,91.440336" />
<polygon fill="#9e5550" fill-opacity="0.501961" points="302.492501,227.896364,219.046626,222.084874,155.612425,230.805707,272.599245,232.659107" />
<polygon fill="#a15943" fill-opacity="0.501961" points="194.343286,190.173081,183.768121,180.495410,188.883171,211.211610,215.904927,218.437357" />
<polygon fill="#754432" fill-opacity="0.501961" points="321.553017,162.487028,416.411952,180.088887,395.075021,162.277790,366.148966,163.227547" />
<polygon fill="#896b53" fill-opacity="0.501961" points="409.358713,192.965871,378.215124,192.360570,406.135229,211.743101,409.875674,165.441464" />
<polygon fill="#241d29" fill-opacity="0.501961" points="458.048539,108.503283,458.901535,128.085680,431.853649,91.888942,456.329311,107.234771" />
<polygon fill="#886d66" fill-opacity="0.501961" points="77.113428,169.241252,96.575490,161.303235,100.147998,149.135870,126.150738,160.511159" />
<polygon fill="#7b635f" fill-opacity="0.501961" points="153.717893,116.590948,141.747248,183.889046,147.126871,127.070045,122.684053,132.223777" />
<polygon fill="#695b5a" fill-opacity="0.501961" points="162.226818,216.822451,171.891890,175.223697,179.935186,212.034047,175.024934,214.250507" />
<polygon fill="#bfa8a0" fill-opacity="0.501961" points="153.273577,174.720359,141.216833,171.840802,147.804639,162.788699,167.574773,171.572089" />
<polygon fill="#857d8b" fill-opacity="0.501961" points="404.578506,134.281952,380.805423,122.372489,381.334116,106.047672,390.343872,93.395673" />
<polygon fill="#271e25" fill-opacity="0.501961" points="387.261376,205.875124,392.421593,201.346544,400.426594,227.100071,387.367662,218.955078" />
<polygon fill="#3f363b" fill-opacity="0.501961" points="262.134311,39.828894,128.661399,88.714349,337.608684,89.430208,347.760671,56.256674" />
<polygon fill="#2a252f" fill-opacity="0.501961" points="151.672443,151.595609,164.519123,161.371177,152.197613,162.650280,149.374746,157.078663" />
<polygon fill="#1b1122" fill-opacity="0.501961" points="180.852864,318.435781,139.546984,322.601244,41.238502,285.323103,171.143218,284.461200" />
<polygon fill="#914e4b" fill-opacity="0.501961" points="235.234596,231.067582,135.165099,228.191179,30.822363,230.646304,111.729024,233.126504" />
<polygon fill="#292732" fill-opacity="0.501961" points="141.245720,180.657726,145.918054,190.269366,150.717495,195.889610,147.428259,181.299510" />
<polygon fill="#c6b5af" fill-opacity="0.501961" points="148.141347,115.381292,109.701432,97.321320,98.504208,104.129011,100.135082,115.321135" />
<polygon fill="#1b111c" fill-opacity="0.501961" points="426.967968,228.980669,440.189080,243.536683,420.542485,237.269247,405.404402,225.591345" />
<polygon fill="#886c5f" fill-opacity="0.501961" points="394.137125,76.586205,427.757420,73.822470,422.035522,73.576504,376.247036,71.162484" />
<polygon fill="#463b3d" fill-opacity="0.501961" points="156.083491,123.871237,141.854723,109.979032,183.796137,66.773535,338.086806,99.459839" />
<polygon fill="#4a3b3f" fill-opacity="0.501961" points="82.747026,128.539494,97.119037,143.264217,96.390867,113.199127,75.908418,153.904392" />
<polygon fill="#292839" fill-opacity="0.501961" points="410.508996,80.809186,408.504084,133.821502,301.294436,148.308991,426.490930,146.921869" />
<polygon fill="#181323" fill-opacity="0.501961" points="139.498777,150.960697,118.602968,144.949526,133.841051,129.695685,145.606310,134.200159" />
<polygon fill="#d58654" fill-opacity="0.501961" points="258.393316,186.121171,253.947796,145.221177,234.880150,203.522965,253.889579,194.620679" />
<polygon fill="#7e604d" fill-opacity="0.501961" points="339.398324,180.477999,303.008275,185.727470,378.266912,187.460009,445.686406,185.044478" />
<polygon fill="#1f1a2c" fill-opacity="0.501961" points="375.521274,98.900632,311.690213,168.716071,309.151443,141.469040,333.614484,109.406753" />
<polygon fill="#241e2c" fill-opacity="0.501961" points="460.319566,175.252946,404.382422,87.464353,336.678913,105.384912,395.606738,86.387188" />
<polygon fill="#7c423d" fill-opacity="0.501961" points="241.638562,257.735601,217.814023,231.808438,137.538542,254.544813,195.504060,256.905161" />
<polygon fill="#231929" fill-opacity="0.501961" points="414.582235,79.622635,527.000000,127.048705,468.038309,-16.000000,422.117441,74.620369" />
<polygon fill="#b89f97" fill-opacity="0.501961" points="112.104346,158.259178,140.344333,154.854486,127.306041,160.862658,112.658750,145.613634" />
<polygon fill="#836b5f" fill-opacity="0.501961" points="392.350601,83.195758,346.595458,91.510744,372.980697,76.739413,368.599299,82.953830" />
<polygon fill="#4b312d" fill-opacity="0.501961" points="362.349383,288.530643,429.342794,288.398462,372.165030,273.972012,348.765478,288.399389" />
<polygon fill="#160f1e" fill-opacity="0.501961" points="348.900995,95.909581,363.496959,93.858885,365.137679,93.855156,373.928691,88.203577" />
<polygon fill="#604f51" fill-opacity="0.501961" points="54.157321,131.067540,35.415443,154.976719,53.970367,125.449291,81.927522,105.030876" />
<polygon fill="#514d5a" fill-opacity="0.501961" points="401.174116,94.066671,411.913912,132.511087,355.616708,129.565095,399.013698,137.720350" />
<polygon fill="#2b212d" fill-opacity="0.501961" points="257.568121,207.717308,259.849065,199.167761,305.129220,200.393441,304.773324,209.423551" />
<polygon fill="#ae928b" fill-opacity="0.501961" points="121.440304,210.384362,161.262502,207.260294,134.583941,215.577937,99.742359,189.799344" />
<polygon fill="#43393f" fill-opacity="0.501961" points="144.555422,165.291606,139.505974,161.256176,130.279757,174.891075,148.633440,143.941923" />
<polygon fill="#120b1b" fill-opacity="0.501961" points="307.774211,286.870533,308.557938,280.082582,235.807516,283.959607,163.725197,288.818121" />
<polygon fill="#614c3f" fill-opacity="0.501961" points="424.624267,224.925251,443.816927,233.914926,454.129436,209.897161,425.892599,198.833124" />
<polygon fill="#3e2a2b" fill-opacity="0.501961" points="427.808189,56.251226,408.624242,39.276593,348.235043,39.675633,370.834144,56.879838" />
<polygon fill="#2c2529" fill-opacity="0.501961" points="410.889668,187.745503,405.920689,207.311438,410.477178,211.217744,410.421421,201.713348" />
<polygon fill="#171123" fill-opacity="0.501961" points="461.089786,304.030736,279.116152,318.900030,527.000000,324.202158,469.442753,265.952862" />
<polygon fill="#987f78" fill-opacity="0.501961" points="157.320654,176.795156,123.375757,176.377563,169.537454,173.369718,165.511158,209.186397" />
<polygon fill="#1c1624" fill-opacity="0.501961" points="117.819855,234.402383,28.513853,246.593043,113.764136,269.196512,122.691294,321.366651" />
<polygon fill="#362226" fill-opacity="0.501961" points="400.108215,272.094950,410.345327,231.195569,407.232094,269.342565,421.496020,285.008607" />
<polygon fill="#5b4845" fill-opacity="0.501961" points="471.235349,128.066418,452.994334,132.463198,461.388479,124.542572,462.507269,104.262941" />
<polygon fill="#602f31" fill-opacity="0.501961" points="299.377402,251.758042,247.603945,270.836984,179.534155,261.121871,244.122548,257.006919" />
<polygon fill="#856752" fill-opacity="0.501961" points="372.105640,198.581509,318.227673,205.827547,350.805972,189.945492,384.264993,197.371044" />
<polygon fill="#877167" fill-opacity="0.501961" points="375.890508,98.233090,359.585832,101.555409,386.622680,88.299276,363.940752,95.310772" />
<polygon fill="#111222" fill-opacity="0.501961" points="366.458084,112.217740,378.591269,104.217871,390.870805,94.779712,404.977972,79.810751" />
<polygon fill="#785b47" fill-opacity="0.501961" points="384.995196,236.824013,402.747237,229.193418,432.834587,203.679153,384.389074,232.597931" />
<polygon fill="#a58d8a" fill-opacity="0.501961" points="156.606088,191.694619,152.711439,190.029855,155.935958,179.134291,149.213909,182.472447" />
<polygon fill="#7a5c4c" fill-opacity="0.501961" points="315.462434,226.748381,339.592635,248.388824,337.515372,216.249994,318.610545,205.180273" />
<polygon fill="#c99f76" fill-opacity="0.501961" points="205.985845,127.497730,236.280443,124.754976,225.724728,143.126334,216.144117,143.190627" />
<polygon fill="#aa9690" fill-opacity="0.501961" points="132.000595,112.550153,131.007921,100.757812,147.209833,117.236855,105.508950,130.256809" />
<polygon fill="#463c3d" fill-opacity="0.501961" points="259.793193,160.010193,320.179233,208.775273,323.694016,198.200451,261.333844,202.386481" />
<polygon fill="#0a0618" fill-opacity="0.501961" points="489.808740,280.166621,468.808037,246.916817,466.159123,302.780822,323.299371,303.132445" />
<polygon fill="#cfbeb6" fill-opacity="0.501961" points="136.229756,119.742629,114.699202,102.507070,91.881627,107.711631,138.356912,126.039280" />
<polygon fill="#492a32" fill-opacity="0.501961" points="163.256604,220.074315,188.497882,198.459208,179.895412,225.856307,105.999719,209.022045" />
<polygon fill="#77594e" fill-opacity="0.501961" points="204.272500,123.701141,255.202893,122.012296,262.567061,122.701565,252.334897,114.056783" />
<polygon fill="#2c222e" fill-opacity="0.501961" points="134.238785,100.721941,83.376419,46.192573,23.351676,137.319180,102.571039,94.485486" />
<polygon fill="#1c192a" fill-opacity="0.501961" points="405.575724,163.729233,457.343712,121.777838,377.172227,165.279017,355.958025,152.294251" />
<polygon fill="#8b6f62" fill-opacity="0.501961" points="397.726195,76.156367,378.832247,73.115902,393.093230,69.207689,419.014292,91.290058" />
<polygon fill="#534043" fill-opacity="0.501961" points="136.018206,167.477447,105.098402,206.636030,97.696252,194.446738,131.373371,203.519896" />
<polygon fill="#c5b2ac" fill-opacity="0.501961" points="109.636608,125.831440,128.886585,131.908269,127.691752,106.960448,118.836238,137.632824" />
<polygon fill="#8e726e" fill-opacity="0.501961" points="150.592670,150.551428,138.738207,183.389986,130.247600,179.549150,138.543961,169.991757" />
<polygon fill="#241a26" fill-opacity="0.501961" points="-0.670025,113.284553,-16.000000,199.822700,33.447770,200.805952,36.519612,105.541487" />
<polygon fill="#6f4241" fill-opacity="0.501961" points="55.668146,230.614825,41.349925,228.634769,36.371972,225.253532,37.679224,236.134218" />
<polygon fill="#5c3630" fill-opacity="0.501961" points="302.754191,166.437478,327.443243,157.372461,350.513278,181.524998,342.941536,158.485049" />
<polygon fill="#1b0d1b" fill-opacity="0.501961" points="148.680250,224.686979,50.120796,209.159365,-4.179957,196.829417,47.924239,223.510865" />
<polygon fill="#2a1d26" fill-opacity="0.501961" points="337.734073,203.011055,354.973615,248.290986,381.000283,230.856407,379.680963,257.026173" />
<polygon fill="#735747" fill-opacity="0.501961" points="354.314500,279.130812,368.969935,254.952273,385.460629,256.345314,390.251835,273.913421" />
<polygon fill="#674c3e" fill-opacity="0.501961" points="437.886536,244.676993,429.348626,265.589888,410.618957,248.796556,418.062404,240.507499" />
<polygon fill="#7f675c" fill-opacity="0.501961" points="397.915573,72.118571,361.141808,69.584800,365.221938,74.103249,394.262640,73.348802" />
<polygon fill="#0f0c1d" fill-opacity="0.501961" points="349.782462,66.277409,371.491884,67.474830,398.813068,59.791744,353.011518,53.341613" />
<polygon fill="#2e1725" fill-opacity="0.501961" points="95.632476,191.426572,84.079873,168.126963,90.991566,208.086731,25.242471,220.819845" />
<polygon fill="#0f0b1e" fill-opacity="0.501961" points="34.507804,335.000000,29.474168,273.342304,35.919816,236.629321,-16.000000,253.794985" />
<polygon fill="#8a6c5f" fill-opacity="0.501961" points="434.136088,101.044610,416.928032,82.655861,431.504348,94.322046,442.917236,111.105874" />
<polygon fill="#281f2f" fill-opacity="0.501961" points="168.662254,-16.000000,94.832134,73.401016,188.301066,26.860485,395.600187,9.708747" />
<polygon fill="#3e2e35" fill-opacity="0.501961" points="81.181250,189.392393,130.117185,189.519165,112.935012,167.100007,41.545543,193.859781" />
<polygon fill="#27141d" fill-opacity="0.501961" points="357.189972,255.661710,347.673230,253.554451,350.854571,252.797131,359.114252,266.418251" />
<polygon fill="#352b35" fill-opacity="0.501961" points="318.034722,11.911280,355.974955,70.521291,346.000324,86.301763,277.283076,30.331808" />
<polygon fill="#3c2a2b" fill-opacity="0.501961" points="424.803561,282.592398,450.917869,287.639446,467.797280,279.065230,467.423093,195.035572" />
<polygon fill="#8f4842" fill-opacity="0.501961" points="200.899501,256.846034,187.449732,246.612531,233.773251,259.822529,261.320061,232.100512" />
<polygon fill="#55423f" fill-opacity="0.501961" points="449.663194,126.576035,441.651725,121.779207,440.685057,108.528899,446.006422,108.585714" />
<polygon fill="#584239" fill-opacity="0.501961" points="450.093047,262.185216,450.981551,241.891947,444.944394,250.884287,422.104862,250.562856" />
<polygon fill="#3d2e2d" fill-opacity="0.501961" points="308.900341,244.387169,310.769311,265.475054,329.883988,260.470908,320.207433,276.300552" />
<polygon fill="#43383b" fill-opacity="0.501961" points="129.360173,102.969517,180.861851,124.547884,145.399962,138.494500,164.917361,104.322831" />
<polygon fill="#938c98" fill-opacity="0.501961" points="396.380501,105.763327,389.009628,118.984789,379.881898,109.450917,393.371566,92.446711" />
<polygon fill="#4e2925" fill-opacity="0.501961" points="410.746375,167.549755,412.008389,156.952631,467.736435,184.187403,443.942845,158.666687" />
<polygon fill="#49242b" fill-opacity="0.501961" points="300.526406,206.752147,293.502882,279.700049,186.371991,283.182814,306.824872,251.055492" />
<polygon fill="#0d0819" fill-opacity="0.501961" points="463.613925,134.539816,443.217942,128.993081,447.563208,162.192590,468.367439,161.038528" />
<polygon fill="#765a4b" fill-opacity="0.501961" points="332.929442,248.992796,359.764287,253.281175,333.153453,229.091418,310.254396,273.328175" />
<polygon fill="#2c1d25" fill-opacity="0.501961" points="358.917985,243.805094,397.313066,232.529776,362.376223,260.588234,360.720049,252.336975" />
<polygon fill="#695042" fill-opacity="0.501961" points="330.276159,279.444863,327.635522,265.119087,373.631357,270.672993,421.772308,246.101307" />
<polygon fill="#947c70" fill-opacity="0.501961" points="396.197134,87.523037,396.515155,83.151755,342.120567,87.660459,387.284453,82.711686" />
<polygon fill="#61443f" fill-opacity="0.501961" points="228.790947,238.096214,218.475304,251.717985,220.401301,248.631942,199.508293,240.750756" />
<polygon fill="#d0764b" fill-opacity="0.501961" points="191.356443,133.259038,200.563741,206.249106,187.673088,184.883144,186.565293,160.490667" />
<polygon fill="#9f8883" fill-opacity="0.501961" points="140.927635,158.207109,143.950015,147.582856,128.207392,163.731399,128.452604,155.974683" />
<polygon fill="#302f3f" fill-opacity="0.501961" points="333.418974,136.458974,387.240957,98.094979,361.186927,129.076547,392.315468,150.396373" />
<polygon fill="#241b2a" fill-opacity="0.501961" points="527.000000,214.190841,417.538776,35.648063,527.000000,38.720849,500.552160,202.746938" />
<polygon fill="#211320" fill-opacity="0.501961" points="94.784016,224.185905,153.796730,226.091557,178.954487,222.213854,161.320997,222.364799" />
<polygon fill="#866750" fill-opacity="0.501961" points="409.349495,207.155710,379.692659,195.382015,398.699418,190.972154,394.451994,213.909084" />
<polygon fill="#83383b" fill-opacity="0.501961" points="180.983164,215.158075,208.752913,220.004426,151.822095,229.387719,179.087332,228.187159" />
<polygon fill="#57525b" fill-opacity="0.501961" points="382.198833,95.296605,366.700759,105.147978,373.138522,106.103731,385.507208,92.840841" />
<polygon fill="#876952" fill-opacity="0.501961" points="384.704031,210.917527,379.814564,233.018019,365.361101,202.654619,379.302399,191.530728" />
<polygon fill="#6b3c40" fill-opacity="0.501961" points="305.081187,216.061423,308.217376,224.682926,276.075717,243.433641,274.459540,231.976857" />
<polygon fill="#544346" fill-opacity="0.501961" points="80.358973,121.175227,96.810675,146.793557,91.446591,151.427390,114.117427,136.886059" />
<polygon fill="#9e837b" fill-opacity="0.501961" points="123.170890,118.637981,116.682836,154.115489,121.308277,127.160960,95.874225,122.268981" />
<polygon fill="#2d1f24" fill-opacity="0.501961" points="434.125222,201.647903,462.029757,207.871895,464.657587,231.244822,452.804173,200.050574" />
<polygon fill="#816561" fill-opacity="0.501961" points="101.148541,151.234628,114.512707,133.376012,110.508484,164.552820,107.560701,168.662494" />
<polygon fill="#795845" fill-opacity="0.501961" points="402.352106,166.479509,415.476411,215.726244,430.041164,202.919789,381.459612,172.935754" />
<polygon fill="#0e091b" fill-opacity="0.501961" points="468.290186,183.303126,502.054522,177.529012,527.000000,270.886959,472.829101,288.375290" />
<polygon fill="#725545" fill-opacity="0.501961" points="407.178614,278.387889,380.737666,250.641240,399.792923,247.444092,361.960433,269.858132" />
<polygon fill="#311c23" fill-opacity="0.501961" points="348.423714,280.958177,368.326251,281.941252,411.938534,281.973664,412.057138,279.559512" />
<polygon fill="#503b34" fill-opacity="0.501961" points="463.196856,189.351972,450.106425,174.091400,448.540535,204.012677,418.821635,190.559222" />
<polygon fill="#9d807b" fill-opacity="0.501961" points="92.230105,111.032940,69.707041,129.293706,77.073095,127.468191,65.359578,115.667903" />
<polygon fill="#5c4849" fill-opacity="0.501961" points="123.280975,207.327270,66.882215,154.797123,123.545412,199.548031,142.195914,188.678181" />
<polygon fill="#593e34" fill-opacity="0.501961" points="369.512005,285.663929,427.213670,280.414183,427.819085,280.403572,405.732710,289.311459" />
<polygon fill="#90523e" fill-opacity="0.501961" points="261.972945,162.355710,257.592382,226.186832,257.636086,165.045265,253.142593,132.290988" />
<polygon fill="#977a72" fill-opacity="0.501961" points="103.443027,191.597483,136.075666,212.814790,140.800458,191.066623,128.083629,211.397086" />
<polygon fill="#bf8868" fill-opacity="0.501961" points="232.771373,212.394163,221.823755,213.084042,212.858390,197.113984,252.258070,191.954879" />
<polygon fill="#453b3e" fill-opacity="0.501961" points="273.830244,169.429015,241.841366,55.432329,326.638113,100.538596,349.624998,90.335881" />
<polygon fill="#735b57" fill-opacity="0.501961" points="74.991217,122.482835,97.728913,115.917768,56.777960,140.508505,77.808450,171.213277" />
<polygon fill="#b5836b" fill-opacity="0.501961" points="260.671685,127.666491,258.708689,126.486351,239.487694,138.977036,214.173608,125.497197" />
<polygon fill="#110e1e" fill-opacity="0.501961" points="393.436961,84.808669,392.805721,90.413278,436.352190,110.196624,420.626943,94.674993" />
<polygon fill="#695f6e" fill-opacity="0.501961" points="403.659144,100.366621,401.132541,124.695546,393.563382,136.566767,398.106915,94.223917" />
<polygon fill="#4a3b42" fill-opacity="0.501961" points="60.809948,179.638097,58.291783,130.349167,31.926520,158.731907,85.123325,167.160685" />
<polygon fill="#b8a7a1" fill-opacity="0.501961" points="147.095375,150.674334,150.715232,140.557044,159.985056,152.294340,148.430050,145.379620" />
<polygon fill="#2e2432" fill-opacity="0.501961" points="152.419686,49.631899,376.216593,11.096966,350.679494,55.510692,261.544549,-10.596275" />
<polygon fill="#b39d97" fill-opacity="0.501961" points="151.235634,175.527706,149.324445,151.293129,143.130813,168.746030,166.245526,169.308264" />
<polygon fill="#221b29" fill-opacity="0.501961" points="132.697180,174.372696,145.722999,155.393929,123.903646,170.177449,123.981507,172.674142" />
<polygon fill="#2d2129" fill-opacity="0.501961" points="338.043048,229.350013,343.694431,213.123751,351.754066,203.980847,355.154358,232.283970" />
</g>
</svg>