<svg xmlns="http://www.w3.org/2000/svg" version="1.1" width="1024" height="768">
<rect x="0" y="0" width="1024" height="768" fill="#423e34" />
<g transform="scale(4.000000) translate(0.5 0.5)">
<polygon fill="#0a0808" fill-opacity="0.501961" points="253,106 271,185 -16,134" />
<polygon fill="#a7a393" fill-opacity="0.501961" points="119,-16 181,103 166,28" />
<polygon fill="#616151" fill-opacity="0.501961" points="-14,178 193,139 217,207" />
<polygon fill="#8f8a78" fill-opacity="0.501961" points="83,40 31,7 113,116" />
<polygon fill="#000000" fill-opacity="0.501961" points="-16,125 19,167 170,132" />
<polygon fill="#5e5442" fill-opacity="0.501961" points="198,-16 146,5 217,161" />
<polygon fill="#110e0a" fill-opacity="0.501961" points="271,190 235,105 201,192" />
<polygon fill="#5a5956" fill-opacity="0.501961" points="211,-16 271,13 229,113" />
<polygon fill="#1b1e24" fill-opacity="0.501961" points="154,194 193,159 67,195" />
<polygon fill="#545352" fill-opacity="0.501961" points="49,35 88,-16 175,114" />
<polygon fill="#776e4d" fill-opacity="0.501961" points="29,46 50,38 72,117" />
<polygon fill="#423724" fill-opacity="0.501961" points="219,189 150,11 211,91" />
<polygon fill="#7d7b6e" fill-opacity="0.501961" points="186,26 208,68 194,-7" />
<polygon fill="#71694e" fill-opacity="0.501961" points="176,164 87,185 176,137" />
<polygon fill="#787458" fill-opacity="0.501961" points="39,203 20,182 115,174" />
<polygon fill="#1e1716" fill-opacity="0.501961" points="79,113 190,146 212,115" />
<polygon fill="#150b00" fill-opacity="0.501961" points="209,59 223,91 217,125" />
<polygon fill="#74807e" fill-opacity="0.501961" points="150,207 199,207 205,167" />
<polygon fill="#a2a39b" fill-opacity="0.501961" points="161,56 153,22 130,0" />
<polygon fill="#84805c" fill-opacity="0.501961" points="-1,78 26,115 11,113" />
<polygon fill="#999886" fill-opacity="0.501961" points="80,57 62,52 46,20" />
<polygon fill="#000006" fill-opacity="0.501961" points="38,-11 34,2 57,26" />
<polygon fill="#767e85" fill-opacity="0.501961" points="242,28 256,57 245,-3" />
<polygon fill="#4d4838" fill-opacity="0.501961" points="157,114 103,94 59,28" />
<polygon fill="#2b1b0f" fill-opacity="0.501961" points="90,127 55,110 8,120" />
<polygon fill="#050805" fill-opacity="0.501961" points="-13,-9 1,-14 20,38" />
<polygon fill="#423621" fill-opacity="0.501961" points="118,125 86,129 38,48" />
<polygon fill="#3f3529" fill-opacity="0.501961" points="118,126 196,126 160,71" />
<polygon fill="#000000" fill-opacity="0.501961" points="102,128 20,150 -13,127" />
<polygon fill="#020606" fill-opacity="0.501961" points="174,129 196,125 181,163" />
<polygon fill="#6b644c" fill-opacity="0.501961" points="98,109 64,83 56,52" />
<polygon fill="#8e845b" fill-opacity="0.501961" points="53,77 81,118 66,115" />
<polygon fill="#463f2c" fill-opacity="0.501961" points="222,111 259,115 244,16" />
<polygon fill="#554e3e" fill-opacity="0.501961" points="216,114 187,-16 163,47" />
<polygon fill="#4a4935" fill-opacity="0.501961" points="11,153 91,169 -16,176" />
<polygon fill="#271911" fill-opacity="0.501961" points="200,7 219,49 210,72" />
<polygon fill="#969379" fill-opacity="0.501961" points="98,87 68,43 76,71" />
<polygon fill="#000000" fill-opacity="0.501961" points="81,93 88,111 100,116" />
<polygon fill="#4a4327" fill-opacity="0.501961" points="15,110 66,113 -14,-16" />
<polygon fill="#868982" fill-opacity="0.501961" points="250,39 260,106 271,86" />
<polygon fill="#969381" fill-opacity="0.501961" points="163,46 160,69 183,99" />
<polygon fill="#838177" fill-opacity="0.501961" points="171,42 156,5 157,24" />
<polygon fill="#100905" fill-opacity="0.501961" points="5,107 15,117 -4,124" />
<polygon fill="#0d151c" fill-opacity="0.501961" points="190,130 56,162 91,127" />
<polygon fill="#757477" fill-opacity="0.501961" points="98,31 90,6 115,42" />
<polygon fill="#060708" fill-opacity="0.501961" points="158,17 159,29 150,8" />
<polygon fill="#2d364b" fill-opacity="0.501961" points="33,-16 128,0 70,22" />
<polygon fill="#434a4e" fill-opacity="0.501961" points="85,196 209,165 152,207" />
<polygon fill="#807c61" fill-opacity="0.501961" points="27,29 28,45 12,13" />
<polygon fill="#17170d" fill-opacity="0.501961" points="50,61 55,81 75,96" />
<polygon fill="#999677" fill-opacity="0.501961" points="45,69 55,75 61,94" />
<polygon fill="#49493d" fill-opacity="0.501961" points="174,138 142,168 75,162" />
<polygon fill="#1a191e" fill-opacity="0.501961" points="248,3 258,64 271,46" />
<polygon fill="#85807a" fill-opacity="0.501961" points="161,2 165,-10 173,23" />
<polygon fill="#a4a7a4" fill-opacity="0.501961" points="144,-3 121,-16 139,7" />
<polygon fill="#726545" fill-opacity="0.501961" points="226,56 231,109 219,89" />
<polygon fill="#232935" fill-opacity="0.501961" points="80,16 69,-16 105,37" />
<polygon fill="#69624f" fill-opacity="0.501961" points="120,100 105,55 88,53" />
<polygon fill="#3b3727" fill-opacity="0.501961" points="21,22 45,60 32,-15" />
<polygon fill="#939282" fill-opacity="0.501961" points="153,88 162,94 150,77" />
<polygon fill="#847d70" fill-opacity="0.501961" points="159,113 151,110 145,93" />
<polygon fill="#85867a" fill-opacity="0.501961" points="33,2 39,16 55,26" />
<polygon fill="#1a150d" fill-opacity="0.501961" points="172,163 204,155 201,145" />
<polygon fill="#26200d" fill-opacity="0.501961" points="23,54 48,79 17,25" />
<polygon fill="#919391" fill-opacity="0.501961" points="197,4 188,-7 198,23" />
<polygon fill="#5e5a4c" fill-opacity="0.501961" points="23,1 62,59 38,46" />
<polygon fill="#a09d90" fill-opacity="0.501961" points="189,18 196,44 188,32" />
<polygon fill="#5a5744" fill-opacity="0.501961" points="17,61 47,87 6,21" />
<polygon fill="#101216" fill-opacity="0.501961" points="104,-14 135,29 118,-16" />
<polygon fill="#171613" fill-opacity="0.501961" points="215,120 218,207 271,129" />
<polygon fill="#49372a" fill-opacity="0.501961" points="210,111 216,124 255,125" />
<polygon fill="#2c2719" fill-opacity="0.501961" points="24,30 48,45 21,3" />
<polygon fill="#000000" fill-opacity="0.501961" points="58,207 14,198 107,187" />
<polygon fill="#25201c" fill-opacity="0.501961" points="185,-10 193,25 194,7" />
<polygon fill="#888275" fill-opacity="0.501961" points="174,23 169,26 180,43" />
<polygon fill="#22201c" fill-opacity="0.501961" points="61,24 69,41 52,21" />
<polygon fill="#171516" fill-opacity="0.501961" points="165,21 160,-16 149,-16" />
<polygon fill="#645d47" fill-opacity="0.501961" points="87,113 54,64 75,78" />
<polygon fill="#767061" fill-opacity="0.501961" points="129,51 148,79 146,65" />
<polygon fill="#8f8b74" fill-opacity="0.501961" points="24,37 37,56 33,43" />
<polygon fill="#2d2e2d" fill-opacity="0.501961" points="131,64 141,98 105,43" />
<polygon fill="#2d271e" fill-opacity="0.501961" points="191,28 177,8 190,47" />
<polygon fill="#2c2a22" fill-opacity="0.501961" points="155,89 134,73 124,45" />
<polygon fill="#060604" fill-opacity="0.501961" points="177,98 182,108 192,113" />
<polygon fill="#696854" fill-opacity="0.501961" points="5,161 -16,171 25,184" />
<polygon fill="#151518" fill-opacity="0.501961" points="171,14 180,27 178,36" />
<polygon fill="#68655d" fill-opacity="0.501961" points="229,30 222,54 218,-1" />
<polygon fill="#6d7280" fill-opacity="0.501961" points="84,4 82,-16 99,22" />
<polygon fill="#7f7a6f" fill-opacity="0.501961" points="179,36 179,17 191,54" />
<polygon fill="#595751" fill-opacity="0.501961" points="103,35 148,103 135,63" />
<polygon fill="#353024" fill-opacity="0.501961" points="99,75 105,93 83,62" />
<polygon fill="#412c22" fill-opacity="0.501961" points="87,114 132,127 60,127" />
<polygon fill="#201c13" fill-opacity="0.501961" points="86,98 79,98 70,80" />
<polygon fill="#70674c" fill-opacity="0.501961" points="97,100 81,93 103,117" />
<polygon fill="#0b0800" fill-opacity="0.501961" points="9,110 -16,79 -10,61" />
<polygon fill="#2d2f34" fill-opacity="0.501961" points="102,-5 80,-14 117,44" />
<polygon fill="#7a7458" fill-opacity="0.501961" points="98,184 145,168 106,168" />
<polygon fill="#868061" fill-opacity="0.501961" points="36,109 27,101 35,117" />
<polygon fill="#0f0900" fill-opacity="0.501961" points="233,107 236,97 231,86" />
<polygon fill="#6f6859" fill-opacity="0.501961" points="53,14 85,60 77,34" />
<polygon fill="#7c7e6b" fill-opacity="0.501961" points="2,52 11,71 10,61" />
<polygon fill="#7b7966" fill-opacity="0.501961" points="5,-1 16,18 14,7" />
<polygon fill="#605641" fill-opacity="0.501961" points="186,143 204,140 192,151" />
<polygon fill="#2f2617" fill-opacity="0.501961" points="193,30 200,40 199,54" />
<polygon fill="#777159" fill-opacity="0.501961" points="37,42 33,30 48,48" />
<polygon fill="#010000" fill-opacity="0.501961" points="182,47 178,33 183,40" />
<polygon fill="#827861" fill-opacity="0.501961" points="102,108 117,115 92,83" />
<polygon fill="#838069" fill-opacity="0.501961" points="166,47 176,57 167,31" />
<polygon fill="#2e2513" fill-opacity="0.501961" points="206,49 224,75 223,117" />
<polygon fill="#97958c" fill-opacity="0.501961" points="187,9 186,22 194,36" />
<polygon fill="#27241a" fill-opacity="0.501961" points="170,48 160,29 166,56" />
<polygon fill="#03090a" fill-opacity="0.501961" points="192,142 201,127 139,128" />
<polygon fill="#231d09" fill-opacity="0.501961" points="43,84 58,97 38,65" />
<polygon fill="#3d3826" fill-opacity="0.501961" points="9,79 11,37 45,92" />
<polygon fill="#1f1708" fill-opacity="0.501961" points="38,50 35,37 47,56" />
<polygon fill="#131215" fill-opacity="0.501961" points="144,110 118,119 157,117" />
<polygon fill="#262f42" fill-opacity="0.501961" points="241,-16 238,32 226,-16" />
<polygon fill="#807c6b" fill-opacity="0.501961" points="128,40 119,34 131,53" />
<polygon fill="#18130a" fill-opacity="0.501961" points="27,118 36,123 24,96" />
<polygon fill="#0c0b00" fill-opacity="0.501961" points="81,87 75,74 92,94" />
<polygon fill="#1d1712" fill-opacity="0.501961" points="170,24 163,19 171,38" />
<polygon fill="#30282a" fill-opacity="0.501961" points="209,52 192,-16 213,12" />
<polygon fill="#99988a" fill-opacity="0.501961" points="165,67 166,53 146,33" />
<polygon fill="#2d2c28" fill-opacity="0.501961" points="116,183 189,179 185,160" />
<polygon fill="#675e44" fill-opacity="0.501961" points="201,101 214,115 207,64" />
<polygon fill="#575b54" fill-opacity="0.501961" points="199,159 206,169 167,193" />
<polygon fill="#897d65" fill-opacity="0.501961" points="179,55 177,41 187,64" />
<polygon fill="#000004" fill-opacity="0.501961" points="113,105 124,115 119,116" />
<polygon fill="#2b2718" fill-opacity="0.501961" points="169,64 168,45 178,73" />
<polygon fill="#94977c" fill-opacity="0.501961" points="20,118 12,111 9,101" />
<polygon fill="#4f4b44" fill-opacity="0.501961" points="116,90 99,31 51,-13" />
<polygon fill="#95978f" fill-opacity="0.501961" points="197,20 200,38 203,33" />
<polygon fill="#6f664e" fill-opacity="0.501961" points="175,114 165,111 161,93" />
<polygon fill="#544a3c" fill-opacity="0.501961" points="127,-16 109,-16 138,23" />
<polygon fill="#0b0d14" fill-opacity="0.501961" points="148,-5 154,11 146,4" />
<polygon fill="#2e291d" fill-opacity="0.501961" points="146,80 159,114 179,124" />
<polygon fill="#17181f" fill-opacity="0.501961" points="173,18 172,3 165,-3" />
<polygon fill="#736b50" fill-opacity="0.501961" points="63,115 49,94 53,107" />
<polygon fill="#15100c" fill-opacity="0.501961" points="64,112 40,117 73,120" />
<polygon fill="#666052" fill-opacity="0.501961" points="114,80 136,112 130,92" />
<polygon fill="#312b18" fill-opacity="0.501961" points="50,118 20,68 30,104" />
<polygon fill="#676251" fill-opacity="0.501961" points="118,108 134,116 117,95" />
<polygon fill="#5e5f52" fill-opacity="0.501961" points="22,48 -6,23 -16,-11" />
<polygon fill="#251f0f" fill-opacity="0.501961" points="234,76 228,62 231,86" />
<polygon fill="#656159" fill-opacity="0.501961" points="56,7 81,39 63,28" />
<polygon fill="#9b958e" fill-opacity="0.501961" points="157,8 150,-16 146,-8" />
<polygon fill="#797572" fill-opacity="0.501961" points="170,-13 179,17 160,-12" />
<polygon fill="#403417" fill-opacity="0.501961" points="62,89 75,100 75,113" />
<polygon fill="#7184a4" fill-opacity="0.501961" points="247,14 244,-9 241,3" />
<polygon fill="#6c6450" fill-opacity="0.501961" points="179,142 173,165 154,161" />
<polygon fill="#58564c" fill-opacity="0.501961" points="246,80 231,4 223,35" />
<polygon fill="#635e42" fill-opacity="0.501961" points="16,87 29,99 11,65" />
<polygon fill="#736c5d" fill-opacity="0.501961" points="123,11 112,3 126,21" />
<polygon fill="#211b0d" fill-opacity="0.501961" points="191,50 197,61 196,71" />
<polygon fill="#362c13" fill-opacity="0.501961" points="-9,36 -5,68 25,98" />
<polygon fill="#19181d" fill-opacity="0.501961" points="169,-16 182,-16 180,13" />
<polygon fill="#959481" fill-opacity="0.501961" points="173,89 184,103 181,93" />
<polygon fill="#8c8665" fill-opacity="0.501961" points="182,75 175,66 175,57" />
<polygon fill="#23292d" fill-opacity="0.501961" points="121,147 60,150 92,157" />
<polygon fill="#3d392b" fill-opacity="0.501961" points="40,190 82,187 38,207" />
<polygon fill="#7a7b7f" fill-opacity="0.501961" points="173,-16 187,11 184,-7" />
<polygon fill="#2f2d1d" fill-opacity="0.501961" points="38,173 -5,157 -11,138" />
<polygon fill="#322015" fill-opacity="0.501961" points="206,155 203,200 218,195" />
<polygon fill="#1a180c" fill-opacity="0.501961" points="84,82 71,73 64,57" />
<polygon fill="#2b271b" fill-opacity="0.501961" points="240,65 238,79 232,50" />
<polygon fill="#201814" fill-opacity="0.501961" points="83,115 72,125 110,118" />
<polygon fill="#282518" fill-opacity="0.501961" points="117,43 128,52 113,29" />
<polygon fill="#969a89" fill-opacity="0.501961" points="49,5 40,-16 35,-11" />
<polygon fill="#586070" fill-opacity="0.501961" points="270,21 251,-3 259,37" />
<polygon fill="#282114" fill-opacity="0.501961" points="181,65 182,56 172,44" />
<polygon fill="#302c1f" fill-opacity="0.501961" points="77,58 72,44 88,65" />
<polygon fill="#222017" fill-opacity="0.501961" points="7,56 5,41 20,64" />
<polygon fill="#352e19" fill-opacity="0.501961" points="182,69 197,113 201,97" />
<polygon fill="#232319" fill-opacity="0.501961" points="113,165 102,171 90,170" />
<polygon fill="#6f6a52" fill-opacity="0.501961" points="49,89 37,80 50,98" />
<polygon fill="#645d51" fill-opacity="0.501961" points="108,47 86,16 94,39" />
<polygon fill="#665e4b" fill-opacity="0.501961" points="243,112 237,92 236,110" />
<polygon fill="#2b281b" fill-opacity="0.501961" points="156,80 176,94 183,126" />
<polygon fill="#413d30" fill-opacity="0.501961" points="117,27 157,55 154,81" />
<polygon fill="#181918" fill-opacity="0.501961" points="30,10 28,-2 40,19" />
<polygon fill="#706650" fill-opacity="0.501961" points="225,44 230,88 220,72" />
<polygon fill="#19212f" fill-opacity="0.501961" points="61,21 53,-16 38,-14" />
<polygon fill="#8a8875" fill-opacity="0.501961" points="73,66 82,62 59,33" />
<polygon fill="#837e63" fill-opacity="0.501961" points="73,180 59,189 93,181" />
<polygon fill="#837756" fill-opacity="0.501961" points="193,92 198,97 192,83" />
<polygon fill="#1c1b13" fill-opacity="0.501961" points="184,47 183,55 191,66" />
<polygon fill="#4d3523" fill-opacity="0.501961" points="205,153 214,186 215,134" />
<polygon fill="#050404" fill-opacity="0.501961" points="242,110 241,101 246,110" />
<polygon fill="#63604e" fill-opacity="0.501961" points="245,105 247,91 252,115" />
<polygon fill="#686a64" fill-opacity="0.501961" points="22,5 20,-9 34,18" />
<polygon fill="#29230e" fill-opacity="0.501961" points="108,113 99,110 92,96" />
<polygon fill="#a5a69f" fill-opacity="0.501961" points="141,20 152,32 144,11" />
<polygon fill="#191c1e" fill-opacity="0.501961" points="134,96 150,109 135,86" />
<polygon fill="#7c7661" fill-opacity="0.501961" points="192,114 192,103 197,115" />
<polygon fill="#8d886f" fill-opacity="0.501961" points="44,68 36,55 45,63" />
<polygon fill="#958e80" fill-opacity="0.501961" points="169,23 168,11 176,32" />
<polygon fill="#24200d" fill-opacity="0.501961" points="52,100 66,112 47,83" />
<polygon fill="#342c18" fill-opacity="0.501961" points="65,79 59,62 77,88" />
<polygon fill="#1d1716" fill-opacity="0.501961" points="184,115 210,122 224,113" />
<polygon fill="#0c0a04" fill-opacity="0.501961" points="124,186 136,178 113,185" />
<polygon fill="#2c2c28" fill-opacity="0.501961" points="140,69 136,75 122,52" />
<polygon fill="#857d6b" fill-opacity="0.501961" points="120,30 110,22 118,33" />
<polygon fill="#747056" fill-opacity="0.501961" points="23,54 36,76 32,61" />
<polygon fill="#000000" fill-opacity="0.501961" points="1,-16 -13,-16 7,10" />
<polygon fill="#37311e" fill-opacity="0.501961" points="31,20 12,5 36,50" />
<polygon fill="#6e624d" fill-opacity="0.501961" points="149,33 154,55 135,19" />
<polygon fill="#0a0e10" fill-opacity="0.501961" points="56,47 67,64 64,54" />
<polygon fill="#635f57" fill-opacity="0.501961" points="134,17 147,6 141,-2" />
<polygon fill="#4f4d44" fill-opacity="0.501961" points="146,110 132,104 132,88" />
<polygon fill="#655f4d" fill-opacity="0.501961" points="143,55 155,65 139,42" />
<polygon fill="#7a7462" fill-opacity="0.501961" points="104,83 95,76 92,67" />
<polygon fill="#717a73" fill-opacity="0.501961" points="153,192 197,207 203,183" />
<polygon fill="#746a57" fill-opacity="0.501961" points="191,72 199,77 191,58" />
<polygon fill="#3c3934" fill-opacity="0.501961" points="255,74 239,45 241,12" />
<polygon fill="#523925" fill-opacity="0.501961" points="11,126 39,119 62,127" />
<polygon fill="#4b342b" fill-opacity="0.501961" points="168,127 151,118 119,126" />
<polygon fill="#7c7a70" fill-opacity="0.501961" points="59,47 62,33 35,7" />
<polygon fill="#2d2a20" fill-opacity="0.501961" points="117,28 132,35 110,4" />
<polygon fill="#251f11" fill-opacity="0.501961" points="134,31 148,51 140,29" />
<polygon fill="#86806a" fill-opacity="0.501961" points="198,53 192,50 193,36" />
<polygon fill="#110f0a" fill-opacity="0.501961" points="25,9 35,26 28,20" />
<polygon fill="#90875b" fill-opacity="0.501961" points="165,111 165,114 159,108" />
<polygon fill="#766b5a" fill-opacity="0.501961" points="78,73 99,100 97,85" />
<polygon fill="#423f2f" fill-opacity="0.501961" points="148,150 157,159 118,169" />
<polygon fill="#514b36" fill-opacity="0.501961" points="38,105 15,65 32,72" />
<polygon fill="#000000" fill-opacity="0.501961" points="-3,145 41,128 -1,127" />
<polygon fill="#3a3828" fill-opacity="0.501961" points="34,172 -16,154 69,159" />
<polygon fill="#84806f" fill-opacity="0.501961" points="164,38 175,52 164,24" />
<polygon fill="#908c81" fill-opacity="0.501961" points="156,7 158,20 165,24" />
<polygon fill="#7f8471" fill-opacity="0.501961" points="2,48 4,53 -5,45" />
<polygon fill="#232117" fill-opacity="0.501961" points="190,62 194,79 187,66" />
<polygon fill="#726949" fill-opacity="0.501961" points="95,109 108,119 100,106" />
<polygon fill="#2c281e" fill-opacity="0.501961" points="162,38 161,24 152,13" />
<polygon fill="#766b54" fill-opacity="0.501961" points="191,77 180,60 182,49" />
<polygon fill="#404344" fill-opacity="0.501961" points="192,167 119,187 148,207" />
<polygon fill="#231d0f" fill-opacity="0.501961" points="187,38 192,55 193,45" />
<polygon fill="#27221a" fill-opacity="0.501961" points="45,43 55,59 52,48" />
<polygon fill="#231e13" fill-opacity="0.501961" points="185,111 194,115 183,90" />
<polygon fill="#383631" fill-opacity="0.501961" points="87,21 108,53 91,39" />
<polygon fill="#281f13" fill-opacity="0.501961" points="196,28 191,23 197,36" />
<polygon fill="#736d4d" fill-opacity="0.501961" points="190,95 183,77 182,87" />
<polygon fill="#1a180d" fill-opacity="0.501961" points="15,22 18,40 32,54" />
<polygon fill="#57432c" fill-opacity="0.501961" points="60,126 82,127 75,122" />
<polygon fill="#7c715a" fill-opacity="0.501961" points="103,41 106,51 114,58" />
<polygon fill="#282725" fill-opacity="0.501961" points="133,87 126,63 109,50" />
<polygon fill="#5e5e61" fill-opacity="0.501961" points="89,17 79,5 83,15" />
<polygon fill="#251e15" fill-opacity="0.501961" points="251,75 269,116 254,100" />
<polygon fill="#888576" fill-opacity="0.501961" points="47,40 53,51 54,47" />
<polygon fill="#2a2111" fill-opacity="0.501961" points="187,71 184,78 178,57" />
<polygon fill="#636566" fill-opacity="0.501961" points="243,32 240,23 241,40" />
<polygon fill="#6e6855" fill-opacity="0.501961" points="97,47 84,38 101,61" />
<polygon fill="#64604d" fill-opacity="0.501961" points="246,85 239,41 236,63" />
<polygon fill="#989a96" fill-opacity="0.501961" points="191,0 197,16 195,-14" />
<polygon fill="#7d765f" fill-opacity="0.501961" points="59,69 71,83 62,78" />
<polygon fill="#6f6e68" fill-opacity="0.501961" points="115,52 127,60 112,40" />
<polygon fill="#191813" fill-opacity="0.501961" points="215,188 216,128 265,184" />
<polygon fill="#1f1f1a" fill-opacity="0.501961" points="118,89 131,106 122,100" />
<polygon fill="#898476" fill-opacity="0.501961" points="39,25 37,28 45,36" />
<polygon fill="#6b655c" fill-opacity="0.501961" points="138,92 150,100 132,70" />
<polygon fill="#362c15" fill-opacity="0.501961" points="205,81 206,69 200,58" />
<polygon fill="#3a372e" fill-opacity="0.501961" points="228,24 237,42 233,54" />
<polygon fill="#80786b" fill-opacity="0.501961" points="181,25 179,30 176,15" />
<polygon fill="#807659" fill-opacity="0.501961" points="56,96 69,103 50,80" />
<polygon fill="#82806a" fill-opacity="0.501961" points="36,36 30,27 34,30" />
<polygon fill="#18140f" fill-opacity="0.501961" points="215,113 211,83 228,118" />
<polygon fill="#7d858b" fill-opacity="0.501961" points="245,17 250,37 251,26" />
<polygon fill="#050602" fill-opacity="0.501961" points="-16,27 6,41 -1,30" />
<polygon fill="#6d6f60" fill-opacity="0.501961" points="203,169 191,165 200,161" />
<polygon fill="#464138" fill-opacity="0.501961" points="61,20 70,25 74,38" />
<polygon fill="#373530" fill-opacity="0.501961" points="95,41 99,55 86,36" />
<polygon fill="#7c7669" fill-opacity="0.501961" points="157,85 147,80 141,66" />
<polygon fill="#27241e" fill-opacity="0.501961" points="132,14 138,34 116,4" />
<polygon fill="#252216" fill-opacity="0.501961" points="112,86 119,90 108,76" />
<polygon fill="#888779" fill-opacity="0.501961" points="18,26 24,30 15,15" />
<polygon fill="#444957" fill-opacity="0.501961" points="195,-16 231,23 231,-4" />
<polygon fill="#787164" fill-opacity="0.501961" points="50,52 40,44 54,64" />
<polygon fill="#211e1b" fill-opacity="0.501961" points="167,1 173,14 170,-7" />
<polygon fill="#221e12" fill-opacity="0.501961" points="53,74 66,81 73,99" />
<polygon fill="#8e8153" fill-opacity="0.501961" points="71,116 78,119 80,114" />
<polygon fill="#453b25" fill-opacity="0.501961" points="219,41 226,81 215,71" />
<polygon fill="#060c13" fill-opacity="0.501961" points="37,-16 30,-2 50,15" />
<polygon fill="#877f65" fill-opacity="0.501961" points="84,103 86,111 78,98" />
<polygon fill="#706850" fill-opacity="0.501961" points="126,17 134,33 122,20" />
<polygon fill="#312c1d" fill-opacity="0.501961" points="37,92 53,107 32,72" />
<polygon fill="#181714" fill-opacity="0.501961" points="89,57 83,52 82,47" />
<polygon fill="#615a3f" fill-opacity="0.501961" points="34,91 32,77 47,102" />
<polygon fill="#292a29" fill-opacity="0.501961" points="113,45 120,56 102,40" />
<polygon fill="#292516" fill-opacity="0.501961" points="99,104 80,87 89,88" />
<polygon fill="#6e6246" fill-opacity="0.501961" points="203,113 196,105 198,98" />
<polygon fill="#5a4f3a" fill-opacity="0.501961" points="170,82 160,76 155,55" />
<polygon fill="#7a735f" fill-opacity="0.501961" points="106,97 117,117 104,107" />
<polygon fill="#0d0d0d" fill-opacity="0.501961" points="45,127 42,151 130,127" />
<polygon fill="#837e6c" fill-opacity="0.501961" points="203,51 203,36 199,38" />
<polygon fill="#2d281c" fill-opacity="0.501961" points="92,71 101,84 95,83" />
<polygon fill="#7e7965" fill-opacity="0.501961" points="95,70 82,58 85,53" />
<polygon fill="#848167" fill-opacity="0.501961" points="41,186 53,183 65,187" />
<polygon fill="#645c48" fill-opacity="0.501961" points="233,64 239,90 232,82" />
<polygon fill="#37342b" fill-opacity="0.501961" points="105,94 126,109 99,73" />
<polygon fill="#7b725c" fill-opacity="0.501961" points="114,102 111,96 121,106" />
<polygon fill="#31291c" fill-opacity="0.501961" points="171,29 170,42 177,46" />
<polygon fill="#3b362c" fill-opacity="0.501961" points="128,45 121,18 150,61" />
<polygon fill="#211e1a" fill-opacity="0.501961" points="53,46 55,40 48,34" />
<polygon fill="#292412" fill-opacity="0.501961" points="184,84 175,74 183,94" />
<polygon fill="#2e2819" fill-opacity="0.501961" points="56,67 44,60 37,41" />
<polygon fill="#88867a" fill-opacity="0.501961" points="125,41 132,51 125,47" />
<polygon fill="#3f3a29" fill-opacity="0.501961" points="247,103 240,64 237,90" />
<polygon fill="#4d5059" fill-opacity="0.501961" points="233,-16 244,-16 238,24" />
<polygon fill="#16130e" fill-opacity="0.501961" points="98,29 100,36 106,39" />
<polygon fill="#24221d" fill-opacity="0.501961" points="236,19 243,40 236,30" />
<polygon fill="#25293d" fill-opacity="0.501961" points="245,-2 252,-9 250,18" />
<polygon fill="#656868" fill-opacity="0.501961" points="35,10 32,-8 29,-3" />
<polygon fill="#969481" fill-opacity="0.501961" points="10,110 14,112 8,102" />
<polygon fill="#514829" fill-opacity="0.501961" points="-9,64 14,81 26,116" />
<polygon fill="#807c70" fill-opacity="0.501961" points="70,23 72,30 65,21" />
<polygon fill="#372f28" fill-opacity="0.501961" points="198,-3 203,38 219,40" />
<polygon fill="#66654d" fill-opacity="0.501961" points="5,114 -16,105 -16,79" />
<polygon fill="#676251" fill-opacity="0.501961" points="114,100 110,89 101,82" />
<polygon fill="#5d5a44" fill-opacity="0.501961" points="31,176 57,185 82,171" />
<polygon fill="#504f4e" fill-opacity="0.501961" points="68,-1 106,53 77,32" />
<polygon fill="#1a2533" fill-opacity="0.501961" points="112,153 130,139 162,141" />
<polygon fill="#232222" fill-opacity="0.501961" points="67,18 72,17 78,33" />
<polygon fill="#757465" fill-opacity="0.501961" points="236,36 239,42 238,50" />
<polygon fill="#130f05" fill-opacity="0.501961" points="47,98 51,110 55,110" />
<polygon fill="#1b1d14" fill-opacity="0.501961" points="35,144 36,158 -16,146" />
<polygon fill="#7b7566" fill-opacity="0.501961" points="202,66 196,45 196,58" />
<polygon fill="#74726d" fill-opacity="0.501961" points="127,59 130,68 123,59" />
<polygon fill="#5f5e5b" fill-opacity="0.501961" points="61,1 77,24 65,14" />
<polygon fill="#555343" fill-opacity="0.501961" points="130,163 153,146 89,161" />
<polygon fill="#867d6d" fill-opacity="0.501961" points="189,48 188,55 193,63" />
<polygon fill="#36342c" fill-opacity="0.501961" points="126,94 140,102 117,70" />
<polygon fill="#22262c" fill-opacity="0.501961" points="53,4 71,21 65,10" />
<polygon fill="#151614" fill-opacity="0.501961" points="108,94 112,108 119,111" />
<polygon fill="#595447" fill-opacity="0.501961" points="252,90 246,49 242,67" />
<polygon fill="#130e0c" fill-opacity="0.501961" points="251,118 238,113 260,113" />
<polygon fill="#575a5d" fill-opacity="0.501961" points="55,11 53,1 61,14" />
<polygon fill="#847e75" fill-opacity="0.501961" points="168,6 161,-16 153,-7" />
<polygon fill="#000013" fill-opacity="0.501961" points="119,-16 119,8 110,-12" />
<polygon fill="#74736f" fill-opacity="0.501961" points="110,22 105,14 112,20" />
<polygon fill="#332f24" fill-opacity="0.501961" points="78,37 81,33 91,49" />
<polygon fill="#232117" fill-opacity="0.501961" points="96,60 100,67 103,67" />
<polygon fill="#33302a" fill-opacity="0.501961" points="124,36 106,-9 106,12" />
<polygon fill="#0f110b" fill-opacity="0.501961" points="160,99 152,92 162,107" />
<polygon fill="#35322b" fill-opacity="0.501961" points="145,91 132,60 148,79" />
<polygon fill="#63604f" fill-opacity="0.501961" points="240,82 243,99 237,88" />
<polygon fill="#1c160a" fill-opacity="0.501961" points="230,76 234,84 230,90" />
<polygon fill="#7b7461" fill-opacity="0.501961" points="97,69 106,75 95,60" />
<polygon fill="#535342" fill-opacity="0.501961" points="14,61 -16,33 -9,22" />
<polygon fill="#706438" fill-opacity="0.501961" points="28,112 22,105 17,117" />
<polygon fill="#6b685c" fill-opacity="0.501961" points="246,46 241,34 242,43" />
<polygon fill="#514934" fill-opacity="0.501961" points="191,152 202,141 177,151" />
<polygon fill="#28200f" fill-opacity="0.501961" points="200,70 193,60 199,77" />
<polygon fill="#565343" fill-opacity="0.501961" points="164,112 148,88 153,104" />
<polygon fill="#324154" fill-opacity="0.501961" points="40,194 -16,181 -7,206" />
<polygon fill="#82785e" fill-opacity="0.501961" points="73,75 65,70 76,83" />
<polygon fill="#707069" fill-opacity="0.501961" points="253,66 251,38 271,87" />
<polygon fill="#26251e" fill-opacity="0.501961" points="153,96 157,109 147,94" />
<polygon fill="#241e1a" fill-opacity="0.501961" points="13,121 31,111 34,124" />
<polygon fill="#79715b" fill-opacity="0.501961" points="205,50 209,72 202,63" />
<polygon fill="#7c775d" fill-opacity="0.501961" points="29,105 35,117 38,115" />
<polygon fill="#000001" fill-opacity="0.501961" points="32,6 11,-16 23,-13" />
<polygon fill="#181512" fill-opacity="0.501961" points="239,37 244,47 239,44" />
<polygon fill="#564f39" fill-opacity="0.501961" points="111,183 89,189 98,182" />
<polygon fill="#26231c" fill-opacity="0.501961" points="39,30 24,17 19,-1" />
<polygon fill="#787157" fill-opacity="0.501961" points="32,104 27,102 24,96" />
<polygon fill="#777055" fill-opacity="0.501961" points="126,178 113,173 148,163" />
<polygon fill="#766f5b" fill-opacity="0.501961" points="79,45 74,30 91,54" />
<polygon fill="#676352" fill-opacity="0.501961" points="154,24 154,31 150,20" />
<polygon fill="#282312" fill-opacity="0.501961" points="28,57 45,80 36,57" />
<polygon fill="#939593" fill-opacity="0.501961" points="199,14 195,9 198,24" />
<polygon fill="#393018" fill-opacity="0.501961" points="25,103 18,87 13,109" />
<polygon fill="#807a68" fill-opacity="0.501961" points="37,27 34,19 37,23" />
<polygon fill="#888273" fill-opacity="0.501961" points="174,39 181,44 175,32" />
<polygon fill="#181711" fill-opacity="0.501961" points="206,169 196,152 202,144" />
<polygon fill="#5a402d" fill-opacity="0.501961" points="87,121 90,127 110,126" />
<polygon fill="#736f60" fill-opacity="0.501961" points="167,102 157,95 157,88" />
<polygon fill="#091013" fill-opacity="0.501961" points="128,106 131,112 137,113" />
<polygon fill="#78735c" fill-opacity="0.501961" points="118,96 128,105 121,103" />
<polygon fill="#78705b" fill-opacity="0.501961" points="225,99 229,91 232,109" />
<polygon fill="#383121" fill-opacity="0.501961" points="81,45 83,52 76,41" />
<polygon fill="#98978a" fill-opacity="0.501961" points="144,34 164,59 158,39" />
<polygon fill="#342f21" fill-opacity="0.501961" points="178,26 186,45 179,40" />
<polygon fill="#6b635a" fill-opacity="0.501961" points="53,40 71,63 61,39" />
<polygon fill="#303126" fill-opacity="0.501961" points="48,171 52,177 61,169" />
<polygon fill="#352f1e" fill-opacity="0.501961" points="35,112 27,80 48,114" />
</g>
</svg>
