<svg xmlns="http://www.w3.org/2000/svg" version="1.1" width="1024" height="768">
<rect x="0" y="0" width="1024" height="768" fill="#606974" />
<g transform="scale(1.000000) translate(0.5 0.5)">
<polygon fill="#000000" fill-opacity="0.501961" points="-16.000000,723.408309,-2.026487,783.000000,1039.000000,769.177375,931.057078,746.453537" />
<polygon fill="#f9e1af" fill-opacity="0.501961" points="881.862750,209.842879,752.377936,310.272240,967.894608,310.390737,1030.705869,213.266948" />
<polygon fill="#c67e32" fill-opacity="0.501961" points="554.461118,465.446654,923.346621,542.371405,754.514382,311.989368,357.162814,320.000185" />
<polygon fill="#000000" fill-opacity="0.501961" points="22.106149,783.000000,50.401774,588.726301,9.447911,271.294318,-16.000000,655.484207" />
<polygon fill="#0e0000" fill-opacity="0.501961" points="248.410132,567.236125,92.776004,572.903624,122.880686,506.955015,224.508621,453.809903" />
<polygon fill="#577faf" fill-opacity="0.501961" points="215.026672,394.531854,58.291175,568.844976,-16.000000,-16.000000,1039.000000,170.605307" />
<polygon fill="#000000" fill-opacity="0.501961" points="71.071509,620.870677,142.255719,687.564869,203.060683,689.545779,285.596030,626.733182" />
<polygon fill="#662d09" fill-opacity="0.501961" points="1039.000000,412.662346,923.523797,636.923095,656.823767,650.443054,1022.580550,783.000000" />
<polygon fill="#83bfd8" fill-opacity="0.501961" points="495.864078,575.286755,944.273402,573.758642,585.909864,512.983037,372.988616,560.962896" />
<polygon fill="#e2a76f" fill-opacity="0.501961" points="107.100003,355.007359,315.046176,495.219054,147.510941,484.444116,73.440759,568.378080" />
<polygon fill="#030000" fill-opacity="0.501961" points="881.527419,341.882979,908.224964,380.208785,901.889136,535.165168,836.241039,397.645432" />
<polygon fill="#010000" fill-opacity="0.501961" points="401.677975,411.895099,344.970374,308.047029,340.911339,411.574694,345.211322,532.544955" />
<polygon fill="#913d1f" fill-opacity="0.501961" points="212.273760,650.618227,223.857746,706.568888,783.756297,708.347287,495.392205,657.201659" />
<polygon fill="#1f82c7" fill-opacity="0.501961" points="952.661152,635.490546,668.615839,651.984544,581.408799,608.024771,816.573304,482.000449" />
<polygon fill="#a89972" fill-opacity="0.501961" points="343.285480,256.063330,88.989425,328.174687,113.171720,335.334395,341.796978,449.157780" />
<polygon fill="#b48468" fill-opacity="0.501961" points="269.272755,524.948859,658.492569,389.217578,519.355661,550.836515,244.262447,560.964876" />
<polygon fill="#afa880" fill-opacity="0.501961" points="370.951582,388.829938,388.200791,255.850256,697.508367,423.241631,455.515942,357.647503" />
<polygon fill="#54acdb" fill-opacity="0.501961" points="1039.000000,309.063176,1037.803828,443.956480,929.736157,442.094482,869.321535,311.424579" />
<polygon fill="#234350" fill-opacity="0.501961" points="733.134898,453.274301,843.299592,435.231887,808.511894,383.285463,684.746188,382.149338" />
<polygon fill="#a1a4a5" fill-opacity="0.501961" points="522.622179,32.137542,630.497619,-16.000000,826.880968,51.650176,670.592863,106.302443" />
<polygon fill="#c9baa0" fill-opacity="0.501961" points="831.699723,595.856961,905.989025,485.841461,689.265721,505.860090,826.612523,522.637353" />
<polygon fill="#050300" fill-opacity="0.501961" points="850.841487,216.842900,854.421408,206.702830,802.637436,274.004877,858.620358,267.709017" />
<polygon fill="#010000" fill-opacity="0.501961" points="506.111272,446.140243,514.965382,400.392690,485.891136,365.525034,473.479852,470.983895" />
<polygon fill="#d05d0e" fill-opacity="0.501961" points="511.379669,319.165162,573.252688,371.713400,895.695107,308.856103,655.014043,314.880543" />
<polygon fill="#c29c73" fill-opacity="0.501961" points="65.477058,586.742198,190.247214,554.221120,229.811532,625.475903,136.398063,621.954254" />
<polygon fill="#266759" fill-opacity="0.501961" points="323.497459,680.400021,491.009078,652.652908,440.025527,581.980834,193.477852,557.210417" />
<polygon fill="#11101a" fill-opacity="0.501961" points="46.504829,321.460416,52.377851,395.307306,6.227318,573.621341,-15.991953,330.608850" />
<polygon fill="#c68a4f" fill-opacity="0.501961" points="929.350998,638.738834,985.254494,616.427608,999.349611,526.334863,947.311407,505.680182" />
<polygon fill="#215197" fill-opacity="0.501961" points="391.256229,155.102048,548.294549,-1.052339,-0.603923,-16.000000,-0.028571,191.729888" />
<polygon fill="#e9d8af" fill-opacity="0.501961" points="742.222515,272.549583,758.511041,296.642965,1039.000000,290.781339,889.594357,263.864913" />
<polygon fill="#17130b" fill-opacity="0.501961" points="1023.648334,518.969992,932.026848,484.073628,975.278499,449.326728,1029.265163,451.045819" />
<polygon fill="#030704" fill-opacity="0.501961" points="646.124142,497.546407,616.436025,427.169432,594.429818,497.677841,593.906268,501.238437" />
<polygon fill="#000000" fill-opacity="0.501961" points="611.709685,632.974189,628.389325,635.511288,630.312021,719.095752,612.620593,724.104170" />
<polygon fill="#1950a7" fill-opacity="0.501961" points="1039.000000,208.666982,907.257471,206.660190,772.594782,-16.000000,1039.000000,-7.868055" />
<polygon fill="#c41d00" fill-opacity="0.501961" points="784.325878,707.930243,784.077496,637.250927,892.480727,672.405540,900.723568,693.794642" />
<polygon fill="#0f0000" fill-opacity="0.501961" points="1015.827707,259.866319,957.532911,258.571587,956.220183,279.592760,1024.882098,269.432919" />
<polygon fill="#6b829f" fill-opacity="0.501961" points="358.575295,319.702970,-6.652935,326.288800,-16.000000,79.493271,850.123091,308.169084" />
<polygon fill="#483311" fill-opacity="0.501961" points="159.824957,393.307141,123.692423,359.009198,197.749748,350.295731,225.799529,410.927813" />
<polygon fill="#312018" fill-opacity="0.501961" points="865.965883,437.747116,945.005499,526.587433,959.712811,578.590532,904.514496,574.876047" />
<polygon fill="#9d804e" fill-opacity="0.501961" points="530.699198,686.853894,374.049054,717.886863,508.309280,763.053671,720.062879,746.349935" />
<polygon fill="#3998c7" fill-opacity="0.501961" points="39.887681,713.858432,45.515983,623.862409,137.753119,685.509235,223.498708,714.559942" />
<polygon fill="#000000" fill-opacity="0.501961" points="907.153015,265.045540,892.468620,262.986540,889.468027,231.851059,913.621917,235.643105" />
<polygon fill="#c7c8ab" fill-opacity="0.501961" points="291.349633,466.168779,271.134116,438.190596,225.787292,501.781179,254.131881,535.177759" />
<polygon fill="#be1f00" fill-opacity="0.501961" points="174.498560,489.893111,224.392824,499.926020,248.017062,464.709311,163.111817,444.642340" />
<polygon fill="#000000" fill-opacity="0.501961" points="99.231910,632.426935,141.530572,691.366540,297.105634,595.571416,254.579590,620.310668" />
<polygon fill="#c3d8d4" fill-opacity="0.501961" points="589.695327,511.882942,617.822645,497.024093,495.622100,557.876669,674.681425,559.071006" />
<polygon fill="#eee4ca" fill-opacity="0.501961" points="935.279087,716.427269,887.738026,711.640907,675.148461,717.799707,903.133519,720.670634" />
<polygon fill="#0a0800" fill-opacity="0.501961" points="97.076535,528.729952,169.384949,576.281945,171.389554,610.271317,226.776147,492.727533" />
<polygon fill="#760106" fill-opacity="0.501961" points="452.316904,542.904942,413.968403,497.885403,413.955699,468.968284,377.198389,547.754699" />
<polygon fill="#ffffff" fill-opacity="0.501961" points="1009.877554,480.539788,1005.301790,442.833288,1007.035302,533.262270,1014.683388,591.252350" />
<polygon fill="#92afbb" fill-opacity="0.501961" points="717.922373,341.540358,760.936313,324.899259,795.783539,349.577558,718.300833,394.162299" />
<polygon fill="#7d4718" fill-opacity="0.501961" points="864.235923,383.300153,910.091163,387.849785,871.132524,318.801746,710.502421,303.171214" />
<polygon fill="#f27200" fill-opacity="0.501961" points="833.007449,486.431406,884.799518,503.736031,840.912157,415.983832,828.004003,433.226608" />
<polygon fill="#9d626d" fill-opacity="0.501961" points="308.747161,644.226726,215.466214,642.044628,211.230398,723.758084,389.225649,731.868951" />
<polygon fill="#1c5463" fill-opacity="0.501961" points="666.386727,607.849829,560.225621,668.038752,541.576994,571.087726,570.731198,551.029112" />
<polygon fill="#d5cdb6" fill-opacity="0.501961" points="419.104665,453.119788,471.331985,435.967552,474.911433,467.241023,413.627086,479.742424" />
<polygon fill="#88847c" fill-opacity="0.501961" points="346.561515,322.277760,300.483687,157.139003,443.057022,173.857259,515.201590,205.299893" />
<polygon fill="#5196b8" fill-opacity="0.501961" points="32.930753,571.691551,90.751546,251.916357,99.895856,468.006633,42.792859,582.280553" />
<polygon fill="#e1edd8" fill-opacity="0.501961" points="297.147768,715.945429,372.569586,720.666650,497.592500,717.826176,333.245498,710.101906" />
<polygon fill="#473825" fill-opacity="0.501961" points="296.069352,440.276385,283.637012,355.116889,262.565557,401.515140,209.802136,444.397746" />
<polygon fill="#558cb5" fill-opacity="0.501961" points="745.573780,606.514962,743.425810,484.155308,707.980268,480.265591,662.406984,571.715188" />
<polygon fill="#8a9641" fill-opacity="0.501961" points="466.431948,556.287021,433.638810,606.238012,546.205190,676.521639,530.603036,560.893840" />
<polygon fill="#0b0400" fill-opacity="0.501961" points="454.033642,730.312248,420.308702,783.000000,-16.000000,767.871144,-13.150884,730.767019" />
<polygon fill="#fdffee" fill-opacity="0.501961" points="630.088871,632.670419,641.002321,695.529945,631.688247,731.960127,629.798373,671.681290" />
<polygon fill="#dc6c19" fill-opacity="0.501961" points="551.297919,380.700256,505.128856,392.815224,678.057060,486.641784,665.900299,424.188549" />
<polygon fill="#000000" fill-opacity="0.501961" points="1027.252811,643.342225,945.153888,642.288948,969.752348,622.783957,1039.000000,624.486750" />
<polygon fill="#8a6c3f" fill-opacity="0.501961" points="836.872885,719.065942,948.942835,746.529225,677.813628,752.628004,625.625956,718.956143" />
<polygon fill="#3e2800" fill-opacity="0.501961" points="420.882820,433.073786,423.974185,376.774137,444.055717,360.034168,447.084610,444.577977" />
<polygon fill="#f2e7c8" fill-opacity="0.501961" points="912.009541,236.016225,910.622199,303.607861,970.826309,213.229231,839.208817,213.587198" />
<polygon fill="#27435c" fill-opacity="0.501961" points="424.764987,502.509732,338.648740,499.610673,302.423150,438.548650,263.046138,528.335591" />
<polygon fill="#000000" fill-opacity="0.501961" points="252.897199,541.702292,236.122942,507.101362,187.747786,560.536257,253.420445,560.317074" />
<polygon fill="#001920" fill-opacity="0.501961" points="947.810590,699.995770,940.933072,628.400682,880.389075,659.507990,896.532439,675.752978" />
<polygon fill="#c9ad7a" fill-opacity="0.501961" points="415.319250,358.036705,419.207643,393.988188,447.167053,497.509217,400.004138,433.948009" />
<polygon fill="#eaeacf" fill-opacity="0.501961" points="894.326311,453.820919,980.167339,445.606010,899.761919,447.638697,898.370655,496.180608" />
<polygon fill="#eaebd9" fill-opacity="0.501961" points="605.059473,695.472583,611.255796,624.948229,612.565139,724.081616,590.169570,719.514553" />
<polygon fill="#74bbd7" fill-opacity="0.501961" points="428.842870,547.335770,386.999495,548.895753,318.516386,553.658789,411.856915,590.546302" />
<polygon fill="#ecbe93" fill-opacity="0.501961" points="840.723349,379.241626,849.629784,350.222333,860.250017,303.863653,863.369118,385.099137" />
<polygon fill="#0093df" fill-opacity="0.501961" points="513.469644,682.997724,586.280530,668.901946,536.130545,672.542527,513.700634,651.781036" />
<polygon fill="#8d3019" fill-opacity="0.501961" points="752.238377,460.886911,650.225421,451.807473,785.507857,501.806296,814.771750,436.928846" />
<polygon fill="#2b2112" fill-opacity="0.501961" points="378.617200,369.714429,375.207893,317.008128,346.290409,324.177619,340.739976,507.282369" />
<polygon fill="#c6d5e3" fill-opacity="0.501961" points="990.284290,621.722031,1016.609575,618.275035,1013.846992,556.465792,1008.367748,603.153118" />
<polygon fill="#100801" fill-opacity="0.501961" points="857.978863,448.673595,832.887678,385.277159,909.201690,384.155375,887.805057,491.388760" />
<polygon fill="#150400" fill-opacity="0.501961" points="742.264095,304.544542,710.973539,319.809443,715.993162,307.847914,739.837184,267.095942" />
<polygon fill="#574b20" fill-opacity="0.501961" points="334.070187,333.566503,301.293279,395.497835,334.414018,444.308341,338.412365,391.869286" />
<polygon fill="#b2b18f" fill-opacity="0.501961" points="213.583317,319.100240,203.133026,440.579583,339.321683,318.750290,284.749789,322.549765" />
<polygon fill="#b03a0c" fill-opacity="0.501961" points="329.810761,686.024820,402.979312,700.220538,483.419267,703.834024,463.090910,654.208995" />
<polygon fill="#bac9ad" fill-opacity="0.501961" points="138.259518,415.123233,157.040762,487.826177,93.507989,518.513016,100.904334,394.762491" />
<polygon fill="#1d71b1" fill-opacity="0.501961" points="630.819239,650.674121,799.200996,572.068146,928.083204,579.550464,941.069032,634.046670" />
<polygon fill="#e88400" fill-opacity="0.501961" points="943.017216,618.975870,993.557126,615.825388,999.717675,601.720407,929.347191,586.737861" />
<polygon fill="#0a0600" fill-opacity="0.501961" points="160.173421,552.818967,182.952035,479.644374,115.155881,516.688158,88.442469,587.920643" />
<polygon fill="#d91600" fill-opacity="0.501961" points="297.047891,565.181404,310.334892,577.693270,326.433038,536.690187,291.057195,549.187683" />
<polygon fill="#1b0600" fill-opacity="0.501961" points="287.354599,642.936728,295.918394,614.088729,178.949860,643.094971,275.097482,644.692547" />
<polygon fill="#16110b" fill-opacity="0.501961" points="382.963673,454.475337,412.163945,388.958541,349.003014,387.675676,346.518460,498.513622" />
<polygon fill="#e0dbc0" fill-opacity="0.501961" points="861.235402,306.982507,852.515860,212.650001,886.250315,232.652338,901.759208,314.669748" />
<polygon fill="#463f33" fill-opacity="0.501961" points="1020.753774,314.601965,911.911165,292.637119,921.300421,313.692724,1000.986140,285.251284" />
<polygon fill="#c0cfd9" fill-opacity="0.501961" points="316.060977,664.136381,296.032311,642.192706,282.133005,649.405971,303.205435,616.669790" />
<polygon fill="#000006" fill-opacity="0.501961" points="1039.000000,754.823674,890.666216,757.355825,824.168248,766.311265,1004.950133,783.000000" />
<polygon fill="#a7a49c" fill-opacity="0.501961" points="99.519654,623.511243,177.953045,550.057493,196.018472,569.129340,134.824049,563.553606" />
<polygon fill="#242619" fill-opacity="0.501961" points="708.221634,688.961189,810.387039,704.081054,757.106492,715.352125,692.342667,712.935898" />
<polygon fill="#c3d4ce" fill-opacity="0.501961" points="617.698952,584.852805,639.876060,513.058935,660.825920,531.635573,641.499119,573.687862" />
<polygon fill="#22557a" fill-opacity="0.501961" points="70.765322,620.248670,136.179872,682.241593,24.138301,620.000724,40.453815,414.881217" />
<polygon fill="#bc1a01" fill-opacity="0.501961" points="722.669180,644.060559,709.065742,671.231980,778.160496,661.411989,813.219320,652.517930" />
<polygon fill="#d6bb52" fill-opacity="0.501961" points="377.638111,375.247650,379.881450,307.455556,407.760815,386.360962,379.074861,389.371346" />
<polygon fill="#c16c61" fill-opacity="0.501961" points="75.407666,499.613867,112.485828,499.676862,106.000757,541.933975,71.536256,614.435187" />
<polygon fill="#b6a193" fill-opacity="0.501961" points="899.303845,479.055084,971.309577,552.344331,984.268797,541.512969,894.653663,444.947857" />
<polygon fill="#1c70b4" fill-opacity="0.501961" points="653.789185,507.174987,751.723476,496.977283,720.930194,486.372337,688.426898,579.041375" />
<polygon fill="#ece9d1" fill-opacity="0.501961" points="178.529217,395.153262,178.172668,374.027150,169.360287,371.936628,160.490329,382.232013" />
<polygon fill="#cdcb98" fill-opacity="0.501961" points="534.752947,389.776575,558.707740,342.099901,536.411721,328.317302,506.804758,380.715925" />
<polygon fill="#e7dfd7" fill-opacity="0.501961" points="498.584419,717.930398,570.797043,710.700288,591.013080,720.616560,578.086497,720.391338" />
<polygon fill="#c0beae" fill-opacity="0.501961" points="720.466628,501.797835,748.278216,487.558647,772.962368,497.886786,697.770288,550.183859" />
<polygon fill="#818f7b" fill-opacity="0.501961" points="630.985043,405.432046,680.341493,434.486887,704.072813,374.182223,664.299865,316.592663" />
<polygon fill="#262e3a" fill-opacity="0.501961" points="776.422380,351.644921,717.042834,415.824788,671.323705,382.423212,775.543988,412.348717" />
<polygon fill="#da7f00" fill-opacity="0.501961" points="503.290770,693.359424,622.684769,659.380383,508.335445,708.329318,493.217823,711.427758" />
<polygon fill="#4f3716" fill-opacity="0.501961" points="324.063752,628.623914,352.418114,660.350761,377.494063,605.718396,342.903023,584.397450" />
<polygon fill="#831945" fill-opacity="0.501961" points="298.346594,711.560573,219.034891,696.459037,231.316236,647.196080,333.926911,678.117255" />
<polygon fill="#a64c00" fill-opacity="0.501961" points="394.969649,583.610561,400.315592,632.174097,423.019802,608.832389,381.312252,651.760785" />
<polygon fill="#a6968b" fill-opacity="0.501961" points="934.000027,570.201173,922.871011,533.383210,928.180529,500.825005,899.894872,538.675283" />
<polygon fill="#abb4a0" fill-opacity="0.501961" points="638.360329,685.797350,706.050026,719.078522,676.137363,717.862846,629.623983,722.423385" />
<polygon fill="#6083b4" fill-opacity="0.501961" points="424.404495,498.156118,338.286613,494.591978,342.577463,423.405785,279.789859,507.220392" />
<polygon fill="#809593" fill-opacity="0.501961" points="469.219899,531.739694,552.018455,534.592947,553.630179,434.539699,521.358355,399.509094" />
<polygon fill="#00000b" fill-opacity="0.501961" points="1014.285283,555.106971,1018.361418,641.675377,1039.000000,506.265312,1010.402578,499.490004" />
<polygon fill="#080504" fill-opacity="0.501961" points="215.973991,625.834409,212.220510,687.558029,156.873983,688.574990,69.027281,620.318240" />
<polygon fill="#8b3405" fill-opacity="0.501961" points="703.069673,426.294365,624.073776,436.179151,726.457687,461.418075,729.746535,436.756846" />
<polygon fill="#6184b3" fill-opacity="0.501961" points="550.805570,318.944581,771.760709,266.554574,826.060723,248.567686,775.901088,174.054053" />
<polygon fill="#9a9c9a" fill-opacity="0.501961" points="807.752675,351.416514,787.479580,418.598172,743.157597,412.547082,735.887788,471.314694" />
<polygon fill="#baaf9c" fill-opacity="0.501961" points="97.686730,444.192436,118.229923,348.815737,206.383259,362.417934,104.771753,327.863409" />
<polygon fill="#131d28" fill-opacity="0.501961" points="145.790879,410.943014,157.617890,427.123956,146.061287,457.925345,145.414629,449.527879" />
<polygon fill="#e08d00" fill-opacity="0.501961" points="322.717358,687.217903,316.550217,683.867631,323.316501,670.679727,387.027607,688.005352" />
<polygon fill="#060800" fill-opacity="0.501961" points="861.412638,434.829230,835.112519,429.749764,695.425273,437.509517,782.925300,437.603235" />
<polygon fill="#47463a" fill-opacity="0.501961" points="182.701272,406.330262,127.225783,394.411933,210.154318,387.224521,281.807910,423.242734" />
<polygon fill="#1d3a36" fill-opacity="0.501961" points="819.205608,428.146061,801.853433,493.107065,797.761921,427.204243,831.912790,491.287973" />
<polygon fill="#181a19" fill-opacity="0.501961" points="812.834045,384.255781,829.450761,348.931909,835.171948,321.924886,851.620615,357.657069" />
<polygon fill="#274a8a" fill-opacity="0.501961" points="730.459849,10.060203,611.994285,-0.959108,1029.098718,-1.287645,1039.000000,68.590289" />
<polygon fill="#d3b700" fill-opacity="0.501961" points="231.977176,576.545632,198.000361,617.714304,223.582068,624.939188,220.565705,608.017377" />
<polygon fill="#433e3a" fill-opacity="0.501961" points="211.762172,334.833488,143.133563,329.912340,175.730117,336.705310,188.951603,430.362235" />
<polygon fill="#dddb9b" fill-opacity="0.501961" points="251.196645,557.438355,283.074718,560.096846,279.102686,546.705341,276.952910,511.970559" />
<polygon fill="#a29da9" fill-opacity="0.501961" points="978.817548,585.017460,944.694876,584.405437,977.485466,554.865089,1002.398692,545.899592" />
<polygon fill="#12679a" fill-opacity="0.501961" points="239.492226,625.523602,295.648467,568.767428,260.140823,560.863615,225.070868,561.637668" />
<polygon fill="#00142d" fill-opacity="0.501961" points="913.317917,394.792620,944.192356,414.449775,939.238986,417.374178,923.248466,418.968506" />
<polygon fill="#1794e0" fill-opacity="0.501961" points="396.285828,579.050961,371.309410,654.461048,379.162028,571.489672,381.129429,572.314415" />
<polygon fill="#aeba9e" fill-opacity="0.501961" points="126.861812,403.043403,234.855355,410.446344,230.630125,435.000390,150.127345,424.885071" />
<polygon fill="#3a6197" fill-opacity="0.501961" points="529.501692,-3.922359,390.763434,156.845828,492.961012,176.741564,586.367206,107.156607" />
<polygon fill="#506363" fill-opacity="0.501961" points="1039.000000,740.433395,1039.000000,640.876489,939.996243,645.912317,951.010093,735.982517" />
<polygon fill="#e2c400" fill-opacity="0.501961" points="405.823754,668.544580,515.719611,664.721176,487.258664,658.653182,450.731723,658.519104" />
<polygon fill="#9a2e00" fill-opacity="0.501961" points="621.631517,587.999093,590.826151,577.001390,573.542822,596.848383,588.735719,595.213237" />
<polygon fill="#486995" fill-opacity="0.501961" points="666.880883,129.949273,871.313875,38.610901,1039.000000,193.132763,800.827273,220.887099" />
<polygon fill="#dd9939" fill-opacity="0.501961" points="894.917048,492.097797,870.839357,537.847221,900.804193,551.965273,875.315910,495.311468" />
<polygon fill="#e57004" fill-opacity="0.501961" points="858.184462,363.919643,839.938874,324.260265,726.247919,320.715953,851.357262,307.474189" />
<polygon fill="#e3cfbc" fill-opacity="0.501961" points="318.543305,511.144770,324.357453,540.952226,286.858718,532.994257,282.904162,562.169339" />
<polygon fill="#0e181b" fill-opacity="0.501961" points="782.565917,664.559649,791.172090,684.251723,782.580883,711.042662,744.406305,662.427456" />
<polygon fill="#4e4c34" fill-opacity="0.501961" points="424.556408,376.247270,458.626782,380.046597,489.441755,502.975220,484.014503,347.377871" />
<polygon fill="#00101e" fill-opacity="0.501961" points="1004.495453,532.617490,990.341832,593.967332,956.848737,594.838368,1005.116289,568.457346" />
<polygon fill="#a8ada5" fill-opacity="0.501961" points="581.883960,455.181363,589.888795,346.175911,562.476684,480.876541,588.986710,481.547498" />
<polygon fill="#050004" fill-opacity="0.501961" points="-10.188680,624.301964,34.025770,681.306891,39.270891,635.538148,-16.000000,580.019458" />
<polygon fill="#aaa58e" fill-opacity="0.501961" points="674.466353,695.924150,672.846810,682.036685,739.416414,670.437688,738.508833,688.252712" />
<polygon fill="#b3a3a0" fill-opacity="0.501961" points="939.345330,547.560228,985.426725,543.173355,988.524775,509.177255,979.177177,497.555900" />
<polygon fill="#593f00" fill-opacity="0.501961" points="279.888504,512.660216,242.399206,561.351812,300.980140,449.277837,340.556528,385.958461" />
<polygon fill="#232431" fill-opacity="0.501961" points="259.730128,449.144833,254.612185,489.196109,261.573720,483.347682,264.954562,473.040981" />
<polygon fill="#fff9df" fill-opacity="0.501961" points="1010.125826,446.290458,1001.703131,449.534049,914.661913,447.904865,976.051716,445.563009" />
<polygon fill="#007cb1" fill-opacity="0.501961" points="481.173171,678.828114,503.530743,695.338069,500.769301,651.250084,514.623648,655.236943" />
<polygon fill="#dbd6c3" fill-opacity="0.501961" points="780.292869,719.212070,754.854635,715.425844,651.002982,714.881655,705.558747,720.705969" />
<polygon fill="#265e98" fill-opacity="0.501961" points="793.201375,509.849296,760.399770,572.179700,754.580051,615.011270,838.897896,518.486235" />
<polygon fill="#7897ae" fill-opacity="0.501961" points="398.407291,508.299672,386.173937,445.656913,360.373708,501.842586,367.766168,540.560439" />
<polygon fill="#e6deb7" fill-opacity="0.501961" points="853.331026,435.649259,824.896824,371.173592,822.451953,395.253180,822.641117,384.839593" />
<polygon fill="#416ba0" fill-opacity="0.501961" points="-16.000000,362.208104,37.265116,250.522757,411.415521,144.259868,-11.194436,104.319011" />
<polygon fill="#554737" fill-opacity="0.501961" points="726.476865,449.155668,655.600583,521.621722,573.883186,510.495248,649.758368,499.062388" />
<polygon fill="#0e4973" fill-opacity="0.501961" points="562.685819,528.108020,584.216892,525.762428,557.743022,594.612400,600.986254,581.869024" />
<polygon fill="#18262e" fill-opacity="0.501961" points="353.237209,510.686858,378.326218,487.692598,349.646121,528.792189,316.885051,519.727330" />
<polygon fill="#ed8f09" fill-opacity="0.501961" points="543.702018,411.440793,558.361732,475.236482,566.134119,462.436283,561.841210,407.756068" />
<polygon fill="#6f1d1d" fill-opacity="0.501961" points="439.767846,536.495817,483.580272,547.978010,496.356239,533.345818,445.698123,531.631777" />
<polygon fill="#363329" fill-opacity="0.501961" points="632.732058,651.827923,708.250798,692.201068,693.508434,658.545073,655.748216,697.895358" />
<polygon fill="#293d3f" fill-opacity="0.501961" points="419.320453,450.444050,390.504337,486.155481,389.128195,512.092084,407.970361,513.404147" />
<polygon fill="#0d1d2b" fill-opacity="0.501961" points="903.543446,373.786629,860.912116,306.216270,862.572866,363.609706,869.102248,371.461634" />
<polygon fill="#c5b589" fill-opacity="0.501961" points="1020.072387,212.460338,1018.736091,296.712073,988.874323,292.735778,1031.975554,251.396750" />
<polygon fill="#181410" fill-opacity="0.501961" points="634.527007,695.430700,660.140666,711.719205,657.358733,715.941706,642.531058,714.878229" />
<polygon fill="#beab84" fill-opacity="0.501961" points="818.325819,303.736073,754.798936,311.270710,735.893168,265.867978,841.156771,273.352422" />
<polygon fill="#c6dac4" fill-opacity="0.501961" points="262.159629,716.302672,337.547997,716.996651,252.926723,709.063855,188.159567,715.368326" />
<polygon fill="#701d1f" fill-opacity="0.501961" points="595.587619,664.035797,554.776193,675.719494,545.152393,717.193802,602.711887,690.518776" />
<polygon fill="#8f4b00" fill-opacity="0.501961" points="527.919971,678.899262,589.559893,652.957121,619.386137,646.420428,586.866669,663.161952" />
<polygon fill="#aca597" fill-opacity="0.501961" points="866.732092,548.669482,844.158677,580.684562,809.805794,480.312650,875.354785,499.023635" />
<polygon fill="#a4c9d4" fill-opacity="0.501961" points="526.290106,541.834039,547.265260,562.924836,482.520177,555.504428,367.396526,554.347429" />
<polygon fill="#7fa494" fill-opacity="0.501961" points="346.888919,687.695514,377.809682,690.478912,375.200528,714.652348,314.162947,711.660814" />
<polygon fill="#1a1721" fill-opacity="0.501961" points="287.468610,361.069977,286.503925,340.255778,272.853790,382.444243,279.333204,387.257737" />
<polygon fill="#786740" fill-opacity="0.501961" points="-16.000000,710.876642,274.906312,722.048971,18.156316,727.609723,-8.624648,722.945904" />
<polygon fill="#93776a" fill-opacity="0.501961" points="743.576874,536.598414,705.083007,593.801844,717.069770,587.515012,758.233972,559.315476" />
<polygon fill="#22150e" fill-opacity="0.501961" points="220.453054,576.019839,122.845286,505.954790,238.017523,572.446733,195.460017,619.658524" />
<polygon fill="#ea8016" fill-opacity="0.501961" points="603.992768,458.538939,587.663008,474.613411,578.513519,417.798924,618.649570,411.972010" />
<polygon fill="#becac1" fill-opacity="0.501961" points="473.834669,381.496847,450.216441,427.765087,462.669314,393.600602,435.930055,381.566083" />
<polygon fill="#284f8b" fill-opacity="0.501961" points="433.695587,50.849089,474.955539,-16.000000,-12.645435,-7.064253,-7.436577,69.784697" />
<polygon fill="#2c2825" fill-opacity="0.501961" points="998.540255,309.521901,990.899807,270.780635,989.839877,242.877724,996.890864,244.751265" />
<polygon fill="#cecdc4" fill-opacity="0.501961" points="718.795583,411.308301,726.954664,414.258026,715.235088,433.119159,708.047413,413.430406" />
<polygon fill="#948c80" fill-opacity="0.501961" points="188.886686,250.309404,222.831892,294.474039,63.483456,254.393084,87.538891,229.146850" />
<polygon fill="#adbbb6" fill-opacity="0.501961" points="224.039558,645.685502,215.219604,709.878003,212.874930,651.016571,320.301960,643.368465" />
<polygon fill="#9aa298" fill-opacity="0.501961" points="882.952454,722.988426,861.537084,705.333414,909.204510,708.230345,930.242804,666.310864" />
<polygon fill="#b5b99e" fill-opacity="0.501961" points="327.788868,354.653582,249.045543,402.179540,310.735318,380.656088,254.391310,312.501522" />
<polygon fill="#41949d" fill-opacity="0.501961" points="334.338346,593.476621,389.464022,552.627230,312.768704,575.391480,309.521932,676.530438" />
<polygon fill="#b76510" fill-opacity="0.501961" points="706.031857,377.488516,689.118147,357.802905,625.475374,366.034828,723.524122,311.951491" />
<polygon fill="#3390c1" fill-opacity="0.501961" points="528.137821,598.562884,626.546433,616.604190,627.205605,610.005754,614.819424,593.252500" />
<polygon fill="#9ca59a" fill-opacity="0.501961" points="441.544150,355.619637,381.404526,342.263105,517.141007,335.129826,533.780276,366.568271" />
<polygon fill="#764400" fill-opacity="0.501961" points="452.790188,649.847673,475.074982,612.610544,489.043670,627.009318,372.898387,667.171764" />
<polygon fill="#382e23" fill-opacity="0.501961" points="956.231726,511.362493,1007.072454,480.826372,935.276442,459.998504,937.631830,496.352283" />
<polygon fill="#3c2324" fill-opacity="0.501961" points="177.793573,478.016837,146.241707,481.004293,169.151349,465.024790,168.321480,436.117558" />
<polygon fill="#221a0e" fill-opacity="0.501961" points="159.795420,369.556711,115.953573,350.797514,164.932971,354.812817,182.321103,368.050157" />
<polygon fill="#000001" fill-opacity="0.501961" points="1015.638486,758.042052,1016.247257,660.164625,1011.391749,632.124453,1009.845367,657.025253" />
<polygon fill="#0e171e" fill-opacity="0.501961" points="893.149339,534.771756,890.913201,504.908703,906.939434,568.173630,962.918815,596.028864" />
<polygon fill="#599bbd" fill-opacity="0.501961" points="908.382624,444.097233,904.570229,343.392207,915.528772,411.699704,979.628447,442.718251" />
<polygon fill="#010000" fill-opacity="0.501961" points="630.740576,630.358521,613.503966,640.487643,613.086288,691.658628,622.066028,727.909250" />
<polygon fill="#b9c2b0" fill-opacity="0.501961" points="245.213193,522.069517,267.056883,423.242332,281.811196,425.241153,242.027789,464.857134" />
<polygon fill="#c23960" fill-opacity="0.501961" points="421.210355,492.596223,445.207564,510.121817,474.664117,502.634974,435.208590,466.459096" />
<polygon fill="#e5d6d0" fill-opacity="0.501961" points="181.025269,457.715818,196.683982,443.645459,228.384053,447.273921,182.850226,459.029050" />
<polygon fill="#637185" fill-opacity="0.501961" points="446.398334,52.045278,342.856666,79.383788,392.870712,111.858648,524.553414,73.631413" />
<polygon fill="#ece1cc" fill-opacity="0.501961" points="400.037454,560.522499,354.064412,550.341672,410.104393,555.460062,403.748786,586.130736" />
<polygon fill="#8d2508" fill-opacity="0.501961" points="228.081930,446.003671,244.315826,463.084890,232.141547,438.918086,157.204347,440.550537" />
<polygon fill="#eddbb4" fill-opacity="0.501961" points="658.309553,500.873666,649.903621,499.992711,649.316615,497.434054,558.411315,504.764721" />
<polygon fill="#000c54" fill-opacity="0.501961" points="864.208769,612.317379,874.671763,565.223437,855.524556,590.989408,887.329083,582.779033" />
<polygon fill="#5d6672" fill-opacity="0.501961" points="362.322163,222.965630,370.253193,272.908079,488.481181,272.060853,479.531722,246.324599" />
<polygon fill="#2d4262" fill-opacity="0.501961" points="381.237686,574.729473,398.834409,559.053173,346.177537,563.888513,323.189449,566.034763" />
<polygon fill="#c8cc99" fill-opacity="0.501961" points="470.854270,589.150155,447.840155,591.072299,476.433880,570.512903,499.208851,571.648872" />
<polygon fill="#d2c76e" fill-opacity="0.501961" points="406.900871,383.266528,464.024743,351.225279,429.243839,357.648439,418.230063,429.022021" />
<polygon fill="#292e31" fill-opacity="0.501961" points="620.808294,430.824409,614.707311,435.297602,593.430250,496.585586,639.250639,489.443702" />
<polygon fill="#bbb98c" fill-opacity="0.501961" points="707.823606,383.555505,662.385929,345.192553,691.310911,335.231296,644.155521,376.387600" />
<polygon fill="#bed5cb" fill-opacity="0.501961" points="72.950647,605.360450,73.794335,629.092457,81.604372,574.267150,75.516789,549.963065" />
<polygon fill="#c0afa4" fill-opacity="0.501961" points="162.029362,613.721341,198.861402,571.286297,221.078133,573.269988,191.396375,609.438985" />
<polygon fill="#2683b6" fill-opacity="0.501961" points="391.760500,612.264679,426.057571,641.981495,385.499702,659.420183,431.426575,581.617238" />
<polygon fill="#6d5d50" fill-opacity="0.501961" points="578.239435,380.168384,659.409902,387.504985,699.636772,421.147654,607.328082,403.979460" />
<polygon fill="#b6b6ac" fill-opacity="0.501961" points="339.939084,492.492005,309.802268,443.036395,338.323247,441.666118,341.929977,453.086174" />
<polygon fill="#151417" fill-opacity="0.501961" points="947.871695,695.395111,983.020774,701.685205,978.655481,659.272297,963.031741,723.267745" />
<polygon fill="#375a72" fill-opacity="0.501961" points="16.290619,422.425478,59.622494,324.113288,62.355935,370.963359,49.934403,463.809388" />
<polygon fill="#000c54" fill-opacity="0.501961" points="840.246302,577.105775,823.735384,567.422563,823.536547,568.875697,793.826225,585.416318" />
<polygon fill="#c7c1b5" fill-opacity="0.501961" points="974.401675,210.034802,1010.646479,209.341295,1017.790820,259.676737,965.791304,232.211006" />
<polygon fill="#d8bc52" fill-opacity="0.501961" points="525.448878,318.522858,557.581113,387.530509,554.853827,340.060976,401.911411,319.454148" />
<polygon fill="#00529d" fill-opacity="0.501961" points="515.117744,619.569961,553.678348,611.006028,505.753775,608.904861,502.726741,623.484997" />
<polygon fill="#3e524b" fill-opacity="0.501961" points="106.370733,443.458284,47.489191,443.216918,107.638625,437.940265,180.186479,442.146884" />
<polygon fill="#523533" fill-opacity="0.501961" points="813.801154,649.370436,783.658623,643.737793,796.249405,620.586055,808.394639,623.847050" />
<polygon fill="#d1dbdb" fill-opacity="0.501961" points="854.672512,300.180417,857.847083,364.999634,864.157977,388.311078,857.176876,287.078640" />
<polygon fill="#c6c3b1" fill-opacity="0.501961" points="636.841894,479.083792,609.872752,402.122934,625.999765,443.263665,659.528739,519.694208" />
<polygon fill="#c1c2c4" fill-opacity="0.501961" points="899.802382,567.182624,894.779870,586.780127,890.552390,542.817066,900.511320,548.289646" />
<polygon fill="#bca9a4" fill-opacity="0.501961" points="496.935036,499.154036,452.689040,542.064603,477.630933,496.145864,458.812618,440.180669" />
<polygon fill="#c6492c" fill-opacity="0.501961" points="582.166523,359.405321,653.284730,374.502052,569.138359,316.772612,541.869657,418.851383" />
<polygon fill="#895000" fill-opacity="0.501961" points="612.252150,636.331178,610.852619,616.115556,543.382987,619.134542,590.070427,611.622180" />
<polygon fill="#c89e98" fill-opacity="0.501961" points="168.855237,581.514950,93.967386,595.308227,114.730430,609.178256,173.115980,617.258545" />
<polygon fill="#b6c08d" fill-opacity="0.501961" points="489.521905,623.646602,482.088854,598.286223,510.338699,643.245481,470.380045,639.873025" />
<polygon fill="#0c1918" fill-opacity="0.501961" points="844.053385,650.785148,867.730209,659.776000,880.981224,637.694144,876.064275,632.109036" />
<polygon fill="#781f37" fill-opacity="0.501961" points="377.556939,675.089937,372.737655,709.039023,475.929197,707.079227,482.842988,674.338541" />
<polygon fill="#26211b" fill-opacity="0.501961" points="818.258990,297.357403,837.788039,374.936443,815.290851,330.618587,830.034499,297.704181" />
<polygon fill="#423700" fill-opacity="0.501961" points="433.971528,637.845300,477.097812,646.116865,491.757996,641.031344,554.498114,662.297754" />
<polygon fill="#060000" fill-opacity="0.501961" points="77.650517,594.635247,77.638895,601.876815,99.489334,626.657425,92.334669,609.048446" />
<polygon fill="#6f85a5" fill-opacity="0.501961" points="-7.324176,226.126844,-16.000000,325.681556,132.500926,323.373197,196.992587,319.745054" />
<polygon fill="#5a4b4a" fill-opacity="0.501961" points="480.609079,486.416588,518.405612,464.845237,542.981682,440.931261,530.692827,426.226897" />
<polygon fill="#4d473e" fill-opacity="0.501961" points="1026.058471,277.686034,964.858261,249.490862,965.146515,223.278571,984.832335,278.058322" />
<polygon fill="#3da8d5" fill-opacity="0.501961" points="657.218936,644.970174,787.749400,640.373211,731.435307,632.639644,724.384681,615.359879" />
<polygon fill="#3a3835" fill-opacity="0.501961" points="816.283061,255.368767,851.287612,213.716034,856.677987,269.858305,800.721681,272.061123" />
<polygon fill="#1d453f" fill-opacity="0.501961" points="409.161971,592.912885,457.680452,584.525023,425.878526,554.578517,411.868826,595.002252" />
<polygon fill="#00264f" fill-opacity="0.501961" points="716.731682,656.992496,707.607652,649.690700,657.096684,648.082085,664.344022,659.350702" />
<polygon fill="#001936" fill-opacity="0.501961" points="609.193281,317.403064,589.126335,314.468646,595.682471,327.393763,611.780417,323.064523" />
<polygon fill="#d4d4c7" fill-opacity="0.501961" points="684.855458,525.616099,639.338003,562.373998,637.516670,572.594897,663.287869,562.194708" />
<polygon fill="#cf7200" fill-opacity="0.501961" points="274.931129,626.919247,300.361936,602.870028,292.502251,626.182504,291.946383,621.145848" />
<polygon fill="#050a0b" fill-opacity="0.501961" points="741.385310,711.171527,743.881450,663.343961,736.719644,697.163576,688.871036,703.918378" />
<polygon fill="#2572af" fill-opacity="0.501961" points="883.298931,575.673188,933.512198,573.220452,931.062644,630.932012,911.579102,652.572358" />
<polygon fill="#54637b" fill-opacity="0.501961" points="628.298844,169.535184,784.190113,109.495854,583.760957,70.199687,554.444879,138.222500" />
<polygon fill="#076ab3" fill-opacity="0.501961" points="664.427635,635.608619,634.338903,596.160520,633.209732,651.641006,641.110267,658.849139" />
<polygon fill="#a1ada2" fill-opacity="0.501961" points="705.570890,681.436032,696.925946,654.315098,666.416726,664.530723,716.962972,658.186465" />
<polygon fill="#0b0a09" fill-opacity="0.501961" points="923.883833,531.535758,927.193088,511.386521,950.937168,532.007898,929.240459,546.907380" />
<polygon fill="#b1ac9a" fill-opacity="0.501961" points="805.595746,433.412758,821.663297,464.672586,783.419966,508.432347,816.688551,516.032762" />
<polygon fill="#154289" fill-opacity="0.501961" points="299.165202,507.182703,323.930473,505.960933,328.033852,450.572292,312.693191,455.447041" />
<polygon fill="#e6dfc3" fill-opacity="0.501961" points="590.733517,515.743082,571.251539,565.440988,606.171368,519.243351,600.551428,582.176687" />
<polygon fill="#6d8bae" fill-opacity="0.501961" points="701.989895,315.549398,743.515729,264.857864,435.342726,281.590660,506.856098,315.018017" />
<polygon fill="#190c0c" fill-opacity="0.501961" points="0.902702,316.764324,21.160093,550.987512,53.479960,508.322491,-16.000000,538.283948" />
<polygon fill="#43403f" fill-opacity="0.501961" points="758.661144,351.436723,744.707110,351.281928,742.827140,378.749371,773.492456,342.818935" />
<polygon fill="#849392" fill-opacity="0.501961" points="737.218346,470.034737,769.038146,458.810227,774.199274,438.427580,730.525005,437.129837" />
<polygon fill="#2c5881" fill-opacity="0.501961" points="32.145467,709.044917,46.616846,572.956283,74.729093,553.834713,73.179612,598.716138" />
<polygon fill="#ba2318" fill-opacity="0.501961" points="75.572349,505.266330,81.989081,514.541502,115.264108,510.371372,98.576667,500.600970" />
<polygon fill="#000e12" fill-opacity="0.501961" points="654.373525,690.965740,677.767040,706.851634,688.965280,703.535670,648.160293,682.861760" />
<polygon fill="#cac4af" fill-opacity="0.501961" points="200.048007,339.957062,223.387883,319.784754,176.285707,323.466469,202.621271,342.094695" />
<polygon fill="#a09390" fill-opacity="0.501961" points="560.841024,395.021587,598.237310,422.331354,582.072814,355.607417,622.530727,371.407244" />
<polygon fill="#aeaa9e" fill-opacity="0.501961" points="743.138224,680.068228,767.789991,709.632593,766.387571,690.517462,749.873915,677.574655" />
<polygon fill="#948b77" fill-opacity="0.501961" points="882.109614,447.623515,961.952158,465.136870,977.697360,472.742550,965.085342,451.381787" />
<polygon fill="#094081" fill-opacity="0.501961" points="719.265603,559.723004,757.167730,565.046174,723.017659,572.512079,704.254699,587.810111" />
<polygon fill="#babcb2" fill-opacity="0.501961" points="712.033575,376.686870,727.072089,340.284776,784.892359,332.448510,733.951827,361.940374" />
<polygon fill="#394c58" fill-opacity="0.501961" points="787.576669,323.276561,739.133270,325.282722,710.830312,347.949809,723.531426,342.201179" />
<polygon fill="#5e9cba" fill-opacity="0.501961" points="71.778117,548.529334,34.656789,554.930971,48.084874,524.029319,77.224009,442.359157" />
<polygon fill="#c5d4c4" fill-opacity="0.501961" points="630.054972,724.522389,629.321238,672.691832,649.115041,707.486971,642.563126,671.436346" />
<polygon fill="#1a002d" fill-opacity="0.501961" points="101.517761,371.308376,96.427718,425.816254,94.093595,459.583166,97.244960,451.387818" />
<polygon fill="#182a58" fill-opacity="0.501961" points="653.513379,620.509187,637.218920,641.604034,654.031156,602.113556,689.640795,556.142358" />
<polygon fill="#e0d9be" fill-opacity="0.501961" points="344.085402,340.196317,343.148595,313.559102,340.770665,313.142140,336.804557,387.472819" />
<polygon fill="#565750" fill-opacity="0.501961" points="567.114394,479.840549,603.832695,517.104680,545.964549,506.079849,500.643479,520.206538" />
<polygon fill="#86262b" fill-opacity="0.501961" points="409.164890,558.222521,395.023163,548.524161,341.667051,546.749290,414.620248,532.504702" />
<polygon fill="#626258" fill-opacity="0.501961" points="397.528102,381.288549,438.267196,356.081967,386.004273,328.511565,422.436839,333.090499" />
<polygon fill="#00050c" fill-opacity="0.501961" points="170.386148,578.091285,139.297673,578.989885,187.892003,569.922390,173.258272,597.185519" />
<polygon fill="#212321" fill-opacity="0.501961" points="263.156148,435.187234,254.342476,416.300879,315.843070,387.109688,292.174986,389.694186" />
<polygon fill="#b0b6ab" fill-opacity="0.501961" points="155.684728,470.087303,96.106933,544.841543,137.320382,466.318598,186.838523,400.440883" />
<polygon fill="#c7cbc2" fill-opacity="0.501961" points="307.719191,436.241319,319.740127,410.272788,328.971372,375.438432,303.106818,436.909779" />
<polygon fill="#1c1f29" fill-opacity="0.501961" points="749.485537,397.294722,816.080750,380.718895,727.172112,417.831176,723.275821,414.276213" />
<polygon fill="#4b2706" fill-opacity="0.501961" points="231.972405,636.339879,318.022407,577.464297,255.497295,630.892912,225.225926,615.616589" />
<polygon fill="#052881" fill-opacity="0.501961" points="474.024590,559.587987,499.317014,560.826465,472.228337,550.945850,450.276298,567.617147" />
<polygon fill="#f8e594" fill-opacity="0.501961" points="340.961010,401.934751,339.327842,358.280162,335.919100,426.291074,341.293005,429.298935" />
<polygon fill="#1c81b0" fill-opacity="0.501961" points="439.127373,595.809953,419.746083,587.107500,442.972048,643.913733,445.703577,615.345032" />
<polygon fill="#625a42" fill-opacity="0.501961" points="637.072418,719.927053,609.375416,760.138695,446.353435,762.495285,439.460105,725.974889" />
<polygon fill="#0c161f" fill-opacity="0.501961" points="1007.827701,540.634478,985.466364,467.288371,987.951209,542.299553,1000.279151,504.870300" />
<polygon fill="#868c90" fill-opacity="0.501961" points="694.318608,101.557907,580.473338,16.368616,780.318951,12.692273,852.389381,77.565912" />
<polygon fill="#050b0c" fill-opacity="0.501961" points="55.419636,629.299691,58.554604,634.718271,66.239736,644.162939,82.365397,632.420846" />
<polygon fill="#a0190f" fill-opacity="0.501961" points="122.314074,596.640805,100.073829,584.780416,88.193051,576.921327,70.849923,546.581277" />
<polygon fill="#181111" fill-opacity="0.501961" points="1022.436264,286.193806,1015.125000,222.684519,1014.241820,195.360527,1017.737342,207.757824" />
<polygon fill="#2d3a4d" fill-opacity="0.501961" points="28.901860,416.768043,57.663435,448.193915,13.230344,525.530297,27.581181,434.735521" />
<polygon fill="#040702" fill-opacity="0.501961" points="887.948407,434.687108,921.257891,457.375001,908.530193,440.784067,907.252720,417.691575" />
<polygon fill="#1c130e" fill-opacity="0.501961" points="896.833157,651.126858,897.259611,690.107612,815.653433,704.468100,909.092863,697.714977" />
<polygon fill="#dff4e0" fill-opacity="0.501961" points="1010.731684,575.573251,1009.719203,527.363343,1012.303813,570.869929,1039.000000,577.327765" />
<polygon fill="#2d2d25" fill-opacity="0.501961" points="495.098178,379.686627,470.093068,389.480236,507.056358,453.948193,515.195887,383.390968" />
<polygon fill="#2f2e2f" fill-opacity="0.501961" points="203.993271,336.290595,230.579191,313.289095,188.131561,366.808445,193.739834,420.037550" />
<polygon fill="#dde4c4" fill-opacity="0.501961" points="129.991190,620.030832,84.892455,621.328171,73.442506,584.110189,76.964320,619.982858" />
<polygon fill="#6193b0" fill-opacity="0.501961" points="1039.000000,464.041490,895.793387,360.489037,861.422956,308.624069,967.372936,311.800570" />
<polygon fill="#1c5d9d" fill-opacity="0.501961" points="622.672984,516.037958,642.131437,516.461926,631.165202,533.593647,623.582635,560.137914" />
<polygon fill="#422c18" fill-opacity="0.501961" points="282.346564,551.199985,295.349822,488.410084,304.085847,523.424316,269.810586,513.729028" />
<polygon fill="#c2c6b7" fill-opacity="0.501961" points="782.646202,520.371338,773.437750,519.427960,743.310800,494.366870,790.721172,501.551989" />
<polygon fill="#633327" fill-opacity="0.501961" points="985.295453,552.270062,974.822043,556.591559,931.084327,591.194812,934.629860,544.081827" />
<polygon fill="#f3eb74" fill-opacity="0.501961" points="816.832770,344.620815,825.994681,352.227211,824.927063,360.143516,814.961705,363.812178" />
<polygon fill="#067ac9" fill-opacity="0.501961" points="342.634767,621.054242,329.146080,615.575511,350.194990,611.079608,343.799146,641.404758" />
<polygon fill="#cad6c7" fill-opacity="0.501961" points="487.901898,465.102812,504.162657,467.134429,494.298570,445.688214,487.756813,461.524911" />
<polygon fill="#488ba9" fill-opacity="0.501961" points="199.748754,688.159773,206.304372,688.682170,212.644882,716.543188,48.705919,686.479861" />
<polygon fill="#dcd6bb" fill-opacity="0.501961" points="921.332084,297.975776,908.075641,236.684273,959.406337,240.452056,955.404714,255.700347" />
<polygon fill="#463d33" fill-opacity="0.501961" points="901.022977,301.696811,930.056876,308.167172,948.300555,295.244512,921.574945,295.805755" />
<polygon fill="#4cabd4" fill-opacity="0.501961" points="673.326793,563.226990,688.573234,619.600649,697.547200,639.045275,701.966283,566.347251" />
<polygon fill="#d7d4ce" fill-opacity="0.501961" points="480.068972,718.865832,442.235259,721.085422,479.912288,713.825667,584.075222,719.544242" />
<polygon fill="#777868" fill-opacity="0.501961" points="108.551680,320.190895,142.095348,348.353510,144.198733,400.847822,115.021453,406.580371" />
<polygon fill="#2b85c2" fill-opacity="0.501961" points="668.595914,497.632979,664.810088,551.866848,654.400665,562.907405,653.988523,557.001055" />
<polygon fill="#9cad8c" fill-opacity="0.501961" points="549.896005,656.265126,526.833372,561.316923,532.871978,631.563938,512.204526,631.612886" />
<polygon fill="#e6ebd5" fill-opacity="0.501961" points="826.372929,377.561312,829.550208,376.033596,862.166439,379.078357,812.239857,382.378211" />
<polygon fill="#9d3611" fill-opacity="0.501961" points="825.229910,714.915911,865.504782,652.004232,837.912760,700.706438,885.877263,715.579761" />
<polygon fill="#b8b99d" fill-opacity="0.501961" points="376.985951,537.958197,388.216043,535.236009,376.861900,500.328066,355.135313,544.981287" />
<polygon fill="#cec1ad" fill-opacity="0.501961" points="610.563551,633.703275,611.308938,706.254163,604.986807,625.995155,634.002744,634.434658" />
<polygon fill="#8a8b88" fill-opacity="0.501961" points="452.154484,180.076994,357.484782,147.231803,343.291265,203.963100,500.771972,263.519097" />
<polygon fill="#0d070f" fill-opacity="0.501961" points="1016.407874,558.585596,1009.840965,495.327984,1008.969678,454.328414,1039.000000,444.939415" />
<polygon fill="#507ca7" fill-opacity="0.501961" points="489.290841,541.416191,541.636320,512.716606,544.910525,534.870726,529.233110,543.281778" />
<polygon fill="#ded5b8" fill-opacity="0.501961" points="420.221727,372.149279,374.426332,478.647364,392.305606,443.619562,410.916227,389.625665" />
<polygon fill="#232d59" fill-opacity="0.501961" points="94.700975,497.051743,97.870098,435.626034,89.066058,500.879776,71.942240,492.731737" />
<polygon fill="#242721" fill-opacity="0.501961" points="920.309683,499.012418,909.865078,479.697089,899.347720,480.898164,906.098119,541.885582" />
<polygon fill="#1f1f1d" fill-opacity="0.501961" points="889.050975,255.039287,906.515718,230.020094,911.641444,261.351063,909.800236,265.409187" />
<polygon fill="#150e11" fill-opacity="0.501961" points="423.592603,633.495826,416.657084,642.578199,422.609111,597.592460,428.911455,607.417670" />
<polygon fill="#10526f" fill-opacity="0.501961" points="282.678581,640.474249,336.928822,661.481466,329.139873,617.750914,300.964631,673.487209" />
<polygon fill="#256e9a" fill-opacity="0.501961" points="555.722886,607.315243,585.221062,584.240603,553.884438,549.355777,531.594820,618.033339" />
<polygon fill="#3c3f39" fill-opacity="0.501961" points="711.831877,399.610319,689.961344,361.682530,715.920807,376.444960,737.792128,394.970014" />
<polygon fill="#c0c7bc" fill-opacity="0.501961" points="139.629867,344.413056,172.115317,347.746043,189.364991,379.807029,186.201211,364.824329" />
<polygon fill="#cdc1be" fill-opacity="0.501961" points="854.456238,445.451411,892.479896,506.377587,864.340469,470.389297,870.410571,476.283891" />
<polygon fill="#ceb246" fill-opacity="0.501961" points="677.837722,314.308251,692.895183,351.838005,671.390106,333.633831,632.641000,315.354381" />
<polygon fill="#2b234f" fill-opacity="0.501961" points="730.712521,631.089323,730.624990,620.242341,737.977417,602.138793,744.816971,633.982204" />
<polygon fill="#392b19" fill-opacity="0.501961" points="500.253135,437.410355,436.368235,440.599274,407.567588,438.581840,498.903743,424.204818" />
<polygon fill="#00649a" fill-opacity="0.501961" points="229.663700,621.901375,221.690804,598.532434,265.219512,616.370517,246.036862,622.280473" />
<polygon fill="#d5d0c7" fill-opacity="0.501961" points="602.084115,466.372799,616.820130,431.623844,623.783809,434.293598,615.696599,418.860157" />
<polygon fill="#050000" fill-opacity="0.501961" points="1003.879824,266.911752,967.992884,261.453847,955.585082,263.910764,961.492482,270.008689" />
<polygon fill="#6c4435" fill-opacity="0.501961" points="708.692135,493.379387,697.049701,507.921225,649.393167,499.133077,655.271278,474.230208" />
<polygon fill="#18120b" fill-opacity="0.501961" points="257.193952,541.169573,215.358428,568.693740,176.726616,556.261624,223.186567,498.908002" />
<polygon fill="#082138" fill-opacity="0.501961" points="349.802265,572.286554,362.950746,590.751088,365.438042,568.076753,345.062727,656.963516" />
<polygon fill="#1b82b7" fill-opacity="0.501961" points="550.334495,676.336156,506.750563,654.165696,516.739736,678.765108,501.281996,690.581505" />
<polygon fill="#c0840e" fill-opacity="0.501961" points="627.050379,614.709196,629.876736,639.072565,632.513323,622.512763,634.275249,612.960695" />
<polygon fill="#0b6cb1" fill-opacity="0.501961" points="492.153601,648.548142,442.208818,657.652257,388.270036,669.402700,445.530482,649.504859" />
<polygon fill="#d4d8c8" fill-opacity="0.501961" points="603.069402,566.469117,586.041532,563.114616,622.312765,546.417111,623.874672,509.811303" />
<polygon fill="#e9be94" fill-opacity="0.501961" points="689.438216,576.911743,698.580872,561.122324,709.078870,556.658697,696.023496,577.975451" />
<polygon fill="#5d6a7f" fill-opacity="0.501961" points="106.999876,122.675848,106.620698,93.411415,-16.000000,90.801551,124.773979,165.924163" />
<polygon fill="#31291d" fill-opacity="0.501961" points="291.341645,445.209820,291.020375,486.518224,309.261607,440.862490,239.641563,428.347460" />
<polygon fill="#f5ab00" fill-opacity="0.501961" points="592.686676,669.174126,593.642217,674.834505,570.544654,680.143431,551.168393,679.511604" />
<polygon fill="#1a475e" fill-opacity="0.501961" points="559.253422,623.640542,543.862267,670.500423,603.731054,650.644831,595.183784,624.122878" />
<polygon fill="#2c261f" fill-opacity="0.501961" points="173.311588,325.771925,124.031902,336.572658,173.264353,332.318712,186.609436,326.869929" />
<polygon fill="#3c6685" fill-opacity="0.501961" points="231.515475,708.642327,252.283051,699.550907,251.744437,688.293682,293.086313,712.904210" />
<polygon fill="#bba011" fill-opacity="0.501961" points="405.927360,675.658152,478.223643,655.276665,369.010471,675.749779,457.162421,674.210339" />
<polygon fill="#d3cba2" fill-opacity="0.501961" points="479.155422,571.940693,521.018220,576.092189,492.931728,569.327098,499.649018,599.888826" />
<polygon fill="#4f4534" fill-opacity="0.501961" points="741.105505,759.064647,892.357090,760.330859,1039.000000,752.556732,911.540182,723.646146" />
<polygon fill="#b7b199" fill-opacity="0.501961" points="443.725200,403.208521,489.585454,401.602402,453.965891,412.167513,462.064426,435.323422" />
<polygon fill="#9ba093" fill-opacity="0.501961" points="177.651394,558.789582,216.873603,581.040563,183.020441,569.026050,139.808256,563.100560" />
<polygon fill="#000000" fill-opacity="0.501961" points="500.813799,574.842474,497.661871,573.937498,499.745101,601.409284,505.213242,572.651313" />
<polygon fill="#887961" fill-opacity="0.501961" points="980.366007,720.419731,1011.011738,705.361864,1018.045969,735.533831,904.470455,724.083154" />
<polygon fill="#496739" fill-opacity="0.501961" points="367.882306,635.873473,292.110199,672.295939,374.932774,675.792377,386.976929,637.766138" />
<polygon fill="#092062" fill-opacity="0.501961" points="686.304666,532.111368,685.084791,496.565945,682.934666,528.360412,658.765777,585.859933" />
<polygon fill="#1d050f" fill-opacity="0.501961" points="-0.471272,714.503945,-16.000000,704.027575,33.311094,683.339094,34.630533,714.211326" />
<polygon fill="#10195b" fill-opacity="0.501961" points="780.926693,534.551580,774.264764,567.437667,738.242726,582.276351,762.065977,583.355139" />
<polygon fill="#2a7cad" fill-opacity="0.501961" points="589.550503,581.593030,640.920554,550.053784,653.179316,516.616250,619.054816,576.697867" />
<polygon fill="#b6c6c8" fill-opacity="0.501961" points="806.639711,365.774500,792.324747,374.465416,773.454030,338.875446,790.767779,385.210113" />
<polygon fill="#c9a748" fill-opacity="0.501961" points="512.726433,317.507225,410.450716,327.326046,381.555593,343.762240,379.941081,319.301976" />
<polygon fill="#5f5f56" fill-opacity="0.501961" points="504.515033,350.698896,398.288238,336.850468,541.320465,361.958966,498.657358,370.141988" />
<polygon fill="#281d12" fill-opacity="0.501961" points="813.417774,371.420958,806.705096,343.934357,805.045412,384.180039,810.567583,396.514258" />
<polygon fill="#361d16" fill-opacity="0.501961" points="477.449400,476.308868,477.373210,465.607459,471.262679,423.930121,493.153270,476.652143" />
<polygon fill="#b3b5bb" fill-opacity="0.501961" points="1039.000000,752.856129,1020.153368,689.202286,1022.527949,644.163557,1016.775349,641.063443" />
<polygon fill="#1a0b00" fill-opacity="0.501961" points="365.613396,624.385817,381.110812,576.028156,378.501939,573.188204,366.652987,607.150986" />
<polygon fill="#f08b0b" fill-opacity="0.501961" points="338.281342,603.712237,348.189585,590.851854,346.095756,606.938753,335.971770,613.472966" />
<polygon fill="#373b63" fill-opacity="0.501961" points="712.946009,502.434653,684.410195,570.958487,721.143298,501.944699,774.852638,482.310154" />
<polygon fill="#5075a6" fill-opacity="0.501961" points="393.817360,273.457625,256.026789,177.576059,-16.000000,218.351459,357.465213,266.634262" />
<polygon fill="#98283f" fill-opacity="0.501961" points="436.520333,515.285204,420.399812,491.990408,473.046046,509.566362,490.566507,480.324286" />
<polygon fill="#b72d0b" fill-opacity="0.501961" points="761.744298,661.206510,820.948488,679.949414,792.301789,640.655812,709.554616,666.374537" />
<polygon fill="#dbdcd2" fill-opacity="0.501961" points="413.279881,327.702683,424.701932,322.448895,428.606298,327.513264,436.861684,347.180786" />
<polygon fill="#adaaa0" fill-opacity="0.501961" points="948.160463,496.891935,914.321932,525.460393,916.649220,516.710640,955.630662,483.597843" />
<polygon fill="#393e64" fill-opacity="0.501961" points="705.373969,646.844817,725.547992,594.946524,700.694580,603.513693,720.590947,674.592335" />
<polygon fill="#c0cec7" fill-opacity="0.501961" points="1012.139196,508.390187,996.329812,486.374153,1010.920994,518.422780,1004.823806,475.783789" />
<polygon fill="#9e1108" fill-opacity="0.501961" points="332.769420,560.641603,307.628966,571.731824,311.428266,578.008799,333.009822,566.149223" />
<polygon fill="#decd8a" fill-opacity="0.501961" points="376.715945,350.004667,377.834862,386.801849,438.148870,381.126614,395.168863,388.630434" />
<polygon fill="#747c87" fill-opacity="0.501961" points="504.809720,25.515766,582.097567,87.771057,708.180112,119.710103,546.966619,0.671692" />
<polygon fill="#001969" fill-opacity="0.501961" points="716.206404,648.106280,775.273881,647.615474,747.921697,644.058854,688.735249,646.316977" />
<polygon fill="#584b38" fill-opacity="0.501961" points="82.865489,724.536745,243.724750,728.234053,398.710800,718.904766,250.575383,739.489286" />
<polygon fill="#777f91" fill-opacity="0.501961" points="697.088731,206.086325,605.983967,183.017368,506.851540,238.832795,712.576054,232.807326" />
<polygon fill="#1c2222" fill-opacity="0.501961" points="703.251423,316.691231,702.902317,316.586495,684.729521,325.605885,682.196478,312.695923" />
<polygon fill="#32353b" fill-opacity="0.501961" points="827.784022,487.746555,800.916634,468.555861,804.087471,495.053772,825.666825,454.408171" />
<polygon fill="#daaf8b" fill-opacity="0.501961" points="679.788670,611.838861,670.062380,626.456199,681.404353,629.907946,685.201030,621.895821" />
<polygon fill="#c7ba9d" fill-opacity="0.501961" points="990.449636,267.097021,958.435120,309.819596,938.940687,292.798192,989.799691,296.091999" />
<polygon fill="#dbe5d8" fill-opacity="0.501961" points="498.039255,543.381471,499.460394,545.585037,525.663259,551.319911,495.706491,530.461845" />
<polygon fill="#452500" fill-opacity="0.501961" points="524.902812,596.044022,531.714399,571.341131,510.072851,579.947278,518.693669,577.453340" />
<polygon fill="#beb40f" fill-opacity="0.501961" points="813.548143,645.725769,828.681974,645.209645,852.912482,644.760402,821.777916,652.135710" />
<polygon fill="#e6e3d7" fill-opacity="0.501961" points="1007.089440,441.866956,1008.377181,476.711339,1005.973440,479.162276,1004.613766,458.370501" />
<polygon fill="#adafa3" fill-opacity="0.501961" points="363.144798,545.880324,308.350241,514.783300,336.781239,548.753585,394.899247,499.137815" />
<polygon fill="#ba4300" fill-opacity="0.501961" points="686.968618,435.448472,701.564380,439.871859,708.886808,410.460912,688.549626,416.091185" />
<polygon fill="#160b09" fill-opacity="0.501961" points="364.453706,768.039494,819.052010,768.187065,774.467019,760.458083,600.338346,761.311784" />
<polygon fill="#e1f2f1" fill-opacity="0.501961" points="888.314955,498.962717,880.513022,495.865513,893.017367,494.057979,902.146257,496.130470" />
<polygon fill="#da5f1e" fill-opacity="0.501961" points="610.901045,377.386286,583.014410,407.084464,634.613629,375.278643,637.316608,383.445583" />
<polygon fill="#3f3258" fill-opacity="0.501961" points="835.683178,622.930859,846.542010,637.770951,801.207556,637.382530,799.021129,639.074589" />
<polygon fill="#0f0f0d" fill-opacity="0.501961" points="342.253537,439.277519,392.639159,437.347143,362.888322,494.262736,341.632542,486.266855" />
<polygon fill="#222d20" fill-opacity="0.501961" points="167.621855,621.698323,138.041159,618.886061,233.244155,619.261060,161.301656,621.405431" />
<polygon fill="#5991af" fill-opacity="0.501961" points="92.829555,415.344746,103.616754,319.541631,43.849937,368.442571,54.940891,453.177909" />
<polygon fill="#3d6795" fill-opacity="0.501961" points="14.891336,566.655640,8.002545,582.917846,30.132985,569.677271,21.080796,545.725033" />
<polygon fill="#010000" fill-opacity="0.501961" points="906.319649,673.355123,878.306124,667.511297,903.782727,650.325534,922.144307,663.402290" />
<polygon fill="#030041" fill-opacity="0.501961" points="679.340628,606.919885,656.805204,649.996333,638.273689,659.132336,650.780779,648.605869" />
<polygon fill="#5d3105" fill-opacity="0.501961" points="612.026976,595.112030,580.421857,565.110144,590.251350,597.808440,621.437244,568.006818" />
<polygon fill="#251e24" fill-opacity="0.501961" points="-10.999375,325.414712,29.993169,325.963657,63.029763,364.430929,-16.000000,336.637622" />
<polygon fill="#86a7aa" fill-opacity="0.501961" points="1000.091749,601.430101,991.827835,589.561424,1003.113008,567.843747,1002.851301,581.706048" />
<polygon fill="#363420" fill-opacity="0.501961" points="467.119697,366.585369,423.875771,374.914040,452.719999,356.928037,484.976403,362.495959" />
<polygon fill="#3093c7" fill-opacity="0.501961" points="853.785303,595.333018,858.174216,585.950242,799.766845,581.820153,773.733301,639.270309" />
<polygon fill="#177ab6" fill-opacity="0.501961" points="585.700232,655.969590,555.936447,661.635366,575.674767,643.517539,571.533978,610.165566" />
<polygon fill="#999892" fill-opacity="0.501961" points="730.565226,398.252689,770.733209,390.449399,725.236005,405.653733,750.188108,361.430855" />
<polygon fill="#b5c4b1" fill-opacity="0.501961" points="317.716622,642.860265,258.472552,648.773357,204.264294,645.527648,277.301045,644.237398" />
<polygon fill="#636f81" fill-opacity="0.501961" points="904.032899,83.635785,600.284155,118.769321,799.106245,52.621263,887.348978,47.876136" />
<polygon fill="#765f15" fill-opacity="0.501961" points="311.623563,433.921398,326.805029,431.720876,338.401684,447.107399,337.450215,361.677279" />
<polygon fill="#c77211" fill-opacity="0.501961" points="935.048165,572.085338,935.843021,633.314696,999.495866,607.079337,950.298493,599.446731" />
<polygon fill="#827146" fill-opacity="0.501961" points="921.052035,670.592600,929.336715,652.646885,927.378160,683.288757,894.739402,676.870590" />
<polygon fill="#154286" fill-opacity="0.501961" points="312.220726,504.677342,382.180977,507.416739,383.595297,463.303044,388.332832,501.880904" />
<polygon fill="#404b63" fill-opacity="0.501961" points="2.165414,651.467532,18.361207,641.917260,27.034744,731.993897,10.091113,691.372945" />
<polygon fill="#ab3b0f" fill-opacity="0.501961" points="308.711781,537.810560,339.279655,542.344655,284.754534,580.279460,294.843169,586.289673" />
<polygon fill="#3e607f" fill-opacity="0.501961" points="495.238364,542.941245,505.144638,554.479275,479.102760,547.408527,510.781920,513.851894" />
<polygon fill="#b9b9a4" fill-opacity="0.501961" points="275.857127,438.922778,274.377203,491.337332,247.806486,442.050926,294.443536,467.089759" />
<polygon fill="#afab9e" fill-opacity="0.501961" points="192.202682,346.567885,198.367806,368.106038,230.164742,310.773076,235.031092,402.844605" />
<polygon fill="#000013" fill-opacity="0.501961" points="74.183101,540.163082,74.518884,551.577624,71.970229,609.286115,70.714406,565.957820" />
<polygon fill="#cfcca3" fill-opacity="0.501961" points="497.651245,340.111651,500.447199,338.514397,541.634385,323.283688,468.863795,371.007055" />
<polygon fill="#100f00" fill-opacity="0.501961" points="470.925736,591.196150,463.632274,591.419138,444.658424,603.277876,444.809490,594.012107" />
<polygon fill="#273447" fill-opacity="0.501961" points="74.933078,501.272885,69.843901,590.422068,77.401450,522.319403,76.542054,492.112530" />
<polygon fill="#838c84" fill-opacity="0.501961" points="641.962840,674.745155,689.750789,681.538388,709.559877,700.960088,681.118353,700.282004" />
<polygon fill="#2f2a19" fill-opacity="0.501961" points="518.048767,348.229371,511.324353,345.099304,523.606869,338.498269,534.214032,341.312376" />
<polygon fill="#cbb99b" fill-opacity="0.501961" points="827.472504,558.938597,814.902818,563.625015,850.488116,569.700718,824.065661,534.494483" />
<polygon fill="#d85e00" fill-opacity="0.501961" points="890.023029,510.138563,884.540476,499.839867,878.965817,537.225057,887.778848,539.806837" />
<polygon fill="#000208" fill-opacity="0.501961" points="1001.191682,642.308794,1039.000000,643.362036,1006.951746,628.246989,919.854070,637.736674" />
<polygon fill="#0f110e" fill-opacity="0.501961" points="292.011724,622.669089,287.344678,645.366805,266.350953,644.684960,177.098861,641.531956" />
<polygon fill="#b6cacc" fill-opacity="0.501961" points="1012.981673,611.875452,1011.398838,623.381297,1018.777541,626.782331,1009.063614,548.502863" />
<polygon fill="#4d8ba9" fill-opacity="0.501961" points="69.407763,515.469654,59.137066,578.445576,41.935550,571.343530,62.269328,630.553451" />
<polygon fill="#6f4200" fill-opacity="0.501961" points="563.546706,657.607275,529.086995,658.459327,540.057359,679.399829,553.033191,649.968084" />
<polygon fill="#a6b5b9" fill-opacity="0.501961" points="308.853824,639.671681,320.306527,662.112026,307.124685,660.701603,289.081537,615.199651" />
<polygon fill="#79a258" fill-opacity="0.501961" points="304.185336,602.414130,340.845285,584.404214,374.855440,562.025738,320.024581,582.906423" />
<polygon fill="#273931" fill-opacity="0.501961" points="517.010966,596.260336,515.979069,605.390989,511.441100,667.652141,508.939054,590.349445" />
<polygon fill="#b49a95" fill-opacity="0.501961" points="542.772336,470.122125,431.616946,479.468996,421.120627,509.197614,408.984607,498.476188" />
<polygon fill="#c34a15" fill-opacity="0.501961" points="244.675968,458.736220,219.112142,497.474050,178.840146,481.875869,202.968589,450.612228" />
<polygon fill="#1e89c1" fill-opacity="0.501961" points="385.366647,612.270980,381.924188,636.419879,383.997060,635.311735,351.437592,637.339989" />
<polygon fill="#c8b8a5" fill-opacity="0.501961" points="714.656982,612.804226,707.217407,613.184772,707.150340,603.861405,722.264901,604.290498" />
<polygon fill="#280b00" fill-opacity="0.501961" points="247.103367,559.495541,244.461426,572.692028,250.438247,589.502438,253.968419,569.159514" />
<polygon fill="#844b29" fill-opacity="0.501961" points="700.793841,365.721338,744.416281,324.422460,754.819625,295.711408,750.665143,280.403081" />
<polygon fill="#439abf" fill-opacity="0.501961" points="611.951209,586.100457,697.216940,560.675205,602.441711,602.474201,633.252005,640.229526" />
<polygon fill="#b15407" fill-opacity="0.501961" points="331.105354,630.412857,349.417317,656.999516,345.997023,647.082037,336.539066,619.541315" />
<polygon fill="#110504" fill-opacity="0.501961" points="621.186750,592.231100,635.876006,611.038350,616.548436,597.048930,649.438859,594.508613" />
<polygon fill="#222f5a" fill-opacity="0.501961" points="443.291009,702.082209,374.021296,705.341039,438.786475,709.276860,495.326957,704.730847" />
<polygon fill="#919a9c" fill-opacity="0.501961" points="999.610068,509.694397,994.909580,522.836632,979.049857,578.852470,995.280329,571.889390" />
<polygon fill="#e1936e" fill-opacity="0.501961" points="556.514175,370.795062,526.477609,387.085945,568.207029,387.808251,601.972895,355.890145" />
<polygon fill="#2b2402" fill-opacity="0.501961" points="464.970000,609.339873,482.332021,594.904585,478.514023,577.801198,469.371075,626.889383" />
<polygon fill="#282117" fill-opacity="0.501961" points="486.004335,397.226443,443.182552,397.597200,426.804334,430.765057,421.920208,388.647485" />
<polygon fill="#63615d" fill-opacity="0.501961" points="190.829513,382.854043,196.868193,427.991072,116.873024,514.024771,181.037186,434.263858" />
<polygon fill="#6f2a17" fill-opacity="0.501961" points="923.608777,482.394811,922.996450,494.354828,913.378156,469.927201,923.578499,464.820964" />
<polygon fill="#5fa689" fill-opacity="0.501961" points="417.269218,646.087587,390.441225,649.795851,314.442499,659.144963,352.150713,663.094727" />
<polygon fill="#33a1d4" fill-opacity="0.501961" points="650.678404,648.819269,687.411367,577.913273,634.606942,649.661873,647.238045,649.528693" />
<polygon fill="#c25903" fill-opacity="0.501961" points="858.323437,368.116025,843.558346,372.058847,856.597501,331.933563,849.922861,305.708588" />
<polygon fill="#332e2a" fill-opacity="0.501961" points="1014.041835,296.191480,971.459600,313.898841,967.095353,294.832225,975.585408,295.505694" />
<polygon fill="#022758" fill-opacity="0.501961" points="689.866358,634.059788,685.841264,599.010860,667.131119,598.207318,683.142140,613.785666" />
<polygon fill="#31a4db" fill-opacity="0.501961" points="689.833504,518.457972,711.840430,492.664793,722.850381,491.823265,681.813277,554.659835" />
<polygon fill="#c7cabb" fill-opacity="0.501961" points="469.627331,348.430061,484.099380,316.214061,467.805524,320.563556,464.207461,360.870626" />
<polygon fill="#b3c2bf" fill-opacity="0.501961" points="341.865068,531.475617,338.836553,532.693980,335.625676,565.186810,350.338379,561.877696" />
<polygon fill="#0b0610" fill-opacity="0.501961" points="391.675080,590.389638,387.912205,628.657679,381.549460,650.847965,381.973264,633.083176" />
<polygon fill="#589d85" fill-opacity="0.501961" points="475.714287,654.343007,431.681325,621.131931,416.376017,646.481565,465.768217,617.556277" />
<polygon fill="#de8100" fill-opacity="0.501961" points="488.813848,705.145885,507.289107,711.415382,505.310782,699.337830,487.713315,689.253016" />
<polygon fill="#5e573b" fill-opacity="0.501961" points="402.544188,369.481890,417.554193,372.640767,402.085731,385.192409,373.498626,335.101706" />
<polygon fill="#c4c2ab" fill-opacity="0.501961" points="406.297732,343.645232,390.513435,361.835624,410.461884,372.512298,391.719088,315.697680" />
<polygon fill="#56312c" fill-opacity="0.501961" points="761.689954,501.653902,751.172493,413.359600,747.353785,451.651328,766.160646,474.775849" />
<polygon fill="#2c9ace" fill-opacity="0.501961" points="421.886553,568.668175,398.017499,583.831751,404.584692,583.156703,405.429725,614.611845" />
<polygon fill="#310e10" fill-opacity="0.501961" points="1020.419347,293.024656,1017.811542,237.241870,1026.698426,317.804388,1025.154021,320.023921" />
<polygon fill="#e7d5be" fill-opacity="0.501961" points="839.216925,410.944934,847.929550,431.892032,852.342923,429.513224,827.770736,382.997589" />
<polygon fill="#c92016" fill-opacity="0.501961" points="900.740735,380.866865,888.728659,367.186206,880.861783,381.204327,886.031566,386.257589" />
<polygon fill="#684a00" fill-opacity="0.501961" points="539.342623,613.219869,547.856924,624.784160,555.129502,630.495068,557.083768,609.607532" />
<polygon fill="#68965e" fill-opacity="0.501961" points="717.160134,495.863042,684.979712,440.945410,705.891272,440.957901,682.864503,478.195761" />
<polygon fill="#112225" fill-opacity="0.501961" points="117.488356,626.546324,75.425170,626.507347,118.840311,667.732234,142.240729,692.257590" />
<polygon fill="#c9cfc9" fill-opacity="0.501961" points="823.786111,400.475005,825.898700,424.417556,815.653657,405.982577,830.199465,414.027549" />
<polygon fill="#888282" fill-opacity="0.501961" points="780.338834,697.454158,767.012126,672.489426,744.328804,664.386246,768.270938,669.010181" />
<polygon fill="#1379c5" fill-opacity="0.501961" points="358.932392,571.832577,341.072767,638.571193,347.549425,646.363429,343.033268,616.971317" />
<polygon fill="#d2deba" fill-opacity="0.501961" points="1018.672338,214.904961,1039.000000,206.750613,1027.164144,317.531852,1023.146389,276.483570" />
<polygon fill="#0b7bc3" fill-opacity="0.501961" points="270.494029,570.039008,295.862991,575.547143,224.278625,561.168012,296.464799,561.028520" />
<polygon fill="#e6dfcd" fill-opacity="0.501961" points="629.038972,701.997058,644.169678,716.757523,721.791468,716.688988,631.059512,720.097336" />
<polygon fill="#bcbf8e" fill-opacity="0.501961" points="537.547275,660.580252,516.270521,645.147212,515.098102,642.346667,547.657095,653.080621" />
<polygon fill="#a4837c" fill-opacity="0.501961" points="861.452988,609.121097,858.809943,605.426555,851.097764,622.878523,865.036672,630.490895" />
<polygon fill="#6c5b58" fill-opacity="0.501961" points="900.404872,537.163398,965.713391,577.539737,902.794196,520.396650,888.569032,496.315345" />
<polygon fill="#1d1918" fill-opacity="0.501961" points="852.684680,430.696376,880.338298,489.709740,884.914847,379.532849,832.426889,381.942240" />
<polygon fill="#035eb7" fill-opacity="0.501961" points="893.513893,555.745363,889.977764,569.515538,873.659121,544.925057,892.158630,548.236589" />
<polygon fill="#2b4d80" fill-opacity="0.501961" points="748.357075,543.409597,768.445082,520.638750,730.455212,533.751879,713.327946,491.120186" />
<polygon fill="#1d1813" fill-opacity="0.501961" points="175.753896,483.816269,243.987526,530.996075,94.103423,558.227908,139.204893,495.024731" />
<polygon fill="#d0c9b2" fill-opacity="0.501961" points="949.085566,269.790678,914.870161,299.884369,828.342237,308.150242,887.322612,266.722345" />
<polygon fill="#f6e9c8" fill-opacity="0.501961" points="652.887738,528.283048,642.311501,555.438629,649.784021,568.667175,659.414890,525.213828" />
<polygon fill="#d59461" fill-opacity="0.501961" points="827.970523,486.010017,779.670708,492.463341,823.638027,497.423302,844.834033,480.106883" />
<polygon fill="#d7c5c6" fill-opacity="0.501961" points="107.701293,356.050408,112.557921,358.569090,105.190211,319.012887,98.656415,434.475855" />
<polygon fill="#606664" fill-opacity="0.501961" points="941.265407,625.607989,971.168731,648.937216,978.367866,702.347771,947.595637,684.000061" />
<polygon fill="#a7afa2" fill-opacity="0.501961" points="441.497480,509.864614,474.206098,533.178920,511.088914,491.294154,482.459409,508.464665" />
<polygon fill="#4f392c" fill-opacity="0.501961" points="476.042558,567.967402,484.156655,566.313594,546.274019,561.245543,518.422819,559.995621" />
<polygon fill="#9f4326" fill-opacity="0.501961" points="781.771558,438.742307,757.211575,494.992514,794.747365,501.012704,792.768162,438.570742" />
<polygon fill="#beb6a3" fill-opacity="0.501961" points="677.125607,678.086364,697.220218,647.564448,693.811349,660.752086,675.400126,660.734003" />
<polygon fill="#140921" fill-opacity="0.501961" points="47.381816,474.846697,36.642942,478.442630,52.501928,488.299511,49.346116,512.685724" />
<polygon fill="#bacacd" fill-opacity="0.501961" points="676.810883,404.512063,696.916251,409.858605,698.220315,398.477793,679.231105,405.409350" />
</g>
</svg>