<svg xmlns="http://www.w3.org/2000/svg" version="1.1" width="1024" height="680">
<rect x="0" y="0" width="1024" height="680" fill="#383737" />
<g transform="scale(4.000000) translate(0.5 0.5)">
<polygon fill="#ffffff" fill-opacity="0.501961" points="204,67 196,93 156,75" />
<polygon fill="#f8ffff" fill-opacity="0.501961" points="151,110 209,112 186,121" />
<polygon fill="#b6a2a1" fill-opacity="0.501961" points="108,96 35,95 119,70" />
<polygon fill="#ffe3e0" fill-opacity="0.501961" points="172,91 168,69 201,71" />
<polygon fill="#f68f90" fill-opacity="0.501961" points="104,109 117,69 99,84" />
<polygon fill="#302c2c" fill-opacity="0.501961" points="61,149 152,185 170,41" />
<polygon fill="#2c2d2d" fill-opacity="0.501961" points="231,81 271,-9 -16,2" />
<polygon fill="#161817" fill-opacity="0.501961" points="168,89 178,114 219,87" />
<polygon fill="#ffffff" fill-opacity="0.501961" points="198,118 196,108 208,114" />
<polygon fill="#ffffff" fill-opacity="0.501961" points="69,80 65,89 77,75" />
<polygon fill="#ffd8d4" fill-opacity="0.501961" points="204,79 166,82 188,90" />
<polygon fill="#b60507" fill-opacity="0.501961" points="110,85 98,90 102,106" />
<polygon fill="#c7faf9" fill-opacity="0.501961" points="101,84 115,84 114,70" />
<polygon fill="#3e4d4d" fill-opacity="0.501961" points="72,82 114,68 97,97" />
<polygon fill="#d6ebea" fill-opacity="0.501961" points="164,116 175,119 171,105" />
<polygon fill="#0f0f0f" fill-opacity="0.501961" points="212,73 200,52 153,57" />
<polygon fill="#3a2a29" fill-opacity="0.501961" points="221,90 151,114 126,86" />
<polygon fill="#f70006" fill-opacity="0.501961" points="129,90 136,86 137,97" />
<polygon fill="#2d2e2e" fill-opacity="0.501961" points="269,125 152,185 165,118" />
<polygon fill="#9fa9a8" fill-opacity="0.501961" points="50,86 38,104 57,90" />
<polygon fill="#2e2f2f" fill-opacity="0.501961" points="-5,-6 78,42 1,164" />
<polygon fill="#141616" fill-opacity="0.501961" points="147,77 161,81 181,54" />
<polygon fill="#e4e2e3" fill-opacity="0.501961" points="94,76 87,92 97,80" />
<polygon fill="#2f2f2f" fill-opacity="0.501961" points="86,37 139,48 74,91" />
<polygon fill="#ffedea" fill-opacity="0.501961" points="199,73 202,81 193,88" />
<polygon fill="#777d7c" fill-opacity="0.501961" points="77,68 81,98 71,105" />
<polygon fill="#2e2f2f" fill-opacity="0.501961" points="219,179 201,66 271,81" />
<polygon fill="#242a29" fill-opacity="0.501961" points="179,105 191,116 186,95" />
<polygon fill="#ffffff" fill-opacity="0.501961" points="159,87 158,84 160,86" />
<polygon fill="#e2ebeb" fill-opacity="0.501961" points="109,71 112,82 119,71" />
<polygon fill="#8f9594" fill-opacity="0.501961" points="94,92 101,105 105,76" />
<polygon fill="#323232" fill-opacity="0.501961" points="162,78 167,-15 112,71" />
<polygon fill="#2f3030" fill-opacity="0.501961" points="75,88 66,185 -16,158" />
<polygon fill="#ffc5c5" fill-opacity="0.501961" points="178,88 175,70 197,69" />
<polygon fill="#1a1718" fill-opacity="0.501961" points="103,70 107,75 91,89" />
<polygon fill="#dcdedd" fill-opacity="0.501961" points="97,89 109,78 103,78" />
<polygon fill="#001010" fill-opacity="0.501961" points="105,86 104,83 97,92" />
<polygon fill="#171e1d" fill-opacity="0.501961" points="177,92 206,86 171,113" />
<polygon fill="#ffd9d7" fill-opacity="0.501961" points="184,88 166,75 168,85" />
<polygon fill="#2f3131" fill-opacity="0.501961" points="52,101 91,54 81,27" />
<polygon fill="#e76463" fill-opacity="0.501961" points="161,87 165,96 160,94" />
<polygon fill="#670000" fill-opacity="0.501961" points="172,79 175,77 174,80" />
<polygon fill="#f21418" fill-opacity="0.501961" points="110,84 107,101 98,103" />
<polygon fill="#2f3131" fill-opacity="0.501961" points="74,180 69,128 102,89" />
<polygon fill="#fe0003" fill-opacity="0.501961" points="141,89 139,92 129,90" />
<polygon fill="#6e7774" fill-opacity="0.501961" points="192,111 176,111 179,106" />
<polygon fill="#def0ee" fill-opacity="0.501961" points="190,117 177,118 184,112" />
<polygon fill="#d7f1f2" fill-opacity="0.501961" points="205,116 200,109 206,111" />
<polygon fill="#323333" fill-opacity="0.501961" points="102,185 93,85 53,152" />
<polygon fill="#323333" fill-opacity="0.501961" points="66,120 271,119 248,185" />
<polygon fill="#848b8a" fill-opacity="0.501961" points="49,91 52,83 73,96" />
<polygon fill="#8f9494" fill-opacity="0.501961" points="75,103 75,88 89,87" />
<polygon fill="#e4e5e5" fill-opacity="0.501961" points="68,82 78,78 75,75" />
<polygon fill="#323232" fill-opacity="0.501961" points="80,72 53,-16 55,88" />
<polygon fill="#353635" fill-opacity="0.501961" points="59,96 79,95 59,115" />
<polygon fill="#242827" fill-opacity="0.501961" points="167,85 167,107 211,108" />
<polygon fill="#2f2e2e" fill-opacity="0.501961" points="71,91 88,64 101,73" />
<polygon fill="#993230" fill-opacity="0.501961" points="196,76 193,74 195,81" />
<polygon fill="#d1e1e1" fill-opacity="0.501961" points="186,118 197,118 203,111" />
<polygon fill="#323434" fill-opacity="0.501961" points="84,93 187,167 50,185" />
<polygon fill="#1e1e1e" fill-opacity="0.501961" points="215,70 158,66 165,47" />
<polygon fill="#1e2524" fill-opacity="0.501961" points="61,95 56,96 64,87" />
<polygon fill="#313535" fill-opacity="0.501961" points="160,136 160,92 100,106" />
<polygon fill="#d3dddc" fill-opacity="0.501961" points="165,112 180,119 177,113" />
<polygon fill="#ffdfdc" fill-opacity="0.501961" points="168,81 168,71 176,70" />
<polygon fill="#1a1b1a" fill-opacity="0.501961" points="161,70 169,87 156,79" />
<polygon fill="#323232" fill-opacity="0.501961" points="236,185 270,18 198,87" />
<polygon fill="#1d1b1b" fill-opacity="0.501961" points="184,96 179,115 193,93" />
<polygon fill="#2a2b2b" fill-opacity="0.501961" points="44,97 49,83 29,93" />
<polygon fill="#e4f5f6" fill-opacity="0.501961" points="165,116 167,111 173,109" />
<polygon fill="#c5d3d0" fill-opacity="0.501961" points="194,112 189,109 196,119" />
<polygon fill="#de0308" fill-opacity="0.501961" points="133,84 135,91 136,83" />
<polygon fill="#b9bcba" fill-opacity="0.501961" points="38,102 50,91 45,100" />
<polygon fill="#333333" fill-opacity="0.501961" points="95,-16 63,72 108,79" />
<polygon fill="#2d2d2d" fill-opacity="0.501961" points="71,86 90,82 107,62" />
<polygon fill="#f6c1c0" fill-opacity="0.501961" points="196,86 189,76 171,87" />
<polygon fill="#fddad6" fill-opacity="0.501961" points="197,71 201,75 183,77" />
<polygon fill="#2d2d2d" fill-opacity="0.501961" points="87,79 80,93 85,67" />
<polygon fill="#313131" fill-opacity="0.501961" points="33,120 71,128 50,94" />
<polygon fill="#dbeeed" fill-opacity="0.501961" points="184,108 182,117 185,112" />
<polygon fill="#1a1b1a" fill-opacity="0.501961" points="209,66 198,50 206,88" />
<polygon fill="#b8b6b4" fill-opacity="0.501961" points="110,72 109,69 112,69" />
<polygon fill="#333434" fill-opacity="0.501961" points="163,-2 30,1 157,100" />
<polygon fill="#e49a98" fill-opacity="0.501961" points="106,95 109,95 105,104" />
<polygon fill="#050603" fill-opacity="0.501961" points="188,111 187,114 185,107" />
<polygon fill="#202121" fill-opacity="0.501961" points="189,97 167,86 197,113" />
<polygon fill="#893938" fill-opacity="0.501961" points="173,75 176,77 176,80" />
<polygon fill="#333333" fill-opacity="0.501961" points="50,-16 47,93 -16,160" />
<polygon fill="#1a1b1a" fill-opacity="0.501961" points="168,53 160,80 168,70" />
<polygon fill="#333333" fill-opacity="0.501961" points="115,81 166,118 105,109" />
<polygon fill="#c6d2d0" fill-opacity="0.501961" points="109,81 103,89 106,81" />
<polygon fill="#c6d4d4" fill-opacity="0.501961" points="162,114 179,111 168,117" />
<polygon fill="#0b0e0e" fill-opacity="0.501961" points="186,94 175,89 197,89" />
<polygon fill="#f3c8c7" fill-opacity="0.501961" points="189,88 178,75 200,84" />
<polygon fill="#cde3e5" fill-opacity="0.501961" points="200,117 205,114 195,108" />
<polygon fill="#343434" fill-opacity="0.501961" points="269,-2 159,6 69,84" />
<polygon fill="#cfd1d0" fill-opacity="0.501961" points="80,90 76,91 79,87" />
<polygon fill="#343636" fill-opacity="0.501961" points="192,111 218,82 196,89" />
<polygon fill="#211f1f" fill-opacity="0.501961" points="186,94 177,96 173,113" />
<polygon fill="#1a1a1a" fill-opacity="0.501961" points="55,87 50,90 58,81" />
<polygon fill="#343434" fill-opacity="0.501961" points="271,110 193,185 183,120" />
<polygon fill="#edf5f5" fill-opacity="0.501961" points="62,92 64,90 64,92" />
<polygon fill="#f9cecc" fill-opacity="0.501961" points="167,72 168,84 175,86" />
<polygon fill="#d1d1d0" fill-opacity="0.501961" points="96,90 97,96 94,94" />
<polygon fill="#bf8784" fill-opacity="0.501961" points="187,86 181,85 184,82" />
<polygon fill="#616463" fill-opacity="0.501961" points="30,101 40,107 39,103" />
<polygon fill="#d0dfe0" fill-opacity="0.501961" points="171,109 174,118 163,113" />
<polygon fill="#d0d2d2" fill-opacity="0.501961" points="75,95 76,89 78,91" />
<polygon fill="#717474" fill-opacity="0.501961" points="76,105 66,103 73,102" />
<polygon fill="#303736" fill-opacity="0.501961" points="152,115 177,104 168,88" />
<polygon fill="#e4e1e0" fill-opacity="0.501961" points="111,84 118,72 107,80" />
<polygon fill="#333333" fill-opacity="0.501961" points="168,118 158,174 138,108" />
<polygon fill="#2f2f2f" fill-opacity="0.501961" points="86,88 84,112 75,113" />
<polygon fill="#d20307" fill-opacity="0.501961" points="102,95 102,103 110,89" />
<polygon fill="#343333" fill-opacity="0.501961" points="46,183 77,185 102,85" />
<polygon fill="#333333" fill-opacity="0.501961" points="-16,185 25,104 145,106" />
<polygon fill="#ffffff" fill-opacity="0.501961" points="90,83 95,82 95,79" />
<polygon fill="#333333" fill-opacity="0.501961" points="24,76 123,-16 109,73" />
<polygon fill="#323232" fill-opacity="0.501961" points="123,86 178,43 116,61" />
<polygon fill="#eed0ce" fill-opacity="0.501961" points="173,75 170,81 164,82" />
<polygon fill="#343434" fill-opacity="0.501961" points="79,94 88,77 85,65" />
<polygon fill="#2a2c2b" fill-opacity="0.501961" points="59,90 54,94 54,92" />
<polygon fill="#b9bebd" fill-opacity="0.501961" points="53,96 57,87 50,93" />
<polygon fill="#c0c1bf" fill-opacity="0.501961" points="101,105 99,103 103,104" />
<polygon fill="#2e2f2f" fill-opacity="0.501961" points="90,88 98,84 100,76" />
<polygon fill="#232323" fill-opacity="0.501961" points="203,50 217,88 193,63" />
<polygon fill="#333434" fill-opacity="0.501961" points="209,42 267,-16 207,185" />
<polygon fill="#393b3a" fill-opacity="0.501961" points="77,89 50,107 65,104" />
<polygon fill="#252828" fill-opacity="0.501961" points="96,93 105,82 102,89" />
<polygon fill="#323232" fill-opacity="0.501961" points="39,122 50,114 51,91" />
<polygon fill="#71716d" fill-opacity="0.501961" points="162,93 173,97 166,97" />
<polygon fill="#b4bbba" fill-opacity="0.501961" points="89,96 85,93 87,90" />
<polygon fill="#c2d2d2" fill-opacity="0.501961" points="171,110 163,109 168,114" />
<polygon fill="#ced6d5" fill-opacity="0.501961" points="63,93 71,95 64,91" />
<polygon fill="#333333" fill-opacity="0.501961" points="137,93 127,154 170,100" />
<polygon fill="#cadcd9" fill-opacity="0.501961" points="179,111 178,110 176,114" />
<polygon fill="#1d1d1c" fill-opacity="0.501961" points="162,65 165,74 173,64" />
<polygon fill="#333333" fill-opacity="0.501961" points="54,88 5,40 -16,63" />
<polygon fill="#a3a3a2" fill-opacity="0.501961" points="50,82 52,86 53,82" />
<polygon fill="#cbd9db" fill-opacity="0.501961" points="195,113 197,117 204,111" />
<polygon fill="#2a2b2b" fill-opacity="0.501961" points="95,85 93,90 102,81" />
<polygon fill="#ffffff" fill-opacity="0.501961" points="102,80 102,81 104,82" />
<polygon fill="#acabab" fill-opacity="0.501961" points="78,81 80,78 76,75" />
<polygon fill="#333333" fill-opacity="0.501961" points="56,83 -16,73 117,56" />
<polygon fill="#323232" fill-opacity="0.501961" points="76,83 96,54 102,71" />
<polygon fill="#333333" fill-opacity="0.501961" points="16,135 150,114 79,101" />
<polygon fill="#ffd9d6" fill-opacity="0.501961" points="203,78 195,83 199,72" />
<polygon fill="#d00e10" fill-opacity="0.501961" points="160,90 162,91 162,95" />
<polygon fill="#333333" fill-opacity="0.501961" points="80,65 106,52 89,85" />
<polygon fill="#dfe0df" fill-opacity="0.501961" points="67,82 80,76 73,76" />
<polygon fill="#333333" fill-opacity="0.501961" points="76,86 108,70 87,56" />
<polygon fill="#333333" fill-opacity="0.501961" points="58,87 22,48 116,46" />
<polygon fill="#92827e" fill-opacity="0.501961" points="104,93 97,105 100,92" />
<polygon fill="#c4d4d4" fill-opacity="0.501961" points="191,119 205,115 199,109" />
<polygon fill="#d4d6d6" fill-opacity="0.501961" points="48,93 48,95 50,91" />
<polygon fill="#232423" fill-opacity="0.501961" points="178,115 185,89 185,105" />
<polygon fill="#333333" fill-opacity="0.501961" points="157,91 136,91 162,125" />
<polygon fill="#333333" fill-opacity="0.501961" points="61,91 61,2 86,57" />
<polygon fill="#2d2f2f" fill-opacity="0.501961" points="98,97 98,106 88,95" />
<polygon fill="#432e2c" fill-opacity="0.501961" points="126,90 136,101 133,93" />
<polygon fill="#c7c9ca" fill-opacity="0.501961" points="109,82 113,70 108,77" />
<polygon fill="#daeeee" fill-opacity="0.501961" points="162,112 166,111 165,113" />
<polygon fill="#f4f3f3" fill-opacity="0.501961" points="94,82 94,80 97,79" />
<polygon fill="#a4aeae" fill-opacity="0.501961" points="66,84 74,92 73,87" />
<polygon fill="#333332" fill-opacity="0.501961" points="154,112 171,107 136,65" />
<polygon fill="#323333" fill-opacity="0.501961" points="118,89 137,41 133,89" />
<polygon fill="#494b4a" fill-opacity="0.501961" points="54,101 55,91 61,89" />
<polygon fill="#c1cbc9" fill-opacity="0.501961" points="196,114 194,116 189,111" />
<polygon fill="#f3cdcc" fill-opacity="0.501961" points="196,72 181,80 173,70" />
<polygon fill="#202020" fill-opacity="0.501961" points="188,91 175,112 174,92" />
<polygon fill="#333333" fill-opacity="0.501961" points="84,135 71,128 86,89" />
<polygon fill="#2b2c2b" fill-opacity="0.501961" points="196,88 205,84 192,111" />
<polygon fill="#343333" fill-opacity="0.501961" points="135,-16 70,94 130,38" />
<polygon fill="#acb4b2" fill-opacity="0.501961" points="173,117 180,106 177,116" />
<polygon fill="#232323" fill-opacity="0.501961" points="165,97 181,108 195,98" />
<polygon fill="#212121" fill-opacity="0.501961" points="178,93 181,114 188,93" />
<polygon fill="#bcc4c3" fill-opacity="0.501961" points="69,83 70,86 64,90" />
<polygon fill="#343535" fill-opacity="0.501961" points="47,107 79,96 64,95" />
<polygon fill="#2a2a2a" fill-opacity="0.501961" points="69,99 66,99 64,94" />
<polygon fill="#1f1f1f" fill-opacity="0.501961" points="159,72 164,50 194,63" />
<polygon fill="#333333" fill-opacity="0.501961" points="98,57 150,92 167,45" />
<polygon fill="#d4d6d4" fill-opacity="0.501961" points="90,87 89,86 88,88" />
<polygon fill="#2e2e2e" fill-opacity="0.501961" points="96,83 92,93 89,91" />
<polygon fill="#9f1417" fill-opacity="0.501961" points="131,92 130,88 127,91" />
<polygon fill="#b5b9b8" fill-opacity="0.501961" points="187,117 195,116 197,112" />
<polygon fill="#333333" fill-opacity="0.501961" points="170,138 271,179 207,115" />
<polygon fill="#333333" fill-opacity="0.501961" points="159,-16 34,98 -16,-1" />
<polygon fill="#fffcf9" fill-opacity="0.501961" points="172,71 174,72 170,76" />
<polygon fill="#f38b89" fill-opacity="0.501961" points="112,82 110,85 113,84" />
<polygon fill="#333333" fill-opacity="0.501961" points="64,88 22,63 75,64" />
<polygon fill="#323232" fill-opacity="0.501961" points="72,106 23,115 51,97" />
<polygon fill="#e7bbb8" fill-opacity="0.501961" points="201,83 198,86 198,77" />
<polygon fill="#98514f" fill-opacity="0.501961" points="194,75 195,80 191,81" />
<polygon fill="#313131" fill-opacity="0.501961" points="200,85 200,109 230,68" />
<polygon fill="#464d4c" fill-opacity="0.501961" points="66,94 70,84 69,94" />
<polygon fill="#efc6c6" fill-opacity="0.501961" points="191,74 176,70 191,84" />
<polygon fill="#f0dcd8" fill-opacity="0.501961" points="189,77 194,85 191,74" />
<polygon fill="#333333" fill-opacity="0.501961" points="3,132 193,119 271,185" />
<polygon fill="#333333" fill-opacity="0.501961" points="102,23 107,80 12,-16" />
<polygon fill="#d70c0f" fill-opacity="0.501961" points="111,86 104,101 103,93" />
<polygon fill="#323131" fill-opacity="0.501961" points="61,70 51,89 62,84" />
<polygon fill="#cbcdce" fill-opacity="0.501961" points="106,83 111,72 112,79" />
<polygon fill="#323333" fill-opacity="0.501961" points="142,59 136,88 161,80" />
<polygon fill="#c6d5d5" fill-opacity="0.501961" points="172,109 165,114 162,111" />
<polygon fill="#323232" fill-opacity="0.501961" points="145,103 149,133 170,94" />
<polygon fill="#5c605f" fill-opacity="0.501961" points="59,95 66,102 62,92" />
<polygon fill="#cbd9da" fill-opacity="0.501961" points="173,117 163,115 169,113" />
<polygon fill="#333333" fill-opacity="0.501961" points="20,153 51,92 43,131" />
<polygon fill="#191919" fill-opacity="0.501961" points="207,70 207,81 200,89" />
<polygon fill="#97b1ae" fill-opacity="0.501961" points="163,90 161,84 158,84" />
<polygon fill="#2e2e2e" fill-opacity="0.501961" points="60,95 64,100 47,101" />
<polygon fill="#333333" fill-opacity="0.501961" points="271,14 195,95 262,182" />
<polygon fill="#b8b8b7" fill-opacity="0.501961" points="79,100 80,96 78,98" />
<polygon fill="#1f2020" fill-opacity="0.501961" points="159,72 162,87 168,63" />
<polygon fill="#333333" fill-opacity="0.501961" points="88,171 68,110 84,96" />
<polygon fill="#333333" fill-opacity="0.501961" points="153,68 117,75 110,99" />
<polygon fill="#454c49" fill-opacity="0.501961" points="193,110 194,112 197,107" />
<polygon fill="#343434" fill-opacity="0.501961" points="246,17 150,48 190,54" />
<polygon fill="#ce070c" fill-opacity="0.501961" points="135,84 136,97 133,89" />
<polygon fill="#323433" fill-opacity="0.501961" points="117,89 133,92 107,101" />
<polygon fill="#e9c2c1" fill-opacity="0.501961" points="180,88 173,86 186,76" />
<polygon fill="#333334" fill-opacity="0.501961" points="96,82 86,96 95,89" />
<polygon fill="#3a3a3a" fill-opacity="0.501961" points="85,77 81,80 75,79" />
<polygon fill="#c00000" fill-opacity="0.501961" points="107,86 106,87 106,89" />
<polygon fill="#333232" fill-opacity="0.501961" points="21,96 57,72 41,100" />
<polygon fill="#313634" fill-opacity="0.501961" points="167,96 162,88 178,88" />
<polygon fill="#333332" fill-opacity="0.501961" points="119,74 111,91 133,88" />
<polygon fill="#343333" fill-opacity="0.501961" points="167,108 100,152 121,92" />
<polygon fill="#c9d9d8" fill-opacity="0.501961" points="193,118 198,109 202,110" />
<polygon fill="#592824" fill-opacity="0.501961" points="158,95 155,92 160,93" />
<polygon fill="#747978" fill-opacity="0.501961" points="52,97 58,95 55,94" />
<polygon fill="#a96d6b" fill-opacity="0.501961" points="197,79 191,75 196,75" />
<polygon fill="#f9fdf8" fill-opacity="0.501961" points="178,79 177,76 175,83" />
<polygon fill="#313333" fill-opacity="0.501961" points="74,89 73,85 80,80" />
<polygon fill="#1f1f1f" fill-opacity="0.501961" points="161,64 186,55 186,69" />
<polygon fill="#a7aba9" fill-opacity="0.501961" points="186,114 192,118 185,119" />
<polygon fill="#b39e9a" fill-opacity="0.501961" points="107,93 102,92 102,90" />
<polygon fill="#959898" fill-opacity="0.501961" points="61,90 59,86 57,88" />
<polygon fill="#6f7070" fill-opacity="0.501961" points="74,91 78,87 73,89" />
<polygon fill="#212828" fill-opacity="0.501961" points="95,94 101,91 99,90" />
<polygon fill="#333333" fill-opacity="0.501961" points="-16,-16 58,87 177,-3" />
<polygon fill="#8f9391" fill-opacity="0.501961" points="86,95 93,93 92,95" />
<polygon fill="#333333" fill-opacity="0.501961" points="-16,153 93,94 138,185" />
<polygon fill="#212120" fill-opacity="0.501961" points="196,112 190,99 188,103" />
<polygon fill="#333333" fill-opacity="0.501961" points="93,183 126,106 172,119" />
<polygon fill="#333333" fill-opacity="0.501961" points="71,135 36,123 61,94" />
<polygon fill="#cdd5d4" fill-opacity="0.501961" points="104,85 112,79 110,83" />
<polygon fill="#edc8c6" fill-opacity="0.501961" points="191,82 191,70 187,70" />
<polygon fill="#f9f0ef" fill-opacity="0.501961" points="196,74 197,70 194,74" />
<polygon fill="#343434" fill-opacity="0.501961" points="193,89 197,106 254,100" />
<polygon fill="#f4c1bf" fill-opacity="0.501961" points="166,81 167,75 170,81" />
<polygon fill="#333333" fill-opacity="0.501961" points="88,46 118,59 98,79" />
<polygon fill="#1f1f1f" fill-opacity="0.501961" points="205,73 199,53 189,64" />
<polygon fill="#232323" fill-opacity="0.501961" points="193,96 176,105 195,107" />
<polygon fill="#333333" fill-opacity="0.501961" points="108,40 85,67 89,86" />
<polygon fill="#f3dddb" fill-opacity="0.501961" points="199,72 196,73 199,80" />
<polygon fill="#a1a5a4" fill-opacity="0.501961" points="81,93 87,90 81,90" />
<polygon fill="#eec5c5" fill-opacity="0.501961" points="192,76 174,70 191,82" />
<polygon fill="#343333" fill-opacity="0.501961" points="205,58 271,0 216,85" />
<polygon fill="#565857" fill-opacity="0.501961" points="32,99 35,104 28,99" />
<polygon fill="#343434" fill-opacity="0.501961" points="178,172 192,119 160,121" />
<polygon fill="#333333" fill-opacity="0.501961" points="14,121 96,151 99,97" />
<polygon fill="#333333" fill-opacity="0.501961" points="81,80 93,82 69,50" />
<polygon fill="#ccd0cf" fill-opacity="0.501961" points="98,89 94,91 95,92" />
<polygon fill="#333333" fill-opacity="0.501961" points="82,130 77,112 85,91" />
<polygon fill="#121211" fill-opacity="0.501961" points="190,115 187,106 185,110" />
<polygon fill="#1c1c1c" fill-opacity="0.501961" points="177,94 177,110 174,99" />
<polygon fill="#f4c0bd" fill-opacity="0.501961" points="175,70 168,75 170,70" />
<polygon fill="#eebdbb" fill-opacity="0.501961" points="202,82 200,73 196,71" />
<polygon fill="#333333" fill-opacity="0.501961" points="52,90 63,57 68,73" />
<polygon fill="#ded8d7" fill-opacity="0.501961" points="115,78 112,79 112,85" />
<polygon fill="#525553" fill-opacity="0.501961" points="78,94 80,92 81,95" />
<polygon fill="#626564" fill-opacity="0.501961" points="46,104 32,104 39,102" />
<polygon fill="#333333" fill-opacity="0.501961" points="61,97 -4,185 12,113" />
<polygon fill="#a9abaa" fill-opacity="0.501961" points="80,88 78,88 76,86" />
<polygon fill="#813231" fill-opacity="0.501961" points="175,75 175,76 172,77" />
<polygon fill="#ffffff" fill-opacity="0.501961" points="103,81 104,79 105,79" />
<polygon fill="#333333" fill-opacity="0.501961" points="91,57 113,65 76,86" />
<polygon fill="#2d2e2e" fill-opacity="0.501961" points="76,99 69,103 74,94" />
<polygon fill="#373737" fill-opacity="0.501961" points="172,99 167,106 175,108" />
<polygon fill="#b80104" fill-opacity="0.501961" points="102,96 104,98 101,103" />
<polygon fill="#ecc5c4" fill-opacity="0.501961" points="193,76 173,71 186,81" />
<polygon fill="#333333" fill-opacity="0.501961" points="83,48 81,91 93,64" />
<polygon fill="#4d4e4d" fill-opacity="0.501961" points="95,88 89,94 94,94" />
<polygon fill="#333333" fill-opacity="0.501961" points="38,115 13,69 14,117" />
<polygon fill="#d6d6d6" fill-opacity="0.501961" points="107,79 102,82 101,79" />
<polygon fill="#c80408" fill-opacity="0.501961" points="107,86 111,84 105,92" />
<polygon fill="#343434" fill-opacity="0.501961" points="71,51 59,87 50,15" />
<polygon fill="#333333" fill-opacity="0.501961" points="164,28 116,57 155,104" />
<polygon fill="#020000" fill-opacity="0.501961" points="156,88 159,88 160,90" />
<polygon fill="#2f2f30" fill-opacity="0.501961" points="175,93 169,96 158,79" />
<polygon fill="#ccdedd" fill-opacity="0.501961" points="186,115 184,119 184,111" />
<polygon fill="#333333" fill-opacity="0.501961" points="151,116 112,98 116,79" />
<polygon fill="#333333" fill-opacity="0.501961" points="94,52 106,63 107,80" />
<polygon fill="#adb1af" fill-opacity="0.501961" points="181,118 175,112 171,113" />
<polygon fill="#232423" fill-opacity="0.501961" points="183,97 162,98 191,105" />
<polygon fill="#363636" fill-opacity="0.501961" points="116,65 114,72 105,54" />
<polygon fill="#c9d8d9" fill-opacity="0.501961" points="204,114 201,112 207,112" />
<polygon fill="#202020" fill-opacity="0.501961" points="170,57 203,69 203,51" />
<polygon fill="#333333" fill-opacity="0.501961" points="1,185 65,98 4,113" />
<polygon fill="#2a2c2a" fill-opacity="0.501961" points="53,94 56,93 58,89" />
<polygon fill="#333434" fill-opacity="0.501961" points="114,85 107,102 144,75" />
<polygon fill="#202020" fill-opacity="0.501961" points="165,68 163,49 192,67" />
<polygon fill="#333333" fill-opacity="0.501961" points="114,138 60,126 93,94" />
<polygon fill="#1d1d1b" fill-opacity="0.501961" points="204,85 193,90 198,90" />
<polygon fill="#333333" fill-opacity="0.501961" points="35,103 67,60 16,75" />
<polygon fill="#bfc1c0" fill-opacity="0.501961" points="92,86 86,89 91,84" />
<polygon fill="#343333" fill-opacity="0.501961" points="-16,1 200,-16 103,42" />
<polygon fill="#1f1f1f" fill-opacity="0.501961" points="182,113 176,93 182,94" />
<polygon fill="#f1fcf9" fill-opacity="0.501961" points="199,75 192,73 196,73" />
<polygon fill="#f2e0de" fill-opacity="0.501961" points="187,85 199,81 192,81" />
<polygon fill="#1d1d1d" fill-opacity="0.501961" points="193,111 191,94 195,100" />
<polygon fill="#333333" fill-opacity="0.501961" points="73,73 124,39 106,77" />
<polygon fill="#b4bab9" fill-opacity="0.501961" points="176,119 178,111 174,115" />
<polygon fill="#748080" fill-opacity="0.501961" points="96,94 100,94 101,98" />
<polygon fill="#2c3030" fill-opacity="0.501961" points="67,91 70,91 69,88" />
<polygon fill="#3d3e3e" fill-opacity="0.501961" points="76,89 68,97 71,98" />
<polygon fill="#333333" fill-opacity="0.501961" points="100,96 74,109 75,148" />
<polygon fill="#ab6f6d" fill-opacity="0.501961" points="172,81 178,79 174,75" />
<polygon fill="#f9e8e6" fill-opacity="0.501961" points="180,78 177,77 175,82" />
<polygon fill="#272827" fill-opacity="0.501961" points="181,103 180,96 172,112" />
<polygon fill="#bdbfbe" fill-opacity="0.501961" points="50,88 50,92 45,97" />
<polygon fill="#ddaeac" fill-opacity="0.501961" points="188,85 185,83 179,89" />
<polygon fill="#333434" fill-opacity="0.501961" points="89,129 171,159 110,185" />
<polygon fill="#333333" fill-opacity="0.501961" points="96,82 87,91 97,86" />
<polygon fill="#aeb2b0" fill-opacity="0.501961" points="177,115 187,118 180,118" />
<polygon fill="#333434" fill-opacity="0.501961" points="100,82 82,44 112,61" />
<polygon fill="#eec2c1" fill-opacity="0.501961" points="181,78 192,87 198,85" />
<polygon fill="#3a3d3d" fill-opacity="0.501961" points="71,84 78,86 68,86" />
<polygon fill="#ca090c" fill-opacity="0.501961" points="104,92 107,86 111,85" />
<polygon fill="#1a1b1a" fill-opacity="0.501961" points="160,74 164,75 166,87" />
<polygon fill="#edc2c2" fill-opacity="0.501961" points="183,81 171,87 184,72" />
<polygon fill="#b3b7b5" fill-opacity="0.501961" points="67,91 65,91 66,95" />
<polygon fill="#333333" fill-opacity="0.501961" points="118,110 71,122 80,99" />
<polygon fill="#191918" fill-opacity="0.501961" points="172,88 181,94 193,93" />
<polygon fill="#333333" fill-opacity="0.501961" points="80,115 85,92 65,129" />
<polygon fill="#333333" fill-opacity="0.501961" points="17,43 64,90 51,7" />
<polygon fill="#333434" fill-opacity="0.501961" points="156,84 137,97 156,150" />
<polygon fill="#333333" fill-opacity="0.501961" points="89,86 101,33 85,63" />
<polygon fill="#333333" fill-opacity="0.501961" points="84,121 58,96 -16,129" />
<polygon fill="#2d2e2e" fill-opacity="0.501961" points="89,92 92,86 93,90" />
<polygon fill="#c2c4c4" fill-opacity="0.501961" points="104,86 110,81 111,70" />
<polygon fill="#c2d2d1" fill-opacity="0.501961" points="199,111 195,109 204,110" />
<polygon fill="#b6b7b5" fill-opacity="0.501961" points="76,100 74,102 75,102" />
<polygon fill="#343333" fill-opacity="0.501961" points="190,104 231,119 243,106" />
<polygon fill="#c8d5d7" fill-opacity="0.501961" points="194,109 203,111 203,115" />
<polygon fill="#c0c3c1" fill-opacity="0.501961" points="51,84 51,82 53,85" />
<polygon fill="#333333" fill-opacity="0.501961" points="14,62 -16,134 52,82" />
<polygon fill="#333333" fill-opacity="0.501961" points="10,78 66,84 91,33" />
<polygon fill="#ce060d" fill-opacity="0.501961" points="130,89 128,92 129,89" />
<polygon fill="#eccdca" fill-opacity="0.501961" points="195,74 198,71 201,76" />
<polygon fill="#202121" fill-opacity="0.501961" points="181,89 195,111 190,93" />
<polygon fill="#161716" fill-opacity="0.501961" points="181,94 190,89 182,90" />
<polygon fill="#c50a0f" fill-opacity="0.501961" points="133,96 134,90 136,93" />
<polygon fill="#333333" fill-opacity="0.501961" points="99,96 77,121 89,128" />
<polygon fill="#f0e2e0" fill-opacity="0.501961" points="175,84 169,77 169,81" />
<polygon fill="#9ca1a0" fill-opacity="0.501961" points="72,87 74,89 67,92" />
<polygon fill="#1e201e" fill-opacity="0.501961" points="164,88 171,88 164,83" />
<polygon fill="#c28e8c" fill-opacity="0.501961" points="180,81 186,83 184,81" />
<polygon fill="#efc9c8" fill-opacity="0.501961" points="186,77 179,85 177,73" />
<polygon fill="#333333" fill-opacity="0.501961" points="159,117 136,94 163,98" />
<polygon fill="#333333" fill-opacity="0.501961" points="19,104 51,88 15,91" />
<polygon fill="#333333" fill-opacity="0.501961" points="109,72 83,45 100,78" />
<polygon fill="#333333" fill-opacity="0.501961" points="134,95 92,135 117,85" />
<polygon fill="#eec2c2" fill-opacity="0.501961" points="179,75 193,70 180,83" />
<polygon fill="#323130" fill-opacity="0.501961" points="162,87 177,92 168,85" />
<polygon fill="#343434" fill-opacity="0.501961" points="65,95 55,136 44,128" />
<polygon fill="#ecc2c1" fill-opacity="0.501961" points="193,85 189,82 182,84" />
<polygon fill="#b4c6c4" fill-opacity="0.501961" points="192,113 190,107 189,109" />
<polygon fill="#252525" fill-opacity="0.501961" points="182,93 185,107 193,106" />
<polygon fill="#343635" fill-opacity="0.501961" points="163,90 173,93 175,89" />
<polygon fill="#d1090d" fill-opacity="0.501961" points="103,97 105,101 106,93" />
<polygon fill="#343434" fill-opacity="0.501961" points="50,93 42,129 54,109" />
<polygon fill="#232323" fill-opacity="0.501961" points="188,103 191,108 194,95" />
<polygon fill="#333333" fill-opacity="0.501961" points="258,68 260,185 194,91" />
<polygon fill="#333333" fill-opacity="0.501961" points="141,46 139,5 197,54" />
<polygon fill="#333333" fill-opacity="0.501961" points="29,60 20,66 53,88" />
<polygon fill="#171717" fill-opacity="0.501961" points="180,96 176,93 180,89" />
<polygon fill="#333333" fill-opacity="0.501961" points="34,139 33,104 81,105" />
<polygon fill="#1f1f1f" fill-opacity="0.501961" points="207,78 191,58 202,49" />
<polygon fill="#333333" fill-opacity="0.501961" points="61,114 158,167 160,94" />
<polygon fill="#f2f7f7" fill-opacity="0.501961" points="113,77 116,74 113,82" />
<polygon fill="#343434" fill-opacity="0.501961" points="196,91 212,111 194,103" />
<polygon fill="#333333" fill-opacity="0.501961" points="174,53 207,49 138,27" />
<polygon fill="#86605f" fill-opacity="0.501961" points="184,70 179,70 182,69" />
<polygon fill="#95c2c0" fill-opacity="0.501961" points="106,99 108,98 108,97" />
<polygon fill="#323131" fill-opacity="0.501961" points="108,99 111,100 113,93" />
<polygon fill="#fdfdfd" fill-opacity="0.501961" points="72,80 69,82 71,82" />
<polygon fill="#333333" fill-opacity="0.501961" points="171,45 114,82 154,21" />
<polygon fill="#343434" fill-opacity="0.501961" points="251,100 262,83 214,70" />
<polygon fill="#d6d9d9" fill-opacity="0.501961" points="116,77 110,79 109,84" />
<polygon fill="#333333" fill-opacity="0.501961" points="166,124 196,185 194,119" />
<polygon fill="#333333" fill-opacity="0.501961" points="120,70 116,77 126,73" />
<polygon fill="#ccd0cf" fill-opacity="0.501961" points="100,87 101,83 98,87" />
<polygon fill="#454545" fill-opacity="0.501961" points="76,86 73,89 76,90" />
<polygon fill="#333333" fill-opacity="0.501961" points="77,74 89,56 48,83" />
<polygon fill="#ce070d" fill-opacity="0.501961" points="135,89 141,89 141,92" />
<polygon fill="#202020" fill-opacity="0.501961" points="181,69 165,54 205,53" />
<polygon fill="#f7e9e5" fill-opacity="0.501961" points="197,77 198,79 200,74" />
<polygon fill="#363636" fill-opacity="0.501961" points="173,100 174,108 164,101" />
</g>
</svg>