<svg xmlns="http://www.w3.org/2000/svg" version="1.1" width="1024" height="680">
<rect x="0" y="0" width="1024" height="680" fill="#beb7a6" />
<g transform="scale(4.000000) translate(0.5 0.5)">
<polygon fill="#2a1900" fill-opacity="0.501961" points="-13,61 242,119 -16,129" />
<polygon fill="#f7f5ff" fill-opacity="0.501961" points="-4,-16 75,109 271,7" />
<polygon fill="#ebfaf5" fill-opacity="0.501961" points="3,170 247,184 78,121" />
<polygon fill="#77642e" fill-opacity="0.501961" points="271,128 104,72 94,125" />
<polygon fill="#3b2900" fill-opacity="0.501961" points="-16,33 73,120 -4,124" />
<polygon fill="#eeedec" fill-opacity="0.501961" points="271,-16 21,81 232,63" />
<polygon fill="#d3b163" fill-opacity="0.501961" points="271,131 267,28 154,107" />
<polygon fill="#5d4c1e" fill-opacity="0.501961" points="151,148 193,161 244,145" />
<polygon fill="#866915" fill-opacity="0.501961" points="271,144 271,89 210,125" />
<polygon fill="#c5c8d9" fill-opacity="0.501961" points="-16,19 53,95 43,-16" />
<polygon fill="#f3ffd0" fill-opacity="0.501961" points="160,154 266,185 271,156" />
<polygon fill="#f2e8d2" fill-opacity="0.501961" points="240,110 271,54 194,111" />
<polygon fill="#dbe3da" fill-opacity="0.501961" points="4,136 71,176 208,126" />
<polygon fill="#0c0000" fill-opacity="0.501961" points="200,130 192,134 198,149" />
<polygon fill="#e7e6e6" fill-opacity="0.501961" points="236,-16 271,42 26,50" />
<polygon fill="#323b24" fill-opacity="0.501961" points="185,122 54,121 123,103" />
<polygon fill="#8a725d" fill-opacity="0.501961" points="44,111 125,76 151,110" />
<polygon fill="#877c36" fill-opacity="0.501961" points="-16,65 -16,141 42,125" />
<polygon fill="#ddd7d6" fill-opacity="0.501961" points="32,78 62,-16 211,75" />
<polygon fill="#ecfcda" fill-opacity="0.501961" points="240,140 200,151 201,125" />
<polygon fill="#9c7a27" fill-opacity="0.501961" points="235,46 251,44 236,89" />
<polygon fill="#6a4416" fill-opacity="0.501961" points="163,104 181,82 131,104" />
<polygon fill="#6a4808" fill-opacity="0.501961" points="50,100 72,83 56,78" />
<polygon fill="#3e2704" fill-opacity="0.501961" points="-7,50 59,103 25,109" />
<polygon fill="#2a0700" fill-opacity="0.501961" points="177,146 170,154 200,153" />
<polygon fill="#e5f2e0" fill-opacity="0.501961" points="194,147 115,136 186,127" />
<polygon fill="#c2a671" fill-opacity="0.501961" points="175,89 232,107 146,111" />
<polygon fill="#2f1200" fill-opacity="0.501961" points="216,145 217,155 235,145" />
<polygon fill="#b6acbe" fill-opacity="0.501961" points="92,109 68,104 122,59" />
<polygon fill="#bfbeb1" fill-opacity="0.501961" points="70,122 46,145 133,124" />
<polygon fill="#6b530f" fill-opacity="0.501961" points="252,114 271,80 228,120" />
<polygon fill="#b49147" fill-opacity="0.501961" points="248,64 219,66 184,110" />
<polygon fill="#beb8c6" fill-opacity="0.501961" points="87,-16 -16,-5 17,72" />
<polygon fill="#000000" fill-opacity="0.501961" points="46,115 62,123 77,112" />
<polygon fill="#6e5023" fill-opacity="0.501961" points="117,76 116,103 156,104" />
<polygon fill="#bcae6d" fill-opacity="0.501961" points="217,127 253,117 271,156" />
<polygon fill="#e6e5e0" fill-opacity="0.501961" points="271,3 211,72 122,-16" />
<polygon fill="#dad0d5" fill-opacity="0.501961" points="144,94 211,31 124,58" />
<polygon fill="#e7eeb4" fill-opacity="0.501961" points="271,147 234,145 216,185" />
<polygon fill="#425237" fill-opacity="0.501961" points="218,116 154,110 183,122" />
<polygon fill="#848452" fill-opacity="0.501961" points="2,156 25,149 -16,145" />
<polygon fill="#ecf9e5" fill-opacity="0.501961" points="93,56 37,79 34,54" />
<polygon fill="#a8a77b" fill-opacity="0.501961" points="182,132 148,121 220,120" />
<polygon fill="#2d1500" fill-opacity="0.501961" points="192,152 200,140 197,132" />
<polygon fill="#0c1b10" fill-opacity="0.501961" points="133,118 149,110 175,116" />
<polygon fill="#9f944f" fill-opacity="0.501961" points="63,133 37,123 73,122" />
<polygon fill="#543a00" fill-opacity="0.501961" points="7,53 -1,97 -12,28" />
<polygon fill="#050000" fill-opacity="0.501961" points="-2,122 20,123 15,117" />
<polygon fill="#ccb79e" fill-opacity="0.501961" points="213,84 183,63 168,103" />
<polygon fill="#e8e2cd" fill-opacity="0.501961" points="255,93 247,29 271,86" />
<polygon fill="#d7d1d3" fill-opacity="0.501961" points="156,66 67,91 106,45" />
<polygon fill="#2b1100" fill-opacity="0.501961" points="213,152 197,154 199,150" />
<polygon fill="#babea7" fill-opacity="0.501961" points="138,158 133,144 183,156" />
<polygon fill="#edf9e5" fill-opacity="0.501961" points="194,140 190,151 179,133" />
<polygon fill="#1f1e10" fill-opacity="0.501961" points="138,113 105,119 96,109" />
<polygon fill="#a27e3f" fill-opacity="0.501961" points="219,104 191,95 183,104" />
<polygon fill="#907c27" fill-opacity="0.501961" points="14,75 -4,105 18,116" />
<polygon fill="#f3e8cf" fill-opacity="0.501961" points="218,82 212,101 244,107" />
<polygon fill="#ad9194" fill-opacity="0.501961" points="184,89 186,71 129,91" />
<polygon fill="#6f6435" fill-opacity="0.501961" points="31,71 18,64 -1,76" />
<polygon fill="#9c928e" fill-opacity="0.501961" points="111,107 71,109 59,86" />
<polygon fill="#434915" fill-opacity="0.501961" points="59,53 56,50 56,55" />
<polygon fill="#cccfc8" fill-opacity="0.501961" points="112,169 42,123 5,143" />
<polygon fill="#deebd4" fill-opacity="0.501961" points="213,149 225,137 193,149" />
<polygon fill="#f7faee" fill-opacity="0.501961" points="207,50 271,15 248,41" />
<polygon fill="#838247" fill-opacity="0.501961" points="59,111 2,110 25,120" />
<polygon fill="#816b54" fill-opacity="0.501961" points="93,111 108,81 131,111" />
<polygon fill="#f2efdf" fill-opacity="0.501961" points="231,22 232,64 214,64" />
<polygon fill="#755934" fill-opacity="0.501961" points="173,152 172,144 149,148" />
<polygon fill="#d1d4bd" fill-opacity="0.501961" points="157,128 168,135 167,160" />
<polygon fill="#adab8a" fill-opacity="0.501961" points="52,126 8,126 5,140" />
<polygon fill="#dde5db" fill-opacity="0.501961" points="73,149 192,141 121,127" />
<polygon fill="#b28f35" fill-opacity="0.501961" points="216,67 233,63 206,86" />
<polygon fill="#ad9d5d" fill-opacity="0.501961" points="129,109 159,102 161,111" />
<polygon fill="#74744f" fill-opacity="0.501961" points="172,110 222,110 216,128" />
<polygon fill="#a6a389" fill-opacity="0.501961" points="104,125 71,118 76,127" />
<polygon fill="#96752c" fill-opacity="0.501961" points="242,66 248,49 237,44" />
<polygon fill="#e4edc9" fill-opacity="0.501961" points="247,137 232,136 228,146" />
<polygon fill="#cbd4ba" fill-opacity="0.501961" points="207,168 223,152 176,160" />
<polygon fill="#d2ccbf" fill-opacity="0.501961" points="187,110 208,104 223,111" />
<polygon fill="#cac6a4" fill-opacity="0.501961" points="181,134 185,124 211,127" />
<polygon fill="#634a25" fill-opacity="0.501961" points="167,100 123,106 161,90" />
<polygon fill="#533e1e" fill-opacity="0.501961" points="218,144 213,154 227,145" />
<polygon fill="#eef6e7" fill-opacity="0.501961" points="106,166 174,185 231,166" />
<polygon fill="#1f0d04" fill-opacity="0.501961" points="17,86 41,107 16,96" />
<polygon fill="#e7ebcd" fill-opacity="0.501961" points="218,132 217,143 224,147" />
<polygon fill="#060b17" fill-opacity="0.501961" points="32,121 43,117 36,123" />
<polygon fill="#eee5cd" fill-opacity="0.501961" points="252,64 226,112 245,103" />
<polygon fill="#d4c1a5" fill-opacity="0.501961" points="219,61 194,59 168,106" />
<polygon fill="#301102" fill-opacity="0.501961" points="60,80 55,86 58,91" />
<polygon fill="#997000" fill-opacity="0.501961" points="254,40 271,5 271,90" />
<polygon fill="#280d00" fill-opacity="0.501961" points="186,147 191,153 173,153" />
<polygon fill="#efd39c" fill-opacity="0.501961" points="249,121 242,126 259,126" />
<polygon fill="#c8c5b3" fill-opacity="0.501961" points="23,147 59,149 -10,181" />
<polygon fill="#bf9331" fill-opacity="0.501961" points="239,125 213,121 261,115" />
<polygon fill="#495130" fill-opacity="0.501961" points="77,121 54,105 109,118" />
<polygon fill="#0b0708" fill-opacity="0.501961" points="46,120 70,113 70,121" />
<polygon fill="#dfd7dd" fill-opacity="0.501961" points="66,0 76,72 207,-5" />
<polygon fill="#000000" fill-opacity="0.501961" points="227,151 229,147 224,145" />
<polygon fill="#c8b3ab" fill-opacity="0.501961" points="98,101 76,96 61,103" />
<polygon fill="#c0a869" fill-opacity="0.501961" points="245,76 233,92 234,42" />
<polygon fill="#b9a670" fill-opacity="0.501961" points="133,79 112,74 120,83" />
<polygon fill="#e6f0e6" fill-opacity="0.501961" points="182,149 181,136 172,134" />
<polygon fill="#b7a34c" fill-opacity="0.501961" points="241,107 271,94 248,95" />
<polygon fill="#5d5057" fill-opacity="0.501961" points="111,97 103,88 98,109" />
<polygon fill="#653b0a" fill-opacity="0.501961" points="33,115 10,101 19,97" />
<polygon fill="#9c8a90" fill-opacity="0.501961" points="64,98 106,83 99,100" />
<polygon fill="#0f0000" fill-opacity="0.501961" points="191,133 190,130 189,130" />
<polygon fill="#847e5d" fill-opacity="0.501961" points="232,130 257,125 266,141" />
<polygon fill="#c0b5bd" fill-opacity="0.501961" points="121,63 107,70 97,56" />
<polygon fill="#9c8b56" fill-opacity="0.501961" points="42,97 53,96 56,76" />
<polygon fill="#d6dcde" fill-opacity="0.501961" points="102,130 95,151 20,144" />
<polygon fill="#dddad9" fill-opacity="0.501961" points="150,31 239,43 138,82" />
<polygon fill="#b5985f" fill-opacity="0.501961" points="220,104 193,106 193,89" />
<polygon fill="#725b2f" fill-opacity="0.501961" points="135,85 115,86 149,109" />
<polygon fill="#928c61" fill-opacity="0.501961" points="30,71 33,83 20,67" />
<polygon fill="#e0eeeb" fill-opacity="0.501961" points="45,79 33,79 41,49" />
<polygon fill="#e1dfcb" fill-opacity="0.501961" points="61,80 102,79 47,65" />
<polygon fill="#604d1d" fill-opacity="0.501961" points="248,108 258,117 234,117" />
<polygon fill="#9c9b84" fill-opacity="0.501961" points="179,122 168,131 139,124" />
<polygon fill="#d6e2c3" fill-opacity="0.501961" points="199,137 199,150 212,149" />
<polygon fill="#545f87" fill-opacity="0.501961" points="69,104 87,104 73,108" />
<polygon fill="#432902" fill-opacity="0.501961" points="194,142 196,132 200,151" />
<polygon fill="#e8eedf" fill-opacity="0.501961" points="66,32 92,59 36,44" />
<polygon fill="#6d5919" fill-opacity="0.501961" points="62,129 47,123 64,124" />
<polygon fill="#1b1d0d" fill-opacity="0.501961" points="97,120 116,112 95,112" />
<polygon fill="#03050a" fill-opacity="0.501961" points="49,116 45,112 58,114" />
<polygon fill="#d9decc" fill-opacity="0.501961" points="187,127 146,134 164,147" />
<polygon fill="#907541" fill-opacity="0.501961" points="68,98 60,85 51,108" />
<polygon fill="#a8a06b" fill-opacity="0.501961" points="199,156 194,155 195,166" />
<polygon fill="#b4a0af" fill-opacity="0.501961" points="143,81 144,96 174,75" />
<polygon fill="#dbcc99" fill-opacity="0.501961" points="45,85 42,75 54,89" />
<polygon fill="#b9b75f" fill-opacity="0.501961" points="252,154 249,137 271,151" />
<polygon fill="#a69c5d" fill-opacity="0.501961" points="14,108 20,112 5,119" />
<polygon fill="#c5b488" fill-opacity="0.501961" points="196,75 166,88 217,88" />
<polygon fill="#2a2f12" fill-opacity="0.501961" points="194,116 183,119 173,115" />
<polygon fill="#9f8a55" fill-opacity="0.501961" points="166,153 168,148 152,152" />
<polygon fill="#bebcc6" fill-opacity="0.501961" points="38,69 -16,14 23,-16" />
<polygon fill="#1b1000" fill-opacity="0.501961" points="209,153 216,149 214,153" />
<polygon fill="#dce2d1" fill-opacity="0.501961" points="174,129 191,136 191,152" />
<polygon fill="#cbb474" fill-opacity="0.501961" points="166,102 147,110 188,110" />
<polygon fill="#192010" fill-opacity="0.501961" points="148,112 120,113 136,117" />
<polygon fill="#523706" fill-opacity="0.501961" points="-16,70 -16,115 15,74" />
<polygon fill="#848763" fill-opacity="0.501961" points="134,126 143,120 112,120" />
<polygon fill="#ecd3a6" fill-opacity="0.501961" points="237,60 222,66 235,49" />
<polygon fill="#cfc8cd" fill-opacity="0.501961" points="69,-14 80,28 4,46" />
<polygon fill="#d0d8b9" fill-opacity="0.501961" points="205,147 193,150 196,146" />
<polygon fill="#ac934f" fill-opacity="0.501961" points="81,81 62,81 63,87" />
<polygon fill="#9b8550" fill-opacity="0.501961" points="171,142 165,143 175,150" />
<polygon fill="#9b7d2f" fill-opacity="0.501961" points="208,85 211,77 226,75" />
<polygon fill="#b3a07e" fill-opacity="0.501961" points="250,83 256,64 271,51" />
<polygon fill="#5d2a03" fill-opacity="0.501961" points="219,123 202,123 211,126" />
<polygon fill="#937f3b" fill-opacity="0.501961" points="203,154 217,155 211,151" />
<polygon fill="#d1aa57" fill-opacity="0.501961" points="239,58 216,77 224,88" />
<polygon fill="#e5eabf" fill-opacity="0.501961" points="233,149 247,140 245,157" />
<polygon fill="#baae84" fill-opacity="0.501961" points="174,160 186,154 167,153" />
<polygon fill="#5c452b" fill-opacity="0.501961" points="149,147 160,145 162,150" />
<polygon fill="#d0ded6" fill-opacity="0.501961" points="138,136 152,150 130,150" />
<polygon fill="#dff0e6" fill-opacity="0.501961" points="163,138 167,147 149,143" />
<polygon fill="#e8e4dd" fill-opacity="0.501961" points="134,-16 253,38 271,-6" />
<polygon fill="#cbc8a3" fill-opacity="0.501961" points="212,127 200,132 191,125" />
<polygon fill="#6d5e31" fill-opacity="0.501961" points="41,80 29,81 47,91" />
<polygon fill="#1b0b04" fill-opacity="0.501961" points="223,148 231,149 222,152" />
<polygon fill="#412d12" fill-opacity="0.501961" points="14,73 28,105 44,89" />
<polygon fill="#e3e2ba" fill-opacity="0.501961" points="215,131 242,140 229,146" />
<polygon fill="#753000" fill-opacity="0.501961" points="271,107 250,122 271,118" />
<polygon fill="#8d6e3d" fill-opacity="0.501961" points="115,84 133,112 114,109" />
<polygon fill="#180d07" fill-opacity="0.501961" points="-10,123 -12,108 7,121" />
<polygon fill="#edd19a" fill-opacity="0.501961" points="224,95 230,70 234,94" />
<polygon fill="#89804b" fill-opacity="0.501961" points="29,126 -13,137 -16,125" />
<polygon fill="#a58854" fill-opacity="0.501961" points="164,106 165,94 179,85" />
<polygon fill="#c9b670" fill-opacity="0.501961" points="264,43 240,43 246,50" />
<polygon fill="#abac75" fill-opacity="0.501961" points="57,118 55,109 53,111" />
<polygon fill="#dccdba" fill-opacity="0.501961" points="177,98 176,90 201,85" />
<polygon fill="#9e9853" fill-opacity="0.501961" points="193,124 226,122 219,115" />
<polygon fill="#a89848" fill-opacity="0.501961" points="31,108 35,110 35,117" />
<polygon fill="#614123" fill-opacity="0.501961" points="172,152 170,148 160,147" />
<polygon fill="#624621" fill-opacity="0.501961" points="160,90 143,103 170,92" />
<polygon fill="#797c69" fill-opacity="0.501961" points="11,120 -16,104 -16,86" />
<polygon fill="#c6c58c" fill-opacity="0.501961" points="197,139 193,127 189,128" />
<polygon fill="#51492e" fill-opacity="0.501961" points="58,110 49,94 56,91" />
<polygon fill="#45412b" fill-opacity="0.501961" points="36,119 18,123 4,115" />
<polygon fill="#eaddd1" fill-opacity="0.501961" points="112,67 135,80 180,70" />
<polygon fill="#ded9d6" fill-opacity="0.501961" points="81,72 75,89 116,74" />
<polygon fill="#b7b86a" fill-opacity="0.501961" points="234,155 219,156 225,152" />
<polygon fill="#f4f5e2" fill-opacity="0.501961" points="71,38 59,73 71,74" />
<polygon fill="#854e13" fill-opacity="0.501961" points="225,117 238,123 231,116" />
<polygon fill="#dcd1c3" fill-opacity="0.501961" points="213,49 221,65 195,73" />
<polygon fill="#e7d8b8" fill-opacity="0.501961" points="225,101 235,81 208,101" />
<polygon fill="#ecf1f0" fill-opacity="0.501961" points="150,52 149,27 133,47" />
<polygon fill="#bab8b0" fill-opacity="0.501961" points="12,148 32,130 -16,139" />
<polygon fill="#dde3cb" fill-opacity="0.501961" points="249,168 200,156 197,185" />
<polygon fill="#d2d0ae" fill-opacity="0.501961" points="59,65 54,78 55,50" />
<polygon fill="#e2d6c1" fill-opacity="0.501961" points="248,54 256,80 263,57" />
<polygon fill="#090000" fill-opacity="0.501961" points="171,152 175,151 181,154" />
<polygon fill="#907a6d" fill-opacity="0.501961" points="104,99 122,97 115,90" />
<polygon fill="#5b4e28" fill-opacity="0.501961" points="229,148 235,143 240,143" />
<polygon fill="#eadec4" fill-opacity="0.501961" points="221,111 245,85 259,87" />
<polygon fill="#c8c9b3" fill-opacity="0.501961" points="118,150 105,155 89,151" />
<polygon fill="#f8f2de" fill-opacity="0.501961" points="245,100 235,107 222,98" />
<polygon fill="#6d4a27" fill-opacity="0.501961" points="129,87 115,86 133,107" />
<polygon fill="#ded1c7" fill-opacity="0.501961" points="89,100 92,103 78,103" />
<polygon fill="#dbe5dc" fill-opacity="0.501961" points="125,139 157,146 159,136" />
<polygon fill="#e3ecc5" fill-opacity="0.501961" points="220,139 222,147 223,141" />
<polygon fill="#b8c2c3" fill-opacity="0.501961" points="55,53 7,55 6,42" />
<polygon fill="#9a7128" fill-opacity="0.501961" points="202,104 208,101 216,104" />
<polygon fill="#ba9e43" fill-opacity="0.501961" points="232,119 251,121 267,111" />
<polygon fill="#d8d0d2" fill-opacity="0.501961" points="154,38 191,55 134,75" />
<polygon fill="#eff5e8" fill-opacity="0.501961" points="217,21 225,56 235,43" />
<polygon fill="#c9bfa3" fill-opacity="0.501961" points="77,79 62,92 89,79" />
<polygon fill="#d9dcae" fill-opacity="0.501961" points="262,185 249,149 230,150" />
<polygon fill="#5b5b45" fill-opacity="0.501961" points="111,117 96,124 76,115" />
<polygon fill="#d6d6a9" fill-opacity="0.501961" points="248,141 216,129 234,144" />
<polygon fill="#71581f" fill-opacity="0.501961" points="35,81 22,92 24,85" />
<polygon fill="#b7a97b" fill-opacity="0.501961" points="54,82 49,86 40,85" />
<polygon fill="#979291" fill-opacity="0.501961" points="7,65 12,62 19,64" />
<polygon fill="#331707" fill-opacity="0.501961" points="217,145 220,146 211,152" />
<polygon fill="#57572b" fill-opacity="0.501961" points="38,112 38,122 55,104" />
<polygon fill="#9f8f60" fill-opacity="0.501961" points="59,105 54,97 65,102" />
<polygon fill="#100000" fill-opacity="0.501961" points="56,82 55,86 59,82" />
<polygon fill="#dce1d3" fill-opacity="0.501961" points="197,173 192,156 183,159" />
<polygon fill="#898b4f" fill-opacity="0.501961" points="58,112 62,107 64,113" />
<polygon fill="#8e6c33" fill-opacity="0.501961" points="163,102 150,104 163,97" />
<polygon fill="#cad3ca" fill-opacity="0.501961" points="171,155 125,151 166,168" />
<polygon fill="#210000" fill-opacity="0.501961" points="161,148 157,149 160,146" />
<polygon fill="#585a30" fill-opacity="0.501961" points="200,114 190,119 215,120" />
<polygon fill="#b8a074" fill-opacity="0.501961" points="210,87 192,90 196,108" />
<polygon fill="#c5a94c" fill-opacity="0.501961" points="247,107 234,107 239,112" />
<polygon fill="#aaa675" fill-opacity="0.501961" points="65,130 43,123 51,132" />
<polygon fill="#b5a976" fill-opacity="0.501961" points="205,126 225,133 235,127" />
<polygon fill="#897439" fill-opacity="0.501961" points="201,154 196,156 189,152" />
<polygon fill="#665723" fill-opacity="0.501961" points="7,115 -16,85 2,85" />
<polygon fill="#806e42" fill-opacity="0.501961" points="141,90 147,111 119,80" />
<polygon fill="#402a14" fill-opacity="0.501961" points="191,152 197,143 195,136" />
<polygon fill="#949767" fill-opacity="0.501961" points="42,121 46,125 31,127" />
<polygon fill="#abaf96" fill-opacity="0.501961" points="143,144 138,146 151,147" />
<polygon fill="#dde5d7" fill-opacity="0.501961" points="168,137 175,149 173,132" />
<polygon fill="#faffe3" fill-opacity="0.501961" points="210,185 201,168 271,168" />
<polygon fill="#533113" fill-opacity="0.501961" points="182,149 184,147 192,152" />
<polygon fill="#3d461e" fill-opacity="0.501961" points="147,121 171,121 165,115" />
<polygon fill="#dcd4d3" fill-opacity="0.501961" points="60,-16 77,75 87,20" />
<polygon fill="#5a563d" fill-opacity="0.501961" points="49,81 64,81 57,78" />
<polygon fill="#9b9769" fill-opacity="0.501961" points="14,146 -3,147 22,154" />
<polygon fill="#bcb7a7" fill-opacity="0.501961" points="93,125 71,124 54,134" />
<polygon fill="#dfeae1" fill-opacity="0.501961" points="59,66 43,43 33,79" />
<polygon fill="#321808" fill-opacity="0.501961" points="232,147 223,146 229,151" />
<polygon fill="#b38b3c" fill-opacity="0.501961" points="191,108 173,103 189,102" />
<polygon fill="#465b8e" fill-opacity="0.501961" points="98,103 92,105 91,103" />
<polygon fill="#21220a" fill-opacity="0.501961" points="14,79 22,81 31,78" />
<polygon fill="#dee4d2" fill-opacity="0.501961" points="182,132 193,139 192,150" />
<polygon fill="#501900" fill-opacity="0.501961" points="216,123 211,124 221,126" />
<polygon fill="#e3e0d6" fill-opacity="0.501961" points="9,185 94,162 26,161" />
<polygon fill="#c7c8ae" fill-opacity="0.501961" points="167,151 177,161 144,150" />
<polygon fill="#af9a6f" fill-opacity="0.501961" points="186,79 180,84 183,90" />
<polygon fill="#171710" fill-opacity="0.501961" points="61,113 50,113 55,122" />
<polygon fill="#eae9d4" fill-opacity="0.501961" points="127,180 128,131 113,172" />
<polygon fill="#c7bbb6" fill-opacity="0.501961" points="82,102 99,103 96,99" />
<polygon fill="#0d0d02" fill-opacity="0.501961" points="20,95 14,87 17,98" />
<polygon fill="#c1adb5" fill-opacity="0.501961" points="187,80 192,66 149,82" />
<polygon fill="#987d40" fill-opacity="0.501961" points="245,56 250,49 231,46" />
<polygon fill="#bdba88" fill-opacity="0.501961" points="247,121 239,145 246,145" />
<polygon fill="#4c250c" fill-opacity="0.501961" points="22,109 30,112 33,87" />
<polygon fill="#a2792b" fill-opacity="0.501961" points="223,117 215,128 231,120" />
<polygon fill="#857e3e" fill-opacity="0.501961" points="16,102 32,127 17,116" />
<polygon fill="#bbb9c3" fill-opacity="0.501961" points="22,67 22,2 -16,22" />
<polygon fill="#e4e5e0" fill-opacity="0.501961" points="232,47 177,41 271,-16" />
<polygon fill="#b5a5a6" fill-opacity="0.501961" points="163,82 134,83 143,89" />
<polygon fill="#d3d6ef" fill-opacity="0.501961" points="116,62 123,55 89,49" />
<polygon fill="#4a472c" fill-opacity="0.501961" points="62,102 68,115 63,114" />
<polygon fill="#d1d6c3" fill-opacity="0.501961" points="213,149 200,129 217,130" />
<polygon fill="#7a725e" fill-opacity="0.501961" points="153,113 158,111 148,110" />
<polygon fill="#d0c3ac" fill-opacity="0.501961" points="249,81 256,83 238,98" />
<polygon fill="#815f34" fill-opacity="0.501961" points="170,151 166,150 171,143" />
<polygon fill="#a79770" fill-opacity="0.501961" points="171,114 166,108 176,111" />
<polygon fill="#bab2b0" fill-opacity="0.501961" points="58,33 60,24 56,14" />
<polygon fill="#2c1400" fill-opacity="0.501961" points="199,149 197,149 197,142" />
<polygon fill="#e3e4e5" fill-opacity="0.501961" points="101,71 85,47 88,85" />
<polygon fill="#a1a172" fill-opacity="0.501961" points="234,111 209,123 222,111" />
<polygon fill="#938669" fill-opacity="0.501961" points="193,137 189,123 186,126" />
<polygon fill="#2b170b" fill-opacity="0.501961" points="7,122 16,120 18,115" />
<polygon fill="#826313" fill-opacity="0.501961" points="201,142 199,138 196,137" />
<polygon fill="#726541" fill-opacity="0.501961" points="59,128 55,124 55,114" />
<polygon fill="#d9c390" fill-opacity="0.501961" points="223,99 234,92 220,95" />
<polygon fill="#f2f3f8" fill-opacity="0.501961" points="161,34 172,15 177,27" />
<polygon fill="#c5c7cc" fill-opacity="0.501961" points="42,38 35,71 15,37" />
<polygon fill="#0e0409" fill-opacity="0.501961" points="50,97 50,106 48,102" />
<polygon fill="#5f4f1c" fill-opacity="0.501961" points="10,78 9,67 20,68" />
<polygon fill="#918d7d" fill-opacity="0.501961" points="118,122 93,122 110,127" />
<polygon fill="#1a1507" fill-opacity="0.501961" points="196,134 197,132 193,131" />
<polygon fill="#dae3d6" fill-opacity="0.501961" points="186,134 191,145 147,139" />
<polygon fill="#422914" fill-opacity="0.501961" points="191,153 184,146 177,153" />
<polygon fill="#dee0c1" fill-opacity="0.501961" points="199,126 190,128 193,132" />
<polygon fill="#ac9459" fill-opacity="0.501961" points="233,72 240,53 240,79" />
<polygon fill="#cea347" fill-opacity="0.501961" points="233,126 243,121 222,124" />
<polygon fill="#c2af74" fill-opacity="0.501961" points="64,86 60,93 67,87" />
<polygon fill="#a7a385" fill-opacity="0.501961" points="139,124 128,127 125,123" />
<polygon fill="#5a3b20" fill-opacity="0.501961" points="139,103 126,105 138,96" />
<polygon fill="#a98935" fill-opacity="0.501961" points="169,150 169,147 179,150" />
<polygon fill="#b0aea1" fill-opacity="0.501961" points="5,151 21,160 -8,161" />
<polygon fill="#d7d6db" fill-opacity="0.501961" points="177,52 187,34 177,3" />
<polygon fill="#64693f" fill-opacity="0.501961" points="45,116 42,122 50,116" />
<polygon fill="#0d110d" fill-opacity="0.501961" points="165,117 158,114 170,114" />
<polygon fill="#d3dbce" fill-opacity="0.501961" points="117,154 112,144 150,148" />
<polygon fill="#aea966" fill-opacity="0.501961" points="224,152 232,155 220,155" />
<polygon fill="#d1bd98" fill-opacity="0.501961" points="195,102 199,104 192,109" />
<polygon fill="#796658" fill-opacity="0.501961" points="101,88 106,100 112,86" />
<polygon fill="#876c39" fill-opacity="0.501961" points="241,129 237,134 237,122" />
<polygon fill="#d6dec4" fill-opacity="0.501961" points="241,155 206,171 197,158" />
<polygon fill="#858771" fill-opacity="0.501961" points="75,111 84,110 65,104" />
<polygon fill="#b78f49" fill-opacity="0.501961" points="206,102 207,94 193,101" />
<polygon fill="#7a6224" fill-opacity="0.501961" points="246,115 251,98 253,118" />
<polygon fill="#bbabac" fill-opacity="0.501961" points="117,75 94,85 109,83" />
<polygon fill="#e8e4d1" fill-opacity="0.501961" points="131,141 101,129 129,130" />
<polygon fill="#000000" fill-opacity="0.501961" points="181,151 169,151 176,153" />
<polygon fill="#f8f6e6" fill-opacity="0.501961" points="228,34 224,59 237,38" />
<polygon fill="#d7dabe" fill-opacity="0.501961" points="50,70 77,78 38,77" />
<polygon fill="#d1b87c" fill-opacity="0.501961" points="249,62 244,73 244,60" />
<polygon fill="#d5ccc3" fill-opacity="0.501961" points="69,92 78,85 64,90" />
<polygon fill="#d0d4cd" fill-opacity="0.501961" points="45,147 29,168 99,148" />
<polygon fill="#846d20" fill-opacity="0.501961" points="-16,107 12,81 15,92" />
<polygon fill="#dbcb84" fill-opacity="0.501961" points="248,99 243,106 245,97" />
<polygon fill="#665622" fill-opacity="0.501961" points="-4,100 2,130 -16,143" />
<polygon fill="#d0be9d" fill-opacity="0.501961" points="199,84 213,84 210,90" />
<polygon fill="#817c63" fill-opacity="0.501961" points="185,110 173,113 197,116" />
<polygon fill="#bbb18b" fill-opacity="0.501961" points="42,81 53,94 51,82" />
<polygon fill="#e8f3db" fill-opacity="0.501961" points="215,149 205,148 214,145" />
<polygon fill="#d9c786" fill-opacity="0.501961" points="257,38 240,44 243,48" />
<polygon fill="#ded7dc" fill-opacity="0.501961" points="95,55 68,-16 184,8" />
<polygon fill="#9c898d" fill-opacity="0.501961" points="86,101 78,91 65,94" />
<polygon fill="#413510" fill-opacity="0.501961" points="56,100 54,104 57,110" />
<polygon fill="#9b8454" fill-opacity="0.501961" points="120,76 106,85 125,83" />
<polygon fill="#cdd6c6" fill-opacity="0.501961" points="211,132 199,150 220,143" />
<polygon fill="#b19957" fill-opacity="0.501961" points="252,76 249,80 253,81" />
<polygon fill="#c6a952" fill-opacity="0.501961" points="252,123 237,120 251,117" />
<polygon fill="#1e190f" fill-opacity="0.501961" points="146,99 149,101 147,103" />
<polygon fill="#cdc9b3" fill-opacity="0.501961" points="76,78 77,67 81,84" />
<polygon fill="#1b2918" fill-opacity="0.501961" points="134,117 161,116 140,111" />
<polygon fill="#a9948e" fill-opacity="0.501961" points="159,87 140,88 144,95" />
<polygon fill="#d8b477" fill-opacity="0.501961" points="232,73 225,71 227,84" />
<polygon fill="#d2dad3" fill-opacity="0.501961" points="48,149 51,135 10,145" />
<polygon fill="#8d8a65" fill-opacity="0.501961" points="219,111 186,110 200,116" />
<polygon fill="#b2b87b" fill-opacity="0.501961" points="63,54 59,51 61,54" />
<polygon fill="#988246" fill-opacity="0.501961" points="110,111 127,107 109,105" />
<polygon fill="#cccf9a" fill-opacity="0.501961" points="225,152 231,150 238,154" />
<polygon fill="#e4d4b4" fill-opacity="0.501961" points="211,93 235,83 213,102" />
<polygon fill="#cdc8ab" fill-opacity="0.501961" points="172,128 166,140 167,129" />
<polygon fill="#deca99" fill-opacity="0.501961" points="187,83 213,67 214,75" />
<polygon fill="#6d553e" fill-opacity="0.501961" points="101,98 100,105 127,101" />
<polygon fill="#918d76" fill-opacity="0.501961" points="29,69 19,67 32,75" />
<polygon fill="#99803c" fill-opacity="0.501961" points="208,77 208,85 218,76" />
<polygon fill="#5f3f1a" fill-opacity="0.501961" points="33,98 46,93 43,112" />
<polygon fill="#bcc2a8" fill-opacity="0.501961" points="150,150 137,154 128,150" />
<polygon fill="#74713c" fill-opacity="0.501961" points="185,118 175,122 168,118" />
<polygon fill="#aba77d" fill-opacity="0.501961" points="35,131 42,125 19,130" />
<polygon fill="#beab59" fill-opacity="0.501961" points="271,72 249,98 261,94" />
<polygon fill="#d0c7d0" fill-opacity="0.501961" points="56,30 60,-16 0,-16" />
<polygon fill="#969185" fill-opacity="0.501961" points="251,140 249,127 245,130" />
<polygon fill="#75572b" fill-opacity="0.501961" points="154,91 165,100 152,103" />
<polygon fill="#d9e0cc" fill-opacity="0.501961" points="179,133 192,151 188,127" />
<polygon fill="#322310" fill-opacity="0.501961" points="208,153 218,147 217,151" />
<polygon fill="#e7eed0" fill-opacity="0.501961" points="229,146 238,141 223,140" />
<polygon fill="#eae6dd" fill-opacity="0.501961" points="119,76 147,52 138,67" />
<polygon fill="#9b7d39" fill-opacity="0.501961" points="61,84 69,87 70,82" />
<polygon fill="#beaa6f" fill-opacity="0.501961" points="263,104 254,116 254,109" />
<polygon fill="#dbdbd4" fill-opacity="0.501961" points="81,165 114,153 38,153" />
<polygon fill="#f3f4e5" fill-opacity="0.501961" points="71,34 64,51 60,35" />
<polygon fill="#e3d5b8" fill-opacity="0.501961" points="250,80 235,90 253,67" />
<polygon fill="#eeeedf" fill-opacity="0.501961" points="95,51 58,76 57,55" />
<polygon fill="#cac8b2" fill-opacity="0.501961" points="144,133 159,127 127,129" />
<polygon fill="#eaefd5" fill-opacity="0.501961" points="234,151 236,147 248,151" />
<polygon fill="#feefcb" fill-opacity="0.501961" points="229,93 225,89 231,86" />
<polygon fill="#555b3a" fill-opacity="0.501961" points="156,117 126,117 145,123" />
<polygon fill="#dcc8ae" fill-opacity="0.501961" points="175,92 183,100 174,98" />
<polygon fill="#89834e" fill-opacity="0.501961" points="206,125 189,121 205,120" />
<polygon fill="#bda475" fill-opacity="0.501961" points="187,95 182,95 185,111" />
<polygon fill="#ebede2" fill-opacity="0.501961" points="242,44 270,24 258,-16" />
<polygon fill="#bab280" fill-opacity="0.501961" points="54,77 57,75 56,79" />
<polygon fill="#887c57" fill-opacity="0.501961" points="39,80 47,87 37,85" />
<polygon fill="#d7d1b9" fill-opacity="0.501961" points="74,63 76,53 72,57" />
<polygon fill="#513c11" fill-opacity="0.501961" points="249,116 236,116 243,112" />
<polygon fill="#210800" fill-opacity="0.501961" points="225,145 228,151 223,150" />
<polygon fill="#a09b7d" fill-opacity="0.501961" points="12,131 -6,142 9,126" />
<polygon fill="#645622" fill-opacity="0.501961" points="57,104 56,109 68,110" />
<polygon fill="#2e2b13" fill-opacity="0.501961" points="14,81 25,82 24,72" />
<polygon fill="#aea55d" fill-opacity="0.501961" points="207,122 218,123 214,118" />
<polygon fill="#000000" fill-opacity="0.501961" points="36,122 33,121 36,120" />
<polygon fill="#cfd7bf" fill-opacity="0.501961" points="200,154 198,167 224,166" />
<polygon fill="#d2d8bb" fill-opacity="0.501961" points="207,143 213,139 209,152" />
<polygon fill="#4f3d0d" fill-opacity="0.501961" points="199,135 196,139 192,135" />
<polygon fill="#e4e0d0" fill-opacity="0.501961" points="219,110 208,107 202,110" />
<polygon fill="#d9dcdd" fill-opacity="0.501961" points="227,54 191,48 207,30" />
<polygon fill="#9c914b" fill-opacity="0.501961" points="26,115 25,111 11,114" />
<polygon fill="#556048" fill-opacity="0.501961" points="88,119 69,121 103,105" />
<polygon fill="#968368" fill-opacity="0.501961" points="66,80 63,83 73,82" />
<polygon fill="#a4a073" fill-opacity="0.501961" points="-16,30 -8,27 5,49" />
<polygon fill="#cbc3c8" fill-opacity="0.501961" points="149,62 138,70 146,53" />
<polygon fill="#c0b786" fill-opacity="0.501961" points="201,130 216,129 205,126" />
<polygon fill="#322412" fill-opacity="0.501961" points="8,123 21,120 13,116" />
<polygon fill="#ded9d0" fill-opacity="0.501961" points="60,80 83,72 77,80" />
<polygon fill="#11100f" fill-opacity="0.501961" points="53,123 55,120 45,120" />
</g>
</svg>