<svg xmlns="http://www.w3.org/2000/svg" version="1.1" width="1024" height="680">
<rect x="0" y="0" width="1024" height="680" fill="#beb7a6" />
<g transform="scale(4.000000) translate(0.5 0.5)">
<polygon fill="#2a1900" fill-opacity="0.501961" points="-1,63 -10,128 241,119" />
<polygon fill="#f6f4ff" fill-opacity="0.501961" points="271,6 76,108 -16,-16" />
<polygon fill="#706133" fill-opacity="0.501961" points="123,76 -15,121 271,130" />
<polygon fill="#eaf8f3" fill-opacity="0.501961" points="243,185 78,119 -8,177" />
<polygon fill="#3d2b00" fill-opacity="0.501961" points="-12,37 -16,125 72,119" />
<polygon fill="#f8f8f9" fill-opacity="0.501961" points="134,87 227,-16 271,30" />
<polygon fill="#946f07" fill-opacity="0.501961" points="214,124 271,87 257,140" />
<polygon fill="#dbb565" fill-opacity="0.501961" points="221,112 271,26 149,110" />
<polygon fill="#534117" fill-opacity="0.501961" points="243,145 196,158 150,145" />
<polygon fill="#c6c8d5" fill-opacity="0.501961" points="47,91 73,-16 -16,24" />
<polygon fill="#dfe9dd" fill-opacity="0.501961" points="69,134 96,168 210,125" />
<polygon fill="#e5e3e1" fill-opacity="0.501961" points="25,80 231,63 231,-16" />
<polygon fill="#c3b9cb" fill-opacity="0.501961" points="119,46 95,111 60,104" />
<polygon fill="#f4ffcf" fill-opacity="0.501961" points="180,154 228,185 271,157" />
<polygon fill="#321d00" fill-opacity="0.501961" points="193,133 198,156 200,127" />
<polygon fill="#323826" fill-opacity="0.501961" points="109,100 177,118 43,122" />
<polygon fill="#f6e6c1" fill-opacity="0.501961" points="237,111 271,53 197,111" />
<polygon fill="#f1ffe7" fill-opacity="0.501961" points="202,150 243,138 201,133" />
<polygon fill="#877c36" fill-opacity="0.501961" points="37,127 4,82 -12,138" />
<polygon fill="#af8f45" fill-opacity="0.501961" points="251,41 243,76 174,110" />
<polygon fill="#84603a" fill-opacity="0.501961" points="100,113 114,76 171,100" />
<polygon fill="#6a4500" fill-opacity="0.501961" points="74,83 52,95 56,79" />
<polygon fill="#effff3" fill-opacity="0.501961" points="193,149 153,137 190,134" />
<polygon fill="#6b520a" fill-opacity="0.501961" points="254,117 232,117 258,92" />
<polygon fill="#3a2103" fill-opacity="0.501961" points="216,146 212,156 239,145" />
<polygon fill="#3f2602" fill-opacity="0.501961" points="-10,44 23,110 51,103" />
<polygon fill="#3c1b01" fill-opacity="0.501961" points="207,154 181,146 168,153" />
<polygon fill="#b39f6a" fill-opacity="0.501961" points="156,105 270,136 199,91" />
<polygon fill="#e8efdb" fill-opacity="0.501961" points="109,79 32,78 51,26" />
<polygon fill="#dadba3" fill-opacity="0.501961" points="189,126 271,165 233,126" />
<polygon fill="#846a3f" fill-opacity="0.501961" points="147,111 186,81 94,109" />
<polygon fill="#d6cbcf" fill-opacity="0.501961" points="147,95 106,58 224,38" />
<polygon fill="#bab4c3" fill-opacity="0.501961" points="57,5 15,69 -16,-11" />
<polygon fill="#e6e4e3" fill-opacity="0.501961" points="271,0 220,62 47,-9" />
<polygon fill="#d6dbd3" fill-opacity="0.501961" points="75,185 185,129 10,135" />
<polygon fill="#9d9664" fill-opacity="0.501961" points="64,133 100,121 29,124" />
<polygon fill="#7c6031" fill-opacity="0.501961" points="159,154 146,146 171,148" />
<polygon fill="#f3ead4" fill-opacity="0.501961" points="217,83 247,108 211,100" />
<polygon fill="#a1843a" fill-opacity="0.501961" points="237,42 249,46 236,89" />
<polygon fill="#dacab3" fill-opacity="0.501961" points="166,104 217,48 206,85" />
<polygon fill="#180000" fill-opacity="0.501961" points="191,150 199,141 197,133" />
<polygon fill="#000001" fill-opacity="0.501961" points="44,113 72,114 69,122" />
<polygon fill="#e1edd3" fill-opacity="0.501961" points="212,150 189,150 232,134" />
<polygon fill="#898958" fill-opacity="0.501961" points="-16,140 25,151 -16,158" />
<polygon fill="#a89f6b" fill-opacity="0.501961" points="266,151 216,127 271,121" />
<polygon fill="#858147" fill-opacity="0.501961" points="26,121 67,107 8,110" />
<polygon fill="#112210" fill-opacity="0.501961" points="145,121 122,113 170,114" />
<polygon fill="#573e03" fill-opacity="0.501961" points="7,54 -16,20 3,96" />
<polygon fill="#000004" fill-opacity="0.501961" points="23,118 -3,120 11,123" />
<polygon fill="#edeee3" fill-opacity="0.501961" points="253,43 207,45 261,-16" />
<polygon fill="#908281" fill-opacity="0.501961" points="112,77 115,107 72,112" />
<polygon fill="#bebcb3" fill-opacity="0.501961" points="134,122 91,137 70,125" />
<polygon fill="#171b0c" fill-opacity="0.501961" points="92,119 100,110 129,115" />
<polygon fill="#59411d" fill-opacity="0.501961" points="173,90 124,100 146,106" />
<polygon fill="#53572c" fill-opacity="0.501961" points="166,115 221,128 207,113" />
<polygon fill="#d4caa4" fill-opacity="0.501961" points="48,74 49,92 55,92" />
<polygon fill="#8e7d2e" fill-opacity="0.501961" points="-7,115 13,76 17,115" />
<polygon fill="#f2e4cb" fill-opacity="0.501961" points="195,71 233,47 237,61" />
<polygon fill="#dee6d8" fill-opacity="0.501961" points="87,135 168,147 150,126" />
<polygon fill="#6e5329" fill-opacity="0.501961" points="141,96 127,82 101,89" />
<polygon fill="#b19695" fill-opacity="0.501961" points="126,82 203,75 165,90" />
<polygon fill="#acac83" fill-opacity="0.501961" points="190,133 210,120 152,122" />
<polygon fill="#e4eabc" fill-opacity="0.501961" points="249,134 200,185 247,173" />
<polygon fill="#4f401a" fill-opacity="0.501961" points="40,81 59,105 19,79" />
<polygon fill="#707251" fill-opacity="0.501961" points="54,49 55,54 60,52" />
<polygon fill="#e6d7b6" fill-opacity="0.501961" points="249,38 271,78 250,92" />
<polygon fill="#bec7b4" fill-opacity="0.501961" points="167,156 142,144 125,158" />
<polygon fill="#6f5834" fill-opacity="0.501961" points="52,102 68,111 56,75" />
<polygon fill="#cccfc2" fill-opacity="0.501961" points="-1,185 63,139 40,123" />
<polygon fill="#d3ccc2" fill-opacity="0.501961" points="218,109 206,103 186,111" />
<polygon fill="#ab8442" fill-opacity="0.501961" points="190,98 221,104 180,107" />
<polygon fill="#7e7754" fill-opacity="0.501961" points="13,71 15,63 34,72" />
<polygon fill="#e2ecde" fill-opacity="0.501961" points="183,130 181,148 169,136" />
<polygon fill="#ded5dc" fill-opacity="0.501961" points="62,-14 81,93 169,1" />
<polygon fill="#c1a646" fill-opacity="0.501961" points="235,114 270,89 251,92" />
<polygon fill="#f4fada" fill-opacity="0.501961" points="192,141 188,146 190,152" />
<polygon fill="#845e14" fill-opacity="0.501961" points="254,103 219,122 238,121" />
<polygon fill="#210700" fill-opacity="0.501961" points="227,151 233,147 217,146" />
<polygon fill="#9d8c53" fill-opacity="0.501961" points="165,100 120,109 146,111" />
<polygon fill="#d8dbc6" fill-opacity="0.501961" points="223,147 188,123 224,133" />
<polygon fill="#ae8a32" fill-opacity="0.501961" points="224,79 220,66 203,81" />
<polygon fill="#d3c4c1" fill-opacity="0.501961" points="78,99 100,101 83,104" />
<polygon fill="#eff8e9" fill-opacity="0.501961" points="157,185 225,168 106,165" />
<polygon fill="#290e01" fill-opacity="0.501961" points="195,153 184,148 168,152" />
<polygon fill="#eaf2e6" fill-opacity="0.501961" points="37,56 34,76 98,53" />
<polygon fill="#cbaf72" fill-opacity="0.501961" points="220,73 235,90 250,65" />
<polygon fill="#fde4b2" fill-opacity="0.501961" points="256,122 241,125 247,127" />
<polygon fill="#d0b778" fill-opacity="0.501961" points="189,110 169,101 147,110" />
<polygon fill="#6d5717" fill-opacity="0.501961" points="60,129 52,124 68,122" />
<polygon fill="#cacea9" fill-opacity="0.501961" points="162,151 202,160 188,166" />
<polygon fill="#1b0b05" fill-opacity="0.501961" points="18,88 41,109 15,96" />
<polygon fill="#553318" fill-opacity="0.501961" points="163,148 158,151 151,147" />
<polygon fill="#543f24" fill-opacity="0.501961" points="62,78 58,93 52,78" />
<polygon fill="#f3e5c5" fill-opacity="0.501961" points="252,70 244,105 222,110" />
<polygon fill="#93711b" fill-opacity="0.501961" points="234,46 242,45 245,56" />
<polygon fill="#d1d6d5" fill-opacity="0.501961" points="95,125 109,154 5,145" />
<polygon fill="#c9bebe" fill-opacity="0.501961" points="95,53 112,82 123,69" />
<polygon fill="#a3a080" fill-opacity="0.501961" points="174,130 153,123 136,129" />
<polygon fill="#69554d" fill-opacity="0.501961" points="115,102 104,85 97,107" />
<polygon fill="#553d0b" fill-opacity="0.501961" points="190,133 200,145 199,138" />
<polygon fill="#c2c485" fill-opacity="0.501961" points="236,153 217,159 209,154" />
<polygon fill="#293519" fill-opacity="0.501961" points="168,113 152,120 190,118" />
<polygon fill="#897c58" fill-opacity="0.501961" points="72,110 52,114 62,86" />
<polygon fill="#d1c6ac" fill-opacity="0.501961" points="83,77 62,90 83,91" />
<polygon fill="#c39b37" fill-opacity="0.501961" points="207,121 233,126 258,117" />
<polygon fill="#000002" fill-opacity="0.501961" points="57,117 68,121 44,121" />
<polygon fill="#ebe1d4" fill-opacity="0.501961" points="176,67 139,81 105,71" />
<polygon fill="#8e855e" fill-opacity="0.501961" points="271,141 271,124 222,129" />
<polygon fill="#d0c7cc" fill-opacity="0.501961" points="82,19 22,52 42,-16" />
<polygon fill="#afaa5d" fill-opacity="0.501961" points="271,132 235,145 271,145" />
<polygon fill="#bcbbc4" fill-opacity="0.501961" points="13,-16 40,58 -16,32" />
<polygon fill="#dac7b7" fill-opacity="0.501961" points="211,77 166,70 216,54" />
<polygon fill="#d5d5ba" fill-opacity="0.501961" points="55,48 52,74 61,80" />
<polygon fill="#e3e2dc" fill-opacity="0.501961" points="206,59 185,-16 271,-4" />
<polygon fill="#e1e9da" fill-opacity="0.501961" points="174,148 172,138 180,132" />
<polygon fill="#5f6683" fill-opacity="0.501961" points="75,109 62,104 80,104" />
<polygon fill="#ead1a2" fill-opacity="0.501961" points="220,97 231,72 235,97" />
<polygon fill="#2d1400" fill-opacity="0.501961" points="197,150 206,154 207,150" />
<polygon fill="#9d8773" fill-opacity="0.501961" points="113,97 123,99 108,81" />
<polygon fill="#c4c097" fill-opacity="0.501961" points="159,155 149,151 169,150" />
<polygon fill="#dfecdd" fill-opacity="0.501961" points="165,148 166,136 148,134" />
<polygon fill="#52593f" fill-opacity="0.501961" points="76,122 113,122 59,106" />
<polygon fill="#c8b68e" fill-opacity="0.501961" points="193,91 216,89 188,67" />
<polygon fill="#afa55f" fill-opacity="0.501961" points="14,109 23,113 8,115" />
<polygon fill="#61380d" fill-opacity="0.501961" points="30,98 9,102 31,114" />
<polygon fill="#8f7d4f" fill-opacity="0.501961" points="139,85 146,100 116,76" />
<polygon fill="#d6dcc4" fill-opacity="0.501961" points="214,132 248,142 198,145" />
<polygon fill="#4c3718" fill-opacity="0.501961" points="219,144 219,153 210,154" />
<polygon fill="#94740a" fill-opacity="0.501961" points="271,27 258,66 255,36" />
<polygon fill="#b5a383" fill-opacity="0.501961" points="249,85 264,60 261,43" />
<polygon fill="#606a49" fill-opacity="0.501961" points="146,117 129,123 165,123" />
<polygon fill="#d7dec6" fill-opacity="0.501961" points="229,143 197,144 219,132" />
<polygon fill="#d5d7b4" fill-opacity="0.501961" points="195,135 187,125 192,125" />
<polygon fill="#5a1d00" fill-opacity="0.501961" points="220,123 208,124 214,126" />
<polygon fill="#aa9ca5" fill-opacity="0.501961" points="94,108 75,91 106,81" />
<polygon fill="#dae4cd" fill-opacity="0.501961" points="214,149 200,146 217,141" />
<polygon fill="#1b2414" fill-opacity="0.501961" points="160,117 129,115 143,110" />
<polygon fill="#717956" fill-opacity="0.501961" points="215,111 215,120 182,111" />
<polygon fill="#8f8960" fill-opacity="0.501961" points="34,83 17,64 31,73" />
<polygon fill="#e8eceb" fill-opacity="0.501961" points="136,72 132,44 155,25" />
<polygon fill="#150000" fill-opacity="0.501961" points="197,145 199,148 198,144" />
<polygon fill="#a29f7a" fill-opacity="0.501961" points="7,125 42,127 -6,140" />
<polygon fill="#564619" fill-opacity="0.501961" points="252,109 235,115 254,116" />
<polygon fill="#000000" fill-opacity="0.501961" points="178,146 177,148 176,146" />
<polygon fill="#5b4f25" fill-opacity="0.501961" points="-15,136 4,133 -4,87" />
<polygon fill="#6d5025" fill-opacity="0.501961" points="164,89 140,100 163,103" />
<polygon fill="#cfc28c" fill-opacity="0.501961" points="56,81 42,81 47,86" />
<polygon fill="#f2f6e8" fill-opacity="0.501961" points="253,35 222,31 220,53" />
<polygon fill="#b4ba8f" fill-opacity="0.501961" points="56,114 53,103 53,111" />
<polygon fill="#130000" fill-opacity="0.501961" points="226,144 226,151 223,144" />
<polygon fill="#e3e4d2" fill-opacity="0.501961" points="130,128 107,130 130,181" />
<polygon fill="#dfe8d5" fill-opacity="0.501961" points="191,135 183,132 192,153" />
<polygon fill="#f2f0e1" fill-opacity="0.501961" points="70,80 61,29 74,41" />
<polygon fill="#d0ddca" fill-opacity="0.501961" points="198,155 198,169 226,156" />
<polygon fill="#745523" fill-opacity="0.501961" points="168,143 170,153 172,144" />
<polygon fill="#464632" fill-opacity="0.501961" points="19,124 42,119 11,115" />
<polygon fill="#4e3b1d" fill-opacity="0.501961" points="34,109 63,108 48,94" />
<polygon fill="#a7918f" fill-opacity="0.501961" points="65,103 99,95 65,91" />
<polygon fill="#8e8a77" fill-opacity="0.501961" points="90,122 106,127 117,123" />
<polygon fill="#ab949b" fill-opacity="0.501961" points="144,96 174,82 140,87" />
<polygon fill="#ae9553" fill-opacity="0.501961" points="60,92 77,81 60,82" />
<polygon fill="#74786d" fill-opacity="0.501961" points="11,120 -16,86 -16,104" />
<polygon fill="#dad7d7" fill-opacity="0.501961" points="181,30 103,74 229,55" />
<polygon fill="#dee8dd" fill-opacity="0.501961" points="192,158 194,185 174,160" />
<polygon fill="#1f0900" fill-opacity="0.501961" points="58,87 55,88 59,79" />
<polygon fill="#906e33" fill-opacity="0.501961" points="241,50 249,51 241,66" />
<polygon fill="#e4dac6" fill-opacity="0.501961" points="250,54 271,32 254,81" />
<polygon fill="#c9c5b4" fill-opacity="0.501961" points="57,150 -11,178 27,147" />
<polygon fill="#aba572" fill-opacity="0.501961" points="198,163 191,164 195,156" />
<polygon fill="#6c4924" fill-opacity="0.501961" points="134,108 129,87 116,86" />
<polygon fill="#a0a365" fill-opacity="0.501961" points="204,119 222,117 208,124" />
<polygon fill="#d5d9c4" fill-opacity="0.501961" points="124,131 187,128 172,143" />
<polygon fill="#000000" fill-opacity="0.501961" points="54,116 47,115 50,112" />
<polygon fill="#d8d2ca" fill-opacity="0.501961" points="75,54 97,86 73,89" />
<polygon fill="#b89963" fill-opacity="0.501961" points="194,89 191,107 207,99" />
<polygon fill="#ccba75" fill-opacity="0.501961" points="256,43 240,49 242,44" />
<polygon fill="#a6aa81" fill-opacity="0.501961" points="31,131 42,120 47,127" />
<polygon fill="#868143" fill-opacity="0.501961" points="17,109 37,117 17,119" />
<polygon fill="#dfe2c0" fill-opacity="0.501961" points="245,138 227,136 227,146" />
<polygon fill="#392312" fill-opacity="0.501961" points="45,90 35,85 26,107" />
<polygon fill="#e5e3da" fill-opacity="0.501961" points="69,159 137,185 4,173" />
<polygon fill="#b7a060" fill-opacity="0.501961" points="247,119 271,89 262,111" />
<polygon fill="#bca972" fill-opacity="0.501961" points="115,74 135,81 125,82" />
<polygon fill="#564114" fill-opacity="0.501961" points="-15,56 16,68 8,90" />
<polygon fill="#d2d2c5" fill-opacity="0.501961" points="131,151 107,167 61,150" />
<polygon fill="#b2a56a" fill-opacity="0.501961" points="182,158 177,156 192,153" />
<polygon fill="#b4974c" fill-opacity="0.501961" points="240,79 223,67 242,58" />
<polygon fill="#937844" fill-opacity="0.501961" points="142,107 107,102 121,111" />
<polygon fill="#bda67d" fill-opacity="0.501961" points="186,80 165,96 187,87" />
<polygon fill="#d7c5b2" fill-opacity="0.501961" points="177,88 201,85 172,99" />
<polygon fill="#c7c76f" fill-opacity="0.501961" points="267,120 260,154 248,154" />
<polygon fill="#b0ab96" fill-opacity="0.501961" points="66,122 87,121 90,131" />
<polygon fill="#bab871" fill-opacity="0.501961" points="217,153 230,155 234,151" />
<polygon fill="#9b9370" fill-opacity="0.501961" points="187,123 189,132 194,122" />
<polygon fill="#dfe3ae" fill-opacity="0.501961" points="233,148 260,185 262,160" />
<polygon fill="#7e6c24" fill-opacity="0.501961" points="18,109 14,82 -16,107" />
<polygon fill="#7a838f" fill-opacity="0.501961" points="78,105 91,109 99,103" />
<polygon fill="#f9f0d0" fill-opacity="0.501961" points="249,88 239,101 254,90" />
<polygon fill="#b39b60" fill-opacity="0.501961" points="241,81 239,71 231,94" />
<polygon fill="#8b6b1e" fill-opacity="0.501961" points="210,77 213,83 216,76" />
<polygon fill="#3e1d10" fill-opacity="0.501961" points="155,146 160,146 162,149" />
<polygon fill="#120000" fill-opacity="0.501961" points="9,121 -1,119 -3,123" />
<polygon fill="#6a1c00" fill-opacity="0.501961" points="252,121 271,124 265,119" />
<polygon fill="#babab8" fill-opacity="0.501961" points="13,146 -16,146 22,130" />
<polygon fill="#dceae7" fill-opacity="0.501961" points="51,75 33,79 42,44" />
<polygon fill="#180600" fill-opacity="0.501961" points="182,149 185,146 185,148" />
<polygon fill="#968139" fill-opacity="0.501961" points="233,115 250,99 271,95" />
<polygon fill="#23230d" fill-opacity="0.501961" points="15,76 21,75 21,96" />
<polygon fill="#c9b067" fill-opacity="0.501961" points="223,103 230,108 219,108" />
<polygon fill="#f5ebce" fill-opacity="0.501961" points="248,99 225,99 228,112" />
<polygon fill="#b18b40" fill-opacity="0.501961" points="180,149 173,150 167,146" />
<polygon fill="#b6af79" fill-opacity="0.501961" points="56,81 50,78 56,76" />
<polygon fill="#703900" fill-opacity="0.501961" points="215,104 212,102 208,102" />
<polygon fill="#f1f2f5" fill-opacity="0.501961" points="175,15 162,30 178,33" />
<polygon fill="#2a2a14" fill-opacity="0.501961" points="131,111 113,118 94,113" />
<polygon fill="#2e1c09" fill-opacity="0.501961" points="192,150 197,142 194,143" />
<polygon fill="#848263" fill-opacity="0.501961" points="196,116 177,110 213,110" />
<polygon fill="#e1e3c9" fill-opacity="0.501961" points="192,137 188,147 192,150" />
<polygon fill="#302112" fill-opacity="0.501961" points="145,104 152,102 147,99" />
<polygon fill="#d8e0db" fill-opacity="0.501961" points="105,132 156,150 46,146" />
<polygon fill="#87743e" fill-opacity="0.501961" points="60,92 43,92 45,97" />
<polygon fill="#161216" fill-opacity="0.501961" points="29,122 37,118 38,122" />
<polygon fill="#8e6f45" fill-opacity="0.501961" points="152,91 178,87 170,94" />
<polygon fill="#cab8af" fill-opacity="0.501961" points="79,98 92,103 66,102" />
<polygon fill="#565532" fill-opacity="0.501961" points="96,120 115,115 129,123" />
<polygon fill="#948e4d" fill-opacity="0.501961" points="67,127 54,130 51,126" />
<polygon fill="#e2e1be" fill-opacity="0.501961" points="203,127 190,128 192,131" />
<polygon fill="#dad5be" fill-opacity="0.501961" points="77,73 52,76 76,81" />
<polygon fill="#8b8358" fill-opacity="0.501961" points="4,49 7,62 17,68" />
<polygon fill="#4d4746" fill-opacity="0.501961" points="103,109 97,112 102,97" />
<polygon fill="#afb6a1" fill-opacity="0.501961" points="147,146 137,147 135,144" />
<polygon fill="#7a763f" fill-opacity="0.501961" points="26,128 15,128 34,111" />
<polygon fill="#54562f" fill-opacity="0.501961" points="206,120 189,116 216,115" />
<polygon fill="#998a55" fill-opacity="0.501961" points="42,87 51,80 37,85" />
<polygon fill="#949264" fill-opacity="0.501961" points="12,152 25,149 1,147" />
<polygon fill="#dee6d9" fill-opacity="0.501961" points="187,130 176,137 181,148" />
<polygon fill="#b6a1b1" fill-opacity="0.501961" points="184,74 156,91 150,78" />
<polygon fill="#8c8c62" fill-opacity="0.501961" points="71,115 74,120 72,121" />
<polygon fill="#dfd8c5" fill-opacity="0.501961" points="209,105 194,110 225,110" />
<polygon fill="#c2c4cc" fill-opacity="0.501961" points="10,41 40,21 35,74" />
<polygon fill="#e8ce9c" fill-opacity="0.501961" points="241,54 229,64 227,56" />
<polygon fill="#938543" fill-opacity="0.501961" points="19,111 20,99 5,120" />
<polygon fill="#ccba9a" fill-opacity="0.501961" points="188,110 197,101 198,110" />
<polygon fill="#b5893c" fill-opacity="0.501961" points="208,104 200,98 207,95" />
<polygon fill="#bbb596" fill-opacity="0.501961" points="68,130 45,128 54,137" />
<polygon fill="#7c7d52" fill-opacity="0.501961" points="177,118 191,118 179,127" />
<polygon fill="#e7eed3" fill-opacity="0.501961" points="230,152 241,152 241,145" />
<polygon fill="#575124" fill-opacity="0.501961" points="7,116 2,117 4,98" />
<polygon fill="#19130e" fill-opacity="0.501961" points="55,114 73,112 62,122" />
<polygon fill="#e0e0b5" fill-opacity="0.501961" points="226,141 220,131 221,148" />
<polygon fill="#6b5f3e" fill-opacity="0.501961" points="55,114 58,121 55,125" />
<polygon fill="#f9dd94" fill-opacity="0.501961" points="250,124 261,126 271,120" />
<polygon fill="#3a1708" fill-opacity="0.501961" points="159,150 159,146 163,150" />
<polygon fill="#74643a" fill-opacity="0.501961" points="142,94 148,109 126,85" />
<polygon fill="#cec29e" fill-opacity="0.501961" points="41,75 51,86 48,89" />
<polygon fill="#979973" fill-opacity="0.501961" points="50,54 61,54 61,51" />
</g>
</svg>