<svg xmlns="http://www.w3.org/2000/svg" version="1.1" width="1024" height="576">
<rect x="0" y="0" width="1024" height="576" fill="#dccfb5" />
<g transform="scale(4.000000) translate(0.5 0.5)">
<polygon fill="#000000" fill-opacity="0.501961" points="129,70 58,95 189,93" />
<polygon fill="#000000" fill-opacity="0.501961" points="187,89 71,93 114,72" />
<polygon fill="#f8e9cc" fill-opacity="0.501961" points="126,82 -9,-16 172,53" />
<polygon fill="#f4e5c9" fill-opacity="0.501961" points="-3,142 128,87 252,143" />
<polygon fill="#000000" fill-opacity="0.501961" points="128,83 155,98 187,86" />
<polygon fill="#000000" fill-opacity="0.501961" points="70,85 80,92 73,74" />
<polygon fill="#f3e4c8" fill-opacity="0.501961" points="105,135 -16,133 -1,-16" />
<polygon fill="#000000" fill-opacity="0.501961" points="125,78 106,98 71,89" />
<polygon fill="#000000" fill-opacity="0.501961" points="182,89 185,79 178,74" />
<polygon fill="#2f3026" fill-opacity="0.501961" points="187,34 205,40 177,17" />
<polygon fill="#000000" fill-opacity="0.501961" points="145,94 173,90 144,73" />
<polygon fill="#f0e1c5" fill-opacity="0.501961" points="271,151 256,30 167,102" />
<polygon fill="#eee0c4" fill-opacity="0.501961" points="167,-16 -16,55 135,78" />
<polygon fill="#a69e88" fill-opacity="0.501961" points="199,52 214,95 201,147" />
<polygon fill="#000300" fill-opacity="0.501961" points="162,50 174,50 155,42" />
<polygon fill="#ffffed" fill-opacity="0.501961" points="128,83 133,94 115,95" />
<polygon fill="#f3e4c8" fill-opacity="0.501961" points="194,-11 208,129 271,-13" />
<polygon fill="#000000" fill-opacity="0.501961" points="151,33 156,41 154,26" />
<polygon fill="#050703" fill-opacity="0.501961" points="186,27 191,30 180,48" />
<polygon fill="#e9dbc0" fill-opacity="0.501961" points="39,159 60,89 110,99" />
<polygon fill="#272820" fill-opacity="0.501961" points="172,14 184,20 162,17" />
<polygon fill="#000000" fill-opacity="0.501961" points="108,75 124,88 80,93" />
<polygon fill="#000000" fill-opacity="0.501961" points="153,96 181,91 132,77" />
<polygon fill="#000000" fill-opacity="0.501961" points="77,89 72,76 69,90" />
<polygon fill="#000000" fill-opacity="0.501961" points="170,49 183,45 177,49" />
<polygon fill="#e8dabf" fill-opacity="0.501961" points="-5,159 7,97 204,95" />
<polygon fill="#efe1c4" fill-opacity="0.501961" points="191,43 171,87 135,67" />
<polygon fill="#eadbbf" fill-opacity="0.501961" points="127,85 110,32 158,14" />
<polygon fill="#000000" fill-opacity="0.501961" points="139,92 153,76 130,78" />
<polygon fill="#eadcc1" fill-opacity="0.501961" points="192,-16 -16,2 89,85" />
<polygon fill="#36352b" fill-opacity="0.501961" points="202,57 198,61 198,43" />
<polygon fill="#000000" fill-opacity="0.501961" points="185,89 184,79 178,73" />
<polygon fill="#424033" fill-opacity="0.501961" points="152,27 151,23 163,18" />
<polygon fill="#7b7665" fill-opacity="0.501961" points="205,150 202,105 197,129" />
<polygon fill="#e8dabf" fill-opacity="0.501961" points="142,75 31,73 162,-16" />
<polygon fill="#f1e3c6" fill-opacity="0.501961" points="170,95 201,139 199,85" />
<polygon fill="#7f7867" fill-opacity="0.501961" points="204,108 196,90 201,66" />
<polygon fill="#ecdec2" fill-opacity="0.501961" points="201,139 175,103 199,65" />
<polygon fill="#eadcc1" fill-opacity="0.501961" points="203,149 203,48 271,42" />
<polygon fill="#e8dabf" fill-opacity="0.501961" points="74,85 168,11 87,-15" />
<polygon fill="#000000" fill-opacity="0.501961" points="100,96 124,80 107,75" />
<polygon fill="#f4e7c8" fill-opacity="0.501961" points="187,34 189,42 201,33" />
<polygon fill="#f3e4c8" fill-opacity="0.501961" points="159,45 170,48 173,13" />
<polygon fill="#e8dabf" fill-opacity="0.501961" points="34,159 14,58 130,121" />
<polygon fill="#000000" fill-opacity="0.501961" points="148,95 183,88 127,79" />
<polygon fill="#424234" fill-opacity="0.501961" points="195,42 195,33 201,51" />
<polygon fill="#f3e4c8" fill-opacity="0.501961" points="179,68 201,102 196,41" />
<polygon fill="#000000" fill-opacity="0.501961" points="74,87 71,80 75,75" />
<polygon fill="#000000" fill-opacity="0.501961" points="75,86 91,95 120,87" />
<polygon fill="#e8dabf" fill-opacity="0.501961" points="-15,44 112,-16 182,81" />
<polygon fill="#f5e8c9" fill-opacity="0.501961" points="185,39 182,22 166,17" />
<polygon fill="#eadbc0" fill-opacity="0.501961" points="187,111 37,118 128,89" />
<polygon fill="#f2e3c7" fill-opacity="0.501961" points="194,-5 198,27 149,1" />
<polygon fill="#e8dabf" fill-opacity="0.501961" points="271,26 210,121 197,23" />
<polygon fill="#e8dabf" fill-opacity="0.501961" points="115,27 126,81 171,53" />
<polygon fill="#413f34" fill-opacity="0.501961" points="200,57 202,75 198,65" />
<polygon fill="#000000" fill-opacity="0.501961" points="116,91 104,76 94,96" />
<polygon fill="#000000" fill-opacity="0.501961" points="152,75 141,93 137,77" />
<polygon fill="#eadcc1" fill-opacity="0.501961" points="195,38 149,66 199,65" />
<polygon fill="#000000" fill-opacity="0.501961" points="181,78 182,90 186,82" />
<polygon fill="#000000" fill-opacity="0.501961" points="114,75 116,92 125,80" />
<polygon fill="#e8dabe" fill-opacity="0.501961" points="200,123 182,70 198,65" />
<polygon fill="#e7dabe" fill-opacity="0.501961" points="175,87 129,65 182,54" />
<polygon fill="#000000" fill-opacity="0.501961" points="131,86 184,87 152,96" />
<polygon fill="#e0d4b7" fill-opacity="0.501961" points="74,81 80,63 85,76" />
<polygon fill="#ecdec2" fill-opacity="0.501961" points="83,64 74,83 91,85" />
<polygon fill="#15170e" fill-opacity="0.501961" points="180,45 179,49 172,49" />
<polygon fill="#e8dabf" fill-opacity="0.501961" points="93,83 -16,-16 162,15" />
<polygon fill="#2f2f25" fill-opacity="0.501961" points="158,18 164,16 155,23" />
<polygon fill="#ebddc1" fill-opacity="0.501961" points="199,28 186,27 193,-11" />
<polygon fill="#000000" fill-opacity="0.501961" points="111,83 71,88 85,94" />
<polygon fill="#eee0c3" fill-opacity="0.501961" points="182,42 184,26 156,39" />
<polygon fill="#e7dabe" fill-opacity="0.501961" points="180,83 177,72 159,81" />
<polygon fill="#e9dbbf" fill-opacity="0.501961" points="139,118 162,97 97,96" />
<polygon fill="#f0e1c1" fill-opacity="0.501961" points="130,95 117,110 128,80" />
<polygon fill="#ebddc1" fill-opacity="0.501961" points="166,68 126,78 87,66" />
<polygon fill="#eee0c4" fill-opacity="0.501961" points="169,17 178,20 156,37" />
<polygon fill="#e9dbc0" fill-opacity="0.501961" points="203,31 203,159 271,126" />
<polygon fill="#000000" fill-opacity="0.501961" points="82,91 71,87 70,81" />
<polygon fill="#000000" fill-opacity="0.501961" points="128,87 105,76 95,84" />
<polygon fill="#000000" fill-opacity="0.501961" points="168,90 153,78 131,87" />
<polygon fill="#2e2c24" fill-opacity="0.501961" points="166,16 172,18 179,15" />
<polygon fill="#e9dbc0" fill-opacity="0.501961" points="228,21 147,12 151,-11" />
<polygon fill="#15150f" fill-opacity="0.501961" points="153,39 157,40 160,46" />
<polygon fill="#e9dbbf" fill-opacity="0.501961" points="157,113 111,94 133,89" />
<polygon fill="#e8dabf" fill-opacity="0.501961" points="191,-3 53,88 -16,15" />
<polygon fill="#e8dabf" fill-opacity="0.501961" points="198,56 200,71 154,77" />
<polygon fill="#e8dabf" fill-opacity="0.501961" points="107,97 16,88 103,158" />
<polygon fill="#faecce" fill-opacity="0.501961" points="196,40 188,37 192,32" />
<polygon fill="#eaddc0" fill-opacity="0.501961" points="172,83 163,76 165,85" />
<polygon fill="#e9dbbf" fill-opacity="0.501961" points="172,18 171,48 156,41" />
<polygon fill="#ebddc2" fill-opacity="0.501961" points="177,47 170,18 154,32" />
<polygon fill="#000000" fill-opacity="0.501961" points="201,137 200,149 203,147" />
<polygon fill="#000000" fill-opacity="0.501961" points="109,75 121,80 86,86" />
<polygon fill="#000000" fill-opacity="0.501961" points="146,80 160,95 179,90" />
<polygon fill="#49463a" fill-opacity="0.501961" points="201,77 202,89 198,90" />
<polygon fill="#302e27" fill-opacity="0.501961" points="201,119 204,112 201,101" />
<polygon fill="#e8dabf" fill-opacity="0.501961" points="255,114 206,142 201,51" />
<polygon fill="#e7d9bf" fill-opacity="0.501961" points="185,63 201,85 190,140" />
<polygon fill="#e8dbbf" fill-opacity="0.501961" points="172,52 189,43 200,89" />
<polygon fill="#000000" fill-opacity="0.501961" points="131,86 179,91 141,75" />
<polygon fill="#19170f" fill-opacity="0.501961" points="204,94 201,83 201,90" />
<polygon fill="#e8dabf" fill-opacity="0.501961" points="271,92 203,82 204,159" />
<polygon fill="#000000" fill-opacity="0.501961" points="106,94 120,78 73,90" />
<polygon fill="#292621" fill-opacity="0.501961" points="202,100 201,94 203,98" />
<polygon fill="#e8dabf" fill-opacity="0.501961" points="203,99 263,106 200,-16" />
<polygon fill="#e8d9be" fill-opacity="0.501961" points="11,-16 192,73 92,75" />
<polygon fill="#10120d" fill-opacity="0.501961" points="154,24 156,27 154,26" />
<polygon fill="#3e3d32" fill-opacity="0.501961" points="75,78 80,71 69,79" />
<polygon fill="#eadcc0" fill-opacity="0.501961" points="85,60 93,84 63,62" />
<polygon fill="#e8dabf" fill-opacity="0.501961" points="76,86 152,36 93,-16" />
<polygon fill="#12130e" fill-opacity="0.501961" points="201,60 199,58 199,54" />
<polygon fill="#0b0a07" fill-opacity="0.501961" points="153,31 158,44 153,38" />
<polygon fill="#e8dabf" fill-opacity="0.501961" points="173,18 184,29 165,48" />
<polygon fill="#e8dabf" fill-opacity="0.501961" points="157,49 144,7 132,42" />
<polygon fill="#e8dabf" fill-opacity="0.501961" points="127,83 154,24 102,31" />
<polygon fill="#e8dabf" fill-opacity="0.501961" points="86,115 -16,45 49,49" />
<polygon fill="#030502" fill-opacity="0.501961" points="185,41 185,26 188,30" />
<polygon fill="#434137" fill-opacity="0.501961" points="201,118 203,123 200,129" />
<polygon fill="#e8dabe" fill-opacity="0.501961" points="201,129 199,78 156,111" />
<polygon fill="#000000" fill-opacity="0.501961" points="125,82 110,91 107,78" />
<polygon fill="#e9dbbf" fill-opacity="0.501961" points="203,131 204,66 218,80" />
<polygon fill="#e8dabf" fill-opacity="0.501961" points="97,79 117,36 73,80" />
<polygon fill="#e8dbbe" fill-opacity="0.501961" points="180,82 169,86 173,67" />
<polygon fill="#191b15" fill-opacity="0.501961" points="181,20 183,23 185,20" />
<polygon fill="#eaddc0" fill-opacity="0.501961" points="190,28 173,11 196,22" />
<polygon fill="#e8dabe" fill-opacity="0.501961" points="201,59 271,60 199,30" />
<polygon fill="#e8dabf" fill-opacity="0.501961" points="152,38 84,86 39,-16" />
<polygon fill="#e9dbc0" fill-opacity="0.501961" points="156,33 182,41 185,32" />
<polygon fill="#e7d9be" fill-opacity="0.501961" points="157,99 125,88 62,124" />
<polygon fill="#e8dabf" fill-opacity="0.501961" points="95,98 111,159 2,69" />
<polygon fill="#282621" fill-opacity="0.501961" points="190,29 193,31 185,31" />
<polygon fill="#000000" fill-opacity="0.501961" points="158,20 168,16 162,16" />
<polygon fill="#efe2c2" fill-opacity="0.501961" points="157,41 155,34 159,27" />
<polygon fill="#e9dcc0" fill-opacity="0.501961" points="169,18 157,24 187,31" />
<polygon fill="#000000" fill-opacity="0.501961" points="174,92 183,81 183,87" />
<polygon fill="#423e34" fill-opacity="0.501961" points="199,136 202,134 202,131" />
<polygon fill="#e8dabf" fill-opacity="0.501961" points="148,100 201,150 199,88" />
<polygon fill="#000000" fill-opacity="0.501961" points="124,85 84,93 104,95" />
<polygon fill="#e8dabf" fill-opacity="0.501961" points="189,62 158,81 95,17" />
<polygon fill="#e8dabf" fill-opacity="0.501961" points="0,5 231,-16 123,34" />
<polygon fill="#000000" fill-opacity="0.501961" points="156,80 132,89 141,76" />
<polygon fill="#e8dabf" fill-opacity="0.501961" points="155,35 181,24 182,42" />
<polygon fill="#e8dabf" fill-opacity="0.501961" points="206,33 214,-16 173,13" />
<polygon fill="#000000" fill-opacity="0.501961" points="103,95 125,84 119,78" />
<polygon fill="#0e1009" fill-opacity="0.501961" points="194,33 197,35 193,30" />
<polygon fill="#e7dabe" fill-opacity="0.501961" points="122,121 119,90 177,101" />
<polygon fill="#e8dabf" fill-opacity="0.501961" points="163,19 162,46 182,26" />
<polygon fill="#171a12" fill-opacity="0.501961" points="185,77 179,77 177,74" />
<polygon fill="#e8dabf" fill-opacity="0.501961" points="173,62 189,37 198,95" />
<polygon fill="#e8dabe" fill-opacity="0.501961" points="170,17 179,21 174,48" />
<polygon fill="#e8dabf" fill-opacity="0.501961" points="143,71 176,86 170,52" />
<polygon fill="#000000" fill-opacity="0.501961" points="167,86 166,93 182,89" />
<polygon fill="#e8dabf" fill-opacity="0.501961" points="144,94 40,159 -16,132" />
<polygon fill="#e8dabf" fill-opacity="0.501961" points="159,62 198,55 195,38" />
<polygon fill="#e8dbbf" fill-opacity="0.501961" points="203,110 211,139 202,145" />
<polygon fill="#000000" fill-opacity="0.501961" points="146,95 175,92 142,78" />
<polygon fill="#e8dabe" fill-opacity="0.501961" points="198,58 193,32 175,58" />
<polygon fill="#000000" fill-opacity="0.501961" points="149,76 130,85 135,77" />
<polygon fill="#e8dabf" fill-opacity="0.501961" points="83,53 55,104 16,60" />
<polygon fill="#e8dabf" fill-opacity="0.501961" points="104,98 135,90 156,145" />
<polygon fill="#e8dbbf" fill-opacity="0.501961" points="82,63 129,79 146,66" />
<polygon fill="#000000" fill-opacity="0.501961" points="157,96 149,77 139,91" />
<polygon fill="#eadcc0" fill-opacity="0.501961" points="178,6 188,28 183,-3" />
<polygon fill="#000000" fill-opacity="0.501961" points="114,93 120,80 110,75" />
<polygon fill="#e7dabd" fill-opacity="0.501961" points="91,83 100,78 76,80" />
<polygon fill="#e8dbbf" fill-opacity="0.501961" points="163,46 169,18 156,38" />
<polygon fill="#e8dabf" fill-opacity="0.501961" points="165,18 184,40 176,19" />
<polygon fill="#1d1d17" fill-opacity="0.501961" points="72,76 77,75 76,74" />
<polygon fill="#e7dabf" fill-opacity="0.501961" points="163,50 121,25 74,79" />
<polygon fill="#e8dabf" fill-opacity="0.501961" points="51,73 177,-16 125,74" />
<polygon fill="#020200" fill-opacity="0.501961" points="184,43 180,45 185,40" />
<polygon fill="#e8dabf" fill-opacity="0.501961" points="179,116 110,136 126,86" />
<polygon fill="#e6d9bd" fill-opacity="0.501961" points="184,44 189,34 193,41" />
<polygon fill="#ede1c1" fill-opacity="0.501961" points="183,32 183,26 177,20" />
<polygon fill="#e9dbbf" fill-opacity="0.501961" points="184,73 198,57 200,89" />
<polygon fill="#e8dabf" fill-opacity="0.501961" points="193,100 114,93 200,137" />
<polygon fill="#e6d9bd" fill-opacity="0.501961" points="165,85 160,61 178,76" />
<polygon fill="#e7d9be" fill-opacity="0.501961" points="173,60 186,41 178,73" />
<polygon fill="#000000" fill-opacity="0.501961" points="80,91 87,88 70,86" />
<polygon fill="#000000" fill-opacity="0.501961" points="124,87 124,82 116,88" />
<polygon fill="#e8dabf" fill-opacity="0.501961" points="121,89 87,149 157,101" />
<polygon fill="#e7d9be" fill-opacity="0.501961" points="202,133 242,35 227,159" />
<polygon fill="#4b473d" fill-opacity="0.501961" points="201,117 201,133 204,128" />
<polygon fill="#e8dabf" fill-opacity="0.501961" points="271,15 203,150 203,58" />
<polygon fill="#e8dabf" fill-opacity="0.501961" points="203,87 204,159 269,125" />
<polygon fill="#e8dabf" fill-opacity="0.501961" points="134,47 153,78 179,78" />
<polygon fill="#000000" fill-opacity="0.501961" points="137,87 154,95 180,86" />
<polygon fill="#000000" fill-opacity="0.501961" points="70,78 73,80 73,88" />
<polygon fill="#e8dabf" fill-opacity="0.501961" points="67,92 -16,51 77,45" />
<polygon fill="#1c1b15" fill-opacity="0.501961" points="157,22 152,27 154,29" />
<polygon fill="#e9dbbf" fill-opacity="0.501961" points="153,26 142,42 153,5" />
<polygon fill="#ecdec1" fill-opacity="0.501961" points="159,36 156,27 162,21" />
<polygon fill="#e7dabe" fill-opacity="0.501961" points="134,26 144,39 174,-5" />
<polygon fill="#e8dabf" fill-opacity="0.501961" points="184,16 159,13 179,3" />
<polygon fill="#e8dabf" fill-opacity="0.501961" points="160,82 141,23 180,81" />
<polygon fill="#e5d9bc" fill-opacity="0.501961" points="145,73 147,65 126,79" />
<polygon fill="#e8dabf" fill-opacity="0.501961" points="128,65 75,85 81,63" />
<polygon fill="#e6dabd" fill-opacity="0.501961" points="184,38 184,28 178,21" />
<polygon fill="#e8dabf" fill-opacity="0.501961" points="199,73 187,85 181,54" />
<polygon fill="#e8dabe" fill-opacity="0.501961" points="206,38 182,20 219,28" />
<polygon fill="#000000" fill-opacity="0.501961" points="108,94 121,78 108,76" />
<polygon fill="#000000" fill-opacity="0.501961" points="130,84 130,80 134,85" />
<polygon fill="#000000" fill-opacity="0.501961" points="150,77 132,79 161,84" />
<polygon fill="#000000" fill-opacity="0.501961" points="138,91 142,76 131,80" />
<polygon fill="#020301" fill-opacity="0.501961" points="166,95 166,89 184,85" />
<polygon fill="#e8dabf" fill-opacity="0.501961" points="203,105 205,159 271,62" />
<polygon fill="#e6d9be" fill-opacity="0.501961" points="147,102 140,93 142,99" />
<polygon fill="#e7d9be" fill-opacity="0.501961" points="19,134 89,134 83,94" />
<polygon fill="#000000" fill-opacity="0.501961" points="109,95 111,77 100,95" />
<polygon fill="#eadcc0" fill-opacity="0.501961" points="160,43 182,40 169,48" />
<polygon fill="#e7dabe" fill-opacity="0.501961" points="155,96 197,103 201,126" />
<polygon fill="#e8dbbe" fill-opacity="0.501961" points="175,52 196,45 194,34" />
<polygon fill="#e8dabf" fill-opacity="0.501961" points="167,95 197,133 97,110" />
<polygon fill="#e9dbbf" fill-opacity="0.501961" points="90,84 74,82 91,68" />
<polygon fill="#0e0e0b" fill-opacity="0.501961" points="155,23 154,26 155,25" />
<polygon fill="#e7dabe" fill-opacity="0.501961" points="204,66 197,31 236,77" />
<polygon fill="#e8dabf" fill-opacity="0.501961" points="12,85 94,104 59,80" />
<polygon fill="#000000" fill-opacity="0.501961" points="181,85 183,79 183,87" />
<polygon fill="#e8dabf" fill-opacity="0.501961" points="107,36 63,85 -16,-16" />
<polygon fill="#e7d9be" fill-opacity="0.501961" points="171,48 160,44 171,18" />
<polygon fill="#e8dabf" fill-opacity="0.501961" points="151,22 155,73 60,72" />
<polygon fill="#1d1d16" fill-opacity="0.501961" points="201,107 202,107 201,110" />
<polygon fill="#000000" fill-opacity="0.501961" points="164,48 163,49 165,49" />
<polygon fill="#242019" fill-opacity="0.501961" points="201,136 204,148 200,151" />
<polygon fill="#e8dbbe" fill-opacity="0.501961" points="201,149 220,146 205,126" />
<polygon fill="#e8dabf" fill-opacity="0.501961" points="154,102 197,131 179,92" />
<polygon fill="#000000" fill-opacity="0.501961" points="145,76 138,92 168,88" />
<polygon fill="#34352c" fill-opacity="0.501961" points="177,17 185,26 181,18" />
<polygon fill="#e8dabf" fill-opacity="0.501961" points="200,29 226,-8 160,6" />
<polygon fill="#e7d9be" fill-opacity="0.501961" points="216,102 213,59 202,108" />
<polygon fill="#e7dabe" fill-opacity="0.501961" points="185,35 181,23 168,44" />
<polygon fill="#000000" fill-opacity="0.501961" points="157,95 181,90 136,87" />
<polygon fill="#e8dabf" fill-opacity="0.501961" points="190,24 162,3 197,-12" />
<polygon fill="#000000" fill-opacity="0.501961" points="118,90 93,87 94,95" />
<polygon fill="#484639" fill-opacity="0.501961" points="157,45 167,48 159,48" />
<polygon fill="#e8dabf" fill-opacity="0.501961" points="133,29 164,74 163,50" />
<polygon fill="#433f34" fill-opacity="0.501961" points="202,69 198,65 200,63" />
<polygon fill="#f6e9c9" fill-opacity="0.501961" points="199,67 196,72 198,64" />
<polygon fill="#e8dabf" fill-opacity="0.501961" points="169,48 174,18 157,40" />
<polygon fill="#e7dabe" fill-opacity="0.501961" points="196,43 186,95 199,70" />
<polygon fill="#e8dabf" fill-opacity="0.501961" points="161,49 37,84 75,-16" />
<polygon fill="#e9dbc0" fill-opacity="0.501961" points="169,41 162,47 180,41" />
<polygon fill="#000000" fill-opacity="0.501961" points="74,90 77,88 70,83" />
<polygon fill="#e8dabf" fill-opacity="0.501961" points="182,24 165,47 155,31" />
<polygon fill="#e8dbbf" fill-opacity="0.501961" points="174,20 180,22 176,29" />
<polygon fill="#e7d9be" fill-opacity="0.501961" points="167,48 155,30 174,46" />
<polygon fill="#e8d9bf" fill-opacity="0.501961" points="223,85 201,68 230,46" />
<polygon fill="#e8dabf" fill-opacity="0.501961" points="76,85 90,27 127,67" />
<polygon fill="#e8dabf" fill-opacity="0.501961" points="111,75 160,17 100,50" />
<polygon fill="#e9dbbf" fill-opacity="0.501961" points="136,111 127,82 126,99" />
<polygon fill="#e7d9be" fill-opacity="0.501961" points="34,33 52,65 -16,57" />
<polygon fill="#e6d8bd" fill-opacity="0.501961" points="210,153 216,142 202,121" />
<polygon fill="#e7dabe" fill-opacity="0.501961" points="61,99 100,105 84,94" />
<polygon fill="#e8dabf" fill-opacity="0.501961" points="260,84 262,17 176,13" />
<polygon fill="#000000" fill-opacity="0.501961" points="123,86 123,79 113,76" />
<polygon fill="#e6d9bc" fill-opacity="0.501961" points="155,39 161,37 158,30" />
<polygon fill="#e8dabf" fill-opacity="0.501961" points="200,3 187,28 187,-13" />
<polygon fill="#e8dabf" fill-opacity="0.501961" points="193,92 197,47 175,60" />
<polygon fill="#d9ceb1" fill-opacity="0.501961" points="176,73 180,79 171,73" />
<polygon fill="#000000" fill-opacity="0.501961" points="151,77 168,94 131,86" />
<polygon fill="#e9dbbf" fill-opacity="0.501961" points="163,54 165,84 180,84" />
<polygon fill="#e8dabf" fill-opacity="0.501961" points="111,94 174,99 83,122" />
<polygon fill="#e8dabe" fill-opacity="0.501961" points="193,33 189,38 195,36" />
<polygon fill="#e8dbbd" fill-opacity="0.501961" points="185,31 179,21 182,36" />
<polygon fill="#e7d9be" fill-opacity="0.501961" points="101,72 97,66 98,80" />
<polygon fill="#e8dabf" fill-opacity="0.501961" points="128,62 103,55 129,82" />
<polygon fill="#211f19" fill-opacity="0.501961" points="191,32 189,28 194,31" />
<polygon fill="#e7dabf" fill-opacity="0.501961" points="116,30 91,56 -11,-16" />
<polygon fill="#e8dabf" fill-opacity="0.501961" points="201,113 198,61 175,109" />
<polygon fill="#e8dabf" fill-opacity="0.501961" points="152,27 150,49 104,18" />
<polygon fill="#000000" fill-opacity="0.501961" points="132,79 146,76 162,84" />
<polygon fill="#e8dabf" fill-opacity="0.501961" points="196,25 219,153 271,148" />
<polygon fill="#000000" fill-opacity="0.501961" points="181,86 184,87 182,80" />
<polygon fill="#e8dbbf" fill-opacity="0.501961" points="75,85 75,78 94,81" />
<polygon fill="#e9dbbf" fill-opacity="0.501961" points="158,43 158,25 165,21" />
<polygon fill="#e8d9bf" fill-opacity="0.501961" points="198,136 194,96 166,95" />
<polygon fill="#e8dabf" fill-opacity="0.501961" points="193,61 173,75 192,32" />
<polygon fill="#e7d9be" fill-opacity="0.501961" points="156,38 167,18 178,20" />
<polygon fill="#201f1a" fill-opacity="0.501961" points="195,35 195,36 197,37" />
<polygon fill="#020202" fill-opacity="0.501961" points="157,88 155,96 159,90" />
<polygon fill="#000000" fill-opacity="0.501961" points="181,76 182,79 182,76" />
<polygon fill="#000000" fill-opacity="0.501961" points="173,92 130,82 150,79" />
<polygon fill="#161912" fill-opacity="0.501961" points="170,48 168,49 168,48" />
<polygon fill="#e8dabf" fill-opacity="0.501961" points="155,45 157,80 174,59" />
<polygon fill="#e8dabf" fill-opacity="0.501961" points="183,34 155,28 178,46" />
<polygon fill="#000000" fill-opacity="0.501961" points="124,83 90,94 105,76" />
<polygon fill="#25261f" fill-opacity="0.501961" points="121,89 120,88 120,89" />
<polygon fill="#e8d9bf" fill-opacity="0.501961" points="111,115 167,110 143,94" />
<polygon fill="#e6d9bc" fill-opacity="0.501961" points="195,41 195,50 187,34" />
<polygon fill="#e8dabf" fill-opacity="0.501961" points="43,81 66,102 98,100" />
<polygon fill="#e7d9be" fill-opacity="0.501961" points="177,73 195,36 197,60" />
<polygon fill="#e7dabe" fill-opacity="0.501961" points="180,22 180,27 169,18" />
<polygon fill="#cec5a9" fill-opacity="0.501961" points="201,141 199,139 200,133" />
<polygon fill="#000000" fill-opacity="0.501961" points="88,89 74,86 82,92" />
<polygon fill="#e7dabe" fill-opacity="0.501961" points="178,83 167,65 173,86" />
<polygon fill="#e8dabf" fill-opacity="0.501961" points="200,140 161,123 198,70" />
<polygon fill="#d9cfb0" fill-opacity="0.501961" points="152,100 154,96 152,98" />
<polygon fill="#e8dabf" fill-opacity="0.501961" points="79,102 -5,159 11,0" />
<polygon fill="#000000" fill-opacity="0.501961" points="123,81 116,91 115,77" />
<polygon fill="#d7ceaf" fill-opacity="0.501961" points="79,76 78,72 81,77" />
<polygon fill="#020201" fill-opacity="0.501961" points="138,83 136,91 142,81" />
<polygon fill="#e7d9be" fill-opacity="0.501961" points="35,34 -16,14 -2,-16" />
<polygon fill="#a09d82" fill-opacity="0.501961" points="200,143 213,158 225,147" />
<polygon fill="#000000" fill-opacity="0.501961" points="97,95 85,87 123,86" />
<polygon fill="#e8dabf" fill-opacity="0.501961" points="78,47 105,73 80,85" />
<polygon fill="#e7dabf" fill-opacity="0.501961" points="187,106 199,74 200,102" />
<polygon fill="#e8dabf" fill-opacity="0.501961" points="111,118 128,84 127,142" />
<polygon fill="#2d2b22" fill-opacity="0.501961" points="169,49 164,50 160,46" />
<polygon fill="#060605" fill-opacity="0.501961" points="168,17 173,17 168,15" />
<polygon fill="#e7dabe" fill-opacity="0.501961" points="156,48 190,55 151,58" />
<polygon fill="#e8dabf" fill-opacity="0.501961" points="170,15 136,3 128,-16" />
<polygon fill="#8b8b72" fill-opacity="0.501961" points="70,83 69,82 69,81" />
<polygon fill="#e8dabf" fill-opacity="0.501961" points="163,47 170,36 180,32" />
<polygon fill="#e8dabf" fill-opacity="0.501961" points="175,-16 197,-16 168,15" />
<polygon fill="#d9cdb4" fill-opacity="0.501961" points="165,48 168,48 168,47" />
<polygon fill="#000100" fill-opacity="0.501961" points="183,81 183,79 185,83" />
<polygon fill="#e8dabf" fill-opacity="0.501961" points="118,30 163,50 179,81" />
<polygon fill="#000000" fill-opacity="0.501961" points="181,89 184,82 175,91" />
<polygon fill="#040603" fill-opacity="0.501961" points="201,143 206,155 192,159" />
<polygon fill="#000000" fill-opacity="0.501961" points="135,82 157,95 173,92" />
<polygon fill="#15130f" fill-opacity="0.501961" points="200,133 201,129 202,132" />
<polygon fill="#e8dabf" fill-opacity="0.501961" points="271,116 202,133 239,23" />
<polygon fill="#e8dabf" fill-opacity="0.501961" points="199,67 192,32 176,72" />
<polygon fill="#e9dcbe" fill-opacity="0.501961" points="183,37 181,42 180,39" />
<polygon fill="#000000" fill-opacity="0.501961" points="137,87 143,76 171,90" />
<polygon fill="#e7dabe" fill-opacity="0.501961" points="58,107 71,76 56,95" />
<polygon fill="#e8d9be" fill-opacity="0.501961" points="66,110 71,89 52,107" />
<polygon fill="#e8d9be" fill-opacity="0.501961" points="124,20 120,36 166,57" />
<polygon fill="#000000" fill-opacity="0.501961" points="148,77 141,82 155,96" />
<polygon fill="#e8dabf" fill-opacity="0.501961" points="182,47 154,63 200,66" />
<polygon fill="#e6d9bd" fill-opacity="0.501961" points="84,61 84,69 65,78" />
<polygon fill="#e7d9be" fill-opacity="0.501961" points="186,17 220,19 191,5" />
<polygon fill="#060705" fill-opacity="0.501961" points="148,94 138,90 147,91" />
<polygon fill="#e8dabf" fill-opacity="0.501961" points="66,60 112,59 90,84" />
<polygon fill="#e8dabf" fill-opacity="0.501961" points="182,25 170,18 155,27" />
<polygon fill="#e8dabf" fill-opacity="0.501961" points="117,136 175,94 106,107" />
<polygon fill="#e7d9be" fill-opacity="0.501961" points="184,75 188,86 197,60" />
<polygon fill="#171511" fill-opacity="0.501961" points="201,79 200,76 202,79" />
<polygon fill="#000000" fill-opacity="0.501961" points="133,87 145,76 157,95" />
<polygon fill="#000000" fill-opacity="0.501961" points="74,90 70,83 73,78" />
<polygon fill="#ddd2b5" fill-opacity="0.501961" points="141,97 147,95 138,95" />
<polygon fill="#e8dabf" fill-opacity="0.501961" points="180,83 166,69 170,62" />
<polygon fill="#000000" fill-opacity="0.501961" points="94,84 108,78 111,93" />
<polygon fill="#e8dabf" fill-opacity="0.501961" points="167,65 170,85 179,79" />
<polygon fill="#e8dbbe" fill-opacity="0.501961" points="124,97 133,90 143,96" />
<polygon fill="#e8dabf" fill-opacity="0.501961" points="270,150 203,60 204,142" />
<polygon fill="#020202" fill-opacity="0.501961" points="99,80 93,96 100,88" />
<polygon fill="#000000" fill-opacity="0.501961" points="86,92 79,87 103,88" />
<polygon fill="#d8cbb0" fill-opacity="0.501961" points="177,52 175,50 176,52" />
<polygon fill="#e8dabf" fill-opacity="0.501961" points="152,76 186,57 147,45" />
<polygon fill="#e8dabf" fill-opacity="0.501961" points="93,96 150,97 147,112" />
<polygon fill="#e8dabe" fill-opacity="0.501961" points="189,27 183,-10 163,-10" />
<polygon fill="#e8dabf" fill-opacity="0.501961" points="180,43 156,27 183,26" />
<polygon fill="#e8dabf" fill-opacity="0.501961" points="177,94 200,159 199,87" />
<polygon fill="#e2dab7" fill-opacity="0.501961" points="179,22 181,23 182,25" />
<polygon fill="#e7dabe" fill-opacity="0.501961" points="191,101 183,91 165,98" />
<polygon fill="#e8dabf" fill-opacity="0.501961" points="175,69 181,48 153,64" />
<polygon fill="#000000" fill-opacity="0.501961" points="101,93 101,80 87,94" />
<polygon fill="#e7dabe" fill-opacity="0.501961" points="104,71 130,62 131,78" />
<polygon fill="#e7d9be" fill-opacity="0.501961" points="147,15 182,-16 148,-8" />
<polygon fill="#e7d9be" fill-opacity="0.501961" points="53,159 64,135 44,134" />
<polygon fill="#e7d9be" fill-opacity="0.501961" points="102,132 89,117 90,137" />
<polygon fill="#e8dabe" fill-opacity="0.501961" points="147,16 146,34 155,50" />
<polygon fill="#424036" fill-opacity="0.501961" points="201,57 199,48 198,52" />
<polygon fill="#e7d9be" fill-opacity="0.501961" points="203,72 197,11 214,41" />
<polygon fill="#e8dabe" fill-opacity="0.501961" points="173,8 155,20 175,-4" />
<polygon fill="#000000" fill-opacity="0.501961" points="139,90 140,79 131,84" />
<polygon fill="#e8dabf" fill-opacity="0.501961" points="171,18 163,20 157,36" />
<polygon fill="#e2d5b9" fill-opacity="0.501961" points="197,50 192,54 198,53" />
<polygon fill="#e8dabf" fill-opacity="0.501961" points="197,52 188,35 186,70" />
<polygon fill="#030303" fill-opacity="0.501961" points="101,78 112,79 104,81" />
<polygon fill="#e7d9be" fill-opacity="0.501961" points="82,72 97,80 83,85" />
<polygon fill="#020201" fill-opacity="0.501961" points="76,74 71,83 72,78" />
<polygon fill="#e7d9be" fill-opacity="0.501961" points="67,65 77,74 75,57" />
<polygon fill="#e8dabe" fill-opacity="0.501961" points="74,84 101,77 81,76" />
<polygon fill="#e7dbbd" fill-opacity="0.501961" points="195,49 188,34 195,39" />
<polygon fill="#616050" fill-opacity="0.501961" points="196,41 197,42 199,39" />
<polygon fill="#e8dabd" fill-opacity="0.501961" points="198,37 209,33 201,50" />
<polygon fill="#e2dab9" fill-opacity="0.501961" points="196,46 196,41 194,48" />
<polygon fill="#e8dabf" fill-opacity="0.501961" points="258,96 199,39 258,-12" />
<polygon fill="#e7dabe" fill-opacity="0.501961" points="100,72 79,85 75,78" />
<polygon fill="#000000" fill-opacity="0.501961" points="117,77 114,92 122,80" />
<polygon fill="#e8dabf" fill-opacity="0.501961" points="237,16 199,9 199,39" />
<polygon fill="#cbc6a5" fill-opacity="0.501961" points="147,97 146,98 147,96" />
<polygon fill="#d6cdb2" fill-opacity="0.501961" points="204,85 202,86 202,79" />
<polygon fill="#e7dbbd" fill-opacity="0.501961" points="203,96 208,80 203,76" />
<polygon fill="#dfd2b4" fill-opacity="0.501961" points="181,48 186,47 182,45" />
<polygon fill="#000000" fill-opacity="0.501961" points="144,76 131,85 135,78" />
<polygon fill="#e8dabf" fill-opacity="0.501961" points="169,98 130,96 145,133" />
<polygon fill="#e7dabf" fill-opacity="0.501961" points="162,58 146,75 147,56" />
<polygon fill="#e8dabf" fill-opacity="0.501961" points="193,40 199,72 172,54" />
<polygon fill="#e3d8ba" fill-opacity="0.501961" points="161,78 155,78 166,83" />
<polygon fill="#000000" fill-opacity="0.501961" points="153,89 161,85 147,76" />
<polygon fill="#3b3930" fill-opacity="0.501961" points="201,78 200,84 202,88" />
<polygon fill="#e6d9bd" fill-opacity="0.501961" points="191,91 199,74 200,85" />
<polygon fill="#e3d7bb" fill-opacity="0.501961" points="200,82 199,92 196,83" />
<polygon fill="#e8dabf" fill-opacity="0.501961" points="199,81 178,57 193,101" />
<polygon fill="#e8dabf" fill-opacity="0.501961" points="156,29 177,44 175,19" />
<polygon fill="#e7dabf" fill-opacity="0.501961" points="170,84 164,68 164,83" />
</g>
</svg>