<svg xmlns="http://www.w3.org/2000/svg" version="1.1" width="1024" height="768">
<rect x="0" y="0" width="1024" height="768" fill="#4b5852" />
<g transform="scale(4.000000) translate(0.5 0.5)">
<polygon fill="#adedff" fill-opacity="0.501961" points="99,-16 94,128 176,122" />
<polygon fill="#000000" fill-opacity="0.501961" points="-3,207 0,89 271,188" />
<polygon fill="#d4c8a3" fill-opacity="0.501961" points="271,-16 271,122 136,-9" />
<polygon fill="#000000" fill-opacity="0.501961" points="123,53 205,102 203,4" />
<polygon fill="#f0d7ab" fill-opacity="0.501961" points="93,-16 185,-3 97,59" />
<polygon fill="#027fd2" fill-opacity="0.501961" points="97,146 211,116 62,88" />
<polygon fill="#cfc69d" fill-opacity="0.501961" points="56,95 43,-16 10,36" />
<polygon fill="#000d11" fill-opacity="0.501961" points="96,16 68,125 42,-16" />
<polygon fill="#d3fbff" fill-opacity="0.501961" points="122,59 156,68 136,115" />
<polygon fill="#bebea2" fill-opacity="0.501961" points="271,54 141,0 271,100" />
<polygon fill="#15190c" fill-opacity="0.501961" points="195,31 263,23 180,10" />
<polygon fill="#aba484" fill-opacity="0.501961" points="254,116 197,102 237,24" />
<polygon fill="#241b07" fill-opacity="0.501961" points="32,110 6,-16 -16,72" />
<polygon fill="#101310" fill-opacity="0.501961" points="5,207 271,168 -16,125" />
<polygon fill="#a4a386" fill-opacity="0.501961" points="9,-16 50,25 31,97" />
<polygon fill="#c4af8a" fill-opacity="0.501961" points="128,-16 129,89 97,74" />
<polygon fill="#061921" fill-opacity="0.501961" points="93,39 99,85 46,96" />
<polygon fill="#030806" fill-opacity="0.501961" points="196,38 157,95 148,21" />
<polygon fill="#3e453e" fill-opacity="0.501961" points="108,150 -16,117 43,84" />
<polygon fill="#0e669e" fill-opacity="0.501961" points="51,120 127,82 73,84" />
<polygon fill="#323125" fill-opacity="0.501961" points="269,198 267,148 87,144" />
<polygon fill="#b4b49d" fill-opacity="0.501961" points="77,-13 109,32 245,-6" />
<polygon fill="#0875ba" fill-opacity="0.501961" points="201,121 162,86 173,134" />
<polygon fill="#6b6447" fill-opacity="0.501961" points="210,158 271,99 193,91" />
<polygon fill="#070703" fill-opacity="0.501961" points="198,43 132,35 131,61" />
<polygon fill="#00020c" fill-opacity="0.501961" points="188,97 165,99 188,70" />
<polygon fill="#73b3d1" fill-opacity="0.501961" points="173,88 128,125 78,93" />
<polygon fill="#9c997d" fill-opacity="0.501961" points="44,8 58,91 24,87" />
<polygon fill="#b2b49a" fill-opacity="0.501961" points="256,16 207,18 187,-12" />
<polygon fill="#cbc5a1" fill-opacity="0.501961" points="151,15 187,20 190,35" />
<polygon fill="#55513e" fill-opacity="0.501961" points="245,152 123,157 144,129" />
<polygon fill="#2f2a1c" fill-opacity="0.501961" points="-1,89 68,112 61,88" />
<polygon fill="#a8a891" fill-opacity="0.501961" points="271,25 223,94 197,26" />
<polygon fill="#aeac93" fill-opacity="0.501961" points="165,-16 88,-16 105,81" />
<polygon fill="#000300" fill-opacity="0.501961" points="196,7 198,30 187,37" />
<polygon fill="#0f1112" fill-opacity="0.501961" points="267,207 120,193 260,169" />
<polygon fill="#00518c" fill-opacity="0.501961" points="108,149 146,116 174,120" />
<polygon fill="#494a39" fill-opacity="0.501961" points="264,33 252,18 205,30" />
<polygon fill="#b0e4fa" fill-opacity="0.501961" points="119,92 148,95 154,66" />
<polygon fill="#015c99" fill-opacity="0.501961" points="68,140 94,118 138,136" />
<polygon fill="#4f9abe" fill-opacity="0.501961" points="110,130 156,93 187,112" />
<polygon fill="#0a0f0e" fill-opacity="0.501961" points="-16,133 125,175 6,207" />
<polygon fill="#000100" fill-opacity="0.501961" points="186,18 182,8 192,10" />
<polygon fill="#161e1b" fill-opacity="0.501961" points="209,58 166,24 152,87" />
<polygon fill="#14201d" fill-opacity="0.501961" points="67,87 58,-16 89,7" />
<polygon fill="#e7fbff" fill-opacity="0.501961" points="175,89 169,88 172,81" />
<polygon fill="#abab93" fill-opacity="0.501961" points="206,86 237,29 263,94" />
<polygon fill="#202214" fill-opacity="0.501961" points="140,25 151,22 132,40" />
<polygon fill="#504c3d" fill-opacity="0.501961" points="24,123 88,135 76,113" />
<polygon fill="#274452" fill-opacity="0.501961" points="128,84 92,81 110,88" />
<polygon fill="#6c6a51" fill-opacity="0.501961" points="266,97 259,157 188,95" />
<polygon fill="#223230" fill-opacity="0.501961" points="169,81 158,95 154,53" />
<polygon fill="#005493" fill-opacity="0.501961" points="85,86 92,125 65,107" />
<polygon fill="#035c93" fill-opacity="0.501961" points="178,135 157,118 208,111" />
<polygon fill="#0f1412" fill-opacity="0.501961" points="184,94 133,45 164,22" />
<polygon fill="#12170b" fill-opacity="0.501961" points="203,23 230,21 199,15" />
<polygon fill="#b1ae95" fill-opacity="0.501961" points="193,23 136,-16 152,20" />
<polygon fill="#92937c" fill-opacity="0.501961" points="24,81 27,-16 58,91" />
<polygon fill="#b7b69a" fill-opacity="0.501961" points="219,54 191,36 218,31" />
<polygon fill="#35352b" fill-opacity="0.501961" points="74,144 -16,129 10,58" />
<polygon fill="#232e2b" fill-opacity="0.501961" points="207,54 193,38 209,79" />
<polygon fill="#202422" fill-opacity="0.501961" points="240,197 79,131 133,207" />
<polygon fill="#a9d9ec" fill-opacity="0.501961" points="129,105 156,94 134,68" />
<polygon fill="#abab93" fill-opacity="0.501961" points="92,-5 100,74 154,10" />
<polygon fill="#338ab7" fill-opacity="0.501961" points="108,81 81,90 94,117" />
<polygon fill="#0b0d08" fill-opacity="0.501961" points="94,80 73,67 60,89" />
<polygon fill="#5c5541" fill-opacity="0.501961" points="167,127 137,152 141,132" />
<polygon fill="#cce4eb" fill-opacity="0.501961" points="159,107 159,95 154,106" />
<polygon fill="#494d3f" fill-opacity="0.501961" points="54,52 60,-16 42,-16" />
<polygon fill="#12150c" fill-opacity="0.501961" points="271,28 232,22 256,19" />
<polygon fill="#004e84" fill-opacity="0.501961" points="185,95 174,99 191,120" />
<polygon fill="#919076" fill-opacity="0.501961" points="247,24 205,25 228,32" />
<polygon fill="#b6b59e" fill-opacity="0.501961" points="99,63 127,82 127,38" />
<polygon fill="#003162" fill-opacity="0.501961" points="147,105 150,97 152,103" />
<polygon fill="#004a91" fill-opacity="0.501961" points="88,134 79,146 73,134" />
<polygon fill="#a9c6c9" fill-opacity="0.501961" points="154,65 128,71 154,81" />
<polygon fill="#9b9c85" fill-opacity="0.501961" points="206,17 271,20 225,-6" />
<polygon fill="#e7dfcb" fill-opacity="0.501961" points="150,29 139,35 144,30" />
<polygon fill="#babba1" fill-opacity="0.501961" points="271,35 227,49 210,32" />
<polygon fill="#223235" fill-opacity="0.501961" points="98,83 94,24 71,69" />
<polygon fill="#88714b" fill-opacity="0.501961" points="127,80 96,78 116,86" />
<polygon fill="#303e39" fill-opacity="0.501961" points="151,61 163,100 162,57" />
<polygon fill="#a7c0c7" fill-opacity="0.501961" points="176,83 168,84 164,95" />
<polygon fill="#1e2a27" fill-opacity="0.501961" points="164,38 152,89 167,86" />
<polygon fill="#393c32" fill-opacity="0.501961" points="201,167 236,145 133,157" />
<polygon fill="#b0ae97" fill-opacity="0.501961" points="232,-10 121,32 79,-4" />
<polygon fill="#8a8e78" fill-opacity="0.501961" points="52,-16 11,1 21,49" />
<polygon fill="#0d1716" fill-opacity="0.501961" points="179,57 197,91 172,98" />
<polygon fill="#0d4060" fill-opacity="0.501961" points="200,111 203,126 182,129" />
<polygon fill="#4b98bd" fill-opacity="0.501961" points="185,124 176,104 134,109" />
<polygon fill="#414333" fill-opacity="0.501961" points="-9,25 17,31 26,84" />
<polygon fill="#444436" fill-opacity="0.501961" points="0,117 48,118 74,86" />
<polygon fill="#1a75a9" fill-opacity="0.501961" points="101,119 130,130 116,144" />
<polygon fill="#5aa3c4" fill-opacity="0.501961" points="120,88 90,116 134,127" />
<polygon fill="#0e110e" fill-opacity="0.501961" points="156,21 133,62 193,56" />
<polygon fill="#686753" fill-opacity="0.501961" points="181,103 208,88 271,134" />
<polygon fill="#c2dee5" fill-opacity="0.501961" points="143,85 129,101 139,109" />
<polygon fill="#5b5a42" fill-opacity="0.501961" points="256,130 151,135 271,162" />
<polygon fill="#28302e" fill-opacity="0.501961" points="213,72 185,95 187,33" />
<polygon fill="#ede8dc" fill-opacity="0.501961" points="109,93 107,97 114,98" />
<polygon fill="#1f1e16" fill-opacity="0.501961" points="129,47 129,59 147,47" />
<polygon fill="#1a1e16" fill-opacity="0.501961" points="201,11 188,17 203,30" />
<polygon fill="#84826a" fill-opacity="0.501961" points="216,31 206,23 198,24" />
<polygon fill="#000000" fill-opacity="0.501961" points="142,135 138,139 142,129" />
<polygon fill="#a3ddf4" fill-opacity="0.501961" points="123,85 149,85 118,99" />
<polygon fill="#1a1d1a" fill-opacity="0.501961" points="-16,70 21,70 27,86" />
<polygon fill="#004782" fill-opacity="0.501961" points="132,133 116,145 98,142" />
<polygon fill="#0a68a0" fill-opacity="0.501961" points="196,125 192,109 133,128" />
<polygon fill="#6f6f59" fill-opacity="0.501961" points="217,91 271,95 195,141" />
<polygon fill="#b0af92" fill-opacity="0.501961" points="189,22 190,33 175,29" />
<polygon fill="#0a161a" fill-opacity="0.501961" points="169,90 195,86 168,99" />
<polygon fill="#9c9579" fill-opacity="0.501961" points="108,78 97,48 97,81" />
<polygon fill="#344139" fill-opacity="0.501961" points="66,58 59,89 48,19" />
<polygon fill="#195f85" fill-opacity="0.501961" points="147,66 153,62 141,62" />
<polygon fill="#4a4e44" fill-opacity="0.501961" points="78,113 37,125 85,127" />
<polygon fill="#a6d1dd" fill-opacity="0.501961" points="150,68 152,93 122,57" />
<polygon fill="#3f8ab5" fill-opacity="0.501961" points="121,86 107,88 117,102" />
<polygon fill="#282b20" fill-opacity="0.501961" points="135,32 139,38 141,26" />
<polygon fill="#a5a58f" fill-opacity="0.501961" points="271,97 249,27 239,94" />
<polygon fill="#65634c" fill-opacity="0.501961" points="185,126 197,145 231,131" />
<polygon fill="#1c1a12" fill-opacity="0.501961" points="84,87 85,68 78,88" />
<polygon fill="#979478" fill-opacity="0.501961" points="37,89 23,53 56,87" />
<polygon fill="#232423" fill-opacity="0.501961" points="219,31 222,32 220,21" />
<polygon fill="#aaaa90" fill-opacity="0.501961" points="133,36 120,78 117,19" />
<polygon fill="#1b1f18" fill-opacity="0.501961" points="213,31 217,31 213,25" />
<polygon fill="#4997bf" fill-opacity="0.501961" points="154,98 181,118 167,98" />
<polygon fill="#1e2018" fill-opacity="0.501961" points="239,25 242,20 227,23" />
<polygon fill="#befaff" fill-opacity="0.501961" points="163,89 167,90 166,94" />
<polygon fill="#041524" fill-opacity="0.501961" points="189,129 184,134 186,124" />
<polygon fill="#a9a991" fill-opacity="0.501961" points="212,65 197,30 270,56" />
<polygon fill="#191d1d" fill-opacity="0.501961" points="162,96 169,97 161,93" />
<polygon fill="#adab95" fill-opacity="0.501961" points="172,0 210,-16 221,14" />
<polygon fill="#b3b297" fill-opacity="0.501961" points="212,23 208,35 216,53" />
<polygon fill="#262820" fill-opacity="0.501961" points="10,110 56,91 24,89" />
<polygon fill="#025c96" fill-opacity="0.501961" points="89,83 110,84 69,94" />
<polygon fill="#4a4b39" fill-opacity="0.501961" points="20,49 24,72 -11,67" />
<polygon fill="#005e9f" fill-opacity="0.501961" points="170,132 185,134 179,122" />
<polygon fill="#26271b" fill-opacity="0.501961" points="21,55 -16,39 18,42" />
<polygon fill="#585c50" fill-opacity="0.501961" points="24,92 32,85 6,85" />
<polygon fill="#4b94b8" fill-opacity="0.501961" points="137,119 145,114 145,90" />
<polygon fill="#1e160e" fill-opacity="0.501961" points="156,133 160,127 156,126" />
<polygon fill="#222c2b" fill-opacity="0.501961" points="64,-16 55,9 95,13" />
<polygon fill="#015b92" fill-opacity="0.501961" points="101,137 75,85 68,105" />
<polygon fill="#070b0d" fill-opacity="0.501961" points="232,30 233,33 234,28" />
<polygon fill="#1f221b" fill-opacity="0.501961" points="206,24 212,20 206,32" />
<polygon fill="#d6eae9" fill-opacity="0.501961" points="118,64 118,69 110,68" />
<polygon fill="#a7a58b" fill-opacity="0.501961" points="227,73 211,84 217,24" />
<polygon fill="#393b2e" fill-opacity="0.501961" points="222,144 195,160 271,166" />
<polygon fill="#2c2c1d" fill-opacity="0.501961" points="17,30 2,-9 -16,14" />
<polygon fill="#5497b6" fill-opacity="0.501961" points="90,88 94,109 113,88" />
<polygon fill="#1f2621" fill-opacity="0.501961" points="155,43 167,88 169,50" />
<polygon fill="#3a5358" fill-opacity="0.501961" points="120,70 118,68 121,65" />
<polygon fill="#b2b298" fill-opacity="0.501961" points="244,26 244,36 235,47" />
<polygon fill="#b6b69f" fill-opacity="0.501961" points="225,58 230,25 235,44" />
<polygon fill="#cee7eb" fill-opacity="0.501961" points="149,89 156,89 153,98" />
<polygon fill="#a3a38d" fill-opacity="0.501961" points="231,16 246,-16 201,17" />
<polygon fill="#0b0d0b" fill-opacity="0.501961" points="177,34 176,87 159,22" />
<polygon fill="#151a17" fill-opacity="0.501961" points="246,207 227,169 271,169" />
<polygon fill="#afad92" fill-opacity="0.501961" points="120,17 173,22 193,-6" />
<polygon fill="#656758" fill-opacity="0.501961" points="146,130 176,134 140,142" />
<polygon fill="#171b16" fill-opacity="0.501961" points="189,10 202,12 193,35" />
<polygon fill="#a5a38b" fill-opacity="0.501961" points="153,83 151,73 154,69" />
<polygon fill="#0364a2" fill-opacity="0.501961" points="66,110 54,111 64,115" />
<polygon fill="#151917" fill-opacity="0.501961" points="125,158 11,144 105,207" />
<polygon fill="#1d2d2f" fill-opacity="0.501961" points="161,68 156,97 169,75" />
<polygon fill="#23231b" fill-opacity="0.501961" points="169,25 154,23 143,36" />
<polygon fill="#a09f85" fill-opacity="0.501961" points="241,93 208,80 234,51" />
<polygon fill="#1f211d" fill-opacity="0.501961" points="73,174 100,137 87,137" />
<polygon fill="#c7dbd9" fill-opacity="0.501961" points="131,81 155,68 143,67" />
<polygon fill="#b2b191" fill-opacity="0.501961" points="197,38 199,28 205,49" />
<polygon fill="#121b1b" fill-opacity="0.501961" points="204,88 186,93 164,76" />
<polygon fill="#88c6df" fill-opacity="0.501961" points="139,84 138,68 127,65" />
<polygon fill="#2a251a" fill-opacity="0.501961" points="203,121 201,129 199,116" />
<polygon fill="#adaa8e" fill-opacity="0.501961" points="190,21 176,29 163,12" />
<polygon fill="#c4c1a4" fill-opacity="0.501961" points="224,32 225,23 223,28" />
<polygon fill="#bcba9d" fill-opacity="0.501961" points="200,40 204,27 209,36" />
<polygon fill="#232724" fill-opacity="0.501961" points="197,188 265,169 112,157" />
<polygon fill="#66b2d7" fill-opacity="0.501961" points="137,96 120,92 108,104" />
<polygon fill="#cecaa2" fill-opacity="0.501961" points="260,63 271,8 255,28" />
<polygon fill="#8d8c74" fill-opacity="0.501961" points="33,84 57,91 50,42" />
<polygon fill="#a9a68b" fill-opacity="0.501961" points="190,20 169,18 188,34" />
<polygon fill="#7c7d68" fill-opacity="0.501961" points="271,112 271,95 210,89" />
<polygon fill="#9a9b82" fill-opacity="0.501961" points="47,44 17,30 31,87" />
<polygon fill="#151b15" fill-opacity="0.501961" points="185,8 184,17 199,17" />
<polygon fill="#242f2c" fill-opacity="0.501961" points="204,48 177,43 184,33" />
<polygon fill="#1f2218" fill-opacity="0.501961" points="195,34 203,14 194,25" />
<polygon fill="#3f4339" fill-opacity="0.501961" points="53,133 89,134 46,108" />
<polygon fill="#97d2ea" fill-opacity="0.501961" points="128,71 143,103 128,92" />
<polygon fill="#0b5e94" fill-opacity="0.501961" points="178,116 197,127 198,114" />
<polygon fill="#1b729f" fill-opacity="0.501961" points="77,107 94,101 82,98" />
<polygon fill="#57a0c3" fill-opacity="0.501961" points="146,123 133,104 90,117" />
<polygon fill="#a6a790" fill-opacity="0.501961" points="246,88 251,26 229,82" />
<polygon fill="#293838" fill-opacity="0.501961" points="93,13 93,47 76,-7" />
<polygon fill="#878874" fill-opacity="0.501961" points="255,-16 271,20 240,18" />
<polygon fill="#1f1d1f" fill-opacity="0.501961" points="247,30 245,30 243,34" />
<polygon fill="#2980ae" fill-opacity="0.501961" points="112,136 126,132 109,119" />
<polygon fill="#99c1cd" fill-opacity="0.501961" points="108,89 108,95 103,91" />
<polygon fill="#0669a6" fill-opacity="0.501961" points="152,118 156,131 134,127" />
<polygon fill="#070b10" fill-opacity="0.501961" points="226,32 227,28 228,33" />
<polygon fill="#202419" fill-opacity="0.501961" points="229,19 234,24 214,21" />
<polygon fill="#dbd8c8" fill-opacity="0.501961" points="142,32 145,30 144,33" />
<polygon fill="#bebda0" fill-opacity="0.501961" points="249,34 210,32 226,39" />
<polygon fill="#080e07" fill-opacity="0.501961" points="200,11 197,21 197,8" />
<polygon fill="#002b60" fill-opacity="0.501961" points="75,144 87,137 81,147" />
<polygon fill="#303732" fill-opacity="0.501961" points="193,46 204,91 208,62" />
<polygon fill="#2c86b5" fill-opacity="0.501961" points="166,112 186,123 164,122" />
<polygon fill="#00487a" fill-opacity="0.501961" points="180,105 172,100 186,95" />
<polygon fill="#ada892" fill-opacity="0.501961" points="206,23 201,23 207,27" />
<polygon fill="#505240" fill-opacity="0.501961" points="12,29 -16,35 18,42" />
<polygon fill="#acad96" fill-opacity="0.501961" points="244,63 192,36 235,32" />
<polygon fill="#aeae97" fill-opacity="0.501961" points="123,82 103,73 97,39" />
<polygon fill="#272c1f" fill-opacity="0.501961" points="241,28 240,33 239,27" />
<polygon fill="#9e9f80" fill-opacity="0.501961" points="243,25 233,27 248,30" />
<polygon fill="#696952" fill-opacity="0.501961" points="188,128 208,127 189,138" />
<polygon fill="#b2b29b" fill-opacity="0.501961" points="115,40 130,37 124,75" />
<polygon fill="#acac93" fill-opacity="0.501961" points="149,20 90,-16 99,52" />
<polygon fill="#1b2726" fill-opacity="0.501961" points="66,45 98,79 62,72" />
<polygon fill="#beba9f" fill-opacity="0.501961" points="219,30 216,37 218,23" />
<polygon fill="#6eadc9" fill-opacity="0.501961" points="159,100 164,93 154,101" />
<polygon fill="#004981" fill-opacity="0.501961" points="109,129 82,129 106,142" />
<polygon fill="#474a3f" fill-opacity="0.501961" points="177,149 122,148 139,138" />
<polygon fill="#0c100f" fill-opacity="0.501961" points="58,207 -16,188 -4,140" />
<polygon fill="#191a13" fill-opacity="0.501961" points="135,33 138,41 129,57" />
<polygon fill="#fffdee" fill-opacity="0.501961" points="126,91 121,91 123,87" />
<polygon fill="#045b92" fill-opacity="0.501961" points="121,140 131,128 128,141" />
<polygon fill="#161916" fill-opacity="0.501961" points="189,18 191,12 182,14" />
<polygon fill="#1d201b" fill-opacity="0.501961" points="149,23 166,29 140,27" />
<polygon fill="#616150" fill-opacity="0.501961" points="181,100 212,101 196,113" />
<polygon fill="#1c1f16" fill-opacity="0.501961" points="221,23 191,23 191,13" />
<polygon fill="#272c1e" fill-opacity="0.501961" points="210,31 206,31 209,26" />
<polygon fill="#1f7aae" fill-opacity="0.501961" points="94,119 92,127 116,121" />
<polygon fill="#94c6d6" fill-opacity="0.501961" points="162,87 162,94 168,94" />
<polygon fill="#ecf0e8" fill-opacity="0.501961" points="128,77 131,81 136,76" />
<polygon fill="#4d503f" fill-opacity="0.501961" points="231,138 177,150 271,155" />
<polygon fill="#88c4df" fill-opacity="0.501961" points="135,96 137,102 151,95" />
<polygon fill="#222623" fill-opacity="0.501961" points="119,207 141,167 123,140" />
<polygon fill="#a29c7e" fill-opacity="0.501961" points="238,89 206,80 208,89" />
<polygon fill="#4b4b38" fill-opacity="0.501961" points="-11,12 3,5 14,14" />
<polygon fill="#015e98" fill-opacity="0.501961" points="138,138 129,135 138,123" />
<polygon fill="#d5e5e8" fill-opacity="0.501961" points="157,102 162,106 152,104" />
<polygon fill="#686553" fill-opacity="0.501961" points="169,129 160,127 171,143" />
<polygon fill="#939881" fill-opacity="0.501961" points="44,-16 49,72 32,30" />
<polygon fill="#a9a890" fill-opacity="0.501961" points="110,81 127,66 127,83" />
<polygon fill="#01487a" fill-opacity="0.501961" points="209,116 199,115 199,111" />
<polygon fill="#30332d" fill-opacity="0.501961" points="131,42 139,61 132,60" />
<polygon fill="#146998" fill-opacity="0.501961" points="93,112 73,94 76,85" />
<polygon fill="#42433b" fill-opacity="0.501961" points="48,118 69,89 57,90" />
<polygon fill="#4e98ba" fill-opacity="0.501961" points="166,99 179,115 156,111" />
<polygon fill="#232823" fill-opacity="0.501961" points="75,141 -16,116 30,145" />
<polygon fill="#edf3ec" fill-opacity="0.501961" points="140,85 143,81 145,87" />
<polygon fill="#113b55" fill-opacity="0.501961" points="182,103 190,112 201,115" />
<polygon fill="#00528f" fill-opacity="0.501961" points="118,89 120,87 113,87" />
<polygon fill="#3b3a2d" fill-opacity="0.501961" points="34,97 61,109 67,101" />
<polygon fill="#22302f" fill-opacity="0.501961" points="160,91 154,76 169,80" />
<polygon fill="#3e463f" fill-opacity="0.501961" points="47,18 55,60 57,34" />
<polygon fill="#1d5069" fill-opacity="0.501961" points="151,66 151,62 143,64" />
<polygon fill="#303128" fill-opacity="0.501961" points="64,93 -16,120 11,87" />
<polygon fill="#242826" fill-opacity="0.501961" points="71,155 122,146 91,142" />
<polygon fill="#136ba1" fill-opacity="0.501961" points="58,114 56,111 51,115" />
<polygon fill="#86bed1" fill-opacity="0.501961" points="145,71 133,64 145,66" />
<polygon fill="#0b0f0e" fill-opacity="0.501961" points="142,63 175,35 145,33" />
<polygon fill="#1d2321" fill-opacity="0.501961" points="202,90 188,96 185,51" />
<polygon fill="#636451" fill-opacity="0.501961" points="193,95 241,130 208,88" />
<polygon fill="#bcbca3" fill-opacity="0.501961" points="238,39 234,42 237,26" />
<polygon fill="#b0ae98" fill-opacity="0.501961" points="160,3 66,-13 98,11" />
<polygon fill="#463c2c" fill-opacity="0.501961" points="70,90 68,87 76,89" />
<polygon fill="#868973" fill-opacity="0.501961" points="6,-16 20,30 35,6" />
<polygon fill="#1f251f" fill-opacity="0.501961" points="156,44 153,66 168,53" />
<polygon fill="#a3a17d" fill-opacity="0.501961" points="201,25 204,28 212,24" />
<polygon fill="#000e19" fill-opacity="0.501961" points="132,142 134,139 130,137" />
<polygon fill="#bfd0d1" fill-opacity="0.501961" points="174,87 169,88 168,83" />
<polygon fill="#4990b3" fill-opacity="0.501961" points="82,98 102,94 89,89" />
<polygon fill="#353a33" fill-opacity="0.501961" points="198,52 212,68 210,78" />
<polygon fill="#8dc7de" fill-opacity="0.501961" points="152,71 150,85 142,80" />
<polygon fill="#48493c" fill-opacity="0.501961" points="37,110 85,124 58,125" />
<polygon fill="#0e100d" fill-opacity="0.501961" points="185,61 178,35 168,83" />
<polygon fill="#121415" fill-opacity="0.501961" points="222,28 218,31 219,29" />
<polygon fill="#4d534f" fill-opacity="0.501961" points="136,53 138,52 132,50" />
<polygon fill="#c2d9de" fill-opacity="0.501961" points="117,93 111,93 106,96" />
<polygon fill="#25383e" fill-opacity="0.501961" points="81,62 93,33 98,80" />
<polygon fill="#00548e" fill-opacity="0.501961" points="89,105 93,114 70,112" />
<polygon fill="#a4a38c" fill-opacity="0.501961" points="214,0 190,10 211,-16" />
<polygon fill="#323626" fill-opacity="0.501961" points="240,19 223,19 242,26" />
<polygon fill="#2a3532" fill-opacity="0.501961" points="182,32 210,66 201,45" />
<polygon fill="#63644e" fill-opacity="0.501961" points="271,115 205,144 202,118" />
<polygon fill="#101e22" fill-opacity="0.501961" points="204,89 169,98 174,87" />
<polygon fill="#539dc1" fill-opacity="0.501961" points="166,117 129,112 152,104" />
<polygon fill="#0f202b" fill-opacity="0.501961" points="68,117 66,114 67,108" />
<polygon fill="#1b1f1d" fill-opacity="0.501961" points="128,54 136,54 131,60" />
<polygon fill="#226a91" fill-opacity="0.501961" points="113,100 117,93 114,95" />
<polygon fill="#1e2016" fill-opacity="0.501961" points="-16,11 1,25 13,17" />
<polygon fill="#30322f" fill-opacity="0.501961" points="133,162 119,146 177,158" />
<polygon fill="#bdcfd0" fill-opacity="0.501961" points="174,89 173,83 169,83" />
<polygon fill="#010f16" fill-opacity="0.501961" points="86,137 82,147 91,136" />
<polygon fill="#004d85" fill-opacity="0.501961" points="89,137 104,137 87,124" />
<polygon fill="#242820" fill-opacity="0.501961" points="209,27 194,9 203,14" />
<polygon fill="#939279" fill-opacity="0.501961" points="28,84 24,70 49,56" />
<polygon fill="#5e635b" fill-opacity="0.501961" points="142,35 149,27 152,29" />
<polygon fill="#144a70" fill-opacity="0.501961" points="162,105 162,102 160,106" />
<polygon fill="#539dc0" fill-opacity="0.501961" points="90,104 114,99 126,128" />
<polygon fill="#e6e8e2" fill-opacity="0.501961" points="137,107 140,104 133,107" />
<polygon fill="#004780" fill-opacity="0.501961" points="79,97 64,98 78,105" />
<polygon fill="#a6a68f" fill-opacity="0.501961" points="266,103 264,42 195,38" />
<polygon fill="#181c15" fill-opacity="0.501961" points="204,21 200,10 182,15" />
<polygon fill="#aeb098" fill-opacity="0.501961" points="243,26 247,61 238,53" />
<polygon fill="#d2e4e3" fill-opacity="0.501961" points="118,65 118,69 112,64" />
<polygon fill="#2781b3" fill-opacity="0.501961" points="186,116 178,105 181,115" />
<polygon fill="#d5dcd9" fill-opacity="0.501961" points="141,104 128,102 133,100" />
<polygon fill="#57a1c4" fill-opacity="0.501961" points="129,127 129,96 93,112" />
<polygon fill="#a1a089" fill-opacity="0.501961" points="271,48 271,81 212,74" />
<polygon fill="#26271e" fill-opacity="0.501961" points="-10,81 -16,60 26,86" />
<polygon fill="#bbb992" fill-opacity="0.501961" points="199,24 203,26 205,24" />
<polygon fill="#6c6c56" fill-opacity="0.501961" points="271,125 271,102 191,108" />
<polygon fill="#2a322b" fill-opacity="0.501961" points="55,70 66,77 59,89" />
<polygon fill="#101615" fill-opacity="0.501961" points="89,82 71,72 56,88" />
<polygon fill="#acac93" fill-opacity="0.501961" points="219,24 209,56 218,50" />
<polygon fill="#243740" fill-opacity="0.501961" points="108,85 106,82 116,85" />
<polygon fill="#212f2c" fill-opacity="0.501961" points="162,62 168,88 154,88" />
<polygon fill="#3f4134" fill-opacity="0.501961" points="245,22 245,35 247,29" />
<polygon fill="#1f2320" fill-opacity="0.501961" points="203,115 199,115 201,122" />
<polygon fill="#0d6593" fill-opacity="0.501961" points="76,140 76,134 72,135" />
<polygon fill="#0a5f93" fill-opacity="0.501961" points="102,123 131,142 97,132" />
<polygon fill="#106ca3" fill-opacity="0.501961" points="87,86 100,87 98,90" />
<polygon fill="#a7a58c" fill-opacity="0.501961" points="121,25 131,18 132,46" />
<polygon fill="#356882" fill-opacity="0.501961" points="109,92 111,89 111,93" />
<polygon fill="#50544c" fill-opacity="0.501961" points="60,119 77,114 78,122" />
<polygon fill="#353630" fill-opacity="0.501961" points="83,135 89,131 73,132" />
<polygon fill="#3e4138" fill-opacity="0.501961" points="168,146 195,160 131,150" />
<polygon fill="#93d0e7" fill-opacity="0.501961" points="139,88 120,100 140,68" />
<polygon fill="#065f95" fill-opacity="0.501961" points="192,124 186,109 191,109" />
<polygon fill="#a89d7a" fill-opacity="0.501961" points="154,76 153,67 152,72" />
<polygon fill="#5fa8cb" fill-opacity="0.501961" points="132,104 135,112 117,112" />
<polygon fill="#5d5947" fill-opacity="0.501961" points="110,82 122,84 120,87" />
<polygon fill="#6eb5d6" fill-opacity="0.501961" points="120,98 121,89 113,91" />
<polygon fill="#156fa1" fill-opacity="0.501961" points="80,98 89,88 74,94" />
<polygon fill="#474c3f" fill-opacity="0.501961" points="50,21 41,-14 53,-2" />
<polygon fill="#1a2521" fill-opacity="0.501961" points="56,16 58,-16 77,44" />
<polygon fill="#b9b79b" fill-opacity="0.501961" points="206,38 212,39 211,28" />
<polygon fill="#161a19" fill-opacity="0.501961" points="113,157 117,196 -12,135" />
<polygon fill="#b7b497" fill-opacity="0.501961" points="205,30 198,33 212,38" />
<polygon fill="#a4a484" fill-opacity="0.501961" points="249,26 246,26 243,30" />
<polygon fill="#0c6195" fill-opacity="0.501961" points="198,116 199,127 185,109" />
<polygon fill="#88876f" fill-opacity="0.501961" points="45,65 48,90 57,86" />
<polygon fill="#1e2d2d" fill-opacity="0.501961" points="86,84 88,14 69,33" />
<polygon fill="#4da3d0" fill-opacity="0.501961" points="146,99 150,111 141,101" />
<polygon fill="#2177a9" fill-opacity="0.501961" points="136,126 109,139 112,127" />
<polygon fill="#192122" fill-opacity="0.501961" points="191,59 183,76 187,100" />
<polygon fill="#9f9c82" fill-opacity="0.501961" points="208,79 230,91 234,68" />
<polygon fill="#146b9e" fill-opacity="0.501961" points="92,100 81,99 90,106" />
<polygon fill="#a0def5" fill-opacity="0.501961" points="126,85 148,90 134,91" />
<polygon fill="#65644e" fill-opacity="0.501961" points="202,117 233,110 256,133" />
<polygon fill="#2f3126" fill-opacity="0.501961" points="222,158 252,173 271,164" />
<polygon fill="#1c1f1a" fill-opacity="0.501961" points="189,14 181,13 188,9" />
<polygon fill="#90947e" fill-opacity="0.501961" points="43,-5 50,38 20,29" />
<polygon fill="#3b86b0" fill-opacity="0.501961" points="147,96 159,100 151,100" />
<polygon fill="#32342d" fill-opacity="0.501961" points="90,148 99,139 89,137" />
<polygon fill="#0c1c25" fill-opacity="0.501961" points="178,96 192,89 168,90" />
<polygon fill="#0e1210" fill-opacity="0.501961" points="137,40 170,26 140,63" />
<polygon fill="#212c2b" fill-opacity="0.501961" points="171,95 163,95 169,99" />
<polygon fill="#025f99" fill-opacity="0.501961" points="155,119 174,125 159,127" />
<polygon fill="#2d2f23" fill-opacity="0.501961" points="251,23 233,25 235,19" />
<polygon fill="#170c05" fill-opacity="0.501961" points="180,104 183,104 180,99" />
<polygon fill="#181b17" fill-opacity="0.501961" points="139,39 142,52 130,47" />
<polygon fill="#3b3d32" fill-opacity="0.501961" points="49,129 -3,112 52,98" />
<polygon fill="#0063a1" fill-opacity="0.501961" points="168,102 177,103 182,97" />
<polygon fill="#41453c" fill-opacity="0.501961" points="66,92 60,110 43,110" />
<polygon fill="#425c64" fill-opacity="0.501961" points="136,62 135,59 138,63" />
<polygon fill="#116aa6" fill-opacity="0.501961" points="105,86 116,86 111,88" />
<polygon fill="#434433" fill-opacity="0.501961" points="24,68 19,46 -16,69" />
<polygon fill="#afac90" fill-opacity="0.501961" points="185,24 157,11 178,30" />
<polygon fill="#e1e8e3" fill-opacity="0.501961" points="138,104 131,107 139,106" />
<polygon fill="#d3d9cd" fill-opacity="0.501961" points="128,66 132,64 127,57" />
<polygon fill="#121816" fill-opacity="0.501961" points="169,80 167,53 190,90" />
<polygon fill="#bcbb9f" fill-opacity="0.501961" points="245,34 231,39 216,32" />
<polygon fill="#367ca3" fill-opacity="0.501961" points="143,110 145,100 141,106" />
<polygon fill="#a6a890" fill-opacity="0.501961" points="206,14 234,18 190,-2" />
<polygon fill="#08141d" fill-opacity="0.501961" points="118,146 128,144 124,141" />
<polygon fill="#50a1c9" fill-opacity="0.501961" points="157,113 151,106 152,99" />
<polygon fill="#2a281a" fill-opacity="0.501961" points="9,4 -16,9 5,-16" />
<polygon fill="#7b7d6d" fill-opacity="0.501961" points="28,88 21,86 30,86" />
<polygon fill="#181d1a" fill-opacity="0.501961" points="197,25 190,33 194,34" />
<polygon fill="#a5a582" fill-opacity="0.501961" points="219,25 220,27 212,27" />
<polygon fill="#509abe" fill-opacity="0.501961" points="147,104 143,123 117,126" />
<polygon fill="#2d3f44" fill-opacity="0.501961" points="96,54 90,45 95,66" />
<polygon fill="#deeae7" fill-opacity="0.501961" points="142,78 140,71 145,74" />
<polygon fill="#777869" fill-opacity="0.501961" points="141,32 137,36 143,35" />
<polygon fill="#08588b" fill-opacity="0.501961" points="131,134 117,136 129,141" />
<polygon fill="#72725b" fill-opacity="0.501961" points="225,98 228,88 248,109" />
<polygon fill="#1e7baf" fill-opacity="0.501961" points="157,118 144,117 142,126" />
<polygon fill="#a3a185" fill-opacity="0.501961" points="237,24 234,28 241,27" />
<polygon fill="#b0ae94" fill-opacity="0.501961" points="185,7 136,7 154,21" />
<polygon fill="#aaa88d" fill-opacity="0.501961" points="213,23 211,23 213,26" />
<polygon fill="#636352" fill-opacity="0.501961" points="169,130 159,128 165,142" />
<polygon fill="#6b6d5b" fill-opacity="0.501961" points="197,113 210,102 196,104" />
<polygon fill="#82c0dd" fill-opacity="0.501961" points="135,102 150,94 144,103" />
<polygon fill="#004177" fill-opacity="0.501961" points="120,141 112,143 121,146" />
<polygon fill="#4b96b9" fill-opacity="0.501961" points="178,113 171,104 179,105" />
<polygon fill="#4f9abe" fill-opacity="0.501961" points="108,120 92,115 104,93" />
<polygon fill="#0a0d0b" fill-opacity="0.501961" points="222,22 221,24 224,21" />
<polygon fill="#dae9e6" fill-opacity="0.501961" points="127,87 126,92 121,89" />
<polygon fill="#42443b" fill-opacity="0.501961" points="85,123 80,134 42,119" />
<polygon fill="#b1b29a" fill-opacity="0.501961" points="236,45 229,62 229,27" />
<polygon fill="#fff4e4" fill-opacity="0.501961" points="159,101 158,101 159,103" />
<polygon fill="#939177" fill-opacity="0.501961" points="126,81 115,82 106,77" />
<polygon fill="#1a719f" fill-opacity="0.501961" points="72,106 79,109 90,100" />
<polygon fill="#5da2c1" fill-opacity="0.501961" points="123,121 121,125 114,124" />
<polygon fill="#5cafd9" fill-opacity="0.501961" points="163,101 158,100 167,99" />
<polygon fill="#adab92" fill-opacity="0.501961" points="262,80 271,95 226,87" />
<polygon fill="#535446" fill-opacity="0.501961" points="135,139 140,148 162,137" />
<polygon fill="#1a1c16" fill-opacity="0.501961" points="151,31 175,30 159,22" />
<polygon fill="#0f6196" fill-opacity="0.501961" points="100,82 107,83 92,86" />
<polygon fill="#243130" fill-opacity="0.501961" points="161,64 161,93 154,82" />
<polygon fill="#0a629b" fill-opacity="0.501961" points="136,123 142,128 132,135" />
<polygon fill="#232b29" fill-opacity="0.501961" points="177,32 200,73 197,42" />
<polygon fill="#a8a58b" fill-opacity="0.501961" points="188,24 189,35 177,15" />
<polygon fill="#36453e" fill-opacity="0.501961" points="61,58 55,70 53,38" />
<polygon fill="#111513" fill-opacity="0.501961" points="-2,156 131,201 42,207" />
<polygon fill="#7b7c67" fill-opacity="0.501961" points="12,14 31,-16 12,-13" />
<polygon fill="#a9a98f" fill-opacity="0.501961" points="95,29 96,2 107,40" />
<polygon fill="#5e5f4e" fill-opacity="0.501961" points="182,143 163,133 192,136" />
<polygon fill="#4d869f" fill-opacity="0.501961" points="160,94 156,97 158,93" />
<polygon fill="#111f24" fill-opacity="0.501961" points="144,130 140,137 139,135" />
<polygon fill="#80c1d9" fill-opacity="0.501961" points="158,94 160,101 160,97" />
<polygon fill="#141816" fill-opacity="0.501961" points="268,201 260,174 189,204" />
<polygon fill="#56554d" fill-opacity="0.501961" points="78,124 77,118 81,119" />
<polygon fill="#e8f4ee" fill-opacity="0.501961" points="142,92 138,91 139,95" />
<polygon fill="#4c503d" fill-opacity="0.501961" points="255,30 252,25 252,33" />
<polygon fill="#0b4f76" fill-opacity="0.501961" points="149,99 152,103 151,104" />
<polygon fill="#8d917b" fill-opacity="0.501961" points="18,35 46,15 15,9" />
<polygon fill="#95957b" fill-opacity="0.501961" points="48,84 18,37 32,84" />
<polygon fill="#2b2d20" fill-opacity="0.501961" points="1,52 18,40 -16,40" />
<polygon fill="#4790b5" fill-opacity="0.501961" points="98,94 107,95 88,109" />
<polygon fill="#a0a07f" fill-opacity="0.501961" points="250,26 271,50 271,31" />
<polygon fill="#6d6b54" fill-opacity="0.501961" points="42,89 30,89 26,83" />
<polygon fill="#434636" fill-opacity="0.501961" points="247,161 269,153 216,151" />
<polygon fill="#003c70" fill-opacity="0.501961" points="81,144 75,145 82,137" />
<polygon fill="#266589" fill-opacity="0.501961" points="142,109 142,105 140,110" />
<polygon fill="#529fc5" fill-opacity="0.501961" points="141,110 147,102 152,114" />
<polygon fill="#181d1b" fill-opacity="0.501961" points="80,198 119,175 127,148" />
<polygon fill="#62afd6" fill-opacity="0.501961" points="153,102 150,107 154,106" />
<polygon fill="#1d221e" fill-opacity="0.501961" points="240,179 94,204 170,168" />
<polygon fill="#acaa91" fill-opacity="0.501961" points="140,27 129,24 147,-6" />
<polygon fill="#606250" fill-opacity="0.501961" points="216,91 188,96 194,107" />
<polygon fill="#a7a489" fill-opacity="0.501961" points="199,27 199,37 201,34" />
<polygon fill="#036098" fill-opacity="0.501961" points="170,127 184,126 184,131" />
<polygon fill="#005792" fill-opacity="0.501961" points="77,117 80,109 90,112" />
<polygon fill="#6d6a57" fill-opacity="0.501961" points="201,24 200,26 199,26" />
<polygon fill="#1e3445" fill-opacity="0.501961" points="156,91 163,95 159,90" />
<polygon fill="#2e3734" fill-opacity="0.501961" points="198,69 207,62 204,50" />
<polygon fill="#292b26" fill-opacity="0.501961" points="44,127 70,144 52,147" />
<polygon fill="#36382f" fill-opacity="0.501961" points="-16,79 26,93 -11,100" />
<polygon fill="#00558f" fill-opacity="0.501961" points="85,129 95,135 89,119" />
<polygon fill="#3c362b" fill-opacity="0.501961" points="68,108 67,110 65,109" />
<polygon fill="#404330" fill-opacity="0.501961" points="250,132 251,136 246,130" />
<polygon fill="#529bbe" fill-opacity="0.501961" points="165,106 140,109 178,115" />
<polygon fill="#004674" fill-opacity="0.501961" points="182,93 187,96 184,100" />
<polygon fill="#004d85" fill-opacity="0.501961" points="65,99 72,105 72,90" />
<polygon fill="#001c39" fill-opacity="0.501961" points="64,116 70,112 67,111" />
<polygon fill="#68674f" fill-opacity="0.501961" points="230,133 271,128 252,112" />
<polygon fill="#b3b49d" fill-opacity="0.501961" points="107,65 127,62 127,42" />
<polygon fill="#a9a68a" fill-opacity="0.501961" points="179,11 182,32 188,27" />
<polygon fill="#2f322e" fill-opacity="0.501961" points="123,153 127,143 113,155" />
<polygon fill="#b0b3a0" fill-opacity="0.501961" points="119,80 124,58 128,79" />
<polygon fill="#0c5d90" fill-opacity="0.501961" points="196,118 183,126 190,109" />
<polygon fill="#4e503d" fill-opacity="0.501961" points="209,27 205,28 206,23" />
<polygon fill="#838671" fill-opacity="0.501961" points="10,7 44,-16 24,17" />
<polygon fill="#3e3f39" fill-opacity="0.501961" points="56,93 67,88 75,90" />
<polygon fill="#005895" fill-opacity="0.501961" points="91,122 82,121 86,111" />
<polygon fill="#4d4b41" fill-opacity="0.501961" points="251,35 252,26 254,29" />
<polygon fill="#333721" fill-opacity="0.501961" points="209,18 203,17 203,22" />
<polygon fill="#232622" fill-opacity="0.501961" points="139,31 138,40 132,40" />
<polygon fill="#2e3933" fill-opacity="0.501961" points="52,21 57,-5 61,46" />
<polygon fill="#283b42" fill-opacity="0.501961" points="78,112 76,114 70,112" />
<polygon fill="#515342" fill-opacity="0.501961" points="162,146 216,150 193,139" />
<polygon fill="#aeaf97" fill-opacity="0.501961" points="238,34 239,48 258,34" />
<polygon fill="#1e7bb0" fill-opacity="0.501961" points="186,111 184,114 182,106" />
<polygon fill="#9c9c86" fill-opacity="0.501961" points="239,19 213,1 242,-10" />
<polygon fill="#dfede8" fill-opacity="0.501961" points="110,97 114,98 110,95" />
<polygon fill="#94d1e9" fill-opacity="0.501961" points="150,94 147,85 151,81" />
<polygon fill="#383b30" fill-opacity="0.501961" points="254,30 253,34 251,31" />
<polygon fill="#181c19" fill-opacity="0.501961" points="173,30 165,24 146,27" />
<polygon fill="#9a9c7d" fill-opacity="0.501961" points="251,28 271,25 259,32" />
<polygon fill="#004c84" fill-opacity="0.501961" points="78,109 67,106 71,112" />
<polygon fill="#3f402f" fill-opacity="0.501961" points="10,3 12,12 -3,14" />
<polygon fill="#a6a389" fill-opacity="0.501961" points="181,13 163,22 181,6" />
<polygon fill="#676655" fill-opacity="0.501961" points="146,136 144,130 160,135" />
<polygon fill="#306083" fill-opacity="0.501961" points="155,97 157,101 156,94" />
<polygon fill="#5facd4" fill-opacity="0.501961" points="130,99 121,93 125,92" />
<polygon fill="#94cae0" fill-opacity="0.501961" points="134,75 137,82 143,78" />
<polygon fill="#004477" fill-opacity="0.501961" points="83,142 71,138 83,137" />
<polygon fill="#96c5d2" fill-opacity="0.501961" points="128,68 144,71 135,62" />
<polygon fill="#181b13" fill-opacity="0.501961" points="265,35 254,23 267,6" />
<polygon fill="#6d6c57" fill-opacity="0.501961" points="231,95 196,96 207,89" />
<polygon fill="#101c1f" fill-opacity="0.501961" points="197,87 169,91 172,99" />
<polygon fill="#0a5e91" fill-opacity="0.501961" points="119,140 128,128 134,133" />
<polygon fill="#0f120d" fill-opacity="0.501961" points="160,39 162,32 142,36" />
<polygon fill="#2b3431" fill-opacity="0.501961" points="207,57 196,41 199,86" />
<polygon fill="#695c45" fill-opacity="0.501961" points="94,83 96,84 101,79" />
<polygon fill="#292a24" fill-opacity="0.501961" points="169,52 159,48 164,55" />
<polygon fill="#e4e6d8" fill-opacity="0.501961" points="147,71 147,67 150,70" />
<polygon fill="#282c20" fill-opacity="0.501961" points="227,22 235,18 239,24" />
<polygon fill="#aeaf99" fill-opacity="0.501961" points="111,70 123,9 97,61" />
<polygon fill="#42453c" fill-opacity="0.501961" points="15,111 6,119 33,112" />
<polygon fill="#015f9a" fill-opacity="0.501961" points="153,130 162,118 144,129" />
<polygon fill="#938e73" fill-opacity="0.501961" points="99,78 110,82 116,79" />
<polygon fill="#535845" fill-opacity="0.501961" points="-16,89 -11,82 4,85" />
<polygon fill="#9d9e84" fill-opacity="0.501961" points="29,52 17,28 51,62" />
<polygon fill="#89c8e3" fill-opacity="0.501961" points="154,94 155,99 147,92" />
<polygon fill="#3f8ab3" fill-opacity="0.501961" points="108,83 102,85 103,92" />
<polygon fill="#111612" fill-opacity="0.501961" points="246,24 250,25 249,22" />
<polygon fill="#0867a2" fill-opacity="0.501961" points="95,106 90,114 85,108" />
<polygon fill="#1e495c" fill-opacity="0.501961" points="149,61 139,63 156,65" />
</g>
</svg>