<svg xmlns="http://www.w3.org/2000/svg" version="1.1" width="1024" height="640">
<rect x="0" y="0" width="1024" height="640" fill="#60707f" />
<g transform="scale(4.000000) translate(0.5 0.5)">
<polygon fill="#d5feff" fill-opacity="0.501961" points="-16,69 213,74 236,-6" />
<polygon fill="#221303" fill-opacity="0.501961" points="-16,59 271,152 3,175" />
<polygon fill="#302318" fill-opacity="0.501961" points="98,87 258,172 271,61" />
<polygon fill="#89b9f1" fill-opacity="0.501961" points="271,71 221,-16 -16,3" />
<polygon fill="#2b85cc" fill-opacity="0.501961" points="-13,15 -16,68 178,13" />
<polygon fill="#e4e9ee" fill-opacity="0.501961" points="152,0 33,-16 -16,22" />
<polygon fill="#c08f57" fill-opacity="0.501961" points="129,79 89,165 135,160" />
<polygon fill="#c4d6f0" fill-opacity="0.501961" points="124,26 259,62 76,78" />
<polygon fill="#044d97" fill-opacity="0.501961" points="194,28 235,40 266,-5" />
<polygon fill="#0d151a" fill-opacity="0.501961" points="-15,170 71,162 1,77" />
<polygon fill="#175e98" fill-opacity="0.501961" points="111,28 99,0 182,31" />
<polygon fill="#a5c2e1" fill-opacity="0.501961" points="-16,66 161,77 65,37" />
<polygon fill="#120e01" fill-opacity="0.501961" points="269,99 271,73 181,79" />
<polygon fill="#525351" fill-opacity="0.501961" points="242,175 187,77 46,77" />
<polygon fill="#2e74ad" fill-opacity="0.501961" points="116,35 36,4 7,52" />
<polygon fill="#ffffff" fill-opacity="0.501961" points="162,-16 201,-4 145,12" />
<polygon fill="#051e37" fill-opacity="0.501961" points="124,110 104,165 121,164" />
<polygon fill="#061109" fill-opacity="0.501961" points="83,80 30,95 -16,79" />
<polygon fill="#ffffff" fill-opacity="0.501961" points="205,35 156,39 188,26" />
<polygon fill="#8aadce" fill-opacity="0.501961" points="23,79 139,42 -16,48" />
<polygon fill="#f3fcff" fill-opacity="0.501961" points="13,-3 104,12 85,-16" />
<polygon fill="#252730" fill-opacity="0.501961" points="256,165 271,84 176,174" />
<polygon fill="#5291c6" fill-opacity="0.501961" points="144,41 204,41 181,53" />
<polygon fill="#4f5353" fill-opacity="0.501961" points="117,77 -11,99 109,122" />
<polygon fill="#fdf1f4" fill-opacity="0.501961" points="157,18 192,21 193,9" />
<polygon fill="#1c5c97" fill-opacity="0.501961" points="194,11 160,11 209,-6" />
<polygon fill="#9ab5d6" fill-opacity="0.501961" points="271,-12 219,66 255,58" />
<polygon fill="#d3dbe4" fill-opacity="0.501961" points="27,9 -16,-2 -12,34" />
<polygon fill="#98a0bb" fill-opacity="0.501961" points="232,17 173,29 254,-16" />
<polygon fill="#ca9559" fill-opacity="0.501961" points="104,174 120,104 82,175" />
<polygon fill="#1f609c" fill-opacity="0.501961" points="240,16 188,25 271,33" />
<polygon fill="#417baf" fill-opacity="0.501961" points="161,17 161,42 112,-1" />
<polygon fill="#ffffff" fill-opacity="0.501961" points="110,38 149,33 127,28" />
<polygon fill="#305c89" fill-opacity="0.501961" points="-8,82 46,71 -7,67" />
<polygon fill="#4289c5" fill-opacity="0.501961" points="121,45 146,37 165,46" />
<polygon fill="#4584bc" fill-opacity="0.501961" points="271,42 230,52 201,40" />
<polygon fill="#c3d3e1" fill-opacity="0.501961" points="213,74 171,44 71,62" />
<polygon fill="#656561" fill-opacity="0.501961" points="140,103 221,90 77,74" />
<polygon fill="#3d78aa" fill-opacity="0.501961" points="23,10 134,21 100,43" />
<polygon fill="#b0bbcb" fill-opacity="0.501961" points="66,16 103,10 29,-1" />
<polygon fill="#24261f" fill-opacity="0.501961" points="227,84 178,72 173,86" />
<polygon fill="#d09a5a" fill-opacity="0.501961" points="127,100 125,142 133,117" />
<polygon fill="#acbbc9" fill-opacity="0.501961" points="88,74 33,49 -16,64" />
<polygon fill="#31363b" fill-opacity="0.501961" points="65,98 100,175 -16,103" />
<polygon fill="#dcdadf" fill-opacity="0.501961" points="227,65 205,64 245,48" />
<polygon fill="#dddae5" fill-opacity="0.501961" points="218,0 203,0 207,24" />
<polygon fill="#5b9dce" fill-opacity="0.501961" points="42,59 90,58 24,41" />
<polygon fill="#fff0f0" fill-opacity="0.501961" points="98,24 88,22 91,18" />
<polygon fill="#b7cfea" fill-opacity="0.501961" points="54,53 77,39 118,46" />
<polygon fill="#8d868b" fill-opacity="0.501961" points="186,74 223,75 216,66" />
<polygon fill="#24669b" fill-opacity="0.501961" points="91,17 32,15 -16,46" />
<polygon fill="#222f4a" fill-opacity="0.501961" points="234,74 235,64 271,64" />
<polygon fill="#b8c3d2" fill-opacity="0.501961" points="209,67 168,69 220,32" />
<polygon fill="#246eaf" fill-opacity="0.501961" points="165,24 170,33 181,26" />
<polygon fill="#174d85" fill-opacity="0.501961" points="220,12 216,6 224,5" />
<polygon fill="#01458d" fill-opacity="0.501961" points="247,0 232,6 271,12" />
<polygon fill="#3472a9" fill-opacity="0.501961" points="208,28 203,43 231,22" />
<polygon fill="#2b6ea3" fill-opacity="0.501961" points="145,4 99,32 104,5" />
<polygon fill="#3e4045" fill-opacity="0.501961" points="116,166 245,86 233,175" />
<polygon fill="#7fb3db" fill-opacity="0.501961" points="127,58 58,60 110,37" />
<polygon fill="#0f1519" fill-opacity="0.501961" points="38,170 -16,175 1,113" />
<polygon fill="#0d518d" fill-opacity="0.501961" points="13,6 12,-16 -1,-6" />
<polygon fill="#051100" fill-opacity="0.501961" points="55,86 79,85 69,81" />
<polygon fill="#cfcddb" fill-opacity="0.501961" points="240,32 238,41 271,37" />
<polygon fill="#8a96a9" fill-opacity="0.501961" points="17,3 44,17 57,4" />
<polygon fill="#5e5e5d" fill-opacity="0.501961" points="19,90 95,85 54,101" />
<polygon fill="#d0d7e5" fill-opacity="0.501961" points="147,25 177,11 188,21" />
<polygon fill="#ba8c56" fill-opacity="0.501961" points="106,125 121,112 126,88" />
<polygon fill="#505255" fill-opacity="0.501961" points="233,86 130,84 154,151" />
<polygon fill="#9db0c1" fill-opacity="0.501961" points="6,68 74,73 -9,42" />
<polygon fill="#bbced7" fill-opacity="0.501961" points="152,73 115,55 110,77" />
<polygon fill="#4872a0" fill-opacity="0.501961" points="171,76 161,73 183,71" />
<polygon fill="#dfeeff" fill-opacity="0.501961" points="175,-16 158,9 142,10" />
<polygon fill="#22659f" fill-opacity="0.501961" points="161,18 147,13 169,11" />
<polygon fill="#4175a7" fill-opacity="0.501961" points="190,3 181,-11 177,16" />
<polygon fill="#f1f8fe" fill-opacity="0.501961" points="150,45 146,52 123,50" />
<polygon fill="#4d8fc6" fill-opacity="0.501961" points="117,43 43,40 80,29" />
<polygon fill="#c9d7e0" fill-opacity="0.501961" points="62,72 104,60 36,60" />
<polygon fill="#bbcdde" fill-opacity="0.501961" points="147,4 83,-16 103,3" />
<polygon fill="#030602" fill-opacity="0.501961" points="14,78 33,87 -16,91" />
<polygon fill="#d3d2df" fill-opacity="0.501961" points="221,19 213,10 229,18" />
<polygon fill="#c3cad7" fill-opacity="0.501961" points="144,30 129,41 163,41" />
<polygon fill="#9c8b81" fill-opacity="0.501961" points="253,72 240,71 241,75" />
<polygon fill="#d9e6f4" fill-opacity="0.501961" points="107,10 14,-1 70,-16" />
<polygon fill="#d2d4e2" fill-opacity="0.501961" points="223,4 188,-15 271,-7" />
<polygon fill="#466382" fill-opacity="0.501961" points="48,70 5,74 40,80" />
<polygon fill="#4e92cc" fill-opacity="0.501961" points="195,58 182,43 170,44" />
<polygon fill="#28292e" fill-opacity="0.501961" points="189,175 271,114 251,175" />
<polygon fill="#3b402c" fill-opacity="0.501961" points="111,82 83,78 84,86" />
<polygon fill="#f7f5f8" fill-opacity="0.501961" points="198,38 204,32 182,26" />
<polygon fill="#becfe2" fill-opacity="0.501961" points="94,40 74,48 112,47" />
<polygon fill="#dfe6ef" fill-opacity="0.501961" points="135,27 115,48 109,37" />
<polygon fill="#797367" fill-opacity="0.501961" points="130,94 167,80 120,83" />
<polygon fill="#3e84bf" fill-opacity="0.501961" points="154,48 168,25 159,22" />
<polygon fill="#548ec3" fill-opacity="0.501961" points="225,54 240,33 211,42" />
<polygon fill="#494e50" fill-opacity="0.501961" points="124,91 99,141 50,117" />
<polygon fill="#e1eff9" fill-opacity="0.501961" points="9,12 -9,1 24,9" />
<polygon fill="#90a0b4" fill-opacity="0.501961" points="-16,8 8,21 27,16" />
<polygon fill="#f3eef6" fill-opacity="0.501961" points="217,33 221,35 209,41" />
<polygon fill="#1f5f9c" fill-opacity="0.501961" points="258,37 227,15 255,25" />
<polygon fill="#ffffff" fill-opacity="0.501961" points="182,32 197,29 180,27" />
<polygon fill="#4386b9" fill-opacity="0.501961" points="56,48 -1,48 74,27" />
<polygon fill="#dee4ed" fill-opacity="0.501961" points="164,57 168,44 182,55" />
<polygon fill="#b48754" fill-opacity="0.501961" points="132,107 125,118 129,86" />
<polygon fill="#4a91cd" fill-opacity="0.501961" points="117,53 134,42 120,44" />
<polygon fill="#fffdfe" fill-opacity="0.501961" points="214,47 199,46 209,43" />
<polygon fill="#6488a8" fill-opacity="0.501961" points="63,79 54,71 86,76" />
<polygon fill="#85b2d3" fill-opacity="0.501961" points="155,65 162,55 145,53" />
<polygon fill="#ae8556" fill-opacity="0.501961" points="130,113 132,142 120,160" />
<polygon fill="#ccd2e6" fill-opacity="0.501961" points="249,20 266,19 271,-4" />
<polygon fill="#c6d0de" fill-opacity="0.501961" points="57,15 81,15 77,9" />
<polygon fill="#32373a" fill-opacity="0.501961" points="86,175 101,137 13,127" />
<polygon fill="#a9bbd1" fill-opacity="0.501961" points="180,-16 172,6 242,-16" />
<polygon fill="#3d474f" fill-opacity="0.501961" points="114,132 125,116 125,100" />
<polygon fill="#8999b2" fill-opacity="0.501961" points="227,55 210,48 200,52" />
<polygon fill="#191a13" fill-opacity="0.501961" points="261,75 238,88 215,75" />
<polygon fill="#3a75a7" fill-opacity="0.501961" points="93,17 62,37 84,10" />
<polygon fill="#5e5854" fill-opacity="0.501961" points="238,102 220,101 256,83" />
<polygon fill="#3e485c" fill-opacity="0.501961" points="238,63 238,76 213,70" />
<polygon fill="#3e79ae" fill-opacity="0.501961" points="191,27 202,20 230,33" />
<polygon fill="#ffffff" fill-opacity="0.501961" points="159,39 165,33 175,34" />
<polygon fill="#0a5890" fill-opacity="0.501961" points="-16,54 -13,25 10,28" />
<polygon fill="#2d6ca0" fill-opacity="0.501961" points="117,22 130,1 91,18" />
<polygon fill="#5585b6" fill-opacity="0.501961" points="188,40 208,39 181,49" />
<polygon fill="#498ac1" fill-opacity="0.501961" points="94,34 115,42 107,45" />
<polygon fill="#bcc4d3" fill-opacity="0.501961" points="227,66 182,57 259,52" />
<polygon fill="#2b5c90" fill-opacity="0.501961" points="195,2 199,1 204,13" />
<polygon fill="#f4f7f3" fill-opacity="0.501961" points="138,59 128,65 114,61" />
<polygon fill="#5a89b8" fill-opacity="0.501961" points="151,8 145,1 151,1" />
<polygon fill="#e7f4ff" fill-opacity="0.501961" points="113,-16 145,-10 139,5" />
<polygon fill="#3c71a1" fill-opacity="0.501961" points="62,16 32,13 50,10" />
<polygon fill="#ffffff" fill-opacity="0.501961" points="130,28 121,31 145,36" />
<polygon fill="#bebcca" fill-opacity="0.501961" points="206,38 190,31 167,41" />
<polygon fill="#b2b8cf" fill-opacity="0.501961" points="194,5 186,12 202,6" />
<polygon fill="#fcffff" fill-opacity="0.501961" points="175,11 170,21 163,20" />
<polygon fill="#a6b2c3" fill-opacity="0.501961" points="62,14 27,1 85,6" />
<polygon fill="#5e99cc" fill-opacity="0.501961" points="142,39 120,44 165,47" />
<polygon fill="#b5c3d3" fill-opacity="0.501961" points="37,58 13,56 42,48" />
<polygon fill="#3272a7" fill-opacity="0.501961" points="98,3 135,28 152,17" />
<polygon fill="#c4cbdb" fill-opacity="0.501961" points="207,7 208,23 215,20" />
<polygon fill="#f2ffff" fill-opacity="0.501961" points="31,-10 18,4 14,0" />
<polygon fill="#d7dee8" fill-opacity="0.501961" points="56,51 69,49 57,44" />
<polygon fill="#91aec5" fill-opacity="0.501961" points="-1,-16 11,7 -10,-6" />
<polygon fill="#4a74a2" fill-opacity="0.501961" points="214,5 220,4 219,12" />
<polygon fill="#bac6da" fill-opacity="0.501961" points="99,22 88,22 87,17" />
<polygon fill="#6387a8" fill-opacity="0.501961" points="174,73 152,72 156,77" />
<polygon fill="#1a1911" fill-opacity="0.501961" points="21,92 -16,66 9,96" />
<polygon fill="#3a260e" fill-opacity="0.501961" points="121,175 133,175 129,150" />
<polygon fill="#4b4f51" fill-opacity="0.501961" points="131,91 178,113 134,137" />
<polygon fill="#3a7eb4" fill-opacity="0.501961" points="77,36 115,35 147,11" />
<polygon fill="#283836" fill-opacity="0.501961" points="124,79 117,82 108,78" />
<polygon fill="#3b5876" fill-opacity="0.501961" points="-16,61 2,77 37,79" />
<polygon fill="#b7c1d3" fill-opacity="0.501961" points="218,57 240,49 249,65" />
<polygon fill="#417db1" fill-opacity="0.501961" points="232,44 245,49 257,42" />
<polygon fill="#2b373b" fill-opacity="0.501961" points="146,81 133,77 160,77" />
<polygon fill="#2b2e29" fill-opacity="0.501961" points="198,88 233,79 173,73" />
<polygon fill="#589bd3" fill-opacity="0.501961" points="161,51 164,43 155,38" />
<polygon fill="#6b8aa2" fill-opacity="0.501961" points="91,73 109,77 86,79" />
<polygon fill="#fbfaf0" fill-opacity="0.501961" points="90,61 103,60 100,64" />
<polygon fill="#d2e2f3" fill-opacity="0.501961" points="88,14 87,-4 97,7" />
<polygon fill="#dde2e4" fill-opacity="0.501961" points="192,66 173,67 208,55" />
<polygon fill="#212d43" fill-opacity="0.501961" points="271,74 245,68 267,56" />
<polygon fill="#5290c4" fill-opacity="0.501961" points="65,46 40,44 79,36" />
<polygon fill="#0c4d8c" fill-opacity="0.501961" points="241,6 244,21 271,-5" />
<polygon fill="#a1bcd6" fill-opacity="0.501961" points="165,47 161,53 176,53" />
<polygon fill="#eff8fb" fill-opacity="0.501961" points="165,44 165,51 173,47" />
<polygon fill="#404141" fill-opacity="0.501961" points="119,175 125,110 112,138" />
<polygon fill="#6da5d0" fill-opacity="0.501961" points="95,40 87,58 77,56" />
<polygon fill="#f0f1f1" fill-opacity="0.501961" points="196,46 187,51 195,51" />
<polygon fill="#3b3d41" fill-opacity="0.501961" points="127,134 251,140 197,175" />
<polygon fill="#9e9794" fill-opacity="0.501961" points="215,66 214,75 202,75" />
<polygon fill="#4a4b4d" fill-opacity="0.501961" points="146,129 234,82 190,148" />
<polygon fill="#3570a5" fill-opacity="0.501961" points="205,34 270,27 216,18" />
<polygon fill="#679eca" fill-opacity="0.501961" points="58,50 33,53 66,58" />
<polygon fill="#548bbd" fill-opacity="0.501961" points="152,18 178,32 140,29" />
<polygon fill="#ccd9e9" fill-opacity="0.501961" points="133,36 160,38 143,29" />
<polygon fill="#78a4c7" fill-opacity="0.501961" points="205,60 216,61 198,65" />
<polygon fill="#367db8" fill-opacity="0.501961" points="137,25 163,32 150,33" />
<polygon fill="#296ea6" fill-opacity="0.501961" points="170,7 187,6 158,16" />
<polygon fill="#020800" fill-opacity="0.501961" points="41,90 36,80 33,85" />
<polygon fill="#b8c6dc" fill-opacity="0.501961" points="90,18 89,25 95,19" />
<polygon fill="#6083a4" fill-opacity="0.501961" points="77,74 46,70 40,79" />
<polygon fill="#a9a492" fill-opacity="0.501961" points="132,84 125,82 130,80" />
<polygon fill="#edf8ff" fill-opacity="0.501961" points="149,52 159,49 145,47" />
<polygon fill="#e4ebf8" fill-opacity="0.501961" points="178,25 192,10 183,10" />
<polygon fill="#222426" fill-opacity="0.501961" points="10,129 1,115 50,111" />
<polygon fill="#a6aec0" fill-opacity="0.501961" points="128,35 149,41 122,41" />
<polygon fill="#a1abc0" fill-opacity="0.501961" points="260,63 233,61 271,37" />
<polygon fill="#357ab4" fill-opacity="0.501961" points="179,27 170,26 176,32" />
<polygon fill="#256498" fill-opacity="0.501961" points="175,9 203,2 184,1" />
<polygon fill="#cdd9e5" fill-opacity="0.501961" points="93,-16 116,6 118,-4" />
<polygon fill="#e9f1fc" fill-opacity="0.501961" points="211,10 209,3 204,11" />
<polygon fill="#4c4e52" fill-opacity="0.501961" points="22,92 50,97 -6,104" />
<polygon fill="#8a8fa6" fill-opacity="0.501961" points="243,42 246,35 252,41" />
<polygon fill="#3373a7" fill-opacity="0.501961" points="117,11 88,15 125,30" />
<polygon fill="#a3bdd2" fill-opacity="0.501961" points="45,54 37,69 97,74" />
<polygon fill="#a6b0c8" fill-opacity="0.501961" points="208,14 228,6 228,18" />
<polygon fill="#94a1b3" fill-opacity="0.501961" points="42,2 14,5 45,10" />
<polygon fill="#abbcce" fill-opacity="0.501961" points="121,58 149,52 136,50" />
<polygon fill="#383b3e" fill-opacity="0.501961" points="54,150 13,104 62,93" />
<polygon fill="#a6b4c0" fill-opacity="0.501961" points="0,48 11,57 11,47" />
<polygon fill="#d7e4f3" fill-opacity="0.501961" points="143,8 156,11 148,6" />
<polygon fill="#3871a6" fill-opacity="0.501961" points="222,40 230,11 244,30" />
<polygon fill="#6f6e6c" fill-opacity="0.501961" points="109,83 92,90 74,87" />
<polygon fill="#d3d9e3" fill-opacity="0.501961" points="172,43 188,31 160,40" />
<polygon fill="#e6f3fc" fill-opacity="0.501961" points="61,-16 87,3 62,6" />
<polygon fill="#7e93b1" fill-opacity="0.501961" points="186,1 236,-16 214,1" />
<polygon fill="#5c544c" fill-opacity="0.501961" points="230,86 223,101 183,87" />
<polygon fill="#a2b3cf" fill-opacity="0.501961" points="158,23 145,26 149,22" />
<polygon fill="#000000" fill-opacity="0.501961" points="236,86 241,81 245,87" />
<polygon fill="#ced6e7" fill-opacity="0.501961" points="246,32 240,35 259,37" />
<polygon fill="#000000" fill-opacity="0.501961" points="255,93 250,91 247,94" />
<polygon fill="#1f2919" fill-opacity="0.501961" points="81,84 51,80 35,90" />
<polygon fill="#2f6e9f" fill-opacity="0.501961" points="-14,35 42,11 4,48" />
<polygon fill="#9fb4cb" fill-opacity="0.501961" points="209,67 170,66 188,73" />
<polygon fill="#8fa6bb" fill-opacity="0.501961" points="0,58 8,69 37,56" />
<polygon fill="#a7bdd7" fill-opacity="0.501961" points="173,4 178,7 184,-7" />
<polygon fill="#cdd9e4" fill-opacity="0.501961" points="74,42 85,43 78,53" />
<polygon fill="#a47c50" fill-opacity="0.501961" points="134,157 123,141 127,114" />
<polygon fill="#515356" fill-opacity="0.501961" points="72,89 125,86 110,116" />
<polygon fill="#275d8c" fill-opacity="0.501961" points="11,6 5,-5 11,0" />
<polygon fill="#5a5d60" fill-opacity="0.501961" points="143,102 132,87 174,85" />
<polygon fill="#3373a6" fill-opacity="0.501961" points="85,11 92,29 77,25" />
<polygon fill="#97acc2" fill-opacity="0.501961" points="121,-16 71,-16 133,5" />
<polygon fill="#3d3d34" fill-opacity="0.501961" points="183,73 155,84 195,82" />
<polygon fill="#619dd0" fill-opacity="0.501961" points="186,43 189,57 173,45" />
<polygon fill="#d3dce7" fill-opacity="0.501961" points="215,49 204,44 200,50" />
<polygon fill="#a6b0bb" fill-opacity="0.501961" points="9,19 -16,24 4,26" />
<polygon fill="#8f9ab5" fill-opacity="0.501961" points="183,44 183,37 202,39" />
<polygon fill="#4383a8" fill-opacity="0.501961" points="4,58 -2,53 10,58" />
<polygon fill="#2c3133" fill-opacity="0.501961" points="139,170 150,153 134,147" />
<polygon fill="#1a191b" fill-opacity="0.501961" points="234,135 260,142 261,135" />
<polygon fill="#3a77aa" fill-opacity="0.501961" points="126,15 174,10 149,22" />
<polygon fill="#24251c" fill-opacity="0.501961" points="228,74 212,87 254,75" />
<polygon fill="#1f2613" fill-opacity="0.501961" points="91,85 93,79 97,81" />
<polygon fill="#424143" fill-opacity="0.501961" points="259,92 271,107 204,128" />
<polygon fill="#86a2c6" fill-opacity="0.501961" points="143,8 131,9 137,11" />
<polygon fill="#394457" fill-opacity="0.501961" points="226,75 227,66 215,68" />
<polygon fill="#8dbcdc" fill-opacity="0.501961" points="147,62 173,60 151,55" />
<polygon fill="#e4e6ea" fill-opacity="0.501961" points="112,44 119,46 106,48" />
<polygon fill="#9eadc3" fill-opacity="0.501961" points="78,12 63,9 92,6" />
<polygon fill="#d0d7df" fill-opacity="0.501961" points="209,68 222,55 223,64" />
<polygon fill="#eef6fc" fill-opacity="0.501961" points="180,28 174,34 199,30" />
<polygon fill="#3f433b" fill-opacity="0.501961" points="132,79 135,83 145,77" />
<polygon fill="#5e81a0" fill-opacity="0.501961" points="90,74 65,72 80,78" />
<polygon fill="#889fbb" fill-opacity="0.501961" points="26,7 22,22 34,9" />
<polygon fill="#98877f" fill-opacity="0.501961" points="249,70 244,70 249,73" />
<polygon fill="#3c7eae" fill-opacity="0.501961" points="24,52 41,26 6,45" />
<polygon fill="#b9bfd3" fill-opacity="0.501961" points="180,23 198,11 208,15" />
<polygon fill="#7eb7da" fill-opacity="0.501961" points="175,64 178,60 188,61" />
<polygon fill="#6b83a8" fill-opacity="0.501961" points="239,13 237,2 229,17" />
<polygon fill="#6385a4" fill-opacity="0.501961" points="158,73 169,76 180,71" />
<polygon fill="#6293c3" fill-opacity="0.501961" points="236,40 205,41 233,50" />
<polygon fill="#4973a3" fill-opacity="0.501961" points="222,9 218,7 210,11" />
<polygon fill="#3f3a36" fill-opacity="0.501961" points="244,84 236,76 259,84" />
<polygon fill="#acc2ce" fill-opacity="0.501961" points="63,71 89,63 124,75" />
<polygon fill="#4d76a4" fill-opacity="0.501961" points="198,10 199,8 191,9" />
<polygon fill="#34383a" fill-opacity="0.501961" points="105,165 125,175 116,135" />
<polygon fill="#edf9ff" fill-opacity="0.501961" points="154,8 169,-11 153,-16" />
<polygon fill="#b4cae1" fill-opacity="0.501961" points="86,42 99,41 116,55" />
<polygon fill="#1c100b" fill-opacity="0.501961" points="231,95 229,93 232,88" />
<polygon fill="#dfe8f0" fill-opacity="0.501961" points="134,47 120,51 124,55" />
<polygon fill="#5295ce" fill-opacity="0.501961" points="132,45 123,49 121,44" />
<polygon fill="#3375aa" fill-opacity="0.501961" points="68,15 0,42 87,32" />
<polygon fill="#48473e" fill-opacity="0.501961" points="13,89 -6,97 1,89" />
<polygon fill="#080500" fill-opacity="0.501961" points="15,94 7,96 1,93" />
<polygon fill="#998f7c" fill-opacity="0.501961" points="82,82 88,81 91,83" />
<polygon fill="#201f19" fill-opacity="0.501961" points="204,76 193,87 232,82" />
<polygon fill="#2d6da0" fill-opacity="0.501961" points="128,23 99,3 125,8" />
<polygon fill="#f5fbfc" fill-opacity="0.501961" points="127,28 134,33 133,27" />
<polygon fill="#af8657" fill-opacity="0.501961" points="101,138 123,94 116,129" />
<polygon fill="#e2e8e9" fill-opacity="0.501961" points="83,65 68,60 93,60" />
<polygon fill="#2c343c" fill-opacity="0.501961" points="17,83 18,76 36,84" />
<polygon fill="#f2f0ef" fill-opacity="0.501961" points="204,56 215,58 208,54" />
<polygon fill="#353c39" fill-opacity="0.501961" points="54,84 68,78 80,82" />
<polygon fill="#57585d" fill-opacity="0.501961" points="239,95 255,105 214,97" />
<polygon fill="#cbd3dd" fill-opacity="0.501961" points="35,49 42,50 31,52" />
<polygon fill="#a9c1d2" fill-opacity="0.501961" points="126,75 129,64 87,67" />
<polygon fill="#766d5d" fill-opacity="0.501961" points="192,88 192,84 182,86" />
<polygon fill="#c5cdd4" fill-opacity="0.501961" points="18,63 26,62 12,59" />
<polygon fill="#9bb0cc" fill-opacity="0.501961" points="39,16 46,16 40,12" />
<polygon fill="#3a3d34" fill-opacity="0.501961" points="13,82 14,86 2,82" />
<polygon fill="#718fb4" fill-opacity="0.501961" points="185,24 198,18 211,23" />
<polygon fill="#295f97" fill-opacity="0.501961" points="237,26 249,17 230,13" />
<polygon fill="#cbd7e3" fill-opacity="0.501961" points="95,25 94,21 90,22" />
<polygon fill="#47413e" fill-opacity="0.501961" points="271,96 248,103 223,96" />
<polygon fill="#000000" fill-opacity="0.501961" points="7,89 -16,56 -16,88" />
<polygon fill="#4f5254" fill-opacity="0.501961" points="69,97 53,86 41,104" />
<polygon fill="#4e4f4f" fill-opacity="0.501961" points="114,133 124,125 125,99" />
<polygon fill="#74899d" fill-opacity="0.501961" points="109,78 118,77 103,74" />
<polygon fill="#777168" fill-opacity="0.501961" points="172,86 154,88 150,81" />
<polygon fill="#6ba5ce" fill-opacity="0.501961" points="77,61 58,52 78,52" />
<polygon fill="#a2b2cd" fill-opacity="0.501961" points="215,7 208,2 205,7" />
<polygon fill="#649bcd" fill-opacity="0.501961" points="238,47 219,48 226,55" />
<polygon fill="#f5fafc" fill-opacity="0.501961" points="205,44 200,47 195,46" />
<polygon fill="#74b3d8" fill-opacity="0.501961" points="95,56 113,59 103,60" />
<polygon fill="#455f7c" fill-opacity="0.501961" points="-2,67 47,77 21,79" />
<polygon fill="#c4d3df" fill-opacity="0.501961" points="12,17 -16,-6 12,6" />
<polygon fill="#25272b" fill-opacity="0.501961" points="32,114 12,116 16,175" />
<polygon fill="#2f3236" fill-opacity="0.501961" points="201,175 156,168 258,142" />
<polygon fill="#c7d8ea" fill-opacity="0.501961" points="91,10 106,11 86,-6" />
<polygon fill="#3c7baf" fill-opacity="0.501961" points="130,28 141,10 155,18" />
<polygon fill="#4182b5" fill-opacity="0.501961" points="78,41 96,23 128,27" />
<polygon fill="#fdfaef" fill-opacity="0.501961" points="145,62 140,64 149,63" />
<polygon fill="#90a7c3" fill-opacity="0.501961" points="210,52 208,43 219,56" />
<polygon fill="#79a7d3" fill-opacity="0.501961" points="106,46 93,39 104,39" />
<polygon fill="#5888b7" fill-opacity="0.501961" points="178,27 178,24 187,24" />
<polygon fill="#464649" fill-opacity="0.501961" points="213,137 207,81 199,122" />
<polygon fill="#b8c1d6" fill-opacity="0.501961" points="174,22 163,23 159,18" />
<polygon fill="#2c2f2f" fill-opacity="0.501961" points="136,131 152,137 133,137" />
<polygon fill="#64a1d6" fill-opacity="0.501961" points="143,43 166,44 158,48" />
<polygon fill="#6296c7" fill-opacity="0.501961" points="79,43 90,39 74,37" />
<polygon fill="#708ab0" fill-opacity="0.501961" points="269,-16 264,-4 236,3" />
<polygon fill="#9db0c9" fill-opacity="0.501961" points="169,49 177,53 166,52" />
<polygon fill="#464a4b" fill-opacity="0.501961" points="76,114 112,113 101,140" />
<polygon fill="#cacfd7" fill-opacity="0.501961" points="49,60 45,65 33,64" />
<polygon fill="#e7f3ff" fill-opacity="0.501961" points="27,7 17,10 9,7" />
<polygon fill="#255f94" fill-opacity="0.501961" points="24,25 17,20 7,23" />
<polygon fill="#3d7bb1" fill-opacity="0.501961" points="191,26 212,33 203,21" />
<polygon fill="#f2f7f9" fill-opacity="0.501961" points="71,47 62,47 65,49" />
<polygon fill="#8396a7" fill-opacity="0.501961" points="133,78 124,76 142,74" />
<polygon fill="#3e7db5" fill-opacity="0.501961" points="205,30 210,38 218,26" />
<polygon fill="#19140e" fill-opacity="0.501961" points="245,86 250,94 244,95" />
<polygon fill="#1b2c46" fill-opacity="0.501961" points="249,65 236,69 240,72" />
<polygon fill="#100c00" fill-opacity="0.501961" points="129,158 181,169 126,175" />
<polygon fill="#3f4244" fill-opacity="0.501961" points="29,137 59,101 101,90" />
<polygon fill="#ffffff" fill-opacity="0.501961" points="176,12 173,18 172,14" />
<polygon fill="#6ea3d0" fill-opacity="0.501961" points="92,53 110,48 80,48" />
<polygon fill="#3b413b" fill-opacity="0.501961" points="93,78 102,82 79,82" />
<polygon fill="#b4c7d7" fill-opacity="0.501961" points="177,64 190,72 177,72" />
<polygon fill="#6c6c6b" fill-opacity="0.501961" points="57,90 68,87 78,91" />
<polygon fill="#6a7986" fill-opacity="0.501961" points="145,77 160,77 150,74" />
<polygon fill="#a09387" fill-opacity="0.501961" points="203,68 202,74 216,75" />
<polygon fill="#5390c3" fill-opacity="0.501961" points="48,54 59,43 37,40" />
<polygon fill="#495467" fill-opacity="0.501961" points="227,71 214,68 236,66" />
<polygon fill="#9ba4b4" fill-opacity="0.501961" points="26,8 36,1 48,11" />
<polygon fill="#4e93c8" fill-opacity="0.501961" points="197,42 189,48 179,44" />
<polygon fill="#a4bdd5" fill-opacity="0.501961" points="201,50 174,60 197,61" />
<polygon fill="#faffff" fill-opacity="0.501961" points="140,47 149,47 140,52" />
<polygon fill="#ffffff" fill-opacity="0.501961" points="167,45 162,48 168,47" />
<polygon fill="#b48a5e" fill-opacity="0.501961" points="108,150 98,152 111,122" />
<polygon fill="#d0dbe8" fill-opacity="0.501961" points="66,14 68,10 76,13" />
<polygon fill="#4083ba" fill-opacity="0.501961" points="161,24 167,29 157,40" />
<polygon fill="#7c94b2" fill-opacity="0.501961" points="12,28 17,28 14,24" />
<polygon fill="#141205" fill-opacity="0.501961" points="175,83 178,80 179,84" />
<polygon fill="#a47d53" fill-opacity="0.501961" points="121,149 127,152 126,133" />
<polygon fill="#f3f4f2" fill-opacity="0.501961" points="139,54 136,56 144,56" />
<polygon fill="#000000" fill-opacity="0.501961" points="271,68 271,86 252,88" />
<polygon fill="#212328" fill-opacity="0.501961" points="241,175 271,137 237,155" />
<polygon fill="#5b5c5d" fill-opacity="0.501961" points="58,93 43,96 41,87" />
<polygon fill="#f0f6fb" fill-opacity="0.501961" points="160,49 157,53 151,49" />
<polygon fill="#515456" fill-opacity="0.501961" points="192,112 130,87 149,120" />
<polygon fill="#636668" fill-opacity="0.501961" points="101,83 131,83 109,93" />
<polygon fill="#b7c2d4" fill-opacity="0.501961" points="236,50 251,64 217,61" />
<polygon fill="#3f454a" fill-opacity="0.501961" points="198,73 181,76 191,81" />
<polygon fill="#31679a" fill-opacity="0.501961" points="42,12 33,11 27,20" />
<polygon fill="#aab0c4" fill-opacity="0.501961" points="183,24 167,25 175,21" />
<polygon fill="#d7e2e9" fill-opacity="0.501961" points="165,60 179,63 167,64" />
<polygon fill="#353326" fill-opacity="0.501961" points="183,90 178,80 194,76" />
<polygon fill="#424548" fill-opacity="0.501961" points="151,154 164,122 210,139" />
<polygon fill="#6391bb" fill-opacity="0.501961" points="141,3 154,5 144,0" />
<polygon fill="#a4acc3" fill-opacity="0.501961" points="250,24 271,13 271,-6" />
<polygon fill="#000300" fill-opacity="0.501961" points="3,86 22,88 15,84" />
<polygon fill="#6684a2" fill-opacity="0.501961" points="156,77 168,71 179,73" />
<polygon fill="#6b7f95" fill-opacity="0.501961" points="54,78 87,78 71,72" />
<polygon fill="#7aa2c4" fill-opacity="0.501961" points="24,61 37,60 23,56" />
<polygon fill="#8da2c3" fill-opacity="0.501961" points="228,44 236,41 223,41" />
<polygon fill="#14191b" fill-opacity="0.501961" points="12,120 5,173 -16,122" />
<polygon fill="#4e5052" fill-opacity="0.501961" points="63,120 88,88 114,86" />
<polygon fill="#111619" fill-opacity="0.501961" points="137,115 137,110 136,113" />
<polygon fill="#32689b" fill-opacity="0.501961" points="196,3 197,6 206,-1" />
<polygon fill="#4380b7" fill-opacity="0.501961" points="221,41 238,38 225,29" />
<polygon fill="#7896ba" fill-opacity="0.501961" points="127,11 130,13 128,7" />
<polygon fill="#afc4d3" fill-opacity="0.501961" points="133,66 131,75 165,67" />
<polygon fill="#90a4c2" fill-opacity="0.501961" points="237,57 268,59 249,50" />
<polygon fill="#554d49" fill-opacity="0.501961" points="252,90 248,88 255,81" />
<polygon fill="#3e5f82" fill-opacity="0.501961" points="38,71 -4,69 11,77" />
<polygon fill="#76abd1" fill-opacity="0.501961" points="63,61 41,57 80,53" />
<polygon fill="#2c3034" fill-opacity="0.501961" points="62,139 77,175 17,134" />
<polygon fill="#b4ccde" fill-opacity="0.501961" points="91,56 99,53 100,57" />
<polygon fill="#3872a7" fill-opacity="0.501961" points="226,32 241,32 212,15" />
<polygon fill="#6fa7d4" fill-opacity="0.501961" points="122,56 109,48 118,48" />
<polygon fill="#f1f7fd" fill-opacity="0.501961" points="168,37 173,32 177,37" />
<polygon fill="#e2ecf8" fill-opacity="0.501961" points="185,34 186,26 205,33" />
<polygon fill="#7d98ae" fill-opacity="0.501961" points="8,67 17,63 2,64" />
<polygon fill="#b7c0c6" fill-opacity="0.501961" points="6,58 -2,65 16,60" />
<polygon fill="#d5d7e2" fill-opacity="0.501961" points="220,34 215,38 221,36" />
<polygon fill="#9fadc1" fill-opacity="0.501961" points="18,12 -2,16 24,19" />
<polygon fill="#558dc0" fill-opacity="0.501961" points="240,42 219,44 254,51" />
<polygon fill="#aac2db" fill-opacity="0.501961" points="144,4 149,13 146,13" />
<polygon fill="#deeaf4" fill-opacity="0.501961" points="44,4 56,-2 35,-12" />
<polygon fill="#4f5360" fill-opacity="0.501961" points="232,76 232,65 229,72" />
<polygon fill="#d1d7e1" fill-opacity="0.501961" points="224,55 216,60 210,55" />
<polygon fill="#9bb8d1" fill-opacity="0.501961" points="101,66 83,69 81,63" />
<polygon fill="#4579ae" fill-opacity="0.501961" points="178,10 176,15 180,14" />
<polygon fill="#cfdcec" fill-opacity="0.501961" points="204,37 190,37 190,29" />
<polygon fill="#191a19" fill-opacity="0.501961" points="115,139 122,136 113,137" />
<polygon fill="#080900" fill-opacity="0.501961" points="233,82 228,80 227,84" />
<polygon fill="#777167" fill-opacity="0.501961" points="271,62 271,75 253,74" />
<polygon fill="#1e5e96" fill-opacity="0.501961" points="188,2 192,5 186,9" />
</g>
</svg>