<svg xmlns="http://www.w3.org/2000/svg" version="1.1" width="1024" height="640">
<rect x="0" y="0" width="1024" height="640" fill="#7f7c76" />
<g transform="scale(4.000000) translate(0.5 0.5)">
<polygon fill="#301904" fill-opacity="0.501961" points="271,162 185,57 -16,154" />
<polygon fill="#dee5e3" fill-opacity="0.501961" points="144,-16 -16,135 271,18" />
<polygon fill="#d7f9ff" fill-opacity="0.501961" points="60,101 -1,71 -16,116" />
<polygon fill="#b8c0c3" fill-opacity="0.501961" points="-16,37 235,91 27,-16" />
<polygon fill="#0b0b08" fill-opacity="0.501961" points="46,114 157,79 271,111" />
<polygon fill="#37404b" fill-opacity="0.501961" points="17,74 79,89 79,53" />
<polygon fill="#f5f1e5" fill-opacity="0.501961" points="193,18 92,43 99,85" />
<polygon fill="#8f6235" fill-opacity="0.501961" points="109,120 270,112 271,169" />
<polygon fill="#5c5f62" fill-opacity="0.501961" points="135,69 261,52 258,114" />
<polygon fill="#949c9f" fill-opacity="0.501961" points="-1,-16 269,-4 -16,63" />
<polygon fill="#4e586b" fill-opacity="0.501961" points="129,127 -6,159 204,175" />
<polygon fill="#929085" fill-opacity="0.501961" points="200,91 144,66 271,2" />
<polygon fill="#492d15" fill-opacity="0.501961" points="-16,175 110,126 -16,132" />
<polygon fill="#b9d1e2" fill-opacity="0.501961" points="-16,76 27,126 60,110" />
<polygon fill="#3d332c" fill-opacity="0.501961" points="143,112 269,121 239,91" />
<polygon fill="#010401" fill-opacity="0.501961" points="144,108 194,100 147,78" />
<polygon fill="#5d656b" fill-opacity="0.501961" points="32,86 90,79 35,40" />
<polygon fill="#ada99e" fill-opacity="0.501961" points="231,45 101,89 255,-16" />
<polygon fill="#8e8f8a" fill-opacity="0.501961" points="48,-3 69,44 207,-16" />
<polygon fill="#747474" fill-opacity="0.501961" points="119,124 126,175 58,172" />
<polygon fill="#8094a8" fill-opacity="0.501961" points="-16,95 49,122 -8,133" />
<polygon fill="#939fa6" fill-opacity="0.501961" points="-2,63 63,90 -16,90" />
<polygon fill="#ac793e" fill-opacity="0.501961" points="176,127 260,129 216,115" />
<polygon fill="#cac8bc" fill-opacity="0.501961" points="223,23 124,70 145,13" />
<polygon fill="#7e8387" fill-opacity="0.501961" points="271,-6 227,10 239,55" />
<polygon fill="#4c3d2a" fill-opacity="0.501961" points="49,119 115,89 154,120" />
<polygon fill="#323948" fill-opacity="0.501961" points="-14,155 106,128 55,175" />
<polygon fill="#dff1f6" fill-opacity="0.501961" points="44,105 26,89 -16,103" />
<polygon fill="#8a8f94" fill-opacity="0.501961" points="84,54 89,80 30,38" />
<polygon fill="#635244" fill-opacity="0.501961" points="256,128 137,137 256,175" />
<polygon fill="#815223" fill-opacity="0.501961" points="67,131 -16,152 5,130" />
<polygon fill="#f2f3ec" fill-opacity="0.501961" points="136,54 89,83 124,39" />
<polygon fill="#a4a196" fill-opacity="0.501961" points="47,109 83,79 150,77" />
<polygon fill="#9baab2" fill-opacity="0.501961" points="54,21 -16,-13 -5,56" />
<polygon fill="#6a6c6b" fill-opacity="0.501961" points="263,47 137,72 271,104" />
<polygon fill="#b3d7d7" fill-opacity="0.501961" points="243,172 271,148 242,161" />
<polygon fill="#704c27" fill-opacity="0.501961" points="139,121 111,107 49,137" />
<polygon fill="#5b6368" fill-opacity="0.501961" points="12,71 62,48 63,88" />
<polygon fill="#8c6138" fill-opacity="0.501961" points="175,151 128,124 184,118" />
<polygon fill="#adadac" fill-opacity="0.501961" points="215,43 153,11 243,-8" />
<polygon fill="#abbac3" fill-opacity="0.501961" points="31,86 85,87 51,106" />
<polygon fill="#845323" fill-opacity="0.501961" points="271,152 264,114 227,116" />
<polygon fill="#838f96" fill-opacity="0.501961" points="-11,68 63,48 -13,31" />
<polygon fill="#8e8979" fill-opacity="0.501961" points="206,52 200,79 147,66" />
<polygon fill="#c9c7c0" fill-opacity="0.501961" points="132,22 175,22 95,46" />
<polygon fill="#776b55" fill-opacity="0.501961" points="134,88 104,94 153,69" />
<polygon fill="#79868e" fill-opacity="0.501961" points="47,127 4,131 -13,115" />
<polygon fill="#424544" fill-opacity="0.501961" points="42,129 60,107 93,98" />
<polygon fill="#616265" fill-opacity="0.501961" points="264,86 256,5 237,82" />
<polygon fill="#a2a198" fill-opacity="0.501961" points="88,5 99,34 201,1" />
<polygon fill="#af814b" fill-opacity="0.501961" points="208,122 161,121 185,128" />
<polygon fill="#a9adb0" fill-opacity="0.501961" points="102,40 77,69 67,39" />
<polygon fill="#7f8387" fill-opacity="0.501961" points="70,35 86,17 50,-16" />
<polygon fill="#d1cabb" fill-opacity="0.501961" points="165,38 130,75 80,86" />
<polygon fill="#a1b1bc" fill-opacity="0.501961" points="-16,119 -16,91 51,119" />
<polygon fill="#444040" fill-opacity="0.501961" points="267,111 271,89 204,118" />
<polygon fill="#4e453c" fill-opacity="0.501961" points="264,125 270,147 209,175" />
<polygon fill="#4f5154" fill-opacity="0.501961" points="47,81 50,62 73,80" />
<polygon fill="#302518" fill-opacity="0.501961" points="79,136 35,137 36,149" />
<polygon fill="#676668" fill-opacity="0.501961" points="156,163 142,172 124,123" />
<polygon fill="#545055" fill-opacity="0.501961" points="4,166 96,133 65,175" />
<polygon fill="#838d91" fill-opacity="0.501961" points="77,95 59,99 49,117" />
<polygon fill="#c2c7c9" fill-opacity="0.501961" points="88,43 95,86 103,57" />
<polygon fill="#8c9599" fill-opacity="0.501961" points="-12,45 -16,73 36,87" />
<polygon fill="#3d392e" fill-opacity="0.501961" points="177,85 143,77 159,74" />
<polygon fill="#272b2f" fill-opacity="0.501961" points="174,92 207,109 220,93" />
<polygon fill="#838786" fill-opacity="0.501961" points="271,13 239,-16 246,47" />
<polygon fill="#282b2a" fill-opacity="0.501961" points="61,111 61,121 91,104" />
<polygon fill="#4f565f" fill-opacity="0.501961" points="15,148 -16,165 -16,147" />
<polygon fill="#7c8082" fill-opacity="0.501961" points="43,46 82,84 75,54" />
<polygon fill="#604a38" fill-opacity="0.501961" points="156,127 215,131 193,146" />
<polygon fill="#767b80" fill-opacity="0.501961" points="258,92 189,87 192,69" />
<polygon fill="#b0a28c" fill-opacity="0.501961" points="135,80 104,86 158,56" />
<polygon fill="#69757c" fill-opacity="0.501961" points="41,53 5,63 26,79" />
<polygon fill="#979b9a" fill-opacity="0.501961" points="257,-16 218,-16 231,48" />
<polygon fill="#4a4c4d" fill-opacity="0.501961" points="178,87 198,97 225,93" />
<polygon fill="#3a3023" fill-opacity="0.501961" points="81,118 110,96 103,124" />
<polygon fill="#bcb7aa" fill-opacity="0.501961" points="207,37 145,64 146,44" />
<polygon fill="#979b94" fill-opacity="0.501961" points="101,147 76,175 87,175" />
<polygon fill="#926d48" fill-opacity="0.501961" points="187,145 185,152 170,149" />
<polygon fill="#cee2eb" fill-opacity="0.501961" points="5,103 60,95 16,89" />
<polygon fill="#704c24" fill-opacity="0.501961" points="111,125 34,140 72,120" />
<polygon fill="#5c4431" fill-opacity="0.501961" points="201,114 161,108 147,121" />
<polygon fill="#6e6556" fill-opacity="0.501961" points="55,116 52,128 37,129" />
<polygon fill="#13130e" fill-opacity="0.501961" points="201,105 135,89 162,81" />
<polygon fill="#504d50" fill-opacity="0.501961" points="143,175 172,155 93,159" />
<polygon fill="#a1acad" fill-opacity="0.501961" points="46,96 73,86 15,82" />
<polygon fill="#3d3c42" fill-opacity="0.501961" points="73,145 112,128 102,141" />
<polygon fill="#756c5b" fill-opacity="0.501961" points="107,97 126,83 88,97" />
<polygon fill="#e4e5dd" fill-opacity="0.501961" points="116,71 110,46 153,28" />
<polygon fill="#765e48" fill-opacity="0.501961" points="252,149 200,155 204,140" />
<polygon fill="#a7aab0" fill-opacity="0.501961" points="42,8 13,14 42,38" />
<polygon fill="#939390" fill-opacity="0.501961" points="93,-16 169,-7 68,40" />
<polygon fill="#382f1e" fill-opacity="0.501961" points="150,115 138,86 96,102" />
<polygon fill="#4e515b" fill-opacity="0.501961" points="251,95 271,117 209,92" />
<polygon fill="#614525" fill-opacity="0.501961" points="148,130 164,148 130,127" />
<polygon fill="#838682" fill-opacity="0.501961" points="87,91 63,104 80,104" />
<polygon fill="#93938b" fill-opacity="0.501961" points="196,45 166,69 242,42" />
<polygon fill="#272624" fill-opacity="0.501961" points="235,106 170,107 183,90" />
<polygon fill="#7c7c78" fill-opacity="0.501961" points="120,148 109,154 112,140" />
<polygon fill="#87949e" fill-opacity="0.501961" points="65,3 -16,7 43,-16" />
<polygon fill="#444447" fill-opacity="0.501961" points="242,159 166,151 206,173" />
<polygon fill="#afc3ce" fill-opacity="0.501961" points="42,115 39,88 63,95" />
<polygon fill="#9aa9b1" fill-opacity="0.501961" points="45,122 6,115 54,108" />
<polygon fill="#392812" fill-opacity="0.501961" points="59,141 67,132 91,132" />
<polygon fill="#a8b6bd" fill-opacity="0.501961" points="-10,92 15,82 32,90" />
<polygon fill="#656664" fill-opacity="0.501961" points="188,66 271,54 256,76" />
<polygon fill="#878b88" fill-opacity="0.501961" points="44,79 67,87 43,87" />
<polygon fill="#6b6966" fill-opacity="0.501961" points="175,167 154,144 203,173" />
<polygon fill="#a47f4f" fill-opacity="0.501961" points="218,127 207,121 239,121" />
<polygon fill="#575658" fill-opacity="0.501961" points="115,131 82,175 99,175" />
<polygon fill="#322619" fill-opacity="0.501961" points="141,107 156,116 171,104" />
<polygon fill="#976f42" fill-opacity="0.501961" points="177,117 223,122 177,130" />
<polygon fill="#746e63" fill-opacity="0.501961" points="155,73 199,90 178,70" />
<polygon fill="#b1b0a7" fill-opacity="0.501961" points="133,14 96,39 160,17" />
<polygon fill="#575a5e" fill-opacity="0.501961" points="111,134 130,123 96,132" />
<polygon fill="#bdbeb7" fill-opacity="0.501961" points="86,79 80,90 117,79" />
<polygon fill="#747888" fill-opacity="0.501961" points="241,85 242,95 271,92" />
<polygon fill="#879198" fill-opacity="0.501961" points="12,125 30,130 56,113" />
<polygon fill="#9ba69d" fill-opacity="0.501961" points="271,156 246,160 271,143" />
<polygon fill="#b5b7b1" fill-opacity="0.501961" points="224,17 158,12 206,43" />
<polygon fill="#a3a3a2" fill-opacity="0.501961" points="260,-16 199,20 151,-16" />
<polygon fill="#5a4f46" fill-opacity="0.501961" points="198,152 167,143 210,136" />
<polygon fill="#616365" fill-opacity="0.501961" points="83,168 65,161 107,136" />
<polygon fill="#949b9e" fill-opacity="0.501961" points="-16,79 -16,63 22,68" />
<polygon fill="#605b53" fill-opacity="0.501961" points="94,102 86,99 104,94" />
<polygon fill="#644f35" fill-opacity="0.501961" points="189,108 187,120 224,118" />
<polygon fill="#976c41" fill-opacity="0.501961" points="128,121 141,126 156,122" />
<polygon fill="#dceef1" fill-opacity="0.501961" points="15,95 41,98 11,105" />
<polygon fill="#d4d2c8" fill-opacity="0.501961" points="136,52 169,25 131,30" />
<polygon fill="#664e38" fill-opacity="0.501961" points="109,111 111,124 153,119" />
<polygon fill="#513b26" fill-opacity="0.501961" points="224,145 211,147 222,149" />
<polygon fill="#2f3238" fill-opacity="0.501961" points="43,152 76,138 18,146" />
<polygon fill="#564534" fill-opacity="0.501961" points="65,120 78,110 106,125" />
<polygon fill="#5c4636" fill-opacity="0.501961" points="221,141 267,143 246,131" />
<polygon fill="#c8c6bd" fill-opacity="0.501961" points="141,58 186,28 177,16" />
<polygon fill="#8c806e" fill-opacity="0.501961" points="125,86 141,70 161,67" />
<polygon fill="#523c1f" fill-opacity="0.501961" points="143,96 123,103 134,92" />
<polygon fill="#3f3935" fill-opacity="0.501961" points="220,113 253,114 239,98" />
<polygon fill="#9fa3a4" fill-opacity="0.501961" points="58,49 73,53 102,30" />
<polygon fill="#aea693" fill-opacity="0.501961" points="157,52 143,65 180,60" />
<polygon fill="#5d6366" fill-opacity="0.501961" points="22,62 68,62 32,80" />
<polygon fill="#54585e" fill-opacity="0.501961" points="237,88 253,102 226,95" />
<polygon fill="#7a5231" fill-opacity="0.501961" points="19,141 -3,129 -2,148" />
<polygon fill="#785333" fill-opacity="0.501961" points="236,138 205,127 252,129" />
<polygon fill="#58452f" fill-opacity="0.501961" points="94,124 113,104 122,112" />
<polygon fill="#4b4737" fill-opacity="0.501961" points="150,75 136,85 147,85" />
<polygon fill="#2b2923" fill-opacity="0.501961" points="89,115 83,104 114,97" />
<polygon fill="#8d8c87" fill-opacity="0.501961" points="205,61 248,21 244,42" />
<polygon fill="#c9cccd" fill-opacity="0.501961" points="106,39 85,50 106,66" />
<polygon fill="#9db8c3" fill-opacity="0.501961" points="6,99 -16,72 -9,111" />
<polygon fill="#f6f3ec" fill-opacity="0.501961" points="131,41 132,54 119,56" />
<polygon fill="#404047" fill-opacity="0.501961" points="82,142 57,169 39,161" />
<polygon fill="#54545d" fill-opacity="0.501961" points="30,175 40,153 71,143" />
<polygon fill="#a4a49a" fill-opacity="0.501961" points="185,37 190,51 229,39" />
<polygon fill="#434042" fill-opacity="0.501961" points="124,128 122,140 133,156" />
<polygon fill="#7b7a76" fill-opacity="0.501961" points="241,52 251,12 271,24" />
<polygon fill="#744620" fill-opacity="0.501961" points="267,114 253,123 240,117" />
<polygon fill="#9c7345" fill-opacity="0.501961" points="239,125 244,119 257,131" />
<polygon fill="#623b16" fill-opacity="0.501961" points="59,136 35,134 13,145" />
<polygon fill="#8d9da9" fill-opacity="0.501961" points="27,124 -15,98 -16,116" />
<polygon fill="#7a7970" fill-opacity="0.501961" points="214,71 174,69 248,48" />
<polygon fill="#797d83" fill-opacity="0.501961" points="209,82 227,95 232,86" />
<polygon fill="#3c3e3b" fill-opacity="0.501961" points="178,91 199,94 174,83" />
<polygon fill="#7b5b3f" fill-opacity="0.501961" points="173,135 181,144 196,142" />
<polygon fill="#929597" fill-opacity="0.501961" points="77,51 71,66 89,79" />
<polygon fill="#736154" fill-opacity="0.501961" points="186,121 166,119 188,115" />
<polygon fill="#6e4619" fill-opacity="0.501961" points="64,128 86,131 68,134" />
<polygon fill="#878b8d" fill-opacity="0.501961" points="50,18 88,34 79,-16" />
<polygon fill="#78848d" fill-opacity="0.501961" points="30,128 -14,131 0,122" />
<polygon fill="#745537" fill-opacity="0.501961" points="168,150 181,124 149,136" />
<polygon fill="#707374" fill-opacity="0.501961" points="98,144 73,174 71,163" />
<polygon fill="#6e6553" fill-opacity="0.501961" points="140,76 162,68 157,75" />
<polygon fill="#343430" fill-opacity="0.501961" points="84,109 64,106 57,122" />
<polygon fill="#7f868a" fill-opacity="0.501961" points="-5,67 27,43 51,48" />
<polygon fill="#919ca1" fill-opacity="0.501961" points="3,19 -16,37 26,52" />
<polygon fill="#685542" fill-opacity="0.501961" points="69,119 51,128 82,125" />
<polygon fill="#3f3a2c" fill-opacity="0.501961" points="99,99 128,87 121,98" />
<polygon fill="#969da2" fill-opacity="0.501961" points="57,46 56,-8 32,43" />
<polygon fill="#948776" fill-opacity="0.501961" points="132,85 115,85 133,77" />
<polygon fill="#49464a" fill-opacity="0.501961" points="177,163 144,140 161,161" />
<polygon fill="#7f6a53" fill-opacity="0.501961" points="217,152 196,145 203,152" />
<polygon fill="#a1b2bc" fill-opacity="0.501961" points="53,108 49,100 60,98" />
<polygon fill="#655035" fill-opacity="0.501961" points="20,133 48,132 35,128" />
<polygon fill="#11100a" fill-opacity="0.501961" points="167,96 141,111 155,84" />
<polygon fill="#1f1b14" fill-opacity="0.501961" points="179,99 180,112 143,92" />
<polygon fill="#53585b" fill-opacity="0.501961" points="44,81 42,67 68,73" />
<polygon fill="#5c544d" fill-opacity="0.501961" points="212,159 211,151 183,152" />
<polygon fill="#996e42" fill-opacity="0.501961" points="175,125 164,119 149,123" />
<polygon fill="#acb1b2" fill-opacity="0.501961" points="87,75 84,53 97,59" />
<polygon fill="#707372" fill-opacity="0.501961" points="191,90 183,78 209,85" />
<polygon fill="#abb3b1" fill-opacity="0.501961" points="40,94 66,89 40,85" />
<polygon fill="#707678" fill-opacity="0.501961" points="22,66 11,73 37,81" />
<polygon fill="#c7d7dc" fill-opacity="0.501961" points="49,104 12,99 23,108" />
<polygon fill="#bab7ab" fill-opacity="0.501961" points="175,56 147,57 195,32" />
<polygon fill="#96a7af" fill-opacity="0.501961" points="11,88 -16,83 -7,97" />
<polygon fill="#636264" fill-opacity="0.501961" points="140,151 159,157 126,129" />
<polygon fill="#616266" fill-opacity="0.501961" points="271,88 220,76 255,47" />
<polygon fill="#c7c6c0" fill-opacity="0.501961" points="142,28 94,42 124,42" />
<polygon fill="#86582e" fill-opacity="0.501961" points="180,130 198,131 193,124" />
<polygon fill="#534942" fill-opacity="0.501961" points="207,136 226,136 230,143" />
<polygon fill="#4b413b" fill-opacity="0.501961" points="187,135 189,141 203,138" />
<polygon fill="#73726d" fill-opacity="0.501961" points="121,132 117,128 108,136" />
<polygon fill="#797876" fill-opacity="0.501961" points="105,148 105,153 122,147" />
<polygon fill="#beb7a6" fill-opacity="0.501961" points="143,67 121,76 143,59" />
<polygon fill="#3d332a" fill-opacity="0.501961" points="173,112 202,111 182,105" />
<polygon fill="#73512e" fill-opacity="0.501961" points="248,114 232,121 220,116" />
<polygon fill="#a29b8c" fill-opacity="0.501961" points="117,86 96,85 84,94" />
<polygon fill="#896544" fill-opacity="0.501961" points="209,143 202,151 220,141" />
<polygon fill="#757d82" fill-opacity="0.501961" points="57,113 57,105 50,120" />
<polygon fill="#7e8287" fill-opacity="0.501961" points="72,87 84,78 80,86" />
<polygon fill="#9a9080" fill-opacity="0.501961" points="182,66 162,60 134,72" />
<polygon fill="#99a6ae" fill-opacity="0.501961" points="-16,28 39,8 -8,3" />
<polygon fill="#adbec8" fill-opacity="0.501961" points="17,116 33,106 19,107" />
<polygon fill="#58585d" fill-opacity="0.501961" points="63,145 77,146 87,138" />
<polygon fill="#4f4b49" fill-opacity="0.501961" points="128,123 107,129 134,130" />
<polygon fill="#45321d" fill-opacity="0.501961" points="68,126 73,129 58,129" />
<polygon fill="#755c46" fill-opacity="0.501961" points="246,151 228,141 219,153" />
<polygon fill="#5d4530" fill-opacity="0.501961" points="91,115 100,117 94,111" />
<polygon fill="#8c9195" fill-opacity="0.501961" points="26,43 47,39 76,55" />
<polygon fill="#363841" fill-opacity="0.501961" points="-3,158 35,153 14,147" />
<polygon fill="#878985" fill-opacity="0.501961" points="104,140 102,146 107,140" />
<polygon fill="#585759" fill-opacity="0.501961" points="104,135 99,140 119,145" />
<polygon fill="#815629" fill-opacity="0.501961" points="94,125 80,128 98,129" />
<polygon fill="#61666a" fill-opacity="0.501961" points="42,61 78,80 51,53" />
<polygon fill="#8c673f" fill-opacity="0.501961" points="161,137 170,132 153,129" />
<polygon fill="#694d39" fill-opacity="0.501961" points="164,121 147,120 174,113" />
<polygon fill="#4b4b49" fill-opacity="0.501961" points="61,107 66,111 51,121" />
<polygon fill="#4e4339" fill-opacity="0.501961" points="240,139 253,153 271,144" />
<polygon fill="#816a57" fill-opacity="0.501961" points="118,124 128,122 124,125" />
<polygon fill="#3b3737" fill-opacity="0.501961" points="196,159 188,163 172,152" />
<polygon fill="#77766f" fill-opacity="0.501961" points="76,101 77,104 71,106" />
<polygon fill="#9ea6a8" fill-opacity="0.501961" points="49,37 37,24 6,40" />
<polygon fill="#9d6f3f" fill-opacity="0.501961" points="181,128 205,118 177,121" />
<polygon fill="#a5a7a5" fill-opacity="0.501961" points="235,16 226,32 208,-16" />
<polygon fill="#514f52" fill-opacity="0.501961" points="117,156 133,146 131,175" />
<polygon fill="#bfd0d8" fill-opacity="0.501961" points="39,95 38,104 65,93" />
<polygon fill="#8c8e7f" fill-opacity="0.501961" points="174,157 201,168 185,175" />
<polygon fill="#b9b4a6" fill-opacity="0.501961" points="109,76 89,88 117,80" />
<polygon fill="#949c9d" fill-opacity="0.501961" points="-16,76 -6,64 34,85" />
<polygon fill="#605b5a" fill-opacity="0.501961" points="1,154 6,151 -10,144" />
<polygon fill="#878780" fill-opacity="0.501961" points="185,59 236,47 214,61" />
<polygon fill="#504845" fill-opacity="0.501961" points="227,151 230,148 217,149" />
<polygon fill="#2e2f2c" fill-opacity="0.501961" points="205,94 218,114 231,106" />
<polygon fill="#857d6e" fill-opacity="0.501961" points="162,65 173,71 148,72" />
<polygon fill="#65462f" fill-opacity="0.501961" points="147,136 167,139 149,130" />
<polygon fill="#1e1b0e" fill-opacity="0.501961" points="132,93 149,90 152,80" />
<polygon fill="#424145" fill-opacity="0.501961" points="134,133 147,142 138,141" />
<polygon fill="#a98352" fill-opacity="0.501961" points="204,125 191,122 213,121" />
<polygon fill="#80817b" fill-opacity="0.501961" points="178,72 187,82 215,69" />
<polygon fill="#573f2a" fill-opacity="0.501961" points="167,133 168,129 161,126" />
<polygon fill="#242017" fill-opacity="0.501961" points="150,93 123,109 137,107" />
<polygon fill="#c7dce6" fill-opacity="0.501961" points="43,101 12,90 40,92" />
<polygon fill="#282928" fill-opacity="0.501961" points="84,135 68,141 65,135" />
<polygon fill="#c2c4bf" fill-opacity="0.501961" points="63,90 74,89 72,94" />
<polygon fill="#e1e2dc" fill-opacity="0.501961" points="108,55 138,56 102,74" />
<polygon fill="#86643f" fill-opacity="0.501961" points="-16,138 -11,149 12,133" />
<polygon fill="#6f4927" fill-opacity="0.501961" points="5,140 16,146 39,130" />
<polygon fill="#8d6232" fill-opacity="0.501961" points="129,123 149,124 150,132" />
<polygon fill="#8a9093" fill-opacity="0.501961" points="261,-16 233,-5 243,22" />
<polygon fill="#afafad" fill-opacity="0.501961" points="197,24 224,13 156,9" />
<polygon fill="#5e6568" fill-opacity="0.501961" points="23,74 55,82 37,70" />
<polygon fill="#a8aba9" fill-opacity="0.501961" points="77,96 82,85 53,102" />
<polygon fill="#524336" fill-opacity="0.501961" points="177,117 187,109 192,117" />
<polygon fill="#946c41" fill-opacity="0.501961" points="247,119 249,128 235,127" />
<polygon fill="#454447" fill-opacity="0.501961" points="214,96 242,99 253,112" />
<polygon fill="#bfc3c2" fill-opacity="0.501961" points="92,86 100,58 92,54" />
<polygon fill="#4e3926" fill-opacity="0.501961" points="166,110 135,114 161,118" />
<polygon fill="#a1a29e" fill-opacity="0.501961" points="212,3 193,-14 126,16" />
<polygon fill="#6f787b" fill-opacity="0.501961" points="24,54 55,52 14,67" />
<polygon fill="#a4a9ab" fill-opacity="0.501961" points="59,41 77,43 90,63" />
<polygon fill="#797c7a" fill-opacity="0.501961" points="64,101 56,109 76,101" />
<polygon fill="#473928" fill-opacity="0.501961" points="115,114 120,108 132,114" />
<polygon fill="#4f483c" fill-opacity="0.501961" points="104,95 118,96 117,91" />
<polygon fill="#545355" fill-opacity="0.501961" points="108,137 103,134 96,149" />
<polygon fill="#9a9894" fill-opacity="0.501961" points="212,42 223,46 239,27" />
<polygon fill="#754e28" fill-opacity="0.501961" points="265,110 241,124 265,119" />
<polygon fill="#9c9e96" fill-opacity="0.501961" points="100,9 88,37 140,15" />
<polygon fill="#5f6270" fill-opacity="0.501961" points="259,106 264,80 251,97" />
<polygon fill="#7b8280" fill-opacity="0.501961" points="45,81 42,84 37,79" />
<polygon fill="#d3cec3" fill-opacity="0.501961" points="145,56 127,58 110,77" />
<polygon fill="#454445" fill-opacity="0.501961" points="194,154 188,145 201,154" />
<polygon fill="#6c3f1c" fill-opacity="0.501961" points="239,117 230,119 247,120" />
<polygon fill="#838a8d" fill-opacity="0.501961" points="23,70 10,72 5,65" />
<polygon fill="#87684a" fill-opacity="0.501961" points="225,147 243,142 233,142" />
<polygon fill="#e0f2f7" fill-opacity="0.501961" points="27,100 8,100 19,95" />
<polygon fill="#b58a57" fill-opacity="0.501961" points="220,126 217,124 216,128" />
<polygon fill="#6f553b" fill-opacity="0.501961" points="132,121 128,113 121,123" />
<polygon fill="#4e3d2a" fill-opacity="0.501961" points="95,116 107,104 100,117" />
<polygon fill="#54595d" fill-opacity="0.501961" points="223,97 208,88 227,93" />
<polygon fill="#b9cfd6" fill-opacity="0.501961" points="8,93 9,101 -1,92" />
<polygon fill="#d8d9d6" fill-opacity="0.501961" points="113,53 90,52 133,36" />
<polygon fill="#7e6044" fill-opacity="0.501961" points="185,140 173,134 167,139" />
<polygon fill="#8d9398" fill-opacity="0.501961" points="59,9 74,45 48,13" />
<polygon fill="#b2bec2" fill-opacity="0.501961" points="20,84 1,84 20,90" />
<polygon fill="#99abb1" fill-opacity="0.501961" points="59,101 53,113 37,118" />
<polygon fill="#9da2a4" fill-opacity="0.501961" points="99,37 73,45 52,38" />
<polygon fill="#8d8e8f" fill-opacity="0.501961" points="59,83 61,88 69,87" />
<polygon fill="#363538" fill-opacity="0.501961" points="107,133 88,141 97,134" />
<polygon fill="#3e3124" fill-opacity="0.501961" points="88,116 85,112 74,122" />
<polygon fill="#0b0c08" fill-opacity="0.501961" points="146,99 170,99 159,105" />
<polygon fill="#9ea2a4" fill-opacity="0.501961" points="83,65 88,80 93,77" />
<polygon fill="#7a786f" fill-opacity="0.501961" points="178,119 187,118 182,117" />
<polygon fill="#835e33" fill-opacity="0.501961" points="217,122 226,122 216,125" />
<polygon fill="#acbfc9" fill-opacity="0.501961" points="42,101 54,98 53,107" />
<polygon fill="#b6b8b2" fill-opacity="0.501961" points="206,38 184,37 179,12" />
<polygon fill="#654b32" fill-opacity="0.501961" points="108,121 117,125 113,103" />
<polygon fill="#7c7e80" fill-opacity="0.501961" points="80,84 83,76 67,62" />
<polygon fill="#6b5f47" fill-opacity="0.501961" points="233,154 247,157 254,165" />
<polygon fill="#63442d" fill-opacity="0.501961" points="165,137 174,137 171,133" />
<polygon fill="#a67b4d" fill-opacity="0.501961" points="184,126 169,121 187,122" />
<polygon fill="#737273" fill-opacity="0.501961" points="111,148 117,135 118,143" />
<polygon fill="#9f9b8f" fill-opacity="0.501961" points="205,47 187,48 168,64" />
<polygon fill="#696c6d" fill-opacity="0.501961" points="208,78 245,86 224,60" />
<polygon fill="#705137" fill-opacity="0.501961" points="271,141 251,130 232,136" />
<polygon fill="#6b6761" fill-opacity="0.501961" points="123,132 129,130 134,133" />
<polygon fill="#1d1c19" fill-opacity="0.501961" points="182,96 209,104 191,104" />
<polygon fill="#6d4822" fill-opacity="0.501961" points="211,146 224,147 216,144" />
<polygon fill="#c7c1b7" fill-opacity="0.501961" points="181,34 141,44 144,56" />
<polygon fill="#343128" fill-opacity="0.501961" points="156,77 167,80 145,81" />
<polygon fill="#505054" fill-opacity="0.501961" points="93,155 60,175 82,171" />
<polygon fill="#a5a9ae" fill-opacity="0.501961" points="34,9 49,21 25,28" />
<polygon fill="#664327" fill-opacity="0.501961" points="160,124 152,124 168,130" />
<polygon fill="#ebf8f8" fill-opacity="0.501961" points="28,101 37,101 37,98" />
<polygon fill="#0c0c09" fill-opacity="0.501961" points="157,82 148,86 173,98" />
<polygon fill="#332c1f" fill-opacity="0.501961" points="97,117 110,106 104,115" />
<polygon fill="#221e17" fill-opacity="0.501961" points="159,115 142,108 147,101" />
<polygon fill="#848889" fill-opacity="0.501961" points="94,-16 68,21 60,3" />
<polygon fill="#879396" fill-opacity="0.501961" points="-16,20 13,60 -12,62" />
<polygon fill="#403f45" fill-opacity="0.501961" points="78,143 83,149 58,155" />
<polygon fill="#443926" fill-opacity="0.501961" points="214,117 227,112 209,111" />
<polygon fill="#634c34" fill-opacity="0.501961" points="101,126 89,116 75,125" />
<polygon fill="#9d7b53" fill-opacity="0.501961" points="159,128 158,130 152,130" />
<polygon fill="#bfd1d6" fill-opacity="0.501961" points="1,100 18,105 7,106" />
<polygon fill="#574433" fill-opacity="0.501961" points="-3,131 12,131 -6,136" />
<polygon fill="#514840" fill-opacity="0.501961" points="174,143 182,142 172,147" />
<polygon fill="#512c13" fill-opacity="0.501961" points="253,121 267,119 271,125" />
<polygon fill="#654b2f" fill-opacity="0.501961" points="13,131 34,136 31,130" />
<polygon fill="#574635" fill-opacity="0.501961" points="85,110 75,116 85,115" />
<polygon fill="#a6b5bf" fill-opacity="0.501961" points="18,116 37,115 7,104" />
<polygon fill="#4b463d" fill-opacity="0.501961" points="84,101 75,109 78,104" />
<polygon fill="#373532" fill-opacity="0.501961" points="214,98 229,112 236,105" />
<polygon fill="#20201d" fill-opacity="0.501961" points="163,81 162,88 184,92" />
<polygon fill="#8a9294" fill-opacity="0.501961" points="8,79 35,84 12,73" />
<polygon fill="#7d725e" fill-opacity="0.501961" points="130,86 124,83 118,87" />
<polygon fill="#734e2e" fill-opacity="0.501961" points="209,127 213,133 195,127" />
<polygon fill="#836345" fill-opacity="0.501961" points="228,136 221,134 223,137" />
<polygon fill="#634525" fill-opacity="0.501961" points="129,130 129,125 140,130" />
<polygon fill="#48341c" fill-opacity="0.501961" points="140,91 144,95 137,101" />
<polygon fill="#855f32" fill-opacity="0.501961" points="199,121 215,118 207,117" />
<polygon fill="#403529" fill-opacity="0.501961" points="141,116 128,111 140,102" />
<polygon fill="#827d70" fill-opacity="0.501961" points="152,143 156,143 159,148" />
<polygon fill="#504839" fill-opacity="0.501961" points="172,152 161,149 155,142" />
<polygon fill="#8d602e" fill-opacity="0.501961" points="198,123 198,128 188,125" />
<polygon fill="#6a5944" fill-opacity="0.501961" points="65,123 69,127 53,126" />
<polygon fill="#7a5c3c" fill-opacity="0.501961" points="167,141 174,151 151,138" />
<polygon fill="#754e1e" fill-opacity="0.501961" points="72,130 74,135 78,126" />
<polygon fill="#828585" fill-opacity="0.501961" points="253,19 247,40 246,8" />
<polygon fill="#442a15" fill-opacity="0.501961" points="32,140 44,141 28,146" />
<polygon fill="#616267" fill-opacity="0.501961" points="60,81 77,79 70,83" />
<polygon fill="#919290" fill-opacity="0.501961" points="68,40 87,13 105,24" />
<polygon fill="#654e39" fill-opacity="0.501961" points="169,136 158,146 155,143" />
<polygon fill="#3c2e23" fill-opacity="0.501961" points="151,109 159,112 172,103" />
<polygon fill="#82949f" fill-opacity="0.501961" points="2,111 -16,132 4,121" />
<polygon fill="#91918a" fill-opacity="0.501961" points="212,56 191,53 228,46" />
<polygon fill="#725531" fill-opacity="0.501961" points="26,131 29,136 44,131" />
<polygon fill="#514b3f" fill-opacity="0.501961" points="158,74 155,77 169,80" />
<polygon fill="#d6d5cc" fill-opacity="0.501961" points="146,26 128,43 169,31" />
<polygon fill="#2e281b" fill-opacity="0.501961" points="119,96 134,99 124,91" />
<polygon fill="#906c46" fill-opacity="0.501961" points="183,151 178,146 174,149" />
<polygon fill="#272826" fill-opacity="0.501961" points="78,136 97,130 88,136" />
<polygon fill="#c8c5ba" fill-opacity="0.501961" points="127,66 114,79 103,79" />
<polygon fill="#866034" fill-opacity="0.501961" points="160,133 145,124 135,128" />
<polygon fill="#7c5a3e" fill-opacity="0.501961" points="165,117 163,122 178,121" />
<polygon fill="#5c5a5c" fill-opacity="0.501961" points="100,139 97,149 113,130" />
<polygon fill="#b8b8b2" fill-opacity="0.501961" points="83,48 104,32 125,32" />
<polygon fill="#a2a59c" fill-opacity="0.501961" points="95,155 85,166 92,163" />
<polygon fill="#16150d" fill-opacity="0.501961" points="152,81 144,91 148,111" />
<polygon fill="#c2c4bf" fill-opacity="0.501961" points="181,24 167,18 141,29" />
<polygon fill="#aca292" fill-opacity="0.501961" points="135,77 146,66 118,80" />
<polygon fill="#7d654d" fill-opacity="0.501961" points="230,146 210,140 221,140" />
<polygon fill="#525457" fill-opacity="0.501961" points="97,155 87,167 99,175" />
<polygon fill="#a37548" fill-opacity="0.501961" points="241,122 239,119 244,119" />
<polygon fill="#333131" fill-opacity="0.501961" points="20,154 41,144 22,145" />
<polygon fill="#584d42" fill-opacity="0.501961" points="168,141 189,145 172,147" />
<polygon fill="#9a9c9c" fill-opacity="0.501961" points="232,30 229,-16 240,9" />
<polygon fill="#523a1f" fill-opacity="0.501961" points="51,131 38,130 47,128" />
<polygon fill="#eaece5" fill-opacity="0.501961" points="102,76 101,67 107,66" />
<polygon fill="#2d2c29" fill-opacity="0.501961" points="76,109 64,110 64,117" />
<polygon fill="#4f5257" fill-opacity="0.501961" points="52,69 42,73 67,77" />
<polygon fill="#edece7" fill-opacity="0.501961" points="130,51 113,68 124,44" />
<polygon fill="#585e64" fill-opacity="0.501961" points="266,81 271,69 236,84" />
<polygon fill="#595149" fill-opacity="0.501961" points="186,154 192,158 205,146" />
<polygon fill="#d5d6d4" fill-opacity="0.501961" points="98,70 110,52 115,56" />
<polygon fill="#6d6150" fill-opacity="0.501961" points="51,122 46,129 40,129" />
<polygon fill="#6a4725" fill-opacity="0.501961" points="178,149 167,149 173,152" />
<polygon fill="#787368" fill-opacity="0.501961" points="163,77 175,80 194,66" />
<polygon fill="#2c2a24" fill-opacity="0.501961" points="215,113 196,104 226,103" />
<polygon fill="#5c5b61" fill-opacity="0.501961" points="48,151 35,157 53,154" />
<polygon fill="#939fa4" fill-opacity="0.501961" points="13,45 -16,21 16,20" />
</g>
</svg>