<svg xmlns="http://www.w3.org/2000/svg" version="1.1" width="1024" height="640">
<rect x="0" y="0" width="1024" height="640" fill="#77674a" />
<g transform="scale(4.000000) translate(0.5 0.5)">
<polygon fill="#ffe78e" fill-opacity="0.501961" points="97,94 226,47 121,129" />
<polygon fill="#3c3932" fill-opacity="0.501961" points="127,172 -16,161 3,-16" />
<polygon fill="#9f8c6a" fill-opacity="0.501961" points="35,110 142,-16 270,43" />
<polygon fill="#4a4225" fill-opacity="0.501961" points="257,-16 271,164 192,175" />
<polygon fill="#ffe35d" fill-opacity="0.501961" points="101,117 147,80 144,126" />
<polygon fill="#a59d8d" fill-opacity="0.501961" points="33,175 28,125 -2,84" />
<polygon fill="#564c3e" fill-opacity="0.501961" points="158,87 204,56 134,79" />
<polygon fill="#58371f" fill-opacity="0.501961" points="112,127 155,121 213,175" />
<polygon fill="#434039" fill-opacity="0.501961" points="43,-16 36,165 -16,21" />
<polygon fill="#ffd56d" fill-opacity="0.501961" points="138,127 99,103 129,75" />
<polygon fill="#968668" fill-opacity="0.501961" points="240,-16 74,-1 120,84" />
<polygon fill="#776640" fill-opacity="0.501961" points="196,173 255,33 146,100" />
<polygon fill="#e8dfde" fill-opacity="0.501961" points="151,96 171,84 125,83" />
<polygon fill="#2f2a1c" fill-opacity="0.501961" points="32,173 -7,74 -7,158" />
<polygon fill="#beb7aa" fill-opacity="0.501961" points="240,37 265,54 232,43" />
<polygon fill="#705c3d" fill-opacity="0.501961" points="98,175 29,94 105,90" />
<polygon fill="#ff9906" fill-opacity="0.501961" points="150,115 133,126 111,122" />
<polygon fill="#dfdfd2" fill-opacity="0.501961" points="209,15 197,-4 175,-14" />
<polygon fill="#655a4a" fill-opacity="0.501961" points="8,18 29,69 130,57" />
<polygon fill="#e4801f" fill-opacity="0.501961" points="114,111 118,92 146,92" />
<polygon fill="#ffffff" fill-opacity="0.501961" points="132,120 128,95 124,109" />
<polygon fill="#3b3629" fill-opacity="0.501961" points="70,175 10,53 26,140" />
<polygon fill="#756548" fill-opacity="0.501961" points="122,56 180,71 155,89" />
<polygon fill="#5a422b" fill-opacity="0.501961" points="157,139 158,108 79,175" />
<polygon fill="#dfd6d4" fill-opacity="0.501961" points="210,56 177,73 197,69" />
<polygon fill="#ffde72" fill-opacity="0.501961" points="147,116 148,89 122,121" />
<polygon fill="#483f26" fill-opacity="0.501961" points="258,109 201,163 271,164" />
<polygon fill="#ded3c1" fill-opacity="0.501961" points="224,42 236,42 213,55" />
<polygon fill="#7c6d4a" fill-opacity="0.501961" points="200,8 183,71 231,41" />
<polygon fill="#806e49" fill-opacity="0.501961" points="237,114 207,61 144,103" />
<polygon fill="#fdf3f7" fill-opacity="0.501961" points="183,72 165,83 175,82" />
<polygon fill="#58523f" fill-opacity="0.501961" points="246,43 218,6 271,-1" />
<polygon fill="#c3b59c" fill-opacity="0.501961" points="221,19 209,16 232,35" />
<polygon fill="#ffdfb2" fill-opacity="0.501961" points="138,89 125,79 115,91" />
<polygon fill="#726147" fill-opacity="0.501961" points="58,146 33,97 76,53" />
<polygon fill="#b8ae9c" fill-opacity="0.501961" points="18,113 8,105 17,130" />
<polygon fill="#726858" fill-opacity="0.501961" points="73,-16 20,-16 117,87" />
<polygon fill="#776547" fill-opacity="0.501961" points="235,4 254,48 216,19" />
<polygon fill="#716643" fill-opacity="0.501961" points="160,76 135,84 122,76" />
<polygon fill="#4f4333" fill-opacity="0.501961" points="232,173 191,102 208,167" />
<polygon fill="#38362e" fill-opacity="0.501961" points="16,112 43,81 -1,60" />
<polygon fill="#907f57" fill-opacity="0.501961" points="165,83 203,56 180,-16" />
<polygon fill="#a58a5f" fill-opacity="0.501961" points="89,48 115,72 156,71" />
<polygon fill="#6f695b" fill-opacity="0.501961" points="108,19 127,27 159,-16" />
<polygon fill="#4e3624" fill-opacity="0.501961" points="143,135 157,127 152,99" />
<polygon fill="#ffdfa7" fill-opacity="0.501961" points="104,101 118,92 109,87" />
<polygon fill="#895a33" fill-opacity="0.501961" points="127,155 140,126 101,123" />
<polygon fill="#b6aea2" fill-opacity="0.501961" points="21,143 31,159 25,139" />
<polygon fill="#927957" fill-opacity="0.501961" points="111,128 91,48 65,69" />
<polygon fill="#fffbf2" fill-opacity="0.501961" points="180,77 186,69 195,66" />
<polygon fill="#665b38" fill-opacity="0.501961" points="202,113 237,43 262,55" />
<polygon fill="#dcdbdb" fill-opacity="0.501961" points="144,80 146,95 158,95" />
<polygon fill="#ffdf38" fill-opacity="0.501961" points="111,121 122,121 126,97" />
<polygon fill="#836640" fill-opacity="0.501961" points="163,138 126,157 185,175" />
<polygon fill="#a08965" fill-opacity="0.501961" points="162,-6 160,66 108,48" />
<polygon fill="#61594d" fill-opacity="0.501961" points="5,4 65,77 51,-16" />
<polygon fill="#3c3429" fill-opacity="0.501961" points="87,135 7,174 42,175" />
<polygon fill="#8a7a57" fill-opacity="0.501961" points="180,109 167,87 204,63" />
<polygon fill="#d8d0ba" fill-opacity="0.501961" points="236,42 248,46 228,31" />
<polygon fill="#ffffff" fill-opacity="0.501961" points="130,104 131,111 124,110" />
<polygon fill="#3d3d39" fill-opacity="0.501961" points="78,57 60,61 52,75" />
<polygon fill="#5a4f3b" fill-opacity="0.501961" points="25,93 24,138 47,175" />
<polygon fill="#c7723b" fill-opacity="0.501961" points="129,95 140,106 139,92" />
<polygon fill="#f8eee3" fill-opacity="0.501961" points="211,54 218,52 209,59" />
<polygon fill="#877951" fill-opacity="0.501961" points="199,4 205,-12 226,26" />
<polygon fill="#4b443c" fill-opacity="0.501961" points="167,136 137,145 181,117" />
<polygon fill="#ffff75" fill-opacity="0.501961" points="114,116 132,119 137,110" />
<polygon fill="#e47711" fill-opacity="0.501961" points="140,125 110,126 118,119" />
<polygon fill="#d1d5d3" fill-opacity="0.501961" points="197,4 160,-16 211,-16" />
<polygon fill="#b4aca1" fill-opacity="0.501961" points="18,124 19,138 28,150" />
<polygon fill="#a39787" fill-opacity="0.501961" points="-1,87 11,110 10,97" />
<polygon fill="#7b6043" fill-opacity="0.501961" points="88,140 37,175 113,175" />
<polygon fill="#ece8de" fill-opacity="0.501961" points="152,89 150,97 164,87" />
<polygon fill="#ffda6d" fill-opacity="0.501961" points="146,101 143,115 127,101" />
<polygon fill="#ffb363" fill-opacity="0.501961" points="114,124 107,114 115,92" />
<polygon fill="#7e6f4c" fill-opacity="0.501961" points="157,89 137,74 169,70" />
<polygon fill="#56483f" fill-opacity="0.501961" points="179,81 196,109 183,98" />
<polygon fill="#565247" fill-opacity="0.501961" points="107,69 80,51 88,46" />
<polygon fill="#7e7452" fill-opacity="0.501961" points="182,24 235,40 185,-5" />
<polygon fill="#7a6341" fill-opacity="0.501961" points="107,72 97,104 116,80" />
<polygon fill="#4e4b43" fill-opacity="0.501961" points="17,82 -11,-16 28,-16" />
<polygon fill="#615339" fill-opacity="0.501961" points="72,86 138,175 54,121" />
<polygon fill="#866843" fill-opacity="0.501961" points="132,145 100,108 101,136" />
<polygon fill="#1d1e21" fill-opacity="0.501961" points="25,88 19,102 10,86" />
<polygon fill="#7e6f59" fill-opacity="0.501961" points="114,19 77,54 72,-16" />
<polygon fill="#6a3920" fill-opacity="0.501961" points="139,128 114,125 121,134" />
<polygon fill="#5b553b" fill-opacity="0.501961" points="254,52 221,59 241,43" />
<polygon fill="#8e7b5a" fill-opacity="0.501961" points="105,75 86,53 46,82" />
<polygon fill="#393f33" fill-opacity="0.501961" points="271,3 246,12 237,5" />
<polygon fill="#69583a" fill-opacity="0.501961" points="244,99 197,175 135,166" />
<polygon fill="#f3bd79" fill-opacity="0.501961" points="145,100 131,83 148,93" />
<polygon fill="#73654b" fill-opacity="0.501961" points="216,25 233,38 218,49" />
<polygon fill="#d47023" fill-opacity="0.501961" points="148,117 150,111 140,121" />
<polygon fill="#4f5b45" fill-opacity="0.501961" points="119,24 124,20 137,27" />
<polygon fill="#907d4f" fill-opacity="0.501961" points="173,113 164,95 162,126" />
<polygon fill="#ded4c0" fill-opacity="0.501961" points="253,46 247,46 256,50" />
<polygon fill="#726148" fill-opacity="0.501961" points="271,31 246,43 227,29" />
<polygon fill="#fbefdf" fill-opacity="0.501961" points="181,78 175,78 187,70" />
<polygon fill="#d5c9b1" fill-opacity="0.501961" points="213,21 207,13 223,25" />
<polygon fill="#83714a" fill-opacity="0.501961" points="191,102 224,59 238,68" />
<polygon fill="#80714c" fill-opacity="0.501961" points="126,70 125,82 159,81" />
<polygon fill="#938058" fill-opacity="0.501961" points="182,73 131,29 200,53" />
<polygon fill="#fff5e2" fill-opacity="0.501961" points="167,81 159,91 173,81" />
<polygon fill="#fa9d18" fill-opacity="0.501961" points="112,111 123,94 120,111" />
<polygon fill="#382b1c" fill-opacity="0.501961" points="2,175 15,155 -3,128" />
<polygon fill="#948567" fill-opacity="0.501961" points="163,32 118,16 195,-16" />
<polygon fill="#fcdea4" fill-opacity="0.501961" points="128,81 125,92 140,86" />
<polygon fill="#ecdfc7" fill-opacity="0.501961" points="221,47 214,54 228,47" />
<polygon fill="#423d36" fill-opacity="0.501961" points="183,172 169,140 201,175" />
<polygon fill="#5e4f43" fill-opacity="0.501961" points="108,80 101,63 118,84" />
<polygon fill="#857353" fill-opacity="0.501961" points="199,4 228,15 239,39" />
<polygon fill="#ffd534" fill-opacity="0.501961" points="124,124 119,118 139,118" />
<polygon fill="#aea598" fill-opacity="0.501961" points="28,172 39,175 26,144" />
<polygon fill="#1e2327" fill-opacity="0.501961" points="20,78 21,69 29,62" />
<polygon fill="#776b5f" fill-opacity="0.501961" points="11,96 -15,56 -16,83" />
<polygon fill="#ffd992" fill-opacity="0.501961" points="104,99 108,92 114,109" />
<polygon fill="#635541" fill-opacity="0.501961" points="182,113 165,91 177,121" />
<polygon fill="#675a38" fill-opacity="0.501961" points="236,148 216,147 208,95" />
<polygon fill="#857046" fill-opacity="0.501961" points="201,132 179,90 177,139" />
<polygon fill="#907a50" fill-opacity="0.501961" points="209,96 193,101 181,78" />
<polygon fill="#474b39" fill-opacity="0.501961" points="255,29 228,16 266,23" />
<polygon fill="#7b6e4e" fill-opacity="0.501961" points="133,73 161,69 138,85" />
<polygon fill="#705e47" fill-opacity="0.501961" points="63,64 82,36 36,75" />
<polygon fill="#716247" fill-opacity="0.501961" points="31,94 74,61 53,137" />
<polygon fill="#f2e6d4" fill-opacity="0.501961" points="206,61 208,56 213,55" />
<polygon fill="#5e432f" fill-opacity="0.501961" points="157,104 150,99 149,125" />
<polygon fill="#5a5247" fill-opacity="0.501961" points="134,62 107,52 122,52" />
<polygon fill="#97805d" fill-opacity="0.501961" points="79,92 87,52 110,83" />
<polygon fill="#9a8968" fill-opacity="0.501961" points="88,46 138,37 116,20" />
<polygon fill="#8a734c" fill-opacity="0.501961" points="167,144 152,142 157,153" />
<polygon fill="#59504a" fill-opacity="0.501961" points="161,70 177,72 175,76" />
<polygon fill="#82745c" fill-opacity="0.501961" points="165,-7 103,36 135,-6" />
<polygon fill="#4f4938" fill-opacity="0.501961" points="38,103 24,71 51,74" />
<polygon fill="#565240" fill-opacity="0.501961" points="25,151 7,131 6,108" />
<polygon fill="#9a825b" fill-opacity="0.501961" points="94,55 119,80 142,66" />
<polygon fill="#40423f" fill-opacity="0.501961" points="86,50 67,61 76,61" />
<polygon fill="#f2e4cc" fill-opacity="0.501961" points="204,60 200,65 197,63" />
<polygon fill="#8f815e" fill-opacity="0.501961" points="216,55 195,80 184,76" />
<polygon fill="#ffffff" fill-opacity="0.501961" points="124,106 129,112 131,108" />
<polygon fill="#6f5f45" fill-opacity="0.501961" points="137,139 128,159 113,138" />
<polygon fill="#f69c50" fill-opacity="0.501961" points="147,98 149,110 142,120" />
<polygon fill="#5f5c49" fill-opacity="0.501961" points="152,43 149,39 157,41" />
<polygon fill="#67593d" fill-opacity="0.501961" points="60,150 62,95 94,99" />
<polygon fill="#9e8b69" fill-opacity="0.501961" points="191,57 132,24 148,14" />
<polygon fill="#5e544b" fill-opacity="0.501961" points="132,61 151,67 146,61" />
<polygon fill="#837251" fill-opacity="0.501961" points="229,43 195,9 198,61" />
<polygon fill="#4e4334" fill-opacity="0.501961" points="210,157 199,119 234,175" />
<polygon fill="#726450" fill-opacity="0.501961" points="181,79 169,94 151,98" />
<polygon fill="#413e25" fill-opacity="0.501961" points="245,145 271,160 221,175" />
<polygon fill="#7f745f" fill-opacity="0.501961" points="18,121 21,109 17,112" />
<polygon fill="#78674e" fill-opacity="0.501961" points="57,51 106,26 48,32" />
<polygon fill="#ffd543" fill-opacity="0.501961" points="136,121 140,118 130,103" />
<polygon fill="#64553c" fill-opacity="0.501961" points="98,127 61,139 104,107" />
<polygon fill="#434734" fill-opacity="0.501961" points="212,4 227,6 226,10" />
<polygon fill="#816c4f" fill-opacity="0.501961" points="76,90 78,57 44,99" />
<polygon fill="#484642" fill-opacity="0.501961" points="102,52 114,52 93,46" />
<polygon fill="#edb262" fill-opacity="0.501961" points="114,89 116,95 133,90" />
<polygon fill="#6a5c43" fill-opacity="0.501961" points="229,14 269,44 254,48" />
<polygon fill="#74653b" fill-opacity="0.501961" points="157,102 154,133 164,131" />
<polygon fill="#f8c088" fill-opacity="0.501961" points="145,92 139,102 148,110" />
<polygon fill="#58503e" fill-opacity="0.501961" points="39,155 26,105 18,120" />
<polygon fill="#594932" fill-opacity="0.501961" points="240,121 271,54 268,175" />
<polygon fill="#ce681c" fill-opacity="0.501961" points="140,125 139,120 144,120" />
<polygon fill="#c07d38" fill-opacity="0.501961" points="144,93 131,100 128,94" />
<polygon fill="#715f3e" fill-opacity="0.501961" points="203,98 219,142 238,97" />
<polygon fill="#fdc468" fill-opacity="0.501961" points="112,103 120,90 102,104" />
<polygon fill="#766a49" fill-opacity="0.501961" points="242,7 200,2 231,-12" />
<polygon fill="#5a4c34" fill-opacity="0.501961" points="151,175 80,124 104,161" />
<polygon fill="#d3d4cf" fill-opacity="0.501961" points="146,82 141,85 157,91" />
<polygon fill="#60543f" fill-opacity="0.501961" points="39,47 65,50 17,87" />
<polygon fill="#74694d" fill-opacity="0.501961" points="228,36 211,19 218,34" />
<polygon fill="#d0c5ad" fill-opacity="0.501961" points="226,31 232,36 230,31" />
<polygon fill="#d5ccb7" fill-opacity="0.501961" points="240,44 239,41 247,44" />
<polygon fill="#494537" fill-opacity="0.501961" points="7,93 23,67 -16,8" />
<polygon fill="#96979e" fill-opacity="0.501961" points="126,7 125,-12 131,-11" />
<polygon fill="#937f5c" fill-opacity="0.501961" points="202,30 179,54 188,8" />
<polygon fill="#836f53" fill-opacity="0.501961" points="66,54 107,24 93,45" />
<polygon fill="#e6b57a" fill-opacity="0.501961" points="106,117 108,110 115,109" />
<polygon fill="#796940" fill-opacity="0.501961" points="214,62 195,74 226,121" />
<polygon fill="#806f49" fill-opacity="0.501961" points="172,60 220,36 199,36" />
<polygon fill="#363330" fill-opacity="0.501961" points="45,82 33,84 56,71" />
<polygon fill="#40382e" fill-opacity="0.501961" points="36,108 44,144 68,169" />
<polygon fill="#cbcbc5" fill-opacity="0.501961" points="201,5 171,-8 177,-16" />
<polygon fill="#695d47" fill-opacity="0.501961" points="35,11 35,60 59,52" />
<polygon fill="#be721e" fill-opacity="0.501961" points="124,92 117,97 123,95" />
<polygon fill="#dcbf93" fill-opacity="0.501961" points="129,82 117,85 113,94" />
<polygon fill="#ffff94" fill-opacity="0.501961" points="124,112 137,110 126,119" />
<polygon fill="#3e382a" fill-opacity="0.501961" points="25,175 -16,113 -1,93" />
<polygon fill="#605c51" fill-opacity="0.501961" points="38,16 79,-3 3,-16" />
<polygon fill="#4a4925" fill-opacity="0.501961" points="254,153 237,129 223,131" />
<polygon fill="#87755f" fill-opacity="0.501961" points="102,-14 125,6 80,36" />
<polygon fill="#a69880" fill-opacity="0.501961" points="105,26 102,34 116,21" />
<polygon fill="#92816d" fill-opacity="0.501961" points="176,75 169,75 161,85" />
<polygon fill="#937f52" fill-opacity="0.501961" points="179,73 170,48 145,59" />
<polygon fill="#554a38" fill-opacity="0.501961" points="132,146 155,127 145,148" />
<polygon fill="#9c855f" fill-opacity="0.501961" points="165,40 112,51 155,61" />
<polygon fill="#8a7a5e" fill-opacity="0.501961" points="133,22 158,41 129,30" />
<polygon fill="#c9b9a1" fill-opacity="0.501961" points="144,92 143,86 154,90" />
<polygon fill="#595043" fill-opacity="0.501961" points="104,70 99,60 95,62" />
<polygon fill="#daccb2" fill-opacity="0.501961" points="218,53 224,45 232,44" />
<polygon fill="#2c2b29" fill-opacity="0.501961" points="8,82 29,107 17,80" />
<polygon fill="#817253" fill-opacity="0.501961" points="200,45 210,52 230,43" />
<polygon fill="#796441" fill-opacity="0.501961" points="168,134 195,128 192,164" />
<polygon fill="#64563d" fill-opacity="0.501961" points="90,127 52,110 63,148" />
<polygon fill="#ffda4d" fill-opacity="0.501961" points="120,108 127,120 116,119" />
<polygon fill="#927145" fill-opacity="0.501961" points="97,130 115,128 104,117" />
<polygon fill="#89734a" fill-opacity="0.501961" points="100,77 90,118 109,86" />
<polygon fill="#61593a" fill-opacity="0.501961" points="235,44 225,60 250,50" />
<polygon fill="#fff929" fill-opacity="0.501961" points="122,108 126,102 122,103" />
<polygon fill="#5e592e" fill-opacity="0.501961" points="223,96 241,63 243,92" />
<polygon fill="#555240" fill-opacity="0.501961" points="25,153 17,146 24,168" />
<polygon fill="#907d4f" fill-opacity="0.501961" points="183,116 182,93 170,86" />
<polygon fill="#968869" fill-opacity="0.501961" points="195,68 180,80 188,81" />
<polygon fill="#fad389" fill-opacity="0.501961" points="113,97 117,94 109,87" />
<polygon fill="#553f2b" fill-opacity="0.501961" points="156,111 148,138 133,136" />
<polygon fill="#f3e5ce" fill-opacity="0.501961" points="194,65 197,66 197,63" />
<polygon fill="#fff57e" fill-opacity="0.501961" points="135,104 134,112 142,114" />
<polygon fill="#675e40" fill-opacity="0.501961" points="41,92 50,78 29,94" />
<polygon fill="#92471b" fill-opacity="0.501961" points="126,126 135,130 134,125" />
<polygon fill="#ffe03a" fill-opacity="0.501961" points="134,101 129,102 135,110" />
<polygon fill="#817041" fill-opacity="0.501961" points="174,115 161,120 156,95" />
<polygon fill="#96896f" fill-opacity="0.501961" points="194,64 194,58 204,57" />
<polygon fill="#61503e" fill-opacity="0.501961" points="158,133 179,123 179,113" />
<polygon fill="#5b5241" fill-opacity="0.501961" points="8,55 38,61 27,2" />
<polygon fill="#877b52" fill-opacity="0.501961" points="160,49 186,3 181,31" />
<polygon fill="#816c4b" fill-opacity="0.501961" points="133,84 145,74 127,74" />
<polygon fill="#3f4544" fill-opacity="0.501961" points="39,-16 -6,-9 -12,17" />
<polygon fill="#746b55" fill-opacity="0.501961" points="50,30 53,-1 94,12" />
<polygon fill="#827561" fill-opacity="0.501961" points="87,-16 73,12 176,-8" />
<polygon fill="#806f50" fill-opacity="0.501961" points="105,31 118,26 121,17" />
<polygon fill="#f1dbb7" fill-opacity="0.501961" points="109,92 109,96 101,100" />
<polygon fill="#8d7d61" fill-opacity="0.501961" points="115,20 135,4 163,3" />
<polygon fill="#6d6d31" fill-opacity="0.501961" points="204,75 200,85 187,86" />
<polygon fill="#e9c191" fill-opacity="0.501961" points="129,89 124,89 128,100" />
<polygon fill="#9a754b" fill-opacity="0.501961" points="108,111 102,106 105,115" />
<polygon fill="#edb06e" fill-opacity="0.501961" points="134,97 137,89 133,93" />
<polygon fill="#6a6559" fill-opacity="0.501961" points="131,6 106,19 117,19" />
<polygon fill="#ffc05e" fill-opacity="0.501961" points="134,123 135,116 143,115" />
<polygon fill="#88704b" fill-opacity="0.501961" points="167,136 184,119 185,136" />
<polygon fill="#81784d" fill-opacity="0.501961" points="162,83 136,71 153,88" />
<polygon fill="#96805c" fill-opacity="0.501961" points="119,85 128,65 100,51" />
<polygon fill="#ffcc6c" fill-opacity="0.501961" points="141,94 143,90 132,88" />
<polygon fill="#ffff9a" fill-opacity="0.501961" points="131,106 133,103 135,105" />
<polygon fill="#605142" fill-opacity="0.501961" points="198,110 187,101 201,131" />
<polygon fill="#615849" fill-opacity="0.501961" points="143,61 129,58 138,63" />
<polygon fill="#f59535" fill-opacity="0.501961" points="137,100 139,105 131,99" />
<polygon fill="#fea839" fill-opacity="0.501961" points="144,117 135,114 139,120" />
<polygon fill="#4d493b" fill-opacity="0.501961" points="15,78 31,57 6,59" />
<polygon fill="#5c5643" fill-opacity="0.501961" points="15,105 10,102 11,96" />
<polygon fill="#5d4d37" fill-opacity="0.501961" points="221,132 227,151 251,154" />
<polygon fill="#cdc7b3" fill-opacity="0.501961" points="243,42 247,47 250,47" />
<polygon fill="#8b7a57" fill-opacity="0.501961" points="214,3 223,25 200,4" />
<polygon fill="#675946" fill-opacity="0.501961" points="175,83 182,81 190,103" />
<polygon fill="#504d3b" fill-opacity="0.501961" points="232,7 215,7 226,11" />
<polygon fill="#766a58" fill-opacity="0.501961" points="100,31 104,20 117,16" />
<polygon fill="#71633f" fill-opacity="0.501961" points="76,97 102,98 85,107" />
<polygon fill="#76674d" fill-opacity="0.501961" points="245,43 261,44 232,31" />
<polygon fill="#4f492e" fill-opacity="0.501961" points="245,69 268,60 271,33" />
<polygon fill="#9e8964" fill-opacity="0.501961" points="174,49 196,56 161,33" />
<polygon fill="#a59b8b" fill-opacity="0.501961" points="11,105 10,115 19,123" />
<polygon fill="#a69275" fill-opacity="0.501961" points="137,27 140,19 154,31" />
<polygon fill="#968e80" fill-opacity="0.501961" points="27,155 21,143 27,142" />
<polygon fill="#4f4538" fill-opacity="0.501961" points="89,136 70,139 76,146" />
<polygon fill="#8a764d" fill-opacity="0.501961" points="182,82 201,115 193,75" />
<polygon fill="#655849" fill-opacity="0.501961" points="149,68 159,67 143,62" />
<polygon fill="#8f7654" fill-opacity="0.501961" points="119,88 88,82 106,80" />
<polygon fill="#5c5240" fill-opacity="0.501961" points="28,146 37,139 18,116" />
<polygon fill="#4d4431" fill-opacity="0.501961" points="67,175 43,168 25,108" />
<polygon fill="#5f6030" fill-opacity="0.501961" points="217,106 203,103 218,118" />
<polygon fill="#eadcc5" fill-opacity="0.501961" points="129,80 131,84 125,86" />
<polygon fill="#615932" fill-opacity="0.501961" points="194,139 211,148 211,166" />
<polygon fill="#e0d2bb" fill-opacity="0.501961" points="126,85 122,84 124,78" />
<polygon fill="#544b3e" fill-opacity="0.501961" points="172,140 161,130 175,155" />
<polygon fill="#7e6543" fill-opacity="0.501961" points="208,128 194,105 206,97" />
<polygon fill="#88837a" fill-opacity="0.501961" points="130,17 124,19 124,3" />
<polygon fill="#856944" fill-opacity="0.501961" points="147,158 128,153 163,141" />
<polygon fill="#4d482b" fill-opacity="0.501961" points="111,158 99,150 94,135" />
<polygon fill="#877a62" fill-opacity="0.501961" points="88,53 94,33 95,42" />
<polygon fill="#cbc1aa" fill-opacity="0.501961" points="224,28 229,31 225,31" />
<polygon fill="#aea48b" fill-opacity="0.501961" points="97,39 97,42 101,35" />
<polygon fill="#8e7858" fill-opacity="0.501961" points="96,103 95,114 102,100" />
<polygon fill="#76674b" fill-opacity="0.501961" points="232,34 223,24 234,-1" />
<polygon fill="#f1aa44" fill-opacity="0.501961" points="111,99 113,102 106,101" />
<polygon fill="#fd9000" fill-opacity="0.501961" points="127,122 130,124 133,121" />
<polygon fill="#6c5b45" fill-opacity="0.501961" points="104,102 88,125 99,123" />
<polygon fill="#eadfc7" fill-opacity="0.501961" points="201,63 205,57 208,59" />
<polygon fill="#796e49" fill-opacity="0.501961" points="122,76 153,77 139,83" />
<polygon fill="#a09786" fill-opacity="0.501961" points="8,108 4,95 15,110" />
<polygon fill="#857a54" fill-opacity="0.501961" points="102,48 104,34 98,40" />
<polygon fill="#9f8a6a" fill-opacity="0.501961" points="123,26 108,33 154,43" />
<polygon fill="#938362" fill-opacity="0.501961" points="168,42 188,-16 150,21" />
<polygon fill="#98825e" fill-opacity="0.501961" points="94,51 112,74 154,69" />
<polygon fill="#756244" fill-opacity="0.501961" points="248,59 243,67 239,53" />
<polygon fill="#957040" fill-opacity="0.501961" points="111,120 99,118 122,137" />
<polygon fill="#857250" fill-opacity="0.501961" points="196,46 205,58 213,22" />
<polygon fill="#7a4426" fill-opacity="0.501961" points="134,131 151,114 146,125" />
<polygon fill="#897a5a" fill-opacity="0.501961" points="84,66 90,50 54,79" />
<polygon fill="#d0c6af" fill-opacity="0.501961" points="244,43 230,35 237,42" />
<polygon fill="#34302b" fill-opacity="0.501961" points="29,109 34,101 37,116" />
<polygon fill="#a09381" fill-opacity="0.501961" points="16,115 19,111 19,114" />
<polygon fill="#655943" fill-opacity="0.501961" points="240,44 234,49 255,52" />
<polygon fill="#fe9d27" fill-opacity="0.501961" points="114,120 117,118 126,124" />
<polygon fill="#76785e" fill-opacity="0.501961" points="230,64 221,63 224,58" />
<polygon fill="#cfc1a7" fill-opacity="0.501961" points="204,11 206,15 213,17" />
<polygon fill="#a49b8d" fill-opacity="0.501961" points="19,124 25,140 17,133" />
<polygon fill="#7d7355" fill-opacity="0.501961" points="233,37 192,3 202,23" />
<polygon fill="#3d362b" fill-opacity="0.501961" points="76,142 53,154 44,172" />
<polygon fill="#5d543d" fill-opacity="0.501961" points="26,105 48,92 49,79" />
<polygon fill="#918776" fill-opacity="0.501961" points="-16,83 0,83 3,89" />
<polygon fill="#61554a" fill-opacity="0.501961" points="4,92 7,86 11,94" />
<polygon fill="#4c482c" fill-opacity="0.501961" points="246,98 250,108 271,101" />
<polygon fill="#61503f" fill-opacity="0.501961" points="128,147 111,163 111,146" />
<polygon fill="#5b432b" fill-opacity="0.501961" points="133,136 120,127 122,134" />
<polygon fill="#9c8c68" fill-opacity="0.501961" points="168,74 170,77 160,78" />
<polygon fill="#736c46" fill-opacity="0.501961" points="208,25 206,35 198,15" />
<polygon fill="#7c6f4e" fill-opacity="0.501961" points="228,48 210,62 232,53" />
<polygon fill="#644f32" fill-opacity="0.501961" points="159,152 164,173 125,175" />
<polygon fill="#64563c" fill-opacity="0.501961" points="58,151 66,89 96,121" />
<polygon fill="#958464" fill-opacity="0.501961" points="160,96 170,107 166,99" />
<polygon fill="#f4ba6e" fill-opacity="0.501961" points="105,103 105,109 114,109" />
<polygon fill="#72613e" fill-opacity="0.501961" points="196,126 206,140 169,148" />
<polygon fill="#d1995f" fill-opacity="0.501961" points="149,96 144,96 145,102" />
<polygon fill="#4c4d3b" fill-opacity="0.501961" points="0,92 7,107 -16,101" />
<polygon fill="#4a4841" fill-opacity="0.501961" points="86,52 70,62 79,52" />
<polygon fill="#625239" fill-opacity="0.501961" points="73,125 110,169 82,108" />
<polygon fill="#877446" fill-opacity="0.501961" points="157,108 153,98 164,98" />
<polygon fill="#3b3a32" fill-opacity="0.501961" points="26,92 41,84 14,82" />
<polygon fill="#f4eddd" fill-opacity="0.501961" points="156,92 166,86 160,87" />
<polygon fill="#79633d" fill-opacity="0.501961" points="130,135 114,145 142,140" />
<polygon fill="#ffd374" fill-opacity="0.501961" points="140,117 144,113 136,104" />
<polygon fill="#4f4a3d" fill-opacity="0.501961" points="29,105 14,110 31,112" />
<polygon fill="#624e39" fill-opacity="0.501961" points="243,139 262,128 249,144" />
<polygon fill="#807343" fill-opacity="0.501961" points="182,56 166,64 176,55" />
<polygon fill="#ffe488" fill-opacity="0.501961" points="111,119 117,113 118,115" />
<polygon fill="#575245" fill-opacity="0.501961" points="93,45 102,51 94,49" />
<polygon fill="#645835" fill-opacity="0.501961" points="153,112 157,115 164,105" />
<polygon fill="#716047" fill-opacity="0.501961" points="64,73 65,84 41,98" />
<polygon fill="#93815d" fill-opacity="0.501961" points="172,61 186,61 178,75" />
<polygon fill="#94865d" fill-opacity="0.501961" points="169,91 178,84 170,87" />
<polygon fill="#e4ddc9" fill-opacity="0.501961" points="255,50 271,44 264,51" />
<polygon fill="#383b31" fill-opacity="0.501961" points="245,5 242,11 250,8" />
<polygon fill="#f09a29" fill-opacity="0.501961" points="117,98 114,113 127,93" />
<polygon fill="#5e623a" fill-opacity="0.501961" points="137,81 148,79 137,78" />
<polygon fill="#575047" fill-opacity="0.501961" points="88,52 98,64 94,52" />
<polygon fill="#483b2d" fill-opacity="0.501961" points="141,123 157,139 150,126" />
<polygon fill="#897452" fill-opacity="0.501961" points="130,80 167,74 154,68" />
<polygon fill="#90784d" fill-opacity="0.501961" points="159,114 172,120 162,123" />
<polygon fill="#e0d2ba" fill-opacity="0.501961" points="207,57 212,56 215,52" />
<polygon fill="#feff7c" fill-opacity="0.501961" points="132,117 136,120 131,107" />
<polygon fill="#685840" fill-opacity="0.501961" points="253,47 248,25 271,47" />
<polygon fill="#7a6043" fill-opacity="0.501961" points="124,134 127,175 146,175" />
<polygon fill="#f5ead1" fill-opacity="0.501961" points="177,79 176,77 169,80" />
<polygon fill="#ffcf2a" fill-opacity="0.501961" points="123,116 119,110 122,103" />
<polygon fill="#6b553c" fill-opacity="0.501961" points="239,128 235,98 220,128" />
<polygon fill="#6a5a4d" fill-opacity="0.501961" points="151,76 165,82 159,77" />
<polygon fill="#665a42" fill-opacity="0.501961" points="251,-16 259,2 234,5" />
<polygon fill="#665c43" fill-opacity="0.501961" points="250,13 250,20 226,15" />
<polygon fill="#7b6f53" fill-opacity="0.501961" points="234,39 206,55 222,36" />
<polygon fill="#edc27f" fill-opacity="0.501961" points="117,90 111,88 116,98" />
<polygon fill="#7a754f" fill-opacity="0.501961" points="188,9 177,22 180,11" />
<polygon fill="#ecdfc9" fill-opacity="0.501961" points="193,65 201,63 190,70" />
<polygon fill="#7b6a4f" fill-opacity="0.501961" points="84,33 71,23 52,55" />
<polygon fill="#91794a" fill-opacity="0.501961" points="120,74 111,73 120,83" />
<polygon fill="#33342e" fill-opacity="0.501961" points="20,108 26,97 30,100" />
<polygon fill="#e09233" fill-opacity="0.501961" points="144,122 145,116 142,122" />
<polygon fill="#425948" fill-opacity="0.501961" points="129,25 121,23 127,21" />
<polygon fill="#978363" fill-opacity="0.501961" points="93,45 126,51 115,31" />
<polygon fill="#5d4d3b" fill-opacity="0.501961" points="152,142 135,150 140,139" />
<polygon fill="#57534a" fill-opacity="0.501961" points="63,48 56,57 71,46" />
<polygon fill="#5a503f" fill-opacity="0.501961" points="49,74 31,84 43,62" />
<polygon fill="#90825c" fill-opacity="0.501961" points="185,2 195,5 201,13" />
<polygon fill="#444a48" fill-opacity="0.501961" points="82,20 79,19 79,17" />
<polygon fill="#937d59" fill-opacity="0.501961" points="137,63 130,64 125,84" />
<polygon fill="#6f5a46" fill-opacity="0.501961" points="116,88 109,79 115,81" />
<polygon fill="#9a845f" fill-opacity="0.501961" points="136,58 158,40 149,63" />
<polygon fill="#9f9689" fill-opacity="0.501961" points="27,156 26,141 22,142" />
<polygon fill="#dfd6c4" fill-opacity="0.501961" points="150,98 147,91 154,90" />
<polygon fill="#99845e" fill-opacity="0.501961" points="123,78 101,55 136,71" />
<polygon fill="#877a56" fill-opacity="0.501961" points="180,68 187,58 188,69" />
<polygon fill="#ab9678" fill-opacity="0.501961" points="169,77 172,78 165,83" />
<polygon fill="#fdfc48" fill-opacity="0.501961" points="124,117 132,117 128,120" />
<polygon fill="#65594b" fill-opacity="0.501961" points="32,41 58,-2 27,21" />
<polygon fill="#a89e87" fill-opacity="0.501961" points="158,93 158,96 155,95" />
<polygon fill="#353632" fill-opacity="0.501961" points="26,64 27,68 31,58" />
<polygon fill="#685946" fill-opacity="0.501961" points="170,71 164,73 152,65" />
<polygon fill="#6b5c48" fill-opacity="0.501961" points="72,57 44,76 61,54" />
<polygon fill="#736148" fill-opacity="0.501961" points="36,100 66,103 43,118" />
<polygon fill="#ae6e2d" fill-opacity="0.501961" points="148,110 146,118 149,114" />
<polygon fill="#6b5c48" fill-opacity="0.501961" points="188,94 175,83 180,80" />
<polygon fill="#6d5c4b" fill-opacity="0.501961" points="127,76 136,74 139,77" />
<polygon fill="#4d4734" fill-opacity="0.501961" points="46,167 27,135 32,155" />
<polygon fill="#816e47" fill-opacity="0.501961" points="193,106 225,71 207,74" />
<polygon fill="#615430" fill-opacity="0.501961" points="186,148 178,139 180,146" />
<polygon fill="#685a49" fill-opacity="0.501961" points="111,75 113,83 100,69" />
<polygon fill="#d9d3c4" fill-opacity="0.501961" points="200,7 196,2 197,-4" />
<polygon fill="#766043" fill-opacity="0.501961" points="74,149 81,171 98,153" />
<polygon fill="#fabd62" fill-opacity="0.501961" points="115,111 113,116 106,114" />
<polygon fill="#615137" fill-opacity="0.501961" points="238,126 234,103 261,112" />
<polygon fill="#938454" fill-opacity="0.501961" points="148,77 162,84 159,87" />
<polygon fill="#c2b59c" fill-opacity="0.501961" points="227,29 220,27 217,21" />
</g>
</svg>