<svg xmlns="http://www.w3.org/2000/svg" version="1.1" width="1024" height="640">
<rect x="0" y="0" width="1024" height="640" fill="#2d2e3d" />
<g transform="scale(4.000000) translate(0.5 0.5)">
<polygon fill="#ffe7bf" fill-opacity="0.501961" points="17,145 80,166 84,92" />
<polygon fill="#b68f8b" fill-opacity="0.501961" points="194,110 53,149 246,150" />
<polygon fill="#000011" fill-opacity="0.501961" points="-16,5 269,-16 246,110" />
<polygon fill="#ffffef" fill-opacity="0.501961" points="72,160 80,93 50,166" />
<polygon fill="#725c6b" fill-opacity="0.501961" points="39,154 -16,144 96,71" />
<polygon fill="#00091e" fill-opacity="0.501961" points="60,122 117,-16 -16,2" />
<polygon fill="#ffbe89" fill-opacity="0.501961" points="163,149 188,130 226,147" />
<polygon fill="#343f5d" fill-opacity="0.501961" points="77,173 83,102 271,91" />
<polygon fill="#93825e" fill-opacity="0.501961" points="119,16 80,86 89,45" />
<polygon fill="#121d36" fill-opacity="0.501961" points="79,104 105,35 271,95" />
<polygon fill="#3b4565" fill-opacity="0.501961" points="83,74 -16,121 58,136" />
<polygon fill="#d68762" fill-opacity="0.501961" points="-11,149 63,149 22,133" />
<polygon fill="#000513" fill-opacity="0.501961" points="-16,129 -16,-8 57,-14" />
<polygon fill="#fff9c9" fill-opacity="0.501961" points="84,89 85,75 76,97" />
<polygon fill="#ffbd7c" fill-opacity="0.501961" points="181,140 197,142 192,163" />
<polygon fill="#724f5f" fill-opacity="0.501961" points="229,112 251,144 146,129" />
<polygon fill="#9c8676" fill-opacity="0.501961" points="71,159 99,133 77,110" />
<polygon fill="#1d1e10" fill-opacity="0.501961" points="50,150 -16,152 51,175" />
<polygon fill="#122139" fill-opacity="0.501961" points="-16,79 102,32 68,102" />
<polygon fill="#000717" fill-opacity="0.501961" points="100,-9 271,-16 265,50" />
<polygon fill="#c9a16a" fill-opacity="0.501961" points="110,26 133,4 119,11" />
<polygon fill="#ffffff" fill-opacity="0.501961" points="73,123 66,173 51,174" />
<polygon fill="#17271b" fill-opacity="0.501961" points="71,153 153,148 79,175" />
<polygon fill="#5f556f" fill-opacity="0.501961" points="68,114 -16,125 18,149" />
<polygon fill="#292e48" fill-opacity="0.501961" points="249,72 271,162 165,73" />
<polygon fill="#3b506c" fill-opacity="0.501961" points="96,150 164,151 82,108" />
<polygon fill="#b47167" fill-opacity="0.501961" points="144,142 231,140 182,128" />
<polygon fill="#071224" fill-opacity="0.501961" points="117,19 90,68 271,39" />
<polygon fill="#171e0c" fill-opacity="0.501961" points="206,174 237,144 267,161" />
<polygon fill="#4e4929" fill-opacity="0.501961" points="145,150 192,164 245,149" />
<polygon fill="#dfc395" fill-opacity="0.501961" points="66,162 76,129 81,146" />
<polygon fill="#dbbe97" fill-opacity="0.501961" points="99,38 99,46 107,30" />
<polygon fill="#b78f6f" fill-opacity="0.501961" points="53,135 49,175 75,109" />
<polygon fill="#101931" fill-opacity="0.501961" points="89,77 240,19 271,86" />
<polygon fill="#0b1321" fill-opacity="0.501961" points="-16,34 85,63 124,-4" />
<polygon fill="#705b49" fill-opacity="0.501961" points="86,79 78,111 87,132" />
<polygon fill="#463d52" fill-opacity="0.501961" points="251,136 143,112 246,105" />
<polygon fill="#ffb157" fill-opacity="0.501961" points="21,149 51,148 42,142" />
<polygon fill="#b7a793" fill-opacity="0.501961" points="96,55 98,43 89,62" />
<polygon fill="#ffd996" fill-opacity="0.501961" points="188,175 204,175 191,153" />
<polygon fill="#f7b99f" fill-opacity="0.501961" points="173,148 212,147 191,137" />
<polygon fill="#233150" fill-opacity="0.501961" points="57,122 59,71 -16,92" />
<polygon fill="#161929" fill-opacity="0.501961" points="91,65 104,38 163,86" />
<polygon fill="#77a4a8" fill-opacity="0.501961" points="122,151 118,144 109,149" />
<polygon fill="#3b4563" fill-opacity="0.501961" points="130,150 169,115 81,122" />
<polygon fill="#1e2526" fill-opacity="0.501961" points="217,175 143,146 77,160" />
<polygon fill="#d77049" fill-opacity="0.501961" points="234,148 218,139 212,147" />
<polygon fill="#fbedd4" fill-opacity="0.501961" points="76,108 51,169 71,150" />
<polygon fill="#414337" fill-opacity="0.501961" points="52,149 12,149 55,164" />
<polygon fill="#594f4f" fill-opacity="0.501961" points="216,121 230,150 254,151" />
<polygon fill="#c36e4d" fill-opacity="0.501961" points="179,133 177,148 155,149" />
<polygon fill="#050d17" fill-opacity="0.501961" points="139,-4 3,-1 104,24" />
<polygon fill="#a29782" fill-opacity="0.501961" points="83,81 89,79 90,60" />
<polygon fill="#b1946f" fill-opacity="0.501961" points="109,30 115,18 105,29" />
<polygon fill="#1b2842" fill-opacity="0.501961" points="166,104 92,117 87,75" />
<polygon fill="#755f45" fill-opacity="0.501961" points="73,110 81,83 54,127" />
<polygon fill="#a37950" fill-opacity="0.501961" points="134,4 143,7 129,7" />
<polygon fill="#030e1b" fill-opacity="0.501961" points="201,31 119,17 180,-16" />
<polygon fill="#403529" fill-opacity="0.501961" points="80,163 86,150 73,151" />
<polygon fill="#78565e" fill-opacity="0.501961" points="201,120 152,150 138,137" />
<polygon fill="#132039" fill-opacity="0.501961" points="73,69 -16,104 22,34" />
<polygon fill="#00030a" fill-opacity="0.501961" points="-14,-11 -16,81 36,-16" />
<polygon fill="#be6d47" fill-opacity="0.501961" points="7,150 -16,137 7,137" />
<polygon fill="#434a69" fill-opacity="0.501961" points="34,104 63,125 4,120" />
<polygon fill="#1e1118" fill-opacity="0.501961" points="222,175 271,150 209,154" />
<polygon fill="#766071" fill-opacity="0.501961" points="60,133 -14,144 24,127" />
<polygon fill="#c79788" fill-opacity="0.501961" points="61,151 35,140 64,137" />
<polygon fill="#020b18" fill-opacity="0.501961" points="126,3 271,25 249,-16" />
<polygon fill="#ffffff" fill-opacity="0.501961" points="61,156 69,137 65,175" />
<polygon fill="#505c75" fill-opacity="0.501961" points="127,146 87,147 83,123" />
<polygon fill="#2c241a" fill-opacity="0.501961" points="88,52 92,36 110,24" />
<polygon fill="#1a191b" fill-opacity="0.501961" points="110,28 126,11 105,53" />
<polygon fill="#bda7aa" fill-opacity="0.501961" points="210,147 197,149 198,138" />
<polygon fill="#151e35" fill-opacity="0.501961" points="89,69 91,93 180,78" />
<polygon fill="#2a2b40" fill-opacity="0.501961" points="271,115 206,79 134,99" />
<polygon fill="#917079" fill-opacity="0.501961" points="58,128 25,140 57,141" />
<polygon fill="#ba9970" fill-opacity="0.501961" points="124,10 119,17 118,13" />
<polygon fill="#dcc9ab" fill-opacity="0.501961" points="77,98 83,87 79,105" />
<polygon fill="#2d3e60" fill-opacity="0.501961" points="87,101 147,130 95,129" />
<polygon fill="#ec9765" fill-opacity="0.501961" points="198,138 169,144 177,149" />
<polygon fill="#2b7039" fill-opacity="0.501961" points="238,149 266,146 253,152" />
<polygon fill="#baa184" fill-opacity="0.501961" points="103,36 96,43 98,46" />
<polygon fill="#10162a" fill-opacity="0.501961" points="61,68 21,10 99,41" />
<polygon fill="#182038" fill-opacity="0.501961" points="271,107 148,71 254,59" />
<polygon fill="#f9a058" fill-opacity="0.501961" points="2,147 10,148 8,144" />
<polygon fill="#734d50" fill-opacity="0.501961" points="27,149 -8,125 11,148" />
<polygon fill="#f3e9d2" fill-opacity="0.501961" points="73,144 65,151 78,148" />
<polygon fill="#967d6d" fill-opacity="0.501961" points="76,142 88,148 79,105" />
<polygon fill="#3d3632" fill-opacity="0.501961" points="68,108 85,69 71,86" />
<polygon fill="#423b4e" fill-opacity="0.501961" points="231,109 180,102 129,127" />
<polygon fill="#36444b" fill-opacity="0.501961" points="157,152 121,151 138,139" />
<polygon fill="#ccb28a" fill-opacity="0.501961" points="70,142 77,111 78,134" />
<polygon fill="#b2a191" fill-opacity="0.501961" points="87,76 81,82 87,69" />
<polygon fill="#fff5c9" fill-opacity="0.501961" points="190,149 190,142 187,143" />
<polygon fill="#a58653" fill-opacity="0.501961" points="42,175 62,169 53,149" />
<polygon fill="#d69b61" fill-opacity="0.501961" points="233,149 224,145 223,148" />
<polygon fill="#ce8c75" fill-opacity="0.501961" points="172,139 199,146 206,136" />
<polygon fill="#6d5442" fill-opacity="0.501961" points="144,9 147,15 138,6" />
<polygon fill="#25201c" fill-opacity="0.501961" points="97,35 101,22 120,12" />
<polygon fill="#ffbf2e" fill-opacity="0.501961" points="32,146 39,150 44,148" />
<polygon fill="#4c2724" fill-opacity="0.501961" points="156,155 188,175 188,152" />
<polygon fill="#36322d" fill-opacity="0.501961" points="86,79 88,90 94,65" />
<polygon fill="#1d181e" fill-opacity="0.501961" points="47,153 -12,154 20,175" />
<polygon fill="#343e3a" fill-opacity="0.501961" points="1,151 21,148 36,155" />
<polygon fill="#0b111d" fill-opacity="0.501961" points="127,10 167,31 116,20" />
<polygon fill="#74484d" fill-opacity="0.501961" points="149,148 152,142 171,149" />
<polygon fill="#091222" fill-opacity="0.501961" points="55,3 -16,33 3,66" />
<polygon fill="#442828" fill-opacity="0.501961" points="234,156 194,153 199,175" />
<polygon fill="#5b5871" fill-opacity="0.501961" points="58,131 14,130 65,117" />
<polygon fill="#976867" fill-opacity="0.501961" points="181,129 214,132 230,148" />
<polygon fill="#9d7a4a" fill-opacity="0.501961" points="76,153 67,175 51,175" />
<polygon fill="#2e494e" fill-opacity="0.501961" points="80,154 112,149 95,147" />
<polygon fill="#0a1023" fill-opacity="0.501961" points="197,46 137,4 240,15" />
<polygon fill="#584f61" fill-opacity="0.501961" points="149,148 123,137 158,128" />
<polygon fill="#232e48" fill-opacity="0.501961" points="35,66 45,89 -16,122" />
<polygon fill="#724553" fill-opacity="0.501961" points="238,145 216,123 227,147" />
<polygon fill="#302b40" fill-opacity="0.501961" points="271,141 250,130 234,149" />
<polygon fill="#6b6172" fill-opacity="0.501961" points="93,140 84,151 81,116" />
<polygon fill="#152035" fill-opacity="0.501961" points="-4,60 90,56 72,89" />
<polygon fill="#d1c2af" fill-opacity="0.501961" points="78,91 85,80 82,90" />
<polygon fill="#9dbbc6" fill-opacity="0.501961" points="119,148 115,150 116,147" />
<polygon fill="#a46b61" fill-opacity="0.501961" points="169,147 182,130 157,144" />
<polygon fill="#0b1121" fill-opacity="0.501961" points="68,38 133,4 74,11" />
<polygon fill="#f27b35" fill-opacity="0.501961" points="190,153 191,175 186,170" />
<polygon fill="#373121" fill-opacity="0.501961" points="102,41 94,57 99,57" />
<polygon fill="#1b1e24" fill-opacity="0.501961" points="161,154 161,175 84,156" />
<polygon fill="#e5ceac" fill-opacity="0.501961" points="66,137 64,149 55,149" />
<polygon fill="#40415a" fill-opacity="0.501961" points="46,112 59,121 73,96" />
<polygon fill="#5a495a" fill-opacity="0.501961" points="242,135 220,118 175,120" />
<polygon fill="#0a0f18" fill-opacity="0.501961" points="247,152 235,170 271,150" />
<polygon fill="#262d48" fill-opacity="0.501961" points="271,108 251,129 214,84" />
<polygon fill="#7e5f65" fill-opacity="0.501961" points="209,132 183,125 157,134" />
<polygon fill="#1e2239" fill-opacity="0.501961" points="180,69 261,89 109,92" />
<polygon fill="#618853" fill-opacity="0.501961" points="205,151 215,147 227,151" />
<polygon fill="#252f4a" fill-opacity="0.501961" points="148,113 86,91 86,113" />
<polygon fill="#fc9a6a" fill-opacity="0.501961" points="211,147 215,145 221,148" />
<polygon fill="#43526d" fill-opacity="0.501961" points="110,149 132,139 85,121" />
<polygon fill="#495542" fill-opacity="0.501961" points="187,156 190,149 170,149" />
<polygon fill="#0e172e" fill-opacity="0.501961" points="271,87 204,56 258,36" />
<polygon fill="#2d3754" fill-opacity="0.501961" points="63,105 -3,112 20,96" />
<polygon fill="#866e61" fill-opacity="0.501961" points="68,115 65,125 56,126" />
<polygon fill="#ba837a" fill-opacity="0.501961" points="188,135 217,148 215,139" />
<polygon fill="#c48471" fill-opacity="0.501961" points="27,150 38,137 51,140" />
<polygon fill="#534455" fill-opacity="0.501961" points="207,116 139,130 174,112" />
<polygon fill="#c5af89" fill-opacity="0.501961" points="68,132 59,141 67,125" />
<polygon fill="#aaa299" fill-opacity="0.501961" points="92,57 88,65 91,63" />
<polygon fill="#dcc29c" fill-opacity="0.501961" points="57,153 67,174 50,173" />
<polygon fill="#476347" fill-opacity="0.501961" points="203,149 198,153 192,151" />
<polygon fill="#111729" fill-opacity="0.501961" points="109,31 92,72 159,62" />
<polygon fill="#000410" fill-opacity="0.501961" points="271,23 201,-16 269,-15" />
<polygon fill="#736447" fill-opacity="0.501961" points="81,97 84,85 86,90" />
<polygon fill="#406744" fill-opacity="0.501961" points="241,145 251,151 226,150" />
<polygon fill="#fff7c6" fill-opacity="0.501961" points="190,144 186,148 195,148" />
<polygon fill="#413320" fill-opacity="0.501961" points="100,38 93,42 90,55" />
<polygon fill="#483347" fill-opacity="0.501961" points="243,148 232,146 244,127" />
<polygon fill="#0a1120" fill-opacity="0.501961" points="101,52 159,27 141,10" />
<polygon fill="#1c273e" fill-opacity="0.501961" points="-12,85 59,67 74,91" />
<polygon fill="#804b4a" fill-opacity="0.501961" points="-4,142 -5,131 7,144" />
<polygon fill="#0f192e" fill-opacity="0.501961" points="81,58 30,31 -11,61" />
<polygon fill="#eda57e" fill-opacity="0.501961" points="196,149 196,139 187,139" />
<polygon fill="#fec192" fill-opacity="0.501961" points="202,172 191,163 191,155" />
<polygon fill="#b9c0bf" fill-opacity="0.501961" points="200,149 205,148 203,144" />
<polygon fill="#fcf6ec" fill-opacity="0.501961" points="73,123 74,116 69,126" />
<polygon fill="#6b5132" fill-opacity="0.501961" points="37,175 52,150 49,175" />
<polygon fill="#c7ad88" fill-opacity="0.501961" points="69,117 71,122 67,129" />
<polygon fill="#101626" fill-opacity="0.501961" points="86,61 100,27 59,31" />
<polygon fill="#282124" fill-opacity="0.501961" points="240,151 208,153 227,161" />
<polygon fill="#bba68b" fill-opacity="0.501961" points="110,26 104,30 104,35" />
<polygon fill="#30281b" fill-opacity="0.501961" points="105,28 98,29 103,34" />
<polygon fill="#000006" fill-opacity="0.501961" points="0,-15 -5,25 20,-2" />
<polygon fill="#052b4c" fill-opacity="0.501961" points="229,28 234,26 234,19" />
<polygon fill="#9c895d" fill-opacity="0.501961" points="79,116 78,106 82,98" />
<polygon fill="#cba275" fill-opacity="0.501961" points="124,8 120,12 127,9" />
<polygon fill="#080f1c" fill-opacity="0.501961" points="142,-16 121,11 92,8" />
<polygon fill="#ecddc8" fill-opacity="0.501961" points="80,96 73,110 78,106" />
<polygon fill="#6b5b47" fill-opacity="0.501961" points="80,111 85,113 82,97" />
<polygon fill="#57312b" fill-opacity="0.501961" points="187,153 146,172 191,169" />
<polygon fill="#42405d" fill-opacity="0.501961" points="96,127 85,99 88,132" />
<polygon fill="#8e5956" fill-opacity="0.501961" points="213,134 228,139 230,147" />
<polygon fill="#273757" fill-opacity="0.501961" points="121,123 89,110 149,113" />
<polygon fill="#edd09e" fill-opacity="0.501961" points="79,149 75,148 80,146" />
<polygon fill="#302827" fill-opacity="0.501961" points="165,175 172,152 144,154" />
<polygon fill="#3f393a" fill-opacity="0.501961" points="9,147 9,150 14,152" />
<polygon fill="#a68860" fill-opacity="0.501961" points="74,108 76,102 68,111" />
<polygon fill="#2f2f42" fill-opacity="0.501961" points="218,103 135,109 177,91" />
<polygon fill="#653e35" fill-opacity="0.501961" points="203,175 197,152 185,175" />
<polygon fill="#ed9155" fill-opacity="0.501961" points="225,148 214,148 216,145" />
<polygon fill="#c2b2a2" fill-opacity="0.501961" points="115,20 113,23 109,24" />
<polygon fill="#8f7a56" fill-opacity="0.501961" points="73,99 77,98 78,92" />
<polygon fill="#30271c" fill-opacity="0.501961" points="117,24 112,26 120,17" />
<polygon fill="#2c5f45" fill-opacity="0.501961" points="216,149 223,149 217,151" />
<polygon fill="#ffa65a" fill-opacity="0.501961" points="33,147 51,149 42,145" />
<polygon fill="#0b1225" fill-opacity="0.501961" points="170,17 260,30 237,47" />
<polygon fill="#765860" fill-opacity="0.501961" points="161,133 163,150 146,137" />
<polygon fill="#aa7369" fill-opacity="0.501961" points="196,138 171,137 182,132" />
<polygon fill="#080f1f" fill-opacity="0.501961" points="253,20 149,28 150,-16" />
<polygon fill="#c4af86" fill-opacity="0.501961" points="74,149 71,157 70,150" />
<polygon fill="#374461" fill-opacity="0.501961" points="148,121 89,124 133,135" />
<polygon fill="#675944" fill-opacity="0.501961" points="70,111 80,87 70,99" />
<polygon fill="#202539" fill-opacity="0.501961" points="85,91 97,59 94,97" />
<polygon fill="#a17066" fill-opacity="0.501961" points="36,140 23,149 19,145" />
<polygon fill="#293149" fill-opacity="0.501961" points="17,95 63,106 74,93" />
<polygon fill="#32354c" fill-opacity="0.501961" points="232,104 197,102 261,133" />
<polygon fill="#fbad50" fill-opacity="0.501961" points="4,145 6,149 7,148" />
<polygon fill="#473f52" fill-opacity="0.501961" points="222,113 242,133 183,111" />
<polygon fill="#131012" fill-opacity="0.501961" points="12,156 -10,154 33,175" />
<polygon fill="#b15b3f" fill-opacity="0.501961" points="6,146 -16,152 -16,132" />
<polygon fill="#45514d" fill-opacity="0.501961" points="45,150 23,149 35,154" />
<polygon fill="#3d3d55" fill-opacity="0.501961" points="-2,135 24,107 -16,130" />
<polygon fill="#412d2f" fill-opacity="0.501961" points="216,175 192,152 212,153" />
<polygon fill="#fcae7b" fill-opacity="0.501961" points="187,143 175,148 187,148" />
<polygon fill="#b59a80" fill-opacity="0.501961" points="110,27 106,28 114,20" />
<polygon fill="#9a9083" fill-opacity="0.501961" points="88,69 89,61 91,62" />
<polygon fill="#040b18" fill-opacity="0.501961" points="-16,42 60,1 44,-16" />
<polygon fill="#423932" fill-opacity="0.501961" points="77,75 90,60 82,79" />
<polygon fill="#0a1121" fill-opacity="0.501961" points="108,27 101,-16 32,26" />
<polygon fill="#5c7b89" fill-opacity="0.501961" points="112,148 120,147 113,144" />
<polygon fill="#32291f" fill-opacity="0.501961" points="101,25 101,34 114,18" />
<polygon fill="#f6f6f1" fill-opacity="0.501961" points="70,150 70,129 66,143" />
<polygon fill="#fcffff" fill-opacity="0.501961" points="65,167 61,159 68,142" />
<polygon fill="#817c56" fill-opacity="0.501961" points="60,149 52,152 48,149" />
<polygon fill="#474d69" fill-opacity="0.501961" points="57,113 56,125 18,122" />
<polygon fill="#0b1221" fill-opacity="0.501961" points="110,18 63,27 102,30" />
<polygon fill="#6c6074" fill-opacity="0.501961" points="15,135 56,132 34,127" />
<polygon fill="#1d2840" fill-opacity="0.501961" points="-15,103 -16,127 30,72" />
<polygon fill="#28334d" fill-opacity="0.501961" points="128,150 125,145 143,148" />
<polygon fill="#142137" fill-opacity="0.501961" points="75,81 21,68 85,66" />
<polygon fill="#7a6f7d" fill-opacity="0.501961" points="82,133 92,134 82,141" />
<polygon fill="#b9a38b" fill-opacity="0.501961" points="93,54 97,43 98,47" />
<polygon fill="#1c1d21" fill-opacity="0.501961" points="89,36 95,36 98,44" />
<polygon fill="#050d1b" fill-opacity="0.501961" points="143,11 136,7 124,15" />
<polygon fill="#907579" fill-opacity="0.501961" points="63,130 52,140 28,139" />
<polygon fill="#22273b" fill-opacity="0.501961" points="245,91 139,95 192,78" />
<polygon fill="#a27951" fill-opacity="0.501961" points="125,7 130,8 135,5" />
<polygon fill="#0a101d" fill-opacity="0.501961" points="135,2 110,1 101,19" />
<polygon fill="#171b31" fill-opacity="0.501961" points="95,65 151,82 222,59" />
<polygon fill="#d9b07b" fill-opacity="0.501961" points="228,147 223,148 229,149" />
<polygon fill="#7b4949" fill-opacity="0.501961" points="229,141 228,147 234,147" />
<polygon fill="#453f30" fill-opacity="0.501961" points="94,59 89,70 94,64" />
<polygon fill="#7e6b58" fill-opacity="0.501961" points="81,109 84,133 79,122" />
<polygon fill="#0a1222" fill-opacity="0.501961" points="108,40 152,37 131,8" />
<polygon fill="#d5c1a5" fill-opacity="0.501961" points="68,147 73,140 75,145" />
<polygon fill="#312628" fill-opacity="0.501961" points="60,175 101,175 80,154" />
<polygon fill="#0d1220" fill-opacity="0.501961" points="132,8 167,26 148,30" />
<polygon fill="#605644" fill-opacity="0.501961" points="85,90 85,93 83,90" />
<polygon fill="#a28e6d" fill-opacity="0.501961" points="70,116 61,129 66,128" />
<polygon fill="#2d2921" fill-opacity="0.501961" points="96,45 92,41 97,42" />
<polygon fill="#485269" fill-opacity="0.501961" points="142,133 108,134 86,151" />
<polygon fill="#635034" fill-opacity="0.501961" points="73,175 78,150 65,175" />
<polygon fill="#45391d" fill-opacity="0.501961" points="99,44 106,40 105,37" />
<polygon fill="#2d281e" fill-opacity="0.501961" points="118,20 113,31 105,35" />
<polygon fill="#415f47" fill-opacity="0.501961" points="214,149 193,149 203,153" />
<polygon fill="#e6ded5" fill-opacity="0.501961" points="79,91 80,95 81,91" />
<polygon fill="#08538e" fill-opacity="0.501961" points="234,25 233,23 232,24" />
<polygon fill="#59556d" fill-opacity="0.501961" points="26,122 48,122 12,138" />
<polygon fill="#a48e6a" fill-opacity="0.501961" points="78,112 77,125 81,126" />
<polygon fill="#345a42" fill-opacity="0.501961" points="164,151 173,149 178,152" />
<polygon fill="#faf2e3" fill-opacity="0.501961" points="76,110 73,119 73,111" />
<polygon fill="#2c313a" fill-opacity="0.501961" points="232,149 271,133 258,147" />
<polygon fill="#372822" fill-opacity="0.501961" points="147,18 150,21 148,13" />
<polygon fill="#040d1a" fill-opacity="0.501961" points="129,-11 153,19 155,0" />
<polygon fill="#b7654c" fill-opacity="0.501961" points="222,146 232,147 214,140" />
<polygon fill="#c1a581" fill-opacity="0.501961" points="74,106 75,100 77,101" />
<polygon fill="#b79e75" fill-opacity="0.501961" points="74,108 71,111 70,115" />
<polygon fill="#101018" fill-opacity="0.501961" points="120,9 140,1 152,-16" />
<polygon fill="#203239" fill-opacity="0.501961" points="136,151 118,157 104,152" />
<polygon fill="#a68d7d" fill-opacity="0.501961" points="79,139 77,144 85,148" />
<polygon fill="#413031" fill-opacity="0.501961" points="193,151 203,156 209,151" />
<polygon fill="#d68f78" fill-opacity="0.501961" points="55,148 50,146 45,149" />
<polygon fill="#0d1427" fill-opacity="0.501961" points="192,56 232,25 141,27" />
<polygon fill="#1a1e28" fill-opacity="0.501961" points="102,68 94,64 107,35" />
<polygon fill="#162037" fill-opacity="0.501961" points="162,75 90,79 129,95" />
<polygon fill="#4f3c2b" fill-opacity="0.501961" points="-16,155 8,150 -12,147" />
<polygon fill="#a0bac3" fill-opacity="0.501961" points="118,149 114,150 118,147" />
<polygon fill="#557281" fill-opacity="0.501961" points="121,148 122,145 111,145" />
<polygon fill="#414157" fill-opacity="0.501961" points="147,115 180,113 132,132" />
<polygon fill="#0d1426" fill-opacity="0.501961" points="40,18 89,28 -8,53" />
<polygon fill="#c88164" fill-opacity="0.501961" points="173,145 168,141 179,140" />
<polygon fill="#be9b9a" fill-opacity="0.501961" points="207,142 201,144 213,148" />
<polygon fill="#eadcc2" fill-opacity="0.501961" points="73,136 70,145 70,134" />
<polygon fill="#69505d" fill-opacity="0.501961" points="213,123 235,138 185,123" />
<polygon fill="#dec79e" fill-opacity="0.501961" points="56,153 60,148 59,157" />
<polygon fill="#121b34" fill-opacity="0.501961" points="23,50 -16,75 69,53" />
<polygon fill="#1e2941" fill-opacity="0.501961" points="143,106 92,104 88,85" />
<polygon fill="#c68873" fill-opacity="0.501961" points="183,137 195,136 198,142" />
<polygon fill="#465d6f" fill-opacity="0.501961" points="104,145 114,139 113,151" />
<polygon fill="#493926" fill-opacity="0.501961" points="100,30 99,41 104,30" />
<polygon fill="#464043" fill-opacity="0.501961" points="84,113 89,102 84,89" />
<polygon fill="#5f4959" fill-opacity="0.501961" points="16,132 -2,129 0,139" />
<polygon fill="#565e70" fill-opacity="0.501961" points="86,150 98,139 91,131" />
<polygon fill="#594e61" fill-opacity="0.501961" points="83,129 83,106 89,126" />
<polygon fill="#583f4f" fill-opacity="0.501961" points="230,125 241,148 231,142" />
<polygon fill="#b59970" fill-opacity="0.501961" points="56,152 43,175 51,175" />
<polygon fill="#19263e" fill-opacity="0.501961" points="258,85 271,129 234,87" />
<polygon fill="#887255" fill-opacity="0.501961" points="70,108 69,115 64,120" />
<polygon fill="#7f5e47" fill-opacity="0.501961" points="132,4 135,7 139,6" />
<polygon fill="#070d19" fill-opacity="0.501961" points="147,6 122,-16 131,4" />
<polygon fill="#1c1413" fill-opacity="0.501961" points="134,7 128,9 127,13" />
<polygon fill="#2c282c" fill-opacity="0.501961" points="40,153 25,153 55,175" />
<polygon fill="#363e5d" fill-opacity="0.501961" points="24,103 59,112 13,114" />
<polygon fill="#374766" fill-opacity="0.501961" points="100,135 135,132 88,122" />
<polygon fill="#040d1c" fill-opacity="0.501961" points="144,12 136,7 148,20" />
<polygon fill="#1a222b" fill-opacity="0.501961" points="138,155 84,154 83,175" />
<polygon fill="#0d1424" fill-opacity="0.501961" points="130,52 105,51 135,7" />
<polygon fill="#ffffff" fill-opacity="0.501961" points="71,129 70,127 71,126" />
<polygon fill="#835b5d" fill-opacity="0.501961" points="16,140 6,143 25,149" />
<polygon fill="#fff238" fill-opacity="0.501961" points="38,148 40,147 40,149" />
<polygon fill="#3e3a43" fill-opacity="0.501961" points="75,94 73,88 63,106" />
<polygon fill="#406447" fill-opacity="0.501961" points="252,146 253,149 244,150" />
<polygon fill="#454661" fill-opacity="0.501961" points="4,131 34,113 15,115" />
<polygon fill="#b69f89" fill-opacity="0.501961" points="61,143 60,133 54,149" />
<polygon fill="#12182a" fill-opacity="0.501961" points="156,67 212,46 102,51" />
<polygon fill="#413c36" fill-opacity="0.501961" points="74,88 82,81 76,78" />
<polygon fill="#463a4e" fill-opacity="0.501961" points="147,149 138,146 151,145" />
<polygon fill="#1f283f" fill-opacity="0.501961" points="68,98 36,86 81,75" />
<polygon fill="#515267" fill-opacity="0.501961" points="121,140 147,137 127,132" />
<polygon fill="#272728" fill-opacity="0.501961" points="85,68 80,68 90,55" />
<polygon fill="#222020" fill-opacity="0.501961" points="96,32 105,26 96,40" />
<polygon fill="#3c394f" fill-opacity="0.501961" points="239,120 249,140 221,110" />
<polygon fill="#c4a887" fill-opacity="0.501961" points="117,17 117,15 119,14" />
<polygon fill="#142439" fill-opacity="0.501961" points="-11,83 27,58 47,69" />
<polygon fill="#1a171f" fill-opacity="0.501961" points="106,23 117,14 116,9" />
<polygon fill="#aa7c76" fill-opacity="0.501961" points="187,134 204,134 212,143" />
<polygon fill="#254643" fill-opacity="0.501961" points="133,147 146,151 122,151" />
<polygon fill="#dc906d" fill-opacity="0.501961" points="182,145 184,139 175,141" />
<polygon fill="#3a6f40" fill-opacity="0.501961" points="249,151 232,151 238,148" />
<polygon fill="#baa384" fill-opacity="0.501961" points="78,137 75,131 77,145" />
<polygon fill="#131d34" fill-opacity="0.501961" points="255,71 222,64 267,98" />
<polygon fill="#f09864" fill-opacity="0.501961" points="36,145 48,149 46,144" />
<polygon fill="#5d4c5a" fill-opacity="0.501961" points="154,126 202,122 179,117" />
<polygon fill="#293538" fill-opacity="0.501961" points="103,151 78,151 87,156" />
<polygon fill="#5c5167" fill-opacity="0.501961" points="65,110 60,123 53,125" />
<polygon fill="#a09c67" fill-opacity="0.501961" points="232,149 231,148 231,149" />
<polygon fill="#131a2e" fill-opacity="0.501961" points="86,52 80,72 38,46" />
<polygon fill="#685c72" fill-opacity="0.501961" points="62,118 50,133 57,132" />
<polygon fill="#b06845" fill-opacity="0.501961" points="164,146 175,149 168,149" />
<polygon fill="#ebdbc0" fill-opacity="0.501961" points="69,152 66,165 71,175" />
<polygon fill="#3f4746" fill-opacity="0.501961" points="42,155 37,152 49,151" />
<polygon fill="#131c32" fill-opacity="0.501961" points="101,58 92,75 131,76" />
<polygon fill="#080e1d" fill-opacity="0.501961" points="1,39 18,13 69,2" />
<polygon fill="#475744" fill-opacity="0.501961" points="182,149 186,151 176,153" />
<polygon fill="#a1998f" fill-opacity="0.501961" points="89,64 87,70 89,70" />
<polygon fill="#a38a6c" fill-opacity="0.501961" points="77,134 78,130 81,136" />
<polygon fill="#33354c" fill-opacity="0.501961" points="146,107 178,106 135,119" />
<polygon fill="#efe1c9" fill-opacity="0.501961" points="63,146 61,164 53,165" />
<polygon fill="#eea87b" fill-opacity="0.501961" points="196,145 199,149 193,147" />
<polygon fill="#413c2f" fill-opacity="0.501961" points="91,69 91,75 89,68" />
<polygon fill="#2c2f47" fill-opacity="0.501961" points="90,115 87,88 94,103" />
<polygon fill="#4c312f" fill-opacity="0.501961" points="188,153 169,152 184,159" />
<polygon fill="#aca293" fill-opacity="0.501961" points="84,83 84,73 87,74" />
<polygon fill="#836b76" fill-opacity="0.501961" points="36,132 52,133 28,139" />
<polygon fill="#a47c79" fill-opacity="0.501961" points="40,138 54,137 56,143" />
<polygon fill="#3d4358" fill-opacity="0.501961" points="143,145 129,141 121,147" />
<polygon fill="#c09f78" fill-opacity="0.501961" points="125,8 130,7 126,9" />
<polygon fill="#09101e" fill-opacity="0.501961" points="94,24 99,7 144,-4" />
<polygon fill="#f5c394" fill-opacity="0.501961" points="179,147 180,149 180,147" />
<polygon fill="#ac997e" fill-opacity="0.501961" points="100,45 100,43 97,44" />
<polygon fill="#161f27" fill-opacity="0.501961" points="243,155 255,151 237,151" />
<polygon fill="#0a0f1d" fill-opacity="0.501961" points="137,28 135,8 129,8" />
<polygon fill="#9f8b6a" fill-opacity="0.501961" points="78,106 80,112 80,100" />
<polygon fill="#202a34" fill-opacity="0.501961" points="249,144 250,150 248,147" />
<polygon fill="#4a4435" fill-opacity="0.501961" points="86,77 91,78 90,70" />
<polygon fill="#d8d4cc" fill-opacity="0.501961" points="81,87 83,83 83,85" />
<polygon fill="#202534" fill-opacity="0.501961" points="90,71 89,84 95,74" />
<polygon fill="#4d7f52" fill-opacity="0.501961" points="233,149 226,151 236,151" />
<polygon fill="#111729" fill-opacity="0.501961" points="100,45 131,49 141,63" />
<polygon fill="#b8816b" fill-opacity="0.501961" points="25,149 34,143 26,143" />
<polygon fill="#875e63" fill-opacity="0.501961" points="203,134 225,139 216,132" />
<polygon fill="#3a4849" fill-opacity="0.501961" points="91,148 89,153 79,152" />
<polygon fill="#8e5a56" fill-opacity="0.501961" points="168,148 162,141 160,147" />
<polygon fill="#0b1c32" fill-opacity="0.501961" points="163,35 152,32 165,42" />
<polygon fill="#1c2137" fill-opacity="0.501961" points="160,72 203,81 133,86" />
<polygon fill="#c77a5f" fill-opacity="0.501961" points="212,144 225,147 214,140" />
<polygon fill="#496648" fill-opacity="0.501961" points="200,152 210,149 194,149" />
<polygon fill="#877574" fill-opacity="0.501961" points="60,134 67,120 50,138" />
<polygon fill="#131118" fill-opacity="0.501961" points="125,8 132,2 126,1" />
<polygon fill="#6e5460" fill-opacity="0.501961" points="15,140 22,133 0,137" />
<polygon fill="#c3b9a5" fill-opacity="0.501961" points="96,48 98,48 99,44" />
<polygon fill="#ffffe4" fill-opacity="0.501961" points="192,148 188,148 191,146" />
<polygon fill="#fbfdf9" fill-opacity="0.501961" points="70,130 71,133 68,135" />
<polygon fill="#9c6a67" fill-opacity="0.501961" points="218,137 206,135 217,142" />
<polygon fill="#eddcc4" fill-opacity="0.501961" points="67,134 68,135 67,138" />
<polygon fill="#fde2b5" fill-opacity="0.501961" points="73,148 74,147 78,149" />
<polygon fill="#704a52" fill-opacity="0.501961" points="228,145 235,148 228,134" />
<polygon fill="#2e3049" fill-opacity="0.501961" points="242,106 268,121 249,138" />
<polygon fill="#363227" fill-opacity="0.501961" points="98,48 99,50 97,52" />
<polygon fill="#ccd0d8" fill-opacity="0.501961" points="202,146 204,148 208,147" />
<polygon fill="#030d1c" fill-opacity="0.501961" points="163,-6 122,6 94,-16" />
<polygon fill="#7b431d" fill-opacity="0.501961" points="127,7 126,8 125,8" />
<polygon fill="#d2967b" fill-opacity="0.501961" points="55,149 55,144 40,144" />
<polygon fill="#14192f" fill-opacity="0.501961" points="232,51 242,68 172,65" />
<polygon fill="#362928" fill-opacity="0.501961" points="222,152 203,153 232,173" />
<polygon fill="#91797b" fill-opacity="0.501961" points="82,134 85,148 79,142" />
<polygon fill="#544557" fill-opacity="0.501961" points="217,119 232,133 188,116" />
<polygon fill="#7a565e" fill-opacity="0.501961" points="203,130 227,138 220,131" />
<polygon fill="#403221" fill-opacity="0.501961" points="121,15 120,18 118,17" />
<polygon fill="#ceb791" fill-opacity="0.501961" points="77,106 78,109 77,111" />
<polygon fill="#9d8863" fill-opacity="0.501961" points="76,100 73,106 74,101" />
<polygon fill="#080e20" fill-opacity="0.501961" points="217,9 264,45 267,27" />
<polygon fill="#0b1122" fill-opacity="0.501961" points="181,14 147,32 230,26" />
</g>
</svg>