<svg xmlns="http://www.w3.org/2000/svg" version="1.1" width="1024" height="320">
<rect x="0" y="0" width="1024" height="320" fill="#30302f" />
<g transform="scale(4.000000) translate(0.5 0.5)">
<polygon fill="#f3f3ed" fill-opacity="0.501961" points="132,2 128,28 122,-16" />
<polygon fill="#64635d" fill-opacity="0.501961" points="79,82 174,95 149,40" />
<polygon fill="#070807" fill-opacity="0.501961" points="31,84 6,-16 34,-16" />
<polygon fill="#101112" fill-opacity="0.501961" points="252,95 223,3 271,-9" />
<polygon fill="#505150" fill-opacity="0.501961" points="223,11 193,-3 223,91" />
<polygon fill="#242421" fill-opacity="0.501961" points="27,-16 131,4 64,83" />
<polygon fill="#72716b" fill-opacity="0.501961" points="95,71 75,95 170,77" />
<polygon fill="#43423d" fill-opacity="0.501961" points="95,30 165,44 95,76" />
<polygon fill="#0b090d" fill-opacity="0.501961" points="-16,34 5,95 5,-16" />
<polygon fill="#939393" fill-opacity="0.501961" points="70,10 43,-7 46,-16" />
<polygon fill="#1b1a17" fill-opacity="0.501961" points="46,-16 143,33 94,27" />
<polygon fill="#e0e1de" fill-opacity="0.501961" points="124,24 130,24 129,9" />
<polygon fill="#2e2e2c" fill-opacity="0.501961" points="134,17 66,11 44,53" />
<polygon fill="#d1d3d1" fill-opacity="0.501961" points="53,13 52,16 59,16" />
<polygon fill="#ffffff" fill-opacity="0.501961" points="129,2 139,-16 119,-6" />
<polygon fill="#0a0b0a" fill-opacity="0.501961" points="38,6 51,51 50,-8" />
<polygon fill="#4e4e4c" fill-opacity="0.501961" points="204,-6 167,21 205,24" />
<polygon fill="#e5e6e3" fill-opacity="0.501961" points="123,9 132,11 126,16" />
<polygon fill="#48463f" fill-opacity="0.501961" points="110,-16 123,-16 126,29" />
<polygon fill="#4a4b4a" fill-opacity="0.501961" points="34,24 33,82 51,91" />
<polygon fill="#4e504d" fill-opacity="0.501961" points="205,29 208,95 196,69" />
<polygon fill="#2e2d2a" fill-opacity="0.501961" points="137,39 129,3 224,2" />
<polygon fill="#242422" fill-opacity="0.501961" points="161,74 161,25 217,42" />
<polygon fill="#1f2021" fill-opacity="0.501961" points="27,72 1,76 26,-16" />
<polygon fill="#424242" fill-opacity="0.501961" points="61,45 52,11 49,81" />
<polygon fill="#3f4041" fill-opacity="0.501961" points="-16,34 23,26 13,8" />
<polygon fill="#050505" fill-opacity="0.501961" points="253,89 271,41 251,-9" />
<polygon fill="#565653" fill-opacity="0.501961" points="192,49 193,87 186,69" />
<polygon fill="#3c3c39" fill-opacity="0.501961" points="160,30 159,70 94,69" />
<polygon fill="#1e1e1d" fill-opacity="0.501961" points="94,24 95,73 58,46" />
<polygon fill="#000001" fill-opacity="0.501961" points="56,30 63,18 62,2" />
<polygon fill="#c2c1c0" fill-opacity="0.501961" points="28,1 -2,-13 26,-16" />
<polygon fill="#46484a" fill-opacity="0.501961" points="250,18 228,27 251,27" />
<polygon fill="#636365" fill-opacity="0.501961" points="178,14 209,-16 198,4" />
<polygon fill="#0e0f0f" fill-opacity="0.501961" points="50,86 44,71 50,51" />
<polygon fill="#181816" fill-opacity="0.501961" points="168,18 167,-7 194,-1" />
<polygon fill="#bbbcbb" fill-opacity="0.501961" points="196,17 198,13 203,13" />
<polygon fill="#5a5b5b" fill-opacity="0.501961" points="224,43 214,50 223,12" />
<polygon fill="#515251" fill-opacity="0.501961" points="89,25 85,15 69,9" />
<polygon fill="#1d1e1e" fill-opacity="0.501961" points="207,45 213,23 206,2" />
<polygon fill="#0c0c0b" fill-opacity="0.501961" points="88,19 44,-16 86,-16" />
<polygon fill="#4d4f4d" fill-opacity="0.501961" points="67,55 68,86 62,73" />
<polygon fill="#494740" fill-opacity="0.501961" points="143,-16 132,22 131,-2" />
<polygon fill="#424342" fill-opacity="0.501961" points="62,58 64,17 69,39" />
<polygon fill="#000101" fill-opacity="0.501961" points="63,42 59,28 59,56" />
<polygon fill="#545452" fill-opacity="0.501961" points="50,83 57,95 57,62" />
<polygon fill="#656565" fill-opacity="0.501961" points="34,26 37,18 33,11" />
<polygon fill="#212121" fill-opacity="0.501961" points="192,51 200,31 194,5" />
<polygon fill="#0f1010" fill-opacity="0.501961" points="61,53 56,67 63,80" />
<polygon fill="#4b4c48" fill-opacity="0.501961" points="194,50 192,28 188,49" />
<polygon fill="#202223" fill-opacity="0.501961" points="224,11 226,49 251,82" />
<polygon fill="#ffffff" fill-opacity="0.501961" points="128,14 126,10 126,16" />
<polygon fill="#4c4e4b" fill-opacity="0.501961" points="204,52 197,23 205,15" />
<polygon fill="#373736" fill-opacity="0.501961" points="44,74 46,7 33,46" />
<polygon fill="#000000" fill-opacity="0.501961" points="24,6 30,16 34,-9" />
<polygon fill="#bbbbb9" fill-opacity="0.501961" points="33,-10 41,-16 60,2" />
<polygon fill="#2d2f31" fill-opacity="0.501961" points="241,67 252,88 251,29" />
<polygon fill="#ffffff" fill-opacity="0.501961" points="149,-13 125,2 127,-16" />
<polygon fill="#474641" fill-opacity="0.501961" points="95,69 122,56 97,37" />
<polygon fill="#63625f" fill-opacity="0.501961" points="199,94 154,70 87,79" />
<polygon fill="#3c3c3b" fill-opacity="0.501961" points="184,66 183,16 174,34" />
<polygon fill="#232322" fill-opacity="0.501961" points="161,61 180,90 180,19" />
<polygon fill="#171718" fill-opacity="0.501961" points="208,57 203,95 213,89" />
<polygon fill="#444542" fill-opacity="0.501961" points="210,7 224,46 212,85" />
<polygon fill="#b8b8b7" fill-opacity="0.501961" points="197,2 225,-16 211,-16" />
<polygon fill="#242421" fill-opacity="0.501961" points="93,18 136,27 64,37" />
<polygon fill="#5f5f60" fill-opacity="0.501961" points="7,15 10,26 7,35" />
<polygon fill="#101010" fill-opacity="0.501961" points="65,1 62,15 59,6" />
<polygon fill="#605f5e" fill-opacity="0.501961" points="72,10 76,10 73,22" />
<polygon fill="#0e1110" fill-opacity="0.501961" points="238,25 239,50 248,27" />
<polygon fill="#000000" fill-opacity="0.501961" points="46,16 50,1 51,15" />
<polygon fill="#585857" fill-opacity="0.501961" points="224,24 219,12 222,-2" />
<polygon fill="#919190" fill-opacity="0.501961" points="66,6 70,9 64,9" />
<polygon fill="#4b4a45" fill-opacity="0.501961" points="124,-5 119,13 125,24" />
<polygon fill="#020301" fill-opacity="0.501961" points="-16,4 4,8 10,-13" />
<polygon fill="#1f201e" fill-opacity="0.501961" points="36,22 43,-10 51,60" />
<polygon fill="#1a1a19" fill-opacity="0.501961" points="62,47 53,15 62,19" />
<polygon fill="#626260" fill-opacity="0.501961" points="70,21 65,19 63,24" />
<polygon fill="#5c5d5d" fill-opacity="0.501961" points="54,27 51,19 52,36" />
<polygon fill="#161614" fill-opacity="0.501961" points="70,41 65,22 71,25" />
<polygon fill="#080809" fill-opacity="0.501961" points="198,44 194,54 194,30" />
<polygon fill="#6c6d6b" fill-opacity="0.501961" points="73,28 72,21 74,23" />
<polygon fill="#a0a0a0" fill-opacity="0.501961" points="224,-12 230,1 244,-16" />
<polygon fill="#434342" fill-opacity="0.501961" points="50,46 58,53 58,72" />
<polygon fill="#767776" fill-opacity="0.501961" points="203,7 205,19 202,13" />
<polygon fill="#5b5b5b" fill-opacity="0.501961" points="37,13 33,15 34,1" />
<polygon fill="#575856" fill-opacity="0.501961" points="188,21 192,5 193,29" />
<polygon fill="#30312f" fill-opacity="0.501961" points="220,22 221,4 192,3" />
<polygon fill="#333230" fill-opacity="0.501961" points="166,25 157,-12 129,8" />
<polygon fill="#3d3d3d" fill-opacity="0.501961" points="252,21 248,5 247,33" />
<polygon fill="#1e1e1e" fill-opacity="0.501961" points="197,59 189,95 199,95" />
<polygon fill="#20201f" fill-opacity="0.501961" points="52,0 70,21 88,24" />
<polygon fill="#464745" fill-opacity="0.501961" points="63,54 65,62 68,43" />
<polygon fill="#444542" fill-opacity="0.501961" points="72,33 76,37 72,50" />
<polygon fill="#1a1a1a" fill-opacity="0.501961" points="206,33 211,36 210,49" />
<polygon fill="#151515" fill-opacity="0.501961" points="33,26 19,42 29,85" />
<polygon fill="#464744" fill-opacity="0.501961" points="232,72 271,88 229,95" />
<polygon fill="#161613" fill-opacity="0.501961" points="44,-4 38,-6 36,18" />
<polygon fill="#2f2f2e" fill-opacity="0.501961" points="65,4 55,-16 49,-8" />
<polygon fill="#818180" fill-opacity="0.501961" points="189,5 185,9 191,7" />
<polygon fill="#50504d" fill-opacity="0.501961" points="182,64 179,95 188,94" />
<polygon fill="#5e5e5b" fill-opacity="0.501961" points="74,71 67,95 75,83" />
<polygon fill="#4c4e4c" fill-opacity="0.501961" points="33,72 45,69 42,94" />
<polygon fill="#353432" fill-opacity="0.501961" points="163,9 126,18 154,20" />
<polygon fill="#323331" fill-opacity="0.501961" points="177,14 202,-16 196,1" />
<polygon fill="#a7a7a6" fill-opacity="0.501961" points="58,16 56,13 52,12" />
<polygon fill="#111112" fill-opacity="0.501961" points="73,67 69,50 68,79" />
<polygon fill="#525253" fill-opacity="0.501961" points="164,25 175,13 183,13" />
<polygon fill="#171718" fill-opacity="0.501961" points="223,18 229,1 225,-16" />
<polygon fill="#ffffff" fill-opacity="0.501961" points="128,24 128,22 126,24" />
<polygon fill="#0b0b0c" fill-opacity="0.501961" points="71,10 72,25 69,20" />
<polygon fill="#171717" fill-opacity="0.501961" points="205,14 206,-15 218,-16" />
<polygon fill="#3b3b39" fill-opacity="0.501961" points="71,75 73,48 77,65" />
<polygon fill="#212221" fill-opacity="0.501961" points="94,66 75,78 75,18" />
<polygon fill="#202224" fill-opacity="0.501961" points="9,24 16,73 22,30" />
<polygon fill="#4b4b4b" fill-opacity="0.501961" points="92,23 85,20 94,28" />
<polygon fill="#0f0e0f" fill-opacity="0.501961" points="51,47 46,61 46,35" />
<polygon fill="#40403d" fill-opacity="0.501961" points="134,33 160,40 160,68" />
<polygon fill="#474846" fill-opacity="0.501961" points="198,34 206,60 198,88" />
<polygon fill="#484845" fill-opacity="0.501961" points="25,73 22,95 10,79" />
<polygon fill="#3f3f3e" fill-opacity="0.501961" points="246,2 249,-3 251,12" />
<polygon fill="#1f1f1f" fill-opacity="0.501961" points="184,27 190,30 185,10" />
<polygon fill="#22221e" fill-opacity="0.501961" points="10,-9 10,18 23,22" />
<polygon fill="#52514b" fill-opacity="0.501961" points="130,18 132,6 134,23" />
<polygon fill="#504f4c" fill-opacity="0.501961" points="80,70 73,95 81,91" />
<polygon fill="#47484a" fill-opacity="0.501961" points="7,0 14,20 9,28" />
<polygon fill="#4a4b49" fill-opacity="0.501961" points="205,10 204,-8 198,14" />
<polygon fill="#20201d" fill-opacity="0.501961" points="126,27 140,22 160,28" />
<polygon fill="#353533" fill-opacity="0.501961" points="178,57 177,24 169,39" />
<polygon fill="#282928" fill-opacity="0.501961" points="229,65 208,66 230,77" />
<polygon fill="#141312" fill-opacity="0.501961" points="31,41 33,14 13,-16" />
<polygon fill="#0f0f10" fill-opacity="0.501961" points="188,52 185,41 185,60" />
<polygon fill="#ffffff" fill-opacity="0.501961" points="130,9 126,9 128,15" />
<polygon fill="#6d6b66" fill-opacity="0.501961" points="148,79 82,95 94,75" />
<polygon fill="#70706f" fill-opacity="0.501961" points="180,13 182,10 184,15" />
<polygon fill="#242321" fill-opacity="0.501961" points="60,27 53,17 53,31" />
<polygon fill="#333231" fill-opacity="0.501961" points="86,43 79,30 79,63" />
<polygon fill="#929290" fill-opacity="0.501961" points="76,16 73,13 77,13" />
<polygon fill="#333330" fill-opacity="0.501961" points="193,18 202,16 203,28" />
<polygon fill="#3e3e3c" fill-opacity="0.501961" points="57,13 53,-6 52,11" />
<polygon fill="#ffffff" fill-opacity="0.501961" points="127,2 139,-8 125,-12" />
<polygon fill="#232224" fill-opacity="0.501961" points="4,38 6,5 -15,18" />
<polygon fill="#3c3b37" fill-opacity="0.501961" points="103,73 135,68 139,32" />
<polygon fill="#8f8e8d" fill-opacity="0.501961" points="83,19 78,17 81,17" />
<polygon fill="#131313" fill-opacity="0.501961" points="59,58 65,60 62,47" />
<polygon fill="#737370" fill-opacity="0.501961" points="182,25 183,23 181,21" />
<polygon fill="#3c3c3a" fill-opacity="0.501961" points="189,56 194,38 188,28" />
<polygon fill="#1e1e1d" fill-opacity="0.501961" points="92,29 77,17 91,44" />
<polygon fill="#4c4d4a" fill-opacity="0.501961" points="176,72 180,87 173,95" />
<polygon fill="#484948" fill-opacity="0.501961" points="26,26 19,27 10,22" />
<polygon fill="#555653" fill-opacity="0.501961" points="67,20 64,24 64,9" />
<polygon fill="#252523" fill-opacity="0.501961" points="20,21 9,-8 10,19" />
<polygon fill="#282828" fill-opacity="0.501961" points="181,83 187,61 188,73" />
<polygon fill="#1c1c1a" fill-opacity="0.501961" points="170,12 172,1 181,18" />
<polygon fill="#000000" fill-opacity="0.501961" points="46,8 50,-4 51,11" />
<polygon fill="#414342" fill-opacity="0.501961" points="197,95 223,95 223,66" />
<polygon fill="#616463" fill-opacity="0.501961" points="35,26 34,29 35,32" />
<polygon fill="#121213" fill-opacity="0.501961" points="196,60 193,45 197,49" />
<polygon fill="#4f5050" fill-opacity="0.501961" points="224,52 211,57 223,26" />
<polygon fill="#2f2e29" fill-opacity="0.501961" points="114,-6 126,25 92,10" />
<polygon fill="#20201e" fill-opacity="0.501961" points="82,79 95,59 81,25" />
<polygon fill="#222221" fill-opacity="0.501961" points="172,20 162,34 182,21" />
<polygon fill="#0e0e0e" fill-opacity="0.501961" points="251,-15 271,18 251,46" />
<polygon fill="#414141" fill-opacity="0.501961" points="46,76 34,51 44,49" />
<polygon fill="#1a1b1a" fill-opacity="0.501961" points="228,49 250,50 236,31" />
<polygon fill="#3e3d3b" fill-opacity="0.501961" points="46,10 40,11 37,7" />
<polygon fill="#070708" fill-opacity="0.501961" points="53,95 62,69 61,86" />
<polygon fill="#302f2c" fill-opacity="0.501961" points="114,40 152,32 94,27" />
<polygon fill="#3d3e3f" fill-opacity="0.501961" points="248,40 252,42 250,27" />
<polygon fill="#585957" fill-opacity="0.501961" points="231,25 239,25 231,28" />
<polygon fill="#444647" fill-opacity="0.501961" points="56,49 51,37 52,65" />
<polygon fill="#0d0d0c" fill-opacity="0.501961" points="68,50 68,39 71,47" />
<polygon fill="#ffffff" fill-opacity="0.501961" points="126,20 129,22 127,23" />
<polygon fill="#7c7c7b" fill-opacity="0.501961" points="185,22 189,21 189,19" />
<polygon fill="#5f605d" fill-opacity="0.501961" points="206,30 201,27 204,21" />
<polygon fill="#313130" fill-opacity="0.501961" points="197,17 187,14 189,20" />
<polygon fill="#ffffff" fill-opacity="0.501961" points="128,16 130,16 127,11" />
<polygon fill="#20201e" fill-opacity="0.501961" points="162,71 176,57 162,41" />
<polygon fill="#353533" fill-opacity="0.501961" points="203,52 197,35 202,19" />
<polygon fill="#5b5c5a" fill-opacity="0.501961" points="51,19 52,13 54,24" />
<polygon fill="#242320" fill-opacity="0.501961" points="126,20 99,27 112,28" />
<polygon fill="#222220" fill-opacity="0.501961" points="100,8 88,20 73,-16" />
<polygon fill="#2e3341" fill-opacity="0.501961" points="238,51 253,56 252,51" />
<polygon fill="#1a1b19" fill-opacity="0.501961" points="46,66 52,87 44,95" />
<polygon fill="#484746" fill-opacity="0.501961" points="143,68 172,78 136,53" />
<polygon fill="#444544" fill-opacity="0.501961" points="63,54 67,54 64,62" />
<polygon fill="#252524" fill-opacity="0.501961" points="36,-2 45,14 36,46" />
<polygon fill="#3f413f" fill-opacity="0.501961" points="210,8 220,18 221,39" />
<polygon fill="#2a292a" fill-opacity="0.501961" points="223,95 236,59 226,30" />
<polygon fill="#646668" fill-opacity="0.501961" points="34,25 34,18 37,28" />
<polygon fill="#252523" fill-opacity="0.501961" points="77,16 64,18 66,12" />
<polygon fill="#50504c" fill-opacity="0.501961" points="113,69 106,75 133,74" />
<polygon fill="#121212" fill-opacity="0.501961" points="4,56 -16,66 6,95" />
<polygon fill="#202121" fill-opacity="0.501961" points="271,50 240,73 242,53" />
<polygon fill="#494a47" fill-opacity="0.501961" points="63,44 63,21 67,33" />
<polygon fill="#2e354f" fill-opacity="0.501961" points="10,52 17,49 19,52" />
<polygon fill="#535452" fill-opacity="0.501961" points="191,64 187,89 194,90" />
<polygon fill="#494842" fill-opacity="0.501961" points="135,12 131,10 132,-1" />
<polygon fill="#30302f" fill-opacity="0.501961" points="89,46 84,30 83,51" />
<polygon fill="#cacacb" fill-opacity="0.501961" points="26,0 16,-16 41,-16" />
<polygon fill="#434442" fill-opacity="0.501961" points="184,50 183,30 180,39" />
<polygon fill="#20211f" fill-opacity="0.501961" points="24,50 11,51 17,23" />
<polygon fill="#323333" fill-opacity="0.501961" points="45,38 35,51 37,21" />
<polygon fill="#353634" fill-opacity="0.501961" points="83,71 87,77 85,60" />
<polygon fill="#545451" fill-opacity="0.501961" points="66,72 72,95 59,95" />
<polygon fill="#a0a0a0" fill-opacity="0.501961" points="61,3 51,-11 44,-10" />
<polygon fill="#191a19" fill-opacity="0.501961" points="248,-1 246,22 238,20" />
<polygon fill="#232421" fill-opacity="0.501961" points="56,13 53,2 58,7" />
<polygon fill="#888888" fill-opacity="0.501961" points="179,15 180,12 182,12" />
<polygon fill="#2b2a26" fill-opacity="0.501961" points="150,-16 139,26 133,-16" />
<polygon fill="#1f1f1d" fill-opacity="0.501961" points="168,60 174,39 175,78" />
<polygon fill="#666866" fill-opacity="0.501961" points="222,21 225,38 221,32" />
<polygon fill="#000000" fill-opacity="0.501961" points="32,9 34,-4 23,-16" />
<polygon fill="#2e2f2d" fill-opacity="0.501961" points="182,12 144,38 150,22" />
<polygon fill="#131412" fill-opacity="0.501961" points="76,69 75,95 82,90" />
<polygon fill="#2b2a28" fill-opacity="0.501961" points="58,23 53,19 59,36" />
<polygon fill="#272826" fill-opacity="0.501961" points="242,25 227,36 230,28" />
<polygon fill="#1f201f" fill-opacity="0.501961" points="32,48 24,67 31,95" />
<polygon fill="#141414" fill-opacity="0.501961" points="83,20 80,28 84,31" />
<polygon fill="#504f4a" fill-opacity="0.501961" points="119,23 124,6 126,19" />
<polygon fill="#2b2c2a" fill-opacity="0.501961" points="224,40 230,7 233,21" />
<polygon fill="#383835" fill-opacity="0.501961" points="178,71 174,66 176,56" />
<polygon fill="#555552" fill-opacity="0.501961" points="183,74 187,92 182,90" />
<polygon fill="#313334" fill-opacity="0.501961" points="10,67 7,53 5,80" />
<polygon fill="#0b0b0b" fill-opacity="0.501961" points="59,8 63,4 62,22" />
<polygon fill="#383838" fill-opacity="0.501961" points="35,-16 68,6 50,-16" />
<polygon fill="#404346" fill-opacity="0.501961" points="6,33 8,44 10,36" />
<polygon fill="#22211e" fill-opacity="0.501961" points="26,4 15,8 26,26" />
<polygon fill="#0d0d0b" fill-opacity="0.501961" points="45,-11 83,11 63,-16" />
<polygon fill="#464644" fill-opacity="0.501961" points="171,73 169,82 178,95" />
<polygon fill="#161615" fill-opacity="0.501961" points="68,69 71,79 71,64" />
<polygon fill="#ffffff" fill-opacity="0.501961" points="113,-14 131,-15 129,2" />
<polygon fill="#1c1c1b" fill-opacity="0.501961" points="87,51 94,51 86,76" />
<polygon fill="#31312f" fill-opacity="0.501961" points="64,38 68,30 65,17" />
<polygon fill="#3a3a38" fill-opacity="0.501961" points="80,55 82,68 78,67" />
<polygon fill="#51504f" fill-opacity="0.501961" points="8,3 6,19 10,14" />
<polygon fill="#414140" fill-opacity="0.501961" points="178,30 175,35 176,20" />
<polygon fill="#101010" fill-opacity="0.501961" points="51,30 50,13 46,23" />
<polygon fill="#343432" fill-opacity="0.501961" points="170,61 171,55 173,67" />
<polygon fill="#1d1d1c" fill-opacity="0.501961" points="82,20 93,28 94,39" />
<polygon fill="#44433f" fill-opacity="0.501961" points="95,48 130,64 97,65" />
<polygon fill="#303131" fill-opacity="0.501961" points="247,54 250,66 251,44" />
<polygon fill="#373735" fill-opacity="0.501961" points="203,9 200,2 195,16" />
<polygon fill="#121513" fill-opacity="0.501961" points="78,16 79,21 76,19" />
<polygon fill="#292a29" fill-opacity="0.501961" points="207,60 212,74 210,49" />
<polygon fill="#0b0c0c" fill-opacity="0.501961" points="27,30 32,46 27,49" />
<polygon fill="#4b5265" fill-opacity="0.501961" points="35,62 40,64 39,65" />
<polygon fill="#161614" fill-opacity="0.501961" points="44,10 37,9 38,-16" />
<polygon fill="#4c4b4c" fill-opacity="0.501961" points="164,26 161,27 163,24" />
<polygon fill="#6a6a69" fill-opacity="0.501961" points="221,6 223,9 221,16" />
<polygon fill="#4f5150" fill-opacity="0.501961" points="204,50 206,62 199,60" />
<polygon fill="#717171" fill-opacity="0.501961" points="236,25 233,26 236,26" />
<polygon fill="#818180" fill-opacity="0.501961" points="222,-16 195,4 210,-16" />
<polygon fill="#535353" fill-opacity="0.501961" points="36,11 33,12 35,2" />
<polygon fill="#737371" fill-opacity="0.501961" points="72,21 75,24 73,24" />
<polygon fill="#323436" fill-opacity="0.501961" points="233,54 231,73 240,67" />
<polygon fill="#646460" fill-opacity="0.501961" points="97,73 126,95 56,95" />
<polygon fill="#0e0e0e" fill-opacity="0.501961" points="31,19 23,3 33,11" />
<polygon fill="#444543" fill-opacity="0.501961" points="72,42 75,33 72,28" />
<polygon fill="#2f323a" fill-opacity="0.501961" points="17,41 20,37 17,28" />
<polygon fill="#151614" fill-opacity="0.501961" points="75,59 78,69 78,50" />
<polygon fill="#3e3d39" fill-opacity="0.501961" points="123,46 119,63 88,76" />
<polygon fill="#555557" fill-opacity="0.501961" points="35,1 38,-16 29,-16" />
<polygon fill="#252525" fill-opacity="0.501961" points="198,5 194,24 193,6" />
<polygon fill="#2b303e" fill-opacity="0.501961" points="250,68 239,66 233,70" />
<polygon fill="#141414" fill-opacity="0.501961" points="62,23 57,26 63,36" />
<polygon fill="#272725" fill-opacity="0.501961" points="83,54 89,35 90,68" />
<polygon fill="#121212" fill-opacity="0.501961" points="218,-16 231,-8 226,6" />
<polygon fill="#111213" fill-opacity="0.501961" points="71,63 71,50 68,59" />
<polygon fill="#212022" fill-opacity="0.501961" points="208,17 205,16 210,8" />
<polygon fill="#212120" fill-opacity="0.501961" points="178,17 182,18 179,32" />
<polygon fill="#2a3144" fill-opacity="0.501961" points="10,67 15,65 20,68" />
<polygon fill="#868986" fill-opacity="0.501961" points="202,15 203,12 204,13" />
<polygon fill="#70706f" fill-opacity="0.501961" points="177,15 175,19 174,18" />
<polygon fill="#4b4a45" fill-opacity="0.501961" points="134,16 130,23 132,4" />
<polygon fill="#151515" fill-opacity="0.501961" points="271,50 253,75 251,17" />
<polygon fill="#474644" fill-opacity="0.501961" points="161,65 160,49 135,64" />
<polygon fill="#222220" fill-opacity="0.501961" points="224,6 263,-16 225,23" />
<polygon fill="#1b1a1a" fill-opacity="0.501961" points="247,24 249,33 239,27" />
<polygon fill="#101312" fill-opacity="0.501961" points="248,38 244,43 240,39" />
<polygon fill="#3e3e3b" fill-opacity="0.501961" points="176,47 178,37 175,33" />
<polygon fill="#41423f" fill-opacity="0.501961" points="183,57 185,70 181,63" />
<polygon fill="#8e8e8f" fill-opacity="0.501961" points="232,0 239,-16 222,-7" />
<polygon fill="#151515" fill-opacity="0.501961" points="179,50 181,62 177,63" />
<polygon fill="#121212" fill-opacity="0.501961" points="62,50 63,70 59,60" />
<polygon fill="#302f2d" fill-opacity="0.501961" points="203,37 198,53 197,34" />
<polygon fill="#ffffff" fill-opacity="0.501961" points="127,11 129,16 129,10" />
<polygon fill="#414240" fill-opacity="0.501961" points="72,14 73,23 75,19" />
<polygon fill="#282826" fill-opacity="0.501961" points="175,-16 168,23 162,2" />
<polygon fill="#272725" fill-opacity="0.501961" points="174,66 157,66 168,72" />
<polygon fill="#131313" fill-opacity="0.501961" points="81,64 84,54 81,44" />
<polygon fill="#313131" fill-opacity="0.501961" points="224,25 230,38 224,52" />
<polygon fill="#1f2020" fill-opacity="0.501961" points="230,77 225,83 225,66" />
<polygon fill="#353532" fill-opacity="0.501961" points="171,56 173,49 170,44" />
<polygon fill="#5d5e5e" fill-opacity="0.501961" points="7,24 13,24 9,21" />
<polygon fill="#414240" fill-opacity="0.501961" points="211,6 223,50 211,42" />
<polygon fill="#171715" fill-opacity="0.501961" points="30,19 9,-3 25,1" />
<polygon fill="#3e403e" fill-opacity="0.501961" points="63,67 67,58 63,44" />
<polygon fill="#484844" fill-opacity="0.501961" points="88,82 84,70 84,95" />
<polygon fill="#31312d" fill-opacity="0.501961" points="190,31 191,22 187,22" />
<polygon fill="#101110" fill-opacity="0.501961" points="86,49 87,59 88,53" />
<polygon fill="#2c2a26" fill-opacity="0.501961" points="130,27 110,12 104,21" />
<polygon fill="#434342" fill-opacity="0.501961" points="237,24 249,21 249,25" />
<polygon fill="#959594" fill-opacity="0.501961" points="69,7 69,10 67,7" />
<polygon fill="#191b19" fill-opacity="0.501961" points="73,27 76,30 77,24" />
<polygon fill="#201f1d" fill-opacity="0.501961" points="16,65 15,54 7,67" />
<polygon fill="#1a1a19" fill-opacity="0.501961" points="193,40 198,41 196,27" />
<polygon fill="#363635" fill-opacity="0.501961" points="77,10 63,3 71,11" />
<polygon fill="#9d9d9b" fill-opacity="0.501961" points="45,-16 34,-16 60,3" />
<polygon fill="#3c3b39" fill-opacity="0.501961" points="76,64 72,58 74,47" />
<polygon fill="#141412" fill-opacity="0.501961" points="83,14 81,-16 72,7" />
<polygon fill="#3c3c3a" fill-opacity="0.501961" points="79,47 79,29 82,38" />
<polygon fill="#363532" fill-opacity="0.501961" points="36,48 44,51 45,27" />
<polygon fill="#242523" fill-opacity="0.501961" points="190,49 190,42 185,40" />
<polygon fill="#51514f" fill-opacity="0.501961" points="45,12 42,14 45,9" />
<polygon fill="#202020" fill-opacity="0.501961" points="184,33 186,19 189,30" />
<polygon fill="#21211f" fill-opacity="0.501961" points="38,9 40,19 45,12" />
<polygon fill="#524f49" fill-opacity="0.501961" points="131,4 124,8 122,3" />
<polygon fill="#3d3e3c" fill-opacity="0.501961" points="206,83 198,65 205,67" />
<polygon fill="#5a5955" fill-opacity="0.501961" points="161,73 146,75 173,80" />
<polygon fill="#3a3b38" fill-opacity="0.501961" points="198,12 205,-3 196,7" />
<polygon fill="#272825" fill-opacity="0.501961" points="62,7 53,4 53,0" />
<polygon fill="#4c4d4b" fill-opacity="0.501961" points="79,21 81,23 79,16" />
<polygon fill="#272628" fill-opacity="0.501961" points="6,16 -13,6 5,39" />
<polygon fill="#4b4c4c" fill-opacity="0.501961" points="53,70 52,87 66,95" />
<polygon fill="#272725" fill-opacity="0.501961" points="250,-11 230,15 231,1" />
<polygon fill="#1d1d1e" fill-opacity="0.501961" points="211,51 207,40 206,50" />
<polygon fill="#292826" fill-opacity="0.501961" points="56,33 53,20 58,29" />
<polygon fill="#2f3a5d" fill-opacity="0.501961" points="247,36 248,34 246,36" />
<polygon fill="#2c2c2a" fill-opacity="0.501961" points="9,7 18,13 9,18" />
<polygon fill="#2b2a26" fill-opacity="0.501961" points="120,-9 81,20 119,6" />
<polygon fill="#1d1d1c" fill-opacity="0.501961" points="210,61 204,87 211,84" />
<polygon fill="#232321" fill-opacity="0.501961" points="168,67 175,63 168,78" />
<polygon fill="#9f9f9c" fill-opacity="0.501961" points="65,20 68,22 68,20" />
<polygon fill="#676666" fill-opacity="0.501961" points="204,7 205,17 203,13" />
<polygon fill="#252627" fill-opacity="0.501961" points="224,20 242,22 233,25" />
<polygon fill="#151515" fill-opacity="0.501961" points="72,27 69,18 69,32" />
<polygon fill="#ffffff" fill-opacity="0.501961" points="126,14 127,13 129,15" />
<polygon fill="#1b1b1a" fill-opacity="0.501961" points="91,31 86,49 86,25" />
<polygon fill="#5a5a59" fill-opacity="0.501961" points="186,23 192,16 192,19" />
<polygon fill="#2c2c2a" fill-opacity="0.501961" points="88,30 88,53 92,41" />
<polygon fill="#363632" fill-opacity="0.501961" points="112,70 110,65 129,67" />
<polygon fill="#222222" fill-opacity="0.501961" points="176,31 172,41 173,20" />
<polygon fill="#1f201f" fill-opacity="0.501961" points="9,37 10,42 21,40" />
<polygon fill="#3d3d3b" fill-opacity="0.501961" points="72,62 74,66 73,71" />
<polygon fill="#2a2a28" fill-opacity="0.501961" points="89,62 86,74 90,73" />
<polygon fill="#161617" fill-opacity="0.501961" points="68,44 72,41 71,28" />
<polygon fill="#3e3d3b" fill-opacity="0.501961" points="57,75 51,54 57,42" />
<polygon fill="#373633" fill-opacity="0.501961" points="156,40 140,32 113,39" />
<polygon fill="#2d2c2c" fill-opacity="0.501961" points="197,12 192,1 197,6" />
<polygon fill="#474745" fill-opacity="0.501961" points="188,52 189,60 194,65" />
<polygon fill="#192030" fill-opacity="0.501961" points="247,35 239,36 243,37" />
<polygon fill="#131312" fill-opacity="0.501961" points="248,33 243,25 238,36" />
<polygon fill="#2b2b29" fill-opacity="0.501961" points="59,16 57,29 53,16" />
<polygon fill="#31302d" fill-opacity="0.501961" points="131,22 138,11 167,25" />
<polygon fill="#1c1d1c" fill-opacity="0.501961" points="239,64 240,53 248,67" />
<polygon fill="#232323" fill-opacity="0.501961" points="183,49 178,48 179,31" />
<polygon fill="#3a3935" fill-opacity="0.501961" points="116,11 121,-4 123,24" />
<polygon fill="#262523" fill-opacity="0.501961" points="47,27 36,26 36,2" />
<polygon fill="#131513" fill-opacity="0.501961" points="79,42 76,53 76,46" />
<polygon fill="#313130" fill-opacity="0.501961" points="186,1 176,16 183,10" />
<polygon fill="#616161" fill-opacity="0.501961" points="206,25 204,22 203,32" />
<polygon fill="#21211f" fill-opacity="0.501961" points="191,-12 211,-16 174,14" />
<polygon fill="#414240" fill-opacity="0.501961" points="205,42 203,19 198,30" />
<polygon fill="#454643" fill-opacity="0.501961" points="188,34 192,25 192,42" />
<polygon fill="#303645" fill-opacity="0.501961" points="14,20 18,23 9,21" />
<polygon fill="#151514" fill-opacity="0.501961" points="172,63 174,66 174,59" />
<polygon fill="#50576f" fill-opacity="0.501961" points="218,38 220,38 217,40" />
<polygon fill="#383f4c" fill-opacity="0.501961" points="34,42 42,39 36,39" />
<polygon fill="#2a2a29" fill-opacity="0.501961" points="196,17 198,27 193,31" />
<polygon fill="#1b1b1b" fill-opacity="0.501961" points="83,27 80,33 82,41" />
<polygon fill="#3f3f3e" fill-opacity="0.501961" points="251,14 249,4 248,10" />
<polygon fill="#555553" fill-opacity="0.501961" points="89,22 89,26 91,22" />
<polygon fill="#2a2a28" fill-opacity="0.501961" points="66,22 64,31 67,30" />
<polygon fill="#485065" fill-opacity="0.501961" points="36,51 37,53 39,51" />
<polygon fill="#494a49" fill-opacity="0.501961" points="62,21 65,20 64,16" />
<polygon fill="#3b3e40" fill-opacity="0.501961" points="9,52 7,40 5,53" />
<polygon fill="#383837" fill-opacity="0.501961" points="220,25 205,23 205,29" />
<polygon fill="#262624" fill-opacity="0.501961" points="83,25 97,8 97,20" />
<polygon fill="#494a48" fill-opacity="0.501961" points="67,40 63,26 63,35" />
<polygon fill="#373736" fill-opacity="0.501961" points="173,43 172,29 170,35" />
<polygon fill="#1b1c19" fill-opacity="0.501961" points="7,70 16,72 15,69" />
<polygon fill="#545453" fill-opacity="0.501961" points="88,23 84,22 86,18" />
<polygon fill="#32322f" fill-opacity="0.501961" points="69,43 65,38 68,30" />
<polygon fill="#3f3e3e" fill-opacity="0.501961" points="227,-16 208,-16 191,3" />
<polygon fill="#454748" fill-opacity="0.501961" points="214,74 221,77 211,83" />
<polygon fill="#252524" fill-opacity="0.501961" points="169,23 160,41 170,40" />
<polygon fill="#21211f" fill-opacity="0.501961" points="94,9 87,19 85,-9" />
<polygon fill="#535452" fill-opacity="0.501961" points="224,47 221,41 223,32" />
<polygon fill="#252523" fill-opacity="0.501961" points="134,23 135,30 161,25" />
<polygon fill="#1c1c1a" fill-opacity="0.501961" points="90,52 95,67 90,74" />
<polygon fill="#121312" fill-opacity="0.501961" points="71,54 68,49 71,41" />
<polygon fill="#737372" fill-opacity="0.501961" points="209,10 211,9 208,9" />
<polygon fill="#41413f" fill-opacity="0.501961" points="180,18 185,23 183,14" />
<polygon fill="#1e1e1e" fill-opacity="0.501961" points="208,11 205,0 211,7" />
<polygon fill="#545452" fill-opacity="0.501961" points="184,32 182,34 183,27" />
<polygon fill="#343431" fill-opacity="0.501961" points="191,20 190,10 188,16" />
<polygon fill="#20211d" fill-opacity="0.501961" points="242,74 239,68 248,70" />
<polygon fill="#31312f" fill-opacity="0.501961" points="67,18 64,20 67,10" />
<polygon fill="#202120" fill-opacity="0.501961" points="31,77 25,50 16,56" />
</g>
</svg>